<?xml version="1.0" encoding="utf-8" standalone="no"?>
<!DOCTYPE svg PUBLIC "-//W3C//DTD SVG 1.1//EN"
  "http://www.w3.org/Graphics/SVG/1.1/DTD/svg11.dtd">
<svg xmlns:xlink="http://www.w3.org/1999/xlink" width="443.596768pt" height="402.48pt" viewBox="0 0 443.596768 402.48" xmlns="http://www.w3.org/2000/svg" version="1.1">
 <metadata>
  <rdf:RDF xmlns:dc="http://purl.org/dc/elements/1.1/" xmlns:cc="http://creativecommons.org/ns#" xmlns:rdf="http://www.w3.org/1999/02/22-rdf-syntax-ns#">
   <cc:Work>
    <dc:type rdf:resource="http://purl.org/dc/dcmitype/StillImage"/>
    <dc:date>2025-11-15T22:32:46.176545</dc:date>
    <dc:format>image/svg+xml</dc:format>
    <dc:creator>
     <cc:Agent>
      <dc:title>Matplotlib v3.10.7, https://matplotlib.org/</dc:title>
     </cc:Agent>
    </dc:creator>
   </cc:Work>
  </rdf:RDF>
 </metadata>
 <defs>
  <style type="text/css">*{stroke-linejoin: round; stroke-linecap: butt}</style>
 </defs>
 <g id="figure_1">
  <g id="patch_1">
   <path d="M 0 402.48 
L 443.596768 402.48 
L 443.596768 -0 
L 0 -0 
z
" style="fill: #ffffff"/>
  </g>
  <g id="axes_1">
   <g id="patch_2">
    <path d="M 147.254689 259.762696 
Q 97.596688 222.443156 49.135357 186.02295 
" clip-path="url(#p79b4b2a3d9)" style="fill: none; stroke: #e8e8e8; stroke-width: 1.2; stroke-linecap: round"/>
    <path d="M 53.427912 193.627158 
L 49.135357 186.02295 
L 57.633394 188.031273 
z
" clip-path="url(#p79b4b2a3d9)" style="fill: #e8e8e8; stroke: #e8e8e8; stroke-width: 1.2; stroke-linecap: round"/>
   </g>
   <g id="patch_3">
    <path d="M 47.938981 185.123837 
Q 97.596981 222.443376 146.058313 258.863582 
" clip-path="url(#p79b4b2a3d9)" style="fill: none; stroke: #e8e8e8; stroke-width: 1.2; stroke-linecap: round"/>
    <path d="M 141.765758 251.259375 
L 146.058313 258.863582 
L 137.560276 256.855259 
z
" clip-path="url(#p79b4b2a3d9)" style="fill: #e8e8e8; stroke: #e8e8e8; stroke-width: 1.2; stroke-linecap: round"/>
   </g>
   <g id="patch_4">
    <path d="M 40.042204 168.853388 
Q 41.461329 124.85558 42.832196 82.35393 
" clip-path="url(#p79b4b2a3d9)" style="fill: none; stroke: #e8e8e8; stroke-width: 1.2; stroke-linecap: round"/>
    <path d="M 39.076114 90.23694 
L 42.832196 82.35393 
L 46.072476 90.462603 
z
" clip-path="url(#p79b4b2a3d9)" style="fill: #e8e8e8; stroke: #e8e8e8; stroke-width: 1.2; stroke-linecap: round"/>
   </g>
   <g id="patch_5">
    <path d="M 158.83699 32.232538 
Q 205.34872 80.804963 250.825139 128.296208 
" clip-path="url(#p79b4b2a3d9)" style="fill: none; stroke: #e8e8e8; stroke-width: 1.2; stroke-linecap: round"/>
    <path d="M 247.820098 120.097445 
L 250.825139 128.296208 
L 242.764265 124.938783 
z
" clip-path="url(#p79b4b2a3d9)" style="fill: #e8e8e8; stroke: #e8e8e8; stroke-width: 1.2; stroke-linecap: round"/>
   </g>
   <g id="patch_6">
    <path d="M 142.227093 28.872846 
Q 97.483277 47.805288 54.118063 66.154402 
" clip-path="url(#p79b4b2a3d9)" style="fill: none; stroke: #e8e8e8; stroke-width: 1.2; stroke-linecap: round"/>
    <path d="M 62.849546 66.260276 
L 54.118063 66.154402 
L 60.121777 59.813627 
z
" clip-path="url(#p79b4b2a3d9)" style="fill: #e8e8e8; stroke: #e8e8e8; stroke-width: 1.2; stroke-linecap: round"/>
   </g>
   <g id="patch_7">
    <path d="M 156.141071 33.992729 
Q 175.938013 75.33348 195.088422 115.324115 
" clip-path="url(#p79b4b2a3d9)" style="fill: none; stroke: #e8e8e8; stroke-width: 1.2; stroke-linecap: round"/>
    <path d="M 194.789906 106.597094 
L 195.088422 115.324115 
L 188.47647 109.620424 
z
" clip-path="url(#p79b4b2a3d9)" style="fill: #e8e8e8; stroke: #e8e8e8; stroke-width: 1.2; stroke-linecap: round"/>
   </g>
   <g id="patch_8">
    <path d="M 248.72837 134.87224 
Q 229.530957 131.299463 211.80521 128.000575 
" clip-path="url(#p79b4b2a3d9)" style="fill: none; stroke: #e8e8e8; stroke-width: 1.2; stroke-linecap: round"/>
    <path d="M 219.029785 132.905217 
L 211.80521 128.000575 
L 220.310544 126.023381 
z
" clip-path="url(#p79b4b2a3d9)" style="fill: #e8e8e8; stroke: #e8e8e8; stroke-width: 1.2; stroke-linecap: round"/>
   </g>
   <g id="patch_9">
    <path d="M 268.409042 140.950168 
Q 326.874411 166.747275 383.970238 191.940088 
" clip-path="url(#p79b4b2a3d9)" style="fill: none; stroke: #e8e8e8; stroke-width: 1.2; stroke-linecap: round"/>
    <path d="M 378.063964 185.508453 
L 383.970238 191.940088 
L 375.238156 191.912734 
z
" clip-path="url(#p79b4b2a3d9)" style="fill: #e8e8e8; stroke: #e8e8e8; stroke-width: 1.2; stroke-linecap: round"/>
   </g>
   <g id="patch_10">
    <path d="M 52.736763 66.738871 
Q 97.480579 47.806429 140.845793 29.457315 
" clip-path="url(#p79b4b2a3d9)" style="fill: none; stroke: #e8e8e8; stroke-width: 1.2; stroke-linecap: round"/>
    <path d="M 132.11431 29.351441 
L 140.845793 29.457315 
L 134.842079 35.798089 
z
" clip-path="url(#p79b4b2a3d9)" style="fill: #e8e8e8; stroke: #e8e8e8; stroke-width: 1.2; stroke-linecap: round"/>
   </g>
   <g id="patch_11">
    <path d="M 50.547268 77.922749 
Q 89.41632 115.783412 127.213061 152.599583 
" clip-path="url(#p79b4b2a3d9)" style="fill: none; stroke: #e8e8e8; stroke-width: 1.2; stroke-linecap: round"/>
    <path d="M 123.924497 144.510372 
L 127.213061 152.599583 
L 119.040221 149.524736 
z
" clip-path="url(#p79b4b2a3d9)" style="fill: #e8e8e8; stroke: #e8e8e8; stroke-width: 1.2; stroke-linecap: round"/>
   </g>
   <g id="patch_12">
    <path d="M 48.033377 79.709332 
Q 83.694376 145.730568 118.643961 210.434721 
" clip-path="url(#p79b4b2a3d9)" style="fill: none; stroke: #e8e8e8; stroke-width: 1.2; stroke-linecap: round"/>
    <path d="M 117.921465 201.732537 
L 118.643961 210.434721 
L 111.762499 205.059268 
z
" clip-path="url(#p79b4b2a3d9)" style="fill: #e8e8e8; stroke: #e8e8e8; stroke-width: 1.2; stroke-linecap: round"/>
   </g>
   <g id="patch_13">
    <path d="M 190.333161 122.392548 
Q 121.661555 98.298561 54.402466 74.700166 
" clip-path="url(#p79b4b2a3d9)" style="fill: none; stroke: #e8e8e8; stroke-width: 1.2; stroke-linecap: round"/>
    <path d="M 60.79256 80.651359 
L 54.402466 74.700166 
L 63.110062 74.04612 
z
" clip-path="url(#p79b4b2a3d9)" style="fill: #e8e8e8; stroke: #e8e8e8; stroke-width: 1.2; stroke-linecap: round"/>
   </g>
   <g id="patch_14">
    <path d="M 208.140586 132.245856 
Q 240.822401 158.398546 272.335431 183.615951 
" clip-path="url(#p79b4b2a3d9)" style="fill: none; stroke: #e8e8e8; stroke-width: 1.2; stroke-linecap: round"/>
    <path d="M 268.275957 175.884801 
L 272.335431 183.615951 
L 263.902354 181.350292 
z
" clip-path="url(#p79b4b2a3d9)" style="fill: #e8e8e8; stroke: #e8e8e8; stroke-width: 1.2; stroke-linecap: round"/>
   </g>
   <g id="patch_15">
    <path d="M 349.626674 316.463012 
Q 199.401142 249.80241 50.543887 183.748963 
" clip-path="url(#p79b4b2a3d9)" style="fill: none; stroke: #e8e8e8; stroke-width: 1.2; stroke-linecap: round"/>
    <path d="M 56.436705 190.192929 
L 50.543887 183.748963 
L 59.275893 183.794569 
z
" clip-path="url(#p79b4b2a3d9)" style="fill: #e8e8e8; stroke: #e8e8e8; stroke-width: 1.2; stroke-linecap: round"/>
   </g>
   <g id="patch_16">
    <path d="M 351.840748 313.412646 
Q 285.548534 247.080106 220.314491 181.806382 
" clip-path="url(#p79b4b2a3d9)" style="fill: none; stroke: #e8e8e8; stroke-width: 1.2; stroke-linecap: round"/>
    <path d="M 223.493998 189.939077 
L 220.314491 181.806382 
L 228.445251 184.990835 
z
" clip-path="url(#p79b4b2a3d9)" style="fill: #e8e8e8; stroke: #e8e8e8; stroke-width: 1.2; stroke-linecap: round"/>
   </g>
   <g id="patch_17">
    <path d="M 361.884255 310.939806 
Q 376.945388 258.689681 391.59191 207.877929 
" clip-path="url(#p79b4b2a3d9)" style="fill: none; stroke: #e8e8e8; stroke-width: 1.2; stroke-linecap: round"/>
    <path d="M 386.01305 214.595541 
L 391.59191 207.877929 
L 392.739192 216.534356 
z
" clip-path="url(#p79b4b2a3d9)" style="fill: #e8e8e8; stroke: #e8e8e8; stroke-width: 1.2; stroke-linecap: round"/>
   </g>
   <g id="patch_18">
    <path d="M 215.08229 163.860647 
Q 233.964475 104.461091 252.39317 46.488126 
" clip-path="url(#p79b4b2a3d9)" style="fill: none; stroke: #e8e8e8; stroke-width: 1.2; stroke-linecap: round"/>
    <path d="M 246.634074 53.051876 
L 252.39317 46.488126 
L 253.305128 55.172499 
z
" clip-path="url(#p79b4b2a3d9)" style="fill: #e8e8e8; stroke: #e8e8e8; stroke-width: 1.2; stroke-linecap: round"/>
   </g>
   <g id="patch_19">
    <path d="M 206.451004 182.03079 
Q 204.462205 185.077664 203.291627 186.87101 
" clip-path="url(#p79b4b2a3d9)" style="fill: none; stroke: #e8e8e8; stroke-width: 1.2; stroke-linecap: round"/>
    <path d="M 210.595288 182.084933 
L 203.291627 186.87101 
L 204.733518 178.258754 
z
" clip-path="url(#p79b4b2a3d9)" style="fill: #e8e8e8; stroke: #e8e8e8; stroke-width: 1.2; stroke-linecap: round"/>
   </g>
   <g id="patch_20">
    <path d="M 392.006065 206.44114 
Q 376.944932 258.691264 362.298411 309.503017 
" clip-path="url(#p79b4b2a3d9)" style="fill: none; stroke: #e8e8e8; stroke-width: 1.2; stroke-linecap: round"/>
    <path d="M 367.877271 302.785404 
L 362.298411 309.503017 
L 361.151128 300.846589 
z
" clip-path="url(#p79b4b2a3d9)" style="fill: #e8e8e8; stroke: #e8e8e8; stroke-width: 1.2; stroke-linecap: round"/>
   </g>
   <g id="patch_21">
    <path d="M 393.884308 186.669092 
Q 389.705987 141.176658 385.664578 97.174886 
" clip-path="url(#p79b4b2a3d9)" style="fill: none; stroke: #e8e8e8; stroke-width: 1.2; stroke-linecap: round"/>
    <path d="M 382.91094 105.461471 
L 385.664578 97.174886 
L 389.8816 104.82124 
z
" clip-path="url(#p79b4b2a3d9)" style="fill: #e8e8e8; stroke: #e8e8e8; stroke-width: 1.2; stroke-linecap: round"/>
   </g>
   <g id="patch_22">
    <path d="M 133.730237 170.715633 
Q 129.905159 190.740064 126.360949 209.294145 
" clip-path="url(#p79b4b2a3d9)" style="fill: none; stroke: #e8e8e8; stroke-width: 1.2; stroke-linecap: round"/>
    <path d="M 131.299814 202.092922 
L 126.360949 209.294145 
L 124.424133 200.779526 
z
" clip-path="url(#p79b4b2a3d9)" style="fill: #e8e8e8; stroke: #e8e8e8; stroke-width: 1.2; stroke-linecap: round"/>
   </g>
   <g id="patch_23">
    <path d="M 144.701822 155.872464 
Q 167.869966 143.310314 189.722169 131.461689 
" clip-path="url(#p79b4b2a3d9)" style="fill: none; stroke: #e8e8e8; stroke-width: 1.2; stroke-linecap: round"/>
    <path d="M 181.021154 132.19813 
L 189.722169 131.461689 
L 184.357752 138.351757 
z
" clip-path="url(#p79b4b2a3d9)" style="fill: #e8e8e8; stroke: #e8e8e8; stroke-width: 1.2; stroke-linecap: round"/>
   </g>
   <g id="patch_24">
    <path d="M 119.356291 211.753499 
Q 83.695292 145.732264 48.745708 81.02811 
" clip-path="url(#p79b4b2a3d9)" style="fill: none; stroke: #e8e8e8; stroke-width: 1.2; stroke-linecap: round"/>
    <path d="M 49.468203 89.730294 
L 48.745708 81.02811 
L 55.627169 86.403563 
z
" clip-path="url(#p79b4b2a3d9)" style="fill: #e8e8e8; stroke: #e8e8e8; stroke-width: 1.2; stroke-linecap: round"/>
   </g>
   <g id="patch_25">
    <path d="M 123.578424 230.768852 
Q 119.469062 299.167026 115.449474 366.07096 
" clip-path="url(#p79b4b2a3d9)" style="fill: none; stroke: #e8e8e8; stroke-width: 1.2; stroke-linecap: round"/>
    <path d="M 119.422949 358.295261 
L 115.449474 366.07096 
L 112.435549 357.875458 
z
" clip-path="url(#p79b4b2a3d9)" style="fill: #e8e8e8; stroke: #e8e8e8; stroke-width: 1.2; stroke-linecap: round"/>
   </g>
   <g id="patch_26">
    <path d="M 215.07807 240.547096 
Q 132.287704 211.463736 50.909664 182.87651 
" clip-path="url(#p79b4b2a3d9)" style="fill: none; stroke: #e8e8e8; stroke-width: 1.2; stroke-linecap: round"/>
    <path d="M 57.297474 188.830155 
L 50.909664 182.87651 
L 59.61751 182.225806 
z
" clip-path="url(#p79b4b2a3d9)" style="fill: #e8e8e8; stroke: #e8e8e8; stroke-width: 1.2; stroke-linecap: round"/>
   </g>
   <g id="patch_27">
    <path d="M 224.684073 233.888855 
Q 224.306769 212.155434 223.955448 191.918723 
" clip-path="url(#p79b4b2a3d9)" style="fill: none; stroke: #e8e8e8; stroke-width: 1.2; stroke-linecap: round"/>
    <path d="M 220.594839 199.97827 
L 223.955448 191.918723 
L 227.593784 199.856765 
z
" clip-path="url(#p79b4b2a3d9)" style="fill: #e8e8e8; stroke: #e8e8e8; stroke-width: 1.2; stroke-linecap: round"/>
   </g>
   <g id="patch_28">
    <path d="M 225.943305 170.464482 
Q 239.832952 107.874522 253.398296 46.745946 
" clip-path="url(#p79b4b2a3d9)" style="fill: none; stroke: #e8e8e8; stroke-width: 1.2; stroke-linecap: round"/>
    <path d="M 248.248263 53.797694 
L 253.398296 46.745946 
L 255.082016 55.314206 
z
" clip-path="url(#p79b4b2a3d9)" style="fill: #e8e8e8; stroke: #e8e8e8; stroke-width: 1.2; stroke-linecap: round"/>
   </g>
   <g id="patch_29">
    <path d="M 224.601217 190.389627 
Q 230.199006 256.882425 235.671217 321.883564 
" clip-path="url(#p79b4b2a3d9)" style="fill: none; stroke: #e8e8e8; stroke-width: 1.2; stroke-linecap: round"/>
    <path d="M 238.487763 313.61815 
L 235.671217 321.883564 
L 231.512437 314.205377 
z
" clip-path="url(#p79b4b2a3d9)" style="fill: #e8e8e8; stroke: #e8e8e8; stroke-width: 1.2; stroke-linecap: round"/>
   </g>
   <g id="patch_30">
    <path d="M 374.562798 83.011611 
Q 268.182504 55.237006 163.250594 27.840556 
" clip-path="url(#p79b4b2a3d9)" style="fill: none; stroke: #e8e8e8; stroke-width: 1.2; stroke-linecap: round"/>
    <path d="M 170.10695 33.247993 
L 163.250594 27.840556 
L 171.875288 26.475033 
z
" clip-path="url(#p79b4b2a3d9)" style="fill: #e8e8e8; stroke: #e8e8e8; stroke-width: 1.2; stroke-linecap: round"/>
   </g>
   <g id="patch_31">
    <path d="M 374.672497 88.631613 
Q 260.114194 123.213837 146.988954 157.363456 
" clip-path="url(#p79b4b2a3d9)" style="fill: none; stroke: #e8e8e8; stroke-width: 1.2; stroke-linecap: round"/>
    <path d="M 155.65908 158.402165 
L 146.988954 157.363456 
L 153.636124 151.700848 
z
" clip-path="url(#p79b4b2a3d9)" style="fill: #e8e8e8; stroke: #e8e8e8; stroke-width: 1.2; stroke-linecap: round"/>
   </g>
   <g id="patch_32">
    <path d="M 385.527851 95.686245 
Q 389.706172 141.178678 393.747581 185.18045 
" clip-path="url(#p79b4b2a3d9)" style="fill: none; stroke: #e8e8e8; stroke-width: 1.2; stroke-linecap: round"/>
    <path d="M 396.501219 176.893865 
L 393.747581 185.18045 
L 389.530559 177.534096 
z
" clip-path="url(#p79b4b2a3d9)" style="fill: #e8e8e8; stroke: #e8e8e8; stroke-width: 1.2; stroke-linecap: round"/>
   </g>
   <g id="patch_33">
    <path d="M 245.56973 34.368123 
Q 203.835919 30.129365 163.591381 26.041867 
" clip-path="url(#p79b4b2a3d9)" style="fill: none; stroke: #e8e8e8; stroke-width: 1.2; stroke-linecap: round"/>
    <path d="M 171.196771 30.332326 
L 163.591381 26.041867 
L 171.904098 23.368155 
z
" clip-path="url(#p79b4b2a3d9)" style="fill: #e8e8e8; stroke: #e8e8e8; stroke-width: 1.2; stroke-linecap: round"/>
   </g>
   <g id="patch_34">
    <path d="M 252.846625 45.061651 
Q 233.964439 104.461206 215.535744 162.434171 
" clip-path="url(#p79b4b2a3d9)" style="fill: none; stroke: #e8e8e8; stroke-width: 1.2; stroke-linecap: round"/>
    <path d="M 221.29484 155.870421 
L 215.535744 162.434171 
L 214.623787 153.749798 
z
" clip-path="url(#p79b4b2a3d9)" style="fill: #e8e8e8; stroke: #e8e8e8; stroke-width: 1.2; stroke-linecap: round"/>
   </g>
   <g id="patch_35">
    <path d="M 253.72295 45.282979 
Q 239.833303 107.87294 226.267959 169.001516 
" clip-path="url(#p79b4b2a3d9)" style="fill: none; stroke: #e8e8e8; stroke-width: 1.2; stroke-linecap: round"/>
    <path d="M 231.417993 161.949768 
L 226.267959 169.001516 
L 224.584239 160.433256 
z
" clip-path="url(#p79b4b2a3d9)" style="fill: #e8e8e8; stroke: #e8e8e8; stroke-width: 1.2; stroke-linecap: round"/>
   </g>
   <g id="patch_36">
    <path d="M 257.553128 45.383973 
Q 268.720627 113.196953 279.644887 179.532892 
" clip-path="url(#p79b4b2a3d9)" style="fill: none; stroke: #e8e8e8; stroke-width: 1.2; stroke-linecap: round"/>
    <path d="M 281.798433 171.070491 
L 279.644887 179.532892 
L 274.891465 172.207936 
z
" clip-path="url(#p79b4b2a3d9)" style="fill: #e8e8e8; stroke: #e8e8e8; stroke-width: 1.2; stroke-linecap: round"/>
   </g>
   <g id="patch_37">
    <path d="M 191.689945 205.377968 
Q 176.193081 231.295524 161.464427 255.928296 
" clip-path="url(#p79b4b2a3d9)" style="fill: none; stroke: #e8e8e8; stroke-width: 1.2; stroke-linecap: round"/>
    <path d="M 168.573899 250.858247 
L 161.464427 255.928296 
L 162.565967 247.265929 
z
" clip-path="url(#p79b4b2a3d9)" style="fill: #e8e8e8; stroke: #e8e8e8; stroke-width: 1.2; stroke-linecap: round"/>
   </g>
   <g id="patch_38">
    <path d="M 207.282192 195.952352 
Q 239.216401 193.810547 269.65703 191.768915 
" clip-path="url(#p79b4b2a3d9)" style="fill: none; stroke: #e8e8e8; stroke-width: 1.2; stroke-linecap: round"/>
    <path d="M 261.440746 188.812112 
L 269.65703 191.768915 
L 261.909179 195.796421 
z
" clip-path="url(#p79b4b2a3d9)" style="fill: #e8e8e8; stroke: #e8e8e8; stroke-width: 1.2; stroke-linecap: round"/>
   </g>
   <g id="patch_39">
    <path d="M 277.628634 181.613614 
Q 270.235018 163.871464 263.417218 147.511072 
" clip-path="url(#p79b4b2a3d9)" style="fill: none; stroke: #e8e8e8; stroke-width: 1.2; stroke-linecap: round"/>
    <path d="M 263.263813 156.241849 
L 263.417218 147.511072 
L 269.725215 153.549215 
z
" clip-path="url(#p79b4b2a3d9)" style="fill: #e8e8e8; stroke: #e8e8e8; stroke-width: 1.2; stroke-linecap: round"/>
   </g>
   <g id="patch_40">
    <path d="M 271.459828 188.442264 
Q 246.771949 182.237987 223.535863 176.398559 
" clip-path="url(#p79b4b2a3d9)" style="fill: none; stroke: #e8e8e8; stroke-width: 1.2; stroke-linecap: round"/>
    <path d="M 230.441553 181.742849 
L 223.535863 176.398559 
L 232.147663 174.953947 
z
" clip-path="url(#p79b4b2a3d9)" style="fill: #e8e8e8; stroke: #e8e8e8; stroke-width: 1.2; stroke-linecap: round"/>
   </g>
   <g id="patch_41">
    <path d="M 112.458648 367.793615 
Q 78.979596 224.20374 45.840449 82.071698 
" clip-path="url(#p79b4b2a3d9)" style="fill: none; stroke: #e8e8e8; stroke-width: 1.2; stroke-linecap: round"/>
    <path d="M 44.24841 90.657466 
L 45.840449 82.071698 
L 51.065564 89.067996 
z
" clip-path="url(#p79b4b2a3d9)" style="fill: #e8e8e8; stroke: #e8e8e8; stroke-width: 1.2; stroke-linecap: round"/>
   </g>
   <g id="patch_42">
    <path d="M 118.619665 368.269095 
Q 185.333319 206.529012 251.476175 46.172767 
" clip-path="url(#p79b4b2a3d9)" style="fill: none; stroke: #e8e8e8; stroke-width: 1.2; stroke-linecap: round"/>
    <path d="M 245.190125 52.233755 
L 251.476175 46.172767 
L 251.661253 54.90293 
z
" clip-path="url(#p79b4b2a3d9)" style="fill: #e8e8e8; stroke: #e8e8e8; stroke-width: 1.2; stroke-linecap: round"/>
   </g>
   <g id="patch_43">
    <path d="M 115.359877 367.562263 
Q 119.469238 299.164088 123.488826 232.260155 
" clip-path="url(#p79b4b2a3d9)" style="fill: none; stroke: #e8e8e8; stroke-width: 1.2; stroke-linecap: round"/>
    <path d="M 119.515351 240.035854 
L 123.488826 232.260155 
L 126.502751 240.455657 
z
" clip-path="url(#p79b4b2a3d9)" style="fill: #e8e8e8; stroke: #e8e8e8; stroke-width: 1.2; stroke-linecap: round"/>
   </g>
   <g id="patch_44">
    <path d="M 235.324235 323.418303 
Q 230.751272 288.70671 226.373829 255.479228 
" clip-path="url(#p79b4b2a3d9)" style="fill: none; stroke: #e8e8e8; stroke-width: 1.2; stroke-linecap: round"/>
    <path d="M 223.948717 263.867841 
L 226.373829 255.479228 
L 230.888751 262.95355 
z
" clip-path="url(#p79b4b2a3d9)" style="fill: #e8e8e8; stroke: #e8e8e8; stroke-width: 1.2; stroke-linecap: round"/>
   </g>
   <g id="patch_45">
    <path d="M 244.409842 326.718693 
Q 315.726783 265.075697 385.91121 204.411593 
" clip-path="url(#p79b4b2a3d9)" style="fill: none; stroke: #e8e8e8; stroke-width: 1.2; stroke-linecap: round"/>
    <path d="M 377.570016 206.995094 
L 385.91121 204.411593 
L 382.147528 212.290977 
z
" clip-path="url(#p79b4b2a3d9)" style="fill: #e8e8e8; stroke: #e8e8e8; stroke-width: 1.2; stroke-linecap: round"/>
   </g>
   <g id="PathCollection_1">
    <defs>
     <path id="mb588e0b4bc" d="M 0 10.396549 
C 2.757197 10.396549 5.401838 9.301103 7.35147 7.35147 
C 9.301103 5.401838 10.396549 2.757197 10.396549 0 
C 10.396549 -2.757197 9.301103 -5.401838 7.35147 -7.35147 
C 5.401838 -9.301103 2.757197 -10.396549 0 -10.396549 
C -2.757197 -10.396549 -5.401838 -9.301103 -7.35147 -7.35147 
C -9.301103 -5.401838 -10.396549 -2.757197 -10.396549 0 
C -10.396549 2.757197 -9.301103 5.401838 -7.35147 7.35147 
C -5.401838 9.301103 -2.757197 10.396549 0 10.396549 
z
" style="stroke: #f9be6a; stroke-width: 0.5"/>
    </defs>
    <g clip-path="url(#p79b4b2a3d9)">
     <use xlink:href="#mb588e0b4bc" x="151.758082" y="24.84" style="fill: #f9be6a; stroke: #f9be6a; stroke-width: 0.5"/>
    </g>
   </g>
   <g id="PathCollection_2">
    <defs>
     <path id="me8e687aa52" d="M 0 9.195587 
C 2.438698 9.195587 4.777842 8.226682 6.502262 6.502262 
C 8.226682 4.777842 9.195587 2.438698 9.195587 0 
C 9.195587 -2.438698 8.226682 -4.777842 6.502262 -6.502262 
C 4.777842 -8.226682 2.438698 -9.195587 0 -9.195587 
C -2.438698 -9.195587 -4.777842 -8.226682 -6.502262 -6.502262 
C -8.226682 -4.777842 -9.195587 -2.438698 -9.195587 0 
C -9.195587 2.438698 -8.226682 4.777842 -6.502262 6.502262 
C -4.777842 8.226682 -2.438698 9.195587 0 9.195587 
z
" style="stroke: #f9d298; stroke-width: 0.5"/>
    </defs>
    <g clip-path="url(#p79b4b2a3d9)">
     <use xlink:href="#me8e687aa52" x="359.082692" y="320.658996" style="fill: #f9d298; stroke: #f9d298; stroke-width: 0.5"/>
    </g>
   </g>
   <g id="PathCollection_3">
    <defs>
     <path id="m9a6dc71a40" d="M 0 9.195587 
C 2.438698 9.195587 4.777842 8.226682 6.502262 6.502262 
C 8.226682 4.777842 9.195587 2.438698 9.195587 0 
C 9.195587 -2.438698 8.226682 -4.777842 6.502262 -6.502262 
C 4.777842 -8.226682 2.438698 -9.195587 0 -9.195587 
C -2.438698 -9.195587 -4.777842 -8.226682 -6.502262 -6.502262 
C -8.226682 -4.777842 -9.195587 -2.438698 -9.195587 0 
C -9.195587 2.438698 -8.226682 4.777842 -6.502262 6.502262 
C -4.777842 8.226682 -2.438698 9.195587 0 9.195587 
z
" style="stroke: #f9c479; stroke-width: 0.5"/>
    </defs>
    <g clip-path="url(#p79b4b2a3d9)">
     <use xlink:href="#m9a6dc71a40" x="258.942447" y="136.773153" style="fill: #f9c479; stroke: #f9c479; stroke-width: 0.5"/>
    </g>
   </g>
   <g id="PathCollection_4">
    <defs>
     <path id="m23fbd49673" d="M 0 9.195587 
C 2.438698 9.195587 4.777842 8.226682 6.502262 6.502262 
C 8.226682 4.777842 9.195587 2.438698 9.195587 0 
C 9.195587 -2.438698 8.226682 -4.777842 6.502262 -6.502262 
C 4.777842 -8.226682 2.438698 -9.195587 0 -9.195587 
C -2.438698 -9.195587 -4.777842 -8.226682 -6.502262 -6.502262 
C -8.226682 -4.777842 -9.195587 -2.438698 -9.195587 0 
C -9.195587 2.438698 -8.226682 4.777842 -6.502262 6.502262 
C -4.777842 8.226682 -2.438698 9.195587 0 9.195587 
z
" style="stroke: #f9daab; stroke-width: 0.5"/>
    </defs>
    <g clip-path="url(#p79b4b2a3d9)">
     <use xlink:href="#m23fbd49673" x="135.625513" y="160.793789" style="fill: #f9daab; stroke: #f9daab; stroke-width: 0.5"/>
    </g>
   </g>
   <g id="PathCollection_5">
    <defs>
     <path id="mc7b7fa8dfc" d="M 0 8.531947 
C 2.262699 8.531947 4.433028 7.632967 6.032997 6.032997 
C 7.632967 4.433028 8.531947 2.262699 8.531947 0 
C 8.531947 -2.262699 7.632967 -4.433028 6.032997 -6.032997 
C 4.433028 -7.632967 2.262699 -8.531947 0 -8.531947 
C -2.262699 -8.531947 -4.433028 -7.632967 -6.032997 -6.032997 
C -7.632967 -4.433028 -8.531947 -2.262699 -8.531947 0 
C -8.531947 2.262699 -7.632967 4.433028 -6.032997 6.032997 
C -4.433028 7.632967 -2.262699 8.531947 0 8.531947 
z
" style="stroke: #f9dfb5; stroke-width: 0.5"/>
    </defs>
    <g clip-path="url(#p79b4b2a3d9)">
     <use xlink:href="#mc7b7fa8dfc" x="224.859316" y="243.983142" style="fill: #f9dfb5; stroke: #f9dfb5; stroke-width: 0.5"/>
    </g>
   </g>
   <g id="PathCollection_6">
    <defs>
     <path id="mc191e13729" d="M 0 9.814455 
C 2.602824 9.814455 5.099393 8.780342 6.939868 6.939868 
C 8.780342 5.099393 9.814455 2.602824 9.814455 0 
C 9.814455 -2.602824 8.780342 -5.099393 6.939868 -6.939868 
C 5.099393 -8.780342 2.602824 -9.814455 0 -9.814455 
C -2.602824 -9.814455 -5.099393 -8.780342 -6.939868 -6.939868 
C -8.780342 -5.099393 -9.814455 -2.602824 -9.814455 0 
C -9.814455 2.602824 -8.780342 5.099393 -6.939868 6.939868 
C -5.099393 8.780342 -2.602824 9.814455 0 9.814455 
z
" style="stroke: #f9c77e; stroke-width: 0.5"/>
    </defs>
    <g clip-path="url(#p79b4b2a3d9)">
     <use xlink:href="#mc191e13729" x="39.716719" y="178.94455" style="fill: #f9c77e; stroke: #f9c77e; stroke-width: 0.5"/>
    </g>
   </g>
   <g id="PathCollection_7">
    <defs>
     <path id="m9092690d56" d="M 0 9.195587 
C 2.438698 9.195587 4.777842 8.226682 6.502262 6.502262 
C 8.226682 4.777842 9.195587 2.438698 9.195587 0 
C 9.195587 -2.438698 8.226682 -4.777842 6.502262 -6.502262 
C 4.777842 -8.226682 2.438698 -9.195587 0 -9.195587 
C -2.438698 -9.195587 -4.777842 -8.226682 -6.502262 -6.502262 
C -8.226682 -4.777842 -9.195587 -2.438698 -9.195587 0 
C -9.195587 2.438698 -8.226682 4.777842 -6.502262 6.502262 
C -4.777842 8.226682 -2.438698 9.195587 0 9.195587 
z
" style="stroke: #f9daac; stroke-width: 0.5"/>
    </defs>
    <g clip-path="url(#p79b4b2a3d9)">
     <use xlink:href="#m9092690d56" x="384.604531" y="85.633386" style="fill: #f9daac; stroke: #f9daac; stroke-width: 0.5"/>
    </g>
   </g>
   <g id="PathCollection_8">
    <defs>
     <path id="mb18bfbafa4" d="M 0 11.472473 
C 3.042536 11.472473 5.960866 10.263661 8.112264 8.112264 
C 10.263661 5.960866 11.472473 3.042536 11.472473 0 
C 11.472473 -3.042536 10.263661 -5.960866 8.112264 -8.112264 
C 5.960866 -10.263661 3.042536 -11.472473 0 -11.472473 
C -3.042536 -11.472473 -5.960866 -10.263661 -8.112264 -8.112264 
C -10.263661 -5.960866 -11.472473 -3.042536 -11.472473 0 
C -11.472473 3.042536 -10.263661 5.960866 -8.112264 8.112264 
C -5.960866 10.263661 -3.042536 11.472473 0 11.472473 
z
" style="stroke: #f9a93c; stroke-width: 0.5"/>
    </defs>
    <g clip-path="url(#p79b4b2a3d9)">
     <use xlink:href="#mb18bfbafa4" x="43.205774" y="70.771717" style="fill: #f9a93c; stroke: #f9a93c; stroke-width: 0.5"/>
    </g>
   </g>
   <g id="PathCollection_9">
    <defs>
     <path id="macc12983b7" d="M 0 9.814455 
C 2.602824 9.814455 5.099393 8.780342 6.939868 6.939868 
C 8.780342 5.099393 9.814455 2.602824 9.814455 0 
C 9.814455 -2.602824 8.780342 -5.099393 6.939868 -6.939868 
C 5.099393 -8.780342 2.602824 -9.814455 0 -9.814455 
C -2.602824 -9.814455 -5.099393 -8.780342 -6.939868 -6.939868 
C -8.780342 -5.099393 -9.814455 -2.602824 -9.814455 0 
C -9.814455 2.602824 -8.780342 5.099393 -6.939868 6.939868 
C -5.099393 8.780342 -2.602824 9.814455 0 9.814455 
z
" style="stroke: #f9b85e; stroke-width: 0.5"/>
    </defs>
    <g clip-path="url(#p79b4b2a3d9)">
     <use xlink:href="#macc12983b7" x="212.016901" y="173.503744" style="fill: #f9b85e; stroke: #f9b85e; stroke-width: 0.5"/>
    </g>
   </g>
   <g id="PathCollection_10">
    <defs>
     <path id="m7d48ccc118" d="M 0 10.947737 
C 2.903374 10.947737 5.688224 9.794214 7.741219 7.741219 
C 9.794214 5.688224 10.947737 2.903374 10.947737 0 
C 10.947737 -2.903374 9.794214 -5.688224 7.741219 -7.741219 
C 5.688224 -9.794214 2.903374 -10.947737 0 -10.947737 
C -2.903374 -10.947737 -5.688224 -9.794214 -7.741219 -7.741219 
C -9.794214 -5.688224 -10.947737 -2.903374 -10.947737 0 
C -10.947737 2.903374 -9.794214 5.688224 -7.741219 7.741219 
C -5.688224 9.794214 -2.903374 10.947737 0 10.947737 
z
" style="stroke: #f9a22b; stroke-width: 0.5"/>
    </defs>
    <g clip-path="url(#p79b4b2a3d9)">
     <use xlink:href="#m7d48ccc118" x="255.912014" y="35.418553" style="fill: #f9a22b; stroke: #f9a22b; stroke-width: 0.5"/>
    </g>
   </g>
   <g id="PathCollection_11">
    <defs>
     <path id="m1745672d84" d="M 0 9.195587 
C 2.438698 9.195587 4.777842 8.226682 6.502262 6.502262 
C 8.226682 4.777842 9.195587 2.438698 9.195587 0 
C 9.195587 -2.438698 8.226682 -4.777842 6.502262 -6.502262 
C 4.777842 -8.226682 2.438698 -9.195587 0 -9.195587 
C -2.438698 -9.195587 -4.777842 -8.226682 -6.502262 -6.502262 
C -8.226682 -4.777842 -9.195587 -2.438698 -9.195587 0 
C -9.195587 2.438698 -8.226682 4.777842 -6.502262 6.502262 
C -4.777842 8.226682 -2.438698 9.195587 0 9.195587 
z
" style="stroke: #f9ce90; stroke-width: 0.5"/>
    </defs>
    <g clip-path="url(#p79b4b2a3d9)">
     <use xlink:href="#m1745672d84" x="114.754406" y="377.64" style="fill: #f9ce90; stroke: #f9ce90; stroke-width: 0.5"/>
    </g>
   </g>
   <g id="PathCollection_12">
    <defs>
     <path id="m275d98abab" d="M 0 9.195587 
C 2.438698 9.195587 4.777842 8.226682 6.502262 6.502262 
C 8.226682 4.777842 9.195587 2.438698 9.195587 0 
C 9.195587 -2.438698 8.226682 -4.777842 6.502262 -6.502262 
C 4.777842 -8.226682 2.438698 -9.195587 0 -9.195587 
C -2.438698 -9.195587 -4.777842 -8.226682 -6.502262 -6.502262 
C -8.226682 -4.777842 -9.195587 -2.438698 -9.195587 0 
C -9.195587 2.438698 -8.226682 4.777842 -6.502262 6.502262 
C -4.777842 8.226682 -2.438698 9.195587 0 9.195587 
z
" style="stroke: #f9c273; stroke-width: 0.5"/>
    </defs>
    <g clip-path="url(#p79b4b2a3d9)">
     <use xlink:href="#m275d98abab" x="223.754242" y="180.328908" style="fill: #f9c273; stroke: #f9c273; stroke-width: 0.5"/>
    </g>
   </g>
   <g id="PathCollection_13">
    <defs>
     <path id="mbdf5a5f4d7" d="M 0 9.814455 
C 2.602824 9.814455 5.099393 8.780342 6.939868 6.939868 
C 8.780342 5.099393 9.814455 2.602824 9.814455 0 
C 9.814455 -2.602824 8.780342 -5.099393 6.939868 -6.939868 
C 5.099393 -8.780342 2.602824 -9.814455 0 -9.814455 
C -2.602824 -9.814455 -5.099393 -8.780342 -6.939868 -6.939868 
C -8.780342 -5.099393 -9.814455 -2.602824 -9.814455 0 
C -9.814455 2.602824 -8.780342 5.099393 -6.939868 6.939868 
C -5.099393 8.780342 -2.602824 9.814455 0 9.814455 
z
" style="stroke: #f9c171; stroke-width: 0.5"/>
    </defs>
    <g clip-path="url(#p79b4b2a3d9)">
     <use xlink:href="#mbdf5a5f4d7" x="281.528801" y="190.972683" style="fill: #f9c171; stroke: #f9c171; stroke-width: 0.5"/>
    </g>
   </g>
   <g id="PathCollection_14">
    <defs>
     <path id="me2471620a3" d="M 0 9.814455 
C 2.602824 9.814455 5.099393 8.780342 6.939868 6.939868 
C 8.780342 5.099393 9.814455 2.602824 9.814455 0 
C 9.814455 -2.602824 8.780342 -5.099393 6.939868 -6.939868 
C 5.099393 -8.780342 2.602824 -9.814455 0 -9.814455 
C -2.602824 -9.814455 -5.099393 -8.780342 -6.939868 -6.939868 
C -8.780342 -5.099393 -9.814455 -2.602824 -9.814455 0 
C -9.814455 2.602824 -8.780342 5.099393 -6.939868 6.939868 
C -5.099393 8.780342 -2.602824 9.814455 0 9.814455 
z
" style="stroke: #f9c780; stroke-width: 0.5"/>
    </defs>
    <g clip-path="url(#p79b4b2a3d9)">
     <use xlink:href="#me2471620a3" x="124.183894" y="220.691115" style="fill: #f9c780; stroke: #f9c780; stroke-width: 0.5"/>
    </g>
   </g>
   <g id="PathCollection_15">
    <defs>
     <path id="m1025c17c04" d="M 0 8.531947 
C 2.262699 8.531947 4.433028 7.632967 6.032997 6.032997 
C 7.632967 4.433028 8.531947 2.262699 8.531947 0 
C 8.531947 -2.262699 7.632967 -4.433028 6.032997 -6.032997 
C 4.433028 -7.632967 2.262699 -8.531947 0 -8.531947 
C -2.262699 -8.531947 -4.433028 -7.632967 -6.032997 -6.032997 
C -7.632967 -4.433028 -8.531947 -2.262699 -8.531947 0 
C -8.531947 2.262699 -7.632967 4.433028 -6.032997 6.032997 
C -4.433028 7.632967 -2.262699 8.531947 0 8.531947 
z
" style="stroke: #f9dbac; stroke-width: 0.5"/>
    </defs>
    <g clip-path="url(#p79b4b2a3d9)">
     <use xlink:href="#m1025c17c04" x="196.909837" y="196.648018" style="fill: #f9dbac; stroke: #f9dbac; stroke-width: 0.5"/>
    </g>
   </g>
   <g id="PathCollection_16">
    <defs>
     <path id="m6922c403ab" d="M 0 8.531947 
C 2.262699 8.531947 4.433028 7.632967 6.032997 6.032997 
C 7.632967 4.433028 8.531947 2.262699 8.531947 0 
C 8.531947 -2.262699 7.632967 -4.433028 6.032997 -6.032997 
C 4.433028 -7.632967 2.262699 -8.531947 0 -8.531947 
C -2.262699 -8.531947 -4.433028 -7.632967 -6.032997 -6.032997 
C -7.632967 -4.433028 -8.531947 -2.262699 -8.531947 0 
C -8.531947 2.262699 -7.632967 4.433028 -6.032997 6.032997 
C -4.433028 7.632967 -2.262699 8.531947 0 8.531947 
z
" style="stroke: #f9d094; stroke-width: 0.5"/>
    </defs>
    <g clip-path="url(#p79b4b2a3d9)">
     <use xlink:href="#m6922c403ab" x="236.643407" y="333.431632" style="fill: #f9d094; stroke: #f9d094; stroke-width: 0.5"/>
    </g>
   </g>
   <g id="PathCollection_17">
    <defs>
     <path id="me4beb1e4f0" d="M 0 9.814455 
C 2.602824 9.814455 5.099393 8.780342 6.939868 6.939868 
C 8.780342 5.099393 9.814455 2.602824 9.814455 0 
C 9.814455 -2.602824 8.780342 -5.099393 6.939868 -6.939868 
C 5.099393 -8.780342 2.602824 -9.814455 0 -9.814455 
C -2.602824 -9.814455 -5.099393 -8.780342 -6.939868 -6.939868 
C -8.780342 -5.099393 -9.814455 -2.602824 -9.814455 0 
C -9.814455 2.602824 -8.780342 5.099393 -6.939868 6.939868 
C -5.099393 8.780342 -2.602824 9.814455 0 9.814455 
z
" style="stroke: #f9cb88; stroke-width: 0.5"/>
    </defs>
    <g clip-path="url(#p79b4b2a3d9)">
     <use xlink:href="#me4beb1e4f0" x="200.117172" y="125.825347" style="fill: #f9cb88; stroke: #f9cb88; stroke-width: 0.5"/>
    </g>
   </g>
   <g id="PathCollection_18">
    <defs>
     <path id="m34d82178d3" d="M 0 10.396549 
C 2.757197 10.396549 5.401838 9.301103 7.35147 7.35147 
C 9.301103 5.401838 10.396549 2.757197 10.396549 0 
C 10.396549 -2.757197 9.301103 -5.401838 7.35147 -7.35147 
C 5.401838 -9.301103 2.757197 -10.396549 0 -10.396549 
C -2.757197 -10.396549 -5.401838 -9.301103 -7.35147 -7.35147 
C -9.301103 -5.401838 -10.396549 -2.757197 -10.396549 0 
C -10.396549 2.757197 -9.301103 5.401838 -7.35147 7.35147 
C -5.401838 9.301103 -2.757197 10.396549 0 10.396549 
z
" style="stroke: #f9b85d; stroke-width: 0.5"/>
    </defs>
    <g clip-path="url(#p79b4b2a3d9)">
     <use xlink:href="#m34d82178d3" x="394.807628" y="196.72195" style="fill: #f9b85d; stroke: #f9b85d; stroke-width: 0.5"/>
    </g>
   </g>
   <g id="PathCollection_19">
    <defs>
     <path id="m850e7e34bb" d="M 0 -8.531947 
L -1.915541 -2.636517 
L -8.114364 -2.636517 
L -3.099411 1.00706 
L -5.014953 6.90249 
L -0 3.258914 
L 5.014953 6.90249 
L 3.099411 1.00706 
L 8.114364 -2.636517 
L 1.915541 -2.636517 
z
" style="stroke: #f9dfb6; stroke-width: 0.8"/>
    </defs>
    <g clip-path="url(#p79b4b2a3d9)">
     <use xlink:href="#m850e7e34bb" x="155.476951" y="265.941983" style="fill: #f9dfb6; stroke: #f9dfb6; stroke-width: 0.8"/>
    </g>
   </g>
   <g id="text_1">
    <!-- Deček čarovnik -->
    <g transform="translate(117.139722 19.230069) scale(0.09 -0.09)">
     <defs>
      <path id="DejaVuSans-44" d="M 1259 4147 
L 1259 519 
L 2022 519 
Q 2988 519 3436 956 
Q 3884 1394 3884 2338 
Q 3884 3275 3436 3711 
Q 2988 4147 2022 4147 
L 1259 4147 
z
M 628 4666 
L 1925 4666 
Q 3281 4666 3915 4102 
Q 4550 3538 4550 2338 
Q 4550 1131 3912 565 
Q 3275 0 1925 0 
L 628 0 
L 628 4666 
z
" transform="scale(0.015625)"/>
      <path id="DejaVuSans-65" d="M 3597 1894 
L 3597 1613 
L 953 1613 
Q 991 1019 1311 708 
Q 1631 397 2203 397 
Q 2534 397 2845 478 
Q 3156 559 3463 722 
L 3463 178 
Q 3153 47 2828 -22 
Q 2503 -91 2169 -91 
Q 1331 -91 842 396 
Q 353 884 353 1716 
Q 353 2575 817 3079 
Q 1281 3584 2069 3584 
Q 2775 3584 3186 3129 
Q 3597 2675 3597 1894 
z
M 3022 2063 
Q 3016 2534 2758 2815 
Q 2500 3097 2075 3097 
Q 1594 3097 1305 2825 
Q 1016 2553 972 2059 
L 3022 2063 
z
" transform="scale(0.015625)"/>
      <path id="DejaVuSans-10d" d="M 3122 3366 
L 3122 2828 
Q 2878 2963 2633 3030 
Q 2388 3097 2138 3097 
Q 1578 3097 1268 2742 
Q 959 2388 959 1747 
Q 959 1106 1268 751 
Q 1578 397 2138 397 
Q 2388 397 2633 464 
Q 2878 531 3122 666 
L 3122 134 
Q 2881 22 2623 -34 
Q 2366 -91 2075 -91 
Q 1284 -91 818 406 
Q 353 903 353 1747 
Q 353 2603 823 3093 
Q 1294 3584 2113 3584 
Q 2378 3584 2631 3529 
Q 2884 3475 3122 3366 
z
M 1801 3944 
L 1035 5119 
L 1470 5119 
L 2032 4353 
L 2595 5119 
L 3029 5119 
L 2263 3944 
L 1801 3944 
z
" transform="scale(0.015625)"/>
      <path id="DejaVuSans-6b" d="M 581 4863 
L 1159 4863 
L 1159 1991 
L 2875 3500 
L 3609 3500 
L 1753 1863 
L 3688 0 
L 2938 0 
L 1159 1709 
L 1159 0 
L 581 0 
L 581 4863 
z
" transform="scale(0.015625)"/>
      <path id="DejaVuSans-20" transform="scale(0.015625)"/>
      <path id="DejaVuSans-61" d="M 2194 1759 
Q 1497 1759 1228 1600 
Q 959 1441 959 1056 
Q 959 750 1161 570 
Q 1363 391 1709 391 
Q 2188 391 2477 730 
Q 2766 1069 2766 1631 
L 2766 1759 
L 2194 1759 
z
M 3341 1997 
L 3341 0 
L 2766 0 
L 2766 531 
Q 2569 213 2275 61 
Q 1981 -91 1556 -91 
Q 1019 -91 701 211 
Q 384 513 384 1019 
Q 384 1609 779 1909 
Q 1175 2209 1959 2209 
L 2766 2209 
L 2766 2266 
Q 2766 2663 2505 2880 
Q 2244 3097 1772 3097 
Q 1472 3097 1187 3025 
Q 903 2953 641 2809 
L 641 3341 
Q 956 3463 1253 3523 
Q 1550 3584 1831 3584 
Q 2591 3584 2966 3190 
Q 3341 2797 3341 1997 
z
" transform="scale(0.015625)"/>
      <path id="DejaVuSans-72" d="M 2631 2963 
Q 2534 3019 2420 3045 
Q 2306 3072 2169 3072 
Q 1681 3072 1420 2755 
Q 1159 2438 1159 1844 
L 1159 0 
L 581 0 
L 581 3500 
L 1159 3500 
L 1159 2956 
Q 1341 3275 1631 3429 
Q 1922 3584 2338 3584 
Q 2397 3584 2469 3576 
Q 2541 3569 2628 3553 
L 2631 2963 
z
" transform="scale(0.015625)"/>
      <path id="DejaVuSans-6f" d="M 1959 3097 
Q 1497 3097 1228 2736 
Q 959 2375 959 1747 
Q 959 1119 1226 758 
Q 1494 397 1959 397 
Q 2419 397 2687 759 
Q 2956 1122 2956 1747 
Q 2956 2369 2687 2733 
Q 2419 3097 1959 3097 
z
M 1959 3584 
Q 2709 3584 3137 3096 
Q 3566 2609 3566 1747 
Q 3566 888 3137 398 
Q 2709 -91 1959 -91 
Q 1206 -91 779 398 
Q 353 888 353 1747 
Q 353 2609 779 3096 
Q 1206 3584 1959 3584 
z
" transform="scale(0.015625)"/>
      <path id="DejaVuSans-76" d="M 191 3500 
L 800 3500 
L 1894 563 
L 2988 3500 
L 3597 3500 
L 2284 0 
L 1503 0 
L 191 3500 
z
" transform="scale(0.015625)"/>
      <path id="DejaVuSans-6e" d="M 3513 2113 
L 3513 0 
L 2938 0 
L 2938 2094 
Q 2938 2591 2744 2837 
Q 2550 3084 2163 3084 
Q 1697 3084 1428 2787 
Q 1159 2491 1159 1978 
L 1159 0 
L 581 0 
L 581 3500 
L 1159 3500 
L 1159 2956 
Q 1366 3272 1645 3428 
Q 1925 3584 2291 3584 
Q 2894 3584 3203 3211 
Q 3513 2838 3513 2113 
z
" transform="scale(0.015625)"/>
      <path id="DejaVuSans-69" d="M 603 3500 
L 1178 3500 
L 1178 0 
L 603 0 
L 603 3500 
z
M 603 4863 
L 1178 4863 
L 1178 4134 
L 603 4134 
L 603 4863 
z
" transform="scale(0.015625)"/>
     </defs>
     <use xlink:href="#DejaVuSans-44"/>
     <use xlink:href="#DejaVuSans-65" transform="translate(77.001953 0)"/>
     <use xlink:href="#DejaVuSans-10d" transform="translate(138.525391 0)"/>
     <use xlink:href="#DejaVuSans-65" transform="translate(193.505859 0)"/>
     <use xlink:href="#DejaVuSans-6b" transform="translate(255.029297 0)"/>
     <use xlink:href="#DejaVuSans-20" transform="translate(312.939453 0)"/>
     <use xlink:href="#DejaVuSans-10d" transform="translate(344.726562 0)"/>
     <use xlink:href="#DejaVuSans-61" transform="translate(399.707031 0)"/>
     <use xlink:href="#DejaVuSans-72" transform="translate(460.986328 0)"/>
     <use xlink:href="#DejaVuSans-6f" transform="translate(499.849609 0)"/>
     <use xlink:href="#DejaVuSans-76" transform="translate(561.03125 0)"/>
     <use xlink:href="#DejaVuSans-6e" transform="translate(620.210938 0)"/>
     <use xlink:href="#DejaVuSans-69" transform="translate(683.589844 0)"/>
     <use xlink:href="#DejaVuSans-6b" transform="translate(711.373047 0)"/>
    </g>
   </g>
   <g id="text_2">
    <!-- Pametna čarovnica -->
    <g transform="translate(316.126677 315.049065) scale(0.09 -0.09)">
     <defs>
      <path id="DejaVuSans-50" d="M 1259 4147 
L 1259 2394 
L 2053 2394 
Q 2494 2394 2734 2622 
Q 2975 2850 2975 3272 
Q 2975 3691 2734 3919 
Q 2494 4147 2053 4147 
L 1259 4147 
z
M 628 4666 
L 2053 4666 
Q 2838 4666 3239 4311 
Q 3641 3956 3641 3272 
Q 3641 2581 3239 2228 
Q 2838 1875 2053 1875 
L 1259 1875 
L 1259 0 
L 628 0 
L 628 4666 
z
" transform="scale(0.015625)"/>
      <path id="DejaVuSans-6d" d="M 3328 2828 
Q 3544 3216 3844 3400 
Q 4144 3584 4550 3584 
Q 5097 3584 5394 3201 
Q 5691 2819 5691 2113 
L 5691 0 
L 5113 0 
L 5113 2094 
Q 5113 2597 4934 2840 
Q 4756 3084 4391 3084 
Q 3944 3084 3684 2787 
Q 3425 2491 3425 1978 
L 3425 0 
L 2847 0 
L 2847 2094 
Q 2847 2600 2669 2842 
Q 2491 3084 2119 3084 
Q 1678 3084 1418 2786 
Q 1159 2488 1159 1978 
L 1159 0 
L 581 0 
L 581 3500 
L 1159 3500 
L 1159 2956 
Q 1356 3278 1631 3431 
Q 1906 3584 2284 3584 
Q 2666 3584 2933 3390 
Q 3200 3197 3328 2828 
z
" transform="scale(0.015625)"/>
      <path id="DejaVuSans-74" d="M 1172 4494 
L 1172 3500 
L 2356 3500 
L 2356 3053 
L 1172 3053 
L 1172 1153 
Q 1172 725 1289 603 
Q 1406 481 1766 481 
L 2356 481 
L 2356 0 
L 1766 0 
Q 1100 0 847 248 
Q 594 497 594 1153 
L 594 3053 
L 172 3053 
L 172 3500 
L 594 3500 
L 594 4494 
L 1172 4494 
z
" transform="scale(0.015625)"/>
      <path id="DejaVuSans-63" d="M 3122 3366 
L 3122 2828 
Q 2878 2963 2633 3030 
Q 2388 3097 2138 3097 
Q 1578 3097 1268 2742 
Q 959 2388 959 1747 
Q 959 1106 1268 751 
Q 1578 397 2138 397 
Q 2388 397 2633 464 
Q 2878 531 3122 666 
L 3122 134 
Q 2881 22 2623 -34 
Q 2366 -91 2075 -91 
Q 1284 -91 818 406 
Q 353 903 353 1747 
Q 353 2603 823 3093 
Q 1294 3584 2113 3584 
Q 2378 3584 2631 3529 
Q 2884 3475 3122 3366 
z
" transform="scale(0.015625)"/>
     </defs>
     <use xlink:href="#DejaVuSans-50"/>
     <use xlink:href="#DejaVuSans-61" transform="translate(55.802734 0)"/>
     <use xlink:href="#DejaVuSans-6d" transform="translate(117.082031 0)"/>
     <use xlink:href="#DejaVuSans-65" transform="translate(214.494141 0)"/>
     <use xlink:href="#DejaVuSans-74" transform="translate(276.017578 0)"/>
     <use xlink:href="#DejaVuSans-6e" transform="translate(315.226562 0)"/>
     <use xlink:href="#DejaVuSans-61" transform="translate(378.605469 0)"/>
     <use xlink:href="#DejaVuSans-20" transform="translate(439.884766 0)"/>
     <use xlink:href="#DejaVuSans-10d" transform="translate(471.671875 0)"/>
     <use xlink:href="#DejaVuSans-61" transform="translate(526.652344 0)"/>
     <use xlink:href="#DejaVuSans-72" transform="translate(587.931641 0)"/>
     <use xlink:href="#DejaVuSans-6f" transform="translate(626.794922 0)"/>
     <use xlink:href="#DejaVuSans-76" transform="translate(687.976562 0)"/>
     <use xlink:href="#DejaVuSans-6e" transform="translate(747.15625 0)"/>
     <use xlink:href="#DejaVuSans-69" transform="translate(810.535156 0)"/>
     <use xlink:href="#DejaVuSans-63" transform="translate(838.318359 0)"/>
     <use xlink:href="#DejaVuSans-61" transform="translate(893.298828 0)"/>
    </g>
   </g>
   <g id="text_3">
    <!-- Modri ravnatelj -->
    <g transform="translate(225.005416 131.163222) scale(0.09 -0.09)">
     <defs>
      <path id="DejaVuSans-4d" d="M 628 4666 
L 1569 4666 
L 2759 1491 
L 3956 4666 
L 4897 4666 
L 4897 0 
L 4281 0 
L 4281 4097 
L 3078 897 
L 2444 897 
L 1241 4097 
L 1241 0 
L 628 0 
L 628 4666 
z
" transform="scale(0.015625)"/>
      <path id="DejaVuSans-64" d="M 2906 2969 
L 2906 4863 
L 3481 4863 
L 3481 0 
L 2906 0 
L 2906 525 
Q 2725 213 2448 61 
Q 2172 -91 1784 -91 
Q 1150 -91 751 415 
Q 353 922 353 1747 
Q 353 2572 751 3078 
Q 1150 3584 1784 3584 
Q 2172 3584 2448 3432 
Q 2725 3281 2906 2969 
z
M 947 1747 
Q 947 1113 1208 752 
Q 1469 391 1925 391 
Q 2381 391 2643 752 
Q 2906 1113 2906 1747 
Q 2906 2381 2643 2742 
Q 2381 3103 1925 3103 
Q 1469 3103 1208 2742 
Q 947 2381 947 1747 
z
" transform="scale(0.015625)"/>
      <path id="DejaVuSans-6c" d="M 603 4863 
L 1178 4863 
L 1178 0 
L 603 0 
L 603 4863 
z
" transform="scale(0.015625)"/>
      <path id="DejaVuSans-6a" d="M 603 3500 
L 1178 3500 
L 1178 -63 
Q 1178 -731 923 -1031 
Q 669 -1331 103 -1331 
L -116 -1331 
L -116 -844 
L 38 -844 
Q 366 -844 484 -692 
Q 603 -541 603 -63 
L 603 3500 
z
M 603 4863 
L 1178 4863 
L 1178 4134 
L 603 4134 
L 603 4863 
z
" transform="scale(0.015625)"/>
     </defs>
     <use xlink:href="#DejaVuSans-4d"/>
     <use xlink:href="#DejaVuSans-6f" transform="translate(86.279297 0)"/>
     <use xlink:href="#DejaVuSans-64" transform="translate(147.460938 0)"/>
     <use xlink:href="#DejaVuSans-72" transform="translate(210.9375 0)"/>
     <use xlink:href="#DejaVuSans-69" transform="translate(252.050781 0)"/>
     <use xlink:href="#DejaVuSans-20" transform="translate(279.833984 0)"/>
     <use xlink:href="#DejaVuSans-72" transform="translate(311.621094 0)"/>
     <use xlink:href="#DejaVuSans-61" transform="translate(352.734375 0)"/>
     <use xlink:href="#DejaVuSans-76" transform="translate(414.013672 0)"/>
     <use xlink:href="#DejaVuSans-6e" transform="translate(473.193359 0)"/>
     <use xlink:href="#DejaVuSans-61" transform="translate(536.572266 0)"/>
     <use xlink:href="#DejaVuSans-74" transform="translate(597.851562 0)"/>
     <use xlink:href="#DejaVuSans-65" transform="translate(637.060547 0)"/>
     <use xlink:href="#DejaVuSans-6c" transform="translate(698.583984 0)"/>
     <use xlink:href="#DejaVuSans-6a" transform="translate(726.367188 0)"/>
    </g>
   </g>
   <g id="text_4">
    <!-- Mladi pilot -->
    <g transform="translate(112.323247 155.183858) scale(0.09 -0.09)">
     <defs>
      <path id="DejaVuSans-70" d="M 1159 525 
L 1159 -1331 
L 581 -1331 
L 581 3500 
L 1159 3500 
L 1159 2969 
Q 1341 3281 1617 3432 
Q 1894 3584 2278 3584 
Q 2916 3584 3314 3078 
Q 3713 2572 3713 1747 
Q 3713 922 3314 415 
Q 2916 -91 2278 -91 
Q 1894 -91 1617 61 
Q 1341 213 1159 525 
z
M 3116 1747 
Q 3116 2381 2855 2742 
Q 2594 3103 2138 3103 
Q 1681 3103 1420 2742 
Q 1159 2381 1159 1747 
Q 1159 1113 1420 752 
Q 1681 391 2138 391 
Q 2594 391 2855 752 
Q 3116 1113 3116 1747 
z
" transform="scale(0.015625)"/>
     </defs>
     <use xlink:href="#DejaVuSans-4d"/>
     <use xlink:href="#DejaVuSans-6c" transform="translate(86.279297 0)"/>
     <use xlink:href="#DejaVuSans-61" transform="translate(114.0625 0)"/>
     <use xlink:href="#DejaVuSans-64" transform="translate(175.341797 0)"/>
     <use xlink:href="#DejaVuSans-69" transform="translate(238.818359 0)"/>
     <use xlink:href="#DejaVuSans-20" transform="translate(266.601562 0)"/>
     <use xlink:href="#DejaVuSans-70" transform="translate(298.388672 0)"/>
     <use xlink:href="#DejaVuSans-69" transform="translate(361.865234 0)"/>
     <use xlink:href="#DejaVuSans-6c" transform="translate(389.648438 0)"/>
     <use xlink:href="#DejaVuSans-6f" transform="translate(417.431641 0)"/>
     <use xlink:href="#DejaVuSans-74" transform="translate(478.613281 0)"/>
    </g>
   </g>
   <g id="text_5">
    <!-- Tihotapec -->
    <g transform="translate(202.77416 238.373212) scale(0.09 -0.09)">
     <defs>
      <path id="DejaVuSans-54" d="M -19 4666 
L 3928 4666 
L 3928 4134 
L 2272 4134 
L 2272 0 
L 1638 0 
L 1638 4134 
L -19 4134 
L -19 4666 
z
" transform="scale(0.015625)"/>
      <path id="DejaVuSans-68" d="M 3513 2113 
L 3513 0 
L 2938 0 
L 2938 2094 
Q 2938 2591 2744 2837 
Q 2550 3084 2163 3084 
Q 1697 3084 1428 2787 
Q 1159 2491 1159 1978 
L 1159 0 
L 581 0 
L 581 4863 
L 1159 4863 
L 1159 2956 
Q 1366 3272 1645 3428 
Q 1925 3584 2291 3584 
Q 2894 3584 3203 3211 
Q 3513 2838 3513 2113 
z
" transform="scale(0.015625)"/>
     </defs>
     <use xlink:href="#DejaVuSans-54"/>
     <use xlink:href="#DejaVuSans-69" transform="translate(57.958984 0)"/>
     <use xlink:href="#DejaVuSans-68" transform="translate(85.742188 0)"/>
     <use xlink:href="#DejaVuSans-6f" transform="translate(149.121094 0)"/>
     <use xlink:href="#DejaVuSans-74" transform="translate(210.302734 0)"/>
     <use xlink:href="#DejaVuSans-61" transform="translate(249.511719 0)"/>
     <use xlink:href="#DejaVuSans-70" transform="translate(310.791016 0)"/>
     <use xlink:href="#DejaVuSans-65" transform="translate(374.267578 0)"/>
     <use xlink:href="#DejaVuSans-63" transform="translate(435.791016 0)"/>
    </g>
   </g>
   <g id="text_6">
    <!-- Zeleni mojster -->
    <g transform="translate(7.2 173.334619) scale(0.09 -0.09)">
     <defs>
      <path id="DejaVuSans-5a" d="M 359 4666 
L 4025 4666 
L 4025 4184 
L 1075 531 
L 4097 531 
L 4097 0 
L 288 0 
L 288 481 
L 3238 4134 
L 359 4134 
L 359 4666 
z
" transform="scale(0.015625)"/>
      <path id="DejaVuSans-73" d="M 2834 3397 
L 2834 2853 
Q 2591 2978 2328 3040 
Q 2066 3103 1784 3103 
Q 1356 3103 1142 2972 
Q 928 2841 928 2578 
Q 928 2378 1081 2264 
Q 1234 2150 1697 2047 
L 1894 2003 
Q 2506 1872 2764 1633 
Q 3022 1394 3022 966 
Q 3022 478 2636 193 
Q 2250 -91 1575 -91 
Q 1294 -91 989 -36 
Q 684 19 347 128 
L 347 722 
Q 666 556 975 473 
Q 1284 391 1588 391 
Q 1994 391 2212 530 
Q 2431 669 2431 922 
Q 2431 1156 2273 1281 
Q 2116 1406 1581 1522 
L 1381 1569 
Q 847 1681 609 1914 
Q 372 2147 372 2553 
Q 372 3047 722 3315 
Q 1072 3584 1716 3584 
Q 2034 3584 2315 3537 
Q 2597 3491 2834 3397 
z
" transform="scale(0.015625)"/>
     </defs>
     <use xlink:href="#DejaVuSans-5a"/>
     <use xlink:href="#DejaVuSans-65" transform="translate(68.505859 0)"/>
     <use xlink:href="#DejaVuSans-6c" transform="translate(130.029297 0)"/>
     <use xlink:href="#DejaVuSans-65" transform="translate(157.8125 0)"/>
     <use xlink:href="#DejaVuSans-6e" transform="translate(219.335938 0)"/>
     <use xlink:href="#DejaVuSans-69" transform="translate(282.714844 0)"/>
     <use xlink:href="#DejaVuSans-20" transform="translate(310.498047 0)"/>
     <use xlink:href="#DejaVuSans-6d" transform="translate(342.285156 0)"/>
     <use xlink:href="#DejaVuSans-6f" transform="translate(439.697266 0)"/>
     <use xlink:href="#DejaVuSans-6a" transform="translate(500.878906 0)"/>
     <use xlink:href="#DejaVuSans-73" transform="translate(528.662109 0)"/>
     <use xlink:href="#DejaVuSans-74" transform="translate(580.761719 0)"/>
     <use xlink:href="#DejaVuSans-65" transform="translate(619.970703 0)"/>
     <use xlink:href="#DejaVuSans-72" transform="translate(681.494141 0)"/>
    </g>
   </g>
   <g id="text_7">
    <!-- Nosilec prstana -->
    <g transform="translate(349.784375 80.023455) scale(0.09 -0.09)">
     <defs>
      <path id="DejaVuSans-4e" d="M 628 4666 
L 1478 4666 
L 3547 763 
L 3547 4666 
L 4159 4666 
L 4159 0 
L 3309 0 
L 1241 3903 
L 1241 0 
L 628 0 
L 628 4666 
z
" transform="scale(0.015625)"/>
     </defs>
     <use xlink:href="#DejaVuSans-4e"/>
     <use xlink:href="#DejaVuSans-6f" transform="translate(74.804688 0)"/>
     <use xlink:href="#DejaVuSans-73" transform="translate(135.986328 0)"/>
     <use xlink:href="#DejaVuSans-69" transform="translate(188.085938 0)"/>
     <use xlink:href="#DejaVuSans-6c" transform="translate(215.869141 0)"/>
     <use xlink:href="#DejaVuSans-65" transform="translate(243.652344 0)"/>
     <use xlink:href="#DejaVuSans-63" transform="translate(305.175781 0)"/>
     <use xlink:href="#DejaVuSans-20" transform="translate(360.15625 0)"/>
     <use xlink:href="#DejaVuSans-70" transform="translate(391.943359 0)"/>
     <use xlink:href="#DejaVuSans-72" transform="translate(455.419922 0)"/>
     <use xlink:href="#DejaVuSans-73" transform="translate(496.533203 0)"/>
     <use xlink:href="#DejaVuSans-74" transform="translate(548.632812 0)"/>
     <use xlink:href="#DejaVuSans-61" transform="translate(587.841797 0)"/>
     <use xlink:href="#DejaVuSans-6e" transform="translate(649.121094 0)"/>
     <use xlink:href="#DejaVuSans-61" transform="translate(712.5 0)"/>
    </g>
   </g>
   <g id="text_8">
    <!-- Sivi čarovnik -->
    <g transform="translate(14.649759 65.161786) scale(0.09 -0.09)">
     <defs>
      <path id="DejaVuSans-53" d="M 3425 4513 
L 3425 3897 
Q 3066 4069 2747 4153 
Q 2428 4238 2131 4238 
Q 1616 4238 1336 4038 
Q 1056 3838 1056 3469 
Q 1056 3159 1242 3001 
Q 1428 2844 1947 2747 
L 2328 2669 
Q 3034 2534 3370 2195 
Q 3706 1856 3706 1288 
Q 3706 609 3251 259 
Q 2797 -91 1919 -91 
Q 1588 -91 1214 -16 
Q 841 59 441 206 
L 441 856 
Q 825 641 1194 531 
Q 1563 422 1919 422 
Q 2459 422 2753 634 
Q 3047 847 3047 1241 
Q 3047 1584 2836 1778 
Q 2625 1972 2144 2069 
L 1759 2144 
Q 1053 2284 737 2584 
Q 422 2884 422 3419 
Q 422 4038 858 4394 
Q 1294 4750 2059 4750 
Q 2388 4750 2728 4690 
Q 3069 4631 3425 4513 
z
" transform="scale(0.015625)"/>
     </defs>
     <use xlink:href="#DejaVuSans-53"/>
     <use xlink:href="#DejaVuSans-69" transform="translate(63.476562 0)"/>
     <use xlink:href="#DejaVuSans-76" transform="translate(91.259766 0)"/>
     <use xlink:href="#DejaVuSans-69" transform="translate(150.439453 0)"/>
     <use xlink:href="#DejaVuSans-20" transform="translate(178.222656 0)"/>
     <use xlink:href="#DejaVuSans-10d" transform="translate(210.009766 0)"/>
     <use xlink:href="#DejaVuSans-61" transform="translate(264.990234 0)"/>
     <use xlink:href="#DejaVuSans-72" transform="translate(326.269531 0)"/>
     <use xlink:href="#DejaVuSans-6f" transform="translate(365.132812 0)"/>
     <use xlink:href="#DejaVuSans-76" transform="translate(426.314453 0)"/>
     <use xlink:href="#DejaVuSans-6e" transform="translate(485.494141 0)"/>
     <use xlink:href="#DejaVuSans-69" transform="translate(548.873047 0)"/>
     <use xlink:href="#DejaVuSans-6b" transform="translate(576.65625 0)"/>
    </g>
   </g>
   <g id="text_9">
    <!-- Postopač -->
    <g transform="translate(191.762682 168.073814) scale(0.09 -0.09)">
     <use xlink:href="#DejaVuSans-50"/>
     <use xlink:href="#DejaVuSans-6f" transform="translate(56.677734 0)"/>
     <use xlink:href="#DejaVuSans-73" transform="translate(117.859375 0)"/>
     <use xlink:href="#DejaVuSans-74" transform="translate(169.958984 0)"/>
     <use xlink:href="#DejaVuSans-6f" transform="translate(209.167969 0)"/>
     <use xlink:href="#DejaVuSans-70" transform="translate(270.349609 0)"/>
     <use xlink:href="#DejaVuSans-61" transform="translate(333.826172 0)"/>
     <use xlink:href="#DejaVuSans-10d" transform="translate(395.105469 0)"/>
    </g>
   </g>
   <g id="text_10">
    <!-- Vilinski lokostrelec -->
    <g transform="translate(214.383342 29.808623) scale(0.09 -0.09)">
     <defs>
      <path id="DejaVuSans-56" d="M 1831 0 
L 50 4666 
L 709 4666 
L 2188 738 
L 3669 4666 
L 4325 4666 
L 2547 0 
L 1831 0 
z
" transform="scale(0.015625)"/>
     </defs>
     <use xlink:href="#DejaVuSans-56"/>
     <use xlink:href="#DejaVuSans-69" transform="translate(66.158203 0)"/>
     <use xlink:href="#DejaVuSans-6c" transform="translate(93.941406 0)"/>
     <use xlink:href="#DejaVuSans-69" transform="translate(121.724609 0)"/>
     <use xlink:href="#DejaVuSans-6e" transform="translate(149.507812 0)"/>
     <use xlink:href="#DejaVuSans-73" transform="translate(212.886719 0)"/>
     <use xlink:href="#DejaVuSans-6b" transform="translate(264.986328 0)"/>
     <use xlink:href="#DejaVuSans-69" transform="translate(322.896484 0)"/>
     <use xlink:href="#DejaVuSans-20" transform="translate(350.679688 0)"/>
     <use xlink:href="#DejaVuSans-6c" transform="translate(382.466797 0)"/>
     <use xlink:href="#DejaVuSans-6f" transform="translate(410.25 0)"/>
     <use xlink:href="#DejaVuSans-6b" transform="translate(471.431641 0)"/>
     <use xlink:href="#DejaVuSans-6f" transform="translate(525.716797 0)"/>
     <use xlink:href="#DejaVuSans-73" transform="translate(586.898438 0)"/>
     <use xlink:href="#DejaVuSans-74" transform="translate(638.998047 0)"/>
     <use xlink:href="#DejaVuSans-72" transform="translate(678.207031 0)"/>
     <use xlink:href="#DejaVuSans-65" transform="translate(717.070312 0)"/>
     <use xlink:href="#DejaVuSans-6c" transform="translate(778.59375 0)"/>
     <use xlink:href="#DejaVuSans-65" transform="translate(806.376953 0)"/>
     <use xlink:href="#DejaVuSans-63" transform="translate(867.900391 0)"/>
    </g>
   </g>
   <g id="text_11">
    <!-- Škratovski bojevnik -->
    <g transform="translate(70.872375 372.778194) scale(0.09 -0.09)">
     <defs>
      <path id="DejaVuSans-160" d="M 3425 4513 
L 3425 3897 
Q 3066 4069 2747 4153 
Q 2428 4238 2131 4238 
Q 1616 4238 1336 4038 
Q 1056 3838 1056 3469 
Q 1056 3159 1242 3001 
Q 1428 2844 1947 2747 
L 2328 2669 
Q 3034 2534 3370 2195 
Q 3706 1856 3706 1288 
Q 3706 609 3251 259 
Q 2797 -91 1919 -91 
Q 1588 -91 1214 -16 
Q 841 59 441 206 
L 441 856 
Q 825 641 1194 531 
Q 1563 422 1919 422 
Q 2459 422 2753 634 
Q 3047 847 3047 1241 
Q 3047 1584 2836 1778 
Q 2625 1972 2144 2069 
L 1759 2144 
Q 1053 2284 737 2584 
Q 422 2884 422 3419 
Q 422 4038 858 4394 
Q 1294 4750 2059 4750 
Q 2388 4750 2728 4690 
Q 3069 4631 3425 4513 
z
M 1738 5096 
L 1079 5927 
L 1513 5927 
L 2032 5371 
L 2551 5927 
L 2985 5927 
L 2326 5096 
L 1738 5096 
z
" transform="scale(0.015625)"/>
      <path id="DejaVuSans-62" d="M 3116 1747 
Q 3116 2381 2855 2742 
Q 2594 3103 2138 3103 
Q 1681 3103 1420 2742 
Q 1159 2381 1159 1747 
Q 1159 1113 1420 752 
Q 1681 391 2138 391 
Q 2594 391 2855 752 
Q 3116 1113 3116 1747 
z
M 1159 2969 
Q 1341 3281 1617 3432 
Q 1894 3584 2278 3584 
Q 2916 3584 3314 3078 
Q 3713 2572 3713 1747 
Q 3713 922 3314 415 
Q 2916 -91 2278 -91 
Q 1894 -91 1617 61 
Q 1341 213 1159 525 
L 1159 0 
L 581 0 
L 581 4863 
L 1159 4863 
L 1159 2969 
z
" transform="scale(0.015625)"/>
     </defs>
     <use xlink:href="#DejaVuSans-160"/>
     <use xlink:href="#DejaVuSans-6b" transform="translate(63.476562 0)"/>
     <use xlink:href="#DejaVuSans-72" transform="translate(121.386719 0)"/>
     <use xlink:href="#DejaVuSans-61" transform="translate(162.5 0)"/>
     <use xlink:href="#DejaVuSans-74" transform="translate(223.779297 0)"/>
     <use xlink:href="#DejaVuSans-6f" transform="translate(262.988281 0)"/>
     <use xlink:href="#DejaVuSans-76" transform="translate(324.169922 0)"/>
     <use xlink:href="#DejaVuSans-73" transform="translate(383.349609 0)"/>
     <use xlink:href="#DejaVuSans-6b" transform="translate(435.449219 0)"/>
     <use xlink:href="#DejaVuSans-69" transform="translate(493.359375 0)"/>
     <use xlink:href="#DejaVuSans-20" transform="translate(521.142578 0)"/>
     <use xlink:href="#DejaVuSans-62" transform="translate(552.929688 0)"/>
     <use xlink:href="#DejaVuSans-6f" transform="translate(616.40625 0)"/>
     <use xlink:href="#DejaVuSans-6a" transform="translate(677.587891 0)"/>
     <use xlink:href="#DejaVuSans-65" transform="translate(705.371094 0)"/>
     <use xlink:href="#DejaVuSans-76" transform="translate(766.894531 0)"/>
     <use xlink:href="#DejaVuSans-6e" transform="translate(826.074219 0)"/>
     <use xlink:href="#DejaVuSans-69" transform="translate(889.453125 0)"/>
     <use xlink:href="#DejaVuSans-6b" transform="translate(917.236328 0)"/>
    </g>
   </g>
   <g id="text_12">
    <!-- Zvesti robot -->
    <g transform="translate(196.574242 174.718978) scale(0.09 -0.09)">
     <use xlink:href="#DejaVuSans-5a"/>
     <use xlink:href="#DejaVuSans-76" transform="translate(68.505859 0)"/>
     <use xlink:href="#DejaVuSans-65" transform="translate(127.685547 0)"/>
     <use xlink:href="#DejaVuSans-73" transform="translate(189.208984 0)"/>
     <use xlink:href="#DejaVuSans-74" transform="translate(241.308594 0)"/>
     <use xlink:href="#DejaVuSans-69" transform="translate(280.517578 0)"/>
     <use xlink:href="#DejaVuSans-20" transform="translate(308.300781 0)"/>
     <use xlink:href="#DejaVuSans-72" transform="translate(340.087891 0)"/>
     <use xlink:href="#DejaVuSans-6f" transform="translate(378.951172 0)"/>
     <use xlink:href="#DejaVuSans-62" transform="translate(440.132812 0)"/>
     <use xlink:href="#DejaVuSans-6f" transform="translate(503.609375 0)"/>
     <use xlink:href="#DejaVuSans-74" transform="translate(564.791016 0)"/>
    </g>
   </g>
   <g id="text_13">
    <!-- Voditeljica upora -->
    <g transform="translate(243.923567 185.362753) scale(0.09 -0.09)">
     <defs>
      <path id="DejaVuSans-75" d="M 544 1381 
L 544 3500 
L 1119 3500 
L 1119 1403 
Q 1119 906 1312 657 
Q 1506 409 1894 409 
Q 2359 409 2629 706 
Q 2900 1003 2900 1516 
L 2900 3500 
L 3475 3500 
L 3475 0 
L 2900 0 
L 2900 538 
Q 2691 219 2414 64 
Q 2138 -91 1772 -91 
Q 1169 -91 856 284 
Q 544 659 544 1381 
z
M 1991 3584 
L 1991 3584 
z
" transform="scale(0.015625)"/>
     </defs>
     <use xlink:href="#DejaVuSans-56"/>
     <use xlink:href="#DejaVuSans-6f" transform="translate(60.658203 0)"/>
     <use xlink:href="#DejaVuSans-64" transform="translate(121.839844 0)"/>
     <use xlink:href="#DejaVuSans-69" transform="translate(185.316406 0)"/>
     <use xlink:href="#DejaVuSans-74" transform="translate(213.099609 0)"/>
     <use xlink:href="#DejaVuSans-65" transform="translate(252.308594 0)"/>
     <use xlink:href="#DejaVuSans-6c" transform="translate(313.832031 0)"/>
     <use xlink:href="#DejaVuSans-6a" transform="translate(341.615234 0)"/>
     <use xlink:href="#DejaVuSans-69" transform="translate(369.398438 0)"/>
     <use xlink:href="#DejaVuSans-63" transform="translate(397.181641 0)"/>
     <use xlink:href="#DejaVuSans-61" transform="translate(452.162109 0)"/>
     <use xlink:href="#DejaVuSans-20" transform="translate(513.441406 0)"/>
     <use xlink:href="#DejaVuSans-75" transform="translate(545.228516 0)"/>
     <use xlink:href="#DejaVuSans-70" transform="translate(608.607422 0)"/>
     <use xlink:href="#DejaVuSans-6f" transform="translate(672.083984 0)"/>
     <use xlink:href="#DejaVuSans-72" transform="translate(733.265625 0)"/>
     <use xlink:href="#DejaVuSans-61" transform="translate(774.378906 0)"/>
    </g>
   </g>
   <g id="text_14">
    <!-- Temni vitez -->
    <g transform="translate(98.707566 215.081184) scale(0.09 -0.09)">
     <defs>
      <path id="DejaVuSans-7a" d="M 353 3500 
L 3084 3500 
L 3084 2975 
L 922 459 
L 3084 459 
L 3084 0 
L 275 0 
L 275 525 
L 2438 3041 
L 353 3041 
L 353 3500 
z
" transform="scale(0.015625)"/>
     </defs>
     <use xlink:href="#DejaVuSans-54"/>
     <use xlink:href="#DejaVuSans-65" transform="translate(44.083984 0)"/>
     <use xlink:href="#DejaVuSans-6d" transform="translate(105.607422 0)"/>
     <use xlink:href="#DejaVuSans-6e" transform="translate(203.019531 0)"/>
     <use xlink:href="#DejaVuSans-69" transform="translate(266.398438 0)"/>
     <use xlink:href="#DejaVuSans-20" transform="translate(294.181641 0)"/>
     <use xlink:href="#DejaVuSans-76" transform="translate(325.96875 0)"/>
     <use xlink:href="#DejaVuSans-69" transform="translate(385.148438 0)"/>
     <use xlink:href="#DejaVuSans-74" transform="translate(412.931641 0)"/>
     <use xlink:href="#DejaVuSans-65" transform="translate(452.140625 0)"/>
     <use xlink:href="#DejaVuSans-7a" transform="translate(513.664062 0)"/>
    </g>
   </g>
   <g id="text_15">
    <!-- Zvesti prijatelj -->
    <g transform="translate(164.608274 191.038088) scale(0.09 -0.09)">
     <use xlink:href="#DejaVuSans-5a"/>
     <use xlink:href="#DejaVuSans-76" transform="translate(68.505859 0)"/>
     <use xlink:href="#DejaVuSans-65" transform="translate(127.685547 0)"/>
     <use xlink:href="#DejaVuSans-73" transform="translate(189.208984 0)"/>
     <use xlink:href="#DejaVuSans-74" transform="translate(241.308594 0)"/>
     <use xlink:href="#DejaVuSans-69" transform="translate(280.517578 0)"/>
     <use xlink:href="#DejaVuSans-20" transform="translate(308.300781 0)"/>
     <use xlink:href="#DejaVuSans-70" transform="translate(340.087891 0)"/>
     <use xlink:href="#DejaVuSans-72" transform="translate(403.564453 0)"/>
     <use xlink:href="#DejaVuSans-69" transform="translate(444.677734 0)"/>
     <use xlink:href="#DejaVuSans-6a" transform="translate(472.460938 0)"/>
     <use xlink:href="#DejaVuSans-61" transform="translate(500.244141 0)"/>
     <use xlink:href="#DejaVuSans-74" transform="translate(561.523438 0)"/>
     <use xlink:href="#DejaVuSans-65" transform="translate(600.732422 0)"/>
     <use xlink:href="#DejaVuSans-6c" transform="translate(662.255859 0)"/>
     <use xlink:href="#DejaVuSans-6a" transform="translate(690.039062 0)"/>
    </g>
   </g>
   <g id="text_16">
    <!-- Zlati robot -->
    <g transform="translate(213.232157 327.821702) scale(0.09 -0.09)">
     <use xlink:href="#DejaVuSans-5a"/>
     <use xlink:href="#DejaVuSans-6c" transform="translate(68.505859 0)"/>
     <use xlink:href="#DejaVuSans-61" transform="translate(96.289062 0)"/>
     <use xlink:href="#DejaVuSans-74" transform="translate(157.568359 0)"/>
     <use xlink:href="#DejaVuSans-69" transform="translate(196.777344 0)"/>
     <use xlink:href="#DejaVuSans-20" transform="translate(224.560547 0)"/>
     <use xlink:href="#DejaVuSans-72" transform="translate(256.347656 0)"/>
     <use xlink:href="#DejaVuSans-6f" transform="translate(295.210938 0)"/>
     <use xlink:href="#DejaVuSans-62" transform="translate(356.392578 0)"/>
     <use xlink:href="#DejaVuSans-6f" transform="translate(419.869141 0)"/>
     <use xlink:href="#DejaVuSans-74" transform="translate(481.050781 0)"/>
    </g>
   </g>
   <g id="text_17">
    <!-- Prebrisani učitelj -->
    <g transform="translate(162.764359 120.395416) scale(0.09 -0.09)">
     <use xlink:href="#DejaVuSans-50"/>
     <use xlink:href="#DejaVuSans-72" transform="translate(58.552734 0)"/>
     <use xlink:href="#DejaVuSans-65" transform="translate(97.416016 0)"/>
     <use xlink:href="#DejaVuSans-62" transform="translate(158.939453 0)"/>
     <use xlink:href="#DejaVuSans-72" transform="translate(222.416016 0)"/>
     <use xlink:href="#DejaVuSans-69" transform="translate(263.529297 0)"/>
     <use xlink:href="#DejaVuSans-73" transform="translate(291.3125 0)"/>
     <use xlink:href="#DejaVuSans-61" transform="translate(343.412109 0)"/>
     <use xlink:href="#DejaVuSans-6e" transform="translate(404.691406 0)"/>
     <use xlink:href="#DejaVuSans-69" transform="translate(468.070312 0)"/>
     <use xlink:href="#DejaVuSans-20" transform="translate(495.853516 0)"/>
     <use xlink:href="#DejaVuSans-75" transform="translate(527.640625 0)"/>
     <use xlink:href="#DejaVuSans-10d" transform="translate(591.019531 0)"/>
     <use xlink:href="#DejaVuSans-69" transform="translate(646 0)"/>
     <use xlink:href="#DejaVuSans-74" transform="translate(673.783203 0)"/>
     <use xlink:href="#DejaVuSans-65" transform="translate(712.992188 0)"/>
     <use xlink:href="#DejaVuSans-6c" transform="translate(774.515625 0)"/>
     <use xlink:href="#DejaVuSans-6a" transform="translate(802.298828 0)"/>
    </g>
   </g>
   <g id="text_18">
    <!-- Pogumna princesa -->
    <g transform="translate(353.218487 191.11202) scale(0.09 -0.09)">
     <defs>
      <path id="DejaVuSans-67" d="M 2906 1791 
Q 2906 2416 2648 2759 
Q 2391 3103 1925 3103 
Q 1463 3103 1205 2759 
Q 947 2416 947 1791 
Q 947 1169 1205 825 
Q 1463 481 1925 481 
Q 2391 481 2648 825 
Q 2906 1169 2906 1791 
z
M 3481 434 
Q 3481 -459 3084 -895 
Q 2688 -1331 1869 -1331 
Q 1566 -1331 1297 -1286 
Q 1028 -1241 775 -1147 
L 775 -588 
Q 1028 -725 1275 -790 
Q 1522 -856 1778 -856 
Q 2344 -856 2625 -561 
Q 2906 -266 2906 331 
L 2906 616 
Q 2728 306 2450 153 
Q 2172 0 1784 0 
Q 1141 0 747 490 
Q 353 981 353 1791 
Q 353 2603 747 3093 
Q 1141 3584 1784 3584 
Q 2172 3584 2450 3431 
Q 2728 3278 2906 2969 
L 2906 3500 
L 3481 3500 
L 3481 434 
z
" transform="scale(0.015625)"/>
     </defs>
     <use xlink:href="#DejaVuSans-50"/>
     <use xlink:href="#DejaVuSans-6f" transform="translate(56.677734 0)"/>
     <use xlink:href="#DejaVuSans-67" transform="translate(117.859375 0)"/>
     <use xlink:href="#DejaVuSans-75" transform="translate(181.335938 0)"/>
     <use xlink:href="#DejaVuSans-6d" transform="translate(244.714844 0)"/>
     <use xlink:href="#DejaVuSans-6e" transform="translate(342.126953 0)"/>
     <use xlink:href="#DejaVuSans-61" transform="translate(405.505859 0)"/>
     <use xlink:href="#DejaVuSans-20" transform="translate(466.785156 0)"/>
     <use xlink:href="#DejaVuSans-70" transform="translate(498.572266 0)"/>
     <use xlink:href="#DejaVuSans-72" transform="translate(562.048828 0)"/>
     <use xlink:href="#DejaVuSans-69" transform="translate(603.162109 0)"/>
     <use xlink:href="#DejaVuSans-6e" transform="translate(630.945312 0)"/>
     <use xlink:href="#DejaVuSans-63" transform="translate(694.324219 0)"/>
     <use xlink:href="#DejaVuSans-65" transform="translate(749.304688 0)"/>
     <use xlink:href="#DejaVuSans-73" transform="translate(810.828125 0)"/>
     <use xlink:href="#DejaVuSans-61" transform="translate(862.927734 0)"/>
    </g>
   </g>
   <g id="text_19">
    <!-- TU STE VI -->
    <g style="fill: #003a6e" transform="translate(128.367576 256.561306) scale(0.1 -0.1)">
     <defs>
      <path id="DejaVuSans-BoldOblique-54" d="M 488 4666 
L 4788 4666 
L 4609 3756 
L 3059 3756 
L 2328 0 
L 1125 0 
L 1856 3756 
L 306 3756 
L 488 4666 
z
" transform="scale(0.015625)"/>
      <path id="DejaVuSans-BoldOblique-55" d="M 1044 4666 
L 2247 4666 
L 1703 1872 
Q 1672 1722 1658 1606 
Q 1644 1491 1644 1403 
Q 1644 1097 1808 945 
Q 1972 794 2297 794 
Q 2734 794 2968 1039 
Q 3203 1284 3316 1869 
L 3859 4666 
L 5063 4666 
L 4519 1869 
Q 4316 838 3748 373 
Q 3181 -91 2125 -91 
Q 1297 -91 865 264 
Q 434 619 434 1294 
Q 434 1406 450 1545 
Q 466 1684 500 1869 
L 1044 4666 
z
" transform="scale(0.015625)"/>
      <path id="DejaVuSans-BoldOblique-20" transform="scale(0.015625)"/>
      <path id="DejaVuSans-BoldOblique-53" d="M 4256 4519 
L 4063 3531 
Q 3709 3706 3365 3792 
Q 3022 3878 2694 3878 
Q 2244 3878 1992 3737 
Q 1741 3597 1741 3347 
Q 1741 3188 1852 3098 
Q 1963 3009 2309 2925 
L 2803 2803 
Q 3422 2647 3711 2351 
Q 4000 2056 4000 1588 
Q 4000 828 3423 368 
Q 2847 -91 1875 -91 
Q 1422 -91 973 -6 
Q 525 78 97 244 
L 288 1259 
Q 703 1019 1095 900 
Q 1488 781 1869 781 
Q 2281 781 2539 950 
Q 2797 1119 2797 1381 
Q 2797 1553 2681 1648 
Q 2566 1744 2175 1844 
L 1684 1966 
Q 1141 2100 875 2390 
Q 609 2681 609 3144 
Q 609 3872 1167 4311 
Q 1725 4750 2669 4750 
Q 3047 4750 3445 4692 
Q 3844 4634 4256 4519 
z
" transform="scale(0.015625)"/>
      <path id="DejaVuSans-BoldOblique-45" d="M 1044 4666 
L 4288 4666 
L 4109 3756 
L 2069 3756 
L 1900 2888 
L 3822 2888 
L 3641 1978 
L 1722 1978 
L 1516 909 
L 3622 909 
L 3450 0 
L 134 0 
L 1044 4666 
z
" transform="scale(0.015625)"/>
      <path id="DejaVuSans-BoldOblique-56" d="M 488 4666 
L 1631 4666 
L 2203 1178 
L 4134 4666 
L 5375 4666 
L 2741 0 
L 1306 0 
L 488 4666 
z
" transform="scale(0.015625)"/>
      <path id="DejaVuSans-BoldOblique-49" d="M 1044 4666 
L 2247 4666 
L 1338 0 
L 134 0 
L 1044 4666 
z
" transform="scale(0.015625)"/>
     </defs>
     <use xlink:href="#DejaVuSans-BoldOblique-54"/>
     <use xlink:href="#DejaVuSans-BoldOblique-55" transform="translate(68.212891 0)"/>
     <use xlink:href="#DejaVuSans-BoldOblique-20" transform="translate(149.414062 0)"/>
     <use xlink:href="#DejaVuSans-BoldOblique-53" transform="translate(184.228516 0)"/>
     <use xlink:href="#DejaVuSans-BoldOblique-54" transform="translate(256.25 0)"/>
     <use xlink:href="#DejaVuSans-BoldOblique-45" transform="translate(324.462891 0)"/>
     <use xlink:href="#DejaVuSans-BoldOblique-20" transform="translate(392.773438 0)"/>
     <use xlink:href="#DejaVuSans-BoldOblique-56" transform="translate(427.587891 0)"/>
     <use xlink:href="#DejaVuSans-BoldOblique-49" transform="translate(504.980469 0)"/>
    </g>
   </g>
  </g>
 </g>
 <defs>
  <clipPath id="p79b4b2a3d9">
   <rect x="21.962173" y="7.2" width="390.6" height="388.08"/>
  </clipPath>
 </defs>
</svg>
