<?xml version="1.0" encoding="utf-8" standalone="no"?>
<!DOCTYPE svg PUBLIC "-//W3C//DTD SVG 1.1//EN"
  "http://www.w3.org/Graphics/SVG/1.1/DTD/svg11.dtd">
<svg xmlns:xlink="http://www.w3.org/1999/xlink" width="413.047393pt" height="402.48pt" viewBox="0 0 413.047393 402.48" xmlns="http://www.w3.org/2000/svg" version="1.1">
 <metadata>
  <rdf:RDF xmlns:dc="http://purl.org/dc/elements/1.1/" xmlns:cc="http://creativecommons.org/ns#" xmlns:rdf="http://www.w3.org/1999/02/22-rdf-syntax-ns#">
   <cc:Work>
    <dc:type rdf:resource="http://purl.org/dc/dcmitype/StillImage"/>
    <dc:date>2025-11-17T12:45:49.247885</dc:date>
    <dc:format>image/svg+xml</dc:format>
    <dc:creator>
     <cc:Agent>
      <dc:title>Matplotlib v3.10.7, https://matplotlib.org/</dc:title>
     </cc:Agent>
    </dc:creator>
   </cc:Work>
  </rdf:RDF>
 </metadata>
 <defs>
  <style type="text/css">*{stroke-linejoin: round; stroke-linecap: butt}</style>
 </defs>
 <g id="figure_1">
  <g id="patch_1">
   <path d="M 0 402.48 
L 413.047393 402.48 
L 413.047393 -0 
L 0 -0 
z
" style="fill: #ffffff"/>
  </g>
  <g id="axes_1">
   <g id="patch_2">
    <path d="M 224.519175 267.658189 
Q 266.006212 309.460635 306.438772 350.200586 
" clip-path="url(#pe511314fe8)" style="fill: none; stroke: #e8e8e8; stroke-width: 1.2; stroke-linecap: round"/>
    <path d="M 303.287608 342.056867 
L 306.438772 350.200586 
L 298.319152 346.987835 
z
" clip-path="url(#pe511314fe8)" style="fill: #e8e8e8; stroke: #e8e8e8; stroke-width: 1.2; stroke-linecap: round"/>
   </g>
   <g id="patch_3">
    <path d="M 228.279776 258.448633 
Q 300.610835 257.012384 371.445254 255.605854 
" clip-path="url(#pe511314fe8)" style="fill: none; stroke: #e8e8e8; stroke-width: 1.2; stroke-linecap: round"/>
    <path d="M 363.377346 252.265365 
L 371.445254 255.605854 
L 363.516315 259.263985 
z
" clip-path="url(#pe511314fe8)" style="fill: #e8e8e8; stroke: #e8e8e8; stroke-width: 1.2; stroke-linecap: round"/>
   </g>
   <g id="patch_4">
    <path d="M 202.976246 258.865281 
Q 143.943011 259.637179 86.406584 260.389506 
" clip-path="url(#pe511314fe8)" style="fill: none; stroke: #e8e8e8; stroke-width: 1.2; stroke-linecap: round"/>
    <path d="M 94.451661 263.78461 
L 86.406584 260.389506 
L 94.360139 256.785209 
z
" clip-path="url(#pe511314fe8)" style="fill: #e8e8e8; stroke: #e8e8e8; stroke-width: 1.2; stroke-linecap: round"/>
   </g>
   <g id="patch_5">
    <path d="M 214.682992 246.152924 
Q 210.319815 188.248754 206.069115 131.837287 
" clip-path="url(#pe511314fe8)" style="fill: none; stroke: #e8e8e8; stroke-width: 1.2; stroke-linecap: round"/>
    <path d="M 203.180118 140.077658 
L 206.069115 131.837287 
L 210.16033 139.551687 
z
" clip-path="url(#pe511314fe8)" style="fill: #e8e8e8; stroke: #e8e8e8; stroke-width: 1.2; stroke-linecap: round"/>
   </g>
   <g id="patch_6">
    <path d="M 280.350699 261.868466 
Q 254.308002 260.593489 229.760451 259.39171 
" clip-path="url(#pe511314fe8)" style="fill: none; stroke: #e8e8e8; stroke-width: 1.2; stroke-linecap: round"/>
    <path d="M 237.579736 263.278712 
L 229.760451 259.39171 
L 237.922026 256.287086 
z
" clip-path="url(#pe511314fe8)" style="fill: #e8e8e8; stroke: #e8e8e8; stroke-width: 1.2; stroke-linecap: round"/>
   </g>
   <g id="patch_7">
    <path d="M 286.61596 273.364409 
Q 269.233928 303.045791 252.608362 331.435439 
" clip-path="url(#pe511314fe8)" style="fill: none; stroke: #e8e8e8; stroke-width: 1.2; stroke-linecap: round"/>
    <path d="M 259.671321 326.300791 
L 252.608362 331.435439 
L 253.630891 322.76339 
z
" clip-path="url(#pe511314fe8)" style="fill: #e8e8e8; stroke: #e8e8e8; stroke-width: 1.2; stroke-linecap: round"/>
   </g>
   <g id="patch_8">
    <path d="M 282.828447 254.985037 
Q 249.813097 230.600961 218.001871 207.106211 
" clip-path="url(#pe511314fe8)" style="fill: none; stroke: #e8e8e8; stroke-width: 1.2; stroke-linecap: round"/>
    <path d="M 222.357666 214.674372 
L 218.001871 207.106211 
L 226.516354 209.043625 
z
" clip-path="url(#pe511314fe8)" style="fill: #e8e8e8; stroke: #e8e8e8; stroke-width: 1.2; stroke-linecap: round"/>
   </g>
   <g id="patch_9">
    <path d="M 280.768549 259.207717 
Q 229.640978 245.484315 179.959168 232.148977 
" clip-path="url(#pe511314fe8)" style="fill: none; stroke: #e8e8e8; stroke-width: 1.2; stroke-linecap: round"/>
    <path d="M 186.778339 237.603233 
L 179.959168 232.148977 
L 188.593009 230.84254 
z
" clip-path="url(#pe511314fe8)" style="fill: #e8e8e8; stroke: #e8e8e8; stroke-width: 1.2; stroke-linecap: round"/>
   </g>
   <g id="patch_10">
    <path d="M 374.901199 262.061456 
Q 315.537621 299.463769 257.440557 336.06811 
" clip-path="url(#pe511314fe8)" style="fill: none; stroke: #e8e8e8; stroke-width: 1.2; stroke-linecap: round"/>
    <path d="M 266.074869 334.764789 
L 257.440557 336.06811 
L 262.343373 328.842295 
z
" clip-path="url(#pe511314fe8)" style="fill: #e8e8e8; stroke: #e8e8e8; stroke-width: 1.2; stroke-linecap: round"/>
   </g>
   <g id="patch_11">
    <path d="M 373.953777 250.394634 
Q 291.227532 215.35293 209.879665 180.895087 
" clip-path="url(#pe511314fe8)" style="fill: none; stroke: #e8e8e8; stroke-width: 1.2; stroke-linecap: round"/>
    <path d="M 215.880923 187.238185 
L 209.879665 180.895087 
L 218.611188 180.792593 
z
" clip-path="url(#pe511314fe8)" style="fill: #e8e8e8; stroke: #e8e8e8; stroke-width: 1.2; stroke-linecap: round"/>
   </g>
   <g id="patch_12">
    <path d="M 83.967191 265.352639 
Q 194.322082 310.396979 303.291046 354.875614 
" clip-path="url(#pe511314fe8)" style="fill: none; stroke: #e8e8e8; stroke-width: 1.2; stroke-linecap: round"/>
    <path d="M 297.206979 348.6119 
L 303.291046 354.875614 
L 294.561623 355.092802 
z
" clip-path="url(#pe511314fe8)" style="fill: #e8e8e8; stroke: #e8e8e8; stroke-width: 1.2; stroke-linecap: round"/>
   </g>
   <g id="patch_13">
    <path d="M 76.580978 272.400541 
Q 93.64257 319.107916 110.190546 364.409227 
" clip-path="url(#pe511314fe8)" style="fill: none; stroke: #e8e8e8; stroke-width: 1.2; stroke-linecap: round"/>
    <path d="M 110.733181 355.693979 
L 110.190546 364.409227 
L 104.15812 358.095763 
z
" clip-path="url(#pe511314fe8)" style="fill: #e8e8e8; stroke: #e8e8e8; stroke-width: 1.2; stroke-linecap: round"/>
   </g>
   <g id="patch_14">
    <path d="M 82.686373 253.446319 
Q 134.561124 217.977721 185.20017 183.354019 
" clip-path="url(#pe511314fe8)" style="fill: none; stroke: #e8e8e8; stroke-width: 1.2; stroke-linecap: round"/>
    <path d="M 176.620791 184.980137 
L 185.20017 183.354019 
L 180.571708 190.758568 
z
" clip-path="url(#pe511314fe8)" style="fill: #e8e8e8; stroke: #e8e8e8; stroke-width: 1.2; stroke-linecap: round"/>
   </g>
   <g id="patch_15">
    <path d="M 71.690416 248.001422 
Q 67.690154 159.864624 63.757764 73.223222 
" clip-path="url(#pe511314fe8)" style="fill: none; stroke: #e8e8e8; stroke-width: 1.2; stroke-linecap: round"/>
    <path d="M 60.624086 81.373686 
L 63.757764 73.223222 
L 67.616887 81.056304 
z
" clip-path="url(#pe511314fe8)" style="fill: #e8e8e8; stroke: #e8e8e8; stroke-width: 1.2; stroke-linecap: round"/>
   </g>
   <g id="patch_16">
    <path d="M 84.225645 256.49138 
Q 119.27804 244.529235 152.913723 233.050564 
" clip-path="url(#pe511314fe8)" style="fill: none; stroke: #e8e8e8; stroke-width: 1.2; stroke-linecap: round"/>
    <path d="M 144.212051 232.321941 
L 152.913723 233.050564 
L 146.472879 238.946793 
z
" clip-path="url(#pe511314fe8)" style="fill: #e8e8e8; stroke: #e8e8e8; stroke-width: 1.2; stroke-linecap: round"/>
   </g>
   <g id="patch_17">
    <path d="M 79.366477 250.164945 
Q 104.265584 213.687409 128.320762 178.44624 
" clip-path="url(#pe511314fe8)" style="fill: none; stroke: #e8e8e8; stroke-width: 1.2; stroke-linecap: round"/>
    <path d="M 120.919838 183.080495 
L 128.320762 178.44624 
L 126.701359 187.026888 
z
" clip-path="url(#pe511314fe8)" style="fill: #e8e8e8; stroke: #e8e8e8; stroke-width: 1.2; stroke-linecap: round"/>
   </g>
   <g id="patch_18">
    <path d="M 211.559611 128.565345 
Q 248.998561 190.141087 285.65982 250.437763 
" clip-path="url(#pe511314fe8)" style="fill: none; stroke: #e8e8e8; stroke-width: 1.2; stroke-linecap: round"/>
    <path d="M 284.494241 241.78378 
L 285.65982 250.437763 
L 278.513043 245.420436 
z
" clip-path="url(#pe511314fe8)" style="fill: #e8e8e8; stroke: #e8e8e8; stroke-width: 1.2; stroke-linecap: round"/>
   </g>
   <g id="patch_19">
    <path d="M 217.090182 121.553779 
Q 279.817831 141.074029 341.116154 160.149485 
" clip-path="url(#pe511314fe8)" style="fill: none; stroke: #e8e8e8; stroke-width: 1.2; stroke-linecap: round"/>
    <path d="M 334.517446 154.430476 
L 341.116154 160.149485 
L 332.437497 161.114323 
z
" clip-path="url(#pe511314fe8)" style="fill: #e8e8e8; stroke: #e8e8e8; stroke-width: 1.2; stroke-linecap: round"/>
   </g>
   <g id="patch_20">
    <path d="M 205.030623 105.208507 
Q 205.083483 71.315055 205.134008 38.918537 
" clip-path="url(#pe511314fe8)" style="fill: none; stroke: #e8e8e8; stroke-width: 1.2; stroke-linecap: round"/>
    <path d="M 201.621536 46.913069 
L 205.134008 38.918537 
L 208.621527 46.923986 
z
" clip-path="url(#pe511314fe8)" style="fill: #e8e8e8; stroke: #e8e8e8; stroke-width: 1.2; stroke-linecap: round"/>
   </g>
   <g id="patch_21">
    <path d="M 251.853568 332.724316 
Q 269.2356 303.042934 285.861166 274.653287 
" clip-path="url(#pe511314fe8)" style="fill: none; stroke: #e8e8e8; stroke-width: 1.2; stroke-linecap: round"/>
    <path d="M 278.798208 279.787935 
L 285.861166 274.653287 
L 284.838638 283.325336 
z
" clip-path="url(#pe511314fe8)" style="fill: #e8e8e8; stroke: #e8e8e8; stroke-width: 1.2; stroke-linecap: round"/>
   </g>
   <g id="patch_22">
    <path d="M 246.99866 331.108771 
Q 255.741987 259.014666 264.305092 188.406608 
" clip-path="url(#pe511314fe8)" style="fill: none; stroke: #e8e8e8; stroke-width: 1.2; stroke-linecap: round"/>
    <path d="M 259.867395 195.927037 
L 264.305092 188.406608 
L 266.816477 196.769798 
z
" clip-path="url(#pe511314fe8)" style="fill: #e8e8e8; stroke: #e8e8e8; stroke-width: 1.2; stroke-linecap: round"/>
   </g>
   <g id="patch_23">
    <path d="M 256.175539 336.865141 
Q 315.539117 299.462827 373.636182 262.858486 
" clip-path="url(#pe511314fe8)" style="fill: none; stroke: #e8e8e8; stroke-width: 1.2; stroke-linecap: round"/>
    <path d="M 365.001869 264.161807 
L 373.636182 262.858486 
L 368.733365 270.084301 
z
" clip-path="url(#pe511314fe8)" style="fill: #e8e8e8; stroke: #e8e8e8; stroke-width: 1.2; stroke-linecap: round"/>
   </g>
   <g id="patch_24">
    <path d="M 234.086241 338.138826 
Q 158.873381 302.08858 85.010406 266.685348 
" clip-path="url(#pe511314fe8)" style="fill: none; stroke: #e8e8e8; stroke-width: 1.2; stroke-linecap: round"/>
    <path d="M 90.711745 273.299328 
L 85.010406 266.685348 
L 93.73732 266.986968 
z
" clip-path="url(#pe511314fe8)" style="fill: #e8e8e8; stroke: #e8e8e8; stroke-width: 1.2; stroke-linecap: round"/>
   </g>
   <g id="patch_25">
    <path d="M 238.339496 333.215513 
Q 205.892003 286.042828 174.292856 240.103482 
" clip-path="url(#pe511314fe8)" style="fill: none; stroke: #e8e8e8; stroke-width: 1.2; stroke-linecap: round"/>
    <path d="M 175.942948 248.678282 
L 174.292856 240.103482 
L 181.710313 244.711229 
z
" clip-path="url(#pe511314fe8)" style="fill: #e8e8e8; stroke: #e8e8e8; stroke-width: 1.2; stroke-linecap: round"/>
   </g>
   <g id="patch_26">
    <path d="M 264.485335 186.920388 
Q 255.742008 259.014493 247.178903 329.622551 
" clip-path="url(#pe511314fe8)" style="fill: none; stroke: #e8e8e8; stroke-width: 1.2; stroke-linecap: round"/>
    <path d="M 251.6166 322.102123 
L 247.178903 329.622551 
L 244.667518 321.259362 
z
" clip-path="url(#pe511314fe8)" style="fill: #e8e8e8; stroke: #e8e8e8; stroke-width: 1.2; stroke-linecap: round"/>
   </g>
   <g id="patch_27">
    <path d="M 258.070919 184.232999 
Q 252.61374 190.981261 248.097836 196.565556 
" clip-path="url(#pe511314fe8)" style="fill: none; stroke: #e8e8e8; stroke-width: 1.2; stroke-linecap: round"/>
    <path d="M 255.849728 192.545834 
L 248.097836 196.565556 
L 250.406767 188.144224 
z
" clip-path="url(#pe511314fe8)" style="fill: #e8e8e8; stroke: #e8e8e8; stroke-width: 1.2; stroke-linecap: round"/>
   </g>
   <g id="patch_28">
    <path d="M 272.943981 163.908452 
Q 297.585364 126.578324 321.40209 90.497499 
" clip-path="url(#pe511314fe8)" style="fill: none; stroke: #e8e8e8; stroke-width: 1.2; stroke-linecap: round"/>
    <path d="M 314.073909 95.245948 
L 321.40209 90.497499 
L 319.915923 99.102225 
z
" clip-path="url(#pe511314fe8)" style="fill: #e8e8e8; stroke: #e8e8e8; stroke-width: 1.2; stroke-linecap: round"/>
   </g>
   <g id="patch_29">
    <path d="M 254.298471 179.215419 
Q 236.319886 186.57147 219.726753 193.360656 
" clip-path="url(#pe511314fe8)" style="fill: none; stroke: #e8e8e8; stroke-width: 1.2; stroke-linecap: round"/>
    <path d="M 228.456355 193.570518 
L 219.726753 193.360656 
L 225.805562 187.091838 
z
" clip-path="url(#pe511314fe8)" style="fill: #e8e8e8; stroke: #e8e8e8; stroke-width: 1.2; stroke-linecap: round"/>
   </g>
   <g id="patch_30">
    <path d="M 278.572566 172.99806 
Q 310.311392 169.389417 340.562865 165.949883 
" clip-path="url(#pe511314fe8)" style="fill: none; stroke: #e8e8e8; stroke-width: 1.2; stroke-linecap: round"/>
    <path d="M 332.218682 163.37605 
L 340.562865 165.949883 
L 333.009474 170.331239 
z
" clip-path="url(#pe511314fe8)" style="fill: #e8e8e8; stroke: #e8e8e8; stroke-width: 1.2; stroke-linecap: round"/>
   </g>
   <g id="patch_31">
    <path d="M 233.950187 218.976186 
Q 227.427711 233.117653 221.532194 245.899804 
" clip-path="url(#pe511314fe8)" style="fill: none; stroke: #e8e8e8; stroke-width: 1.2; stroke-linecap: round"/>
    <path d="M 228.061045 240.101175 
L 221.532194 245.899804 
L 221.704584 237.169381 
z
" clip-path="url(#pe511314fe8)" style="fill: #e8e8e8; stroke: #e8e8e8; stroke-width: 1.2; stroke-linecap: round"/>
   </g>
   <g id="patch_32">
    <path d="M 229.169163 199.90086 
Q 218.044045 191.457388 208.11133 183.918897 
" clip-path="url(#pe511314fe8)" style="fill: none; stroke: #e8e8e8; stroke-width: 1.2; stroke-linecap: round"/>
    <path d="M 212.367886 191.543313 
L 208.11133 183.918897 
L 216.599777 185.967374 
z
" clip-path="url(#pe511314fe8)" style="fill: #e8e8e8; stroke: #e8e8e8; stroke-width: 1.2; stroke-linecap: round"/>
   </g>
   <g id="patch_33">
    <path d="M 173.443488 238.868657 
Q 205.890981 286.041342 237.490128 331.980688 
" clip-path="url(#pe511314fe8)" style="fill: none; stroke: #e8e8e8; stroke-width: 1.2; stroke-linecap: round"/>
    <path d="M 235.840036 323.405888 
L 237.490128 331.980688 
L 230.072672 327.37294 
z
" clip-path="url(#pe511314fe8)" style="fill: #e8e8e8; stroke: #e8e8e8; stroke-width: 1.2; stroke-linecap: round"/>
   </g>
   <g id="patch_34">
    <path d="M 154.334844 232.565586 
Q 119.282449 244.52773 85.646765 256.006402 
" clip-path="url(#pe511314fe8)" style="fill: none; stroke: #e8e8e8; stroke-width: 1.2; stroke-linecap: round"/>
    <path d="M 94.348438 256.735024 
L 85.646765 256.006402 
L 92.08761 250.110173 
z
" clip-path="url(#pe511314fe8)" style="fill: #e8e8e8; stroke: #e8e8e8; stroke-width: 1.2; stroke-linecap: round"/>
   </g>
   <g id="patch_35">
    <path d="M 172.585256 217.56083 
Q 181.579867 201.932652 189.827774 187.601876 
" clip-path="url(#pe511314fe8)" style="fill: none; stroke: #e8e8e8; stroke-width: 1.2; stroke-linecap: round"/>
    <path d="M 182.803735 192.789638 
L 189.827774 187.601876 
L 188.870668 196.281389 
z
" clip-path="url(#pe511314fe8)" style="fill: #e8e8e8; stroke: #e8e8e8; stroke-width: 1.2; stroke-linecap: round"/>
   </g>
   <g id="patch_36">
    <path d="M 160.785736 217.156715 
Q 151.28475 197.640528 142.438992 179.470259 
" clip-path="url(#pe511314fe8)" style="fill: none; stroke: #e8e8e8; stroke-width: 1.2; stroke-linecap: round"/>
    <path d="M 142.793789 188.195172 
L 142.438992 179.470259 
L 149.087594 185.131185 
z
" clip-path="url(#pe511314fe8)" style="fill: #e8e8e8; stroke: #e8e8e8; stroke-width: 1.2; stroke-linecap: round"/>
   </g>
   <g id="patch_37">
    <path d="M 322.445078 89.389103 
Q 272.398926 168.715227 223.151505 246.775316 
" clip-path="url(#pe511314fe8)" style="fill: none; stroke: #e8e8e8; stroke-width: 1.2; stroke-linecap: round"/>
    <path d="M 230.380252 241.876824 
L 223.151505 246.775316 
L 224.459992 238.141785 
z
" clip-path="url(#pe511314fe8)" style="fill: #e8e8e8; stroke: #e8e8e8; stroke-width: 1.2; stroke-linecap: round"/>
   </g>
   <g id="patch_38">
    <path d="M 326.739551 91.076867 
Q 311.078743 170.606846 295.707153 248.668095 
" clip-path="url(#pe511314fe8)" style="fill: none; stroke: #e8e8e8; stroke-width: 1.2; stroke-linecap: round"/>
    <path d="M 300.68686 241.495054 
L 295.707153 248.668095 
L 293.818754 240.142607 
z
" clip-path="url(#pe511314fe8)" style="fill: #e8e8e8; stroke: #e8e8e8; stroke-width: 1.2; stroke-linecap: round"/>
   </g>
   <g id="patch_39">
    <path d="M 322.227786 89.246622 
Q 297.586403 126.57675 273.769677 162.657575 
" clip-path="url(#pe511314fe8)" style="fill: none; stroke: #e8e8e8; stroke-width: 1.2; stroke-linecap: round"/>
    <path d="M 281.097857 157.909126 
L 273.769677 162.657575 
L 275.255843 154.052849 
z
" clip-path="url(#pe511314fe8)" style="fill: #e8e8e8; stroke: #e8e8e8; stroke-width: 1.2; stroke-linecap: round"/>
   </g>
   <g id="patch_40">
    <path d="M 321.952231 89.065928 
Q 284.197929 143.133151 247.30065 195.973049 
" clip-path="url(#pe511314fe8)" style="fill: none; stroke: #e8e8e8; stroke-width: 1.2; stroke-linecap: round"/>
    <path d="M 254.750416 191.417724 
L 247.30065 195.973049 
L 249.011171 187.410098 
z
" clip-path="url(#pe511314fe8)" style="fill: #e8e8e8; stroke: #e8e8e8; stroke-width: 1.2; stroke-linecap: round"/>
   </g>
   <g id="patch_41">
    <path d="M 332.758193 90.796014 
Q 341.895818 121.540679 350.606975 150.850444 
" clip-path="url(#pe511314fe8)" style="fill: none; stroke: #e8e8e8; stroke-width: 1.2; stroke-linecap: round"/>
    <path d="M 351.682784 142.184843 
L 350.606975 150.850444 
L 344.97287 144.179097 
z
" clip-path="url(#pe511314fe8)" style="fill: #e8e8e8; stroke: #e8e8e8; stroke-width: 1.2; stroke-linecap: round"/>
   </g>
   <g id="patch_42">
    <path d="M 317.577566 73.689822 
Q 267.163227 51.783609 218.121812 30.473965 
" clip-path="url(#pe511314fe8)" style="fill: none; stroke: #e8e8e8; stroke-width: 1.2; stroke-linecap: round"/>
    <path d="M 224.064226 36.872224 
L 218.121812 30.473965 
L 226.85391 30.452125 
z
" clip-path="url(#pe511314fe8)" style="fill: #e8e8e8; stroke: #e8e8e8; stroke-width: 1.2; stroke-linecap: round"/>
   </g>
   <g id="patch_43">
    <path d="M 194.38133 195.588279 
Q 118.568603 176.251932 44.206377 157.285541 
" clip-path="url(#pe511314fe8)" style="fill: none; stroke: #e8e8e8; stroke-width: 1.2; stroke-linecap: round"/>
    <path d="M 51.093213 162.654105 
L 44.206377 157.285541 
L 52.823208 155.87125 
z
" clip-path="url(#pe511314fe8)" style="fill: #e8e8e8; stroke: #e8e8e8; stroke-width: 1.2; stroke-linecap: round"/>
   </g>
   <g id="patch_44">
    <path d="M 218.342382 193.92708 
Q 236.320968 186.571028 252.914101 179.781843 
" clip-path="url(#pe511314fe8)" style="fill: none; stroke: #e8e8e8; stroke-width: 1.2; stroke-linecap: round"/>
    <path d="M 244.184498 179.57198 
L 252.914101 179.781843 
L 246.835291 186.05066 
z
" clip-path="url(#pe511314fe8)" style="fill: #e8e8e8; stroke: #e8e8e8; stroke-width: 1.2; stroke-linecap: round"/>
   </g>
   <g id="patch_45">
    <path d="M 218.69625 202.528751 
Q 296.116279 227.019803 372.109082 251.059366 
" clip-path="url(#pe511314fe8)" style="fill: none; stroke: #e8e8e8; stroke-width: 1.2; stroke-linecap: round"/>
    <path d="M 365.537257 245.309486 
L 372.109082 251.059366 
L 363.425997 251.983508 
z
" clip-path="url(#pe511314fe8)" style="fill: #e8e8e8; stroke: #e8e8e8; stroke-width: 1.2; stroke-linecap: round"/>
   </g>
   <g id="patch_46">
    <path d="M 201.771133 187.096035 
Q 201.749647 187.044766 202.306744 188.374098 
" clip-path="url(#pe511314fe8)" style="fill: none; stroke: #e8e8e8; stroke-width: 1.2; stroke-linecap: round"/>
    <path d="M 202.170842 197.105165 
L 202.306744 188.374098 
L 208.626834 194.399583 
z
" clip-path="url(#pe511314fe8)" style="fill: #e8e8e8; stroke: #e8e8e8; stroke-width: 1.2; stroke-linecap: round"/>
   </g>
   <g id="patch_47">
    <path d="M 206.387023 186.130793 
Q 205.825671 158.253108 205.294455 131.872056 
" clip-path="url(#pe511314fe8)" style="fill: none; stroke: #e8e8e8; stroke-width: 1.2; stroke-linecap: round"/>
    <path d="M 201.956222 139.940897 
L 205.294455 131.872056 
L 208.954803 139.799972 
z
" clip-path="url(#pe511314fe8)" style="fill: #e8e8e8; stroke: #e8e8e8; stroke-width: 1.2; stroke-linecap: round"/>
   </g>
   <g id="patch_48">
    <path d="M 218.958889 195.854448 
Q 280.629623 181.533429 340.84222 167.551015 
" clip-path="url(#pe511314fe8)" style="fill: none; stroke: #e8e8e8; stroke-width: 1.2; stroke-linecap: round"/>
    <path d="M 332.257875 165.95132 
L 340.84222 167.551015 
L 333.841266 172.769888 
z
" clip-path="url(#pe511314fe8)" style="fill: #e8e8e8; stroke: #e8e8e8; stroke-width: 1.2; stroke-linecap: round"/>
   </g>
   <g id="patch_49">
    <path d="M 42.661818 157.267152 
Q 208.048166 204.557715 371.99526 251.436737 
" clip-path="url(#pe511314fe8)" style="fill: none; stroke: #e8e8e8; stroke-width: 1.2; stroke-linecap: round"/>
    <path d="M 365.265753 245.87223 
L 371.99526 251.436737 
L 363.341301 252.602497 
z
" clip-path="url(#pe511314fe8)" style="fill: #e8e8e8; stroke: #e8e8e8; stroke-width: 1.2; stroke-linecap: round"/>
   </g>
   <g id="patch_50">
    <path d="M 42.761358 156.916983 
Q 118.574084 176.25333 192.936311 195.219721 
" clip-path="url(#pe511314fe8)" style="fill: none; stroke: #e8e8e8; stroke-width: 1.2; stroke-linecap: round"/>
    <path d="M 186.049475 189.851156 
L 192.936311 195.219721 
L 184.31948 196.634011 
z
" clip-path="url(#pe511314fe8)" style="fill: #e8e8e8; stroke: #e8e8e8; stroke-width: 1.2; stroke-linecap: round"/>
   </g>
   <g id="patch_51">
    <path d="M 34.60476 141.887262 
Q 46.809833 106.475423 58.527131 72.478819 
" clip-path="url(#pe511314fe8)" style="fill: none; stroke: #e8e8e8; stroke-width: 1.2; stroke-linecap: round"/>
    <path d="M 52.611357 78.901717 
L 58.527131 72.478819 
L 59.229308 81.182666 
z
" clip-path="url(#pe511314fe8)" style="fill: #e8e8e8; stroke: #e8e8e8; stroke-width: 1.2; stroke-linecap: round"/>
   </g>
   <g id="patch_52">
    <path d="M 40.660947 146.289897 
Q 117.827806 89.316092 193.790399 33.23142 
" clip-path="url(#pe511314fe8)" style="fill: none; stroke: #e8e8e8; stroke-width: 1.2; stroke-linecap: round"/>
    <path d="M 185.275604 35.167466 
L 193.790399 33.23142 
L 189.433388 40.798881 
z
" clip-path="url(#pe511314fe8)" style="fill: #e8e8e8; stroke: #e8e8e8; stroke-width: 1.2; stroke-linecap: round"/>
   </g>
   <g id="patch_53">
    <path d="M 69.919517 69.762044 
Q 154.299622 201.375646 237.871798 331.729064 
" clip-path="url(#pe511314fe8)" style="fill: none; stroke: #e8e8e8; stroke-width: 1.2; stroke-linecap: round"/>
    <path d="M 236.500469 323.105291 
L 237.871798 331.729064 
L 230.607568 326.883348 
z
" clip-path="url(#pe511314fe8)" style="fill: #e8e8e8; stroke: #e8e8e8; stroke-width: 1.2; stroke-linecap: round"/>
   </g>
   <g id="patch_54">
    <path d="M 75.733886 60.08321 
Q 196.142278 68.941172 315.057769 77.689308 
" clip-path="url(#pe511314fe8)" style="fill: none; stroke: #e8e8e8; stroke-width: 1.2; stroke-linecap: round"/>
    <path d="M 307.336117 73.611798 
L 315.057769 77.689308 
L 306.822543 80.592933 
z
" clip-path="url(#pe511314fe8)" style="fill: #e8e8e8; stroke: #e8e8e8; stroke-width: 1.2; stroke-linecap: round"/>
   </g>
   <g id="patch_55">
    <path d="M 73.910735 65.719953 
Q 224.354076 157.23876 373.518527 247.979585 
" clip-path="url(#pe511314fe8)" style="fill: none; stroke: #e8e8e8; stroke-width: 1.2; stroke-linecap: round"/>
    <path d="M 368.502832 240.831662 
L 373.518527 247.979585 
L 364.86481 246.81203 
z
" clip-path="url(#pe511314fe8)" style="fill: #e8e8e8; stroke: #e8e8e8; stroke-width: 1.2; stroke-linecap: round"/>
   </g>
   <g id="patch_56">
    <path d="M 70.203276 69.579548 
Q 99.694221 112.976371 128.343793 155.135088 
" clip-path="url(#pe511314fe8)" style="fill: none; stroke: #e8e8e8; stroke-width: 1.2; stroke-linecap: round"/>
    <path d="M 126.742112 146.551114 
L 128.343793 155.135088 
L 120.952454 150.48556 
z
" clip-path="url(#pe511314fe8)" style="fill: #e8e8e8; stroke: #e8e8e8; stroke-width: 1.2; stroke-linecap: round"/>
   </g>
   <g id="patch_57">
    <path d="M 75.41435 56.184784 
Q 134.138611 41.99736 191.4078 28.161473 
" clip-path="url(#pe511314fe8)" style="fill: none; stroke: #e8e8e8; stroke-width: 1.2; stroke-linecap: round"/>
    <path d="M 182.809591 26.638053 
L 191.4078 28.161473 
L 184.453455 33.442295 
z
" clip-path="url(#pe511314fe8)" style="fill: #e8e8e8; stroke: #e8e8e8; stroke-width: 1.2; stroke-linecap: round"/>
   </g>
   <g id="patch_58">
    <path d="M 205.718846 37.409669 
Q 210.392182 141.769643 214.998551 244.634179 
" clip-path="url(#pe511314fe8)" style="fill: none; stroke: #e8e8e8; stroke-width: 1.2; stroke-linecap: round"/>
    <path d="M 218.137158 236.485612 
L 214.998551 244.634179 
L 211.144166 236.798765 
z
" clip-path="url(#pe511314fe8)" style="fill: #e8e8e8; stroke: #e8e8e8; stroke-width: 1.2; stroke-linecap: round"/>
   </g>
   <g id="patch_59">
    <path d="M 194.997283 32.340354 
Q 117.830424 89.314159 41.867832 145.39883 
" clip-path="url(#pe511314fe8)" style="fill: none; stroke: #e8e8e8; stroke-width: 1.2; stroke-linecap: round"/>
    <path d="M 50.382627 143.462785 
L 41.867832 145.39883 
L 46.224843 137.83137 
z
" clip-path="url(#pe511314fe8)" style="fill: #e8e8e8; stroke: #e8e8e8; stroke-width: 1.2; stroke-linecap: round"/>
   </g>
   <g id="patch_60">
    <path d="M 198.969022 35.814655 
Q 138.708294 142.707628 79.182692 248.296604 
" clip-path="url(#pe511314fe8)" style="fill: none; stroke: #e8e8e8; stroke-width: 1.2; stroke-linecap: round"/>
    <path d="M 86.160275 243.046525 
L 79.182692 248.296604 
L 80.062502 239.608915 
z
" clip-path="url(#pe511314fe8)" style="fill: #e8e8e8; stroke: #e8e8e8; stroke-width: 1.2; stroke-linecap: round"/>
   </g>
   <g id="patch_61">
    <path d="M 205.136335 37.426343 
Q 205.083475 71.319795 205.03295 103.716313 
" clip-path="url(#pe511314fe8)" style="fill: none; stroke: #e8e8e8; stroke-width: 1.2; stroke-linecap: round"/>
    <path d="M 208.545422 95.721782 
L 205.03295 103.716313 
L 201.545431 95.710864 
z
" clip-path="url(#pe511314fe8)" style="fill: #e8e8e8; stroke: #e8e8e8; stroke-width: 1.2; stroke-linecap: round"/>
   </g>
   <g id="patch_62">
    <path d="M 192.860875 27.810419 
Q 134.136613 41.997842 76.867425 55.833729 
" clip-path="url(#pe511314fe8)" style="fill: none; stroke: #e8e8e8; stroke-width: 1.2; stroke-linecap: round"/>
    <path d="M 85.465633 57.357149 
L 76.867425 55.833729 
L 83.82177 50.552907 
z
" clip-path="url(#pe511314fe8)" style="fill: #e8e8e8; stroke: #e8e8e8; stroke-width: 1.2; stroke-linecap: round"/>
   </g>
   <g id="patch_63">
    <path d="M 202.796489 37.205731 
Q 185.727254 126.663549 168.938584 214.650958 
" clip-path="url(#pe511314fe8)" style="fill: none; stroke: #e8e8e8; stroke-width: 1.2; stroke-linecap: round"/>
    <path d="M 173.87597 207.448721 
L 168.938584 214.650958 
L 167.000019 206.136737 
z
" clip-path="url(#pe511314fe8)" style="fill: #e8e8e8; stroke: #e8e8e8; stroke-width: 1.2; stroke-linecap: round"/>
   </g>
   <g id="patch_64">
    <path d="M 341.971896 163.939522 
Q 192.558948 159.070885 44.642142 154.251 
" clip-path="url(#pe511314fe8)" style="fill: none; stroke: #e8e8e8; stroke-width: 1.2; stroke-linecap: round"/>
    <path d="M 52.523911 158.009686 
L 44.642142 154.251 
L 52.751886 151.013399 
z
" clip-path="url(#pe511314fe8)" style="fill: #e8e8e8; stroke: #e8e8e8; stroke-width: 1.2; stroke-linecap: round"/>
   </g>
   <g id="patch_65">
    <path d="M 351.032811 152.283223 
Q 341.895187 121.538558 333.18403 92.228793 
" clip-path="url(#pe511314fe8)" style="fill: none; stroke: #e8e8e8; stroke-width: 1.2; stroke-linecap: round"/>
    <path d="M 332.10822 100.894394 
L 333.18403 92.228793 
L 338.818134 98.90014 
z
" clip-path="url(#pe511314fe8)" style="fill: #e8e8e8; stroke: #e8e8e8; stroke-width: 1.2; stroke-linecap: round"/>
   </g>
   <g id="patch_66">
    <path d="M 342.301202 167.212214 
Q 280.630469 181.533233 220.417872 195.515647 
" clip-path="url(#pe511314fe8)" style="fill: none; stroke: #e8e8e8; stroke-width: 1.2; stroke-linecap: round"/>
    <path d="M 229.002216 197.115342 
L 220.417872 195.515647 
L 227.418826 190.296773 
z
" clip-path="url(#pe511314fe8)" style="fill: #e8e8e8; stroke: #e8e8e8; stroke-width: 1.2; stroke-linecap: round"/>
   </g>
   <g id="patch_67">
    <path d="M 127.62888 376.549406 
Q 215.702631 368.929383 302.285018 361.438391 
" clip-path="url(#pe511314fe8)" style="fill: none; stroke: #e8e8e8; stroke-width: 1.2; stroke-linecap: round"/>
    <path d="M 294.013104 358.640991 
L 302.285018 361.438391 
L 294.616481 365.614938 
z
" clip-path="url(#pe511314fe8)" style="fill: #e8e8e8; stroke: #e8e8e8; stroke-width: 1.2; stroke-linecap: round"/>
   </g>
   <g id="patch_68">
    <path d="M 127.261324 374.447048 
Q 180.254133 360.620689 231.798495 347.172245 
" clip-path="url(#pe511314fe8)" style="fill: none; stroke: #e8e8e8; stroke-width: 1.2; stroke-linecap: round"/>
    <path d="M 223.174028 345.805287 
L 231.798495 347.172245 
L 224.941238 352.57854 
z
" clip-path="url(#pe511314fe8)" style="fill: #e8e8e8; stroke: #e8e8e8; stroke-width: 1.2; stroke-linecap: round"/>
   </g>
   <g id="patch_69">
    <path d="M 110.57541 365.859295 
Q 72.763175 265.7158 35.479716 166.972738 
" clip-path="url(#pe511314fe8)" style="fill: none; stroke: #e8e8e8; stroke-width: 1.2; stroke-linecap: round"/>
    <path d="M 35.031263 175.69334 
L 35.479716 166.972738 
L 41.579995 173.220666 
z
" clip-path="url(#pe511314fe8)" style="fill: #e8e8e8; stroke: #e8e8e8; stroke-width: 1.2; stroke-linecap: round"/>
   </g>
   <g id="patch_70">
    <path d="M 122.459989 367.455335 
Q 177.126669 292.585681 230.910613 218.924991 
" clip-path="url(#pe511314fe8)" style="fill: none; stroke: #e8e8e8; stroke-width: 1.2; stroke-linecap: round"/>
    <path d="M 223.366363 223.322069 
L 230.910613 218.924991 
L 229.019746 227.449933 
z
" clip-path="url(#pe511314fe8)" style="fill: #e8e8e8; stroke: #e8e8e8; stroke-width: 1.2; stroke-linecap: round"/>
   </g>
   <g id="patch_71">
    <path d="M 122.366504 367.390569 
Q 222.097759 228.183368 320.957216 90.193043 
" clip-path="url(#pe511314fe8)" style="fill: none; stroke: #e8e8e8; stroke-width: 1.2; stroke-linecap: round"/>
    <path d="M 313.452923 94.657972 
L 320.957216 90.193043 
L 319.143299 98.734689 
z
" clip-path="url(#pe511314fe8)" style="fill: #e8e8e8; stroke: #e8e8e8; stroke-width: 1.2; stroke-linecap: round"/>
   </g>
   <g id="patch_72">
    <path d="M 199.628108 187.663655 
Q 206.245144 217.04114 212.533249 244.958276 
" clip-path="url(#pe511314fe8)" style="fill: none; stroke: #e8e8e8; stroke-width: 1.2; stroke-linecap: round"/>
    <path d="M 214.189813 236.384724 
L 212.533249 244.958276 
L 207.360898 237.92288 
z
" clip-path="url(#pe511314fe8)" style="fill: #e8e8e8; stroke: #e8e8e8; stroke-width: 1.2; stroke-linecap: round"/>
   </g>
   <g id="patch_73">
    <path d="M 190.575652 186.302433 
Q 181.581042 201.930611 173.333135 216.261387 
" clip-path="url(#pe511314fe8)" style="fill: none; stroke: #e8e8e8; stroke-width: 1.2; stroke-linecap: round"/>
    <path d="M 180.357174 211.073625 
L 173.333135 216.261387 
L 174.290241 207.581874 
z
" clip-path="url(#pe511314fe8)" style="fill: #e8e8e8; stroke: #e8e8e8; stroke-width: 1.2; stroke-linecap: round"/>
   </g>
   <g id="patch_74">
    <path d="M 209.483363 174.498351 
Q 275.738744 169.866336 340.500833 165.33872 
" clip-path="url(#pe511314fe8)" style="fill: none; stroke: #e8e8e8; stroke-width: 1.2; stroke-linecap: round"/>
    <path d="M 332.276218 162.405173 
L 340.500833 165.33872 
L 332.764407 169.388128 
z
" clip-path="url(#pe511314fe8)" style="fill: #e8e8e8; stroke: #e8e8e8; stroke-width: 1.2; stroke-linecap: round"/>
   </g>
   <g id="patch_75">
    <path d="M 148.90064 167.542244 
Q 201.134384 170.613488 251.873774 173.596867 
" clip-path="url(#pe511314fe8)" style="fill: none; stroke: #e8e8e8; stroke-width: 1.2; stroke-linecap: round"/>
    <path d="M 244.093006 169.633328 
L 251.873774 173.596867 
L 243.682129 176.621259 
z
" clip-path="url(#pe511314fe8)" style="fill: #e8e8e8; stroke: #e8e8e8; stroke-width: 1.2; stroke-linecap: round"/>
   </g>
   <g id="patch_76">
    <path d="M 135.008844 179.320366 
Q 125.64719 272.218776 116.435627 363.627794 
" clip-path="url(#pe511314fe8)" style="fill: none; stroke: #e8e8e8; stroke-width: 1.2; stroke-linecap: round"/>
    <path d="M 120.720111 356.019036 
L 116.435627 363.627794 
L 113.755386 355.31718 
z
" clip-path="url(#pe511314fe8)" style="fill: #e8e8e8; stroke: #e8e8e8; stroke-width: 1.2; stroke-linecap: round"/>
   </g>
   <g id="patch_77">
    <path d="M 129.165188 177.209144 
Q 104.266081 213.68668 80.210903 248.92785 
" clip-path="url(#pe511314fe8)" style="fill: none; stroke: #e8e8e8; stroke-width: 1.2; stroke-linecap: round"/>
    <path d="M 87.611827 244.293594 
L 80.210903 248.92785 
L 81.830306 240.347201 
z
" clip-path="url(#pe511314fe8)" style="fill: #e8e8e8; stroke: #e8e8e8; stroke-width: 1.2; stroke-linecap: round"/>
   </g>
   <g id="patch_78">
    <path d="M 146.554956 159.46794 
Q 170.642282 142.296176 193.5107 125.993366 
" clip-path="url(#pe511314fe8)" style="fill: none; stroke: #e8e8e8; stroke-width: 1.2; stroke-linecap: round"/>
    <path d="M 184.964844 127.787337 
L 193.5107 125.993366 
L 189.028265 133.487215 
z
" clip-path="url(#pe511314fe8)" style="fill: #e8e8e8; stroke: #e8e8e8; stroke-width: 1.2; stroke-linecap: round"/>
   </g>
   <g id="patch_79">
    <path d="M 141.784282 178.125404 
Q 151.285268 197.641591 160.131026 215.811861 
" clip-path="url(#pe511314fe8)" style="fill: none; stroke: #e8e8e8; stroke-width: 1.2; stroke-linecap: round"/>
    <path d="M 159.776229 207.086947 
L 160.131026 215.811861 
L 153.482424 210.150934 
z
" clip-path="url(#pe511314fe8)" style="fill: #e8e8e8; stroke: #e8e8e8; stroke-width: 1.2; stroke-linecap: round"/>
   </g>
   <g id="patch_80">
    <path d="M 228.26369 259.318433 
Q 254.306387 260.59341 278.853938 261.795189 
" clip-path="url(#pe511314fe8)" style="fill: none; stroke: #797979; stroke-width: 1.2; stroke-linecap: round"/>
    <path d="M 271.034654 257.908187 
L 278.853938 261.795189 
L 270.692363 264.899813 
z
" clip-path="url(#pe511314fe8)" style="fill: #797979; stroke: #797979; stroke-width: 1.2; stroke-linecap: round"/>
   </g>
   <g id="patch_81">
    <path d="M 295.417749 250.137772 
Q 311.078557 170.607793 326.450146 92.546544 
" clip-path="url(#pe511314fe8)" style="fill: none; stroke: #797979; stroke-width: 1.2; stroke-linecap: round"/>
    <path d="M 321.470439 99.719585 
L 326.450146 92.546544 
L 328.338546 101.072033 
z
" clip-path="url(#pe511314fe8)" style="fill: #797979; stroke: #797979; stroke-width: 1.2; stroke-linecap: round"/>
   </g>
   <g id="patch_82">
    <path d="M 372.941823 255.576137 
Q 300.610764 257.012385 229.776345 258.418916 
" clip-path="url(#pe511314fe8)" style="fill: none; stroke: #797979; stroke-width: 1.2; stroke-linecap: round"/>
    <path d="M 237.844253 261.759405 
L 229.776345 258.418916 
L 237.705284 254.760784 
z
" clip-path="url(#pe511314fe8)" style="fill: #797979; stroke: #797979; stroke-width: 1.2; stroke-linecap: round"/>
   </g>
   <g id="patch_83">
    <path d="M 377.819455 245.395015 
Q 295.375094 140.083132 213.85349 35.94995 
" clip-path="url(#pe511314fe8)" style="fill: none; stroke: #797979; stroke-width: 1.2; stroke-linecap: round"/>
    <path d="M 216.029002 44.406732 
L 213.85349 35.94995 
L 221.540867 40.091718 
z
" clip-path="url(#pe511314fe8)" style="fill: #797979; stroke: #797979; stroke-width: 1.2; stroke-linecap: round"/>
   </g>
   <g id="patch_84">
    <path d="M 209.496119 129.558043 
Q 222.119172 162.664679 234.208918 194.372601 
" clip-path="url(#pe511314fe8)" style="fill: none; stroke: #797979; stroke-width: 1.2; stroke-linecap: round"/>
    <path d="M 234.629132 185.650593 
L 234.208918 194.372601 
L 228.088441 188.144458 
z
" clip-path="url(#pe511314fe8)" style="fill: #797979; stroke: #797979; stroke-width: 1.2; stroke-linecap: round"/>
   </g>
   <g id="patch_85">
    <path d="M 244.90568 331.03315 
Q 242.355473 275.568046 239.87402 221.598298 
" clip-path="url(#pe511314fe8)" style="fill: none; stroke: #797979; stroke-width: 1.2; stroke-linecap: round"/>
    <path d="M 236.745154 229.75061 
L 239.87402 221.598298 
L 243.737767 229.4291 
z
" clip-path="url(#pe511314fe8)" style="fill: #797979; stroke: #797979; stroke-width: 1.2; stroke-linecap: round"/>
   </g>
   <g id="patch_86">
    <path d="M 254.891868 180.45023 
Q 216.150205 201.454842 178.724508 221.745974 
" clip-path="url(#pe511314fe8)" style="fill: none; stroke: #797979; stroke-width: 1.2; stroke-linecap: round"/>
    <path d="M 187.425548 221.009838 
L 178.724508 221.745974 
L 184.089166 214.856095 
z
" clip-path="url(#pe511314fe8)" style="fill: #797979; stroke: #797979; stroke-width: 1.2; stroke-linecap: round"/>
   </g>
   <g id="patch_87">
    <path d="M 239.805274 220.103131 
Q 242.355482 275.568236 244.836935 329.537984 
" clip-path="url(#pe511314fe8)" style="fill: none; stroke: #797979; stroke-width: 1.2; stroke-linecap: round"/>
    <path d="M 247.965801 321.385671 
L 244.836935 329.537984 
L 240.973188 321.707182 
z
" clip-path="url(#pe511314fe8)" style="fill: #797979; stroke: #797979; stroke-width: 1.2; stroke-linecap: round"/>
   </g>
   <g id="patch_88">
    <path d="M 246.446495 197.196268 
Q 284.200797 143.129044 321.098076 90.289147 
" clip-path="url(#pe511314fe8)" style="fill: none; stroke: #797979; stroke-width: 1.2; stroke-linecap: round"/>
    <path d="M 313.64831 94.844472 
L 321.098076 90.289147 
L 319.387555 98.852097 
z
" clip-path="url(#pe511314fe8)" style="fill: #797979; stroke: #797979; stroke-width: 1.2; stroke-linecap: round"/>
   </g>
   <g id="patch_89">
    <path d="M 162.207376 240.385943 
Q 140.662095 303.059513 119.603462 364.31746 
" clip-path="url(#pe511314fe8)" style="fill: none; stroke: #797979; stroke-width: 1.2; stroke-linecap: round"/>
    <path d="M 125.514117 357.889851 
L 119.603462 364.31746 
L 118.894351 355.614175 
z
" clip-path="url(#pe511314fe8)" style="fill: #797979; stroke: #797979; stroke-width: 1.2; stroke-linecap: round"/>
   </g>
   <g id="patch_90">
    <path d="M 176.459832 220.985165 
Q 186.470136 213.598596 195.275929 207.100831 
" clip-path="url(#pe511314fe8)" style="fill: none; stroke: #797979; stroke-width: 1.2; stroke-linecap: round"/>
    <path d="M 186.760605 209.034545 
L 195.275929 207.100831 
L 190.916847 214.667098 
z
" clip-path="url(#pe511314fe8)" style="fill: #797979; stroke: #797979; stroke-width: 1.2; stroke-linecap: round"/>
   </g>
   <g id="patch_91">
    <path d="M 168.658897 216.116766 
Q 185.728132 126.658949 202.516801 38.67154 
" clip-path="url(#pe511314fe8)" style="fill: none; stroke: #797979; stroke-width: 1.2; stroke-linecap: round"/>
    <path d="M 197.579416 45.873777 
L 202.516801 38.67154 
L 204.455367 47.185761 
z
" clip-path="url(#pe511314fe8)" style="fill: #797979; stroke: #797979; stroke-width: 1.2; stroke-linecap: round"/>
   </g>
   <g id="patch_92">
    <path d="M 196.48001 206.212344 
Q 186.469707 213.598912 177.663913 220.096677 
" clip-path="url(#pe511314fe8)" style="fill: none; stroke: #797979; stroke-width: 1.2; stroke-linecap: round"/>
    <path d="M 186.179238 218.162963 
L 177.663913 220.096677 
L 182.022996 212.53041 
z
" clip-path="url(#pe511314fe8)" style="fill: #797979; stroke: #797979; stroke-width: 1.2; stroke-linecap: round"/>
   </g>
   <g id="patch_93">
    <path d="M 42.183944 158.627736 
Q 161.7438 208.138522 279.920617 257.076578 
" clip-path="url(#pe511314fe8)" style="fill: none; stroke: #797979; stroke-width: 1.2; stroke-linecap: round"/>
    <path d="M 273.868409 250.782073 
L 279.920617 257.076578 
L 271.190204 257.24947 
z
" clip-path="url(#pe511314fe8)" style="fill: #797979; stroke: #797979; stroke-width: 1.2; stroke-linecap: round"/>
   </g>
   <g id="patch_94">
    <path d="M 216.749734 29.877764 
Q 267.164073 51.783977 316.205487 73.093621 
" clip-path="url(#pe511314fe8)" style="fill: none; stroke: #797979; stroke-width: 1.2; stroke-linecap: round"/>
    <path d="M 310.263073 66.695362 
L 316.205487 73.093621 
L 307.47339 73.115461 
z
" clip-path="url(#pe511314fe8)" style="fill: #797979; stroke: #797979; stroke-width: 1.2; stroke-linecap: round"/>
   </g>
   <g id="patch_95">
    <path d="M 342.047535 165.781078 
Q 310.308709 169.389722 280.057236 172.829256 
" clip-path="url(#pe511314fe8)" style="fill: none; stroke: #797979; stroke-width: 1.2; stroke-linecap: round"/>
    <path d="M 288.401419 175.403089 
L 280.057236 172.829256 
L 287.610627 168.4479 
z
" clip-path="url(#pe511314fe8)" style="fill: #797979; stroke: #797979; stroke-width: 1.2; stroke-linecap: round"/>
   </g>
   <g id="patch_96">
    <path d="M 184.317319 173.752751 
Q 113.681479 164.585456 44.530125 155.610821 
" clip-path="url(#pe511314fe8)" style="fill: none; stroke: #797979; stroke-width: 1.2; stroke-linecap: round"/>
    <path d="M 52.013129 160.111337 
L 44.530125 155.610821 
L 52.914051 153.169555 
z
" clip-path="url(#pe511314fe8)" style="fill: #797979; stroke: #797979; stroke-width: 1.2; stroke-linecap: round"/>
   </g>
   <g id="PathCollection_1">
    <defs>
     <path id="mb2f59e051f" d="M 0 12.942179 
C 3.432306 12.942179 6.724496 11.578509 9.151503 9.151503 
C 11.578509 6.724496 12.942179 3.432306 12.942179 0 
C 12.942179 -3.432306 11.578509 -6.724496 9.151503 -9.151503 
C 6.724496 -11.578509 3.432306 -12.942179 0 -12.942179 
C -3.432306 -12.942179 -6.724496 -11.578509 -9.151503 -9.151503 
C -11.578509 -6.724496 -12.942179 -3.432306 -12.942179 0 
C -12.942179 3.432306 -11.578509 6.724496 -9.151503 9.151503 
C -6.724496 11.578509 -3.432306 12.942179 0 12.942179 
z
" style="stroke: #f9ad44; stroke-width: 0.5"/>
    </defs>
    <g clip-path="url(#pe511314fe8)">
     <use xlink:href="#mb2f59e051f" x="215.628424" y="258.699845" style="fill: #f9ad44; stroke: #f9ad44; stroke-width: 0.5"/>
    </g>
   </g>
   <g id="PathCollection_2">
    <defs>
     <path id="m840a697251" d="M 0 14.053469 
C 3.727024 14.053469 7.3019 12.572707 9.937303 9.937303 
C 12.572707 7.3019 14.053469 3.727024 14.053469 0 
C 14.053469 -3.727024 12.572707 -7.3019 9.937303 -9.937303 
C 7.3019 -12.572707 3.727024 -14.053469 0 -14.053469 
C -3.727024 -14.053469 -7.3019 -12.572707 -9.937303 -9.937303 
C -12.572707 -7.3019 -14.053469 -3.727024 -14.053469 0 
C -14.053469 3.727024 -12.572707 7.3019 -9.937303 9.937303 
C -7.3019 12.572707 -3.727024 14.053469 0 14.053469 
z
" style="stroke: #f9b95f; stroke-width: 0.5"/>
    </defs>
    <g clip-path="url(#pe511314fe8)">
     <use xlink:href="#m840a697251" x="245.483563" y="343.601672" style="fill: #f9b95f; stroke: #f9b95f; stroke-width: 0.5"/>
    </g>
   </g>
   <g id="PathCollection_3">
    <defs>
     <path id="m705316cc6e" d="M 0 12.5499 
C 3.328272 12.5499 6.520676 11.227564 8.87412 8.87412 
C 11.227564 6.520676 12.5499 3.328272 12.5499 0 
C 12.5499 -3.328272 11.227564 -6.520676 8.87412 -8.87412 
C 6.520676 -11.227564 3.328272 -12.5499 0 -12.5499 
C -3.328272 -12.5499 -6.520676 -11.227564 -8.87412 -8.87412 
C -11.227564 -6.520676 -12.5499 -3.328272 -12.5499 0 
C -12.5499 3.328272 -11.227564 6.520676 -8.87412 8.87412 
C -6.520676 11.227564 -3.328272 12.5499 0 12.5499 
z
" style="stroke: #f9cc8a; stroke-width: 0.5"/>
    </defs>
    <g clip-path="url(#pe511314fe8)">
     <use xlink:href="#m705316cc6e" x="292.985965" y="262.487053" style="fill: #f9cc8a; stroke: #f9cc8a; stroke-width: 0.5"/>
    </g>
   </g>
   <g id="PathCollection_4">
    <defs>
     <path id="mcbab73e558" d="M 0 12.144958 
C 3.22088 12.144958 6.310276 10.865288 8.587782 8.587782 
C 10.865288 6.310276 12.144958 3.22088 12.144958 0 
C 12.144958 -3.22088 10.865288 -6.310276 8.587782 -8.587782 
C 6.310276 -10.865288 3.22088 -12.144958 0 -12.144958 
C -3.22088 -12.144958 -6.310276 -10.865288 -8.587782 -8.587782 
C -10.865288 -6.310276 -12.144958 -3.22088 -12.144958 0 
C -12.144958 3.22088 -10.865288 6.310276 -8.587782 8.587782 
C -6.310276 10.865288 -3.22088 12.144958 0 12.144958 
z
" style="stroke: #f9bd69; stroke-width: 0.5"/>
    </defs>
    <g clip-path="url(#pe511314fe8)">
     <use xlink:href="#mcbab73e558" x="30.502266" y="153.790251" style="fill: #f9bd69; stroke: #f9bd69; stroke-width: 0.5"/>
    </g>
   </g>
   <g id="PathCollection_5">
    <defs>
     <path id="m4f28dc6b2c" d="M 0 12.144958 
C 3.22088 12.144958 6.310276 10.865288 8.587782 8.587782 
C 10.865288 6.310276 12.144958 3.22088 12.144958 0 
C 12.144958 -3.22088 10.865288 -6.310276 8.587782 -8.587782 
C 6.310276 -10.865288 3.22088 -12.144958 0 -12.144958 
C -3.22088 -12.144958 -6.310276 -10.865288 -8.587782 -8.587782 
C -10.865288 -6.310276 -12.144958 -3.22088 -12.144958 0 
C -12.144958 3.22088 -10.865288 6.310276 -8.587782 8.587782 
C -6.310276 10.865288 -3.22088 12.144958 0 12.144958 
z
" style="stroke: #f9b556; stroke-width: 0.5"/>
    </defs>
    <g clip-path="url(#pe511314fe8)">
     <use xlink:href="#m4f28dc6b2c" x="266.000432" y="174.427488" style="fill: #f9b556; stroke: #f9b556; stroke-width: 0.5"/>
    </g>
   </g>
   <g id="PathCollection_6">
    <defs>
     <path id="m970b2ccae3" d="M 0 11.726039 
C 3.109782 11.726039 6.092614 10.49051 8.291562 8.291562 
C 10.49051 6.092614 11.726039 3.109782 11.726039 0 
C 11.726039 -3.109782 10.49051 -6.092614 8.291562 -8.291562 
C 6.092614 -10.49051 3.109782 -11.726039 0 -11.726039 
C -3.109782 -11.726039 -6.092614 -10.49051 -8.291562 -8.291562 
C -10.49051 -6.092614 -11.726039 -3.109782 -11.726039 0 
C -11.726039 3.109782 -10.49051 6.092614 -8.291562 8.291562 
C -6.092614 10.49051 -3.109782 11.726039 0 11.726039 
z
" style="stroke: #f9d094; stroke-width: 0.5"/>
    </defs>
    <g clip-path="url(#pe511314fe8)">
     <use xlink:href="#m970b2ccae3" x="115.023575" y="377.64" style="fill: #f9d094; stroke: #f9d094; stroke-width: 0.5"/>
    </g>
   </g>
   <g id="PathCollection_7">
    <defs>
     <path id="mbb198f0938" d="M 0 12.144958 
C 3.22088 12.144958 6.310276 10.865288 8.587782 8.587782 
C 10.865288 6.310276 12.144958 3.22088 12.144958 0 
C 12.144958 -3.22088 10.865288 -6.310276 8.587782 -8.587782 
C 6.310276 -10.865288 3.22088 -12.144958 0 -12.144958 
C -3.22088 -12.144958 -6.310276 -10.865288 -8.587782 -8.587782 
C -10.865288 -6.310276 -12.144958 -3.22088 -12.144958 0 
C -12.144958 3.22088 -10.865288 6.310276 -8.587782 8.587782 
C -6.310276 10.865288 -3.22088 12.144958 0 12.144958 
z
" style="stroke: #f9d093; stroke-width: 0.5"/>
    </defs>
    <g clip-path="url(#pe511314fe8)">
     <use xlink:href="#mbb198f0938" x="239.227391" y="207.53461" style="fill: #f9d093; stroke: #f9d093; stroke-width: 0.5"/>
    </g>
   </g>
   <g id="PathCollection_8">
    <defs>
     <path id="md174960581" d="M 0 14.40486 
C 3.820214 14.40486 7.484475 12.887073 10.185774 10.185774 
C 12.887073 7.484475 14.40486 3.820214 14.40486 0 
C 14.40486 -3.820214 12.887073 -7.484475 10.185774 -10.185774 
C 7.484475 -12.887073 3.820214 -14.40486 0 -14.40486 
C -3.820214 -14.40486 -7.484475 -12.887073 -10.185774 -10.185774 
C -12.887073 -7.484475 -14.40486 -3.820214 -14.40486 0 
C -14.40486 3.820214 -12.887073 7.484475 -10.185774 10.185774 
C -7.484475 12.887073 -3.820214 14.40486 0 14.40486 
z
" style="stroke: #f9c57b; stroke-width: 0.5"/>
    </defs>
    <g clip-path="url(#pe511314fe8)">
     <use xlink:href="#md174960581" x="329.171335" y="78.727586" style="fill: #f9c57b; stroke: #f9c57b; stroke-width: 0.5"/>
    </g>
   </g>
   <g id="PathCollection_9">
    <defs>
     <path id="m50a052d1a2" d="M 0 12.144958 
C 3.22088 12.144958 6.310276 10.865288 8.587782 8.587782 
C 10.865288 6.310276 12.144958 3.22088 12.144958 0 
C 12.144958 -3.22088 10.865288 -6.310276 8.587782 -8.587782 
C 6.310276 -10.865288 3.22088 -12.144958 0 -12.144958 
C -3.22088 -12.144958 -6.310276 -10.865288 -8.587782 -8.587782 
C -10.865288 -6.310276 -12.144958 -3.22088 -12.144958 0 
C -12.144958 3.22088 -10.865288 6.310276 -8.587782 8.587782 
C -6.310276 10.865288 -3.22088 12.144958 0 12.144958 
z
" style="stroke: #f9d196; stroke-width: 0.5"/>
    </defs>
    <g clip-path="url(#pe511314fe8)">
     <use xlink:href="#m50a052d1a2" x="385.593175" y="255.324924" style="fill: #f9d196; stroke: #f9d196; stroke-width: 0.5"/>
    </g>
   </g>
   <g id="PathCollection_10">
    <defs>
     <path id="m879f19b9f5" d="M 0 12.942179 
C 3.432306 12.942179 6.724496 11.578509 9.151503 9.151503 
C 11.578509 6.724496 12.942179 3.432306 12.942179 0 
C 12.942179 -3.432306 11.578509 -6.724496 9.151503 -9.151503 
C 6.724496 -11.578509 3.432306 -12.942179 0 -12.942179 
C -3.432306 -12.942179 -6.724496 -11.578509 -9.151503 -9.151503 
C -11.578509 -6.724496 -12.942179 -3.432306 -12.942179 0 
C -12.942179 3.432306 -11.578509 6.724496 -9.151503 9.151503 
C -6.724496 11.578509 -3.432306 12.942179 0 12.942179 
z
" style="stroke: #f9ab40; stroke-width: 0.5"/>
    </defs>
    <g clip-path="url(#pe511314fe8)">
     <use xlink:href="#m879f19b9f5" x="72.261068" y="260.574468" style="fill: #f9ab40; stroke: #f9ab40; stroke-width: 0.5"/>
    </g>
   </g>
   <g id="PathCollection_11">
    <defs>
     <path id="mbe717bccf7" d="M 0 12.144958 
C 3.22088 12.144958 6.310276 10.865288 8.587782 8.587782 
C 10.865288 6.310276 12.144958 3.22088 12.144958 0 
C 12.144958 -3.22088 10.865288 -6.310276 8.587782 -8.587782 
C 6.310276 -10.865288 3.22088 -12.144958 0 -12.144958 
C -3.22088 -12.144958 -6.310276 -10.865288 -8.587782 -8.587782 
C -10.865288 -6.310276 -12.144958 -3.22088 -12.144958 0 
C -12.144958 3.22088 -10.865288 6.310276 -8.587782 8.587782 
C -6.310276 10.865288 -3.22088 12.144958 0 12.144958 
z
" style="stroke: #f9c881; stroke-width: 0.5"/>
    </defs>
    <g clip-path="url(#pe511314fe8)">
     <use xlink:href="#mbe717bccf7" x="196.861488" y="175.380765" style="fill: #f9c881; stroke: #f9c881; stroke-width: 0.5"/>
    </g>
   </g>
   <g id="PathCollection_12">
    <defs>
     <path id="m629e8b4dea" d="M 0 10.839742 
C 2.874733 10.839742 5.632112 9.697598 7.664855 7.664855 
C 9.697598 5.632112 10.839742 2.874733 10.839742 0 
C 10.839742 -2.874733 9.697598 -5.632112 7.664855 -7.664855 
C 5.632112 -9.697598 2.874733 -10.839742 0 -10.839742 
C -2.874733 -10.839742 -5.632112 -9.697598 -7.664855 -7.664855 
C -9.697598 -5.632112 -10.839742 -2.874733 -10.839742 0 
C -10.839742 2.874733 -9.697598 5.632112 -7.664855 7.664855 
C -5.632112 9.697598 -2.874733 10.839742 0 10.839742 
z
" style="stroke: #f9be6b; stroke-width: 0.5"/>
    </defs>
    <g clip-path="url(#pe511314fe8)">
     <use xlink:href="#m629e8b4dea" x="205.010993" y="117.79485" style="fill: #f9be6b; stroke: #f9be6b; stroke-width: 0.5"/>
    </g>
   </g>
   <g id="PathCollection_13">
    <defs>
     <path id="m4778cc5e2e" d="M 0 13.322913 
C 3.533278 13.322913 6.922317 11.919126 9.420722 9.420722 
C 11.919126 6.922317 13.322913 3.533278 13.322913 0 
C 13.322913 -3.533278 11.919126 -6.922317 9.420722 -9.420722 
C 6.922317 -11.919126 3.533278 -13.322913 0 -13.322913 
C -3.533278 -13.322913 -6.922317 -11.919126 -9.420722 -9.420722 
C -11.919126 -6.922317 -13.322913 -3.533278 -13.322913 0 
C -13.322913 3.533278 -11.919126 6.922317 -9.420722 9.420722 
C -6.922317 11.919126 -3.533278 13.322913 0 13.322913 
z
" style="stroke: #f9c478; stroke-width: 0.5"/>
    </defs>
    <g clip-path="url(#pe511314fe8)">
     <use xlink:href="#m4778cc5e2e" x="206.640422" y="198.715011" style="fill: #f9c478; stroke: #f9c478; stroke-width: 0.5"/>
    </g>
   </g>
   <g id="PathCollection_14">
    <defs>
     <path id="md9f25d280f" d="M 0 10.839742 
C 2.874733 10.839742 5.632112 9.697598 7.664855 7.664855 
C 9.697598 5.632112 10.839742 2.874733 10.839742 0 
C 10.839742 -2.874733 9.697598 -5.632112 7.664855 -7.664855 
C 5.632112 -9.697598 2.874733 -10.839742 0 -10.839742 
C -2.874733 -10.839742 -5.632112 -9.697598 -7.664855 -7.664855 
C -9.697598 -5.632112 -10.839742 -2.874733 -10.839742 0 
C -10.839742 2.874733 -9.697598 5.632112 -7.664855 7.664855 
C -5.632112 9.697598 -2.874733 10.839742 0 10.839742 
z
" style="stroke: #f9ca85; stroke-width: 0.5"/>
    </defs>
    <g clip-path="url(#pe511314fe8)">
     <use xlink:href="#md9f25d280f" x="63.11926" y="59.155202" style="fill: #f9ca85; stroke: #f9ca85; stroke-width: 0.5"/>
    </g>
   </g>
   <g id="PathCollection_15">
    <defs>
     <path id="mcbb09651f8" d="M 0 15.083103 
C 4.000086 15.083103 7.836877 13.493852 10.665365 10.665365 
C 13.493852 7.836877 15.083103 4.000086 15.083103 0 
C 15.083103 -4.000086 13.493852 -7.836877 10.665365 -10.665365 
C 7.836877 -13.493852 4.000086 -15.083103 0 -15.083103 
C -4.000086 -15.083103 -7.836877 -13.493852 -10.665365 -10.665365 
C -13.493852 -7.836877 -15.083103 -4.000086 -15.083103 0 
C -15.083103 4.000086 -13.493852 7.836877 -10.665365 10.665365 
C -7.836877 13.493852 -4.000086 15.083103 0 15.083103 
z
" style="stroke: #f9a22b; stroke-width: 0.5"/>
    </defs>
    <g clip-path="url(#pe511314fe8)">
     <use xlink:href="#mcbb09651f8" x="166.299421" y="228.482498" style="fill: #f9a22b; stroke: #f9a22b; stroke-width: 0.5"/>
    </g>
   </g>
   <g id="PathCollection_16">
    <defs>
     <path id="mf23c205384" d="M 0 11.29159 
C 2.994565 11.29159 5.866883 10.101837 7.98436 7.98436 
C 10.101837 5.866883 11.29159 2.994565 11.29159 0 
C 11.29159 -2.994565 10.101837 -5.866883 7.98436 -7.98436 
C 5.866883 -10.101837 2.994565 -11.29159 0 -11.29159 
C -2.994565 -11.29159 -5.866883 -10.101837 -7.98436 -7.98436 
C -10.101837 -5.866883 -11.29159 -2.994565 -11.29159 0 
C -11.29159 2.994565 -10.101837 5.866883 -7.98436 7.98436 
C -5.866883 10.101837 -2.994565 11.29159 0 11.29159 
z
" style="stroke: #f9ce90; stroke-width: 0.5"/>
    </defs>
    <g clip-path="url(#pe511314fe8)">
     <use xlink:href="#mf23c205384" x="136.270597" y="166.799621" style="fill: #f9ce90; stroke: #f9ce90; stroke-width: 0.5"/>
    </g>
   </g>
   <g id="PathCollection_17">
    <defs>
     <path id="m19d08e6f47" d="M 0 11.726039 
C 3.109782 11.726039 6.092614 10.49051 8.291562 8.291562 
C 10.49051 6.092614 11.726039 3.109782 11.726039 0 
C 11.726039 -3.109782 10.49051 -6.092614 8.291562 -8.291562 
C 6.092614 -10.49051 3.109782 -11.726039 0 -11.726039 
C -3.109782 -11.726039 -6.092614 -10.49051 -8.291562 -8.291562 
C -10.49051 -6.092614 -11.726039 -3.109782 -11.726039 0 
C -11.726039 3.109782 -10.49051 6.092614 -8.291562 8.291562 
C -6.092614 10.49051 -3.109782 11.726039 0 11.726039 
z
" style="stroke: #f9c983; stroke-width: 0.5"/>
    </defs>
    <g clip-path="url(#pe511314fe8)">
     <use xlink:href="#m19d08e6f47" x="354.61967" y="164.351651" style="fill: #f9c983; stroke: #f9c983; stroke-width: 0.5"/>
    </g>
   </g>
   <g id="PathCollection_18">
    <defs>
     <path id="m7fec64e358" d="M 0 14.053469 
C 3.727024 14.053469 7.3019 12.572707 9.937303 9.937303 
C 12.572707 7.3019 14.053469 3.727024 14.053469 0 
C 14.053469 -3.727024 12.572707 -7.3019 9.937303 -9.937303 
C 7.3019 -12.572707 3.727024 -14.053469 0 -14.053469 
C -3.727024 -14.053469 -7.3019 -12.572707 -9.937303 -9.937303 
C -12.572707 -7.3019 -14.053469 -3.727024 -14.053469 0 
C -14.053469 3.727024 -12.572707 7.3019 -9.937303 9.937303 
C -7.3019 12.572707 -3.727024 14.053469 0 14.053469 
z
" style="stroke: #f9aa3c; stroke-width: 0.5"/>
    </defs>
    <g clip-path="url(#pe511314fe8)">
     <use xlink:href="#m7fec64e358" x="205.155965" y="24.84" style="fill: #f9aa3c; stroke: #f9aa3c; stroke-width: 0.5"/>
    </g>
   </g>
   <g id="PathCollection_19">
    <defs>
     <path id="m57fd5b803c" d="M 0 -8.803408 
L -1.976488 -2.720403 
L -8.372539 -2.720403 
L -3.198025 1.039101 
L -5.174514 7.122107 
L -0 3.362603 
L 5.174514 7.122107 
L 3.198025 1.039101 
L 8.372539 -2.720403 
L 1.976488 -2.720403 
z
" style="stroke: #f9dfb6; stroke-width: 0.8"/>
    </defs>
    <g clip-path="url(#pe511314fe8)">
     <use xlink:href="#m57fd5b803c" x="316.381388" y="360.218792" style="fill: #f9dfb6; stroke: #f9dfb6; stroke-width: 0.8"/>
    </g>
   </g>
   <g id="text_1">
    <!-- Deek arovnik -->
    <g transform="translate(181.010065 258.360883) scale(0.09 -0.09)">
     <defs>
      <path id="DejaVuSans-44" d="M 1259 4147 
L 1259 519 
L 2022 519 
Q 2988 519 3436 956 
Q 3884 1394 3884 2338 
Q 3884 3275 3436 3711 
Q 2988 4147 2022 4147 
L 1259 4147 
z
M 628 4666 
L 1925 4666 
Q 3281 4666 3915 4102 
Q 4550 3538 4550 2338 
Q 4550 1131 3912 565 
Q 3275 0 1925 0 
L 628 0 
L 628 4666 
z
" transform="scale(0.015625)"/>
      <path id="DejaVuSans-65" d="M 3597 1894 
L 3597 1613 
L 953 1613 
Q 991 1019 1311 708 
Q 1631 397 2203 397 
Q 2534 397 2845 478 
Q 3156 559 3463 722 
L 3463 178 
Q 3153 47 2828 -22 
Q 2503 -91 2169 -91 
Q 1331 -91 842 396 
Q 353 884 353 1716 
Q 353 2575 817 3079 
Q 1281 3584 2069 3584 
Q 2775 3584 3186 3129 
Q 3597 2675 3597 1894 
z
M 3022 2063 
Q 3016 2534 2758 2815 
Q 2500 3097 2075 3097 
Q 1594 3097 1305 2825 
Q 1016 2553 972 2059 
L 3022 2063 
z
" transform="scale(0.015625)"/>
      <path id="DejaVuSans-10d" d="M 3122 3366 
L 3122 2828 
Q 2878 2963 2633 3030 
Q 2388 3097 2138 3097 
Q 1578 3097 1268 2742 
Q 959 2388 959 1747 
Q 959 1106 1268 751 
Q 1578 397 2138 397 
Q 2388 397 2633 464 
Q 2878 531 3122 666 
L 3122 134 
Q 2881 22 2623 -34 
Q 2366 -91 2075 -91 
Q 1284 -91 818 406 
Q 353 903 353 1747 
Q 353 2603 823 3093 
Q 1294 3584 2113 3584 
Q 2378 3584 2631 3529 
Q 2884 3475 3122 3366 
z
M 1801 3944 
L 1035 5119 
L 1470 5119 
L 2032 4353 
L 2595 5119 
L 3029 5119 
L 2263 3944 
L 1801 3944 
z
" transform="scale(0.015625)"/>
      <path id="DejaVuSans-6b" d="M 581 4863 
L 1159 4863 
L 1159 1991 
L 2875 3500 
L 3609 3500 
L 1753 1863 
L 3688 0 
L 2938 0 
L 1159 1709 
L 1159 0 
L 581 0 
L 581 4863 
z
" transform="scale(0.015625)"/>
      <path id="DejaVuSans-20" transform="scale(0.015625)"/>
      <path id="DejaVuSans-61" d="M 2194 1759 
Q 1497 1759 1228 1600 
Q 959 1441 959 1056 
Q 959 750 1161 570 
Q 1363 391 1709 391 
Q 2188 391 2477 730 
Q 2766 1069 2766 1631 
L 2766 1759 
L 2194 1759 
z
M 3341 1997 
L 3341 0 
L 2766 0 
L 2766 531 
Q 2569 213 2275 61 
Q 1981 -91 1556 -91 
Q 1019 -91 701 211 
Q 384 513 384 1019 
Q 384 1609 779 1909 
Q 1175 2209 1959 2209 
L 2766 2209 
L 2766 2266 
Q 2766 2663 2505 2880 
Q 2244 3097 1772 3097 
Q 1472 3097 1187 3025 
Q 903 2953 641 2809 
L 641 3341 
Q 956 3463 1253 3523 
Q 1550 3584 1831 3584 
Q 2591 3584 2966 3190 
Q 3341 2797 3341 1997 
z
" transform="scale(0.015625)"/>
      <path id="DejaVuSans-72" d="M 2631 2963 
Q 2534 3019 2420 3045 
Q 2306 3072 2169 3072 
Q 1681 3072 1420 2755 
Q 1159 2438 1159 1844 
L 1159 0 
L 581 0 
L 581 3500 
L 1159 3500 
L 1159 2956 
Q 1341 3275 1631 3429 
Q 1922 3584 2338 3584 
Q 2397 3584 2469 3576 
Q 2541 3569 2628 3553 
L 2631 2963 
z
" transform="scale(0.015625)"/>
      <path id="DejaVuSans-6f" d="M 1959 3097 
Q 1497 3097 1228 2736 
Q 959 2375 959 1747 
Q 959 1119 1226 758 
Q 1494 397 1959 397 
Q 2419 397 2687 759 
Q 2956 1122 2956 1747 
Q 2956 2369 2687 2733 
Q 2419 3097 1959 3097 
z
M 1959 3584 
Q 2709 3584 3137 3096 
Q 3566 2609 3566 1747 
Q 3566 888 3137 398 
Q 2709 -91 1959 -91 
Q 1206 -91 779 398 
Q 353 888 353 1747 
Q 353 2609 779 3096 
Q 1206 3584 1959 3584 
z
" transform="scale(0.015625)"/>
      <path id="DejaVuSans-76" d="M 191 3500 
L 800 3500 
L 1894 563 
L 2988 3500 
L 3597 3500 
L 2284 0 
L 1503 0 
L 191 3500 
z
" transform="scale(0.015625)"/>
      <path id="DejaVuSans-6e" d="M 3513 2113 
L 3513 0 
L 2938 0 
L 2938 2094 
Q 2938 2591 2744 2837 
Q 2550 3084 2163 3084 
Q 1697 3084 1428 2787 
Q 1159 2491 1159 1978 
L 1159 0 
L 581 0 
L 581 3500 
L 1159 3500 
L 1159 2956 
Q 1366 3272 1645 3428 
Q 1925 3584 2291 3584 
Q 2894 3584 3203 3211 
Q 3513 2838 3513 2113 
z
" transform="scale(0.015625)"/>
      <path id="DejaVuSans-69" d="M 603 3500 
L 1178 3500 
L 1178 0 
L 603 0 
L 603 3500 
z
M 603 4863 
L 1178 4863 
L 1178 4134 
L 603 4134 
L 603 4863 
z
" transform="scale(0.015625)"/>
     </defs>
     <use xlink:href="#DejaVuSans-44"/>
     <use xlink:href="#DejaVuSans-65" transform="translate(77.001953 0)"/>
     <use xlink:href="#DejaVuSans-10d" transform="translate(138.525391 0)"/>
     <use xlink:href="#DejaVuSans-65" transform="translate(193.505859 0)"/>
     <use xlink:href="#DejaVuSans-6b" transform="translate(255.029297 0)"/>
     <use xlink:href="#DejaVuSans-20" transform="translate(312.939453 0)"/>
     <use xlink:href="#DejaVuSans-10d" transform="translate(344.726562 0)"/>
     <use xlink:href="#DejaVuSans-61" transform="translate(399.707031 0)"/>
     <use xlink:href="#DejaVuSans-72" transform="translate(460.986328 0)"/>
     <use xlink:href="#DejaVuSans-6f" transform="translate(499.849609 0)"/>
     <use xlink:href="#DejaVuSans-76" transform="translate(561.03125 0)"/>
     <use xlink:href="#DejaVuSans-6e" transform="translate(620.210938 0)"/>
     <use xlink:href="#DejaVuSans-69" transform="translate(683.589844 0)"/>
     <use xlink:href="#DejaVuSans-6b" transform="translate(711.373047 0)"/>
    </g>
   </g>
   <g id="text_2">
    <!-- Pametna arovnica -->
    <g transform="translate(202.527548 343.262709) scale(0.09 -0.09)">
     <defs>
      <path id="DejaVuSans-50" d="M 1259 4147 
L 1259 2394 
L 2053 2394 
Q 2494 2394 2734 2622 
Q 2975 2850 2975 3272 
Q 2975 3691 2734 3919 
Q 2494 4147 2053 4147 
L 1259 4147 
z
M 628 4666 
L 2053 4666 
Q 2838 4666 3239 4311 
Q 3641 3956 3641 3272 
Q 3641 2581 3239 2228 
Q 2838 1875 2053 1875 
L 1259 1875 
L 1259 0 
L 628 0 
L 628 4666 
z
" transform="scale(0.015625)"/>
      <path id="DejaVuSans-6d" d="M 3328 2828 
Q 3544 3216 3844 3400 
Q 4144 3584 4550 3584 
Q 5097 3584 5394 3201 
Q 5691 2819 5691 2113 
L 5691 0 
L 5113 0 
L 5113 2094 
Q 5113 2597 4934 2840 
Q 4756 3084 4391 3084 
Q 3944 3084 3684 2787 
Q 3425 2491 3425 1978 
L 3425 0 
L 2847 0 
L 2847 2094 
Q 2847 2600 2669 2842 
Q 2491 3084 2119 3084 
Q 1678 3084 1418 2786 
Q 1159 2488 1159 1978 
L 1159 0 
L 581 0 
L 581 3500 
L 1159 3500 
L 1159 2956 
Q 1356 3278 1631 3431 
Q 1906 3584 2284 3584 
Q 2666 3584 2933 3390 
Q 3200 3197 3328 2828 
z
" transform="scale(0.015625)"/>
      <path id="DejaVuSans-74" d="M 1172 4494 
L 1172 3500 
L 2356 3500 
L 2356 3053 
L 1172 3053 
L 1172 1153 
Q 1172 725 1289 603 
Q 1406 481 1766 481 
L 2356 481 
L 2356 0 
L 1766 0 
Q 1100 0 847 248 
Q 594 497 594 1153 
L 594 3053 
L 172 3053 
L 172 3500 
L 594 3500 
L 594 4494 
L 1172 4494 
z
" transform="scale(0.015625)"/>
      <path id="DejaVuSans-63" d="M 3122 3366 
L 3122 2828 
Q 2878 2963 2633 3030 
Q 2388 3097 2138 3097 
Q 1578 3097 1268 2742 
Q 959 2388 959 1747 
Q 959 1106 1268 751 
Q 1578 397 2138 397 
Q 2388 397 2633 464 
Q 2878 531 3122 666 
L 3122 134 
Q 2881 22 2623 -34 
Q 2366 -91 2075 -91 
Q 1284 -91 818 406 
Q 353 903 353 1747 
Q 353 2603 823 3093 
Q 1294 3584 2113 3584 
Q 2378 3584 2631 3529 
Q 2884 3475 3122 3366 
z
" transform="scale(0.015625)"/>
     </defs>
     <use xlink:href="#DejaVuSans-50"/>
     <use xlink:href="#DejaVuSans-61" transform="translate(55.802734 0)"/>
     <use xlink:href="#DejaVuSans-6d" transform="translate(117.082031 0)"/>
     <use xlink:href="#DejaVuSans-65" transform="translate(214.494141 0)"/>
     <use xlink:href="#DejaVuSans-74" transform="translate(276.017578 0)"/>
     <use xlink:href="#DejaVuSans-6e" transform="translate(315.226562 0)"/>
     <use xlink:href="#DejaVuSans-61" transform="translate(378.605469 0)"/>
     <use xlink:href="#DejaVuSans-20" transform="translate(439.884766 0)"/>
     <use xlink:href="#DejaVuSans-10d" transform="translate(471.671875 0)"/>
     <use xlink:href="#DejaVuSans-61" transform="translate(526.652344 0)"/>
     <use xlink:href="#DejaVuSans-72" transform="translate(587.931641 0)"/>
     <use xlink:href="#DejaVuSans-6f" transform="translate(626.794922 0)"/>
     <use xlink:href="#DejaVuSans-76" transform="translate(687.976562 0)"/>
     <use xlink:href="#DejaVuSans-6e" transform="translate(747.15625 0)"/>
     <use xlink:href="#DejaVuSans-69" transform="translate(810.535156 0)"/>
     <use xlink:href="#DejaVuSans-63" transform="translate(838.318359 0)"/>
     <use xlink:href="#DejaVuSans-61" transform="translate(893.298828 0)"/>
    </g>
   </g>
   <g id="text_3">
    <!-- Modri ravnatelj -->
    <g transform="translate(259.048934 262.148091) scale(0.09 -0.09)">
     <defs>
      <path id="DejaVuSans-4d" d="M 628 4666 
L 1569 4666 
L 2759 1491 
L 3956 4666 
L 4897 4666 
L 4897 0 
L 4281 0 
L 4281 4097 
L 3078 897 
L 2444 897 
L 1241 4097 
L 1241 0 
L 628 0 
L 628 4666 
z
" transform="scale(0.015625)"/>
      <path id="DejaVuSans-64" d="M 2906 2969 
L 2906 4863 
L 3481 4863 
L 3481 0 
L 2906 0 
L 2906 525 
Q 2725 213 2448 61 
Q 2172 -91 1784 -91 
Q 1150 -91 751 415 
Q 353 922 353 1747 
Q 353 2572 751 3078 
Q 1150 3584 1784 3584 
Q 2172 3584 2448 3432 
Q 2725 3281 2906 2969 
z
M 947 1747 
Q 947 1113 1208 752 
Q 1469 391 1925 391 
Q 2381 391 2643 752 
Q 2906 1113 2906 1747 
Q 2906 2381 2643 2742 
Q 2381 3103 1925 3103 
Q 1469 3103 1208 2742 
Q 947 2381 947 1747 
z
" transform="scale(0.015625)"/>
      <path id="DejaVuSans-6c" d="M 603 4863 
L 1178 4863 
L 1178 0 
L 603 0 
L 603 4863 
z
" transform="scale(0.015625)"/>
      <path id="DejaVuSans-6a" d="M 603 3500 
L 1178 3500 
L 1178 -63 
Q 1178 -731 923 -1031 
Q 669 -1331 103 -1331 
L -116 -1331 
L -116 -844 
L 38 -844 
Q 366 -844 484 -692 
Q 603 -541 603 -63 
L 603 3500 
z
M 603 4863 
L 1178 4863 
L 1178 4134 
L 603 4134 
L 603 4863 
z
" transform="scale(0.015625)"/>
     </defs>
     <use xlink:href="#DejaVuSans-4d"/>
     <use xlink:href="#DejaVuSans-6f" transform="translate(86.279297 0)"/>
     <use xlink:href="#DejaVuSans-64" transform="translate(147.460938 0)"/>
     <use xlink:href="#DejaVuSans-72" transform="translate(210.9375 0)"/>
     <use xlink:href="#DejaVuSans-69" transform="translate(252.050781 0)"/>
     <use xlink:href="#DejaVuSans-20" transform="translate(279.833984 0)"/>
     <use xlink:href="#DejaVuSans-72" transform="translate(311.621094 0)"/>
     <use xlink:href="#DejaVuSans-61" transform="translate(352.734375 0)"/>
     <use xlink:href="#DejaVuSans-76" transform="translate(414.013672 0)"/>
     <use xlink:href="#DejaVuSans-6e" transform="translate(473.193359 0)"/>
     <use xlink:href="#DejaVuSans-61" transform="translate(536.572266 0)"/>
     <use xlink:href="#DejaVuSans-74" transform="translate(597.851562 0)"/>
     <use xlink:href="#DejaVuSans-65" transform="translate(637.060547 0)"/>
     <use xlink:href="#DejaVuSans-6c" transform="translate(698.583984 0)"/>
     <use xlink:href="#DejaVuSans-6a" transform="translate(726.367188 0)"/>
    </g>
   </g>
   <g id="text_4">
    <!-- Mladi pilot -->
    <g transform="translate(7.2 153.451288) scale(0.09 -0.09)">
     <defs>
      <path id="DejaVuSans-70" d="M 1159 525 
L 1159 -1331 
L 581 -1331 
L 581 3500 
L 1159 3500 
L 1159 2969 
Q 1341 3281 1617 3432 
Q 1894 3584 2278 3584 
Q 2916 3584 3314 3078 
Q 3713 2572 3713 1747 
Q 3713 922 3314 415 
Q 2916 -91 2278 -91 
Q 1894 -91 1617 61 
Q 1341 213 1159 525 
z
M 3116 1747 
Q 3116 2381 2855 2742 
Q 2594 3103 2138 3103 
Q 1681 3103 1420 2742 
Q 1159 2381 1159 1747 
Q 1159 1113 1420 752 
Q 1681 391 2138 391 
Q 2594 391 2855 752 
Q 3116 1113 3116 1747 
z
" transform="scale(0.015625)"/>
     </defs>
     <use xlink:href="#DejaVuSans-4d"/>
     <use xlink:href="#DejaVuSans-6c" transform="translate(86.279297 0)"/>
     <use xlink:href="#DejaVuSans-61" transform="translate(114.0625 0)"/>
     <use xlink:href="#DejaVuSans-64" transform="translate(175.341797 0)"/>
     <use xlink:href="#DejaVuSans-69" transform="translate(238.818359 0)"/>
     <use xlink:href="#DejaVuSans-20" transform="translate(266.601562 0)"/>
     <use xlink:href="#DejaVuSans-70" transform="translate(298.388672 0)"/>
     <use xlink:href="#DejaVuSans-69" transform="translate(361.865234 0)"/>
     <use xlink:href="#DejaVuSans-6c" transform="translate(389.648438 0)"/>
     <use xlink:href="#DejaVuSans-6f" transform="translate(417.431641 0)"/>
     <use xlink:href="#DejaVuSans-74" transform="translate(478.613281 0)"/>
    </g>
   </g>
   <g id="text_5">
    <!-- Tihotapec -->
    <g transform="translate(243.915275 174.088525) scale(0.09 -0.09)">
     <defs>
      <path id="DejaVuSans-54" d="M -19 4666 
L 3928 4666 
L 3928 4134 
L 2272 4134 
L 2272 0 
L 1638 0 
L 1638 4134 
L -19 4134 
L -19 4666 
z
" transform="scale(0.015625)"/>
      <path id="DejaVuSans-68" d="M 3513 2113 
L 3513 0 
L 2938 0 
L 2938 2094 
Q 2938 2591 2744 2837 
Q 2550 3084 2163 3084 
Q 1697 3084 1428 2787 
Q 1159 2491 1159 1978 
L 1159 0 
L 581 0 
L 581 4863 
L 1159 4863 
L 1159 2956 
Q 1366 3272 1645 3428 
Q 1925 3584 2291 3584 
Q 2894 3584 3203 3211 
Q 3513 2838 3513 2113 
z
" transform="scale(0.015625)"/>
     </defs>
     <use xlink:href="#DejaVuSans-54"/>
     <use xlink:href="#DejaVuSans-69" transform="translate(57.958984 0)"/>
     <use xlink:href="#DejaVuSans-68" transform="translate(85.742188 0)"/>
     <use xlink:href="#DejaVuSans-6f" transform="translate(149.121094 0)"/>
     <use xlink:href="#DejaVuSans-74" transform="translate(210.302734 0)"/>
     <use xlink:href="#DejaVuSans-61" transform="translate(249.511719 0)"/>
     <use xlink:href="#DejaVuSans-70" transform="translate(310.791016 0)"/>
     <use xlink:href="#DejaVuSans-65" transform="translate(374.267578 0)"/>
     <use xlink:href="#DejaVuSans-63" transform="translate(435.791016 0)"/>
    </g>
   </g>
   <g id="text_6">
    <!-- Zeleni mojster -->
    <g transform="translate(82.506856 377.301037) scale(0.09 -0.09)">
     <defs>
      <path id="DejaVuSans-5a" d="M 359 4666 
L 4025 4666 
L 4025 4184 
L 1075 531 
L 4097 531 
L 4097 0 
L 288 0 
L 288 481 
L 3238 4134 
L 359 4134 
L 359 4666 
z
" transform="scale(0.015625)"/>
      <path id="DejaVuSans-73" d="M 2834 3397 
L 2834 2853 
Q 2591 2978 2328 3040 
Q 2066 3103 1784 3103 
Q 1356 3103 1142 2972 
Q 928 2841 928 2578 
Q 928 2378 1081 2264 
Q 1234 2150 1697 2047 
L 1894 2003 
Q 2506 1872 2764 1633 
Q 3022 1394 3022 966 
Q 3022 478 2636 193 
Q 2250 -91 1575 -91 
Q 1294 -91 989 -36 
Q 684 19 347 128 
L 347 722 
Q 666 556 975 473 
Q 1284 391 1588 391 
Q 1994 391 2212 530 
Q 2431 669 2431 922 
Q 2431 1156 2273 1281 
Q 2116 1406 1581 1522 
L 1381 1569 
Q 847 1681 609 1914 
Q 372 2147 372 2553 
Q 372 3047 722 3315 
Q 1072 3584 1716 3584 
Q 2034 3584 2315 3537 
Q 2597 3491 2834 3397 
z
" transform="scale(0.015625)"/>
     </defs>
     <use xlink:href="#DejaVuSans-5a"/>
     <use xlink:href="#DejaVuSans-65" transform="translate(68.505859 0)"/>
     <use xlink:href="#DejaVuSans-6c" transform="translate(130.029297 0)"/>
     <use xlink:href="#DejaVuSans-65" transform="translate(157.8125 0)"/>
     <use xlink:href="#DejaVuSans-6e" transform="translate(219.335938 0)"/>
     <use xlink:href="#DejaVuSans-69" transform="translate(282.714844 0)"/>
     <use xlink:href="#DejaVuSans-20" transform="translate(310.498047 0)"/>
     <use xlink:href="#DejaVuSans-6d" transform="translate(342.285156 0)"/>
     <use xlink:href="#DejaVuSans-6f" transform="translate(439.697266 0)"/>
     <use xlink:href="#DejaVuSans-6a" transform="translate(500.878906 0)"/>
     <use xlink:href="#DejaVuSans-73" transform="translate(528.662109 0)"/>
     <use xlink:href="#DejaVuSans-74" transform="translate(580.761719 0)"/>
     <use xlink:href="#DejaVuSans-65" transform="translate(619.970703 0)"/>
     <use xlink:href="#DejaVuSans-72" transform="translate(681.494141 0)"/>
    </g>
   </g>
   <g id="text_7">
    <!-- Nosilec prstana -->
    <g transform="translate(204.407235 207.195647) scale(0.09 -0.09)">
     <defs>
      <path id="DejaVuSans-4e" d="M 628 4666 
L 1478 4666 
L 3547 763 
L 3547 4666 
L 4159 4666 
L 4159 0 
L 3309 0 
L 1241 3903 
L 1241 0 
L 628 0 
L 628 4666 
z
" transform="scale(0.015625)"/>
     </defs>
     <use xlink:href="#DejaVuSans-4e"/>
     <use xlink:href="#DejaVuSans-6f" transform="translate(74.804688 0)"/>
     <use xlink:href="#DejaVuSans-73" transform="translate(135.986328 0)"/>
     <use xlink:href="#DejaVuSans-69" transform="translate(188.085938 0)"/>
     <use xlink:href="#DejaVuSans-6c" transform="translate(215.869141 0)"/>
     <use xlink:href="#DejaVuSans-65" transform="translate(243.652344 0)"/>
     <use xlink:href="#DejaVuSans-63" transform="translate(305.175781 0)"/>
     <use xlink:href="#DejaVuSans-20" transform="translate(360.15625 0)"/>
     <use xlink:href="#DejaVuSans-70" transform="translate(391.943359 0)"/>
     <use xlink:href="#DejaVuSans-72" transform="translate(455.419922 0)"/>
     <use xlink:href="#DejaVuSans-73" transform="translate(496.533203 0)"/>
     <use xlink:href="#DejaVuSans-74" transform="translate(548.632812 0)"/>
     <use xlink:href="#DejaVuSans-61" transform="translate(587.841797 0)"/>
     <use xlink:href="#DejaVuSans-6e" transform="translate(649.121094 0)"/>
     <use xlink:href="#DejaVuSans-61" transform="translate(712.5 0)"/>
    </g>
   </g>
   <g id="text_8">
    <!-- Sivi arovnik -->
    <g transform="translate(300.615319 78.388623) scale(0.09 -0.09)">
     <defs>
      <path id="DejaVuSans-53" d="M 3425 4513 
L 3425 3897 
Q 3066 4069 2747 4153 
Q 2428 4238 2131 4238 
Q 1616 4238 1336 4038 
Q 1056 3838 1056 3469 
Q 1056 3159 1242 3001 
Q 1428 2844 1947 2747 
L 2328 2669 
Q 3034 2534 3370 2195 
Q 3706 1856 3706 1288 
Q 3706 609 3251 259 
Q 2797 -91 1919 -91 
Q 1588 -91 1214 -16 
Q 841 59 441 206 
L 441 856 
Q 825 641 1194 531 
Q 1563 422 1919 422 
Q 2459 422 2753 634 
Q 3047 847 3047 1241 
Q 3047 1584 2836 1778 
Q 2625 1972 2144 2069 
L 1759 2144 
Q 1053 2284 737 2584 
Q 422 2884 422 3419 
Q 422 4038 858 4394 
Q 1294 4750 2059 4750 
Q 2388 4750 2728 4690 
Q 3069 4631 3425 4513 
z
" transform="scale(0.015625)"/>
     </defs>
     <use xlink:href="#DejaVuSans-53"/>
     <use xlink:href="#DejaVuSans-69" transform="translate(63.476562 0)"/>
     <use xlink:href="#DejaVuSans-76" transform="translate(91.259766 0)"/>
     <use xlink:href="#DejaVuSans-69" transform="translate(150.439453 0)"/>
     <use xlink:href="#DejaVuSans-20" transform="translate(178.222656 0)"/>
     <use xlink:href="#DejaVuSans-10d" transform="translate(210.009766 0)"/>
     <use xlink:href="#DejaVuSans-61" transform="translate(264.990234 0)"/>
     <use xlink:href="#DejaVuSans-72" transform="translate(326.269531 0)"/>
     <use xlink:href="#DejaVuSans-6f" transform="translate(365.132812 0)"/>
     <use xlink:href="#DejaVuSans-76" transform="translate(426.314453 0)"/>
     <use xlink:href="#DejaVuSans-6e" transform="translate(485.494141 0)"/>
     <use xlink:href="#DejaVuSans-69" transform="translate(548.873047 0)"/>
     <use xlink:href="#DejaVuSans-6b" transform="translate(576.65625 0)"/>
    </g>
   </g>
   <g id="text_9">
    <!-- Postopa -->
    <g transform="translate(365.338956 255.165962) scale(0.09 -0.09)">
     <use xlink:href="#DejaVuSans-50"/>
     <use xlink:href="#DejaVuSans-6f" transform="translate(56.677734 0)"/>
     <use xlink:href="#DejaVuSans-73" transform="translate(117.859375 0)"/>
     <use xlink:href="#DejaVuSans-74" transform="translate(169.958984 0)"/>
     <use xlink:href="#DejaVuSans-6f" transform="translate(209.167969 0)"/>
     <use xlink:href="#DejaVuSans-70" transform="translate(270.349609 0)"/>
     <use xlink:href="#DejaVuSans-61" transform="translate(333.826172 0)"/>
     <use xlink:href="#DejaVuSans-10d" transform="translate(395.105469 0)"/>
    </g>
   </g>
   <g id="text_10">
    <!-- Vilinski lokostrelec -->
    <g transform="translate(30.732396 260.235505) scale(0.09 -0.09)">
     <defs>
      <path id="DejaVuSans-56" d="M 1831 0 
L 50 4666 
L 709 4666 
L 2188 738 
L 3669 4666 
L 4325 4666 
L 2547 0 
L 1831 0 
z
" transform="scale(0.015625)"/>
     </defs>
     <use xlink:href="#DejaVuSans-56"/>
     <use xlink:href="#DejaVuSans-69" transform="translate(66.158203 0)"/>
     <use xlink:href="#DejaVuSans-6c" transform="translate(93.941406 0)"/>
     <use xlink:href="#DejaVuSans-69" transform="translate(121.724609 0)"/>
     <use xlink:href="#DejaVuSans-6e" transform="translate(149.507812 0)"/>
     <use xlink:href="#DejaVuSans-73" transform="translate(212.886719 0)"/>
     <use xlink:href="#DejaVuSans-6b" transform="translate(264.986328 0)"/>
     <use xlink:href="#DejaVuSans-69" transform="translate(322.896484 0)"/>
     <use xlink:href="#DejaVuSans-20" transform="translate(350.679688 0)"/>
     <use xlink:href="#DejaVuSans-6c" transform="translate(382.466797 0)"/>
     <use xlink:href="#DejaVuSans-6f" transform="translate(410.25 0)"/>
     <use xlink:href="#DejaVuSans-6b" transform="translate(471.431641 0)"/>
     <use xlink:href="#DejaVuSans-6f" transform="translate(525.716797 0)"/>
     <use xlink:href="#DejaVuSans-73" transform="translate(586.898438 0)"/>
     <use xlink:href="#DejaVuSans-74" transform="translate(638.998047 0)"/>
     <use xlink:href="#DejaVuSans-72" transform="translate(678.207031 0)"/>
     <use xlink:href="#DejaVuSans-65" transform="translate(717.070312 0)"/>
     <use xlink:href="#DejaVuSans-6c" transform="translate(778.59375 0)"/>
     <use xlink:href="#DejaVuSans-65" transform="translate(806.376953 0)"/>
     <use xlink:href="#DejaVuSans-63" transform="translate(867.900391 0)"/>
    </g>
   </g>
   <g id="text_11">
    <!-- kratovski bojevnik -->
    <g transform="translate(152.979457 175.789928) scale(0.09 -0.09)">
     <defs>
      <path id="DejaVuSans-160" d="M 3425 4513 
L 3425 3897 
Q 3066 4069 2747 4153 
Q 2428 4238 2131 4238 
Q 1616 4238 1336 4038 
Q 1056 3838 1056 3469 
Q 1056 3159 1242 3001 
Q 1428 2844 1947 2747 
L 2328 2669 
Q 3034 2534 3370 2195 
Q 3706 1856 3706 1288 
Q 3706 609 3251 259 
Q 2797 -91 1919 -91 
Q 1588 -91 1214 -16 
Q 841 59 441 206 
L 441 856 
Q 825 641 1194 531 
Q 1563 422 1919 422 
Q 2459 422 2753 634 
Q 3047 847 3047 1241 
Q 3047 1584 2836 1778 
Q 2625 1972 2144 2069 
L 1759 2144 
Q 1053 2284 737 2584 
Q 422 2884 422 3419 
Q 422 4038 858 4394 
Q 1294 4750 2059 4750 
Q 2388 4750 2728 4690 
Q 3069 4631 3425 4513 
z
M 1738 5096 
L 1079 5927 
L 1513 5927 
L 2032 5371 
L 2551 5927 
L 2985 5927 
L 2326 5096 
L 1738 5096 
z
" transform="scale(0.015625)"/>
      <path id="DejaVuSans-62" d="M 3116 1747 
Q 3116 2381 2855 2742 
Q 2594 3103 2138 3103 
Q 1681 3103 1420 2742 
Q 1159 2381 1159 1747 
Q 1159 1113 1420 752 
Q 1681 391 2138 391 
Q 2594 391 2855 752 
Q 3116 1113 3116 1747 
z
M 1159 2969 
Q 1341 3281 1617 3432 
Q 1894 3584 2278 3584 
Q 2916 3584 3314 3078 
Q 3713 2572 3713 1747 
Q 3713 922 3314 415 
Q 2916 -91 2278 -91 
Q 1894 -91 1617 61 
Q 1341 213 1159 525 
L 1159 0 
L 581 0 
L 581 4863 
L 1159 4863 
L 1159 2969 
z
" transform="scale(0.015625)"/>
     </defs>
     <use xlink:href="#DejaVuSans-160"/>
     <use xlink:href="#DejaVuSans-6b" transform="translate(63.476562 0)"/>
     <use xlink:href="#DejaVuSans-72" transform="translate(121.386719 0)"/>
     <use xlink:href="#DejaVuSans-61" transform="translate(162.5 0)"/>
     <use xlink:href="#DejaVuSans-74" transform="translate(223.779297 0)"/>
     <use xlink:href="#DejaVuSans-6f" transform="translate(262.988281 0)"/>
     <use xlink:href="#DejaVuSans-76" transform="translate(324.169922 0)"/>
     <use xlink:href="#DejaVuSans-73" transform="translate(383.349609 0)"/>
     <use xlink:href="#DejaVuSans-6b" transform="translate(435.449219 0)"/>
     <use xlink:href="#DejaVuSans-69" transform="translate(493.359375 0)"/>
     <use xlink:href="#DejaVuSans-20" transform="translate(521.142578 0)"/>
     <use xlink:href="#DejaVuSans-62" transform="translate(552.929688 0)"/>
     <use xlink:href="#DejaVuSans-6f" transform="translate(616.40625 0)"/>
     <use xlink:href="#DejaVuSans-6a" transform="translate(677.587891 0)"/>
     <use xlink:href="#DejaVuSans-65" transform="translate(705.371094 0)"/>
     <use xlink:href="#DejaVuSans-76" transform="translate(766.894531 0)"/>
     <use xlink:href="#DejaVuSans-6e" transform="translate(826.074219 0)"/>
     <use xlink:href="#DejaVuSans-69" transform="translate(889.453125 0)"/>
     <use xlink:href="#DejaVuSans-6b" transform="translate(917.236328 0)"/>
    </g>
   </g>
   <g id="text_12">
    <!-- Zvesti robot -->
    <g transform="translate(177.830993 117.455888) scale(0.09 -0.09)">
     <use xlink:href="#DejaVuSans-5a"/>
     <use xlink:href="#DejaVuSans-76" transform="translate(68.505859 0)"/>
     <use xlink:href="#DejaVuSans-65" transform="translate(127.685547 0)"/>
     <use xlink:href="#DejaVuSans-73" transform="translate(189.208984 0)"/>
     <use xlink:href="#DejaVuSans-74" transform="translate(241.308594 0)"/>
     <use xlink:href="#DejaVuSans-69" transform="translate(280.517578 0)"/>
     <use xlink:href="#DejaVuSans-20" transform="translate(308.300781 0)"/>
     <use xlink:href="#DejaVuSans-72" transform="translate(340.087891 0)"/>
     <use xlink:href="#DejaVuSans-6f" transform="translate(378.951172 0)"/>
     <use xlink:href="#DejaVuSans-62" transform="translate(440.132812 0)"/>
     <use xlink:href="#DejaVuSans-6f" transform="translate(503.609375 0)"/>
     <use xlink:href="#DejaVuSans-74" transform="translate(564.791016 0)"/>
    </g>
   </g>
   <g id="text_13">
    <!-- Voditeljica upora -->
    <g transform="translate(169.035188 198.376048) scale(0.09 -0.09)">
     <defs>
      <path id="DejaVuSans-75" d="M 544 1381 
L 544 3500 
L 1119 3500 
L 1119 1403 
Q 1119 906 1312 657 
Q 1506 409 1894 409 
Q 2359 409 2629 706 
Q 2900 1003 2900 1516 
L 2900 3500 
L 3475 3500 
L 3475 0 
L 2900 0 
L 2900 538 
Q 2691 219 2414 64 
Q 2138 -91 1772 -91 
Q 1169 -91 856 284 
Q 544 659 544 1381 
z
M 1991 3584 
L 1991 3584 
z
" transform="scale(0.015625)"/>
     </defs>
     <use xlink:href="#DejaVuSans-56"/>
     <use xlink:href="#DejaVuSans-6f" transform="translate(60.658203 0)"/>
     <use xlink:href="#DejaVuSans-64" transform="translate(121.839844 0)"/>
     <use xlink:href="#DejaVuSans-69" transform="translate(185.316406 0)"/>
     <use xlink:href="#DejaVuSans-74" transform="translate(213.099609 0)"/>
     <use xlink:href="#DejaVuSans-65" transform="translate(252.308594 0)"/>
     <use xlink:href="#DejaVuSans-6c" transform="translate(313.832031 0)"/>
     <use xlink:href="#DejaVuSans-6a" transform="translate(341.615234 0)"/>
     <use xlink:href="#DejaVuSans-69" transform="translate(369.398438 0)"/>
     <use xlink:href="#DejaVuSans-63" transform="translate(397.181641 0)"/>
     <use xlink:href="#DejaVuSans-61" transform="translate(452.162109 0)"/>
     <use xlink:href="#DejaVuSans-20" transform="translate(513.441406 0)"/>
     <use xlink:href="#DejaVuSans-75" transform="translate(545.228516 0)"/>
     <use xlink:href="#DejaVuSans-70" transform="translate(608.607422 0)"/>
     <use xlink:href="#DejaVuSans-6f" transform="translate(672.083984 0)"/>
     <use xlink:href="#DejaVuSans-72" transform="translate(733.265625 0)"/>
     <use xlink:href="#DejaVuSans-61" transform="translate(774.378906 0)"/>
    </g>
   </g>
   <g id="text_14">
    <!-- Temni vitez -->
    <g transform="translate(37.642932 58.81624) scale(0.09 -0.09)">
     <defs>
      <path id="DejaVuSans-7a" d="M 353 3500 
L 3084 3500 
L 3084 2975 
L 922 459 
L 3084 459 
L 3084 0 
L 275 0 
L 275 525 
L 2438 3041 
L 353 3041 
L 353 3500 
z
" transform="scale(0.015625)"/>
     </defs>
     <use xlink:href="#DejaVuSans-54"/>
     <use xlink:href="#DejaVuSans-65" transform="translate(44.083984 0)"/>
     <use xlink:href="#DejaVuSans-6d" transform="translate(105.607422 0)"/>
     <use xlink:href="#DejaVuSans-6e" transform="translate(203.019531 0)"/>
     <use xlink:href="#DejaVuSans-69" transform="translate(266.398438 0)"/>
     <use xlink:href="#DejaVuSans-20" transform="translate(294.181641 0)"/>
     <use xlink:href="#DejaVuSans-76" transform="translate(325.96875 0)"/>
     <use xlink:href="#DejaVuSans-69" transform="translate(385.148438 0)"/>
     <use xlink:href="#DejaVuSans-74" transform="translate(412.931641 0)"/>
     <use xlink:href="#DejaVuSans-65" transform="translate(452.140625 0)"/>
     <use xlink:href="#DejaVuSans-7a" transform="translate(513.664062 0)"/>
    </g>
   </g>
   <g id="text_15">
    <!-- Zvesti prijatelj -->
    <g transform="translate(133.997858 228.143535) scale(0.09 -0.09)">
     <use xlink:href="#DejaVuSans-5a"/>
     <use xlink:href="#DejaVuSans-76" transform="translate(68.505859 0)"/>
     <use xlink:href="#DejaVuSans-65" transform="translate(127.685547 0)"/>
     <use xlink:href="#DejaVuSans-73" transform="translate(189.208984 0)"/>
     <use xlink:href="#DejaVuSans-74" transform="translate(241.308594 0)"/>
     <use xlink:href="#DejaVuSans-69" transform="translate(280.517578 0)"/>
     <use xlink:href="#DejaVuSans-20" transform="translate(308.300781 0)"/>
     <use xlink:href="#DejaVuSans-70" transform="translate(340.087891 0)"/>
     <use xlink:href="#DejaVuSans-72" transform="translate(403.564453 0)"/>
     <use xlink:href="#DejaVuSans-69" transform="translate(444.677734 0)"/>
     <use xlink:href="#DejaVuSans-6a" transform="translate(472.460938 0)"/>
     <use xlink:href="#DejaVuSans-61" transform="translate(500.244141 0)"/>
     <use xlink:href="#DejaVuSans-74" transform="translate(561.523438 0)"/>
     <use xlink:href="#DejaVuSans-65" transform="translate(600.732422 0)"/>
     <use xlink:href="#DejaVuSans-6c" transform="translate(662.255859 0)"/>
     <use xlink:href="#DejaVuSans-6a" transform="translate(690.039062 0)"/>
    </g>
   </g>
   <g id="text_16">
    <!-- Zlati robot -->
    <g transform="translate(112.859347 166.460659) scale(0.09 -0.09)">
     <use xlink:href="#DejaVuSans-5a"/>
     <use xlink:href="#DejaVuSans-6c" transform="translate(68.505859 0)"/>
     <use xlink:href="#DejaVuSans-61" transform="translate(96.289062 0)"/>
     <use xlink:href="#DejaVuSans-74" transform="translate(157.568359 0)"/>
     <use xlink:href="#DejaVuSans-69" transform="translate(196.777344 0)"/>
     <use xlink:href="#DejaVuSans-20" transform="translate(224.560547 0)"/>
     <use xlink:href="#DejaVuSans-72" transform="translate(256.347656 0)"/>
     <use xlink:href="#DejaVuSans-6f" transform="translate(295.210938 0)"/>
     <use xlink:href="#DejaVuSans-62" transform="translate(356.392578 0)"/>
     <use xlink:href="#DejaVuSans-6f" transform="translate(419.869141 0)"/>
     <use xlink:href="#DejaVuSans-74" transform="translate(481.050781 0)"/>
    </g>
   </g>
   <g id="text_17">
    <!-- Prebrisani uitelj -->
    <g transform="translate(317.266857 164.192688) scale(0.09 -0.09)">
     <use xlink:href="#DejaVuSans-50"/>
     <use xlink:href="#DejaVuSans-72" transform="translate(58.552734 0)"/>
     <use xlink:href="#DejaVuSans-65" transform="translate(97.416016 0)"/>
     <use xlink:href="#DejaVuSans-62" transform="translate(158.939453 0)"/>
     <use xlink:href="#DejaVuSans-72" transform="translate(222.416016 0)"/>
     <use xlink:href="#DejaVuSans-69" transform="translate(263.529297 0)"/>
     <use xlink:href="#DejaVuSans-73" transform="translate(291.3125 0)"/>
     <use xlink:href="#DejaVuSans-61" transform="translate(343.412109 0)"/>
     <use xlink:href="#DejaVuSans-6e" transform="translate(404.691406 0)"/>
     <use xlink:href="#DejaVuSans-69" transform="translate(468.070312 0)"/>
     <use xlink:href="#DejaVuSans-20" transform="translate(495.853516 0)"/>
     <use xlink:href="#DejaVuSans-75" transform="translate(527.640625 0)"/>
     <use xlink:href="#DejaVuSans-10d" transform="translate(591.019531 0)"/>
     <use xlink:href="#DejaVuSans-69" transform="translate(646 0)"/>
     <use xlink:href="#DejaVuSans-74" transform="translate(673.783203 0)"/>
     <use xlink:href="#DejaVuSans-65" transform="translate(712.992188 0)"/>
     <use xlink:href="#DejaVuSans-6c" transform="translate(774.515625 0)"/>
     <use xlink:href="#DejaVuSans-6a" transform="translate(802.298828 0)"/>
    </g>
   </g>
   <g id="text_18">
    <!-- Pogumna princesa -->
    <g transform="translate(163.566824 24.501037) scale(0.09 -0.09)">
     <defs>
      <path id="DejaVuSans-67" d="M 2906 1791 
Q 2906 2416 2648 2759 
Q 2391 3103 1925 3103 
Q 1463 3103 1205 2759 
Q 947 2416 947 1791 
Q 947 1169 1205 825 
Q 1463 481 1925 481 
Q 2391 481 2648 825 
Q 2906 1169 2906 1791 
z
M 3481 434 
Q 3481 -459 3084 -895 
Q 2688 -1331 1869 -1331 
Q 1566 -1331 1297 -1286 
Q 1028 -1241 775 -1147 
L 775 -588 
Q 1028 -725 1275 -790 
Q 1522 -856 1778 -856 
Q 2344 -856 2625 -561 
Q 2906 -266 2906 331 
L 2906 616 
Q 2728 306 2450 153 
Q 2172 0 1784 0 
Q 1141 0 747 490 
Q 353 981 353 1791 
Q 353 2603 747 3093 
Q 1141 3584 1784 3584 
Q 2172 3584 2450 3431 
Q 2728 3278 2906 2969 
L 2906 3500 
L 3481 3500 
L 3481 434 
z
" transform="scale(0.015625)"/>
     </defs>
     <use xlink:href="#DejaVuSans-50"/>
     <use xlink:href="#DejaVuSans-6f" transform="translate(56.677734 0)"/>
     <use xlink:href="#DejaVuSans-67" transform="translate(117.859375 0)"/>
     <use xlink:href="#DejaVuSans-75" transform="translate(181.335938 0)"/>
     <use xlink:href="#DejaVuSans-6d" transform="translate(244.714844 0)"/>
     <use xlink:href="#DejaVuSans-6e" transform="translate(342.126953 0)"/>
     <use xlink:href="#DejaVuSans-61" transform="translate(405.505859 0)"/>
     <use xlink:href="#DejaVuSans-20" transform="translate(466.785156 0)"/>
     <use xlink:href="#DejaVuSans-70" transform="translate(498.572266 0)"/>
     <use xlink:href="#DejaVuSans-72" transform="translate(562.048828 0)"/>
     <use xlink:href="#DejaVuSans-69" transform="translate(603.162109 0)"/>
     <use xlink:href="#DejaVuSans-6e" transform="translate(630.945312 0)"/>
     <use xlink:href="#DejaVuSans-63" transform="translate(694.324219 0)"/>
     <use xlink:href="#DejaVuSans-65" transform="translate(749.304688 0)"/>
     <use xlink:href="#DejaVuSans-73" transform="translate(810.828125 0)"/>
     <use xlink:href="#DejaVuSans-61" transform="translate(862.927734 0)"/>
    </g>
   </g>
   <g id="text_19">
    <!-- TU STE VI -->
    <g style="fill: #003a6e" transform="translate(294.693888 357.134292) scale(0.08 -0.08)">
     <defs>
      <path id="DejaVuSans-BoldOblique-54" d="M 488 4666 
L 4788 4666 
L 4609 3756 
L 3059 3756 
L 2328 0 
L 1125 0 
L 1856 3756 
L 306 3756 
L 488 4666 
z
" transform="scale(0.015625)"/>
      <path id="DejaVuSans-BoldOblique-55" d="M 1044 4666 
L 2247 4666 
L 1703 1872 
Q 1672 1722 1658 1606 
Q 1644 1491 1644 1403 
Q 1644 1097 1808 945 
Q 1972 794 2297 794 
Q 2734 794 2968 1039 
Q 3203 1284 3316 1869 
L 3859 4666 
L 5063 4666 
L 4519 1869 
Q 4316 838 3748 373 
Q 3181 -91 2125 -91 
Q 1297 -91 865 264 
Q 434 619 434 1294 
Q 434 1406 450 1545 
Q 466 1684 500 1869 
L 1044 4666 
z
" transform="scale(0.015625)"/>
      <path id="DejaVuSans-BoldOblique-20" transform="scale(0.015625)"/>
      <path id="DejaVuSans-BoldOblique-53" d="M 4256 4519 
L 4063 3531 
Q 3709 3706 3365 3792 
Q 3022 3878 2694 3878 
Q 2244 3878 1992 3737 
Q 1741 3597 1741 3347 
Q 1741 3188 1852 3098 
Q 1963 3009 2309 2925 
L 2803 2803 
Q 3422 2647 3711 2351 
Q 4000 2056 4000 1588 
Q 4000 828 3423 368 
Q 2847 -91 1875 -91 
Q 1422 -91 973 -6 
Q 525 78 97 244 
L 288 1259 
Q 703 1019 1095 900 
Q 1488 781 1869 781 
Q 2281 781 2539 950 
Q 2797 1119 2797 1381 
Q 2797 1553 2681 1648 
Q 2566 1744 2175 1844 
L 1684 1966 
Q 1141 2100 875 2390 
Q 609 2681 609 3144 
Q 609 3872 1167 4311 
Q 1725 4750 2669 4750 
Q 3047 4750 3445 4692 
Q 3844 4634 4256 4519 
z
" transform="scale(0.015625)"/>
      <path id="DejaVuSans-BoldOblique-45" d="M 1044 4666 
L 4288 4666 
L 4109 3756 
L 2069 3756 
L 1900 2888 
L 3822 2888 
L 3641 1978 
L 1722 1978 
L 1516 909 
L 3622 909 
L 3450 0 
L 134 0 
L 1044 4666 
z
" transform="scale(0.015625)"/>
      <path id="DejaVuSans-BoldOblique-56" d="M 488 4666 
L 1631 4666 
L 2203 1178 
L 4134 4666 
L 5375 4666 
L 2741 0 
L 1306 0 
L 488 4666 
z
" transform="scale(0.015625)"/>
      <path id="DejaVuSans-BoldOblique-49" d="M 1044 4666 
L 2247 4666 
L 1338 0 
L 134 0 
L 1044 4666 
z
" transform="scale(0.015625)"/>
     </defs>
     <use xlink:href="#DejaVuSans-BoldOblique-54"/>
     <use xlink:href="#DejaVuSans-BoldOblique-55" transform="translate(68.212891 0)"/>
     <use xlink:href="#DejaVuSans-BoldOblique-20" transform="translate(149.414062 0)"/>
     <use xlink:href="#DejaVuSans-BoldOblique-53" transform="translate(184.228516 0)"/>
     <use xlink:href="#DejaVuSans-BoldOblique-54" transform="translate(256.25 0)"/>
     <use xlink:href="#DejaVuSans-BoldOblique-45" transform="translate(324.462891 0)"/>
     <use xlink:href="#DejaVuSans-BoldOblique-20" transform="translate(392.773438 0)"/>
     <use xlink:href="#DejaVuSans-BoldOblique-56" transform="translate(427.587891 0)"/>
     <use xlink:href="#DejaVuSans-BoldOblique-49" transform="translate(504.980469 0)"/>
    </g>
   </g>
  </g>
 </g>
 <defs>
  <clipPath id="pe511314fe8">
   <rect x="12.74772" y="7.2" width="390.6" height="388.08"/>
  </clipPath>
 </defs>
</svg>
