<?xml version="1.0" encoding="utf-8" standalone="no"?>
<!DOCTYPE svg PUBLIC "-//W3C//DTD SVG 1.1//EN"
  "http://www.w3.org/Graphics/SVG/1.1/DTD/svg11.dtd">
<svg xmlns:xlink="http://www.w3.org/1999/xlink" width="444.570137pt" height="402.48pt" viewBox="0 0 444.570137 402.48" xmlns="http://www.w3.org/2000/svg" version="1.1">
 <metadata>
  <rdf:RDF xmlns:dc="http://purl.org/dc/elements/1.1/" xmlns:cc="http://creativecommons.org/ns#" xmlns:rdf="http://www.w3.org/1999/02/22-rdf-syntax-ns#">
   <cc:Work>
    <dc:type rdf:resource="http://purl.org/dc/dcmitype/StillImage"/>
    <dc:date>2025-12-04T12:42:21.394409</dc:date>
    <dc:format>image/svg+xml</dc:format>
    <dc:creator>
     <cc:Agent>
      <dc:title>Matplotlib v3.10.7, https://matplotlib.org/</dc:title>
     </cc:Agent>
    </dc:creator>
   </cc:Work>
  </rdf:RDF>
 </metadata>
 <defs>
  <style type="text/css">*{stroke-linejoin: round; stroke-linecap: butt}</style>
 </defs>
 <g id="figure_1">
  <g id="patch_1">
   <path d="M 0 402.48 
L 444.570137 402.48 
L 444.570137 -0 
L 0 -0 
z
" style="fill: #ffffff"/>
  </g>
  <g id="axes_1">
   <g id="patch_2">
    <path d="M 356.912449 313.46449 
Q 289.107058 256.020677 222.443825 199.544485 
" clip-path="url(#p931990f9d6)" style="fill: none; stroke: #e8e8e8; stroke-width: 1.2; stroke-linecap: round"/>
    <path d="M 226.285402 207.386187 
L 222.443825 199.544485 
L 230.810211 202.045203 
z
" clip-path="url(#p931990f9d6)" style="fill: #e8e8e8; stroke: #e8e8e8; stroke-width: 1.2; stroke-linecap: round"/>
   </g>
   <g id="patch_3">
    <path d="M 360.632077 310.49979 
Q 338.392325 268.651104 316.855057 228.124286 
" clip-path="url(#p931990f9d6)" style="fill: none; stroke: #e8e8e8; stroke-width: 1.2; stroke-linecap: round"/>
    <path d="M 317.518633 236.831161 
L 316.855057 228.124286 
L 323.699975 233.546194 
z
" clip-path="url(#p931990f9d6)" style="fill: #e8e8e8; stroke: #e8e8e8; stroke-width: 1.2; stroke-linecap: round"/>
   </g>
   <g id="patch_4">
    <path d="M 356.029812 314.627582 
Q 289.141804 270.117299 223.500025 226.436312 
" clip-path="url(#p931990f9d6)" style="fill: none; stroke: #e8e8e8; stroke-width: 1.2; stroke-linecap: round"/>
    <path d="M 228.221195 233.782096 
L 223.500025 226.436312 
L 232.099166 227.95446 
z
" clip-path="url(#p931990f9d6)" style="fill: #e8e8e8; stroke: #e8e8e8; stroke-width: 1.2; stroke-linecap: round"/>
   </g>
   <g id="patch_5">
    <path d="M 355.13414 316.179003 
Q 262.786798 272.107674 171.790432 228.681078 
" clip-path="url(#p931990f9d6)" style="fill: none; stroke: #e8e8e8; stroke-width: 1.2; stroke-linecap: round"/>
    <path d="M 177.502933 235.28542 
L 171.790432 228.681078 
L 180.517842 228.967958 
z
" clip-path="url(#p931990f9d6)" style="fill: #e8e8e8; stroke: #e8e8e8; stroke-width: 1.2; stroke-linecap: round"/>
   </g>
   <g id="patch_6">
    <path d="M 353.992499 323.19832 
Q 305.459883 329.285199 258.412567 335.185794 
" clip-path="url(#p931990f9d6)" style="fill: none; stroke: #e8e8e8; stroke-width: 1.2; stroke-linecap: round"/>
    <path d="M 266.785933 337.66304 
L 258.412567 335.185794 
L 265.914829 330.717453 
z
" clip-path="url(#p931990f9d6)" style="fill: #e8e8e8; stroke: #e8e8e8; stroke-width: 1.2; stroke-linecap: round"/>
   </g>
   <g id="patch_7">
    <path d="M 356.610698 313.826779 
Q 303.412991 272.067738 251.392774 231.233 
" clip-path="url(#p931990f9d6)" style="fill: none; stroke: #e8e8e8; stroke-width: 1.2; stroke-linecap: round"/>
    <path d="M 255.524448 238.925806 
L 251.392774 231.233 
L 259.846692 233.419609 
z
" clip-path="url(#p931990f9d6)" style="fill: #e8e8e8; stroke: #e8e8e8; stroke-width: 1.2; stroke-linecap: round"/>
   </g>
   <g id="patch_8">
    <path d="M 223.9215 193.556812 
Q 260.956125 203.047474 296.540673 212.166533 
" clip-path="url(#p931990f9d6)" style="fill: none; stroke: #e8e8e8; stroke-width: 1.2; stroke-linecap: round"/>
    <path d="M 289.65994 206.790147 
L 296.540673 212.166533 
L 287.92224 213.571032 
z
" clip-path="url(#p931990f9d6)" style="fill: #e8e8e8; stroke: #e8e8e8; stroke-width: 1.2; stroke-linecap: round"/>
   </g>
   <g id="patch_9">
    <path d="M 199.686886 194.455954 
Q 130.199773 217.874941 62.131199 240.815843 
" clip-path="url(#p931990f9d6)" style="fill: none; stroke: #e8e8e8; stroke-width: 1.2; stroke-linecap: round"/>
    <path d="M 70.830039 241.577537 
L 62.131199 240.815843 
L 68.59441 234.944139 
z
" clip-path="url(#p931990f9d6)" style="fill: #e8e8e8; stroke: #e8e8e8; stroke-width: 1.2; stroke-linecap: round"/>
   </g>
   <g id="patch_10">
    <path d="M 200.932142 183.762934 
Q 130.407199 140.059182 61.154682 97.143943 
" clip-path="url(#p931990f9d6)" style="fill: none; stroke: #e8e8e8; stroke-width: 1.2; stroke-linecap: round"/>
    <path d="M 66.111214 104.333017 
L 61.154682 97.143943 
L 69.798468 98.382878 
z
" clip-path="url(#p931990f9d6)" style="fill: #e8e8e8; stroke: #e8e8e8; stroke-width: 1.2; stroke-linecap: round"/>
   </g>
   <g id="patch_11">
    <path d="M 218.85148 180.058623 
Q 229.414799 164.821497 239.125253 150.81459 
" clip-path="url(#p931990f9d6)" style="fill: none; stroke: #e8e8e8; stroke-width: 1.2; stroke-linecap: round"/>
    <path d="M 231.690946 155.3951 
L 239.125253 150.81459 
L 237.443721 159.38328 
z
" clip-path="url(#p931990f9d6)" style="fill: #e8e8e8; stroke: #e8e8e8; stroke-width: 1.2; stroke-linecap: round"/>
   </g>
   <g id="patch_12">
    <path d="M 299.438934 209.122911 
Q 241.150633 173.753135 184.142084 139.159923 
" clip-path="url(#p931990f9d6)" style="fill: none; stroke: #e8e8e8; stroke-width: 1.2; stroke-linecap: round"/>
    <path d="M 189.165711 146.302273 
L 184.142084 139.159923 
L 192.797091 140.31787 
z
" clip-path="url(#p931990f9d6)" style="fill: #e8e8e8; stroke: #e8e8e8; stroke-width: 1.2; stroke-linecap: round"/>
   </g>
   <g id="patch_13">
    <path d="M 297.989044 212.537699 
Q 260.954418 203.047037 225.369871 193.927978 
" clip-path="url(#p931990f9d6)" style="fill: none; stroke: #e8e8e8; stroke-width: 1.2; stroke-linecap: round"/>
    <path d="M 232.250603 199.304364 
L 225.369871 193.927978 
L 233.988304 192.523479 
z
" clip-path="url(#p931990f9d6)" style="fill: #e8e8e8; stroke: #e8e8e8; stroke-width: 1.2; stroke-linecap: round"/>
   </g>
   <g id="patch_14">
    <path d="M 302.212893 205.948257 
Q 278.698373 177.44929 256.136546 150.104963 
" clip-path="url(#p931990f9d6)" style="fill: none; stroke: #e8e8e8; stroke-width: 1.2; stroke-linecap: round"/>
    <path d="M 258.528307 158.503146 
L 256.136546 150.104963 
L 263.927653 154.048142 
z
" clip-path="url(#p931990f9d6)" style="fill: #e8e8e8; stroke: #e8e8e8; stroke-width: 1.2; stroke-linecap: round"/>
   </g>
   <g id="patch_15">
    <path d="M 299.360974 222.098753 
Q 179.292552 292.968758 60.513256 363.077861 
" clip-path="url(#p931990f9d6)" style="fill: none; stroke: #e8e8e8; stroke-width: 1.2; stroke-linecap: round"/>
    <path d="M 69.181738 362.025526 
L 60.513256 363.077861 
L 65.623593 355.997292 
z
" clip-path="url(#p931990f9d6)" style="fill: #e8e8e8; stroke: #e8e8e8; stroke-width: 1.2; stroke-linecap: round"/>
   </g>
   <g id="patch_16">
    <path d="M 224.388116 218.792123 
Q 307.584002 219.997997 389.283109 221.182176 
" clip-path="url(#p931990f9d6)" style="fill: none; stroke: #e8e8e8; stroke-width: 1.2; stroke-linecap: round"/>
    <path d="M 381.334674 217.566601 
L 389.283109 221.182176 
L 381.233224 224.565866 
z
" clip-path="url(#p931990f9d6)" style="fill: #e8e8e8; stroke: #e8e8e8; stroke-width: 1.2; stroke-linecap: round"/>
   </g>
   <g id="patch_17">
    <path d="M 224.387835 218.232264 
Q 260.991743 217.142918 296.099377 216.098102 
" clip-path="url(#p931990f9d6)" style="fill: none; stroke: #e8e8e8; stroke-width: 1.2; stroke-linecap: round"/>
    <path d="M 287.998802 212.837629 
L 296.099377 216.098102 
L 288.207033 219.834531 
z
" clip-path="url(#p931990f9d6)" style="fill: #e8e8e8; stroke: #e8e8e8; stroke-width: 1.2; stroke-linecap: round"/>
   </g>
   <g id="patch_18">
    <path d="M 201.845008 210.766058 
Q 130.440166 154.15471 60.208331 98.473348 
" clip-path="url(#p931990f9d6)" style="fill: none; stroke: #e8e8e8; stroke-width: 1.2; stroke-linecap: round"/>
    <path d="M 64.302762 106.186041 
L 60.208331 98.473348 
L 68.651578 100.700806 
z
" clip-path="url(#p931990f9d6)" style="fill: #e8e8e8; stroke: #e8e8e8; stroke-width: 1.2; stroke-linecap: round"/>
   </g>
   <g id="patch_19">
    <path d="M 215.083795 230.743995 
Q 228.054358 277.776183 240.626951 323.365305 
" clip-path="url(#p931990f9d6)" style="fill: none; stroke: #e8e8e8; stroke-width: 1.2; stroke-linecap: round"/>
    <path d="M 241.874148 314.722707 
L 240.626951 323.365305 
L 235.126059 316.583699 
z
" clip-path="url(#p931990f9d6)" style="fill: #e8e8e8; stroke: #e8e8e8; stroke-width: 1.2; stroke-linecap: round"/>
   </g>
   <g id="patch_20">
    <path d="M 216.870502 207.10465 
Q 229.448155 178.917584 241.415819 152.097532 
" clip-path="url(#p931990f9d6)" style="fill: none; stroke: #e8e8e8; stroke-width: 1.2; stroke-linecap: round"/>
    <path d="M 234.959649 157.976976 
L 241.415819 152.097532 
L 241.352108 160.829424 
z
" clip-path="url(#p931990f9d6)" style="fill: #e8e8e8; stroke: #e8e8e8; stroke-width: 1.2; stroke-linecap: round"/>
   </g>
   <g id="patch_21">
    <path d="M 224.27058 220.323105 
Q 226.010524 220.561098 226.267342 220.596226 
" clip-path="url(#p931990f9d6)" style="fill: none; stroke: #e8e8e8; stroke-width: 1.2; stroke-linecap: round"/>
    <path d="M 218.815466 216.044354 
L 226.267342 220.596226 
L 217.866824 222.979776 
z
" clip-path="url(#p931990f9d6)" style="fill: #e8e8e8; stroke: #e8e8e8; stroke-width: 1.2; stroke-linecap: round"/>
   </g>
   <g id="patch_22">
    <path d="M 167.952265 231.508105 
Q 180.816978 244.36482 192.622869 256.16337 
" clip-path="url(#p931990f9d6)" style="fill: none; stroke: #e8e8e8; stroke-width: 1.2; stroke-linecap: round"/>
    <path d="M 189.438359 248.032632 
L 192.622869 256.16337 
L 184.490151 252.983919 
z
" clip-path="url(#p931990f9d6)" style="fill: #e8e8e8; stroke: #e8e8e8; stroke-width: 1.2; stroke-linecap: round"/>
   </g>
   <g id="patch_23">
    <path d="M 148.207288 216.077231 
Q 119.107248 198.562062 91.289747 181.818847 
" clip-path="url(#p931990f9d6)" style="fill: none; stroke: #e8e8e8; stroke-width: 1.2; stroke-linecap: round"/>
    <path d="M 96.339041 188.943075 
L 91.289747 181.818847 
L 99.948865 182.945645 
z
" clip-path="url(#p931990f9d6)" style="fill: #e8e8e8; stroke: #e8e8e8; stroke-width: 1.2; stroke-linecap: round"/>
   </g>
   <g id="patch_24">
    <path d="M 169.438163 215.439025 
Q 246.114801 162.748415 321.557717 110.905594 
" clip-path="url(#p931990f9d6)" style="fill: none; stroke: #e8e8e8; stroke-width: 1.2; stroke-linecap: round"/>
    <path d="M 312.982172 112.551811 
L 321.557717 110.905594 
L 316.946618 118.320968 
z
" clip-path="url(#p931990f9d6)" style="fill: #e8e8e8; stroke: #e8e8e8; stroke-width: 1.2; stroke-linecap: round"/>
   </g>
   <g id="patch_25">
    <path d="M 171.665842 222.013561 
Q 234.634817 219.134314 296.108418 216.323441 
" clip-path="url(#p931990f9d6)" style="fill: none; stroke: #e8e8e8; stroke-width: 1.2; stroke-linecap: round"/>
    <path d="M 287.956898 213.192512 
L 296.108418 216.323441 
L 288.276638 220.185205 
z
" clip-path="url(#p931990f9d6)" style="fill: #e8e8e8; stroke: #e8e8e8; stroke-width: 1.2; stroke-linecap: round"/>
   </g>
   <g id="patch_26">
    <path d="M 146.642384 225.145358 
Q 103.879257 233.962103 62.582228 242.476572 
" clip-path="url(#p931990f9d6)" style="fill: none; stroke: #e8e8e8; stroke-width: 1.2; stroke-linecap: round"/>
    <path d="M 71.124181 244.28904 
L 62.582228 242.476572 
L 69.710678 237.433239 
z
" clip-path="url(#p931990f9d6)" style="fill: #e8e8e8; stroke: #e8e8e8; stroke-width: 1.2; stroke-linecap: round"/>
   </g>
   <g id="patch_27">
    <path d="M 171.684159 222.579227 
Q 199.659016 222.552457 226.136938 222.527119 
" clip-path="url(#p931990f9d6)" style="fill: none; stroke: #e8e8e8; stroke-width: 1.2; stroke-linecap: round"/>
    <path d="M 218.133592 219.034776 
L 226.136938 222.527119 
L 218.140291 226.034773 
z
" clip-path="url(#p931990f9d6)" style="fill: #e8e8e8; stroke: #e8e8e8; stroke-width: 1.2; stroke-linecap: round"/>
   </g>
   <g id="patch_28">
    <path d="M 237.970355 326.093162 
Q 223.48959 301.543738 209.76936 278.283657 
" clip-path="url(#p931990f9d6)" style="fill: none; stroke: #e8e8e8; stroke-width: 1.2; stroke-linecap: round"/>
    <path d="M 210.819219 286.95244 
L 209.76936 278.283657 
L 216.848468 283.396016 
z
" clip-path="url(#p931990f9d6)" style="fill: #e8e8e8; stroke: #e8e8e8; stroke-width: 1.2; stroke-linecap: round"/>
   </g>
   <g id="patch_29">
    <path d="M 233.122094 342.711958 
Q 204.666827 357.293958 177.543757 371.193268 
" clip-path="url(#p931990f9d6)" style="fill: none; stroke: #e8e8e8; stroke-width: 1.2; stroke-linecap: round"/>
    <path d="M 186.259561 370.65963 
L 177.543757 371.193268 
L 183.067155 364.429979 
z
" clip-path="url(#p931990f9d6)" style="fill: #e8e8e8; stroke: #e8e8e8; stroke-width: 1.2; stroke-linecap: round"/>
   </g>
   <g id="patch_30">
    <path d="M 241.629991 324.65857 
Q 228.021323 263.681907 214.738716 204.166236 
" clip-path="url(#p931990f9d6)" style="fill: none; stroke: #e8e8e8; stroke-width: 1.2; stroke-linecap: round"/>
    <path d="M 213.065311 212.736517 
L 214.738716 204.166236 
L 219.897234 211.21178 
z
" clip-path="url(#p931990f9d6)" style="fill: #e8e8e8; stroke: #e8e8e8; stroke-width: 1.2; stroke-linecap: round"/>
   </g>
   <g id="patch_31">
    <path d="M 232.925135 331.586274 
Q 146.551906 291.1404 61.534342 251.329342 
" clip-path="url(#p931990f9d6)" style="fill: none; stroke: #e8e8e8; stroke-width: 1.2; stroke-linecap: round"/>
    <path d="M 67.295086 257.891645 
L 61.534342 251.329342 
L 70.263621 251.552261 
z
" clip-path="url(#p931990f9d6)" style="fill: #e8e8e8; stroke: #e8e8e8; stroke-width: 1.2; stroke-linecap: round"/>
   </g>
   <g id="patch_32">
    <path d="M 236.832503 326.843496 
Q 201.702265 279.77045 167.467338 233.897085 
" clip-path="url(#p931990f9d6)" style="fill: none; stroke: #e8e8e8; stroke-width: 1.2; stroke-linecap: round"/>
    <path d="M 169.447125 242.401816 
L 167.467338 233.897085 
L 175.057094 238.21514 
z
" clip-path="url(#p931990f9d6)" style="fill: #e8e8e8; stroke: #e8e8e8; stroke-width: 1.2; stroke-linecap: round"/>
   </g>
   <g id="patch_33">
    <path d="M 243.923132 324.368161 
Q 242.328608 279.728165 240.787521 236.58415 
" clip-path="url(#p931990f9d6)" style="fill: none; stroke: #e8e8e8; stroke-width: 1.2; stroke-linecap: round"/>
    <path d="M 237.575326 244.70399 
L 240.787521 236.58415 
L 244.570865 244.454113 
z
" clip-path="url(#p931990f9d6)" style="fill: #e8e8e8; stroke: #e8e8e8; stroke-width: 1.2; stroke-linecap: round"/>
   </g>
   <g id="patch_34">
    <path d="M 232.043322 232.056682 
Q 221.445967 244.32755 211.827028 255.465494 
" clip-path="url(#p931990f9d6)" style="fill: none; stroke: #e8e8e8; stroke-width: 1.2; stroke-linecap: round"/>
    <path d="M 219.70483 251.698501 
L 211.827028 255.465494 
L 214.407023 247.123215 
z
" clip-path="url(#p931990f9d6)" style="fill: #e8e8e8; stroke: #e8e8e8; stroke-width: 1.2; stroke-linecap: round"/>
   </g>
   <g id="patch_35">
    <path d="M 252.941589 222.426204 
Q 321.860372 221.950417 389.282255 221.484964 
" clip-path="url(#p931990f9d6)" style="fill: none; stroke: #e8e8e8; stroke-width: 1.2; stroke-linecap: round"/>
    <path d="M 381.258283 218.040274 
L 389.282255 221.484964 
L 381.306607 225.040108 
z
" clip-path="url(#p931990f9d6)" style="fill: #e8e8e8; stroke: #e8e8e8; stroke-width: 1.2; stroke-linecap: round"/>
   </g>
   <g id="patch_36">
    <path d="M 228.161542 218.90277 
Q 159.732517 198.521966 92.738146 178.568458 
" clip-path="url(#p931990f9d6)" style="fill: none; stroke: #e8e8e8; stroke-width: 1.2; stroke-linecap: round"/>
    <path d="M 99.406239 184.206414 
L 92.738146 178.568458 
L 101.404367 177.497652 
z
" clip-path="url(#p931990f9d6)" style="fill: #e8e8e8; stroke: #e8e8e8; stroke-width: 1.2; stroke-linecap: round"/>
   </g>
   <g id="patch_37">
    <path d="M 248.020195 212.556135 
Q 286.742903 162.70923 324.547278 114.044476 
" clip-path="url(#p931990f9d6)" style="fill: none; stroke: #e8e8e8; stroke-width: 1.2; stroke-linecap: round"/>
    <path d="M 316.875476 118.215022 
L 324.547278 114.044476 
L 322.403472 122.50935 
z
" clip-path="url(#p931990f9d6)" style="fill: #e8e8e8; stroke: #e8e8e8; stroke-width: 1.2; stroke-linecap: round"/>
   </g>
   <g id="patch_38">
    <path d="M 227.751477 220.79923 
Q 226.011533 220.561236 225.754715 220.526108 
" clip-path="url(#p931990f9d6)" style="fill: none; stroke: #e8e8e8; stroke-width: 1.2; stroke-linecap: round"/>
    <path d="M 233.206591 225.077981 
L 225.754715 220.526108 
L 234.155233 218.142559 
z
" clip-path="url(#p931990f9d6)" style="fill: #e8e8e8; stroke: #e8e8e8; stroke-width: 1.2; stroke-linecap: round"/>
   </g>
   <g id="patch_39">
    <path d="M 227.630714 222.52569 
Q 199.655857 222.55246 173.177936 222.577797 
" clip-path="url(#p931990f9d6)" style="fill: none; stroke: #e8e8e8; stroke-width: 1.2; stroke-linecap: round"/>
    <path d="M 181.181281 226.07014 
L 173.177936 222.577797 
L 181.174583 219.070144 
z
" clip-path="url(#p931990f9d6)" style="fill: #e8e8e8; stroke: #e8e8e8; stroke-width: 1.2; stroke-linecap: round"/>
   </g>
   <g id="patch_40">
    <path d="M 202.559499 34.308493 
Q 145.037235 99.683612 88.503812 163.934894 
" clip-path="url(#p931990f9d6)" style="fill: none; stroke: #e8e8e8; stroke-width: 1.2; stroke-linecap: round"/>
    <path d="M 96.416083 160.240849 
L 88.503812 163.934894 
L 91.160776 155.616809 
z
" clip-path="url(#p931990f9d6)" style="fill: #e8e8e8; stroke: #e8e8e8; stroke-width: 1.2; stroke-linecap: round"/>
   </g>
   <g id="patch_41">
    <path d="M 221.538553 31.636 
Q 272.047015 63.872876 321.293648 95.304392 
" clip-path="url(#p931990f9d6)" style="fill: none; stroke: #e8e8e8; stroke-width: 1.2; stroke-linecap: round"/>
    <path d="M 316.433132 88.050056 
L 321.293648 95.304392 
L 312.667097 93.950648 
z
" clip-path="url(#p931990f9d6)" style="fill: #e8e8e8; stroke: #e8e8e8; stroke-width: 1.2; stroke-linecap: round"/>
   </g>
   <g id="patch_42">
    <path d="M 206.595581 36.675355 
Q 191.47735 78.334795 176.869771 118.587093 
" clip-path="url(#p931990f9d6)" style="fill: none; stroke: #e8e8e8; stroke-width: 1.2; stroke-linecap: round"/>
    <path d="M 182.888881 112.260932 
L 176.869771 118.587093 
L 176.308773 109.873008 
z
" clip-path="url(#p931990f9d6)" style="fill: #e8e8e8; stroke: #e8e8e8; stroke-width: 1.2; stroke-linecap: round"/>
   </g>
   <g id="patch_43">
    <path d="M 216.70719 36.012811 
Q 260.564811 120.257364 303.731191 203.174137 
" clip-path="url(#p931990f9d6)" style="fill: none; stroke: #e8e8e8; stroke-width: 1.2; stroke-linecap: round"/>
    <path d="M 303.141521 194.461945 
L 303.731191 203.174137 
L 296.932527 197.694341 
z
" clip-path="url(#p931990f9d6)" style="fill: #e8e8e8; stroke: #e8e8e8; stroke-width: 1.2; stroke-linecap: round"/>
   </g>
   <g id="patch_44">
    <path d="M 87.512018 165.062088 
Q 145.034282 99.686969 201.567704 35.435686 
" clip-path="url(#p931990f9d6)" style="fill: none; stroke: #e8e8e8; stroke-width: 1.2; stroke-linecap: round"/>
    <path d="M 193.655434 39.129732 
L 201.567704 35.435686 
L 198.910741 43.753772 
z
" clip-path="url(#p931990f9d6)" style="fill: #e8e8e8; stroke: #e8e8e8; stroke-width: 1.2; stroke-linecap: round"/>
   </g>
   <g id="patch_45">
    <path d="M 89.321787 182.057481 
Q 140.893343 220.335508 191.262882 257.721362 
" clip-path="url(#p931990f9d6)" style="fill: none; stroke: #e8e8e8; stroke-width: 1.2; stroke-linecap: round"/>
    <path d="M 186.925008 250.142915 
L 191.262882 257.721362 
L 182.753007 255.763806 
z
" clip-path="url(#p931990f9d6)" style="fill: #e8e8e8; stroke: #e8e8e8; stroke-width: 1.2; stroke-linecap: round"/>
   </g>
   <g id="patch_46">
    <path d="M 90.666856 169.250266 
Q 125.622858 153.180351 159.218762 137.735697 
" clip-path="url(#p931990f9d6)" style="fill: none; stroke: #e8e8e8; stroke-width: 1.2; stroke-linecap: round"/>
    <path d="M 150.488131 137.897196 
L 159.218762 137.735697 
L 153.411992 144.257309 
z
" clip-path="url(#p931990f9d6)" style="fill: #e8e8e8; stroke: #e8e8e8; stroke-width: 1.2; stroke-linecap: round"/>
   </g>
   <g id="patch_47">
    <path d="M 74.203782 186.102475 
Q 63.954898 209.931431 54.297462 232.385248 
" clip-path="url(#p931990f9d6)" style="fill: none; stroke: #e8e8e8; stroke-width: 1.2; stroke-linecap: round"/>
    <path d="M 60.673541 226.419042 
L 54.297462 232.385248 
L 54.243095 223.653293 
z
" clip-path="url(#p931990f9d6)" style="fill: #e8e8e8; stroke: #e8e8e8; stroke-width: 1.2; stroke-linecap: round"/>
   </g>
   <g id="patch_48">
    <path d="M 90.00354 181.044686 
Q 119.103579 198.559854 146.921081 215.303069 
" clip-path="url(#p931990f9d6)" style="fill: none; stroke: #e8e8e8; stroke-width: 1.2; stroke-linecap: round"/>
    <path d="M 141.871786 208.178841 
L 146.921081 215.303069 
L 138.261962 214.176272 
z
" clip-path="url(#p931990f9d6)" style="fill: #e8e8e8; stroke: #e8e8e8; stroke-width: 1.2; stroke-linecap: round"/>
   </g>
   <g id="patch_49">
    <path d="M 91.304262 178.141392 
Q 159.733288 198.522195 226.727658 218.475704 
" clip-path="url(#p931990f9d6)" style="fill: none; stroke: #e8e8e8; stroke-width: 1.2; stroke-linecap: round"/>
    <path d="M 220.059566 212.837748 
L 226.727658 218.475704 
L 218.061438 219.54651 
z
" clip-path="url(#p931990f9d6)" style="fill: #e8e8e8; stroke: #e8e8e8; stroke-width: 1.2; stroke-linecap: round"/>
   </g>
   <g id="patch_50">
    <path d="M 335.097896 115.345857 
Q 349.87273 212.265181 364.42197 307.704666 
" clip-path="url(#p931990f9d6)" style="fill: none; stroke: #e8e8e8; stroke-width: 1.2; stroke-linecap: round"/>
    <path d="M 366.676367 299.268571 
L 364.42197 307.704666 
L 359.756314 300.323497 
z
" clip-path="url(#p931990f9d6)" style="fill: #e8e8e8; stroke: #e8e8e8; stroke-width: 1.2; stroke-linecap: round"/>
   </g>
   <g id="patch_51">
    <path d="M 322.553345 96.10839 
Q 272.044883 63.871515 222.798251 32.439999 
" clip-path="url(#p931990f9d6)" style="fill: none; stroke: #e8e8e8; stroke-width: 1.2; stroke-linecap: round"/>
    <path d="M 227.658766 39.694334 
L 222.798251 32.439999 
L 231.424801 33.793743 
z
" clip-path="url(#p931990f9d6)" style="fill: #e8e8e8; stroke: #e8e8e8; stroke-width: 1.2; stroke-linecap: round"/>
   </g>
   <g id="patch_52">
    <path d="M 325.324769 112.749664 
Q 267.904635 184.522335 211.419649 255.126112 
" clip-path="url(#p931990f9d6)" style="fill: none; stroke: #e8e8e8; stroke-width: 1.2; stroke-linecap: round"/>
    <path d="M 219.150319 251.065726 
L 211.419649 255.126112 
L 213.684311 246.692768 
z
" clip-path="url(#p931990f9d6)" style="fill: #e8e8e8; stroke: #e8e8e8; stroke-width: 1.2; stroke-linecap: round"/>
   </g>
   <g id="patch_53">
    <path d="M 320.746248 105.140225 
Q 252.631249 117.367742 185.989634 129.330767 
" clip-path="url(#p931990f9d6)" style="fill: none; stroke: #e8e8e8; stroke-width: 1.2; stroke-linecap: round"/>
    <path d="M 194.482178 131.362192 
L 185.989634 129.330767 
L 193.245359 124.472325 
z
" clip-path="url(#p931990f9d6)" style="fill: #e8e8e8; stroke: #e8e8e8; stroke-width: 1.2; stroke-linecap: round"/>
   </g>
   <g id="patch_54">
    <path d="M 322.955901 110.281937 
Q 272.438834 146.658599 223.136532 182.160525 
" clip-path="url(#p931990f9d6)" style="fill: none; stroke: #e8e8e8; stroke-width: 1.2; stroke-linecap: round"/>
    <path d="M 231.673769 180.32597 
L 223.136532 182.160525 
L 227.583312 174.645463 
z
" clip-path="url(#p931990f9d6)" style="fill: #e8e8e8; stroke: #e8e8e8; stroke-width: 1.2; stroke-linecap: round"/>
   </g>
   <g id="patch_55">
    <path d="M 324.064635 111.607763 
Q 272.468906 160.756849 221.957057 208.873453 
" clip-path="url(#p931990f9d6)" style="fill: none; stroke: #e8e8e8; stroke-width: 1.2; stroke-linecap: round"/>
    <path d="M 230.163641 205.889835 
L 221.957057 208.873453 
L 225.335525 200.821375 
z
" clip-path="url(#p931990f9d6)" style="fill: #e8e8e8; stroke: #e8e8e8; stroke-width: 1.2; stroke-linecap: round"/>
   </g>
   <g id="patch_56">
    <path d="M 321.551878 107.821964 
Q 290.178513 121.065654 260.184244 133.727185 
" clip-path="url(#p931990f9d6)" style="fill: none; stroke: #e8e8e8; stroke-width: 1.2; stroke-linecap: round"/>
    <path d="M 268.915634 133.840453 
L 260.184244 133.727185 
L 266.193325 127.391497 
z
" clip-path="url(#p931990f9d6)" style="fill: #e8e8e8; stroke: #e8e8e8; stroke-width: 1.2; stroke-linecap: round"/>
   </g>
   <g id="patch_57">
    <path d="M 174.855495 144.107315 
Q 187.335331 198.98576 199.483226 252.404537 
" clip-path="url(#p931990f9d6)" style="fill: none; stroke: #e8e8e8; stroke-width: 1.2; stroke-linecap: round"/>
    <path d="M 201.122114 243.827588 
L 199.483226 252.404537 
L 194.296384 245.379819 
z
" clip-path="url(#p931990f9d6)" style="fill: #e8e8e8; stroke: #e8e8e8; stroke-width: 1.2; stroke-linecap: round"/>
   </g>
   <g id="patch_58">
    <path d="M 184.518688 129.59482 
Q 252.633687 117.367304 319.275303 105.404279 
" clip-path="url(#p931990f9d6)" style="fill: none; stroke: #e8e8e8; stroke-width: 1.2; stroke-linecap: round"/>
    <path d="M 310.782758 103.372853 
L 319.275303 105.404279 
L 312.019578 110.262721 
z
" clip-path="url(#p931990f9d6)" style="fill: #e8e8e8; stroke: #e8e8e8; stroke-width: 1.2; stroke-linecap: round"/>
   </g>
   <g id="patch_59">
    <path d="M 182.865045 138.385006 
Q 241.153347 173.754782 298.161896 208.347995 
" clip-path="url(#p931990f9d6)" style="fill: none; stroke: #e8e8e8; stroke-width: 1.2; stroke-linecap: round"/>
    <path d="M 293.138268 201.205644 
L 298.161896 208.347995 
L 289.506888 207.190047 
z
" clip-path="url(#p931990f9d6)" style="fill: #e8e8e8; stroke: #e8e8e8; stroke-width: 1.2; stroke-linecap: round"/>
   </g>
   <g id="patch_60">
    <path d="M 160.10194 127.730831 
Q 110.604093 110.765698 62.522316 94.285915 
" clip-path="url(#p931990f9d6)" style="fill: none; stroke: #e8e8e8; stroke-width: 1.2; stroke-linecap: round"/>
    <path d="M 68.955341 100.190675 
L 62.522316 94.285915 
L 71.224946 93.568825 
z
" clip-path="url(#p931990f9d6)" style="fill: #e8e8e8; stroke: #e8e8e8; stroke-width: 1.2; stroke-linecap: round"/>
   </g>
   <g id="patch_61">
    <path d="M 184.654588 133.070465 
Q 209.610413 135.527832 233.076507 137.838507 
" clip-path="url(#p931990f9d6)" style="fill: none; stroke: #e8e8e8; stroke-width: 1.2; stroke-linecap: round"/>
    <path d="M 225.457993 133.571395 
L 233.076507 137.838507 
L 224.77203 140.537704 
z
" clip-path="url(#p931990f9d6)" style="fill: #e8e8e8; stroke: #e8e8e8; stroke-width: 1.2; stroke-linecap: round"/>
   </g>
   <g id="patch_62">
    <path d="M 203.038844 253.564856 
Q 206.748842 145.491615 210.407483 38.914428 
" clip-path="url(#p931990f9d6)" style="fill: none; stroke: #e8e8e8; stroke-width: 1.2; stroke-linecap: round"/>
    <path d="M 206.635076 46.789639 
L 210.407483 38.914428 
L 213.630956 47.029797 
z
" clip-path="url(#p931990f9d6)" style="fill: #e8e8e8; stroke: #e8e8e8; stroke-width: 1.2; stroke-linecap: round"/>
   </g>
   <g id="patch_63">
    <path d="M 192.466201 258.614503 
Q 140.894646 220.336476 90.525107 182.950622 
" clip-path="url(#p931990f9d6)" style="fill: none; stroke: #e8e8e8; stroke-width: 1.2; stroke-linecap: round"/>
    <path d="M 94.862981 190.529069 
L 90.525107 182.950622 
L 99.034982 184.908178 
z
" clip-path="url(#p931990f9d6)" style="fill: #e8e8e8; stroke: #e8e8e8; stroke-width: 1.2; stroke-linecap: round"/>
   </g>
   <g id="patch_64">
    <path d="M 204.102778 253.644816 
Q 207.138756 228.278647 209.996841 204.398805 
" clip-path="url(#p931990f9d6)" style="fill: none; stroke: #e8e8e8; stroke-width: 1.2; stroke-linecap: round"/>
    <path d="M 205.57094 211.926181 
L 209.996841 204.398805 
L 212.521335 212.758047 
z
" clip-path="url(#p931990f9d6)" style="fill: #e8e8e8; stroke: #e8e8e8; stroke-width: 1.2; stroke-linecap: round"/>
   </g>
   <g id="patch_65">
    <path d="M 214.050515 260.776129 
Q 256.423743 240.909316 297.441611 221.677968 
" clip-path="url(#p931990f9d6)" style="fill: none; stroke: #e8e8e8; stroke-width: 1.2; stroke-linecap: round"/>
    <path d="M 288.71244 221.905069 
L 297.441611 221.677968 
L 291.684012 228.243031 
z
" clip-path="url(#p931990f9d6)" style="fill: #e8e8e8; stroke: #e8e8e8; stroke-width: 1.2; stroke-linecap: round"/>
   </g>
   <g id="patch_66">
    <path d="M 392.86656 228.310806 
Q 284.198704 299.513415 176.782942 369.895611 
" clip-path="url(#p931990f9d6)" style="fill: none; stroke: #e8e8e8; stroke-width: 1.2; stroke-linecap: round"/>
    <path d="M 185.392663 368.438659 
L 176.782942 369.895611 
L 181.556237 362.58359 
z
" clip-path="url(#p931990f9d6)" style="fill: #e8e8e8; stroke: #e8e8e8; stroke-width: 1.2; stroke-linecap: round"/>
   </g>
   <g id="patch_67">
    <path d="M 390.782121 221.203903 
Q 307.586235 219.998029 225.887128 218.81385 
" clip-path="url(#p931990f9d6)" style="fill: none; stroke: #e8e8e8; stroke-width: 1.2; stroke-linecap: round"/>
    <path d="M 233.835563 222.429425 
L 225.887128 218.81385 
L 233.937013 215.43016 
z
" clip-path="url(#p931990f9d6)" style="fill: #e8e8e8; stroke: #e8e8e8; stroke-width: 1.2; stroke-linecap: round"/>
   </g>
   <g id="patch_68">
    <path d="M 391.505614 225.576451 
Q 336.33962 244.951876 282.585983 263.831252 
" clip-path="url(#p931990f9d6)" style="fill: none; stroke: #e8e8e8; stroke-width: 1.2; stroke-linecap: round"/>
    <path d="M 291.293789 264.482489 
L 282.585983 263.831252 
L 288.974157 257.877998 
z
" clip-path="url(#p931990f9d6)" style="fill: #e8e8e8; stroke: #e8e8e8; stroke-width: 1.2; stroke-linecap: round"/>
   </g>
   <g id="patch_69">
    <path d="M 390.776442 221.474648 
Q 321.857659 221.950436 254.435776 222.415889 
" clip-path="url(#p931990f9d6)" style="fill: none; stroke: #e8e8e8; stroke-width: 1.2; stroke-linecap: round"/>
    <path d="M 262.459747 225.860578 
L 254.435776 222.415889 
L 262.411423 218.860745 
z
" clip-path="url(#p931990f9d6)" style="fill: #e8e8e8; stroke: #e8e8e8; stroke-width: 1.2; stroke-linecap: round"/>
   </g>
   <g id="patch_70">
    <path d="M 177.148315 374.254075 
Q 265.753079 349.632264 352.915559 325.41124 
" clip-path="url(#p931990f9d6)" style="fill: none; stroke: #e8e8e8; stroke-width: 1.2; stroke-linecap: round"/>
    <path d="M 344.270541 324.180927 
L 352.915559 325.41124 
L 346.144711 330.925369 
z
" clip-path="url(#p931990f9d6)" style="fill: #e8e8e8; stroke: #e8e8e8; stroke-width: 1.2; stroke-linecap: round"/>
   </g>
   <g id="patch_71">
    <path d="M 168.991047 365.710931 
Q 183.785537 321.8902 198.101195 279.487754 
" clip-path="url(#p931990f9d6)" style="fill: none; stroke: #e8e8e8; stroke-width: 1.2; stroke-linecap: round"/>
    <path d="M 192.226082 285.947866 
L 198.101195 279.487754 
L 198.858299 288.186995 
z
" clip-path="url(#p931990f9d6)" style="fill: #e8e8e8; stroke: #e8e8e8; stroke-width: 1.2; stroke-linecap: round"/>
   </g>
   <g id="patch_72">
    <path d="M 171.543776 366.894476 
Q 249.081141 240.274322 325.836767 114.930764 
" clip-path="url(#p931990f9d6)" style="fill: none; stroke: #e8e8e8; stroke-width: 1.2; stroke-linecap: round"/>
    <path d="M 318.674131 119.925427 
L 325.836767 114.930764 
L 324.643779 123.581012 
z
" clip-path="url(#p931990f9d6)" style="fill: #e8e8e8; stroke: #e8e8e8; stroke-width: 1.2; stroke-linecap: round"/>
   </g>
   <g id="patch_73">
    <path d="M 173.679473 368.519362 
Q 217.10318 323.078926 259.492682 278.720727 
" clip-path="url(#p931990f9d6)" style="fill: none; stroke: #e8e8e8; stroke-width: 1.2; stroke-linecap: round"/>
    <path d="M 251.435242 282.086386 
L 259.492682 278.720727 
L 256.496019 286.922556 
z
" clip-path="url(#p931990f9d6)" style="fill: #e8e8e8; stroke: #e8e8e8; stroke-width: 1.2; stroke-linecap: round"/>
   </g>
   <g id="patch_74">
    <path d="M 176.213964 371.874726 
Q 204.669232 357.292726 231.792301 343.393415 
" clip-path="url(#p931990f9d6)" style="fill: none; stroke: #e8e8e8; stroke-width: 1.2; stroke-linecap: round"/>
    <path d="M 223.076497 343.927054 
L 231.792301 343.393415 
L 226.268903 350.156705 
z
" clip-path="url(#p931990f9d6)" style="fill: #e8e8e8; stroke: #e8e8e8; stroke-width: 1.2; stroke-linecap: round"/>
   </g>
   <g id="patch_75">
    <path d="M 152.338994 376.841286 
Q 106.65487 373.951019 62.464694 371.155269 
" clip-path="url(#p931990f9d6)" style="fill: none; stroke: #e8e8e8; stroke-width: 1.2; stroke-linecap: round"/>
    <path d="M 70.227741 375.153406 
L 62.464694 371.155269 
L 70.669722 368.167374 
z
" clip-path="url(#p931990f9d6)" style="fill: #e8e8e8; stroke: #e8e8e8; stroke-width: 1.2; stroke-linecap: round"/>
   </g>
   <g id="patch_76">
    <path d="M 260.527144 277.638221 
Q 217.103437 323.078657 174.713935 367.436857 
" clip-path="url(#p931990f9d6)" style="fill: none; stroke: #e8e8e8; stroke-width: 1.2; stroke-linecap: round"/>
    <path d="M 182.771375 364.071197 
L 174.713935 367.436857 
L 177.710599 359.235027 
z
" clip-path="url(#p931990f9d6)" style="fill: #e8e8e8; stroke: #e8e8e8; stroke-width: 1.2; stroke-linecap: round"/>
   </g>
   <g id="patch_77">
    <path d="M 276.971634 258.556345 
Q 289.740678 242.098672 301.592098 226.8237 
" clip-path="url(#p931990f9d6)" style="fill: none; stroke: #e8e8e8; stroke-width: 1.2; stroke-linecap: round"/>
    <path d="M 293.922797 230.998845 
L 301.592098 226.8237 
L 299.453368 235.289858 
z
" clip-path="url(#p931990f9d6)" style="fill: #e8e8e8; stroke: #e8e8e8; stroke-width: 1.2; stroke-linecap: round"/>
   </g>
   <g id="patch_78">
    <path d="M 257.575815 263.655821 
Q 214.13666 245.554539 172.079274 228.029046 
" clip-path="url(#p931990f9d6)" style="fill: none; stroke: #e8e8e8; stroke-width: 1.2; stroke-linecap: round"/>
    <path d="M 178.117533 234.336932 
L 172.079274 228.029046 
L 180.810048 227.87548 
z
" clip-path="url(#p931990f9d6)" style="fill: #e8e8e8; stroke: #e8e8e8; stroke-width: 1.2; stroke-linecap: round"/>
   </g>
   <g id="patch_79">
    <path d="M 61.265384 247.028153 
Q 125.666709 255.736966 188.584601 264.245178 
" clip-path="url(#p931990f9d6)" style="fill: none; stroke: #e8e8e8; stroke-width: 1.2; stroke-linecap: round"/>
    <path d="M 181.125784 259.704687 
L 188.584601 264.245178 
L 180.187732 266.641549 
z
" clip-path="url(#p931990f9d6)" style="fill: #e8e8e8; stroke: #e8e8e8; stroke-width: 1.2; stroke-linecap: round"/>
   </g>
   <g id="patch_80">
    <path d="M 60.712026 241.294142 
Q 130.199138 217.875155 198.267713 194.934253 
" clip-path="url(#p931990f9d6)" style="fill: none; stroke: #e8e8e8; stroke-width: 1.2; stroke-linecap: round"/>
    <path d="M 189.568872 194.172559 
L 198.267713 194.934253 
L 191.804502 200.805957 
z
" clip-path="url(#p931990f9d6)" style="fill: #e8e8e8; stroke: #e8e8e8; stroke-width: 1.2; stroke-linecap: round"/>
   </g>
   <g id="patch_81">
    <path d="M 48.762118 232.750459 
Q 48.935517 167.517748 49.104938 103.781966 
" clip-path="url(#p931990f9d6)" style="fill: none; stroke: #e8e8e8; stroke-width: 1.2; stroke-linecap: round"/>
    <path d="M 45.583685 111.772635 
L 49.104938 103.781966 
L 52.58366 111.791242 
z
" clip-path="url(#p931990f9d6)" style="fill: #e8e8e8; stroke: #e8e8e8; stroke-width: 1.2; stroke-linecap: round"/>
   </g>
   <g id="patch_82">
    <path d="M 59.87191 239.374192 
Q 147.944687 192.278784 234.697406 145.889255 
" clip-path="url(#p931990f9d6)" style="fill: none; stroke: #e8e8e8; stroke-width: 1.2; stroke-linecap: round"/>
    <path d="M 225.992265 146.575205 
L 234.697406 145.889255 
L 229.293107 152.748085 
z
" clip-path="url(#p931990f9d6)" style="fill: #e8e8e8; stroke: #e8e8e8; stroke-width: 1.2; stroke-linecap: round"/>
   </g>
   <g id="patch_83">
    <path d="M 258.349609 145.108448 
Q 325.299571 180.307933 390.924563 214.810804 
" clip-path="url(#p931990f9d6)" style="fill: none; stroke: #e8e8e8; stroke-width: 1.2; stroke-linecap: round"/>
    <path d="M 385.47235 207.99 
L 390.924563 214.810804 
L 382.214831 214.185851 
z
" clip-path="url(#p931990f9d6)" style="fill: #e8e8e8; stroke: #e8e8e8; stroke-width: 1.2; stroke-linecap: round"/>
   </g>
   <g id="patch_84">
    <path d="M 255.187105 148.954266 
Q 278.701625 177.453232 301.263452 204.79756 
" clip-path="url(#p931990f9d6)" style="fill: none; stroke: #e8e8e8; stroke-width: 1.2; stroke-linecap: round"/>
    <path d="M 298.871691 196.399376 
L 301.263452 204.79756 
L 293.472345 200.854381 
z
" clip-path="url(#p931990f9d6)" style="fill: #e8e8e8; stroke: #e8e8e8; stroke-width: 1.2; stroke-linecap: round"/>
   </g>
   <g id="patch_85">
    <path d="M 236.016456 145.183916 
Q 147.943679 192.279323 61.19096 238.668853 
" clip-path="url(#p931990f9d6)" style="fill: none; stroke: #e8e8e8; stroke-width: 1.2; stroke-linecap: round"/>
    <path d="M 69.896101 237.982902 
L 61.19096 238.668853 
L 66.595259 231.810022 
z
" clip-path="url(#p931990f9d6)" style="fill: #e8e8e8; stroke: #e8e8e8; stroke-width: 1.2; stroke-linecap: round"/>
   </g>
   <g id="patch_86">
    <path d="M 246.98229 151.809881 
Q 245.766053 238.086665 244.570917 322.866661 
" clip-path="url(#p931990f9d6)" style="fill: none; stroke: #e8e8e8; stroke-width: 1.2; stroke-linecap: round"/>
    <path d="M 248.183333 314.91679 
L 244.570917 322.866661 
L 241.184029 314.818122 
z
" clip-path="url(#p931990f9d6)" style="fill: #e8e8e8; stroke: #e8e8e8; stroke-width: 1.2; stroke-linecap: round"/>
   </g>
   <g id="patch_87">
    <path d="M 50.301138 357.828509 
Q 63.761636 272.39556 76.989157 188.441306 
" clip-path="url(#p931990f9d6)" style="fill: none; stroke: #e8e8e8; stroke-width: 1.2; stroke-linecap: round"/>
    <path d="M 72.286716 195.799094 
L 76.989157 188.441306 
L 79.201417 196.888549 
z
" clip-path="url(#p931990f9d6)" style="fill: #e8e8e8; stroke: #e8e8e8; stroke-width: 1.2; stroke-linecap: round"/>
   </g>
   <g id="patch_88">
    <path d="M 54.14353 359.081691 
Q 110.201474 251.04904 165.569956 144.345095 
" clip-path="url(#p931990f9d6)" style="fill: none; stroke: #e8e8e8; stroke-width: 1.2; stroke-linecap: round"/>
    <path d="M 158.778635 149.83399 
L 165.569956 144.345095 
L 164.991953 153.058069 
z
" clip-path="url(#p931990f9d6)" style="fill: #e8e8e8; stroke: #e8e8e8; stroke-width: 1.2; stroke-linecap: round"/>
   </g>
   <g id="patch_89">
    <path d="M 48.38112 357.679757 
Q 48.535426 307.79982 48.685102 259.416812 
" clip-path="url(#p931990f9d6)" style="fill: none; stroke: #e8e8e8; stroke-width: 1.2; stroke-linecap: round"/>
    <path d="M 45.160371 267.405946 
L 48.685102 259.416812 
L 52.160337 267.427601 
z
" clip-path="url(#p931990f9d6)" style="fill: #e8e8e8; stroke: #e8e8e8; stroke-width: 1.2; stroke-linecap: round"/>
   </g>
   <g id="patch_90">
    <path d="M 57.590613 361.677985 
Q 130.037979 294.436836 201.388164 228.214024 
" clip-path="url(#p931990f9d6)" style="fill: none; stroke: #e8e8e8; stroke-width: 1.2; stroke-linecap: round"/>
    <path d="M 193.143567 231.090936 
L 201.388164 228.214024 
L 197.90553 236.221599 
z
" clip-path="url(#p931990f9d6)" style="fill: #e8e8e8; stroke: #e8e8e8; stroke-width: 1.2; stroke-linecap: round"/>
   </g>
   <g id="patch_91">
    <path d="M 59.824683 364.973097 
Q 158.794694 319.38872 256.405056 274.430579 
" clip-path="url(#p931990f9d6)" style="fill: none; stroke: #e8e8e8; stroke-width: 1.2; stroke-linecap: round"/>
    <path d="M 247.674543 274.598342 
L 256.405056 274.430579 
L 250.602967 280.956356 
z
" clip-path="url(#p931990f9d6)" style="fill: #e8e8e8; stroke: #e8e8e8; stroke-width: 1.2; stroke-linecap: round"/>
   </g>
   <g id="patch_92">
    <path d="M 61.104105 93.799831 
Q 110.601952 110.764964 158.683729 127.244747 
" clip-path="url(#p931990f9d6)" style="fill: none; stroke: #e8e8e8; stroke-width: 1.2; stroke-linecap: round"/>
    <path d="M 152.250704 121.339988 
L 158.683729 127.244747 
L 149.981099 127.961838 
z
" clip-path="url(#p931990f9d6)" style="fill: #e8e8e8; stroke: #e8e8e8; stroke-width: 1.2; stroke-linecap: round"/>
   </g>
   <g id="patch_93">
    <path d="M 57.178087 99.417913 
Q 104.085866 156.145318 150.039719 211.719102 
" clip-path="url(#p931990f9d6)" style="fill: none; stroke: #e8e8e8; stroke-width: 1.2; stroke-linecap: round"/>
    <path d="M 147.638988 203.323479 
L 150.039719 211.719102 
L 142.244404 207.784249 
z
" clip-path="url(#p931990f9d6)" style="fill: #e8e8e8; stroke: #e8e8e8; stroke-width: 1.2; stroke-linecap: round"/>
   </g>
   <g id="patch_94">
    <path d="M 56.95958 99.600017 
Q 146.758877 213.325215 235.630502 325.875576 
" clip-path="url(#p931990f9d6)" style="fill: none; stroke: #e8e8e8; stroke-width: 1.2; stroke-linecap: round"/>
    <path d="M 233.419694 317.427953 
L 235.630502 325.875576 
L 227.925896 321.765947 
z
" clip-path="url(#p931990f9d6)" style="fill: #e8e8e8; stroke: #e8e8e8; stroke-width: 1.2; stroke-linecap: round"/>
   </g>
   <g id="patch_95">
    <path d="M 211.611007 177.83698 
Q 211.280455 107.632209 210.956952 38.924357 
" clip-path="url(#p931990f9d6)" style="fill: none; stroke: #797979; stroke-width: 1.2; stroke-linecap: round"/>
    <path d="M 207.494658 46.940747 
L 210.956952 38.924357 
L 214.49458 46.907789 
z
" clip-path="url(#p931990f9d6)" style="fill: #797979; stroke: #797979; stroke-width: 1.2; stroke-linecap: round"/>
   </g>
   <g id="patch_96">
    <path d="M 322.870338 216.451117 
Q 356.838832 218.532398 389.313192 220.522132 
" clip-path="url(#p931990f9d6)" style="fill: none; stroke: #797979; stroke-width: 1.2; stroke-linecap: round"/>
    <path d="M 381.542214 216.539433 
L 389.313192 220.522132 
L 381.11412 223.526331 
z
" clip-path="url(#p931990f9d6)" style="fill: #797979; stroke: #797979; stroke-width: 1.2; stroke-linecap: round"/>
   </g>
   <g id="patch_97">
    <path d="M 247.000662 233.182482 
Q 254.765815 245.518533 261.733528 256.587735 
" clip-path="url(#p931990f9d6)" style="fill: none; stroke: #797979; stroke-width: 1.2; stroke-linecap: round"/>
    <path d="M 260.433834 247.952876 
L 261.733528 256.587735 
L 254.509774 251.681885 
z
" clip-path="url(#p931990f9d6)" style="fill: #797979; stroke: #797979; stroke-width: 1.2; stroke-linecap: round"/>
   </g>
   <g id="patch_98">
    <path d="M 210.94987 37.420268 
Q 211.280422 107.625039 211.603925 176.332892 
" clip-path="url(#p931990f9d6)" style="fill: none; stroke: #797979; stroke-width: 1.2; stroke-linecap: round"/>
    <path d="M 215.06622 168.316501 
L 211.603925 176.332892 
L 208.066297 168.349459 
z
" clip-path="url(#p931990f9d6)" style="fill: #797979; stroke: #797979; stroke-width: 1.2; stroke-linecap: round"/>
   </g>
   <g id="patch_99">
    <path d="M 209.009186 276.994926 
Q 223.489951 301.544349 237.210182 324.80443 
" clip-path="url(#p931990f9d6)" style="fill: none; stroke: #797979; stroke-width: 1.2; stroke-linecap: round"/>
    <path d="M 236.160323 316.135648 
L 237.210182 324.80443 
L 230.131073 319.692071 
z
" clip-path="url(#p931990f9d6)" style="fill: #797979; stroke: #797979; stroke-width: 1.2; stroke-linecap: round"/>
   </g>
   <g id="patch_100">
    <path d="M 390.803072 220.613418 
Q 356.834578 218.532137 324.360217 216.542403 
" clip-path="url(#p931990f9d6)" style="fill: none; stroke: #797979; stroke-width: 1.2; stroke-linecap: round"/>
    <path d="M 332.131196 220.525101 
L 324.360217 216.542403 
L 332.559289 213.538204 
z
" clip-path="url(#p931990f9d6)" style="fill: #797979; stroke: #797979; stroke-width: 1.2; stroke-linecap: round"/>
   </g>
   <g id="patch_101">
    <path d="M 273.779389 256.771058 
Q 301.22164 185.712246 328.124606 116.049853 
" clip-path="url(#p931990f9d6)" style="fill: none; stroke: #797979; stroke-width: 1.2; stroke-linecap: round"/>
    <path d="M 321.977552 122.251766 
L 328.124606 116.049853 
L 328.507518 124.773578 
z
" clip-path="url(#p931990f9d6)" style="fill: #797979; stroke: #797979; stroke-width: 1.2; stroke-linecap: round"/>
   </g>
   <g id="patch_102">
    <path d="M 61.308343 246.655467 
Q 158.983681 256.92499 255.17029 267.037989 
" clip-path="url(#p931990f9d6)" style="fill: none; stroke: #797979; stroke-width: 1.2; stroke-linecap: round"/>
    <path d="M 247.580114 262.720671 
L 255.17029 267.037989 
L 246.848173 269.682298 
z
" clip-path="url(#p931990f9d6)" style="fill: #797979; stroke: #797979; stroke-width: 1.2; stroke-linecap: round"/>
   </g>
   <g id="patch_103">
    <path d="M 237.991338 147.898039 
Q 203.095517 180.90764 169.287172 212.888545 
" clip-path="url(#p931990f9d6)" style="fill: none; stroke: #797979; stroke-width: 1.2; stroke-linecap: round"/>
    <path d="M 177.504117 209.933581 
L 169.287172 212.888545 
L 172.693715 204.848305 
z
" clip-path="url(#p931990f9d6)" style="fill: #797979; stroke: #797979; stroke-width: 1.2; stroke-linecap: round"/>
   </g>
   <g id="patch_104">
    <path d="M 60.994582 94.105388 
Q 226.287921 155.543708 390.178116 216.46049 
" clip-path="url(#p931990f9d6)" style="fill: none; stroke: #797979; stroke-width: 1.2; stroke-linecap: round"/>
    <path d="M 383.898775 210.392552 
L 390.178116 216.46049 
L 381.459947 216.953963 
z
" clip-path="url(#p931990f9d6)" style="fill: #797979; stroke: #797979; stroke-width: 1.2; stroke-linecap: round"/>
   </g>
   <g id="patch_105">
    <path d="M 59.880467 96.354322 
Q 130.40541 140.058073 199.657927 182.973313 
" clip-path="url(#p931990f9d6)" style="fill: none; stroke: #797979; stroke-width: 1.2; stroke-linecap: round"/>
    <path d="M 194.701396 175.784238 
L 199.657927 182.973313 
L 191.014141 181.734377 
z
" clip-path="url(#p931990f9d6)" style="fill: #797979; stroke: #797979; stroke-width: 1.2; stroke-linecap: round"/>
   </g>
   <g id="PathCollection_1">
    <defs>
     <path id="mf3b8b23de2" d="M 0 11.974237 
C 3.175605 11.974237 6.221573 10.712556 8.467064 8.467064 
C 10.712556 6.221573 11.974237 3.175605 11.974237 0 
C 11.974237 -3.175605 10.712556 -6.221573 8.467064 -8.467064 
C 6.221573 -10.712556 3.175605 -11.974237 0 -11.974237 
C -3.175605 -11.974237 -6.221573 -10.712556 -8.467064 -8.467064 
C -10.712556 -6.221573 -11.974237 -3.175605 -11.974237 0 
C -11.974237 3.175605 -10.712556 6.221573 -8.467064 8.467064 
C -6.221573 10.712556 -3.175605 11.974237 0 11.974237 
z
" style="stroke: #f9d9a7; stroke-width: 0.5"/>
    </defs>
    <g clip-path="url(#p931990f9d6)">
     <use xlink:href="#mf3b8b23de2" x="210.890638" y="24.84" style="fill: #f9d9a7; stroke: #f9d9a7; stroke-width: 0.5"/>
    </g>
   </g>
   <g id="PathCollection_2">
    <defs>
     <path id="m89bf11fcb0" d="M 0 14.219911 
C 3.771165 14.219911 7.38838 12.721612 10.054996 10.054996 
C 12.721612 7.38838 14.219911 3.771165 14.219911 0 
C 14.219911 -3.771165 12.721612 -7.38838 10.054996 -10.054996 
C 7.38838 -12.721612 3.771165 -14.219911 0 -14.219911 
C -3.771165 -14.219911 -7.38838 -12.721612 -10.054996 -10.054996 
C -12.721612 -7.38838 -14.219911 -3.771165 -14.219911 0 
C -14.219911 3.771165 -12.721612 7.38838 -10.054996 10.054996 
C -7.38838 12.721612 -3.771165 14.219911 0 14.219911 
z
" style="stroke: #f9ca87; stroke-width: 0.5"/>
    </defs>
    <g clip-path="url(#p931990f9d6)">
     <use xlink:href="#m89bf11fcb0" x="202.607109" y="266.141404" style="fill: #f9ca87; stroke: #f9ca87; stroke-width: 0.5"/>
    </g>
   </g>
   <g id="PathCollection_3">
    <defs>
     <path id="mcf6dead2d1" d="M 0 13.800043 
C 3.659814 13.800043 7.170224 12.345983 9.758104 9.758104 
C 12.345983 7.170224 13.800043 3.659814 13.800043 0 
C 13.800043 -3.659814 12.345983 -7.170224 9.758104 -9.758104 
C 7.170224 -12.345983 3.659814 -13.800043 0 -13.800043 
C -3.659814 -13.800043 -7.170224 -12.345983 -9.758104 -9.758104 
C -12.345983 -7.170224 -13.800043 -3.659814 -13.800043 0 
C -13.800043 3.659814 -12.345983 7.170224 -9.758104 9.758104 
C -7.170224 12.345983 -3.659814 13.800043 0 13.800043 
z
" style="stroke: #f9cd8d; stroke-width: 0.5"/>
    </defs>
    <g clip-path="url(#p931990f9d6)">
     <use xlink:href="#mcf6dead2d1" x="403.433105" y="221.387272" style="fill: #f9cd8d; stroke: #f9cd8d; stroke-width: 0.5"/>
    </g>
   </g>
   <g id="PathCollection_4">
    <defs>
     <path id="m1fc42c1e0c" d="M 0 12.919434 
C 3.426274 12.919434 6.712678 11.558161 9.135419 9.135419 
C 11.558161 6.712678 12.919434 3.426274 12.919434 0 
C 12.919434 -3.426274 11.558161 -6.712678 9.135419 -9.135419 
C 6.712678 -11.558161 3.426274 -12.919434 0 -12.919434 
C -3.426274 -12.919434 -6.712678 -11.558161 -9.135419 -9.135419 
C -11.558161 -6.712678 -12.919434 -3.426274 -12.919434 0 
C -12.919434 3.426274 -11.558161 6.712678 -9.135419 9.135419 
C -6.712678 11.558161 -3.426274 12.919434 0 12.919434 
z
" style="stroke: #f9ce8f; stroke-width: 0.5"/>
    </defs>
    <g clip-path="url(#p931990f9d6)">
     <use xlink:href="#m1fc42c1e0c" x="79.180879" y="174.530581" style="fill: #f9ce8f; stroke: #f9ce8f; stroke-width: 0.5"/>
    </g>
   </g>
   <g id="PathCollection_5">
    <defs>
     <path id="me706e6ddd3" d="M 0 14.219911 
C 3.771165 14.219911 7.38838 12.721612 10.054996 10.054996 
C 12.721612 7.38838 14.219911 3.771165 14.219911 0 
C 14.219911 -3.771165 12.721612 -7.38838 10.054996 -10.054996 
C 7.38838 -12.721612 3.771165 -14.219911 0 -14.219911 
C -3.771165 -14.219911 -7.38838 -12.721612 -10.054996 -10.054996 
C -12.721612 -7.38838 -14.219911 -3.771165 -14.219911 0 
C -14.219911 3.771165 -12.721612 7.38838 -10.054996 10.054996 
C -7.38838 12.721612 -3.771165 14.219911 0 14.219911 
z
" style="stroke: #f9b250; stroke-width: 0.5"/>
    </defs>
    <g clip-path="url(#p931990f9d6)">
     <use xlink:href="#me706e6ddd3" x="333.201261" y="102.90439" style="fill: #f9b250; stroke: #f9b250; stroke-width: 0.5"/>
    </g>
   </g>
   <g id="PathCollection_6">
    <defs>
     <path id="me0b0803f43" d="M 0 11.974237 
C 3.175605 11.974237 6.221573 10.712556 8.467064 8.467064 
C 10.712556 6.221573 11.974237 3.175605 11.974237 0 
C 11.974237 -3.175605 10.712556 -6.221573 8.467064 -8.467064 
C 6.221573 -10.712556 3.175605 -11.974237 0 -11.974237 
C -3.175605 -11.974237 -6.221573 -10.712556 -8.467064 -8.467064 
C -10.712556 -6.221573 -11.974237 -3.175605 -11.974237 0 
C -11.974237 3.175605 -10.712556 6.221573 -8.467064 8.467064 
C -6.221573 10.712556 -3.175605 11.974237 0 11.974237 
z
" style="stroke: #f9ce8e; stroke-width: 0.5"/>
    </defs>
    <g clip-path="url(#p931990f9d6)">
     <use xlink:href="#me0b0803f43" x="164.963626" y="377.64" style="fill: #f9ce8e; stroke: #f9ce8e; stroke-width: 0.5"/>
    </g>
   </g>
   <g id="PathCollection_7">
    <defs>
     <path id="me9c863a086" d="M 0 13.800043 
C 3.659814 13.800043 7.170224 12.345983 9.758104 9.758104 
C 12.345983 7.170224 13.800043 3.659814 13.800043 0 
C 13.800043 -3.659814 12.345983 -7.170224 9.758104 -9.758104 
C 7.170224 -12.345983 3.659814 -13.800043 0 -13.800043 
C -3.659814 -13.800043 -7.170224 -12.345983 -9.758104 -9.758104 
C -12.345983 -7.170224 -13.800043 -3.659814 -13.800043 0 
C -13.800043 3.659814 -12.345983 7.170224 -9.758104 9.758104 
C -7.170224 12.345983 -3.659814 13.800043 0 13.800043 
z
" style="stroke: #f9d8a5; stroke-width: 0.5"/>
    </defs>
    <g clip-path="url(#p931990f9d6)">
     <use xlink:href="#me9c863a086" x="172.063675" y="131.830655" style="fill: #f9d8a5; stroke: #f9d8a5; stroke-width: 0.5"/>
    </g>
   </g>
   <g id="PathCollection_8">
    <defs>
     <path id="mb7f7c3c60c" d="M 0 14.627734 
C 3.87932 14.627734 7.600276 13.086463 10.34337 10.34337 
C 13.086463 7.600276 14.627734 3.87932 14.627734 0 
C 14.627734 -3.87932 13.086463 -7.600276 10.34337 -10.34337 
C 7.600276 -13.086463 3.87932 -14.627734 0 -14.627734 
C -3.87932 -14.627734 -7.600276 -13.086463 -10.34337 -10.34337 
C -13.086463 -7.600276 -14.627734 -3.87932 -14.627734 0 
C -14.627734 3.87932 -13.086463 7.600276 -10.34337 10.34337 
C -7.600276 13.086463 -3.87932 14.627734 0 14.627734 
z
" style="stroke: #f9cc8b; stroke-width: 0.5"/>
    </defs>
    <g clip-path="url(#p931990f9d6)">
     <use xlink:href="#mb7f7c3c60c" x="211.67024" y="190.417248" style="fill: #f9cc8b; stroke: #f9cc8b; stroke-width: 0.5"/>
    </g>
   </g>
   <g id="PathCollection_9">
    <defs>
     <path id="m3787d91198" d="M 0 15.02449 
C 3.984541 15.02449 7.806422 13.441415 10.623919 10.623919 
C 13.441415 7.806422 15.02449 3.984541 15.02449 0 
C 15.02449 -3.984541 13.441415 -7.806422 10.623919 -10.623919 
C 7.806422 -13.441415 3.984541 -15.02449 0 -15.02449 
C -3.984541 -15.02449 -7.806422 -13.441415 -10.623919 -10.623919 
C -13.441415 -7.806422 -15.02449 -3.984541 -15.02449 0 
C -15.02449 3.984541 -13.441415 7.806422 -10.623919 10.623919 
C -7.806422 13.441415 -3.984541 15.02449 0 15.02449 
z
" style="stroke: #f9a22b; stroke-width: 0.5"/>
    </defs>
    <g clip-path="url(#p931990f9d6)">
     <use xlink:href="#m3787d91198" x="310.240304" y="215.677263" style="fill: #f9a22b; stroke: #f9a22b; stroke-width: 0.5"/>
    </g>
   </g>
   <g id="PathCollection_10">
    <defs>
     <path id="mf249e3206a" d="M 0 13.366992 
C 3.544968 13.366992 6.94522 11.958561 9.451891 9.451891 
C 11.958561 6.94522 13.366992 3.544968 13.366992 0 
C 13.366992 -3.544968 11.958561 -6.94522 9.451891 -9.451891 
C 6.94522 -11.958561 3.544968 -13.366992 0 -13.366992 
C -3.544968 -13.366992 -6.94522 -11.958561 -9.451891 -9.451891 
C -11.958561 -6.94522 -13.366992 -3.544968 -13.366992 0 
C -13.366992 3.544968 -11.958561 6.94522 -9.451891 9.451891 
C -6.94522 11.958561 -3.544968 13.366992 0 13.366992 
z
" style="stroke: #f9ca86; stroke-width: 0.5"/>
    </defs>
    <g clip-path="url(#p931990f9d6)">
     <use xlink:href="#mf249e3206a" x="48.728672" y="245.332848" style="fill: #f9ca86; stroke: #f9ca86; stroke-width: 0.5"/>
    </g>
   </g>
   <g id="PathCollection_11">
    <defs>
     <path id="m19d9fcc343" d="M 0 14.219911 
C 3.771165 14.219911 7.38838 12.721612 10.054996 10.054996 
C 12.721612 7.38838 14.219911 3.771165 14.219911 0 
C 14.219911 -3.771165 12.721612 -7.38838 10.054996 -10.054996 
C 7.38838 -12.721612 3.771165 -14.219911 0 -14.219911 
C -3.771165 -14.219911 -7.38838 -12.721612 -10.054996 -10.054996 
C -12.721612 -7.38838 -14.219911 -3.771165 -14.219911 0 
C -14.219911 3.771165 -12.721612 7.38838 -10.054996 10.054996 
C -7.38838 12.721612 -3.771165 14.219911 0 14.219911 
z
" style="stroke: #f9d8a5; stroke-width: 0.5"/>
    </defs>
    <g clip-path="url(#p931990f9d6)">
     <use xlink:href="#m19d9fcc343" x="211.737132" y="218.608754" style="fill: #f9d8a5; stroke: #f9d8a5; stroke-width: 0.5"/>
    </g>
   </g>
   <g id="PathCollection_12">
    <defs>
     <path id="md029587f72" d="M 0 13.366992 
C 3.544968 13.366992 6.94522 11.958561 9.451891 9.451891 
C 11.958561 6.94522 13.366992 3.544968 13.366992 0 
C 13.366992 -3.544968 11.958561 -6.94522 9.451891 -9.451891 
C 6.94522 -11.958561 3.544968 -13.366992 0 -13.366992 
C -3.544968 -13.366992 -6.94522 -11.958561 -9.451891 -9.451891 
C -11.958561 -6.94522 -13.366992 -3.544968 -13.366992 0 
C -13.366992 3.544968 -11.958561 6.94522 -9.451891 9.451891 
C -6.94522 11.958561 -3.544968 13.366992 0 13.366992 
z
" style="stroke: #f9dbac; stroke-width: 0.5"/>
    </defs>
    <g clip-path="url(#p931990f9d6)">
     <use xlink:href="#md029587f72" x="49.14237" y="89.700008" style="fill: #f9dbac; stroke: #f9dbac; stroke-width: 0.5"/>
    </g>
   </g>
   <g id="PathCollection_13">
    <defs>
     <path id="m4be12f5e03" d="M 0 11.974237 
C 3.175605 11.974237 6.221573 10.712556 8.467064 8.467064 
C 10.712556 6.221573 11.974237 3.175605 11.974237 0 
C 11.974237 -3.175605 10.712556 -6.221573 8.467064 -8.467064 
C 6.221573 -10.712556 3.175605 -11.974237 0 -11.974237 
C -3.175605 -11.974237 -6.221573 -10.712556 -8.467064 -8.467064 
C -10.712556 -6.221573 -11.974237 -3.175605 -11.974237 0 
C -11.974237 3.175605 -10.712556 6.221573 -8.467064 8.467064 
C -6.221573 10.712556 -3.175605 11.974237 0 11.974237 
z
" style="stroke: #f9d196; stroke-width: 0.5"/>
    </defs>
    <g clip-path="url(#p931990f9d6)">
     <use xlink:href="#m4be12f5e03" x="269.242991" y="268.517583" style="fill: #f9d196; stroke: #f9d196; stroke-width: 0.5"/>
    </g>
   </g>
   <g id="PathCollection_14">
    <g clip-path="url(#p931990f9d6)">
     <use xlink:href="#m89bf11fcb0" x="159.029948" y="222.591336" style="fill: #f9ca87; stroke: #f9ca87; stroke-width: 0.5"/>
    </g>
   </g>
   <g id="PathCollection_15">
    <defs>
     <path id="m9d453fc02e" d="M 0 13.366992 
C 3.544968 13.366992 6.94522 11.958561 9.451891 9.451891 
C 11.958561 6.94522 13.366992 3.544968 13.366992 0 
C 13.366992 -3.544968 11.958561 -6.94522 9.451891 -9.451891 
C 6.94522 -11.958561 3.544968 -13.366992 0 -13.366992 
C -3.544968 -13.366992 -6.94522 -11.958561 -9.451891 -9.451891 
C -11.958561 -6.94522 -13.366992 -3.544968 -13.366992 0 
C -13.366992 3.544968 -11.958561 6.94522 -9.451891 9.451891 
C -6.94522 11.958561 -3.544968 13.366992 0 13.366992 
z
" style="stroke: #f9bd68; stroke-width: 0.5"/>
    </defs>
    <g clip-path="url(#p931990f9d6)">
     <use xlink:href="#m9d453fc02e" x="244.372432" y="336.946684" style="fill: #f9bd68; stroke: #f9bd68; stroke-width: 0.5"/>
    </g>
   </g>
   <g id="PathCollection_16">
    <defs>
     <path id="me74c9a8c26" d="M 0 13.800043 
C 3.659814 13.800043 7.170224 12.345983 9.758104 9.758104 
C 12.345983 7.170224 13.800043 3.659814 13.800043 0 
C 13.800043 -3.659814 12.345983 -7.170224 9.758104 -9.758104 
C 7.170224 -12.345983 3.659814 -13.800043 0 -13.800043 
C -3.659814 -13.800043 -7.170224 -12.345983 -9.758104 -9.758104 
C -12.345983 -7.170224 -13.800043 -3.659814 -13.800043 0 
C -13.800043 3.659814 -12.345983 7.170224 -9.758104 9.758104 
C -7.170224 12.345983 -3.659814 13.800043 0 13.800043 
z
" style="stroke: #f9d196; stroke-width: 0.5"/>
    </defs>
    <g clip-path="url(#p931990f9d6)">
     <use xlink:href="#me74c9a8c26" x="247.159694" y="139.22526" style="fill: #f9d196; stroke: #f9d196; stroke-width: 0.5"/>
    </g>
   </g>
   <g id="PathCollection_17">
    <defs>
     <path id="mffe879ec08" d="M 0 11.472473 
C 3.042536 11.472473 5.960866 10.263661 8.112264 8.112264 
C 10.263661 5.960866 11.472473 3.042536 11.472473 0 
C 11.472473 -3.042536 10.263661 -5.960866 8.112264 -8.112264 
C 5.960866 -10.263661 3.042536 -11.472473 0 -11.472473 
C -3.042536 -11.472473 -5.960866 -10.263661 -8.112264 -8.112264 
C -10.263661 -5.960866 -11.472473 -3.042536 -11.472473 0 
C -11.472473 3.042536 -10.263661 5.960866 -8.112264 8.112264 
C -5.960866 10.263661 -3.042536 11.472473 0 11.472473 
z
" style="stroke: #f9dfb6; stroke-width: 0.5"/>
    </defs>
    <g clip-path="url(#p931990f9d6)">
     <use xlink:href="#mffe879ec08" x="48.342196" y="370.261791" style="fill: #f9dfb6; stroke: #f9dfb6; stroke-width: 0.5"/>
    </g>
   </g>
   <g id="PathCollection_18">
    <defs>
     <path id="m085707a35c" d="M 0 14.219911 
C 3.771165 14.219911 7.38838 12.721612 10.054996 10.054996 
C 12.721612 7.38838 14.219911 3.771165 14.219911 0 
C 14.219911 -3.771165 12.721612 -7.38838 10.054996 -10.054996 
C 7.38838 -12.721612 3.771165 -14.219911 0 -14.219911 
C -3.771165 -14.219911 -7.38838 -12.721612 -10.054996 -10.054996 
C -12.721612 -7.38838 -14.219911 -3.771165 -14.219911 0 
C -14.219911 3.771165 -12.721612 7.38838 -10.054996 10.054996 
C -7.38838 12.721612 -3.771165 14.219911 0 14.219911 
z
" style="stroke: #f9c171; stroke-width: 0.5"/>
    </defs>
    <g clip-path="url(#p931990f9d6)">
     <use xlink:href="#m085707a35c" x="240.284925" y="222.513581" style="fill: #f9c171; stroke: #f9c171; stroke-width: 0.5"/>
    </g>
   </g>
   <g id="PathCollection_19">
    <defs>
     <path id="ma726922bd4" d="M 0 -11.472473 
L -2.575731 -3.545189 
L -10.910971 -3.545189 
L -4.16762 1.354142 
L -6.743351 9.281426 
L -0 4.382095 
L 6.743351 9.281426 
L 4.16762 1.354142 
L 10.910971 -3.545189 
L 2.575731 -3.545189 
z
" style="stroke: #f9ddb1; stroke-width: 0.8"/>
    </defs>
    <g clip-path="url(#p931990f9d6)">
     <use xlink:href="#ma726922bd4" x="366.543919" y="321.624142" style="fill: #f9ddb1; stroke: #f9ddb1; stroke-width: 0.8"/>
    </g>
   </g>
   <g id="text_1">
    <!-- Deek arovnik -->
    <g transform="translate(176.272278 24.501037) scale(0.09 -0.09)">
     <defs>
      <path id="DejaVuSans-44" d="M 1259 4147 
L 1259 519 
L 2022 519 
Q 2988 519 3436 956 
Q 3884 1394 3884 2338 
Q 3884 3275 3436 3711 
Q 2988 4147 2022 4147 
L 1259 4147 
z
M 628 4666 
L 1925 4666 
Q 3281 4666 3915 4102 
Q 4550 3538 4550 2338 
Q 4550 1131 3912 565 
Q 3275 0 1925 0 
L 628 0 
L 628 4666 
z
" transform="scale(0.015625)"/>
      <path id="DejaVuSans-65" d="M 3597 1894 
L 3597 1613 
L 953 1613 
Q 991 1019 1311 708 
Q 1631 397 2203 397 
Q 2534 397 2845 478 
Q 3156 559 3463 722 
L 3463 178 
Q 3153 47 2828 -22 
Q 2503 -91 2169 -91 
Q 1331 -91 842 396 
Q 353 884 353 1716 
Q 353 2575 817 3079 
Q 1281 3584 2069 3584 
Q 2775 3584 3186 3129 
Q 3597 2675 3597 1894 
z
M 3022 2063 
Q 3016 2534 2758 2815 
Q 2500 3097 2075 3097 
Q 1594 3097 1305 2825 
Q 1016 2553 972 2059 
L 3022 2063 
z
" transform="scale(0.015625)"/>
      <path id="DejaVuSans-10d" d="M 3122 3366 
L 3122 2828 
Q 2878 2963 2633 3030 
Q 2388 3097 2138 3097 
Q 1578 3097 1268 2742 
Q 959 2388 959 1747 
Q 959 1106 1268 751 
Q 1578 397 2138 397 
Q 2388 397 2633 464 
Q 2878 531 3122 666 
L 3122 134 
Q 2881 22 2623 -34 
Q 2366 -91 2075 -91 
Q 1284 -91 818 406 
Q 353 903 353 1747 
Q 353 2603 823 3093 
Q 1294 3584 2113 3584 
Q 2378 3584 2631 3529 
Q 2884 3475 3122 3366 
z
M 1801 3944 
L 1035 5119 
L 1470 5119 
L 2032 4353 
L 2595 5119 
L 3029 5119 
L 2263 3944 
L 1801 3944 
z
" transform="scale(0.015625)"/>
      <path id="DejaVuSans-6b" d="M 581 4863 
L 1159 4863 
L 1159 1991 
L 2875 3500 
L 3609 3500 
L 1753 1863 
L 3688 0 
L 2938 0 
L 1159 1709 
L 1159 0 
L 581 0 
L 581 4863 
z
" transform="scale(0.015625)"/>
      <path id="DejaVuSans-20" transform="scale(0.015625)"/>
      <path id="DejaVuSans-61" d="M 2194 1759 
Q 1497 1759 1228 1600 
Q 959 1441 959 1056 
Q 959 750 1161 570 
Q 1363 391 1709 391 
Q 2188 391 2477 730 
Q 2766 1069 2766 1631 
L 2766 1759 
L 2194 1759 
z
M 3341 1997 
L 3341 0 
L 2766 0 
L 2766 531 
Q 2569 213 2275 61 
Q 1981 -91 1556 -91 
Q 1019 -91 701 211 
Q 384 513 384 1019 
Q 384 1609 779 1909 
Q 1175 2209 1959 2209 
L 2766 2209 
L 2766 2266 
Q 2766 2663 2505 2880 
Q 2244 3097 1772 3097 
Q 1472 3097 1187 3025 
Q 903 2953 641 2809 
L 641 3341 
Q 956 3463 1253 3523 
Q 1550 3584 1831 3584 
Q 2591 3584 2966 3190 
Q 3341 2797 3341 1997 
z
" transform="scale(0.015625)"/>
      <path id="DejaVuSans-72" d="M 2631 2963 
Q 2534 3019 2420 3045 
Q 2306 3072 2169 3072 
Q 1681 3072 1420 2755 
Q 1159 2438 1159 1844 
L 1159 0 
L 581 0 
L 581 3500 
L 1159 3500 
L 1159 2956 
Q 1341 3275 1631 3429 
Q 1922 3584 2338 3584 
Q 2397 3584 2469 3576 
Q 2541 3569 2628 3553 
L 2631 2963 
z
" transform="scale(0.015625)"/>
      <path id="DejaVuSans-6f" d="M 1959 3097 
Q 1497 3097 1228 2736 
Q 959 2375 959 1747 
Q 959 1119 1226 758 
Q 1494 397 1959 397 
Q 2419 397 2687 759 
Q 2956 1122 2956 1747 
Q 2956 2369 2687 2733 
Q 2419 3097 1959 3097 
z
M 1959 3584 
Q 2709 3584 3137 3096 
Q 3566 2609 3566 1747 
Q 3566 888 3137 398 
Q 2709 -91 1959 -91 
Q 1206 -91 779 398 
Q 353 888 353 1747 
Q 353 2609 779 3096 
Q 1206 3584 1959 3584 
z
" transform="scale(0.015625)"/>
      <path id="DejaVuSans-76" d="M 191 3500 
L 800 3500 
L 1894 563 
L 2988 3500 
L 3597 3500 
L 2284 0 
L 1503 0 
L 191 3500 
z
" transform="scale(0.015625)"/>
      <path id="DejaVuSans-6e" d="M 3513 2113 
L 3513 0 
L 2938 0 
L 2938 2094 
Q 2938 2591 2744 2837 
Q 2550 3084 2163 3084 
Q 1697 3084 1428 2787 
Q 1159 2491 1159 1978 
L 1159 0 
L 581 0 
L 581 3500 
L 1159 3500 
L 1159 2956 
Q 1366 3272 1645 3428 
Q 1925 3584 2291 3584 
Q 2894 3584 3203 3211 
Q 3513 2838 3513 2113 
z
" transform="scale(0.015625)"/>
      <path id="DejaVuSans-69" d="M 603 3500 
L 1178 3500 
L 1178 0 
L 603 0 
L 603 3500 
z
M 603 4863 
L 1178 4863 
L 1178 4134 
L 603 4134 
L 603 4863 
z
" transform="scale(0.015625)"/>
     </defs>
     <use xlink:href="#DejaVuSans-44"/>
     <use xlink:href="#DejaVuSans-65" transform="translate(77.001953 0)"/>
     <use xlink:href="#DejaVuSans-10d" transform="translate(138.525391 0)"/>
     <use xlink:href="#DejaVuSans-65" transform="translate(193.505859 0)"/>
     <use xlink:href="#DejaVuSans-6b" transform="translate(255.029297 0)"/>
     <use xlink:href="#DejaVuSans-20" transform="translate(312.939453 0)"/>
     <use xlink:href="#DejaVuSans-10d" transform="translate(344.726562 0)"/>
     <use xlink:href="#DejaVuSans-61" transform="translate(399.707031 0)"/>
     <use xlink:href="#DejaVuSans-72" transform="translate(460.986328 0)"/>
     <use xlink:href="#DejaVuSans-6f" transform="translate(499.849609 0)"/>
     <use xlink:href="#DejaVuSans-76" transform="translate(561.03125 0)"/>
     <use xlink:href="#DejaVuSans-6e" transform="translate(620.210938 0)"/>
     <use xlink:href="#DejaVuSans-69" transform="translate(683.589844 0)"/>
     <use xlink:href="#DejaVuSans-6b" transform="translate(711.373047 0)"/>
    </g>
   </g>
   <g id="text_2">
    <!-- Pametna arovnica -->
    <g transform="translate(159.651094 265.802441) scale(0.09 -0.09)">
     <defs>
      <path id="DejaVuSans-50" d="M 1259 4147 
L 1259 2394 
L 2053 2394 
Q 2494 2394 2734 2622 
Q 2975 2850 2975 3272 
Q 2975 3691 2734 3919 
Q 2494 4147 2053 4147 
L 1259 4147 
z
M 628 4666 
L 2053 4666 
Q 2838 4666 3239 4311 
Q 3641 3956 3641 3272 
Q 3641 2581 3239 2228 
Q 2838 1875 2053 1875 
L 1259 1875 
L 1259 0 
L 628 0 
L 628 4666 
z
" transform="scale(0.015625)"/>
      <path id="DejaVuSans-6d" d="M 3328 2828 
Q 3544 3216 3844 3400 
Q 4144 3584 4550 3584 
Q 5097 3584 5394 3201 
Q 5691 2819 5691 2113 
L 5691 0 
L 5113 0 
L 5113 2094 
Q 5113 2597 4934 2840 
Q 4756 3084 4391 3084 
Q 3944 3084 3684 2787 
Q 3425 2491 3425 1978 
L 3425 0 
L 2847 0 
L 2847 2094 
Q 2847 2600 2669 2842 
Q 2491 3084 2119 3084 
Q 1678 3084 1418 2786 
Q 1159 2488 1159 1978 
L 1159 0 
L 581 0 
L 581 3500 
L 1159 3500 
L 1159 2956 
Q 1356 3278 1631 3431 
Q 1906 3584 2284 3584 
Q 2666 3584 2933 3390 
Q 3200 3197 3328 2828 
z
" transform="scale(0.015625)"/>
      <path id="DejaVuSans-74" d="M 1172 4494 
L 1172 3500 
L 2356 3500 
L 2356 3053 
L 1172 3053 
L 1172 1153 
Q 1172 725 1289 603 
Q 1406 481 1766 481 
L 2356 481 
L 2356 0 
L 1766 0 
Q 1100 0 847 248 
Q 594 497 594 1153 
L 594 3053 
L 172 3053 
L 172 3500 
L 594 3500 
L 594 4494 
L 1172 4494 
z
" transform="scale(0.015625)"/>
      <path id="DejaVuSans-63" d="M 3122 3366 
L 3122 2828 
Q 2878 2963 2633 3030 
Q 2388 3097 2138 3097 
Q 1578 3097 1268 2742 
Q 959 2388 959 1747 
Q 959 1106 1268 751 
Q 1578 397 2138 397 
Q 2388 397 2633 464 
Q 2878 531 3122 666 
L 3122 134 
Q 2881 22 2623 -34 
Q 2366 -91 2075 -91 
Q 1284 -91 818 406 
Q 353 903 353 1747 
Q 353 2603 823 3093 
Q 1294 3584 2113 3584 
Q 2378 3584 2631 3529 
Q 2884 3475 3122 3366 
z
" transform="scale(0.015625)"/>
     </defs>
     <use xlink:href="#DejaVuSans-50"/>
     <use xlink:href="#DejaVuSans-61" transform="translate(55.802734 0)"/>
     <use xlink:href="#DejaVuSans-6d" transform="translate(117.082031 0)"/>
     <use xlink:href="#DejaVuSans-65" transform="translate(214.494141 0)"/>
     <use xlink:href="#DejaVuSans-74" transform="translate(276.017578 0)"/>
     <use xlink:href="#DejaVuSans-6e" transform="translate(315.226562 0)"/>
     <use xlink:href="#DejaVuSans-61" transform="translate(378.605469 0)"/>
     <use xlink:href="#DejaVuSans-20" transform="translate(439.884766 0)"/>
     <use xlink:href="#DejaVuSans-10d" transform="translate(471.671875 0)"/>
     <use xlink:href="#DejaVuSans-61" transform="translate(526.652344 0)"/>
     <use xlink:href="#DejaVuSans-72" transform="translate(587.931641 0)"/>
     <use xlink:href="#DejaVuSans-6f" transform="translate(626.794922 0)"/>
     <use xlink:href="#DejaVuSans-76" transform="translate(687.976562 0)"/>
     <use xlink:href="#DejaVuSans-6e" transform="translate(747.15625 0)"/>
     <use xlink:href="#DejaVuSans-69" transform="translate(810.535156 0)"/>
     <use xlink:href="#DejaVuSans-63" transform="translate(838.318359 0)"/>
     <use xlink:href="#DejaVuSans-61" transform="translate(893.298828 0)"/>
    </g>
   </g>
   <g id="text_3">
    <!-- Modri ravnatelj -->
    <g transform="translate(369.496074 221.048309) scale(0.09 -0.09)">
     <defs>
      <path id="DejaVuSans-4d" d="M 628 4666 
L 1569 4666 
L 2759 1491 
L 3956 4666 
L 4897 4666 
L 4897 0 
L 4281 0 
L 4281 4097 
L 3078 897 
L 2444 897 
L 1241 4097 
L 1241 0 
L 628 0 
L 628 4666 
z
" transform="scale(0.015625)"/>
      <path id="DejaVuSans-64" d="M 2906 2969 
L 2906 4863 
L 3481 4863 
L 3481 0 
L 2906 0 
L 2906 525 
Q 2725 213 2448 61 
Q 2172 -91 1784 -91 
Q 1150 -91 751 415 
Q 353 922 353 1747 
Q 353 2572 751 3078 
Q 1150 3584 1784 3584 
Q 2172 3584 2448 3432 
Q 2725 3281 2906 2969 
z
M 947 1747 
Q 947 1113 1208 752 
Q 1469 391 1925 391 
Q 2381 391 2643 752 
Q 2906 1113 2906 1747 
Q 2906 2381 2643 2742 
Q 2381 3103 1925 3103 
Q 1469 3103 1208 2742 
Q 947 2381 947 1747 
z
" transform="scale(0.015625)"/>
      <path id="DejaVuSans-6c" d="M 603 4863 
L 1178 4863 
L 1178 0 
L 603 0 
L 603 4863 
z
" transform="scale(0.015625)"/>
      <path id="DejaVuSans-6a" d="M 603 3500 
L 1178 3500 
L 1178 -63 
Q 1178 -731 923 -1031 
Q 669 -1331 103 -1331 
L -116 -1331 
L -116 -844 
L 38 -844 
Q 366 -844 484 -692 
Q 603 -541 603 -63 
L 603 3500 
z
M 603 4863 
L 1178 4863 
L 1178 4134 
L 603 4134 
L 603 4863 
z
" transform="scale(0.015625)"/>
     </defs>
     <use xlink:href="#DejaVuSans-4d"/>
     <use xlink:href="#DejaVuSans-6f" transform="translate(86.279297 0)"/>
     <use xlink:href="#DejaVuSans-64" transform="translate(147.460938 0)"/>
     <use xlink:href="#DejaVuSans-72" transform="translate(210.9375 0)"/>
     <use xlink:href="#DejaVuSans-69" transform="translate(252.050781 0)"/>
     <use xlink:href="#DejaVuSans-20" transform="translate(279.833984 0)"/>
     <use xlink:href="#DejaVuSans-72" transform="translate(311.621094 0)"/>
     <use xlink:href="#DejaVuSans-61" transform="translate(352.734375 0)"/>
     <use xlink:href="#DejaVuSans-76" transform="translate(414.013672 0)"/>
     <use xlink:href="#DejaVuSans-6e" transform="translate(473.193359 0)"/>
     <use xlink:href="#DejaVuSans-61" transform="translate(536.572266 0)"/>
     <use xlink:href="#DejaVuSans-74" transform="translate(597.851562 0)"/>
     <use xlink:href="#DejaVuSans-65" transform="translate(637.060547 0)"/>
     <use xlink:href="#DejaVuSans-6c" transform="translate(698.583984 0)"/>
     <use xlink:href="#DejaVuSans-6a" transform="translate(726.367188 0)"/>
    </g>
   </g>
   <g id="text_4">
    <!-- Mladi pilot -->
    <g transform="translate(55.878614 174.191618) scale(0.09 -0.09)">
     <defs>
      <path id="DejaVuSans-70" d="M 1159 525 
L 1159 -1331 
L 581 -1331 
L 581 3500 
L 1159 3500 
L 1159 2969 
Q 1341 3281 1617 3432 
Q 1894 3584 2278 3584 
Q 2916 3584 3314 3078 
Q 3713 2572 3713 1747 
Q 3713 922 3314 415 
Q 2916 -91 2278 -91 
Q 1894 -91 1617 61 
Q 1341 213 1159 525 
z
M 3116 1747 
Q 3116 2381 2855 2742 
Q 2594 3103 2138 3103 
Q 1681 3103 1420 2742 
Q 1159 2381 1159 1747 
Q 1159 1113 1420 752 
Q 1681 391 2138 391 
Q 2594 391 2855 752 
Q 3116 1113 3116 1747 
z
" transform="scale(0.015625)"/>
     </defs>
     <use xlink:href="#DejaVuSans-4d"/>
     <use xlink:href="#DejaVuSans-6c" transform="translate(86.279297 0)"/>
     <use xlink:href="#DejaVuSans-61" transform="translate(114.0625 0)"/>
     <use xlink:href="#DejaVuSans-64" transform="translate(175.341797 0)"/>
     <use xlink:href="#DejaVuSans-69" transform="translate(238.818359 0)"/>
     <use xlink:href="#DejaVuSans-20" transform="translate(266.601562 0)"/>
     <use xlink:href="#DejaVuSans-70" transform="translate(298.388672 0)"/>
     <use xlink:href="#DejaVuSans-69" transform="translate(361.865234 0)"/>
     <use xlink:href="#DejaVuSans-6c" transform="translate(389.648438 0)"/>
     <use xlink:href="#DejaVuSans-6f" transform="translate(417.431641 0)"/>
     <use xlink:href="#DejaVuSans-74" transform="translate(478.613281 0)"/>
    </g>
   </g>
   <g id="text_5">
    <!-- Tihotapec -->
    <g transform="translate(311.116105 102.565428) scale(0.09 -0.09)">
     <defs>
      <path id="DejaVuSans-54" d="M -19 4666 
L 3928 4666 
L 3928 4134 
L 2272 4134 
L 2272 0 
L 1638 0 
L 1638 4134 
L -19 4134 
L -19 4666 
z
" transform="scale(0.015625)"/>
      <path id="DejaVuSans-68" d="M 3513 2113 
L 3513 0 
L 2938 0 
L 2938 2094 
Q 2938 2591 2744 2837 
Q 2550 3084 2163 3084 
Q 1697 3084 1428 2787 
Q 1159 2491 1159 1978 
L 1159 0 
L 581 0 
L 581 4863 
L 1159 4863 
L 1159 2956 
Q 1366 3272 1645 3428 
Q 1925 3584 2291 3584 
Q 2894 3584 3203 3211 
Q 3513 2838 3513 2113 
z
" transform="scale(0.015625)"/>
     </defs>
     <use xlink:href="#DejaVuSans-54"/>
     <use xlink:href="#DejaVuSans-69" transform="translate(57.958984 0)"/>
     <use xlink:href="#DejaVuSans-68" transform="translate(85.742188 0)"/>
     <use xlink:href="#DejaVuSans-6f" transform="translate(149.121094 0)"/>
     <use xlink:href="#DejaVuSans-74" transform="translate(210.302734 0)"/>
     <use xlink:href="#DejaVuSans-61" transform="translate(249.511719 0)"/>
     <use xlink:href="#DejaVuSans-70" transform="translate(310.791016 0)"/>
     <use xlink:href="#DejaVuSans-65" transform="translate(374.267578 0)"/>
     <use xlink:href="#DejaVuSans-63" transform="translate(435.791016 0)"/>
    </g>
   </g>
   <g id="text_6">
    <!-- Zeleni mojster -->
    <g transform="translate(132.446908 377.301037) scale(0.09 -0.09)">
     <defs>
      <path id="DejaVuSans-5a" d="M 359 4666 
L 4025 4666 
L 4025 4184 
L 1075 531 
L 4097 531 
L 4097 0 
L 288 0 
L 288 481 
L 3238 4134 
L 359 4134 
L 359 4666 
z
" transform="scale(0.015625)"/>
      <path id="DejaVuSans-73" d="M 2834 3397 
L 2834 2853 
Q 2591 2978 2328 3040 
Q 2066 3103 1784 3103 
Q 1356 3103 1142 2972 
Q 928 2841 928 2578 
Q 928 2378 1081 2264 
Q 1234 2150 1697 2047 
L 1894 2003 
Q 2506 1872 2764 1633 
Q 3022 1394 3022 966 
Q 3022 478 2636 193 
Q 2250 -91 1575 -91 
Q 1294 -91 989 -36 
Q 684 19 347 128 
L 347 722 
Q 666 556 975 473 
Q 1284 391 1588 391 
Q 1994 391 2212 530 
Q 2431 669 2431 922 
Q 2431 1156 2273 1281 
Q 2116 1406 1581 1522 
L 1381 1569 
Q 847 1681 609 1914 
Q 372 2147 372 2553 
Q 372 3047 722 3315 
Q 1072 3584 1716 3584 
Q 2034 3584 2315 3537 
Q 2597 3491 2834 3397 
z
" transform="scale(0.015625)"/>
     </defs>
     <use xlink:href="#DejaVuSans-5a"/>
     <use xlink:href="#DejaVuSans-65" transform="translate(68.505859 0)"/>
     <use xlink:href="#DejaVuSans-6c" transform="translate(130.029297 0)"/>
     <use xlink:href="#DejaVuSans-65" transform="translate(157.8125 0)"/>
     <use xlink:href="#DejaVuSans-6e" transform="translate(219.335938 0)"/>
     <use xlink:href="#DejaVuSans-69" transform="translate(282.714844 0)"/>
     <use xlink:href="#DejaVuSans-20" transform="translate(310.498047 0)"/>
     <use xlink:href="#DejaVuSans-6d" transform="translate(342.285156 0)"/>
     <use xlink:href="#DejaVuSans-6f" transform="translate(439.697266 0)"/>
     <use xlink:href="#DejaVuSans-6a" transform="translate(500.878906 0)"/>
     <use xlink:href="#DejaVuSans-73" transform="translate(528.662109 0)"/>
     <use xlink:href="#DejaVuSans-74" transform="translate(580.761719 0)"/>
     <use xlink:href="#DejaVuSans-65" transform="translate(619.970703 0)"/>
     <use xlink:href="#DejaVuSans-72" transform="translate(681.494141 0)"/>
    </g>
   </g>
   <g id="text_7">
    <!-- Nosilec prstana -->
    <g transform="translate(137.243519 131.491692) scale(0.09 -0.09)">
     <defs>
      <path id="DejaVuSans-4e" d="M 628 4666 
L 1478 4666 
L 3547 763 
L 3547 4666 
L 4159 4666 
L 4159 0 
L 3309 0 
L 1241 3903 
L 1241 0 
L 628 0 
L 628 4666 
z
" transform="scale(0.015625)"/>
     </defs>
     <use xlink:href="#DejaVuSans-4e"/>
     <use xlink:href="#DejaVuSans-6f" transform="translate(74.804688 0)"/>
     <use xlink:href="#DejaVuSans-73" transform="translate(135.986328 0)"/>
     <use xlink:href="#DejaVuSans-69" transform="translate(188.085938 0)"/>
     <use xlink:href="#DejaVuSans-6c" transform="translate(215.869141 0)"/>
     <use xlink:href="#DejaVuSans-65" transform="translate(243.652344 0)"/>
     <use xlink:href="#DejaVuSans-63" transform="translate(305.175781 0)"/>
     <use xlink:href="#DejaVuSans-20" transform="translate(360.15625 0)"/>
     <use xlink:href="#DejaVuSans-70" transform="translate(391.943359 0)"/>
     <use xlink:href="#DejaVuSans-72" transform="translate(455.419922 0)"/>
     <use xlink:href="#DejaVuSans-73" transform="translate(496.533203 0)"/>
     <use xlink:href="#DejaVuSans-74" transform="translate(548.632812 0)"/>
     <use xlink:href="#DejaVuSans-61" transform="translate(587.841797 0)"/>
     <use xlink:href="#DejaVuSans-6e" transform="translate(649.121094 0)"/>
     <use xlink:href="#DejaVuSans-61" transform="translate(712.5 0)"/>
    </g>
   </g>
   <g id="text_8">
    <!-- Sivi arovnik -->
    <g transform="translate(183.114224 190.078286) scale(0.09 -0.09)">
     <defs>
      <path id="DejaVuSans-53" d="M 3425 4513 
L 3425 3897 
Q 3066 4069 2747 4153 
Q 2428 4238 2131 4238 
Q 1616 4238 1336 4038 
Q 1056 3838 1056 3469 
Q 1056 3159 1242 3001 
Q 1428 2844 1947 2747 
L 2328 2669 
Q 3034 2534 3370 2195 
Q 3706 1856 3706 1288 
Q 3706 609 3251 259 
Q 2797 -91 1919 -91 
Q 1588 -91 1214 -16 
Q 841 59 441 206 
L 441 856 
Q 825 641 1194 531 
Q 1563 422 1919 422 
Q 2459 422 2753 634 
Q 3047 847 3047 1241 
Q 3047 1584 2836 1778 
Q 2625 1972 2144 2069 
L 1759 2144 
Q 1053 2284 737 2584 
Q 422 2884 422 3419 
Q 422 4038 858 4394 
Q 1294 4750 2059 4750 
Q 2388 4750 2728 4690 
Q 3069 4631 3425 4513 
z
" transform="scale(0.015625)"/>
     </defs>
     <use xlink:href="#DejaVuSans-53"/>
     <use xlink:href="#DejaVuSans-69" transform="translate(63.476562 0)"/>
     <use xlink:href="#DejaVuSans-76" transform="translate(91.259766 0)"/>
     <use xlink:href="#DejaVuSans-69" transform="translate(150.439453 0)"/>
     <use xlink:href="#DejaVuSans-20" transform="translate(178.222656 0)"/>
     <use xlink:href="#DejaVuSans-10d" transform="translate(210.009766 0)"/>
     <use xlink:href="#DejaVuSans-61" transform="translate(264.990234 0)"/>
     <use xlink:href="#DejaVuSans-72" transform="translate(326.269531 0)"/>
     <use xlink:href="#DejaVuSans-6f" transform="translate(365.132812 0)"/>
     <use xlink:href="#DejaVuSans-76" transform="translate(426.314453 0)"/>
     <use xlink:href="#DejaVuSans-6e" transform="translate(485.494141 0)"/>
     <use xlink:href="#DejaVuSans-69" transform="translate(548.873047 0)"/>
     <use xlink:href="#DejaVuSans-6b" transform="translate(576.65625 0)"/>
    </g>
   </g>
   <g id="text_9">
    <!-- Postopa -->
    <g transform="translate(289.986085 215.5183) scale(0.09 -0.09)">
     <use xlink:href="#DejaVuSans-50"/>
     <use xlink:href="#DejaVuSans-6f" transform="translate(56.677734 0)"/>
     <use xlink:href="#DejaVuSans-73" transform="translate(117.859375 0)"/>
     <use xlink:href="#DejaVuSans-74" transform="translate(169.958984 0)"/>
     <use xlink:href="#DejaVuSans-6f" transform="translate(209.167969 0)"/>
     <use xlink:href="#DejaVuSans-70" transform="translate(270.349609 0)"/>
     <use xlink:href="#DejaVuSans-61" transform="translate(333.826172 0)"/>
     <use xlink:href="#DejaVuSans-10d" transform="translate(395.105469 0)"/>
    </g>
   </g>
   <g id="text_10">
    <!-- Vilinski lokostrelec -->
    <g transform="translate(7.2 244.993885) scale(0.09 -0.09)">
     <defs>
      <path id="DejaVuSans-56" d="M 1831 0 
L 50 4666 
L 709 4666 
L 2188 738 
L 3669 4666 
L 4325 4666 
L 2547 0 
L 1831 0 
z
" transform="scale(0.015625)"/>
     </defs>
     <use xlink:href="#DejaVuSans-56"/>
     <use xlink:href="#DejaVuSans-69" transform="translate(66.158203 0)"/>
     <use xlink:href="#DejaVuSans-6c" transform="translate(93.941406 0)"/>
     <use xlink:href="#DejaVuSans-69" transform="translate(121.724609 0)"/>
     <use xlink:href="#DejaVuSans-6e" transform="translate(149.507812 0)"/>
     <use xlink:href="#DejaVuSans-73" transform="translate(212.886719 0)"/>
     <use xlink:href="#DejaVuSans-6b" transform="translate(264.986328 0)"/>
     <use xlink:href="#DejaVuSans-69" transform="translate(322.896484 0)"/>
     <use xlink:href="#DejaVuSans-20" transform="translate(350.679688 0)"/>
     <use xlink:href="#DejaVuSans-6c" transform="translate(382.466797 0)"/>
     <use xlink:href="#DejaVuSans-6f" transform="translate(410.25 0)"/>
     <use xlink:href="#DejaVuSans-6b" transform="translate(471.431641 0)"/>
     <use xlink:href="#DejaVuSans-6f" transform="translate(525.716797 0)"/>
     <use xlink:href="#DejaVuSans-73" transform="translate(586.898438 0)"/>
     <use xlink:href="#DejaVuSans-74" transform="translate(638.998047 0)"/>
     <use xlink:href="#DejaVuSans-72" transform="translate(678.207031 0)"/>
     <use xlink:href="#DejaVuSans-65" transform="translate(717.070312 0)"/>
     <use xlink:href="#DejaVuSans-6c" transform="translate(778.59375 0)"/>
     <use xlink:href="#DejaVuSans-65" transform="translate(806.376953 0)"/>
     <use xlink:href="#DejaVuSans-63" transform="translate(867.900391 0)"/>
    </g>
   </g>
   <g id="text_11">
    <!-- kratovski bojevnik -->
    <g transform="translate(167.8551 219.017917) scale(0.09 -0.09)">
     <defs>
      <path id="DejaVuSans-160" d="M 3425 4513 
L 3425 3897 
Q 3066 4069 2747 4153 
Q 2428 4238 2131 4238 
Q 1616 4238 1336 4038 
Q 1056 3838 1056 3469 
Q 1056 3159 1242 3001 
Q 1428 2844 1947 2747 
L 2328 2669 
Q 3034 2534 3370 2195 
Q 3706 1856 3706 1288 
Q 3706 609 3251 259 
Q 2797 -91 1919 -91 
Q 1588 -91 1214 -16 
Q 841 59 441 206 
L 441 856 
Q 825 641 1194 531 
Q 1563 422 1919 422 
Q 2459 422 2753 634 
Q 3047 847 3047 1241 
Q 3047 1584 2836 1778 
Q 2625 1972 2144 2069 
L 1759 2144 
Q 1053 2284 737 2584 
Q 422 2884 422 3419 
Q 422 4038 858 4394 
Q 1294 4750 2059 4750 
Q 2388 4750 2728 4690 
Q 3069 4631 3425 4513 
z
M 1738 5096 
L 1079 5927 
L 1513 5927 
L 2032 5371 
L 2551 5927 
L 2985 5927 
L 2326 5096 
L 1738 5096 
z
" transform="scale(0.015625)"/>
      <path id="DejaVuSans-62" d="M 3116 1747 
Q 3116 2381 2855 2742 
Q 2594 3103 2138 3103 
Q 1681 3103 1420 2742 
Q 1159 2381 1159 1747 
Q 1159 1113 1420 752 
Q 1681 391 2138 391 
Q 2594 391 2855 752 
Q 3116 1113 3116 1747 
z
M 1159 2969 
Q 1341 3281 1617 3432 
Q 1894 3584 2278 3584 
Q 2916 3584 3314 3078 
Q 3713 2572 3713 1747 
Q 3713 922 3314 415 
Q 2916 -91 2278 -91 
Q 1894 -91 1617 61 
Q 1341 213 1159 525 
L 1159 0 
L 581 0 
L 581 4863 
L 1159 4863 
L 1159 2969 
z
" transform="scale(0.015625)"/>
     </defs>
     <use xlink:href="#DejaVuSans-160"/>
     <use xlink:href="#DejaVuSans-6b" transform="translate(63.476562 0)"/>
     <use xlink:href="#DejaVuSans-72" transform="translate(121.386719 0)"/>
     <use xlink:href="#DejaVuSans-61" transform="translate(162.5 0)"/>
     <use xlink:href="#DejaVuSans-74" transform="translate(223.779297 0)"/>
     <use xlink:href="#DejaVuSans-6f" transform="translate(262.988281 0)"/>
     <use xlink:href="#DejaVuSans-76" transform="translate(324.169922 0)"/>
     <use xlink:href="#DejaVuSans-73" transform="translate(383.349609 0)"/>
     <use xlink:href="#DejaVuSans-6b" transform="translate(435.449219 0)"/>
     <use xlink:href="#DejaVuSans-69" transform="translate(493.359375 0)"/>
     <use xlink:href="#DejaVuSans-20" transform="translate(521.142578 0)"/>
     <use xlink:href="#DejaVuSans-62" transform="translate(552.929688 0)"/>
     <use xlink:href="#DejaVuSans-6f" transform="translate(616.40625 0)"/>
     <use xlink:href="#DejaVuSans-6a" transform="translate(677.587891 0)"/>
     <use xlink:href="#DejaVuSans-65" transform="translate(705.371094 0)"/>
     <use xlink:href="#DejaVuSans-76" transform="translate(766.894531 0)"/>
     <use xlink:href="#DejaVuSans-6e" transform="translate(826.074219 0)"/>
     <use xlink:href="#DejaVuSans-69" transform="translate(889.453125 0)"/>
     <use xlink:href="#DejaVuSans-6b" transform="translate(917.236328 0)"/>
    </g>
   </g>
   <g id="text_12">
    <!-- Zvesti robot -->
    <g transform="translate(21.96237 89.361045) scale(0.09 -0.09)">
     <use xlink:href="#DejaVuSans-5a"/>
     <use xlink:href="#DejaVuSans-76" transform="translate(68.505859 0)"/>
     <use xlink:href="#DejaVuSans-65" transform="translate(127.685547 0)"/>
     <use xlink:href="#DejaVuSans-73" transform="translate(189.208984 0)"/>
     <use xlink:href="#DejaVuSans-74" transform="translate(241.308594 0)"/>
     <use xlink:href="#DejaVuSans-69" transform="translate(280.517578 0)"/>
     <use xlink:href="#DejaVuSans-20" transform="translate(308.300781 0)"/>
     <use xlink:href="#DejaVuSans-72" transform="translate(340.087891 0)"/>
     <use xlink:href="#DejaVuSans-6f" transform="translate(378.951172 0)"/>
     <use xlink:href="#DejaVuSans-62" transform="translate(440.132812 0)"/>
     <use xlink:href="#DejaVuSans-6f" transform="translate(503.609375 0)"/>
     <use xlink:href="#DejaVuSans-74" transform="translate(564.791016 0)"/>
    </g>
   </g>
   <g id="text_13">
    <!-- Voditeljica upora -->
    <g transform="translate(231.637756 268.178621) scale(0.09 -0.09)">
     <defs>
      <path id="DejaVuSans-75" d="M 544 1381 
L 544 3500 
L 1119 3500 
L 1119 1403 
Q 1119 906 1312 657 
Q 1506 409 1894 409 
Q 2359 409 2629 706 
Q 2900 1003 2900 1516 
L 2900 3500 
L 3475 3500 
L 3475 0 
L 2900 0 
L 2900 538 
Q 2691 219 2414 64 
Q 2138 -91 1772 -91 
Q 1169 -91 856 284 
Q 544 659 544 1381 
z
M 1991 3584 
L 1991 3584 
z
" transform="scale(0.015625)"/>
     </defs>
     <use xlink:href="#DejaVuSans-56"/>
     <use xlink:href="#DejaVuSans-6f" transform="translate(60.658203 0)"/>
     <use xlink:href="#DejaVuSans-64" transform="translate(121.839844 0)"/>
     <use xlink:href="#DejaVuSans-69" transform="translate(185.316406 0)"/>
     <use xlink:href="#DejaVuSans-74" transform="translate(213.099609 0)"/>
     <use xlink:href="#DejaVuSans-65" transform="translate(252.308594 0)"/>
     <use xlink:href="#DejaVuSans-6c" transform="translate(313.832031 0)"/>
     <use xlink:href="#DejaVuSans-6a" transform="translate(341.615234 0)"/>
     <use xlink:href="#DejaVuSans-69" transform="translate(369.398438 0)"/>
     <use xlink:href="#DejaVuSans-63" transform="translate(397.181641 0)"/>
     <use xlink:href="#DejaVuSans-61" transform="translate(452.162109 0)"/>
     <use xlink:href="#DejaVuSans-20" transform="translate(513.441406 0)"/>
     <use xlink:href="#DejaVuSans-75" transform="translate(545.228516 0)"/>
     <use xlink:href="#DejaVuSans-70" transform="translate(608.607422 0)"/>
     <use xlink:href="#DejaVuSans-6f" transform="translate(672.083984 0)"/>
     <use xlink:href="#DejaVuSans-72" transform="translate(733.265625 0)"/>
     <use xlink:href="#DejaVuSans-61" transform="translate(774.378906 0)"/>
    </g>
   </g>
   <g id="text_14">
    <!-- Temni vitez -->
    <g transform="translate(133.55362 222.252374) scale(0.09 -0.09)">
     <defs>
      <path id="DejaVuSans-7a" d="M 353 3500 
L 3084 3500 
L 3084 2975 
L 922 459 
L 3084 459 
L 3084 0 
L 275 0 
L 275 525 
L 2438 3041 
L 353 3041 
L 353 3500 
z
" transform="scale(0.015625)"/>
     </defs>
     <use xlink:href="#DejaVuSans-54"/>
     <use xlink:href="#DejaVuSans-65" transform="translate(44.083984 0)"/>
     <use xlink:href="#DejaVuSans-6d" transform="translate(105.607422 0)"/>
     <use xlink:href="#DejaVuSans-6e" transform="translate(203.019531 0)"/>
     <use xlink:href="#DejaVuSans-69" transform="translate(266.398438 0)"/>
     <use xlink:href="#DejaVuSans-20" transform="translate(294.181641 0)"/>
     <use xlink:href="#DejaVuSans-76" transform="translate(325.96875 0)"/>
     <use xlink:href="#DejaVuSans-69" transform="translate(385.148438 0)"/>
     <use xlink:href="#DejaVuSans-74" transform="translate(412.931641 0)"/>
     <use xlink:href="#DejaVuSans-65" transform="translate(452.140625 0)"/>
     <use xlink:href="#DejaVuSans-7a" transform="translate(513.664062 0)"/>
    </g>
   </g>
   <g id="text_15">
    <!-- Zvesti prijatelj -->
    <g transform="translate(212.070869 336.607721) scale(0.09 -0.09)">
     <use xlink:href="#DejaVuSans-5a"/>
     <use xlink:href="#DejaVuSans-76" transform="translate(68.505859 0)"/>
     <use xlink:href="#DejaVuSans-65" transform="translate(127.685547 0)"/>
     <use xlink:href="#DejaVuSans-73" transform="translate(189.208984 0)"/>
     <use xlink:href="#DejaVuSans-74" transform="translate(241.308594 0)"/>
     <use xlink:href="#DejaVuSans-69" transform="translate(280.517578 0)"/>
     <use xlink:href="#DejaVuSans-20" transform="translate(308.300781 0)"/>
     <use xlink:href="#DejaVuSans-70" transform="translate(340.087891 0)"/>
     <use xlink:href="#DejaVuSans-72" transform="translate(403.564453 0)"/>
     <use xlink:href="#DejaVuSans-69" transform="translate(444.677734 0)"/>
     <use xlink:href="#DejaVuSans-6a" transform="translate(472.460938 0)"/>
     <use xlink:href="#DejaVuSans-61" transform="translate(500.244141 0)"/>
     <use xlink:href="#DejaVuSans-74" transform="translate(561.523438 0)"/>
     <use xlink:href="#DejaVuSans-65" transform="translate(600.732422 0)"/>
     <use xlink:href="#DejaVuSans-6c" transform="translate(662.255859 0)"/>
     <use xlink:href="#DejaVuSans-6a" transform="translate(690.039062 0)"/>
    </g>
   </g>
   <g id="text_16">
    <!-- Zlati robot -->
    <g transform="translate(223.748444 138.886297) scale(0.09 -0.09)">
     <use xlink:href="#DejaVuSans-5a"/>
     <use xlink:href="#DejaVuSans-6c" transform="translate(68.505859 0)"/>
     <use xlink:href="#DejaVuSans-61" transform="translate(96.289062 0)"/>
     <use xlink:href="#DejaVuSans-74" transform="translate(157.568359 0)"/>
     <use xlink:href="#DejaVuSans-69" transform="translate(196.777344 0)"/>
     <use xlink:href="#DejaVuSans-20" transform="translate(224.560547 0)"/>
     <use xlink:href="#DejaVuSans-72" transform="translate(256.347656 0)"/>
     <use xlink:href="#DejaVuSans-6f" transform="translate(295.210938 0)"/>
     <use xlink:href="#DejaVuSans-62" transform="translate(356.392578 0)"/>
     <use xlink:href="#DejaVuSans-6f" transform="translate(419.869141 0)"/>
     <use xlink:href="#DejaVuSans-74" transform="translate(481.050781 0)"/>
    </g>
   </g>
   <g id="text_17">
    <!-- Prebrisani uitelj -->
    <g transform="translate(10.989384 370.102828) scale(0.09 -0.09)">
     <use xlink:href="#DejaVuSans-50"/>
     <use xlink:href="#DejaVuSans-72" transform="translate(58.552734 0)"/>
     <use xlink:href="#DejaVuSans-65" transform="translate(97.416016 0)"/>
     <use xlink:href="#DejaVuSans-62" transform="translate(158.939453 0)"/>
     <use xlink:href="#DejaVuSans-72" transform="translate(222.416016 0)"/>
     <use xlink:href="#DejaVuSans-69" transform="translate(263.529297 0)"/>
     <use xlink:href="#DejaVuSans-73" transform="translate(291.3125 0)"/>
     <use xlink:href="#DejaVuSans-61" transform="translate(343.412109 0)"/>
     <use xlink:href="#DejaVuSans-6e" transform="translate(404.691406 0)"/>
     <use xlink:href="#DejaVuSans-69" transform="translate(468.070312 0)"/>
     <use xlink:href="#DejaVuSans-20" transform="translate(495.853516 0)"/>
     <use xlink:href="#DejaVuSans-75" transform="translate(527.640625 0)"/>
     <use xlink:href="#DejaVuSans-10d" transform="translate(591.019531 0)"/>
     <use xlink:href="#DejaVuSans-69" transform="translate(646 0)"/>
     <use xlink:href="#DejaVuSans-74" transform="translate(673.783203 0)"/>
     <use xlink:href="#DejaVuSans-65" transform="translate(712.992188 0)"/>
     <use xlink:href="#DejaVuSans-6c" transform="translate(774.515625 0)"/>
     <use xlink:href="#DejaVuSans-6a" transform="translate(802.298828 0)"/>
    </g>
   </g>
   <g id="text_18">
    <!-- Pogumna princesa -->
    <g transform="translate(198.695785 222.174618) scale(0.09 -0.09)">
     <defs>
      <path id="DejaVuSans-67" d="M 2906 1791 
Q 2906 2416 2648 2759 
Q 2391 3103 1925 3103 
Q 1463 3103 1205 2759 
Q 947 2416 947 1791 
Q 947 1169 1205 825 
Q 1463 481 1925 481 
Q 2391 481 2648 825 
Q 2906 1169 2906 1791 
z
M 3481 434 
Q 3481 -459 3084 -895 
Q 2688 -1331 1869 -1331 
Q 1566 -1331 1297 -1286 
Q 1028 -1241 775 -1147 
L 775 -588 
Q 1028 -725 1275 -790 
Q 1522 -856 1778 -856 
Q 2344 -856 2625 -561 
Q 2906 -266 2906 331 
L 2906 616 
Q 2728 306 2450 153 
Q 2172 0 1784 0 
Q 1141 0 747 490 
Q 353 981 353 1791 
Q 353 2603 747 3093 
Q 1141 3584 1784 3584 
Q 2172 3584 2450 3431 
Q 2728 3278 2906 2969 
L 2906 3500 
L 3481 3500 
L 3481 434 
z
" transform="scale(0.015625)"/>
     </defs>
     <use xlink:href="#DejaVuSans-50"/>
     <use xlink:href="#DejaVuSans-6f" transform="translate(56.677734 0)"/>
     <use xlink:href="#DejaVuSans-67" transform="translate(117.859375 0)"/>
     <use xlink:href="#DejaVuSans-75" transform="translate(181.335938 0)"/>
     <use xlink:href="#DejaVuSans-6d" transform="translate(244.714844 0)"/>
     <use xlink:href="#DejaVuSans-6e" transform="translate(342.126953 0)"/>
     <use xlink:href="#DejaVuSans-61" transform="translate(405.505859 0)"/>
     <use xlink:href="#DejaVuSans-20" transform="translate(466.785156 0)"/>
     <use xlink:href="#DejaVuSans-70" transform="translate(498.572266 0)"/>
     <use xlink:href="#DejaVuSans-72" transform="translate(562.048828 0)"/>
     <use xlink:href="#DejaVuSans-69" transform="translate(603.162109 0)"/>
     <use xlink:href="#DejaVuSans-6e" transform="translate(630.945312 0)"/>
     <use xlink:href="#DejaVuSans-63" transform="translate(694.324219 0)"/>
     <use xlink:href="#DejaVuSans-65" transform="translate(749.304688 0)"/>
     <use xlink:href="#DejaVuSans-73" transform="translate(810.828125 0)"/>
     <use xlink:href="#DejaVuSans-61" transform="translate(862.927734 0)"/>
    </g>
   </g>
   <g id="text_19">
    <!-- TU STE VI -->
    <g style="fill: #003a6e" transform="translate(344.856419 318.539642) scale(0.08 -0.08)">
     <defs>
      <path id="DejaVuSans-BoldOblique-54" d="M 488 4666 
L 4788 4666 
L 4609 3756 
L 3059 3756 
L 2328 0 
L 1125 0 
L 1856 3756 
L 306 3756 
L 488 4666 
z
" transform="scale(0.015625)"/>
      <path id="DejaVuSans-BoldOblique-55" d="M 1044 4666 
L 2247 4666 
L 1703 1872 
Q 1672 1722 1658 1606 
Q 1644 1491 1644 1403 
Q 1644 1097 1808 945 
Q 1972 794 2297 794 
Q 2734 794 2968 1039 
Q 3203 1284 3316 1869 
L 3859 4666 
L 5063 4666 
L 4519 1869 
Q 4316 838 3748 373 
Q 3181 -91 2125 -91 
Q 1297 -91 865 264 
Q 434 619 434 1294 
Q 434 1406 450 1545 
Q 466 1684 500 1869 
L 1044 4666 
z
" transform="scale(0.015625)"/>
      <path id="DejaVuSans-BoldOblique-20" transform="scale(0.015625)"/>
      <path id="DejaVuSans-BoldOblique-53" d="M 4256 4519 
L 4063 3531 
Q 3709 3706 3365 3792 
Q 3022 3878 2694 3878 
Q 2244 3878 1992 3737 
Q 1741 3597 1741 3347 
Q 1741 3188 1852 3098 
Q 1963 3009 2309 2925 
L 2803 2803 
Q 3422 2647 3711 2351 
Q 4000 2056 4000 1588 
Q 4000 828 3423 368 
Q 2847 -91 1875 -91 
Q 1422 -91 973 -6 
Q 525 78 97 244 
L 288 1259 
Q 703 1019 1095 900 
Q 1488 781 1869 781 
Q 2281 781 2539 950 
Q 2797 1119 2797 1381 
Q 2797 1553 2681 1648 
Q 2566 1744 2175 1844 
L 1684 1966 
Q 1141 2100 875 2390 
Q 609 2681 609 3144 
Q 609 3872 1167 4311 
Q 1725 4750 2669 4750 
Q 3047 4750 3445 4692 
Q 3844 4634 4256 4519 
z
" transform="scale(0.015625)"/>
      <path id="DejaVuSans-BoldOblique-45" d="M 1044 4666 
L 4288 4666 
L 4109 3756 
L 2069 3756 
L 1900 2888 
L 3822 2888 
L 3641 1978 
L 1722 1978 
L 1516 909 
L 3622 909 
L 3450 0 
L 134 0 
L 1044 4666 
z
" transform="scale(0.015625)"/>
      <path id="DejaVuSans-BoldOblique-56" d="M 488 4666 
L 1631 4666 
L 2203 1178 
L 4134 4666 
L 5375 4666 
L 2741 0 
L 1306 0 
L 488 4666 
z
" transform="scale(0.015625)"/>
      <path id="DejaVuSans-BoldOblique-49" d="M 1044 4666 
L 2247 4666 
L 1338 0 
L 134 0 
L 1044 4666 
z
" transform="scale(0.015625)"/>
     </defs>
     <use xlink:href="#DejaVuSans-BoldOblique-54"/>
     <use xlink:href="#DejaVuSans-BoldOblique-55" transform="translate(68.212891 0)"/>
     <use xlink:href="#DejaVuSans-BoldOblique-20" transform="translate(149.414062 0)"/>
     <use xlink:href="#DejaVuSans-BoldOblique-53" transform="translate(184.228516 0)"/>
     <use xlink:href="#DejaVuSans-BoldOblique-54" transform="translate(256.25 0)"/>
     <use xlink:href="#DejaVuSans-BoldOblique-45" transform="translate(324.462891 0)"/>
     <use xlink:href="#DejaVuSans-BoldOblique-20" transform="translate(392.773438 0)"/>
     <use xlink:href="#DejaVuSans-BoldOblique-56" transform="translate(427.587891 0)"/>
     <use xlink:href="#DejaVuSans-BoldOblique-49" transform="translate(504.980469 0)"/>
    </g>
   </g>
  </g>
 </g>
 <defs>
  <clipPath id="p931990f9d6">
   <rect x="30.587651" y="7.2" width="390.6" height="388.08"/>
  </clipPath>
 </defs>
</svg>
