<?xml version="1.0" encoding="utf-8" standalone="no"?>
<!DOCTYPE svg PUBLIC "-//W3C//DTD SVG 1.1//EN"
  "http://www.w3.org/Graphics/SVG/1.1/DTD/svg11.dtd">
<svg xmlns:xlink="http://www.w3.org/1999/xlink" width="439.145284pt" height="402.48pt" viewBox="0 0 439.145284 402.48" xmlns="http://www.w3.org/2000/svg" version="1.1">
 <metadata>
  <rdf:RDF xmlns:dc="http://purl.org/dc/elements/1.1/" xmlns:cc="http://creativecommons.org/ns#" xmlns:rdf="http://www.w3.org/1999/02/22-rdf-syntax-ns#">
   <cc:Work>
    <dc:type rdf:resource="http://purl.org/dc/dcmitype/StillImage"/>
    <dc:date>2025-11-25T11:07:08.680870</dc:date>
    <dc:format>image/svg+xml</dc:format>
    <dc:creator>
     <cc:Agent>
      <dc:title>Matplotlib v3.10.7, https://matplotlib.org/</dc:title>
     </cc:Agent>
    </dc:creator>
   </cc:Work>
  </rdf:RDF>
 </metadata>
 <defs>
  <style type="text/css">*{stroke-linejoin: round; stroke-linecap: butt}</style>
 </defs>
 <g id="figure_1">
  <g id="patch_1">
   <path d="M 0 402.48 
L 439.145284 402.48 
L 439.145284 -0 
L 0 -0 
z
" style="fill: #ffffff"/>
  </g>
  <g id="axes_1">
   <g id="patch_2">
    <path d="M 71.815497 233.108528 
Q 148.790455 221.539662 224.285103 210.193278 
" clip-path="url(#p317129f0e6)" style="fill: none; stroke: #e8e8e8; stroke-width: 1.2; stroke-linecap: round"/>
    <path d="M 215.853767 207.921147 
L 224.285103 210.193278 
L 216.89414 214.843403 
z
" clip-path="url(#p317129f0e6)" style="fill: #e8e8e8; stroke: #e8e8e8; stroke-width: 1.2; stroke-linecap: round"/>
   </g>
   <g id="patch_3">
    <path d="M 70.67815 229.491291 
Q 138.139894 196.887878 204.253849 164.935834 
" clip-path="url(#p317129f0e6)" style="fill: none; stroke: #e8e8e8; stroke-width: 1.2; stroke-linecap: round"/>
    <path d="M 195.527955 165.265638 
L 204.253849 164.935834 
L 198.573901 171.568194 
z
" clip-path="url(#p317129f0e6)" style="fill: #e8e8e8; stroke: #e8e8e8; stroke-width: 1.2; stroke-linecap: round"/>
   </g>
   <g id="patch_4">
    <path d="M 71.235728 239.183822 
Q 145.466663 265.275403 218.285362 290.870593 
" clip-path="url(#p317129f0e6)" style="fill: none; stroke: #e8e8e8; stroke-width: 1.2; stroke-linecap: round"/>
    <path d="M 211.898627 284.915795 
L 218.285362 290.870593 
L 209.577399 291.519725 
z
" clip-path="url(#p317129f0e6)" style="fill: #e8e8e8; stroke: #e8e8e8; stroke-width: 1.2; stroke-linecap: round"/>
   </g>
   <g id="patch_5">
    <path d="M 71.678205 232.387092 
Q 134.146555 219.252905 195.149998 206.426719 
" clip-path="url(#p317129f0e6)" style="fill: none; stroke: #e8e8e8; stroke-width: 1.2; stroke-linecap: round"/>
    <path d="M 186.601028 204.647645 
L 195.149998 206.426719 
L 188.041311 211.49787 
z
" clip-path="url(#p317129f0e6)" style="fill: #e8e8e8; stroke: #e8e8e8; stroke-width: 1.2; stroke-linecap: round"/>
   </g>
   <g id="patch_6">
    <path d="M 237.31931 220.641755 
Q 234.949419 251.827918 232.692955 281.521448 
" clip-path="url(#p317129f0e6)" style="fill: none; stroke: #e8e8e8; stroke-width: 1.2; stroke-linecap: round"/>
    <path d="M 236.789079 273.809654 
L 232.692955 281.521448 
L 229.809204 273.279241 
z
" clip-path="url(#p317129f0e6)" style="fill: #e8e8e8; stroke: #e8e8e8; stroke-width: 1.2; stroke-linecap: round"/>
   </g>
   <g id="patch_7">
    <path d="M 228.80392 216.439866 
Q 167.149331 270.800375 106.617568 324.170895 
" clip-path="url(#p317129f0e6)" style="fill: none; stroke: #e8e8e8; stroke-width: 1.2; stroke-linecap: round"/>
    <path d="M 114.932935 321.505434 
L 106.617568 324.170895 
L 110.303528 316.254854 
z
" clip-path="url(#p317129f0e6)" style="fill: #e8e8e8; stroke: #e8e8e8; stroke-width: 1.2; stroke-linecap: round"/>
   </g>
   <g id="patch_8">
    <path d="M 244.937218 197.393069 
Q 265.791376 163.916076 285.854042 131.709656 
" clip-path="url(#p317129f0e6)" style="fill: none; stroke: #e8e8e8; stroke-width: 1.2; stroke-linecap: round"/>
    <path d="M 278.653373 136.649328 
L 285.854042 131.709656 
L 284.594856 140.350515 
z
" clip-path="url(#p317129f0e6)" style="fill: #e8e8e8; stroke: #e8e8e8; stroke-width: 1.2; stroke-linecap: round"/>
   </g>
   <g id="patch_9">
    <path d="M 250.88 209.161046 
Q 267.826187 210.599434 283.280801 211.911218 
" clip-path="url(#p317129f0e6)" style="fill: none; stroke: #e8e8e8; stroke-width: 1.2; stroke-linecap: round"/>
    <path d="M 275.605479 207.747153 
L 283.280801 211.911218 
L 275.01345 214.722073 
z
" clip-path="url(#p317129f0e6)" style="fill: #e8e8e8; stroke: #e8e8e8; stroke-width: 1.2; stroke-linecap: round"/>
   </g>
   <g id="patch_10">
    <path d="M 221.971669 170.345093 
Q 227.625467 183.436461 232.685764 195.153576 
" clip-path="url(#p317129f0e6)" style="fill: none; stroke: #e8e8e8; stroke-width: 1.2; stroke-linecap: round"/>
    <path d="M 232.727096 186.42155 
L 232.685764 195.153576 
L 226.300786 189.196894 
z
" clip-path="url(#p317129f0e6)" style="fill: #e8e8e8; stroke: #e8e8e8; stroke-width: 1.2; stroke-linecap: round"/>
   </g>
   <g id="patch_11">
    <path d="M 224.344729 169.017835 
Q 278.904973 244.815482 332.5907 319.398207 
" clip-path="url(#p317129f0e6)" style="fill: none; stroke: #e8e8e8; stroke-width: 1.2; stroke-linecap: round"/>
    <path d="M 330.757675 310.860642 
L 332.5907 319.398207 
L 325.076435 314.950081 
z
" clip-path="url(#p317129f0e6)" style="fill: #e8e8e8; stroke: #e8e8e8; stroke-width: 1.2; stroke-linecap: round"/>
   </g>
   <g id="patch_12">
    <path d="M 215.703481 171.305127 
Q 213.563569 192.300743 211.575441 211.807139 
" clip-path="url(#p317129f0e6)" style="fill: none; stroke: #e8e8e8; stroke-width: 1.2; stroke-linecap: round"/>
    <path d="M 215.868575 204.203258 
L 211.575441 211.807139 
L 208.904652 203.493482 
z
" clip-path="url(#p317129f0e6)" style="fill: #e8e8e8; stroke: #e8e8e8; stroke-width: 1.2; stroke-linecap: round"/>
   </g>
   <g id="patch_13">
    <path d="M 228.233556 153.029118 
Q 255.144759 139.263752 280.723254 126.18008 
" clip-path="url(#p317129f0e6)" style="fill: none; stroke: #e8e8e8; stroke-width: 1.2; stroke-linecap: round"/>
    <path d="M 272.007055 126.707208 
L 280.723254 126.18008 
L 275.194806 132.939241 
z
" clip-path="url(#p317129f0e6)" style="fill: #e8e8e8; stroke: #e8e8e8; stroke-width: 1.2; stroke-linecap: round"/>
   </g>
   <g id="patch_14">
    <path d="M 214.767207 171.175284 
Q 212.985803 181.151819 211.467528 189.654726 
" clip-path="url(#p317129f0e6)" style="fill: none; stroke: #e8e8e8; stroke-width: 1.2; stroke-linecap: round"/>
    <path d="M 216.319266 182.394516 
L 211.467528 189.654726 
L 209.428258 181.164061 
z
" clip-path="url(#p317129f0e6)" style="fill: #e8e8e8; stroke: #e8e8e8; stroke-width: 1.2; stroke-linecap: round"/>
   </g>
   <g id="patch_15">
    <path d="M 208.533919 149.419102 
Q 185.897694 124.314298 164.26389 100.321235 
" clip-path="url(#p317129f0e6)" style="fill: none; stroke: #e8e8e8; stroke-width: 1.2; stroke-linecap: round"/>
    <path d="M 167.021713 108.606427 
L 164.26389 100.321235 
L 172.220455 103.918882 
z
" clip-path="url(#p317129f0e6)" style="fill: #e8e8e8; stroke: #e8e8e8; stroke-width: 1.2; stroke-linecap: round"/>
   </g>
   <g id="patch_16">
    <path d="M 219.692466 291.365179 
Q 145.46153 265.273598 72.642832 239.678408 
" clip-path="url(#p317129f0e6)" style="fill: none; stroke: #e8e8e8; stroke-width: 1.2; stroke-linecap: round"/>
    <path d="M 79.029566 245.633206 
L 72.642832 239.678408 
L 81.350795 239.029275 
z
" clip-path="url(#p317129f0e6)" style="fill: #e8e8e8; stroke: #e8e8e8; stroke-width: 1.2; stroke-linecap: round"/>
   </g>
   <g id="patch_17">
    <path d="M 224.45519 285.195045 
Q 196.813034 245.241788 170.022578 206.519556 
" clip-path="url(#p317129f0e6)" style="fill: none; stroke: #e8e8e8; stroke-width: 1.2; stroke-linecap: round"/>
    <path d="M 171.696005 215.089833 
L 170.022578 206.519556 
L 177.45255 211.107096 
z
" clip-path="url(#p317129f0e6)" style="fill: #e8e8e8; stroke: #e8e8e8; stroke-width: 1.2; stroke-linecap: round"/>
   </g>
   <g id="patch_18">
    <path d="M 220.653155 289.291741 
Q 194.421487 274.307602 169.489639 260.065949 
" clip-path="url(#p317129f0e6)" style="fill: none; stroke: #e8e8e8; stroke-width: 1.2; stroke-linecap: round"/>
    <path d="M 174.700182 267.073106 
L 169.489639 260.065949 
L 178.172214 260.994866 
z
" clip-path="url(#p317129f0e6)" style="fill: #e8e8e8; stroke: #e8e8e8; stroke-width: 1.2; stroke-linecap: round"/>
   </g>
   <g id="patch_19">
    <path d="M 227.920345 283.526395 
Q 220.887166 260.688507 214.294565 239.28125 
" clip-path="url(#p317129f0e6)" style="fill: none; stroke: #e8e8e8; stroke-width: 1.2; stroke-linecap: round"/>
    <path d="M 213.304155 247.957026 
L 214.294565 239.28125 
L 219.994102 245.896783 
z
" clip-path="url(#p317129f0e6)" style="fill: #e8e8e8; stroke: #e8e8e8; stroke-width: 1.2; stroke-linecap: round"/>
   </g>
   <g id="patch_20">
    <path d="M 228.620478 283.336735 
Q 220.309064 249.53714 212.355102 217.191178 
" clip-path="url(#p317129f0e6)" style="fill: none; stroke: #e8e8e8; stroke-width: 1.2; stroke-linecap: round"/>
    <path d="M 210.866665 225.795511 
L 212.355102 217.191178 
L 217.664165 224.123987 
z
" clip-path="url(#p317129f0e6)" style="fill: #e8e8e8; stroke: #e8e8e8; stroke-width: 1.2; stroke-linecap: round"/>
   </g>
   <g id="patch_21">
    <path d="M 239.487166 285.702425 
Q 264.501992 254.334955 288.583492 224.137834 
" clip-path="url(#p317129f0e6)" style="fill: none; stroke: #e8e8e8; stroke-width: 1.2; stroke-linecap: round"/>
    <path d="M 280.859155 228.210256 
L 288.583492 224.137834 
L 286.331966 232.574696 
z
" clip-path="url(#p317129f0e6)" style="fill: #e8e8e8; stroke: #e8e8e8; stroke-width: 1.2; stroke-linecap: round"/>
   </g>
   <g id="patch_22">
    <path d="M 91.629305 321.707383 
Q 77.664655 284.247097 64.22289 248.189455 
" clip-path="url(#p317129f0e6)" style="fill: none; stroke: #e8e8e8; stroke-width: 1.2; stroke-linecap: round"/>
    <path d="M 63.737785 256.908094 
L 64.22289 248.189455 
L 70.296852 254.462969 
z
" clip-path="url(#p317129f0e6)" style="fill: #e8e8e8; stroke: #e8e8e8; stroke-width: 1.2; stroke-linecap: round"/>
   </g>
   <g id="patch_23">
    <path d="M 101.441681 322.135161 
Q 129.012877 264.215165 155.940677 207.646782 
" clip-path="url(#p317129f0e6)" style="fill: none; stroke: #e8e8e8; stroke-width: 1.2; stroke-linecap: round"/>
    <path d="M 149.341981 213.365804 
L 155.940677 207.646782 
L 155.662418 216.374472 
z
" clip-path="url(#p317129f0e6)" style="fill: #e8e8e8; stroke: #e8e8e8; stroke-width: 1.2; stroke-linecap: round"/>
   </g>
   <g id="patch_24">
    <path d="M 103.663404 323.468811 
Q 126.62387 293.280666 148.678127 264.283992 
" clip-path="url(#p317129f0e6)" style="fill: none; stroke: #e8e8e8; stroke-width: 1.2; stroke-linecap: round"/>
    <path d="M 141.049334 268.5327 
L 148.678127 264.283992 
L 146.620915 272.770327 
z
" clip-path="url(#p317129f0e6)" style="fill: #e8e8e8; stroke: #e8e8e8; stroke-width: 1.2; stroke-linecap: round"/>
   </g>
   <g id="patch_25">
    <path d="M 107.842068 338.020667 
Q 153.790622 355.574169 198.340807 372.59346 
" clip-path="url(#p317129f0e6)" style="fill: none; stroke: #e8e8e8; stroke-width: 1.2; stroke-linecap: round"/>
    <path d="M 192.116621 366.468958 
L 198.340807 372.59346 
L 189.618529 373.008036 
z
" clip-path="url(#p317129f0e6)" style="fill: #e8e8e8; stroke: #e8e8e8; stroke-width: 1.2; stroke-linecap: round"/>
   </g>
   <g id="patch_26">
    <path d="M 105.206601 324.846041 
Q 153.086792 279.662625 199.878273 235.506599 
" clip-path="url(#p317129f0e6)" style="fill: none; stroke: #e8e8e8; stroke-width: 1.2; stroke-linecap: round"/>
    <path d="M 191.657789 238.451704 
L 199.878273 235.506599 
L 196.462088 243.542747 
z
" clip-path="url(#p317129f0e6)" style="fill: #e8e8e8; stroke: #e8e8e8; stroke-width: 1.2; stroke-linecap: round"/>
   </g>
   <g id="patch_27">
    <path d="M 104.304766 323.983401 
Q 152.513073 268.508711 199.739476 214.163925 
" clip-path="url(#p317129f0e6)" style="fill: none; stroke: #e8e8e8; stroke-width: 1.2; stroke-linecap: round"/>
    <path d="M 191.850101 217.906619 
L 199.739476 214.163925 
L 197.13378 222.498212 
z
" clip-path="url(#p317129f0e6)" style="fill: #e8e8e8; stroke: #e8e8e8; stroke-width: 1.2; stroke-linecap: round"/>
   </g>
   <g id="patch_28">
    <path d="M 196.548032 201.240311 
Q 185.494453 199.218687 175.913385 197.466375 
" clip-path="url(#p317129f0e6)" style="fill: none; stroke: #e8e8e8; stroke-width: 1.2; stroke-linecap: round"/>
    <path d="M 183.153169 202.348538 
L 175.913385 197.466375 
L 184.412532 195.462755 
z
" clip-path="url(#p317129f0e6)" style="fill: #e8e8e8; stroke: #e8e8e8; stroke-width: 1.2; stroke-linecap: round"/>
   </g>
   <g id="patch_29">
    <path d="M 211.204691 191.126714 
Q 212.986095 181.150179 214.50437 172.647272 
" clip-path="url(#p317129f0e6)" style="fill: none; stroke: #e8e8e8; stroke-width: 1.2; stroke-linecap: round"/>
    <path d="M 209.652632 179.907482 
L 214.50437 172.647272 
L 216.54364 181.137936 
z
" clip-path="url(#p317129f0e6)" style="fill: #e8e8e8; stroke: #e8e8e8; stroke-width: 1.2; stroke-linecap: round"/>
   </g>
   <g id="patch_30">
    <path d="M 203.573843 192.147287 
Q 181.902792 146.677987 160.875784 102.559993 
" clip-path="url(#p317129f0e6)" style="fill: none; stroke: #e8e8e8; stroke-width: 1.2; stroke-linecap: round"/>
    <path d="M 161.158214 111.287549 
L 160.875784 102.559993 
L 167.477212 108.275861 
z
" clip-path="url(#p317129f0e6)" style="fill: #e8e8e8; stroke: #e8e8e8; stroke-width: 1.2; stroke-linecap: round"/>
   </g>
   <g id="patch_31">
    <path d="M 160.96687 207.464054 
Q 159.607868 223.991045 158.371544 239.026137 
" clip-path="url(#p317129f0e6)" style="fill: none; stroke: #e8e8e8; stroke-width: 1.2; stroke-linecap: round"/>
    <path d="M 162.515392 231.339881 
L 158.371544 239.026137 
L 155.538938 230.766213 
z
" clip-path="url(#p317129f0e6)" style="fill: #e8e8e8; stroke: #e8e8e8; stroke-width: 1.2; stroke-linecap: round"/>
   </g>
   <g id="patch_32">
    <path d="M 172.627337 201.741358 
Q 186.070792 210.367109 198.254354 218.184474 
" clip-path="url(#p317129f0e6)" style="fill: none; stroke: #e8e8e8; stroke-width: 1.2; stroke-linecap: round"/>
    <path d="M 193.411274 210.918486 
L 198.254354 218.184474 
L 189.63108 216.810016 
z
" clip-path="url(#p317129f0e6)" style="fill: #e8e8e8; stroke: #e8e8e8; stroke-width: 1.2; stroke-linecap: round"/>
   </g>
   <g id="patch_33">
    <path d="M 156.584771 206.293706 
Q 129.013574 264.213701 102.085775 320.782085 
" clip-path="url(#p317129f0e6)" style="fill: none; stroke: #e8e8e8; stroke-width: 1.2; stroke-linecap: round"/>
    <path d="M 108.68447 315.063062 
L 102.085775 320.782085 
L 102.364034 312.054395 
z
" clip-path="url(#p317129f0e6)" style="fill: #e8e8e8; stroke: #e8e8e8; stroke-width: 1.2; stroke-linecap: round"/>
   </g>
   <g id="patch_34">
    <path d="M 161.139755 182.365685 
Q 158.405728 142.379534 155.773814 103.886831 
" clip-path="url(#p317129f0e6)" style="fill: none; stroke: #e8e8e8; stroke-width: 1.2; stroke-linecap: round"/>
    <path d="M 152.827687 112.106949 
L 155.773814 103.886831 
L 159.811382 111.629443 
z
" clip-path="url(#p317129f0e6)" style="fill: #e8e8e8; stroke: #e8e8e8; stroke-width: 1.2; stroke-linecap: round"/>
   </g>
   <g id="patch_35">
    <path d="M 174.635287 195.506909 
Q 278.295202 200.309833 380.459784 205.043473 
" clip-path="url(#p317129f0e6)" style="fill: none; stroke: #e8e8e8; stroke-width: 1.2; stroke-linecap: round"/>
    <path d="M 372.630351 201.176953 
L 380.459784 205.043473 
L 372.306364 208.169452 
z
" clip-path="url(#p317129f0e6)" style="fill: #e8e8e8; stroke: #e8e8e8; stroke-width: 1.2; stroke-linecap: round"/>
   </g>
   <g id="patch_36">
    <path d="M 161.641588 241.265906 
Q 200.031363 138.949054 237.895277 38.033731 
" clip-path="url(#p317129f0e6)" style="fill: none; stroke: #e8e8e8; stroke-width: 1.2; stroke-linecap: round"/>
    <path d="M 231.808014 44.29434 
L 237.895277 38.033731 
L 238.361876 46.753381 
z
" clip-path="url(#p317129f0e6)" style="fill: #e8e8e8; stroke: #e8e8e8; stroke-width: 1.2; stroke-linecap: round"/>
   </g>
   <g id="patch_37">
    <path d="M 168.190879 259.324067 
Q 194.422546 274.308207 219.354395 288.549859 
" clip-path="url(#p317129f0e6)" style="fill: none; stroke: #e8e8e8; stroke-width: 1.2; stroke-linecap: round"/>
    <path d="M 214.143851 281.542703 
L 219.354395 288.549859 
L 210.67182 287.620943 
z
" clip-path="url(#p317129f0e6)" style="fill: #e8e8e8; stroke: #e8e8e8; stroke-width: 1.2; stroke-linecap: round"/>
   </g>
   <g id="patch_38">
    <path d="M 168.458042 247.271259 
Q 183.686133 239.434091 197.583216 232.28193 
" clip-path="url(#p317129f0e6)" style="fill: none; stroke: #e8e8e8; stroke-width: 1.2; stroke-linecap: round"/>
    <path d="M 188.868354 232.830731 
L 197.583216 232.28193 
L 192.071593 239.054818 
z
" clip-path="url(#p317129f0e6)" style="fill: #e8e8e8; stroke: #e8e8e8; stroke-width: 1.2; stroke-linecap: round"/>
   </g>
   <g id="patch_39">
    <path d="M 199.518579 218.995641 
Q 186.075124 210.369889 173.891561 202.552525 
" clip-path="url(#p317129f0e6)" style="fill: none; stroke: #e8e8e8; stroke-width: 1.2; stroke-linecap: round"/>
    <path d="M 178.734641 209.818512 
L 173.891561 202.552525 
L 182.514836 203.926982 
z
" clip-path="url(#p317129f0e6)" style="fill: #e8e8e8; stroke: #e8e8e8; stroke-width: 1.2; stroke-linecap: round"/>
   </g>
   <g id="patch_40">
    <path d="M 211.423676 213.296175 
Q 213.563588 192.300558 215.551716 172.794163 
" clip-path="url(#p317129f0e6)" style="fill: none; stroke: #e8e8e8; stroke-width: 1.2; stroke-linecap: round"/>
    <path d="M 211.258582 180.398043 
L 215.551716 172.794163 
L 218.222505 181.107819 
z
" clip-path="url(#p317129f0e6)" style="fill: #e8e8e8; stroke: #e8e8e8; stroke-width: 1.2; stroke-linecap: round"/>
   </g>
   <g id="patch_41">
    <path d="M 219.986626 233.723222 
Q 275.489987 278.331534 329.826549 322.002085 
" clip-path="url(#p317129f0e6)" style="fill: none; stroke: #e8e8e8; stroke-width: 1.2; stroke-linecap: round"/>
    <path d="M 325.783473 314.262347 
L 329.826549 322.002085 
L 321.398293 319.718555 
z
" clip-path="url(#p317129f0e6)" style="fill: #e8e8e8; stroke: #e8e8e8; stroke-width: 1.2; stroke-linecap: round"/>
   </g>
   <g id="patch_42">
    <path d="M 199.189777 219.523175 
Q 124.823914 176.819521 51.756181 134.861303 
" clip-path="url(#p317129f0e6)" style="fill: none; stroke: #e8e8e8; stroke-width: 1.2; stroke-linecap: round"/>
    <path d="M 56.950808 141.880266 
L 51.756181 134.861303 
L 60.436626 135.809923 
z
" clip-path="url(#p317129f0e6)" style="fill: #e8e8e8; stroke: #e8e8e8; stroke-width: 1.2; stroke-linecap: round"/>
   </g>
   <g id="patch_43">
    <path d="M 163.258944 99.206695 
Q 185.89517 124.311499 207.528973 148.304563 
" clip-path="url(#p317129f0e6)" style="fill: none; stroke: #e8e8e8; stroke-width: 1.2; stroke-linecap: round"/>
    <path d="M 204.77115 140.019371 
L 207.528973 148.304563 
L 199.572408 144.706916 
z
" clip-path="url(#p317129f0e6)" style="fill: #e8e8e8; stroke: #e8e8e8; stroke-width: 1.2; stroke-linecap: round"/>
   </g>
   <g id="patch_44">
    <path d="M 157.247383 102.186573 
Q 183.1819 233.739155 208.826882 363.823069 
" clip-path="url(#p317129f0e6)" style="fill: none; stroke: #e8e8e8; stroke-width: 1.2; stroke-linecap: round"/>
    <path d="M 210.713436 355.297172 
L 208.826882 363.823069 
L 203.845622 356.651105 
z
" clip-path="url(#p317129f0e6)" style="fill: #e8e8e8; stroke: #e8e8e8; stroke-width: 1.2; stroke-linecap: round"/>
   </g>
   <g id="patch_45">
    <path d="M 164.971893 82.339392 
Q 198.828697 57.340647 231.481262 33.231073 
" clip-path="url(#p317129f0e6)" style="fill: none; stroke: #e8e8e8; stroke-width: 1.2; stroke-linecap: round"/>
    <path d="M 222.966527 35.167379 
L 231.481262 33.231073 
L 227.124483 40.798667 
z
" clip-path="url(#p317129f0e6)" style="fill: #e8e8e8; stroke: #e8e8e8; stroke-width: 1.2; stroke-linecap: round"/>
   </g>
   <g id="patch_46">
    <path d="M 151.861392 102.076228 
Q 125.421192 211.672134 99.332059 319.812853 
" clip-path="url(#p317129f0e6)" style="fill: none; stroke: #e8e8e8; stroke-width: 1.2; stroke-linecap: round"/>
    <path d="M 104.610632 312.856801 
L 99.332059 319.812853 
L 97.805859 311.215138 
z
" clip-path="url(#p317129f0e6)" style="fill: #e8e8e8; stroke: #e8e8e8; stroke-width: 1.2; stroke-linecap: round"/>
   </g>
   <g id="patch_47">
    <path d="M 142.801162 93.796972 
Q 97.155537 108.83281 52.931696 123.400307 
" clip-path="url(#p317129f0e6)" style="fill: none; stroke: #e8e8e8; stroke-width: 1.2; stroke-linecap: round"/>
    <path d="M 61.625106 124.221664 
L 52.931696 123.400307 
L 59.435039 117.573084 
z
" clip-path="url(#p317129f0e6)" style="fill: #e8e8e8; stroke: #e8e8e8; stroke-width: 1.2; stroke-linecap: round"/>
   </g>
   <g id="patch_48">
    <path d="M 382.18936 208.172789 
Q 275.906132 229.37697 171.090908 250.288274 
" clip-path="url(#p317129f0e6)" style="fill: none; stroke: #e8e8e8; stroke-width: 1.2; stroke-linecap: round"/>
    <path d="M 179.621075 252.155427 
L 171.090908 250.288274 
L 178.25152 245.290711 
z
" clip-path="url(#p317129f0e6)" style="fill: #e8e8e8; stroke: #e8e8e8; stroke-width: 1.2; stroke-linecap: round"/>
   </g>
   <g id="patch_49">
    <path d="M 385.391803 214.341013 
Q 303.070333 291.670357 221.839922 367.974808 
" clip-path="url(#p317129f0e6)" style="fill: none; stroke: #e8e8e8; stroke-width: 1.2; stroke-linecap: round"/>
    <path d="M 230.067126 365.048529 
L 221.839922 367.974808 
L 225.274495 359.946501 
z
" clip-path="url(#p317129f0e6)" style="fill: #e8e8e8; stroke: #e8e8e8; stroke-width: 1.2; stroke-linecap: round"/>
   </g>
   <g id="patch_50">
    <path d="M 386.483792 196.034023 
Q 318.717224 115.266968 251.912825 35.646667 
" clip-path="url(#p317129f0e6)" style="fill: none; stroke: #e8e8e8; stroke-width: 1.2; stroke-linecap: round"/>
    <path d="M 254.373664 44.024869 
L 251.912825 35.646667 
L 259.736139 39.525552 
z
" clip-path="url(#p317129f0e6)" style="fill: #e8e8e8; stroke: #e8e8e8; stroke-width: 1.2; stroke-linecap: round"/>
   </g>
   <g id="patch_51">
    <path d="M 384.96829 197.53057 
Q 343.949807 162.719562 304.072649 128.877159 
" clip-path="url(#p317129f0e6)" style="fill: none; stroke: #e8e8e8; stroke-width: 1.2; stroke-linecap: round"/>
    <path d="M 307.907473 136.722165 
L 304.072649 128.877159 
L 312.436879 131.385079 
z
" clip-path="url(#p317129f0e6)" style="fill: #e8e8e8; stroke: #e8e8e8; stroke-width: 1.2; stroke-linecap: round"/>
   </g>
   <g id="patch_52">
    <path d="M 393.056476 193.208109 
Q 387.724379 149.849365 382.574993 107.976364 
" clip-path="url(#p317129f0e6)" style="fill: none; stroke: #e8e8e8; stroke-width: 1.2; stroke-linecap: round"/>
    <path d="M 380.077617 116.343748 
L 382.574993 107.976364 
L 387.025278 115.48935 
z
" clip-path="url(#p317129f0e6)" style="fill: #e8e8e8; stroke: #e8e8e8; stroke-width: 1.2; stroke-linecap: round"/>
   </g>
   <g id="patch_53">
    <path d="M 381.972479 206.660194 
Q 345.98232 209.403388 311.484766 212.032814 
" clip-path="url(#p317129f0e6)" style="fill: none; stroke: #e8e8e8; stroke-width: 1.2; stroke-linecap: round"/>
    <path d="M 319.727629 214.91469 
L 311.484766 212.032814 
L 319.195628 207.934935 
z
" clip-path="url(#p317129f0e6)" style="fill: #e8e8e8; stroke: #e8e8e8; stroke-width: 1.2; stroke-linecap: round"/>
   </g>
   <g id="patch_54">
    <path d="M 213.509803 365.210262 
Q 224.911869 292.865817 236.080883 222.000054 
" clip-path="url(#p317129f0e6)" style="fill: none; stroke: #e8e8e8; stroke-width: 1.2; stroke-linecap: round"/>
    <path d="M 231.37807 229.357604 
L 236.080883 222.000054 
L 238.292716 230.447408 
z
" clip-path="url(#p317129f0e6)" style="fill: #e8e8e8; stroke: #e8e8e8; stroke-width: 1.2; stroke-linecap: round"/>
   </g>
   <g id="patch_55">
    <path d="M 223.437289 373.337693 
Q 276.190968 354.243573 327.537075 335.658921 
" clip-path="url(#p317129f0e6)" style="fill: none; stroke: #e8e8e8; stroke-width: 1.2; stroke-linecap: round"/>
    <path d="M 318.823465 335.090592 
L 327.537075 335.658921 
L 321.205852 341.672706 
z
" clip-path="url(#p317129f0e6)" style="fill: #e8e8e8; stroke: #e8e8e8; stroke-width: 1.2; stroke-linecap: round"/>
   </g>
   <g id="patch_56">
    <path d="M 204.39967 367.25658 
Q 125.524566 252.729793 47.498527 139.43585 
" clip-path="url(#p317129f0e6)" style="fill: none; stroke: #e8e8e8; stroke-width: 1.2; stroke-linecap: round"/>
    <path d="M 49.15362 148.009686 
L 47.498527 139.43585 
L 54.91867 144.039271 
z
" clip-path="url(#p317129f0e6)" style="fill: #e8e8e8; stroke: #e8e8e8; stroke-width: 1.2; stroke-linecap: round"/>
   </g>
   <g id="patch_57">
    <path d="M 220.751445 368.997277 
Q 303.072915 291.667932 384.303327 215.363482 
" clip-path="url(#p317129f0e6)" style="fill: none; stroke: #e8e8e8; stroke-width: 1.2; stroke-linecap: round"/>
    <path d="M 376.076122 218.289761 
L 384.303327 215.363482 
L 380.868754 223.391789 
z
" clip-path="url(#p317129f0e6)" style="fill: #e8e8e8; stroke: #e8e8e8; stroke-width: 1.2; stroke-linecap: round"/>
   </g>
   <g id="patch_58">
    <path d="M 238.421917 36.630127 
Q 200.032142 138.946979 162.168227 239.862301 
" clip-path="url(#p317129f0e6)" style="fill: none; stroke: #e8e8e8; stroke-width: 1.2; stroke-linecap: round"/>
    <path d="M 168.255491 233.601693 
L 162.168227 239.862301 
L 161.701628 231.142652 
z
" clip-path="url(#p317129f0e6)" style="fill: #e8e8e8; stroke: #e8e8e8; stroke-width: 1.2; stroke-linecap: round"/>
   </g>
   <g id="patch_59">
    <path d="M 242.531624 37.424113 
Q 240.559282 116.468096 238.624281 194.015609 
" clip-path="url(#p317129f0e6)" style="fill: none; stroke: #e8e8e8; stroke-width: 1.2; stroke-linecap: round"/>
    <path d="M 242.322749 186.105404 
L 238.624281 194.015609 
L 235.324928 185.930792 
z
" clip-path="url(#p317129f0e6)" style="fill: #e8e8e8; stroke: #e8e8e8; stroke-width: 1.2; stroke-linecap: round"/>
   </g>
   <g id="patch_60">
    <path d="M 237.434573 36.216149 
Q 169.436325 179.174986 102.081063 320.782014 
" clip-path="url(#p317129f0e6)" style="fill: none; stroke: #e8e8e8; stroke-width: 1.2; stroke-linecap: round"/>
    <path d="M 108.678019 315.060986 
L 102.081063 320.782014 
L 102.356667 312.05424 
z
" clip-path="url(#p317129f0e6)" style="fill: #e8e8e8; stroke: #e8e8e8; stroke-width: 1.2; stroke-linecap: round"/>
   </g>
   <g id="patch_61">
    <path d="M 248.760142 35.962956 
Q 268.077286 72.29118 286.69163 107.297704 
" clip-path="url(#p317129f0e6)" style="fill: none; stroke: #e8e8e8; stroke-width: 1.2; stroke-linecap: round"/>
    <path d="M 286.025972 98.590988 
L 286.69163 107.297704 
L 279.845415 101.877433 
z
" clip-path="url(#p317129f0e6)" style="fill: #e8e8e8; stroke: #e8e8e8; stroke-width: 1.2; stroke-linecap: round"/>
   </g>
   <g id="patch_62">
    <path d="M 246.34774 36.93036 
Q 270.112118 118.972262 293.460012 199.576333 
" clip-path="url(#p317129f0e6)" style="fill: none; stroke: #e8e8e8; stroke-width: 1.2; stroke-linecap: round"/>
    <path d="M 294.596022 190.918418 
L 293.460012 199.576333 
L 287.87241 192.86599 
z
" clip-path="url(#p317129f0e6)" style="fill: #e8e8e8; stroke: #e8e8e8; stroke-width: 1.2; stroke-linecap: round"/>
   </g>
   <g id="patch_63">
    <path d="M 287.394433 108.619409 
Q 268.077289 72.291186 249.462944 37.284661 
" clip-path="url(#p317129f0e6)" style="fill: none; stroke: #e8e8e8; stroke-width: 1.2; stroke-linecap: round"/>
    <path d="M 250.128603 45.991377 
L 249.462944 37.284661 
L 256.30916 42.704932 
z
" clip-path="url(#p317129f0e6)" style="fill: #e8e8e8; stroke: #e8e8e8; stroke-width: 1.2; stroke-linecap: round"/>
   </g>
   <g id="patch_64">
    <path d="M 285.5289 129.665911 
Q 251.727949 172.779445 218.850587 214.71493 
" clip-path="url(#p317129f0e6)" style="fill: none; stroke: #e8e8e8; stroke-width: 1.2; stroke-linecap: round"/>
    <path d="M 226.540887 210.578592 
L 218.850587 214.71493 
L 221.03207 206.259687 
z
" clip-path="url(#p317129f0e6)" style="fill: #e8e8e8; stroke: #e8e8e8; stroke-width: 1.2; stroke-linecap: round"/>
   </g>
   <g id="patch_65">
    <path d="M 280.941979 117.072242 
Q 224.059012 104.79077 168.639263 92.825219 
" clip-path="url(#p317129f0e6)" style="fill: none; stroke: #e8e8e8; stroke-width: 1.2; stroke-linecap: round"/>
    <path d="M 175.720418 97.934744 
L 168.639263 92.825219 
L 177.197731 91.092409 
z
" clip-path="url(#p317129f0e6)" style="fill: #e8e8e8; stroke: #e8e8e8; stroke-width: 1.2; stroke-linecap: round"/>
   </g>
   <g id="patch_66">
    <path d="M 302.933128 127.910085 
Q 343.95161 162.721093 383.828768 196.563496 
" clip-path="url(#p317129f0e6)" style="fill: none; stroke: #e8e8e8; stroke-width: 1.2; stroke-linecap: round"/>
    <path d="M 379.993944 188.71849 
L 383.828768 196.563496 
L 375.464539 194.055576 
z
" clip-path="url(#p317129f0e6)" style="fill: #e8e8e8; stroke: #e8e8e8; stroke-width: 1.2; stroke-linecap: round"/>
   </g>
   <g id="patch_67">
    <path d="M 293.857021 132.313183 
Q 295.344164 166.422745 296.766104 199.036792 
" clip-path="url(#p317129f0e6)" style="fill: none; stroke: #e8e8e8; stroke-width: 1.2; stroke-linecap: round"/>
    <path d="M 299.914321 190.891933 
L 296.766104 199.036792 
L 292.920965 191.196837 
z
" clip-path="url(#p317129f0e6)" style="fill: #e8e8e8; stroke: #e8e8e8; stroke-width: 1.2; stroke-linecap: round"/>
   </g>
   <g id="patch_68">
    <path d="M 284.783406 214.265614 
Q 178.341531 224.048506 73.390308 233.694395 
" clip-path="url(#p317129f0e6)" style="fill: none; stroke: #e8e8e8; stroke-width: 1.2; stroke-linecap: round"/>
    <path d="M 81.677061 236.447525 
L 73.390308 233.694395 
L 81.036403 229.476904 
z
" clip-path="url(#p317129f0e6)" style="fill: #e8e8e8; stroke: #e8e8e8; stroke-width: 1.2; stroke-linecap: round"/>
   </g>
   <g id="patch_69">
    <path d="M 284.772657 212.037846 
Q 267.826471 210.599458 252.371856 209.287674 
" clip-path="url(#p317129f0e6)" style="fill: none; stroke: #e8e8e8; stroke-width: 1.2; stroke-linecap: round"/>
    <path d="M 260.047178 213.451739 
L 252.371856 209.287674 
L 260.639208 206.47682 
z
" clip-path="url(#p317129f0e6)" style="fill: #e8e8e8; stroke: #e8e8e8; stroke-width: 1.2; stroke-linecap: round"/>
   </g>
   <g id="patch_70">
    <path d="M 293.87748 201.01756 
Q 270.113102 118.975658 246.765208 38.371587 
" clip-path="url(#p317129f0e6)" style="fill: none; stroke: #e8e8e8; stroke-width: 1.2; stroke-linecap: round"/>
    <path d="M 245.629198 47.029502 
L 246.765208 38.371587 
L 252.352811 45.08193 
z
" clip-path="url(#p317129f0e6)" style="fill: #e8e8e8; stroke: #e8e8e8; stroke-width: 1.2; stroke-linecap: round"/>
   </g>
   <g id="patch_71">
    <path d="M 301.740195 224.923538 
Q 319.105802 271.977893 335.953127 317.627898 
" clip-path="url(#p317129f0e6)" style="fill: none; stroke: #e8e8e8; stroke-width: 1.2; stroke-linecap: round"/>
    <path d="M 336.466827 308.910897 
L 335.953127 317.627898 
L 329.899775 311.334495 
z
" clip-path="url(#p317129f0e6)" style="fill: #e8e8e8; stroke: #e8e8e8; stroke-width: 1.2; stroke-linecap: round"/>
   </g>
   <g id="patch_72">
    <path d="M 304.613716 202.786028 
Q 339.116462 153.55635 372.76007 105.552519 
" clip-path="url(#p317129f0e6)" style="fill: none; stroke: #e8e8e8; stroke-width: 1.2; stroke-linecap: round"/>
    <path d="M 365.30246 110.094991 
L 372.76007 105.552519 
L 371.034787 114.112507 
z
" clip-path="url(#p317129f0e6)" style="fill: #e8e8e8; stroke: #e8e8e8; stroke-width: 1.2; stroke-linecap: round"/>
   </g>
   <g id="patch_73">
    <path d="M 309.999583 212.146016 
Q 345.989743 209.402822 380.487297 206.773395 
" clip-path="url(#p317129f0e6)" style="fill: none; stroke: #e8e8e8; stroke-width: 1.2; stroke-linecap: round"/>
    <path d="M 372.244434 203.89152 
L 380.487297 206.773395 
L 372.776435 210.871274 
z
" clip-path="url(#p317129f0e6)" style="fill: #e8e8e8; stroke: #e8e8e8; stroke-width: 1.2; stroke-linecap: round"/>
   </g>
   <g id="patch_74">
    <path d="M 328.945164 335.149265 
Q 276.191485 354.243385 224.845378 372.828038 
" clip-path="url(#p317129f0e6)" style="fill: none; stroke: #e8e8e8; stroke-width: 1.2; stroke-linecap: round"/>
    <path d="M 233.558988 373.396367 
L 224.845378 372.828038 
L 231.176601 366.814252 
z
" clip-path="url(#p317129f0e6)" style="fill: #e8e8e8; stroke: #e8e8e8; stroke-width: 1.2; stroke-linecap: round"/>
   </g>
   <g id="patch_75">
    <path d="M 331.752493 322.078263 
Q 274.910168 267.179819 219.144587 213.321296 
" clip-path="url(#p317129f0e6)" style="fill: none; stroke: #e8e8e8; stroke-width: 1.2; stroke-linecap: round"/>
    <path d="M 222.467527 221.396448 
L 219.144587 213.321296 
L 227.330431 216.361355 
z
" clip-path="url(#p317129f0e6)" style="fill: #e8e8e8; stroke: #e8e8e8; stroke-width: 1.2; stroke-linecap: round"/>
   </g>
   <g id="patch_76">
    <path d="M 333.126609 320.864208 
Q 247.823452 210.344729 163.434934 101.010263 
" clip-path="url(#p317129f0e6)" style="fill: none; stroke: #e8e8e8; stroke-width: 1.2; stroke-linecap: round"/>
    <path d="M 165.552299 109.48179 
L 163.434934 101.010263 
L 171.093676 105.204743 
z
" clip-path="url(#p317129f0e6)" style="fill: #e8e8e8; stroke: #e8e8e8; stroke-width: 1.2; stroke-linecap: round"/>
   </g>
   <g id="patch_77">
    <path d="M 336.471073 319.03134 
Q 319.105466 271.976984 302.258141 226.32698 
" clip-path="url(#p317129f0e6)" style="fill: none; stroke: #e8e8e8; stroke-width: 1.2; stroke-linecap: round"/>
    <path d="M 301.744441 235.043981 
L 302.258141 226.32698 
L 308.311493 232.620383 
z
" clip-path="url(#p317129f0e6)" style="fill: #e8e8e8; stroke: #e8e8e8; stroke-width: 1.2; stroke-linecap: round"/>
   </g>
   <g id="patch_78">
    <path d="M 50.582918 133.894019 
Q 100.749113 161.372384 149.602421 188.131621 
" clip-path="url(#p317129f0e6)" style="fill: none; stroke: #e8e8e8; stroke-width: 1.2; stroke-linecap: round"/>
    <path d="M 144.267431 181.218743 
L 149.602421 188.131621 
L 140.904626 187.358087 
z
" clip-path="url(#p317129f0e6)" style="fill: #e8e8e8; stroke: #e8e8e8; stroke-width: 1.2; stroke-linecap: round"/>
   </g>
   <g id="patch_79">
    <path d="M 51.225238 132.558428 
Q 138.888813 167.958213 225.164351 202.797489 
" clip-path="url(#p317129f0e6)" style="fill: none; stroke: #e8e8e8; stroke-width: 1.2; stroke-linecap: round"/>
    <path d="M 219.056865 196.556607 
L 225.164351 202.797489 
L 216.435802 203.047372 
z
" clip-path="url(#p317129f0e6)" style="fill: #e8e8e8; stroke: #e8e8e8; stroke-width: 1.2; stroke-linecap: round"/>
   </g>
   <g id="patch_80">
    <path d="M 46.652669 138.207663 
Q 125.527773 252.73445 203.553812 366.028393 
" clip-path="url(#p317129f0e6)" style="fill: none; stroke: #e8e8e8; stroke-width: 1.2; stroke-linecap: round"/>
    <path d="M 201.898719 357.454557 
L 203.553812 366.028393 
L 196.133669 361.424972 
z
" clip-path="url(#p317129f0e6)" style="fill: #e8e8e8; stroke: #e8e8e8; stroke-width: 1.2; stroke-linecap: round"/>
   </g>
   <g id="patch_81">
    <path d="M 50.77873 122.112886 
Q 141.173892 76.331971 230.23362 31.227392 
" clip-path="url(#p317129f0e6)" style="fill: none; stroke: #e8e8e8; stroke-width: 1.2; stroke-linecap: round"/>
    <path d="M 221.515373 31.719504 
L 230.23362 31.227392 
L 224.678066 37.964291 
z
" clip-path="url(#p317129f0e6)" style="fill: #e8e8e8; stroke: #e8e8e8; stroke-width: 1.2; stroke-linecap: round"/>
   </g>
   <g id="patch_82">
    <path d="M 51.513778 123.867375 
Q 97.159404 108.831536 141.383245 94.264039 
" clip-path="url(#p317129f0e6)" style="fill: none; stroke: #e8e8e8; stroke-width: 1.2; stroke-linecap: round"/>
    <path d="M 132.689835 93.442683 
L 141.383245 94.264039 
L 134.879902 100.091262 
z
" clip-path="url(#p317129f0e6)" style="fill: #e8e8e8; stroke: #e8e8e8; stroke-width: 1.2; stroke-linecap: round"/>
   </g>
   <g id="patch_83">
    <path d="M 369.278279 99.077045 
Q 220.078192 164.495313 72.24905 229.312477 
" clip-path="url(#p317129f0e6)" style="fill: none; stroke: #e8e8e8; stroke-width: 1.2; stroke-linecap: round"/>
    <path d="M 80.981172 229.305443 
L 72.24905 229.312477 
L 78.170275 222.894604 
z
" clip-path="url(#p317129f0e6)" style="fill: #e8e8e8; stroke: #e8e8e8; stroke-width: 1.2; stroke-linecap: round"/>
   </g>
   <g id="patch_84">
    <path d="M 370.566602 101.318756 
Q 269.036914 173.528413 168.727101 244.870474 
" clip-path="url(#p317129f0e6)" style="fill: none; stroke: #e8e8e8; stroke-width: 1.2; stroke-linecap: round"/>
    <path d="M 177.274951 243.086026 
L 168.727101 244.870474 
L 173.217883 237.381624 
z
" clip-path="url(#p317129f0e6)" style="fill: #e8e8e8; stroke: #e8e8e8; stroke-width: 1.2; stroke-linecap: round"/>
   </g>
   <g id="patch_85">
    <path d="M 382.392295 106.490728 
Q 387.724392 149.849472 392.873778 191.722473 
" clip-path="url(#p317129f0e6)" style="fill: none; stroke: #e8e8e8; stroke-width: 1.2; stroke-linecap: round"/>
    <path d="M 395.371154 183.355089 
L 392.873778 191.722473 
L 388.423492 184.209487 
z
" clip-path="url(#p317129f0e6)" style="fill: #e8e8e8; stroke: #e8e8e8; stroke-width: 1.2; stroke-linecap: round"/>
   </g>
   <g id="patch_86">
    <path d="M 63.700939 246.789317 
Q 77.665589 284.249603 91.107354 320.307245 
" clip-path="url(#p317129f0e6)" style="fill: none; stroke: #797979; stroke-width: 1.2; stroke-linecap: round"/>
    <path d="M 91.592459 311.588606 
L 91.107354 320.307245 
L 85.033392 314.033731 
z
" clip-path="url(#p317129f0e6)" style="fill: #797979; stroke: #797979; stroke-width: 1.2; stroke-linecap: round"/>
   </g>
   <g id="patch_87">
    <path d="M 233.280883 196.531574 
Q 227.627084 183.440205 222.566788 171.72309 
" clip-path="url(#p317129f0e6)" style="fill: none; stroke: #797979; stroke-width: 1.2; stroke-linecap: round"/>
    <path d="M 222.525455 180.455117 
L 222.566788 171.72309 
L 228.951765 177.679772 
z
" clip-path="url(#p317129f0e6)" style="fill: #797979; stroke: #797979; stroke-width: 1.2; stroke-linecap: round"/>
   </g>
   <g id="patch_88">
    <path d="M 218.071596 212.284999 
Q 274.913921 267.183443 330.679502 321.041965 
" clip-path="url(#p317129f0e6)" style="fill: none; stroke: #797979; stroke-width: 1.2; stroke-linecap: round"/>
    <path d="M 327.356562 312.966814 
L 330.679502 321.041965 
L 322.493658 318.001907 
z
" clip-path="url(#p317129f0e6)" style="fill: #797979; stroke: #797979; stroke-width: 1.2; stroke-linecap: round"/>
   </g>
   <g id="patch_89">
    <path d="M 217.943048 194.623268 
Q 251.150708 161.629306 283.296463 129.690416 
" clip-path="url(#p317129f0e6)" style="fill: none; stroke: #797979; stroke-width: 1.2; stroke-linecap: round"/>
    <path d="M 275.154506 132.846131 
L 283.296463 129.690416 
L 280.08825 137.81183 
z
" clip-path="url(#p317129f0e6)" style="fill: #797979; stroke: #797979; stroke-width: 1.2; stroke-linecap: round"/>
   </g>
   <g id="patch_90">
    <path d="M 162.252388 264.600041 
Q 184.384413 315.348216 205.918034 364.724264 
" clip-path="url(#p317129f0e6)" style="fill: none; stroke: #797979; stroke-width: 1.2; stroke-linecap: round"/>
    <path d="M 205.928193 355.992146 
L 205.918034 364.724264 
L 199.511832 358.790415 
z
" clip-path="url(#p317129f0e6)" style="fill: #797979; stroke: #797979; stroke-width: 1.2; stroke-linecap: round"/>
   </g>
   <g id="patch_91">
    <path d="M 220.143849 218.096919 
Q 295.503176 159.907158 369.677678 102.632276 
" clip-path="url(#p317129f0e6)" style="fill: none; stroke: #797979; stroke-width: 1.2; stroke-linecap: round"/>
    <path d="M 361.206583 104.751371 
L 369.677678 102.632276 
L 365.484762 110.291875 
z
" clip-path="url(#p317129f0e6)" style="fill: #797979; stroke: #797979; stroke-width: 1.2; stroke-linecap: round"/>
   </g>
   <g id="patch_92">
    <path d="M 167.466827 90.072997 
Q 267.835351 91.920335 366.707193 93.740125 
" clip-path="url(#p317129f0e6)" style="fill: none; stroke: #797979; stroke-width: 1.2; stroke-linecap: round"/>
    <path d="M 358.772957 90.093498 
L 366.707193 93.740125 
L 358.64414 97.092313 
z
" clip-path="url(#p317129f0e6)" style="fill: #797979; stroke: #797979; stroke-width: 1.2; stroke-linecap: round"/>
   </g>
   <g id="patch_93">
    <path d="M 206.516265 366.095991 
Q 184.384239 315.347817 162.850618 265.971768 
" clip-path="url(#p317129f0e6)" style="fill: none; stroke: #797979; stroke-width: 1.2; stroke-linecap: round"/>
    <path d="M 162.84046 274.703887 
L 162.850618 265.971768 
L 169.256821 271.905617 
z
" clip-path="url(#p317129f0e6)" style="fill: #797979; stroke: #797979; stroke-width: 1.2; stroke-linecap: round"/>
   </g>
   <g id="patch_94">
    <path d="M 232.687114 32.340712 
Q 198.830309 57.339457 166.177744 81.449031 
" clip-path="url(#p317129f0e6)" style="fill: none; stroke: #797979; stroke-width: 1.2; stroke-linecap: round"/>
    <path d="M 174.69248 79.512724 
L 166.177744 81.449031 
L 170.534523 73.881437 
z
" clip-path="url(#p317129f0e6)" style="fill: #797979; stroke: #797979; stroke-width: 1.2; stroke-linecap: round"/>
   </g>
   <g id="patch_95">
    <path d="M 284.358311 128.635402 
Q 251.150651 161.629363 219.004896 193.568253 
" clip-path="url(#p317129f0e6)" style="fill: none; stroke: #797979; stroke-width: 1.2; stroke-linecap: round"/>
    <path d="M 227.146853 190.412538 
L 219.004896 193.568253 
L 222.213109 185.446839 
z
" clip-path="url(#p317129f0e6)" style="fill: #797979; stroke: #797979; stroke-width: 1.2; stroke-linecap: round"/>
   </g>
   <g id="patch_96">
    <path d="M 333.466433 320.614817 
Q 278.906188 244.81717 225.220462 170.234445 
" clip-path="url(#p317129f0e6)" style="fill: none; stroke: #797979; stroke-width: 1.2; stroke-linecap: round"/>
    <path d="M 227.053486 178.77201 
L 225.220462 170.234445 
L 232.734726 174.682571 
z
" clip-path="url(#p317129f0e6)" style="fill: #797979; stroke: #797979; stroke-width: 1.2; stroke-linecap: round"/>
   </g>
   <g id="patch_97">
    <path d="M 49.011387 136.126852 
Q 135.564984 211.692991 220.990937 286.274633 
" clip-path="url(#p317129f0e6)" style="fill: none; stroke: #797979; stroke-width: 1.2; stroke-linecap: round"/>
    <path d="M 217.266383 278.376678 
L 220.990937 286.274633 
L 212.66266 283.649791 
z
" clip-path="url(#p317129f0e6)" style="fill: #797979; stroke: #797979; stroke-width: 1.2; stroke-linecap: round"/>
   </g>
   <g id="patch_98">
    <path d="M 368.20285 93.767653 
Q 267.834326 91.920316 168.962484 90.100525 
" clip-path="url(#p317129f0e6)" style="fill: none; stroke: #797979; stroke-width: 1.2; stroke-linecap: round"/>
    <path d="M 176.89672 93.747152 
L 168.962484 90.100525 
L 177.025537 86.748338 
z
" clip-path="url(#p317129f0e6)" style="fill: #797979; stroke: #797979; stroke-width: 1.2; stroke-linecap: round"/>
   </g>
   <g id="PathCollection_1">
    <defs>
     <path id="me43b0c4de3" d="M 0 12.455804 
C 3.303318 12.455804 6.471785 11.143382 8.807584 8.807584 
C 11.143382 6.471785 12.455804 3.303318 12.455804 0 
C 12.455804 -3.303318 11.143382 -6.471785 8.807584 -8.807584 
C 6.471785 -11.143382 3.303318 -12.455804 0 -12.455804 
C -3.303318 -12.455804 -6.471785 -11.143382 -8.807584 -8.807584 
C -11.143382 -6.471785 -12.455804 -3.303318 -12.455804 0 
C -12.455804 3.303318 -11.143382 6.471785 -8.807584 8.807584 
C -6.471785 11.143382 -3.303318 12.455804 0 12.455804 
z
" style="stroke: #f9c479; stroke-width: 0.5"/>
    </defs>
    <g clip-path="url(#p317129f0e6)">
     <use xlink:href="#me43b0c4de3" x="59.302036" y="234.989224" style="fill: #f9c479; stroke: #f9c479; stroke-width: 0.5"/>
    </g>
   </g>
   <g id="PathCollection_2">
    <defs>
     <path id="m022aa28f8e" d="M 0 12.455804 
C 3.303318 12.455804 6.471785 11.143382 8.807584 8.807584 
C 11.143382 6.471785 12.455804 3.303318 12.455804 0 
C 12.455804 -3.303318 11.143382 -6.471785 8.807584 -8.807584 
C 6.471785 -11.143382 3.303318 -12.455804 0 -12.455804 
C -3.303318 -12.455804 -6.471785 -11.143382 -8.807584 -8.807584 
C -11.143382 -6.471785 -12.455804 -3.303318 -12.455804 0 
C -12.455804 3.303318 -11.143382 6.471785 -8.807584 8.807584 
C -6.471785 11.143382 -3.303318 12.455804 0 12.455804 
z
" style="stroke: #f9b14d; stroke-width: 0.5"/>
    </defs>
    <g clip-path="url(#p317129f0e6)">
     <use xlink:href="#m022aa28f8e" x="161.998244" y="194.921391" style="fill: #f9b14d; stroke: #f9b14d; stroke-width: 0.5"/>
    </g>
   </g>
   <g id="PathCollection_3">
    <defs>
     <path id="m76ccacb7d6" d="M 0 14.627734 
C 3.87932 14.627734 7.600276 13.086463 10.34337 10.34337 
C 13.086463 7.600276 14.627734 3.87932 14.627734 0 
C 14.627734 -3.87932 13.086463 -7.600276 10.34337 -10.34337 
C 7.600276 -13.086463 3.87932 -14.627734 0 -14.627734 
C -3.87932 -14.627734 -7.600276 -13.086463 -10.34337 -10.34337 
C -13.086463 -7.600276 -14.627734 -3.87932 -14.627734 0 
C -14.627734 3.87932 -13.086463 7.600276 -10.34337 10.34337 
C -7.600276 13.086463 -3.87932 14.627734 0 14.627734 
z
" style="stroke: #f9ce8f; stroke-width: 0.5"/>
    </defs>
    <g clip-path="url(#p317129f0e6)">
     <use xlink:href="#m76ccacb7d6" x="157.217876" y="253.056033" style="fill: #f9ce8f; stroke: #f9ce8f; stroke-width: 0.5"/>
    </g>
   </g>
   <g id="PathCollection_4">
    <defs>
     <path id="m9759c86bd4" d="M 0 13.366992 
C 3.544968 13.366992 6.94522 11.958561 9.451891 9.451891 
C 11.958561 6.94522 13.366992 3.544968 13.366992 0 
C 13.366992 -3.544968 11.958561 -6.94522 9.451891 -9.451891 
C 6.94522 -11.958561 3.544968 -13.366992 0 -13.366992 
C -3.544968 -13.366992 -6.94522 -11.958561 -9.451891 -9.451891 
C -11.958561 -6.94522 -13.366992 -3.544968 -13.366992 0 
C -13.366992 3.544968 -11.958561 6.94522 -9.451891 9.451891 
C -6.94522 11.958561 -3.544968 13.366992 0 13.366992 
z
" style="stroke: #f9b352; stroke-width: 0.5"/>
    </defs>
    <g clip-path="url(#p317129f0e6)">
     <use xlink:href="#m9759c86bd4" x="238.273066" y="208.090973" style="fill: #f9b352; stroke: #f9b352; stroke-width: 0.5"/>
    </g>
   </g>
   <g id="PathCollection_5">
    <defs>
     <path id="m630aab5a08" d="M 0 14.219911 
C 3.771165 14.219911 7.38838 12.721612 10.054996 10.054996 
C 12.721612 7.38838 14.219911 3.771165 14.219911 0 
C 14.219911 -3.771165 12.721612 -7.38838 10.054996 -10.054996 
C 7.38838 -12.721612 3.771165 -14.219911 0 -14.219911 
C -3.771165 -14.219911 -7.38838 -12.721612 -10.054996 -10.054996 
C -12.721612 -7.38838 -14.219911 -3.771165 -14.219911 0 
C -14.219911 3.771165 -12.721612 7.38838 -10.054996 10.054996 
C -7.38838 12.721612 -3.771165 14.219911 0 14.219911 
z
" style="stroke: #f9b658; stroke-width: 0.5"/>
    </defs>
    <g clip-path="url(#p317129f0e6)">
     <use xlink:href="#m630aab5a08" x="216.979485" y="158.785694" style="fill: #f9b658; stroke: #f9b658; stroke-width: 0.5"/>
    </g>
   </g>
   <g id="PathCollection_6">
    <defs>
     <path id="m232cfd0ca4" d="M 0 13.366992 
C 3.544968 13.366992 6.94522 11.958561 9.451891 9.451891 
C 11.958561 6.94522 13.366992 3.544968 13.366992 0 
C 13.366992 -3.544968 11.958561 -6.94522 9.451891 -9.451891 
C 6.94522 -11.958561 3.544968 -13.366992 0 -13.366992 
C -3.544968 -13.366992 -6.94522 -11.958561 -9.451891 -9.451891 
C -11.958561 -6.94522 -13.366992 -3.544968 -13.366992 0 
C -13.366992 3.544968 -11.958561 6.94522 -9.451891 9.451891 
C -6.94522 11.958561 -3.544968 13.366992 0 13.366992 
z
" style="stroke: #f9a634; stroke-width: 0.5"/>
    </defs>
    <g clip-path="url(#p317129f0e6)">
     <use xlink:href="#m232cfd0ca4" x="211.550777" y="377.64" style="fill: #f9a634; stroke: #f9a634; stroke-width: 0.5"/>
    </g>
   </g>
   <g id="PathCollection_7">
    <defs>
     <path id="m048d862017" d="M 0 14.219911 
C 3.771165 14.219911 7.38838 12.721612 10.054996 10.054996 
C 12.721612 7.38838 14.219911 3.771165 14.219911 0 
C 14.219911 -3.771165 12.721612 -7.38838 10.054996 -10.054996 
C 7.38838 -12.721612 3.771165 -14.219911 0 -14.219911 
C -3.771165 -14.219911 -7.38838 -12.721612 -10.054996 -10.054996 
C -12.721612 -7.38838 -14.219911 -3.771165 -14.219911 0 
C -14.219911 3.771165 -12.721612 7.38838 -10.054996 10.054996 
C -7.38838 12.721612 -3.771165 14.219911 0 14.219911 
z
" style="stroke: #f9c171; stroke-width: 0.5"/>
    </defs>
    <g clip-path="url(#p317129f0e6)">
     <use xlink:href="#m048d862017" x="242.845629" y="24.84" style="fill: #f9c171; stroke: #f9c171; stroke-width: 0.5"/>
    </g>
   </g>
   <g id="PathCollection_8">
    <defs>
     <path id="m26afe20d82" d="M 0 12.919434 
C 3.426274 12.919434 6.712678 11.558161 9.135419 9.135419 
C 11.558161 6.712678 12.919434 3.426274 12.919434 0 
C 12.919434 -3.426274 11.558161 -6.712678 9.135419 -9.135419 
C 6.712678 -11.558161 3.426274 -12.919434 0 -12.919434 
C -3.426274 -12.919434 -6.712678 -11.558161 -9.135419 -9.135419 
C -11.558161 -6.712678 -12.919434 -3.426274 -12.919434 0 
C -12.919434 3.426274 -11.558161 6.712678 -9.135419 9.135419 
C -6.712678 11.558161 -3.426274 12.919434 0 12.919434 
z
" style="stroke: #f9c172; stroke-width: 0.5"/>
    </defs>
    <g clip-path="url(#p317129f0e6)">
     <use xlink:href="#m26afe20d82" x="340.831677" y="330.846958" style="fill: #f9c172; stroke: #f9c172; stroke-width: 0.5"/>
    </g>
   </g>
   <g id="PathCollection_9">
    <defs>
     <path id="mc79e046224" d="M 0 12.455804 
C 3.303318 12.455804 6.471785 11.143382 8.807584 8.807584 
C 11.143382 6.471785 12.455804 3.303318 12.455804 0 
C 12.455804 -3.303318 11.143382 -6.471785 8.807584 -8.807584 
C 6.471785 -11.143382 3.303318 -12.455804 0 -12.455804 
C -3.303318 -12.455804 -6.471785 -11.143382 -8.807584 -8.807584 
C -11.143382 -6.471785 -12.455804 -3.303318 -12.455804 0 
C -12.455804 3.303318 -11.143382 6.471785 -8.807584 8.807584 
C -6.471785 11.143382 -3.303318 12.455804 0 12.455804 
z
" style="stroke: #f9ac41; stroke-width: 0.5"/>
    </defs>
    <g clip-path="url(#p317129f0e6)">
     <use xlink:href="#mc79e046224" x="231.626158" y="295.559776" style="fill: #f9ac41; stroke: #f9ac41; stroke-width: 0.5"/>
    </g>
   </g>
   <g id="PathCollection_10">
    <defs>
     <path id="m752c43a1e9" d="M 0 14.219911 
C 3.771165 14.219911 7.38838 12.721612 10.054996 10.054996 
C 12.721612 7.38838 14.219911 3.771165 14.219911 0 
C 14.219911 -3.771165 12.721612 -7.38838 10.054996 -10.054996 
C 7.38838 -12.721612 3.771165 -14.219911 0 -14.219911 
C -3.771165 -14.219911 -7.38838 -12.721612 -10.054996 -10.054996 
C -12.721612 -7.38838 -14.219911 -3.771165 -14.219911 0 
C -14.219911 3.771165 -12.721612 7.38838 -10.054996 10.054996 
C -7.38838 12.721612 -3.771165 14.219911 0 14.219911 
z
" style="stroke: #f9bf6e; stroke-width: 0.5"/>
    </defs>
    <g clip-path="url(#p317129f0e6)">
     <use xlink:href="#m752c43a1e9" x="210.147672" y="225.815608" style="fill: #f9bf6e; stroke: #f9bf6e; stroke-width: 0.5"/>
    </g>
   </g>
   <g id="PathCollection_11">
    <defs>
     <path id="m3fff7e31c2" d="M 0 12.919434 
C 3.426274 12.919434 6.712678 11.558161 9.135419 9.135419 
C 11.558161 6.712678 12.919434 3.426274 12.919434 0 
C 12.919434 -3.426274 11.558161 -6.712678 9.135419 -9.135419 
C 6.712678 -11.558161 3.426274 -12.919434 0 -12.919434 
C -3.426274 -12.919434 -6.712678 -11.558161 -9.135419 -9.135419 
C -11.558161 -6.712678 -12.919434 -3.426274 -12.919434 0 
C -12.919434 3.426274 -11.558161 6.712678 -9.135419 9.135419 
C -6.712678 11.558161 -3.426274 12.919434 0 12.919434 
z
" style="stroke: #f9a22b; stroke-width: 0.5"/>
    </defs>
    <g clip-path="url(#p317129f0e6)">
     <use xlink:href="#m3fff7e31c2" x="96.028208" y="333.507475" style="fill: #f9a22b; stroke: #f9a22b; stroke-width: 0.5"/>
    </g>
   </g>
   <g id="PathCollection_12">
    <defs>
     <path id="m5dd96b6c99" d="M 0 13.366992 
C 3.544968 13.366992 6.94522 11.958561 9.451891 9.451891 
C 11.958561 6.94522 13.366992 3.544968 13.366992 0 
C 13.366992 -3.544968 11.958561 -6.94522 9.451891 -9.451891 
C 6.94522 -11.958561 3.544968 -13.366992 0 -13.366992 
C -3.544968 -13.366992 -6.94522 -11.958561 -9.451891 -9.451891 
C -11.958561 -6.94522 -13.366992 -3.544968 -13.366992 0 
C -13.366992 3.544968 -11.958561 6.94522 -9.451891 9.451891 
C -6.94522 11.958561 -3.544968 13.366992 0 13.366992 
z
" style="stroke: #f9be6b; stroke-width: 0.5"/>
    </defs>
    <g clip-path="url(#p317129f0e6)">
     <use xlink:href="#m5dd96b6c99" x="293.308946" y="119.742366" style="fill: #f9be6b; stroke: #f9be6b; stroke-width: 0.5"/>
    </g>
   </g>
   <g id="PathCollection_13">
    <defs>
     <path id="mdbaa315a7d" d="M 0 14.219911 
C 3.771165 14.219911 7.38838 12.721612 10.054996 10.054996 
C 12.721612 7.38838 14.219911 3.771165 14.219911 0 
C 14.219911 -3.771165 12.721612 -7.38838 10.054996 -10.054996 
C 7.38838 -12.721612 3.771165 -14.219911 0 -14.219911 
C -3.771165 -14.219911 -7.38838 -12.721612 -10.054996 -10.054996 
C -12.721612 -7.38838 -14.219911 -3.771165 -14.219911 0 
C -14.219911 3.771165 -12.721612 7.38838 -10.054996 10.054996 
C -7.38838 12.721612 -3.771165 14.219911 0 14.219911 
z
" style="stroke: #f9c780; stroke-width: 0.5"/>
    </defs>
    <g clip-path="url(#p317129f0e6)">
     <use xlink:href="#mdbaa315a7d" x="208.992413" y="203.516304" style="fill: #f9c780; stroke: #f9c780; stroke-width: 0.5"/>
    </g>
   </g>
   <g id="PathCollection_14">
    <defs>
     <path id="mc8136e1274" d="M 0 12.455804 
C 3.303318 12.455804 6.471785 11.143382 8.807584 8.807584 
C 11.143382 6.471785 12.455804 3.303318 12.455804 0 
C 12.455804 -3.303318 11.143382 -6.471785 8.807584 -8.807584 
C 6.471785 -11.143382 3.303318 -12.455804 0 -12.455804 
C -3.303318 -12.455804 -6.471785 -11.143382 -8.807584 -8.807584 
C -11.143382 -6.471785 -12.455804 -3.303318 -12.455804 0 
C -12.455804 3.303318 -11.143382 6.471785 -8.807584 8.807584 
C -6.471785 11.143382 -3.303318 12.455804 0 12.455804 
z
" style="stroke: #f9d195; stroke-width: 0.5"/>
    </defs>
    <g clip-path="url(#p317129f0e6)">
     <use xlink:href="#mc8136e1274" x="380.856299" y="94.000547" style="fill: #f9d195; stroke: #f9d195; stroke-width: 0.5"/>
    </g>
   </g>
   <g id="PathCollection_15">
    <defs>
     <path id="mdf28ecece1" d="M 0 12.919434 
C 3.426274 12.919434 6.712678 11.558161 9.135419 9.135419 
C 11.558161 6.712678 12.919434 3.426274 12.919434 0 
C 12.919434 -3.426274 11.558161 -6.712678 9.135419 -9.135419 
C 6.712678 -11.558161 3.426274 -12.919434 0 -12.919434 
C -3.426274 -12.919434 -6.712678 -11.558161 -9.135419 -9.135419 
C -11.558161 -6.712678 -12.919434 -3.426274 -12.919434 0 
C -12.919434 3.426274 -11.558161 6.712678 -9.135419 9.135419 
C -6.712678 11.558161 -3.426274 12.919434 0 12.919434 
z
" style="stroke: #f9c985; stroke-width: 0.5"/>
    </defs>
    <g clip-path="url(#p317129f0e6)">
     <use xlink:href="#mdf28ecece1" x="39.501562" y="127.824243" style="fill: #f9c985; stroke: #f9c985; stroke-width: 0.5"/>
    </g>
   </g>
   <g id="PathCollection_16">
    <defs>
     <path id="m8017984467" d="M 0 15.02449 
C 3.984541 15.02449 7.806422 13.441415 10.623919 10.623919 
C 13.441415 7.806422 15.02449 3.984541 15.02449 0 
C 15.02449 -3.984541 13.441415 -7.806422 10.623919 -10.623919 
C 7.806422 -13.441415 3.984541 -15.02449 0 -15.02449 
C -3.984541 -15.02449 -7.806422 -13.441415 -10.623919 -10.623919 
C -13.441415 -7.806422 -15.02449 -3.984541 -15.02449 0 
C -15.02449 3.984541 -13.441415 7.806422 -10.623919 10.623919 
C -7.806422 13.441415 -3.984541 15.02449 0 15.02449 
z
" style="stroke: #f9a635; stroke-width: 0.5"/>
    </defs>
    <g clip-path="url(#p317129f0e6)">
     <use xlink:href="#m8017984467" x="154.813378" y="89.840103" style="fill: #f9a635; stroke: #f9a635; stroke-width: 0.5"/>
    </g>
   </g>
   <g id="PathCollection_17">
    <defs>
     <path id="ma8d6aeb267" d="M 0 12.919434 
C 3.426274 12.919434 6.712678 11.558161 9.135419 9.135419 
C 11.558161 6.712678 12.919434 3.426274 12.919434 0 
C 12.919434 -3.426274 11.558161 -6.712678 9.135419 -9.135419 
C 6.712678 -11.558161 3.426274 -12.919434 0 -12.919434 
C -3.426274 -12.919434 -6.712678 -11.558161 -9.135419 -9.135419 
C -11.558161 -6.712678 -12.919434 -3.426274 -12.919434 0 
C -12.919434 3.426274 -11.558161 6.712678 -9.135419 9.135419 
C -6.712678 11.558161 -3.426274 12.919434 0 12.919434 
z
" style="stroke: #f9aa3e; stroke-width: 0.5"/>
    </defs>
    <g clip-path="url(#p317129f0e6)">
     <use xlink:href="#ma8d6aeb267" x="394.592472" y="205.69829" style="fill: #f9aa3e; stroke: #f9aa3e; stroke-width: 0.5"/>
    </g>
   </g>
   <g id="PathCollection_18">
    <defs>
     <path id="m68fe7eb7ac" d="M 0 13.800043 
C 3.659814 13.800043 7.170224 12.345983 9.758104 9.758104 
C 12.345983 7.170224 13.800043 3.659814 13.800043 0 
C 13.800043 -3.659814 12.345983 -7.170224 9.758104 -9.758104 
C 7.170224 -12.345983 3.659814 -13.800043 0 -13.800043 
C -3.659814 -13.800043 -7.170224 -12.345983 -9.758104 -9.758104 
C -12.345983 -7.170224 -13.800043 -3.659814 -13.800043 0 
C -13.800043 3.659814 -12.345983 7.170224 -9.758104 9.758104 
C -7.170224 12.345983 -3.659814 13.800043 0 13.800043 
z
" style="stroke: #f9b24f; stroke-width: 0.5"/>
    </defs>
    <g clip-path="url(#p317129f0e6)">
     <use xlink:href="#m68fe7eb7ac" x="297.379591" y="213.10792" style="fill: #f9b24f; stroke: #f9b24f; stroke-width: 0.5"/>
    </g>
   </g>
   <g id="text_1">
    <!-- Deek arovnik -->
    <g transform="translate(24.683676 234.650262) scale(0.09 -0.09)">
     <defs>
      <path id="DejaVuSans-44" d="M 1259 4147 
L 1259 519 
L 2022 519 
Q 2988 519 3436 956 
Q 3884 1394 3884 2338 
Q 3884 3275 3436 3711 
Q 2988 4147 2022 4147 
L 1259 4147 
z
M 628 4666 
L 1925 4666 
Q 3281 4666 3915 4102 
Q 4550 3538 4550 2338 
Q 4550 1131 3912 565 
Q 3275 0 1925 0 
L 628 0 
L 628 4666 
z
" transform="scale(0.015625)"/>
      <path id="DejaVuSans-65" d="M 3597 1894 
L 3597 1613 
L 953 1613 
Q 991 1019 1311 708 
Q 1631 397 2203 397 
Q 2534 397 2845 478 
Q 3156 559 3463 722 
L 3463 178 
Q 3153 47 2828 -22 
Q 2503 -91 2169 -91 
Q 1331 -91 842 396 
Q 353 884 353 1716 
Q 353 2575 817 3079 
Q 1281 3584 2069 3584 
Q 2775 3584 3186 3129 
Q 3597 2675 3597 1894 
z
M 3022 2063 
Q 3016 2534 2758 2815 
Q 2500 3097 2075 3097 
Q 1594 3097 1305 2825 
Q 1016 2553 972 2059 
L 3022 2063 
z
" transform="scale(0.015625)"/>
      <path id="DejaVuSans-10d" d="M 3122 3366 
L 3122 2828 
Q 2878 2963 2633 3030 
Q 2388 3097 2138 3097 
Q 1578 3097 1268 2742 
Q 959 2388 959 1747 
Q 959 1106 1268 751 
Q 1578 397 2138 397 
Q 2388 397 2633 464 
Q 2878 531 3122 666 
L 3122 134 
Q 2881 22 2623 -34 
Q 2366 -91 2075 -91 
Q 1284 -91 818 406 
Q 353 903 353 1747 
Q 353 2603 823 3093 
Q 1294 3584 2113 3584 
Q 2378 3584 2631 3529 
Q 2884 3475 3122 3366 
z
M 1801 3944 
L 1035 5119 
L 1470 5119 
L 2032 4353 
L 2595 5119 
L 3029 5119 
L 2263 3944 
L 1801 3944 
z
" transform="scale(0.015625)"/>
      <path id="DejaVuSans-6b" d="M 581 4863 
L 1159 4863 
L 1159 1991 
L 2875 3500 
L 3609 3500 
L 1753 1863 
L 3688 0 
L 2938 0 
L 1159 1709 
L 1159 0 
L 581 0 
L 581 4863 
z
" transform="scale(0.015625)"/>
      <path id="DejaVuSans-20" transform="scale(0.015625)"/>
      <path id="DejaVuSans-61" d="M 2194 1759 
Q 1497 1759 1228 1600 
Q 959 1441 959 1056 
Q 959 750 1161 570 
Q 1363 391 1709 391 
Q 2188 391 2477 730 
Q 2766 1069 2766 1631 
L 2766 1759 
L 2194 1759 
z
M 3341 1997 
L 3341 0 
L 2766 0 
L 2766 531 
Q 2569 213 2275 61 
Q 1981 -91 1556 -91 
Q 1019 -91 701 211 
Q 384 513 384 1019 
Q 384 1609 779 1909 
Q 1175 2209 1959 2209 
L 2766 2209 
L 2766 2266 
Q 2766 2663 2505 2880 
Q 2244 3097 1772 3097 
Q 1472 3097 1187 3025 
Q 903 2953 641 2809 
L 641 3341 
Q 956 3463 1253 3523 
Q 1550 3584 1831 3584 
Q 2591 3584 2966 3190 
Q 3341 2797 3341 1997 
z
" transform="scale(0.015625)"/>
      <path id="DejaVuSans-72" d="M 2631 2963 
Q 2534 3019 2420 3045 
Q 2306 3072 2169 3072 
Q 1681 3072 1420 2755 
Q 1159 2438 1159 1844 
L 1159 0 
L 581 0 
L 581 3500 
L 1159 3500 
L 1159 2956 
Q 1341 3275 1631 3429 
Q 1922 3584 2338 3584 
Q 2397 3584 2469 3576 
Q 2541 3569 2628 3553 
L 2631 2963 
z
" transform="scale(0.015625)"/>
      <path id="DejaVuSans-6f" d="M 1959 3097 
Q 1497 3097 1228 2736 
Q 959 2375 959 1747 
Q 959 1119 1226 758 
Q 1494 397 1959 397 
Q 2419 397 2687 759 
Q 2956 1122 2956 1747 
Q 2956 2369 2687 2733 
Q 2419 3097 1959 3097 
z
M 1959 3584 
Q 2709 3584 3137 3096 
Q 3566 2609 3566 1747 
Q 3566 888 3137 398 
Q 2709 -91 1959 -91 
Q 1206 -91 779 398 
Q 353 888 353 1747 
Q 353 2609 779 3096 
Q 1206 3584 1959 3584 
z
" transform="scale(0.015625)"/>
      <path id="DejaVuSans-76" d="M 191 3500 
L 800 3500 
L 1894 563 
L 2988 3500 
L 3597 3500 
L 2284 0 
L 1503 0 
L 191 3500 
z
" transform="scale(0.015625)"/>
      <path id="DejaVuSans-6e" d="M 3513 2113 
L 3513 0 
L 2938 0 
L 2938 2094 
Q 2938 2591 2744 2837 
Q 2550 3084 2163 3084 
Q 1697 3084 1428 2787 
Q 1159 2491 1159 1978 
L 1159 0 
L 581 0 
L 581 3500 
L 1159 3500 
L 1159 2956 
Q 1366 3272 1645 3428 
Q 1925 3584 2291 3584 
Q 2894 3584 3203 3211 
Q 3513 2838 3513 2113 
z
" transform="scale(0.015625)"/>
      <path id="DejaVuSans-69" d="M 603 3500 
L 1178 3500 
L 1178 0 
L 603 0 
L 603 3500 
z
M 603 4863 
L 1178 4863 
L 1178 4134 
L 603 4134 
L 603 4863 
z
" transform="scale(0.015625)"/>
     </defs>
     <use xlink:href="#DejaVuSans-44"/>
     <use xlink:href="#DejaVuSans-65" transform="translate(77.001953 0)"/>
     <use xlink:href="#DejaVuSans-10d" transform="translate(138.525391 0)"/>
     <use xlink:href="#DejaVuSans-65" transform="translate(193.505859 0)"/>
     <use xlink:href="#DejaVuSans-6b" transform="translate(255.029297 0)"/>
     <use xlink:href="#DejaVuSans-20" transform="translate(312.939453 0)"/>
     <use xlink:href="#DejaVuSans-10d" transform="translate(344.726562 0)"/>
     <use xlink:href="#DejaVuSans-61" transform="translate(399.707031 0)"/>
     <use xlink:href="#DejaVuSans-72" transform="translate(460.986328 0)"/>
     <use xlink:href="#DejaVuSans-6f" transform="translate(499.849609 0)"/>
     <use xlink:href="#DejaVuSans-76" transform="translate(561.03125 0)"/>
     <use xlink:href="#DejaVuSans-6e" transform="translate(620.210938 0)"/>
     <use xlink:href="#DejaVuSans-69" transform="translate(683.589844 0)"/>
     <use xlink:href="#DejaVuSans-6b" transform="translate(711.373047 0)"/>
    </g>
   </g>
   <g id="text_2">
    <!-- Pametna arovnica -->
    <g transform="translate(119.042228 194.582428) scale(0.09 -0.09)">
     <defs>
      <path id="DejaVuSans-50" d="M 1259 4147 
L 1259 2394 
L 2053 2394 
Q 2494 2394 2734 2622 
Q 2975 2850 2975 3272 
Q 2975 3691 2734 3919 
Q 2494 4147 2053 4147 
L 1259 4147 
z
M 628 4666 
L 2053 4666 
Q 2838 4666 3239 4311 
Q 3641 3956 3641 3272 
Q 3641 2581 3239 2228 
Q 2838 1875 2053 1875 
L 1259 1875 
L 1259 0 
L 628 0 
L 628 4666 
z
" transform="scale(0.015625)"/>
      <path id="DejaVuSans-6d" d="M 3328 2828 
Q 3544 3216 3844 3400 
Q 4144 3584 4550 3584 
Q 5097 3584 5394 3201 
Q 5691 2819 5691 2113 
L 5691 0 
L 5113 0 
L 5113 2094 
Q 5113 2597 4934 2840 
Q 4756 3084 4391 3084 
Q 3944 3084 3684 2787 
Q 3425 2491 3425 1978 
L 3425 0 
L 2847 0 
L 2847 2094 
Q 2847 2600 2669 2842 
Q 2491 3084 2119 3084 
Q 1678 3084 1418 2786 
Q 1159 2488 1159 1978 
L 1159 0 
L 581 0 
L 581 3500 
L 1159 3500 
L 1159 2956 
Q 1356 3278 1631 3431 
Q 1906 3584 2284 3584 
Q 2666 3584 2933 3390 
Q 3200 3197 3328 2828 
z
" transform="scale(0.015625)"/>
      <path id="DejaVuSans-74" d="M 1172 4494 
L 1172 3500 
L 2356 3500 
L 2356 3053 
L 1172 3053 
L 1172 1153 
Q 1172 725 1289 603 
Q 1406 481 1766 481 
L 2356 481 
L 2356 0 
L 1766 0 
Q 1100 0 847 248 
Q 594 497 594 1153 
L 594 3053 
L 172 3053 
L 172 3500 
L 594 3500 
L 594 4494 
L 1172 4494 
z
" transform="scale(0.015625)"/>
      <path id="DejaVuSans-63" d="M 3122 3366 
L 3122 2828 
Q 2878 2963 2633 3030 
Q 2388 3097 2138 3097 
Q 1578 3097 1268 2742 
Q 959 2388 959 1747 
Q 959 1106 1268 751 
Q 1578 397 2138 397 
Q 2388 397 2633 464 
Q 2878 531 3122 666 
L 3122 134 
Q 2881 22 2623 -34 
Q 2366 -91 2075 -91 
Q 1284 -91 818 406 
Q 353 903 353 1747 
Q 353 2603 823 3093 
Q 1294 3584 2113 3584 
Q 2378 3584 2631 3529 
Q 2884 3475 3122 3366 
z
" transform="scale(0.015625)"/>
     </defs>
     <use xlink:href="#DejaVuSans-50"/>
     <use xlink:href="#DejaVuSans-61" transform="translate(55.802734 0)"/>
     <use xlink:href="#DejaVuSans-6d" transform="translate(117.082031 0)"/>
     <use xlink:href="#DejaVuSans-65" transform="translate(214.494141 0)"/>
     <use xlink:href="#DejaVuSans-74" transform="translate(276.017578 0)"/>
     <use xlink:href="#DejaVuSans-6e" transform="translate(315.226562 0)"/>
     <use xlink:href="#DejaVuSans-61" transform="translate(378.605469 0)"/>
     <use xlink:href="#DejaVuSans-20" transform="translate(439.884766 0)"/>
     <use xlink:href="#DejaVuSans-10d" transform="translate(471.671875 0)"/>
     <use xlink:href="#DejaVuSans-61" transform="translate(526.652344 0)"/>
     <use xlink:href="#DejaVuSans-72" transform="translate(587.931641 0)"/>
     <use xlink:href="#DejaVuSans-6f" transform="translate(626.794922 0)"/>
     <use xlink:href="#DejaVuSans-76" transform="translate(687.976562 0)"/>
     <use xlink:href="#DejaVuSans-6e" transform="translate(747.15625 0)"/>
     <use xlink:href="#DejaVuSans-69" transform="translate(810.535156 0)"/>
     <use xlink:href="#DejaVuSans-63" transform="translate(838.318359 0)"/>
     <use xlink:href="#DejaVuSans-61" transform="translate(893.298828 0)"/>
    </g>
   </g>
   <g id="text_3">
    <!-- Modri ravnatelj -->
    <g transform="translate(123.280845 252.71707) scale(0.09 -0.09)">
     <defs>
      <path id="DejaVuSans-4d" d="M 628 4666 
L 1569 4666 
L 2759 1491 
L 3956 4666 
L 4897 4666 
L 4897 0 
L 4281 0 
L 4281 4097 
L 3078 897 
L 2444 897 
L 1241 4097 
L 1241 0 
L 628 0 
L 628 4666 
z
" transform="scale(0.015625)"/>
      <path id="DejaVuSans-64" d="M 2906 2969 
L 2906 4863 
L 3481 4863 
L 3481 0 
L 2906 0 
L 2906 525 
Q 2725 213 2448 61 
Q 2172 -91 1784 -91 
Q 1150 -91 751 415 
Q 353 922 353 1747 
Q 353 2572 751 3078 
Q 1150 3584 1784 3584 
Q 2172 3584 2448 3432 
Q 2725 3281 2906 2969 
z
M 947 1747 
Q 947 1113 1208 752 
Q 1469 391 1925 391 
Q 2381 391 2643 752 
Q 2906 1113 2906 1747 
Q 2906 2381 2643 2742 
Q 2381 3103 1925 3103 
Q 1469 3103 1208 2742 
Q 947 2381 947 1747 
z
" transform="scale(0.015625)"/>
      <path id="DejaVuSans-6c" d="M 603 4863 
L 1178 4863 
L 1178 0 
L 603 0 
L 603 4863 
z
" transform="scale(0.015625)"/>
      <path id="DejaVuSans-6a" d="M 603 3500 
L 1178 3500 
L 1178 -63 
Q 1178 -731 923 -1031 
Q 669 -1331 103 -1331 
L -116 -1331 
L -116 -844 
L 38 -844 
Q 366 -844 484 -692 
Q 603 -541 603 -63 
L 603 3500 
z
M 603 4863 
L 1178 4863 
L 1178 4134 
L 603 4134 
L 603 4863 
z
" transform="scale(0.015625)"/>
     </defs>
     <use xlink:href="#DejaVuSans-4d"/>
     <use xlink:href="#DejaVuSans-6f" transform="translate(86.279297 0)"/>
     <use xlink:href="#DejaVuSans-64" transform="translate(147.460938 0)"/>
     <use xlink:href="#DejaVuSans-72" transform="translate(210.9375 0)"/>
     <use xlink:href="#DejaVuSans-69" transform="translate(252.050781 0)"/>
     <use xlink:href="#DejaVuSans-20" transform="translate(279.833984 0)"/>
     <use xlink:href="#DejaVuSans-72" transform="translate(311.621094 0)"/>
     <use xlink:href="#DejaVuSans-61" transform="translate(352.734375 0)"/>
     <use xlink:href="#DejaVuSans-76" transform="translate(414.013672 0)"/>
     <use xlink:href="#DejaVuSans-6e" transform="translate(473.193359 0)"/>
     <use xlink:href="#DejaVuSans-61" transform="translate(536.572266 0)"/>
     <use xlink:href="#DejaVuSans-74" transform="translate(597.851562 0)"/>
     <use xlink:href="#DejaVuSans-65" transform="translate(637.060547 0)"/>
     <use xlink:href="#DejaVuSans-6c" transform="translate(698.583984 0)"/>
     <use xlink:href="#DejaVuSans-6a" transform="translate(726.367188 0)"/>
    </g>
   </g>
   <g id="text_4">
    <!-- Mladi pilot -->
    <g transform="translate(214.9708 207.75201) scale(0.09 -0.09)">
     <defs>
      <path id="DejaVuSans-70" d="M 1159 525 
L 1159 -1331 
L 581 -1331 
L 581 3500 
L 1159 3500 
L 1159 2969 
Q 1341 3281 1617 3432 
Q 1894 3584 2278 3584 
Q 2916 3584 3314 3078 
Q 3713 2572 3713 1747 
Q 3713 922 3314 415 
Q 2916 -91 2278 -91 
Q 1894 -91 1617 61 
Q 1341 213 1159 525 
z
M 3116 1747 
Q 3116 2381 2855 2742 
Q 2594 3103 2138 3103 
Q 1681 3103 1420 2742 
Q 1159 2381 1159 1747 
Q 1159 1113 1420 752 
Q 1681 391 2138 391 
Q 2594 391 2855 752 
Q 3116 1113 3116 1747 
z
" transform="scale(0.015625)"/>
     </defs>
     <use xlink:href="#DejaVuSans-4d"/>
     <use xlink:href="#DejaVuSans-6c" transform="translate(86.279297 0)"/>
     <use xlink:href="#DejaVuSans-61" transform="translate(114.0625 0)"/>
     <use xlink:href="#DejaVuSans-64" transform="translate(175.341797 0)"/>
     <use xlink:href="#DejaVuSans-69" transform="translate(238.818359 0)"/>
     <use xlink:href="#DejaVuSans-20" transform="translate(266.601562 0)"/>
     <use xlink:href="#DejaVuSans-70" transform="translate(298.388672 0)"/>
     <use xlink:href="#DejaVuSans-69" transform="translate(361.865234 0)"/>
     <use xlink:href="#DejaVuSans-6c" transform="translate(389.648438 0)"/>
     <use xlink:href="#DejaVuSans-6f" transform="translate(417.431641 0)"/>
     <use xlink:href="#DejaVuSans-74" transform="translate(478.613281 0)"/>
    </g>
   </g>
   <g id="text_5">
    <!-- Tihotapec -->
    <g transform="translate(194.894329 158.446732) scale(0.09 -0.09)">
     <defs>
      <path id="DejaVuSans-54" d="M -19 4666 
L 3928 4666 
L 3928 4134 
L 2272 4134 
L 2272 0 
L 1638 0 
L 1638 4134 
L -19 4134 
L -19 4666 
z
" transform="scale(0.015625)"/>
      <path id="DejaVuSans-68" d="M 3513 2113 
L 3513 0 
L 2938 0 
L 2938 2094 
Q 2938 2591 2744 2837 
Q 2550 3084 2163 3084 
Q 1697 3084 1428 2787 
Q 1159 2491 1159 1978 
L 1159 0 
L 581 0 
L 581 4863 
L 1159 4863 
L 1159 2956 
Q 1366 3272 1645 3428 
Q 1925 3584 2291 3584 
Q 2894 3584 3203 3211 
Q 3513 2838 3513 2113 
z
" transform="scale(0.015625)"/>
     </defs>
     <use xlink:href="#DejaVuSans-54"/>
     <use xlink:href="#DejaVuSans-69" transform="translate(57.958984 0)"/>
     <use xlink:href="#DejaVuSans-68" transform="translate(85.742188 0)"/>
     <use xlink:href="#DejaVuSans-6f" transform="translate(149.121094 0)"/>
     <use xlink:href="#DejaVuSans-74" transform="translate(210.302734 0)"/>
     <use xlink:href="#DejaVuSans-61" transform="translate(249.511719 0)"/>
     <use xlink:href="#DejaVuSans-70" transform="translate(310.791016 0)"/>
     <use xlink:href="#DejaVuSans-65" transform="translate(374.267578 0)"/>
     <use xlink:href="#DejaVuSans-63" transform="translate(435.791016 0)"/>
    </g>
   </g>
   <g id="text_6">
    <!-- Zeleni mojster -->
    <g transform="translate(179.034058 377.301037) scale(0.09 -0.09)">
     <defs>
      <path id="DejaVuSans-5a" d="M 359 4666 
L 4025 4666 
L 4025 4184 
L 1075 531 
L 4097 531 
L 4097 0 
L 288 0 
L 288 481 
L 3238 4134 
L 359 4134 
L 359 4666 
z
" transform="scale(0.015625)"/>
      <path id="DejaVuSans-73" d="M 2834 3397 
L 2834 2853 
Q 2591 2978 2328 3040 
Q 2066 3103 1784 3103 
Q 1356 3103 1142 2972 
Q 928 2841 928 2578 
Q 928 2378 1081 2264 
Q 1234 2150 1697 2047 
L 1894 2003 
Q 2506 1872 2764 1633 
Q 3022 1394 3022 966 
Q 3022 478 2636 193 
Q 2250 -91 1575 -91 
Q 1294 -91 989 -36 
Q 684 19 347 128 
L 347 722 
Q 666 556 975 473 
Q 1284 391 1588 391 
Q 1994 391 2212 530 
Q 2431 669 2431 922 
Q 2431 1156 2273 1281 
Q 2116 1406 1581 1522 
L 1381 1569 
Q 847 1681 609 1914 
Q 372 2147 372 2553 
Q 372 3047 722 3315 
Q 1072 3584 1716 3584 
Q 2034 3584 2315 3537 
Q 2597 3491 2834 3397 
z
" transform="scale(0.015625)"/>
     </defs>
     <use xlink:href="#DejaVuSans-5a"/>
     <use xlink:href="#DejaVuSans-65" transform="translate(68.505859 0)"/>
     <use xlink:href="#DejaVuSans-6c" transform="translate(130.029297 0)"/>
     <use xlink:href="#DejaVuSans-65" transform="translate(157.8125 0)"/>
     <use xlink:href="#DejaVuSans-6e" transform="translate(219.335938 0)"/>
     <use xlink:href="#DejaVuSans-69" transform="translate(282.714844 0)"/>
     <use xlink:href="#DejaVuSans-20" transform="translate(310.498047 0)"/>
     <use xlink:href="#DejaVuSans-6d" transform="translate(342.285156 0)"/>
     <use xlink:href="#DejaVuSans-6f" transform="translate(439.697266 0)"/>
     <use xlink:href="#DejaVuSans-6a" transform="translate(500.878906 0)"/>
     <use xlink:href="#DejaVuSans-73" transform="translate(528.662109 0)"/>
     <use xlink:href="#DejaVuSans-74" transform="translate(580.761719 0)"/>
     <use xlink:href="#DejaVuSans-65" transform="translate(619.970703 0)"/>
     <use xlink:href="#DejaVuSans-72" transform="translate(681.494141 0)"/>
    </g>
   </g>
   <g id="text_7">
    <!-- Nosilec prstana -->
    <g transform="translate(208.025473 24.501037) scale(0.09 -0.09)">
     <defs>
      <path id="DejaVuSans-4e" d="M 628 4666 
L 1478 4666 
L 3547 763 
L 3547 4666 
L 4159 4666 
L 4159 0 
L 3309 0 
L 1241 3903 
L 1241 0 
L 628 0 
L 628 4666 
z
" transform="scale(0.015625)"/>
     </defs>
     <use xlink:href="#DejaVuSans-4e"/>
     <use xlink:href="#DejaVuSans-6f" transform="translate(74.804688 0)"/>
     <use xlink:href="#DejaVuSans-73" transform="translate(135.986328 0)"/>
     <use xlink:href="#DejaVuSans-69" transform="translate(188.085938 0)"/>
     <use xlink:href="#DejaVuSans-6c" transform="translate(215.869141 0)"/>
     <use xlink:href="#DejaVuSans-65" transform="translate(243.652344 0)"/>
     <use xlink:href="#DejaVuSans-63" transform="translate(305.175781 0)"/>
     <use xlink:href="#DejaVuSans-20" transform="translate(360.15625 0)"/>
     <use xlink:href="#DejaVuSans-70" transform="translate(391.943359 0)"/>
     <use xlink:href="#DejaVuSans-72" transform="translate(455.419922 0)"/>
     <use xlink:href="#DejaVuSans-73" transform="translate(496.533203 0)"/>
     <use xlink:href="#DejaVuSans-74" transform="translate(548.632812 0)"/>
     <use xlink:href="#DejaVuSans-61" transform="translate(587.841797 0)"/>
     <use xlink:href="#DejaVuSans-6e" transform="translate(649.121094 0)"/>
     <use xlink:href="#DejaVuSans-61" transform="translate(712.5 0)"/>
    </g>
   </g>
   <g id="text_8">
    <!-- Sivi arovnik -->
    <g transform="translate(312.275661 330.507996) scale(0.09 -0.09)">
     <defs>
      <path id="DejaVuSans-53" d="M 3425 4513 
L 3425 3897 
Q 3066 4069 2747 4153 
Q 2428 4238 2131 4238 
Q 1616 4238 1336 4038 
Q 1056 3838 1056 3469 
Q 1056 3159 1242 3001 
Q 1428 2844 1947 2747 
L 2328 2669 
Q 3034 2534 3370 2195 
Q 3706 1856 3706 1288 
Q 3706 609 3251 259 
Q 2797 -91 1919 -91 
Q 1588 -91 1214 -16 
Q 841 59 441 206 
L 441 856 
Q 825 641 1194 531 
Q 1563 422 1919 422 
Q 2459 422 2753 634 
Q 3047 847 3047 1241 
Q 3047 1584 2836 1778 
Q 2625 1972 2144 2069 
L 1759 2144 
Q 1053 2284 737 2584 
Q 422 2884 422 3419 
Q 422 4038 858 4394 
Q 1294 4750 2059 4750 
Q 2388 4750 2728 4690 
Q 3069 4631 3425 4513 
z
" transform="scale(0.015625)"/>
     </defs>
     <use xlink:href="#DejaVuSans-53"/>
     <use xlink:href="#DejaVuSans-69" transform="translate(63.476562 0)"/>
     <use xlink:href="#DejaVuSans-76" transform="translate(91.259766 0)"/>
     <use xlink:href="#DejaVuSans-69" transform="translate(150.439453 0)"/>
     <use xlink:href="#DejaVuSans-20" transform="translate(178.222656 0)"/>
     <use xlink:href="#DejaVuSans-10d" transform="translate(210.009766 0)"/>
     <use xlink:href="#DejaVuSans-61" transform="translate(264.990234 0)"/>
     <use xlink:href="#DejaVuSans-72" transform="translate(326.269531 0)"/>
     <use xlink:href="#DejaVuSans-6f" transform="translate(365.132812 0)"/>
     <use xlink:href="#DejaVuSans-76" transform="translate(426.314453 0)"/>
     <use xlink:href="#DejaVuSans-6e" transform="translate(485.494141 0)"/>
     <use xlink:href="#DejaVuSans-69" transform="translate(548.873047 0)"/>
     <use xlink:href="#DejaVuSans-6b" transform="translate(576.65625 0)"/>
    </g>
   </g>
   <g id="text_9">
    <!-- Postopa -->
    <g transform="translate(211.371939 295.400814) scale(0.09 -0.09)">
     <use xlink:href="#DejaVuSans-50"/>
     <use xlink:href="#DejaVuSans-6f" transform="translate(56.677734 0)"/>
     <use xlink:href="#DejaVuSans-73" transform="translate(117.859375 0)"/>
     <use xlink:href="#DejaVuSans-74" transform="translate(169.958984 0)"/>
     <use xlink:href="#DejaVuSans-6f" transform="translate(209.167969 0)"/>
     <use xlink:href="#DejaVuSans-70" transform="translate(270.349609 0)"/>
     <use xlink:href="#DejaVuSans-61" transform="translate(333.826172 0)"/>
     <use xlink:href="#DejaVuSans-10d" transform="translate(395.105469 0)"/>
    </g>
   </g>
   <g id="text_10">
    <!-- Vilinski lokostrelec -->
    <g transform="translate(168.619 225.476645) scale(0.09 -0.09)">
     <defs>
      <path id="DejaVuSans-56" d="M 1831 0 
L 50 4666 
L 709 4666 
L 2188 738 
L 3669 4666 
L 4325 4666 
L 2547 0 
L 1831 0 
z
" transform="scale(0.015625)"/>
     </defs>
     <use xlink:href="#DejaVuSans-56"/>
     <use xlink:href="#DejaVuSans-69" transform="translate(66.158203 0)"/>
     <use xlink:href="#DejaVuSans-6c" transform="translate(93.941406 0)"/>
     <use xlink:href="#DejaVuSans-69" transform="translate(121.724609 0)"/>
     <use xlink:href="#DejaVuSans-6e" transform="translate(149.507812 0)"/>
     <use xlink:href="#DejaVuSans-73" transform="translate(212.886719 0)"/>
     <use xlink:href="#DejaVuSans-6b" transform="translate(264.986328 0)"/>
     <use xlink:href="#DejaVuSans-69" transform="translate(322.896484 0)"/>
     <use xlink:href="#DejaVuSans-20" transform="translate(350.679688 0)"/>
     <use xlink:href="#DejaVuSans-6c" transform="translate(382.466797 0)"/>
     <use xlink:href="#DejaVuSans-6f" transform="translate(410.25 0)"/>
     <use xlink:href="#DejaVuSans-6b" transform="translate(471.431641 0)"/>
     <use xlink:href="#DejaVuSans-6f" transform="translate(525.716797 0)"/>
     <use xlink:href="#DejaVuSans-73" transform="translate(586.898438 0)"/>
     <use xlink:href="#DejaVuSans-74" transform="translate(638.998047 0)"/>
     <use xlink:href="#DejaVuSans-72" transform="translate(678.207031 0)"/>
     <use xlink:href="#DejaVuSans-65" transform="translate(717.070312 0)"/>
     <use xlink:href="#DejaVuSans-6c" transform="translate(778.59375 0)"/>
     <use xlink:href="#DejaVuSans-65" transform="translate(806.376953 0)"/>
     <use xlink:href="#DejaVuSans-63" transform="translate(867.900391 0)"/>
    </g>
   </g>
   <g id="text_11">
    <!-- kratovski bojevnik -->
    <g transform="translate(52.146177 333.916638) scale(0.09 -0.09)">
     <defs>
      <path id="DejaVuSans-160" d="M 3425 4513 
L 3425 3897 
Q 3066 4069 2747 4153 
Q 2428 4238 2131 4238 
Q 1616 4238 1336 4038 
Q 1056 3838 1056 3469 
Q 1056 3159 1242 3001 
Q 1428 2844 1947 2747 
L 2328 2669 
Q 3034 2534 3370 2195 
Q 3706 1856 3706 1288 
Q 3706 609 3251 259 
Q 2797 -91 1919 -91 
Q 1588 -91 1214 -16 
Q 841 59 441 206 
L 441 856 
Q 825 641 1194 531 
Q 1563 422 1919 422 
Q 2459 422 2753 634 
Q 3047 847 3047 1241 
Q 3047 1584 2836 1778 
Q 2625 1972 2144 2069 
L 1759 2144 
Q 1053 2284 737 2584 
Q 422 2884 422 3419 
Q 422 4038 858 4394 
Q 1294 4750 2059 4750 
Q 2388 4750 2728 4690 
Q 3069 4631 3425 4513 
z
M 1738 5096 
L 1079 5927 
L 1513 5927 
L 2032 5371 
L 2551 5927 
L 2985 5927 
L 2326 5096 
L 1738 5096 
z
" transform="scale(0.015625)"/>
      <path id="DejaVuSans-62" d="M 3116 1747 
Q 3116 2381 2855 2742 
Q 2594 3103 2138 3103 
Q 1681 3103 1420 2742 
Q 1159 2381 1159 1747 
Q 1159 1113 1420 752 
Q 1681 391 2138 391 
Q 2594 391 2855 752 
Q 3116 1113 3116 1747 
z
M 1159 2969 
Q 1341 3281 1617 3432 
Q 1894 3584 2278 3584 
Q 2916 3584 3314 3078 
Q 3713 2572 3713 1747 
Q 3713 922 3314 415 
Q 2916 -91 2278 -91 
Q 1894 -91 1617 61 
Q 1341 213 1159 525 
L 1159 0 
L 581 0 
L 581 4863 
L 1159 4863 
L 1159 2969 
z
" transform="scale(0.015625)"/>
     </defs>
     <use xlink:href="#DejaVuSans-160"/>
     <use xlink:href="#DejaVuSans-6b" transform="translate(63.476562 0)"/>
     <use xlink:href="#DejaVuSans-72" transform="translate(121.386719 0)"/>
     <use xlink:href="#DejaVuSans-61" transform="translate(162.5 0)"/>
     <use xlink:href="#DejaVuSans-74" transform="translate(223.779297 0)"/>
     <use xlink:href="#DejaVuSans-6f" transform="translate(262.988281 0)"/>
     <use xlink:href="#DejaVuSans-76" transform="translate(324.169922 0)"/>
     <use xlink:href="#DejaVuSans-73" transform="translate(383.349609 0)"/>
     <use xlink:href="#DejaVuSans-6b" transform="translate(435.449219 0)"/>
     <use xlink:href="#DejaVuSans-69" transform="translate(493.359375 0)"/>
     <use xlink:href="#DejaVuSans-20" transform="translate(521.142578 0)"/>
     <use xlink:href="#DejaVuSans-62" transform="translate(552.929688 0)"/>
     <use xlink:href="#DejaVuSans-6f" transform="translate(616.40625 0)"/>
     <use xlink:href="#DejaVuSans-6a" transform="translate(677.587891 0)"/>
     <use xlink:href="#DejaVuSans-65" transform="translate(705.371094 0)"/>
     <use xlink:href="#DejaVuSans-76" transform="translate(766.894531 0)"/>
     <use xlink:href="#DejaVuSans-6e" transform="translate(826.074219 0)"/>
     <use xlink:href="#DejaVuSans-69" transform="translate(889.453125 0)"/>
     <use xlink:href="#DejaVuSans-6b" transform="translate(917.236328 0)"/>
    </g>
   </g>
   <g id="text_12">
    <!-- Zvesti robot -->
    <g transform="translate(266.128946 119.403403) scale(0.09 -0.09)">
     <use xlink:href="#DejaVuSans-5a"/>
     <use xlink:href="#DejaVuSans-76" transform="translate(68.505859 0)"/>
     <use xlink:href="#DejaVuSans-65" transform="translate(127.685547 0)"/>
     <use xlink:href="#DejaVuSans-73" transform="translate(189.208984 0)"/>
     <use xlink:href="#DejaVuSans-74" transform="translate(241.308594 0)"/>
     <use xlink:href="#DejaVuSans-69" transform="translate(280.517578 0)"/>
     <use xlink:href="#DejaVuSans-20" transform="translate(308.300781 0)"/>
     <use xlink:href="#DejaVuSans-72" transform="translate(340.087891 0)"/>
     <use xlink:href="#DejaVuSans-6f" transform="translate(378.951172 0)"/>
     <use xlink:href="#DejaVuSans-62" transform="translate(440.132812 0)"/>
     <use xlink:href="#DejaVuSans-6f" transform="translate(503.609375 0)"/>
     <use xlink:href="#DejaVuSans-74" transform="translate(564.791016 0)"/>
    </g>
   </g>
   <g id="text_13">
    <!-- Voditeljica upora -->
    <g transform="translate(171.387178 203.177341) scale(0.09 -0.09)">
     <defs>
      <path id="DejaVuSans-75" d="M 544 1381 
L 544 3500 
L 1119 3500 
L 1119 1403 
Q 1119 906 1312 657 
Q 1506 409 1894 409 
Q 2359 409 2629 706 
Q 2900 1003 2900 1516 
L 2900 3500 
L 3475 3500 
L 3475 0 
L 2900 0 
L 2900 538 
Q 2691 219 2414 64 
Q 2138 -91 1772 -91 
Q 1169 -91 856 284 
Q 544 659 544 1381 
z
M 1991 3584 
L 1991 3584 
z
" transform="scale(0.015625)"/>
     </defs>
     <use xlink:href="#DejaVuSans-56"/>
     <use xlink:href="#DejaVuSans-6f" transform="translate(60.658203 0)"/>
     <use xlink:href="#DejaVuSans-64" transform="translate(121.839844 0)"/>
     <use xlink:href="#DejaVuSans-69" transform="translate(185.316406 0)"/>
     <use xlink:href="#DejaVuSans-74" transform="translate(213.099609 0)"/>
     <use xlink:href="#DejaVuSans-65" transform="translate(252.308594 0)"/>
     <use xlink:href="#DejaVuSans-6c" transform="translate(313.832031 0)"/>
     <use xlink:href="#DejaVuSans-6a" transform="translate(341.615234 0)"/>
     <use xlink:href="#DejaVuSans-69" transform="translate(369.398438 0)"/>
     <use xlink:href="#DejaVuSans-63" transform="translate(397.181641 0)"/>
     <use xlink:href="#DejaVuSans-61" transform="translate(452.162109 0)"/>
     <use xlink:href="#DejaVuSans-20" transform="translate(513.441406 0)"/>
     <use xlink:href="#DejaVuSans-75" transform="translate(545.228516 0)"/>
     <use xlink:href="#DejaVuSans-70" transform="translate(608.607422 0)"/>
     <use xlink:href="#DejaVuSans-6f" transform="translate(672.083984 0)"/>
     <use xlink:href="#DejaVuSans-72" transform="translate(733.265625 0)"/>
     <use xlink:href="#DejaVuSans-61" transform="translate(774.378906 0)"/>
    </g>
   </g>
   <g id="text_14">
    <!-- Temni vitez -->
    <g transform="translate(355.379971 93.661585) scale(0.09 -0.09)">
     <defs>
      <path id="DejaVuSans-7a" d="M 353 3500 
L 3084 3500 
L 3084 2975 
L 922 459 
L 3084 459 
L 3084 0 
L 275 0 
L 275 525 
L 2438 3041 
L 353 3041 
L 353 3500 
z
" transform="scale(0.015625)"/>
     </defs>
     <use xlink:href="#DejaVuSans-54"/>
     <use xlink:href="#DejaVuSans-65" transform="translate(44.083984 0)"/>
     <use xlink:href="#DejaVuSans-6d" transform="translate(105.607422 0)"/>
     <use xlink:href="#DejaVuSans-6e" transform="translate(203.019531 0)"/>
     <use xlink:href="#DejaVuSans-69" transform="translate(266.398438 0)"/>
     <use xlink:href="#DejaVuSans-20" transform="translate(294.181641 0)"/>
     <use xlink:href="#DejaVuSans-76" transform="translate(325.96875 0)"/>
     <use xlink:href="#DejaVuSans-69" transform="translate(385.148438 0)"/>
     <use xlink:href="#DejaVuSans-74" transform="translate(412.931641 0)"/>
     <use xlink:href="#DejaVuSans-65" transform="translate(452.140625 0)"/>
     <use xlink:href="#DejaVuSans-7a" transform="translate(513.664062 0)"/>
    </g>
   </g>
   <g id="text_15">
    <!-- Zvesti prijatelj -->
    <g transform="translate(7.2 127.485281) scale(0.09 -0.09)">
     <use xlink:href="#DejaVuSans-5a"/>
     <use xlink:href="#DejaVuSans-76" transform="translate(68.505859 0)"/>
     <use xlink:href="#DejaVuSans-65" transform="translate(127.685547 0)"/>
     <use xlink:href="#DejaVuSans-73" transform="translate(189.208984 0)"/>
     <use xlink:href="#DejaVuSans-74" transform="translate(241.308594 0)"/>
     <use xlink:href="#DejaVuSans-69" transform="translate(280.517578 0)"/>
     <use xlink:href="#DejaVuSans-20" transform="translate(308.300781 0)"/>
     <use xlink:href="#DejaVuSans-70" transform="translate(340.087891 0)"/>
     <use xlink:href="#DejaVuSans-72" transform="translate(403.564453 0)"/>
     <use xlink:href="#DejaVuSans-69" transform="translate(444.677734 0)"/>
     <use xlink:href="#DejaVuSans-6a" transform="translate(472.460938 0)"/>
     <use xlink:href="#DejaVuSans-61" transform="translate(500.244141 0)"/>
     <use xlink:href="#DejaVuSans-74" transform="translate(561.523438 0)"/>
     <use xlink:href="#DejaVuSans-65" transform="translate(600.732422 0)"/>
     <use xlink:href="#DejaVuSans-6c" transform="translate(662.255859 0)"/>
     <use xlink:href="#DejaVuSans-6a" transform="translate(690.039062 0)"/>
    </g>
   </g>
   <g id="text_16">
    <!-- Zlati robot -->
    <g transform="translate(131.402128 89.501141) scale(0.09 -0.09)">
     <use xlink:href="#DejaVuSans-5a"/>
     <use xlink:href="#DejaVuSans-6c" transform="translate(68.505859 0)"/>
     <use xlink:href="#DejaVuSans-61" transform="translate(96.289062 0)"/>
     <use xlink:href="#DejaVuSans-74" transform="translate(157.568359 0)"/>
     <use xlink:href="#DejaVuSans-69" transform="translate(196.777344 0)"/>
     <use xlink:href="#DejaVuSans-20" transform="translate(224.560547 0)"/>
     <use xlink:href="#DejaVuSans-72" transform="translate(256.347656 0)"/>
     <use xlink:href="#DejaVuSans-6f" transform="translate(295.210938 0)"/>
     <use xlink:href="#DejaVuSans-62" transform="translate(356.392578 0)"/>
     <use xlink:href="#DejaVuSans-6f" transform="translate(419.869141 0)"/>
     <use xlink:href="#DejaVuSans-74" transform="translate(481.050781 0)"/>
    </g>
   </g>
   <g id="text_17">
    <!-- Prebrisani uitelj -->
    <g transform="translate(357.239659 205.539327) scale(0.09 -0.09)">
     <use xlink:href="#DejaVuSans-50"/>
     <use xlink:href="#DejaVuSans-72" transform="translate(58.552734 0)"/>
     <use xlink:href="#DejaVuSans-65" transform="translate(97.416016 0)"/>
     <use xlink:href="#DejaVuSans-62" transform="translate(158.939453 0)"/>
     <use xlink:href="#DejaVuSans-72" transform="translate(222.416016 0)"/>
     <use xlink:href="#DejaVuSans-69" transform="translate(263.529297 0)"/>
     <use xlink:href="#DejaVuSans-73" transform="translate(291.3125 0)"/>
     <use xlink:href="#DejaVuSans-61" transform="translate(343.412109 0)"/>
     <use xlink:href="#DejaVuSans-6e" transform="translate(404.691406 0)"/>
     <use xlink:href="#DejaVuSans-69" transform="translate(468.070312 0)"/>
     <use xlink:href="#DejaVuSans-20" transform="translate(495.853516 0)"/>
     <use xlink:href="#DejaVuSans-75" transform="translate(527.640625 0)"/>
     <use xlink:href="#DejaVuSans-10d" transform="translate(591.019531 0)"/>
     <use xlink:href="#DejaVuSans-69" transform="translate(646 0)"/>
     <use xlink:href="#DejaVuSans-74" transform="translate(673.783203 0)"/>
     <use xlink:href="#DejaVuSans-65" transform="translate(712.992188 0)"/>
     <use xlink:href="#DejaVuSans-6c" transform="translate(774.515625 0)"/>
     <use xlink:href="#DejaVuSans-6a" transform="translate(802.298828 0)"/>
    </g>
   </g>
   <g id="text_18">
    <!-- Pogumna princesa -->
    <g transform="translate(255.790451 212.768957) scale(0.09 -0.09)">
     <defs>
      <path id="DejaVuSans-67" d="M 2906 1791 
Q 2906 2416 2648 2759 
Q 2391 3103 1925 3103 
Q 1463 3103 1205 2759 
Q 947 2416 947 1791 
Q 947 1169 1205 825 
Q 1463 481 1925 481 
Q 2391 481 2648 825 
Q 2906 1169 2906 1791 
z
M 3481 434 
Q 3481 -459 3084 -895 
Q 2688 -1331 1869 -1331 
Q 1566 -1331 1297 -1286 
Q 1028 -1241 775 -1147 
L 775 -588 
Q 1028 -725 1275 -790 
Q 1522 -856 1778 -856 
Q 2344 -856 2625 -561 
Q 2906 -266 2906 331 
L 2906 616 
Q 2728 306 2450 153 
Q 2172 0 1784 0 
Q 1141 0 747 490 
Q 353 981 353 1791 
Q 353 2603 747 3093 
Q 1141 3584 1784 3584 
Q 2172 3584 2450 3431 
Q 2728 3278 2906 2969 
L 2906 3500 
L 3481 3500 
L 3481 434 
z
" transform="scale(0.015625)"/>
     </defs>
     <use xlink:href="#DejaVuSans-50"/>
     <use xlink:href="#DejaVuSans-6f" transform="translate(56.677734 0)"/>
     <use xlink:href="#DejaVuSans-67" transform="translate(117.859375 0)"/>
     <use xlink:href="#DejaVuSans-75" transform="translate(181.335938 0)"/>
     <use xlink:href="#DejaVuSans-6d" transform="translate(244.714844 0)"/>
     <use xlink:href="#DejaVuSans-6e" transform="translate(342.126953 0)"/>
     <use xlink:href="#DejaVuSans-61" transform="translate(405.505859 0)"/>
     <use xlink:href="#DejaVuSans-20" transform="translate(466.785156 0)"/>
     <use xlink:href="#DejaVuSans-70" transform="translate(498.572266 0)"/>
     <use xlink:href="#DejaVuSans-72" transform="translate(562.048828 0)"/>
     <use xlink:href="#DejaVuSans-69" transform="translate(603.162109 0)"/>
     <use xlink:href="#DejaVuSans-6e" transform="translate(630.945312 0)"/>
     <use xlink:href="#DejaVuSans-63" transform="translate(694.324219 0)"/>
     <use xlink:href="#DejaVuSans-65" transform="translate(749.304688 0)"/>
     <use xlink:href="#DejaVuSans-73" transform="translate(810.828125 0)"/>
     <use xlink:href="#DejaVuSans-61" transform="translate(862.927734 0)"/>
    </g>
   </g>
  </g>
 </g>
 <defs>
  <clipPath id="p317129f0e6">
   <rect x="21.747017" y="7.2" width="390.6" height="388.08"/>
  </clipPath>
 </defs>
</svg>
