<?xml version="1.0" encoding="utf-8" standalone="no"?>
<!DOCTYPE svg PUBLIC "-//W3C//DTD SVG 1.1//EN"
  "http://www.w3.org/Graphics/SVG/1.1/DTD/svg11.dtd">
<svg xmlns:xlink="http://www.w3.org/1999/xlink" width="421.34919pt" height="402.48pt" viewBox="0 0 421.34919 402.48" xmlns="http://www.w3.org/2000/svg" version="1.1">
 <metadata>
  <rdf:RDF xmlns:dc="http://purl.org/dc/elements/1.1/" xmlns:cc="http://creativecommons.org/ns#" xmlns:rdf="http://www.w3.org/1999/02/22-rdf-syntax-ns#">
   <cc:Work>
    <dc:type rdf:resource="http://purl.org/dc/dcmitype/StillImage"/>
    <dc:date>2025-12-04T13:27:52.329236</dc:date>
    <dc:format>image/svg+xml</dc:format>
    <dc:creator>
     <cc:Agent>
      <dc:title>Matplotlib v3.10.7, https://matplotlib.org/</dc:title>
     </cc:Agent>
    </dc:creator>
   </cc:Work>
  </rdf:RDF>
 </metadata>
 <defs>
  <style type="text/css">*{stroke-linejoin: round; stroke-linecap: butt}</style>
 </defs>
 <g id="figure_1">
  <g id="patch_1">
   <path d="M 0 402.48 
L 421.34919 402.48 
L 421.34919 -0 
L 0 -0 
z
" style="fill: #ffffff"/>
  </g>
  <g id="axes_1">
   <g id="patch_2">
    <path d="M 279.180165 281.013093 
Q 300.768889 309.992505 321.463323 337.771475 
" clip-path="url(#padbc49f550)" style="fill: none; stroke: #e8e8e8; stroke-width: 1.2; stroke-linecap: round"/>
    <path d="M 319.490776 329.265063 
L 321.463323 337.771475 
L 313.877245 333.446961 
z
" clip-path="url(#padbc49f550)" style="fill: #e8e8e8; stroke: #e8e8e8; stroke-width: 1.2; stroke-linecap: round"/>
   </g>
   <g id="patch_3">
    <path d="M 283.776536 267.305392 
Q 326.101104 254.744583 366.990599 242.609665 
" clip-path="url(#padbc49f550)" style="fill: none; stroke: #e8e8e8; stroke-width: 1.2; stroke-linecap: round"/>
    <path d="M 358.325431 241.530378 
L 366.990599 242.609665 
L 360.316993 248.241092 
z
" clip-path="url(#padbc49f550)" style="fill: #e8e8e8; stroke: #e8e8e8; stroke-width: 1.2; stroke-linecap: round"/>
   </g>
   <g id="patch_4">
    <path d="M 259.022826 270.102499 
Q 234.435919 268.541068 211.342937 267.074511 
" clip-path="url(#padbc49f550)" style="fill: none; stroke: #e8e8e8; stroke-width: 1.2; stroke-linecap: round"/>
    <path d="M 219.105028 271.074506 
L 211.342937 267.074511 
L 219.54868 264.088579 
z
" clip-path="url(#padbc49f550)" style="fill: #e8e8e8; stroke: #e8e8e8; stroke-width: 1.2; stroke-linecap: round"/>
   </g>
   <g id="patch_5">
    <path d="M 278.638166 260.410754 
Q 308.62201 215.389432 337.776085 171.614023 
" clip-path="url(#padbc49f550)" style="fill: none; stroke: #e8e8e8; stroke-width: 1.2; stroke-linecap: round"/>
    <path d="M 330.428511 176.332408 
L 337.776085 171.614023 
L 336.254677 180.212588 
z
" clip-path="url(#padbc49f550)" style="fill: #e8e8e8; stroke: #e8e8e8; stroke-width: 1.2; stroke-linecap: round"/>
   </g>
   <g id="patch_6">
    <path d="M 268.145281 258.809934 
Q 260.263458 231.606637 252.79822 205.84114 
" clip-path="url(#padbc49f550)" style="fill: none; stroke: #e8e8e8; stroke-width: 1.2; stroke-linecap: round"/>
    <path d="M 251.662819 214.499135 
L 252.79822 205.84114 
L 258.386294 212.55109 
z
" clip-path="url(#padbc49f550)" style="fill: #e8e8e8; stroke: #e8e8e8; stroke-width: 1.2; stroke-linecap: round"/>
   </g>
   <g id="patch_7">
    <path d="M 268.47141 283.084197 
Q 257.724586 324.270727 247.355704 364.008818 
" clip-path="url(#padbc49f550)" style="fill: none; stroke: #e8e8e8; stroke-width: 1.2; stroke-linecap: round"/>
    <path d="M 252.762132 357.151666 
L 247.355704 364.008818 
L 245.988912 355.384326 
z
" clip-path="url(#padbc49f550)" style="fill: #e8e8e8; stroke: #e8e8e8; stroke-width: 1.2; stroke-linecap: round"/>
   </g>
   <g id="patch_8">
    <path d="M 335.13891 337.632416 
Q 355.218336 293.835237 374.673909 251.398802 
" clip-path="url(#padbc49f550)" style="fill: none; stroke: #e8e8e8; stroke-width: 1.2; stroke-linecap: round"/>
    <path d="M 368.158317 257.212326 
L 374.673909 251.398802 
L 374.521457 260.129595 
z
" clip-path="url(#padbc49f550)" style="fill: #e8e8e8; stroke: #e8e8e8; stroke-width: 1.2; stroke-linecap: round"/>
   </g>
   <g id="patch_9">
    <path d="M 325.777342 337.181197 
Q 293.44731 243.614731 261.606153 151.463121 
" clip-path="url(#padbc49f550)" style="fill: none; stroke: #e8e8e8; stroke-width: 1.2; stroke-linecap: round"/>
    <path d="M 260.910737 160.16751 
L 261.606153 151.463121 
L 267.526914 157.881422 
z
" clip-path="url(#padbc49f550)" style="fill: #e8e8e8; stroke: #e8e8e8; stroke-width: 1.2; stroke-linecap: round"/>
   </g>
   <g id="patch_10">
    <path d="M 330.93045 336.541007 
Q 337.74137 254.480152 344.428472 173.911102 
" clip-path="url(#padbc49f550)" style="fill: none; stroke: #e8e8e8; stroke-width: 1.2; stroke-linecap: round"/>
    <path d="M 340.278753 181.59419 
L 344.428472 173.911102 
L 347.254767 182.173188 
z
" clip-path="url(#padbc49f550)" style="fill: #e8e8e8; stroke: #e8e8e8; stroke-width: 1.2; stroke-linecap: round"/>
   </g>
   <g id="patch_11">
    <path d="M 324.103905 337.886103 
Q 289.38207 270.693243 255.347445 204.830255 
" clip-path="url(#padbc49f550)" style="fill: none; stroke: #e8e8e8; stroke-width: 1.2; stroke-linecap: round"/>
    <path d="M 255.91068 213.544195 
L 255.347445 204.830255 
L 262.129453 210.330652 
z
" clip-path="url(#padbc49f550)" style="fill: #e8e8e8; stroke: #e8e8e8; stroke-width: 1.2; stroke-linecap: round"/>
   </g>
   <g id="patch_12">
    <path d="M 317.316677 350.481471 
Q 232.172003 359.956629 148.515081 369.266225 
" clip-path="url(#padbc49f550)" style="fill: none; stroke: #e8e8e8; stroke-width: 1.2; stroke-linecap: round"/>
    <path d="M 156.853102 371.85995 
L 148.515081 369.266225 
L 156.0789 364.902895 
z
" clip-path="url(#padbc49f550)" style="fill: #e8e8e8; stroke: #e8e8e8; stroke-width: 1.2; stroke-linecap: round"/>
   </g>
   <g id="patch_13">
    <path d="M 368.420997 242.18516 
Q 326.096429 254.74597 285.206934 266.880888 
" clip-path="url(#padbc49f550)" style="fill: none; stroke: #e8e8e8; stroke-width: 1.2; stroke-linecap: round"/>
    <path d="M 293.872102 267.960174 
L 285.206934 266.880888 
L 291.88054 261.24946 
z
" clip-path="url(#padbc49f550)" style="fill: #e8e8e8; stroke: #e8e8e8; stroke-width: 1.2; stroke-linecap: round"/>
   </g>
   <g id="patch_14">
    <path d="M 375.298665 250.036086 
Q 355.21924 293.833265 335.763666 336.2697 
" clip-path="url(#padbc49f550)" style="fill: none; stroke: #e8e8e8; stroke-width: 1.2; stroke-linecap: round"/>
    <path d="M 342.279258 330.456176 
L 335.763666 336.2697 
L 335.916119 327.538906 
z
" clip-path="url(#padbc49f550)" style="fill: #e8e8e8; stroke: #e8e8e8; stroke-width: 1.2; stroke-linecap: round"/>
   </g>
   <g id="patch_15">
    <path d="M 381.267955 226.019889 
Q 385.697654 148.698952 390.041734 72.872501 
" clip-path="url(#padbc49f550)" style="fill: none; stroke: #e8e8e8; stroke-width: 1.2; stroke-linecap: round"/>
    <path d="M 386.089896 80.659219 
L 390.041734 72.872501 
L 393.078437 81.059591 
z
" clip-path="url(#padbc49f550)" style="fill: #e8e8e8; stroke: #e8e8e8; stroke-width: 1.2; stroke-linecap: round"/>
   </g>
   <g id="patch_16">
    <path d="M 368.037224 240.469126 
Q 288.886557 252.381757 211.216153 264.0716 
" clip-path="url(#padbc49f550)" style="fill: none; stroke: #e8e8e8; stroke-width: 1.2; stroke-linecap: round"/>
    <path d="M 219.64796 266.341984 
L 211.216153 264.0716 
L 218.606153 259.419944 
z
" clip-path="url(#padbc49f550)" style="fill: #e8e8e8; stroke: #e8e8e8; stroke-width: 1.2; stroke-linecap: round"/>
   </g>
   <g id="patch_17">
    <path d="M 368.615184 234.39236 
Q 314.710348 215.447433 262.217766 196.998844 
" clip-path="url(#padbc49f550)" style="fill: none; stroke: #e8e8e8; stroke-width: 1.2; stroke-linecap: round"/>
    <path d="M 268.604716 202.953411 
L 262.217766 196.998844 
L 270.925706 196.349397 
z
" clip-path="url(#padbc49f550)" style="fill: #e8e8e8; stroke: #e8e8e8; stroke-width: 1.2; stroke-linecap: round"/>
   </g>
   <g id="patch_18">
    <path d="M 371.699371 247.583972 
Q 312.17274 308.113835 253.69572 367.576397 
" clip-path="url(#padbc49f550)" style="fill: none; stroke: #e8e8e8; stroke-width: 1.2; stroke-linecap: round"/>
    <path d="M 261.800575 364.326579 
L 253.69572 367.576397 
L 256.80964 359.418365 
z
" clip-path="url(#padbc49f550)" style="fill: #e8e8e8; stroke: #e8e8e8; stroke-width: 1.2; stroke-linecap: round"/>
   </g>
   <g id="patch_19">
    <path d="M 368.164614 235.992425 
Q 249.184496 211.071613 131.66952 186.45768 
" clip-path="url(#padbc49f550)" style="fill: none; stroke: #e8e8e8; stroke-width: 1.2; stroke-linecap: round"/>
    <path d="M 138.78209 191.523383 
L 131.66952 186.45768 
L 140.217125 184.672057 
z
" clip-path="url(#padbc49f550)" style="fill: #e8e8e8; stroke: #e8e8e8; stroke-width: 1.2; stroke-linecap: round"/>
   </g>
   <g id="patch_20">
    <path d="M 368.986397 233.464596 
Q 334.29891 218.098712 300.980082 203.339119 
" clip-path="url(#padbc49f550)" style="fill: none; stroke: #e8e8e8; stroke-width: 1.2; stroke-linecap: round"/>
    <path d="M 306.876971 209.779359 
L 300.980082 203.339119 
L 309.712114 203.379206 
z
" clip-path="url(#padbc49f550)" style="fill: #e8e8e8; stroke: #e8e8e8; stroke-width: 1.2; stroke-linecap: round"/>
   </g>
   <g id="patch_21">
    <path d="M 194.411146 253.907924 
Q 169.5761 145.510279 145.075357 38.571762 
" clip-path="url(#padbc49f550)" style="fill: none; stroke: #e8e8e8; stroke-width: 1.2; stroke-linecap: round"/>
    <path d="M 143.450346 47.151351 
L 145.075357 38.571762 
L 150.273556 45.588081 
z
" clip-path="url(#padbc49f550)" style="fill: #e8e8e8; stroke: #e8e8e8; stroke-width: 1.2; stroke-linecap: round"/>
   </g>
   <g id="patch_22">
    <path d="M 209.733105 264.294808 
Q 288.883772 252.382176 366.554176 240.692333 
" clip-path="url(#padbc49f550)" style="fill: none; stroke: #e8e8e8; stroke-width: 1.2; stroke-linecap: round"/>
    <path d="M 358.122369 238.42195 
L 366.554176 240.692333 
L 359.164176 245.34399 
z
" clip-path="url(#padbc49f550)" style="fill: #e8e8e8; stroke: #e8e8e8; stroke-width: 1.2; stroke-linecap: round"/>
   </g>
   <g id="patch_23">
    <path d="M 202.550701 254.766677 
Q 227.113335 202.164432 251.042621 150.918538 
" clip-path="url(#padbc49f550)" style="fill: none; stroke: #e8e8e8; stroke-width: 1.2; stroke-linecap: round"/>
    <path d="M 244.486553 156.686377 
L 251.042621 150.918538 
L 250.829145 159.648053 
z
" clip-path="url(#padbc49f550)" style="fill: #e8e8e8; stroke: #e8e8e8; stroke-width: 1.2; stroke-linecap: round"/>
   </g>
   <g id="patch_24">
    <path d="M 207.491024 258.820652 
Q 271.410028 213.025426 334.112176 168.102025 
" clip-path="url(#padbc49f550)" style="fill: none; stroke: #e8e8e8; stroke-width: 1.2; stroke-linecap: round"/>
    <path d="M 325.570571 169.916134 
L 334.112176 168.102025 
L 329.647416 175.606418 
z
" clip-path="url(#padbc49f550)" style="fill: #e8e8e8; stroke: #e8e8e8; stroke-width: 1.2; stroke-linecap: round"/>
   </g>
   <g id="patch_25">
    <path d="M 202.07704 277.795622 
Q 220.510283 321.908112 238.366367 364.639405 
" clip-path="url(#padbc49f550)" style="fill: none; stroke: #e8e8e8; stroke-width: 1.2; stroke-linecap: round"/>
    <path d="M 238.511272 355.908483 
L 238.366367 364.639405 
L 232.052494 358.607406 
z
" clip-path="url(#padbc49f550)" style="fill: #e8e8e8; stroke: #e8e8e8; stroke-width: 1.2; stroke-linecap: round"/>
   </g>
   <g id="patch_26">
    <path d="M 188.477943 257.078748 
Q 157.520879 224.866112 127.601064 193.732795 
" clip-path="url(#padbc49f550)" style="fill: none; stroke: #e8e8e8; stroke-width: 1.2; stroke-linecap: round"/>
    <path d="M 130.62082 201.926151 
L 127.601064 193.732795 
L 135.667953 197.075743 
z
" clip-path="url(#padbc49f550)" style="fill: #e8e8e8; stroke: #e8e8e8; stroke-width: 1.2; stroke-linecap: round"/>
   </g>
   <g id="patch_27">
    <path d="M 338.604673 170.369883 
Q 308.620829 215.391205 279.466754 259.166614 
" clip-path="url(#padbc49f550)" style="fill: none; stroke: #e8e8e8; stroke-width: 1.2; stroke-linecap: round"/>
    <path d="M 286.814328 254.448229 
L 279.466754 259.166614 
L 280.988162 250.568049 
z
" clip-path="url(#padbc49f550)" style="fill: #e8e8e8; stroke: #e8e8e8; stroke-width: 1.2; stroke-linecap: round"/>
   </g>
   <g id="patch_28">
    <path d="M 350.739915 148.383143 
Q 368.219412 109.348644 385.087124 71.680358 
" clip-path="url(#padbc49f550)" style="fill: none; stroke: #e8e8e8; stroke-width: 1.2; stroke-linecap: round"/>
    <path d="M 378.62324 77.55132 
L 385.087124 71.680358 
L 385.011949 80.412159 
z
" clip-path="url(#padbc49f550)" style="fill: #e8e8e8; stroke: #e8e8e8; stroke-width: 1.2; stroke-linecap: round"/>
   </g>
   <g id="patch_29">
    <path d="M 335.324611 167.233367 
Q 271.405607 213.028593 208.703459 257.951994 
" clip-path="url(#padbc49f550)" style="fill: none; stroke: #e8e8e8; stroke-width: 1.2; stroke-linecap: round"/>
    <path d="M 217.245064 256.137885 
L 208.703459 257.951994 
L 213.168219 250.4476 
z
" clip-path="url(#padbc49f550)" style="fill: #e8e8e8; stroke: #e8e8e8; stroke-width: 1.2; stroke-linecap: round"/>
   </g>
   <g id="patch_30">
    <path d="M 242.093425 181.686754 
Q 195.403269 108.57478 149.518799 36.724427 
" clip-path="url(#padbc49f550)" style="fill: none; stroke: #e8e8e8; stroke-width: 1.2; stroke-linecap: round"/>
    <path d="M 150.874778 45.350627 
L 149.518799 36.724427 
L 156.774393 41.583064 
z
" clip-path="url(#padbc49f550)" style="fill: #e8e8e8; stroke: #e8e8e8; stroke-width: 1.2; stroke-linecap: round"/>
   </g>
   <g id="patch_31">
    <path d="M 248.53309 204.89212 
Q 246.338304 284.978804 244.184527 363.569113 
" clip-path="url(#padbc49f550)" style="fill: none; stroke: #e8e8e8; stroke-width: 1.2; stroke-linecap: round"/>
    <path d="M 247.902372 355.667997 
L 244.184527 363.569113 
L 240.905 355.476234 
z
" clip-path="url(#padbc49f550)" style="fill: #e8e8e8; stroke: #e8e8e8; stroke-width: 1.2; stroke-linecap: round"/>
   </g>
   <g id="patch_32">
    <path d="M 237.336171 187.161327 
Q 226.648676 182.393229 217.328238 178.235026 
" clip-path="url(#padbc49f550)" style="fill: none; stroke: #e8e8e8; stroke-width: 1.2; stroke-linecap: round"/>
    <path d="M 223.208127 184.690791 
L 217.328238 178.235026 
L 226.060134 178.298135 
z
" clip-path="url(#padbc49f550)" style="fill: #e8e8e8; stroke: #e8e8e8; stroke-width: 1.2; stroke-linecap: round"/>
   </g>
   <g id="patch_33">
    <path d="M 255.80533 373.657274 
Q 286.844346 363.361123 316.462557 353.536276 
" clip-path="url(#padbc49f550)" style="fill: none; stroke: #e8e8e8; stroke-width: 1.2; stroke-linecap: round"/>
    <path d="M 307.767454 352.733046 
L 316.462557 353.536276 
L 309.971377 359.377045 
z
" clip-path="url(#padbc49f550)" style="fill: #e8e8e8; stroke: #e8e8e8; stroke-width: 1.2; stroke-linecap: round"/>
   </g>
   <g id="patch_34">
    <path d="M 252.647577 368.642205 
Q 312.174209 308.112342 370.651229 248.649779 
" clip-path="url(#padbc49f550)" style="fill: none; stroke: #e8e8e8; stroke-width: 1.2; stroke-linecap: round"/>
    <path d="M 362.546373 251.899598 
L 370.651229 248.649779 
L 367.537308 256.807812 
z
" clip-path="url(#padbc49f550)" style="fill: #e8e8e8; stroke: #e8e8e8; stroke-width: 1.2; stroke-linecap: round"/>
   </g>
   <g id="patch_35">
    <path d="M 243.437905 365.065318 
Q 241.244908 288.678477 239.094868 213.787955 
" clip-path="url(#padbc49f550)" style="fill: none; stroke: #e8e8e8; stroke-width: 1.2; stroke-linecap: round"/>
    <path d="M 235.825888 221.885101 
L 239.094868 213.787955 
L 242.823005 221.68422 
z
" clip-path="url(#padbc49f550)" style="fill: #e8e8e8; stroke: #e8e8e8; stroke-width: 1.2; stroke-linecap: round"/>
   </g>
   <g id="patch_36">
    <path d="M 244.491745 365.076081 
Q 250.402198 257.89506 256.230228 152.208705 
" clip-path="url(#padbc49f550)" style="fill: none; stroke: #e8e8e8; stroke-width: 1.2; stroke-linecap: round"/>
    <path d="M 252.29505 160.003855 
L 256.230228 152.208705 
L 259.284431 160.389282 
z
" clip-path="url(#padbc49f550)" style="fill: #e8e8e8; stroke: #e8e8e8; stroke-width: 1.2; stroke-linecap: round"/>
   </g>
   <g id="patch_37">
    <path d="M 242.728031 365.104533 
Q 230.327266 219.944403 218.053917 76.275776 
" clip-path="url(#padbc49f550)" style="fill: none; stroke: #e8e8e8; stroke-width: 1.2; stroke-linecap: round"/>
    <path d="M 215.247564 84.544656 
L 218.053917 76.275776 
L 222.22216 83.948829 
z
" clip-path="url(#padbc49f550)" style="fill: #e8e8e8; stroke: #e8e8e8; stroke-width: 1.2; stroke-linecap: round"/>
   </g>
   <g id="patch_38">
    <path d="M 246.804226 365.414051 
Q 265.925262 287.627546 284.688968 211.294702 
" clip-path="url(#padbc49f550)" style="fill: none; stroke: #e8e8e8; stroke-width: 1.2; stroke-linecap: round"/>
    <path d="M 279.380483 218.227954 
L 284.688968 211.294702 
L 286.178123 219.898911 
z
" clip-path="url(#padbc49f550)" style="fill: #e8e8e8; stroke: #e8e8e8; stroke-width: 1.2; stroke-linecap: round"/>
   </g>
   <g id="patch_39">
    <path d="M 147.80636 35.988172 
Q 206.789396 147.872215 265.074343 258.432064 
" clip-path="url(#padbc49f550)" style="fill: none; stroke: #e8e8e8; stroke-width: 1.2; stroke-linecap: round"/>
    <path d="M 264.439694 249.723033 
L 265.074343 258.432064 
L 258.247473 252.987448 
z
" clip-path="url(#padbc49f550)" style="fill: #e8e8e8; stroke: #e8e8e8; stroke-width: 1.2; stroke-linecap: round"/>
   </g>
   <g id="patch_40">
    <path d="M 144.740414 37.109832 
Q 169.575459 145.507478 194.076202 252.445994 
" clip-path="url(#padbc49f550)" style="fill: none; stroke: #e8e8e8; stroke-width: 1.2; stroke-linecap: round"/>
    <path d="M 195.701213 243.866406 
L 194.076202 252.445994 
L 188.878004 245.429675 
z
" clip-path="url(#padbc49f550)" style="fill: #e8e8e8; stroke: #e8e8e8; stroke-width: 1.2; stroke-linecap: round"/>
   </g>
   <g id="patch_41">
    <path d="M 136.289944 36.105591 
Q 88.842878 130.889904 42.065883 224.335628 
" clip-path="url(#padbc49f550)" style="fill: none; stroke: #e8e8e8; stroke-width: 1.2; stroke-linecap: round"/>
    <path d="M 48.776676 218.748567 
L 42.065883 224.335628 
L 42.517137 215.615171 
z
" clip-path="url(#padbc49f550)" style="fill: #e8e8e8; stroke: #e8e8e8; stroke-width: 1.2; stroke-linecap: round"/>
   </g>
   <g id="patch_42">
    <path d="M 150.920096 33.692717 
Q 199.465541 81.492429 246.944331 128.241872 
" clip-path="url(#padbc49f550)" style="fill: none; stroke: #e8e8e8; stroke-width: 1.2; stroke-linecap: round"/>
    <path d="M 243.699507 120.135016 
L 246.944331 128.241872 
L 238.788218 125.122926 
z
" clip-path="url(#padbc49f550)" style="fill: #e8e8e8; stroke: #e8e8e8; stroke-width: 1.2; stroke-linecap: round"/>
   </g>
   <g id="patch_43">
    <path d="M 145.421271 36.933687 
Q 192.864234 201.240501 239.891927 364.109133 
" clip-path="url(#padbc49f550)" style="fill: none; stroke: #e8e8e8; stroke-width: 1.2; stroke-linecap: round"/>
    <path d="M 241.03525 355.452182 
L 239.891927 364.109133 
L 234.309995 357.394073 
z
" clip-path="url(#padbc49f550)" style="fill: #e8e8e8; stroke: #e8e8e8; stroke-width: 1.2; stroke-linecap: round"/>
   </g>
   <g id="patch_44">
    <path d="M 153.238833 30.485942 
Q 179.394532 43.543343 204.210913 55.932132 
" clip-path="url(#padbc49f550)" style="fill: none; stroke: #e8e8e8; stroke-width: 1.2; stroke-linecap: round"/>
    <path d="M 198.616547 49.227427 
L 204.210913 55.932132 
L 195.489969 55.490374 
z
" clip-path="url(#padbc49f550)" style="fill: #e8e8e8; stroke: #e8e8e8; stroke-width: 1.2; stroke-linecap: round"/>
   </g>
   <g id="patch_45">
    <path d="M 48.407707 237.001134 
Q 208.153297 237.763473 366.401968 238.518669 
" clip-path="url(#padbc49f550)" style="fill: none; stroke: #e8e8e8; stroke-width: 1.2; stroke-linecap: round"/>
    <path d="M 358.418762 234.980532 
L 366.401968 238.518669 
L 358.385357 241.980452 
z
" clip-path="url(#padbc49f550)" style="fill: #e8e8e8; stroke: #e8e8e8; stroke-width: 1.2; stroke-linecap: round"/>
   </g>
   <g id="patch_46">
    <path d="M 46.342726 230.05418 
Q 76.788008 210.249745 105.978477 191.261558 
" clip-path="url(#padbc49f550)" style="fill: none; stroke: #e8e8e8; stroke-width: 1.2; stroke-linecap: round"/>
    <path d="M 97.363963 192.689896 
L 105.978477 191.261558 
L 101.180914 198.557679 
z
" clip-path="url(#padbc49f550)" style="fill: #e8e8e8; stroke: #e8e8e8; stroke-width: 1.2; stroke-linecap: round"/>
   </g>
   <g id="patch_47">
    <path d="M 43.235409 247.087395 
Q 85.103798 303.886565 126.083981 359.480784 
" clip-path="url(#padbc49f550)" style="fill: none; stroke: #e8e8e8; stroke-width: 1.2; stroke-linecap: round"/>
    <path d="M 124.154493 350.964501 
L 126.083981 359.480784 
L 118.519878 355.117946 
z
" clip-path="url(#padbc49f550)" style="fill: #e8e8e8; stroke: #e8e8e8; stroke-width: 1.2; stroke-linecap: round"/>
   </g>
   <g id="patch_48">
    <path d="M 265.542294 128.857319 
Q 272.844444 120.909777 279.133804 114.064538 
" clip-path="url(#padbc49f550)" style="fill: none; stroke: #e8e8e8; stroke-width: 1.2; stroke-linecap: round"/>
    <path d="M 271.143895 117.587513 
L 279.133804 114.064538 
L 276.29851 122.32354 
z
" clip-path="url(#padbc49f550)" style="fill: #e8e8e8; stroke: #e8e8e8; stroke-width: 1.2; stroke-linecap: round"/>
   </g>
   <g id="patch_49">
    <path d="M 258.385357 150.657141 
Q 264.327637 204.527403 270.105789 256.909754 
" clip-path="url(#padbc49f550)" style="fill: none; stroke: #e8e8e8; stroke-width: 1.2; stroke-linecap: round"/>
    <path d="M 272.707551 248.574237 
L 270.105789 256.909754 
L 265.749753 249.341733 
z
" clip-path="url(#padbc49f550)" style="fill: #e8e8e8; stroke: #e8e8e8; stroke-width: 1.2; stroke-linecap: round"/>
   </g>
   <g id="patch_50">
    <path d="M 266.801843 146.112734 
Q 318.778391 188.368657 369.593419 229.680287 
" clip-path="url(#padbc49f550)" style="fill: none; stroke: #e8e8e8; stroke-width: 1.2; stroke-linecap: round"/>
    <path d="M 365.593827 221.917989 
L 369.593419 229.680287 
L 361.178107 227.349509 
z
" clip-path="url(#padbc49f550)" style="fill: #e8e8e8; stroke: #e8e8e8; stroke-width: 1.2; stroke-linecap: round"/>
   </g>
   <g id="patch_51">
    <path d="M 251.677162 149.559633 
Q 227.114528 202.161878 203.185242 253.407772 
" clip-path="url(#padbc49f550)" style="fill: none; stroke: #e8e8e8; stroke-width: 1.2; stroke-linecap: round"/>
    <path d="M 209.74131 247.639933 
L 203.185242 253.407772 
L 203.398718 244.678257 
z
" clip-path="url(#padbc49f550)" style="fill: #e8e8e8; stroke: #e8e8e8; stroke-width: 1.2; stroke-linecap: round"/>
   </g>
   <g id="patch_52">
    <path d="M 246.427261 145.053233 
Q 230.712089 155.31085 216.250453 164.750259 
" clip-path="url(#padbc49f550)" style="fill: none; stroke: #e8e8e8; stroke-width: 1.2; stroke-linecap: round"/>
    <path d="M 224.862723 163.308451 
L 216.250453 164.750259 
L 221.0366 157.446644 
z
" clip-path="url(#padbc49f550)" style="fill: #e8e8e8; stroke: #e8e8e8; stroke-width: 1.2; stroke-linecap: round"/>
   </g>
   <g id="patch_53">
    <path d="M 227.798867 68.556313 
Q 252.76854 82.95795 276.4415 96.611689 
" clip-path="url(#padbc49f550)" style="fill: none; stroke: #e8e8e8; stroke-width: 1.2; stroke-linecap: round"/>
    <path d="M 271.260211 89.582874 
L 276.4415 96.611689 
L 267.762872 95.646587 
z
" clip-path="url(#padbc49f550)" style="fill: #e8e8e8; stroke: #e8e8e8; stroke-width: 1.2; stroke-linecap: round"/>
   </g>
   <g id="patch_54">
    <path d="M 220.052038 74.418008 
Q 244.251991 166.572948 268.071738 257.280042 
" clip-path="url(#padbc49f550)" style="fill: none; stroke: #e8e8e8; stroke-width: 1.2; stroke-linecap: round"/>
    <path d="M 269.425049 248.653424 
L 268.071738 257.280042 
L 262.654599 250.431349 
z
" clip-path="url(#padbc49f550)" style="fill: #e8e8e8; stroke: #e8e8e8; stroke-width: 1.2; stroke-linecap: round"/>
   </g>
   <g id="patch_55">
    <path d="M 221.473066 73.962685 
Q 273.373356 205.665815 324.724825 335.976247 
" clip-path="url(#padbc49f550)" style="fill: none; stroke: #e8e8e8; stroke-width: 1.2; stroke-linecap: round"/>
    <path d="M 325.048069 327.250107 
L 324.724825 335.976247 
L 318.535501 329.816517 
z
" clip-path="url(#padbc49f550)" style="fill: #e8e8e8; stroke: #e8e8e8; stroke-width: 1.2; stroke-linecap: round"/>
   </g>
   <g id="patch_56">
    <path d="M 222.746776 73.382348 
Q 236.930576 100.196804 250.414444 125.688039 
" clip-path="url(#padbc49f550)" style="fill: none; stroke: #e8e8e8; stroke-width: 1.2; stroke-linecap: round"/>
    <path d="M 249.767666 116.979901 
L 250.414444 125.688039 
L 243.579998 120.252936 
z
" clip-path="url(#padbc49f550)" style="fill: #e8e8e8; stroke: #e8e8e8; stroke-width: 1.2; stroke-linecap: round"/>
   </g>
   <g id="patch_57">
    <path d="M 215.443804 74.752282 
Q 210.635731 117.360397 205.995513 158.481018 
" clip-path="url(#padbc49f550)" style="fill: none; stroke: #e8e8e8; stroke-width: 1.2; stroke-linecap: round"/>
    <path d="M 210.370498 150.923935 
L 205.995513 158.481018 
L 203.414645 150.139008 
z
" clip-path="url(#padbc49f550)" style="fill: #e8e8e8; stroke: #e8e8e8; stroke-width: 1.2; stroke-linecap: round"/>
   </g>
   <g id="patch_58">
    <path d="M 147.023682 369.432192 
Q 232.168356 359.957034 315.825278 350.647439 
" clip-path="url(#padbc49f550)" style="fill: none; stroke: #e8e8e8; stroke-width: 1.2; stroke-linecap: round"/>
    <path d="M 307.487257 348.053714 
L 315.825278 350.647439 
L 308.261459 355.010768 
z
" clip-path="url(#padbc49f550)" style="fill: #e8e8e8; stroke: #e8e8e8; stroke-width: 1.2; stroke-linecap: round"/>
   </g>
   <g id="patch_59">
    <path d="M 147.079961 371.617704 
Q 189.126492 374.23577 229.67898 376.760809 
" clip-path="url(#padbc49f550)" style="fill: none; stroke: #e8e8e8; stroke-width: 1.2; stroke-linecap: round"/>
    <path d="M 221.911953 372.77041 
L 229.67898 376.760809 
L 221.476934 379.756879 
z
" clip-path="url(#padbc49f550)" style="fill: #e8e8e8; stroke: #e8e8e8; stroke-width: 1.2; stroke-linecap: round"/>
   </g>
   <g id="patch_60">
    <path d="M 142.819212 361.394159 
Q 211.25153 284.221872 278.690678 208.169598 
" clip-path="url(#padbc49f550)" style="fill: none; stroke: #e8e8e8; stroke-width: 1.2; stroke-linecap: round"/>
    <path d="M 270.764216 211.833095 
L 278.690678 208.169598 
L 276.001647 216.477373 
z
" clip-path="url(#padbc49f550)" style="fill: #e8e8e8; stroke: #e8e8e8; stroke-width: 1.2; stroke-linecap: round"/>
   </g>
   <g id="patch_61">
    <path d="M 379.273876 63.898816 
Q 339.766687 81.243978 301.630152 97.98737 
" clip-path="url(#padbc49f550)" style="fill: none; stroke: #e8e8e8; stroke-width: 1.2; stroke-linecap: round"/>
    <path d="M 310.362269 97.976104 
L 301.630152 97.98737 
L 307.548265 91.566628 
z
" clip-path="url(#padbc49f550)" style="fill: #e8e8e8; stroke: #e8e8e8; stroke-width: 1.2; stroke-linecap: round"/>
   </g>
   <g id="patch_62">
    <path d="M 378.308475 57.106281 
Q 266.38634 41.828664 155.947387 26.753504 
" clip-path="url(#padbc49f550)" style="fill: none; stroke: #e8e8e8; stroke-width: 1.2; stroke-linecap: round"/>
    <path d="M 163.400513 31.303329 
L 155.947387 26.753504 
L 164.347249 24.367647 
z
" clip-path="url(#padbc49f550)" style="fill: #e8e8e8; stroke: #e8e8e8; stroke-width: 1.2; stroke-linecap: round"/>
   </g>
   <g id="patch_63">
    <path d="M 388.260803 71.132303 
Q 360.368461 203.94898 332.783774 335.300677 
" clip-path="url(#padbc49f550)" style="fill: none; stroke: #e8e8e8; stroke-width: 1.2; stroke-linecap: round"/>
    <path d="M 337.853242 328.19079 
L 332.783774 335.300677 
L 331.002676 326.752128 
z
" clip-path="url(#padbc49f550)" style="fill: #e8e8e8; stroke: #e8e8e8; stroke-width: 1.2; stroke-linecap: round"/>
   </g>
   <g id="patch_64">
    <path d="M 390.127005 71.384095 
Q 385.697306 148.705032 381.353226 224.531483 
" clip-path="url(#padbc49f550)" style="fill: none; stroke: #e8e8e8; stroke-width: 1.2; stroke-linecap: round"/>
    <path d="M 385.305064 216.744765 
L 381.353226 224.531483 
L 378.316523 216.344393 
z
" clip-path="url(#padbc49f550)" style="fill: #e8e8e8; stroke: #e8e8e8; stroke-width: 1.2; stroke-linecap: round"/>
   </g>
   <g id="patch_65">
    <path d="M 383.341795 68.951323 
Q 339.449878 128.214712 296.448889 186.27516 
" clip-path="url(#padbc49f550)" style="fill: none; stroke: #e8e8e8; stroke-width: 1.2; stroke-linecap: round"/>
    <path d="M 304.022833 181.92943 
L 296.448889 186.27516 
L 298.39762 177.76326 
z
" clip-path="url(#padbc49f550)" style="fill: #e8e8e8; stroke: #e8e8e8; stroke-width: 1.2; stroke-linecap: round"/>
   </g>
   <g id="patch_66">
    <path d="M 295.557414 187.47884 
Q 339.449331 128.215451 382.45032 70.155002 
" clip-path="url(#padbc49f550)" style="fill: none; stroke: #e8e8e8; stroke-width: 1.2; stroke-linecap: round"/>
    <path d="M 374.876376 74.500732 
L 382.45032 70.155002 
L 380.501589 78.666903 
z
" clip-path="url(#padbc49f550)" style="fill: #e8e8e8; stroke: #e8e8e8; stroke-width: 1.2; stroke-linecap: round"/>
   </g>
   <g id="patch_67">
    <path d="M 299.613923 202.733937 
Q 334.30141 218.09982 367.620238 232.859414 
" clip-path="url(#padbc49f550)" style="fill: none; stroke: #e8e8e8; stroke-width: 1.2; stroke-linecap: round"/>
    <path d="M 361.723349 226.419173 
L 367.620238 232.859414 
L 358.888205 232.819326 
z
" clip-path="url(#padbc49f550)" style="fill: #e8e8e8; stroke: #e8e8e8; stroke-width: 1.2; stroke-linecap: round"/>
   </g>
   <g id="patch_68">
    <path d="M 275.411273 198.150568 
Q 263.370486 198.663224 252.825279 199.112204 
" clip-path="url(#padbc49f550)" style="fill: none; stroke: #e8e8e8; stroke-width: 1.2; stroke-linecap: round"/>
    <path d="M 260.966921 202.268731 
L 252.825279 199.112204 
L 260.669155 195.275067 
z
" clip-path="url(#padbc49f550)" style="fill: #e8e8e8; stroke: #e8e8e8; stroke-width: 1.2; stroke-linecap: round"/>
   </g>
   <g id="patch_69">
    <path d="M 275.548771 199.561426 
Q 161.902674 217.276787 49.735651 234.761587 
" clip-path="url(#padbc49f550)" style="fill: none; stroke: #e8e8e8; stroke-width: 1.2; stroke-linecap: round"/>
    <path d="M 58.179267 236.987649 
L 49.735651 234.761587 
L 57.101115 230.071177 
z
" clip-path="url(#padbc49f550)" style="fill: #e8e8e8; stroke: #e8e8e8; stroke-width: 1.2; stroke-linecap: round"/>
   </g>
   <g id="patch_70">
    <path d="M 285.046971 209.838304 
Q 265.925935 287.624809 247.162229 363.957654 
" clip-path="url(#padbc49f550)" style="fill: none; stroke: #e8e8e8; stroke-width: 1.2; stroke-linecap: round"/>
    <path d="M 252.470714 357.024401 
L 247.162229 363.957654 
L 245.673075 355.353444 
z
" clip-path="url(#padbc49f550)" style="fill: #e8e8e8; stroke: #e8e8e8; stroke-width: 1.2; stroke-linecap: round"/>
   </g>
   <g id="patch_71">
    <path d="M 129.272049 178.203948 
Q 203.251744 143.614877 275.8754 109.659819 
" clip-path="url(#padbc49f550)" style="fill: none; stroke: #e8e8e8; stroke-width: 1.2; stroke-linecap: round"/>
    <path d="M 267.145991 109.877579 
L 275.8754 109.659819 
L 270.110779 116.218717 
z
" clip-path="url(#padbc49f550)" style="fill: #e8e8e8; stroke: #e8e8e8; stroke-width: 1.2; stroke-linecap: round"/>
   </g>
   <g id="patch_72">
    <path d="M 129.315998 178.30602 
Q 254.333368 121.188101 377.989178 64.692252 
" clip-path="url(#padbc49f550)" style="fill: none; stroke: #e8e8e8; stroke-width: 1.2; stroke-linecap: round"/>
    <path d="M 369.258192 64.83327 
L 377.989178 64.692252 
L 372.167126 71.200225 
z
" clip-path="url(#padbc49f550)" style="fill: #e8e8e8; stroke: #e8e8e8; stroke-width: 1.2; stroke-linecap: round"/>
   </g>
   <g id="patch_73">
    <path d="M 126.566543 192.656316 
Q 157.523608 224.868952 187.443422 256.002269 
" clip-path="url(#padbc49f550)" style="fill: none; stroke: #e8e8e8; stroke-width: 1.2; stroke-linecap: round"/>
    <path d="M 184.423666 247.808914 
L 187.443422 256.002269 
L 179.376533 252.659321 
z
" clip-path="url(#padbc49f550)" style="fill: #e8e8e8; stroke: #e8e8e8; stroke-width: 1.2; stroke-linecap: round"/>
   </g>
   <g id="patch_74">
    <path d="M 130.361593 185.233469 
Q 178.255305 191.635494 224.665278 197.839187 
" clip-path="url(#padbc49f550)" style="fill: none; stroke: #e8e8e8; stroke-width: 1.2; stroke-linecap: round"/>
    <path d="M 217.199533 193.310098 
L 224.665278 197.839187 
L 216.272081 200.248386 
z
" clip-path="url(#padbc49f550)" style="fill: #e8e8e8; stroke: #e8e8e8; stroke-width: 1.2; stroke-linecap: round"/>
   </g>
   <g id="patch_75">
    <path d="M 124.683467 194.127948 
Q 180.810535 280.598626 236.122595 365.813685 
" clip-path="url(#padbc49f550)" style="fill: none; stroke: #e8e8e8; stroke-width: 1.2; stroke-linecap: round"/>
    <path d="M 234.702768 357.197764 
L 236.122595 365.813685 
L 228.831217 361.008917 
z
" clip-path="url(#padbc49f550)" style="fill: #e8e8e8; stroke: #e8e8e8; stroke-width: 1.2; stroke-linecap: round"/>
   </g>
   <g id="patch_76">
    <path d="M 125.799779 173.784973 
Q 167.340373 122.898832 207.934329 73.172299 
" clip-path="url(#padbc49f550)" style="fill: none; stroke: #e8e8e8; stroke-width: 1.2; stroke-linecap: round"/>
    <path d="M 200.163961 77.156189 
L 207.934329 73.172299 
L 205.586543 81.582881 
z
" clip-path="url(#padbc49f550)" style="fill: #e8e8e8; stroke: #e8e8e8; stroke-width: 1.2; stroke-linecap: round"/>
   </g>
   <g id="patch_77">
    <path d="M 239.051825 212.288684 
Q 241.244823 288.675525 243.394862 363.566047 
" clip-path="url(#padbc49f550)" style="fill: none; stroke: #e8e8e8; stroke-width: 1.2; stroke-linecap: round"/>
    <path d="M 246.663843 355.468901 
L 243.394862 363.566047 
L 239.666726 355.669782 
z
" clip-path="url(#padbc49f550)" style="fill: #e8e8e8; stroke: #e8e8e8; stroke-width: 1.2; stroke-linecap: round"/>
   </g>
   <g id="patch_78">
    <path d="M 236.716632 187.285177 
Q 227.773152 130.979973 219.0645 76.15317 
" clip-path="url(#padbc49f550)" style="fill: none; stroke: #e8e8e8; stroke-width: 1.2; stroke-linecap: round"/>
    <path d="M 216.862816 84.603175 
L 219.0645 76.15317 
L 223.776148 83.505066 
z
" clip-path="url(#padbc49f550)" style="fill: #e8e8e8; stroke: #e8e8e8; stroke-width: 1.2; stroke-linecap: round"/>
   </g>
   <g id="patch_79">
    <path d="M 226.151417 198.037841 
Q 178.257705 191.635815 131.847731 185.432123 
" clip-path="url(#padbc49f550)" style="fill: none; stroke: #e8e8e8; stroke-width: 1.2; stroke-linecap: round"/>
    <path d="M 139.313477 189.961211 
L 131.847731 185.432123 
L 140.240929 183.022924 
z
" clip-path="url(#padbc49f550)" style="fill: #e8e8e8; stroke: #e8e8e8; stroke-width: 1.2; stroke-linecap: round"/>
   </g>
   <g id="patch_80">
    <path d="M 251.331829 199.17579 
Q 263.372616 198.663133 273.917823 198.214154 
" clip-path="url(#padbc49f550)" style="fill: none; stroke: #e8e8e8; stroke-width: 1.2; stroke-linecap: round"/>
    <path d="M 265.776181 195.057627 
L 273.917823 198.214154 
L 266.073947 202.051291 
z
" clip-path="url(#padbc49f550)" style="fill: #e8e8e8; stroke: #e8e8e8; stroke-width: 1.2; stroke-linecap: round"/>
   </g>
   <g id="patch_81">
    <path d="M 232.135283 210.475375 
Q 186.570645 285.272954 141.784779 358.792123 
" clip-path="url(#padbc49f550)" style="fill: none; stroke: #e8e8e8; stroke-width: 1.2; stroke-linecap: round"/>
    <path d="M 148.935794 353.780837 
L 141.784779 358.792123 
L 142.95767 350.139128 
z
" clip-path="url(#padbc49f550)" style="fill: #e8e8e8; stroke: #e8e8e8; stroke-width: 1.2; stroke-linecap: round"/>
   </g>
   <g id="patch_82">
    <path d="M 214.196466 164.489235 
Q 246.548983 138.073622 277.741976 112.604752 
" clip-path="url(#padbc49f550)" style="fill: none; stroke: #e8e8e8; stroke-width: 1.2; stroke-linecap: round"/>
    <path d="M 269.331604 114.953291 
L 277.741976 112.604752 
L 273.758782 120.375477 
z
" clip-path="url(#padbc49f550)" style="fill: #e8e8e8; stroke: #e8e8e8; stroke-width: 1.2; stroke-linecap: round"/>
   </g>
   <g id="patch_83">
    <path d="M 216.252709 176.917365 
Q 292.48166 205.530162 367.30915 233.616916 
" clip-path="url(#padbc49f550)" style="fill: none; stroke: #e8e8e8; stroke-width: 1.2; stroke-linecap: round"/>
    <path d="M 361.049335 227.528837 
L 367.30915 233.616916 
L 358.58944 234.082379 
z
" clip-path="url(#padbc49f550)" style="fill: #e8e8e8; stroke: #e8e8e8; stroke-width: 1.2; stroke-linecap: round"/>
   </g>
   <g id="patch_84">
    <path d="M 215.958142 177.623774 
Q 226.645636 182.391872 235.966075 186.550075 
" clip-path="url(#padbc49f550)" style="fill: none; stroke: #e8e8e8; stroke-width: 1.2; stroke-linecap: round"/>
    <path d="M 230.086186 180.09431 
L 235.966075 186.550075 
L 227.234178 186.486966 
z
" clip-path="url(#padbc49f550)" style="fill: #e8e8e8; stroke: #e8e8e8; stroke-width: 1.2; stroke-linecap: round"/>
   </g>
   <g id="patch_85">
    <path d="M 191.865197 174.080939 
Q 161.120183 178.015829 131.859994 181.760685 
" clip-path="url(#padbc49f550)" style="fill: none; stroke: #e8e8e8; stroke-width: 1.2; stroke-linecap: round"/>
    <path d="M 140.23959 184.216773 
L 131.859994 181.760685 
L 139.350946 177.273409 
z
" clip-path="url(#padbc49f550)" style="fill: #e8e8e8; stroke: #e8e8e8; stroke-width: 1.2; stroke-linecap: round"/>
   </g>
   <g id="patch_86">
    <path d="M 200.227926 184.349218 
Q 169.433903 271.652157 139.137819 357.543405 
" clip-path="url(#padbc49f550)" style="fill: none; stroke: #e8e8e8; stroke-width: 1.2; stroke-linecap: round"/>
    <path d="M 145.099626 351.163212 
L 139.137819 357.543405 
L 138.498248 348.834734 
z
" clip-path="url(#padbc49f550)" style="fill: #e8e8e8; stroke: #e8e8e8; stroke-width: 1.2; stroke-linecap: round"/>
   </g>
   <g id="patch_87">
    <path d="M 287.851988 53.714202 
Q 331.376083 140.518177 374.229222 225.984006 
" clip-path="url(#padbc49f550)" style="fill: none; stroke: #e8e8e8; stroke-width: 1.2; stroke-linecap: round"/>
    <path d="M 373.7722 217.263849 
L 374.229222 225.984006 
L 367.514735 220.401384 
z
" clip-path="url(#padbc49f550)" style="fill: #e8e8e8; stroke: #e8e8e8; stroke-width: 1.2; stroke-linecap: round"/>
   </g>
   <g id="patch_88">
    <path d="M 277.73402 54.225863 
Q 239.714317 154.314985 202.226179 253.004732 
" clip-path="url(#padbc49f550)" style="fill: none; stroke: #e8e8e8; stroke-width: 1.2; stroke-linecap: round"/>
    <path d="M 208.338893 246.768969 
L 202.226179 253.004732 
L 201.7951 244.283254 
z
" clip-path="url(#padbc49f550)" style="fill: #e8e8e8; stroke: #e8e8e8; stroke-width: 1.2; stroke-linecap: round"/>
   </g>
   <g id="patch_89">
    <path d="M 272.297056 50.273124 
Q 158.982541 139.695882 46.843127 228.191304 
" clip-path="url(#padbc49f550)" style="fill: none; stroke: #e8e8e8; stroke-width: 1.2; stroke-linecap: round"/>
    <path d="M 55.291378 225.982896 
L 46.843127 228.191304 
L 50.954945 220.487866 
z
" clip-path="url(#padbc49f550)" style="fill: #e8e8e8; stroke: #e8e8e8; stroke-width: 1.2; stroke-linecap: round"/>
   </g>
   <g id="patch_90">
    <path d="M 279.473388 54.739807 
Q 265.542035 117.381253 251.935658 178.561464 
" clip-path="url(#padbc49f550)" style="fill: none; stroke: #e8e8e8; stroke-width: 1.2; stroke-linecap: round"/>
    <path d="M 257.08894 171.512089 
L 251.935658 178.561464 
L 250.255885 169.992429 
z
" clip-path="url(#padbc49f550)" style="fill: #e8e8e8; stroke: #e8e8e8; stroke-width: 1.2; stroke-linecap: round"/>
   </g>
   <g id="patch_91">
    <path d="M 277.038077 53.938619 
Q 208.329069 206.640793 140.234299 357.977856 
" clip-path="url(#padbc49f550)" style="fill: none; stroke: #e8e8e8; stroke-width: 1.2; stroke-linecap: round"/>
    <path d="M 146.708719 352.118515 
L 140.234299 357.977856 
L 140.325159 349.246204 
z
" clip-path="url(#padbc49f550)" style="fill: #e8e8e8; stroke: #e8e8e8; stroke-width: 1.2; stroke-linecap: round"/>
   </g>
   <g id="patch_92">
    <path d="M 204.445756 255.848244 
Q 223.050305 229.243837 240.796992 203.866168 
" clip-path="url(#padbc49f550)" style="fill: none; stroke: #797979; stroke-width: 1.2; stroke-linecap: round"/>
    <path d="M 233.344109 208.416392 
L 240.796992 203.866168 
L 239.080609 212.427945 
z
" clip-path="url(#padbc49f550)" style="fill: #797979; stroke: #797979; stroke-width: 1.2; stroke-linecap: round"/>
   </g>
   <g id="patch_93">
    <path d="M 333.608336 163.895525 
Q 297.239567 176.092069 262.290052 187.812655 
" clip-path="url(#padbc49f550)" style="fill: none; stroke: #797979; stroke-width: 1.2; stroke-linecap: round"/>
    <path d="M 270.987741 188.58739 
L 262.290052 187.812655 
L 268.762059 181.950648 
z
" clip-path="url(#padbc49f550)" style="fill: #797979; stroke: #797979; stroke-width: 1.2; stroke-linecap: round"/>
   </g>
   <g id="patch_94">
    <path d="M 254.663525 203.506748 
Q 289.38536 270.699608 323.419985 336.562597 
" clip-path="url(#padbc49f550)" style="fill: none; stroke: #797979; stroke-width: 1.2; stroke-linecap: round"/>
    <path d="M 322.85675 327.848656 
L 323.419985 336.562597 
L 316.637977 331.0622 
z
" clip-path="url(#padbc49f550)" style="fill: #797979; stroke: #797979; stroke-width: 1.2; stroke-linecap: round"/>
   </g>
   <g id="patch_95">
    <path d="M 241.654428 202.640039 
Q 223.049878 229.244447 205.303192 254.622115 
" clip-path="url(#padbc49f550)" style="fill: none; stroke: #797979; stroke-width: 1.2; stroke-linecap: round"/>
    <path d="M 212.756074 250.071892 
L 205.303192 254.622115 
L 207.019574 246.060338 
z
" clip-path="url(#padbc49f550)" style="fill: #797979; stroke: #797979; stroke-width: 1.2; stroke-linecap: round"/>
   </g>
   <g id="patch_96">
    <path d="M 41.395337 225.675167 
Q 88.842403 130.890854 135.619398 37.44513 
" clip-path="url(#padbc49f550)" style="fill: none; stroke: #797979; stroke-width: 1.2; stroke-linecap: round"/>
    <path d="M 128.908605 43.032191 
L 135.619398 37.44513 
L 135.168144 46.165587 
z
" clip-path="url(#padbc49f550)" style="fill: #797979; stroke: #797979; stroke-width: 1.2; stroke-linecap: round"/>
   </g>
   <g id="patch_97">
    <path d="M 141.006352 360.069965 
Q 186.570991 285.272387 231.356857 211.753217 
" clip-path="url(#padbc49f550)" style="fill: none; stroke: #797979; stroke-width: 1.2; stroke-linecap: round"/>
    <path d="M 224.205842 216.764503 
L 231.356857 211.753217 
L 230.183965 220.406212 
z
" clip-path="url(#padbc49f550)" style="fill: #797979; stroke: #797979; stroke-width: 1.2; stroke-linecap: round"/>
   </g>
   <g id="patch_98">
    <path d="M 275.516886 195.915826 
Q 268.466504 194.961633 262.899532 194.208204 
" clip-path="url(#padbc49f550)" style="fill: none; stroke: #797979; stroke-width: 1.2; stroke-linecap: round"/>
    <path d="M 270.357849 198.749515 
L 262.899532 194.208204 
L 271.296664 191.812756 
z
" clip-path="url(#padbc49f550)" style="fill: #797979; stroke: #797979; stroke-width: 1.2; stroke-linecap: round"/>
   </g>
   <g id="patch_99">
    <path d="M 214.994731 165.569895 
Q 230.709903 155.312278 245.171539 145.872869 
" clip-path="url(#padbc49f550)" style="fill: none; stroke: #797979; stroke-width: 1.2; stroke-linecap: round"/>
    <path d="M 236.559269 147.314677 
L 245.171539 145.872869 
L 240.385392 153.176484 
z
" clip-path="url(#padbc49f550)" style="fill: #797979; stroke: #797979; stroke-width: 1.2; stroke-linecap: round"/>
   </g>
   <g id="PathCollection_1">
    <defs>
     <path id="m5e71e85717" d="M 0 12.638126 
C 3.35167 12.638126 6.566516 11.306493 8.936504 8.936504 
C 11.306493 6.566516 12.638126 3.35167 12.638126 0 
C 12.638126 -3.35167 11.306493 -6.566516 8.936504 -8.936504 
C 6.566516 -11.306493 3.35167 -12.638126 0 -12.638126 
C -3.35167 -12.638126 -6.566516 -11.306493 -8.936504 -8.936504 
C -11.306493 -6.566516 -12.638126 -3.35167 -12.638126 0 
C -12.638126 3.35167 -11.306493 6.566516 -8.936504 8.936504 
C -6.566516 11.306493 -3.35167 12.638126 0 12.638126 
z
" style="stroke: #f9c984; stroke-width: 0.5"/>
    </defs>
    <g clip-path="url(#padbc49f550)">
     <use xlink:href="#m5e71e85717" x="271.649497" y="270.904376" style="fill: #f9c984; stroke: #f9c984; stroke-width: 0.5"/>
    </g>
   </g>
   <g id="PathCollection_2">
    <defs>
     <path id="mcf68911a10" d="M 0 12.190616 
C 3.232989 12.190616 6.333999 10.906136 8.620067 8.620067 
C 10.906136 6.333999 12.190616 3.232989 12.190616 0 
C 12.190616 -3.232989 10.906136 -6.333999 8.620067 -8.620067 
C 6.333999 -10.906136 3.232989 -12.190616 0 -12.190616 
C -3.232989 -12.190616 -6.333999 -10.906136 -8.620067 -8.620067 
C -10.906136 -6.333999 -12.190616 -3.232989 -12.190616 0 
C -12.190616 3.232989 -10.906136 6.333999 -8.620067 8.620067 
C -6.333999 10.906136 -3.232989 12.190616 0 12.190616 
z
" style="stroke: #f9c172; stroke-width: 0.5"/>
    </defs>
    <g clip-path="url(#padbc49f550)">
     <use xlink:href="#mcf68911a10" x="141.929266" y="24.84" style="fill: #f9c172; stroke: #f9c172; stroke-width: 0.5"/>
    </g>
   </g>
   <g id="PathCollection_3">
    <defs>
     <path id="m2da98cf409" d="M 0 13.070323 
C 3.46629 13.070323 6.791077 11.693151 9.242114 9.242114 
C 11.693151 6.791077 13.070323 3.46629 13.070323 0 
C 13.070323 -3.46629 11.693151 -6.791077 9.242114 -9.242114 
C 6.791077 -11.693151 3.46629 -13.070323 0 -13.070323 
C -3.46629 -13.070323 -6.791077 -11.693151 -9.242114 -9.242114 
C -11.693151 -6.791077 -13.070323 -3.46629 -13.070323 0 
C -13.070323 3.46629 -11.693151 6.791077 -9.242114 9.242114 
C -6.791077 11.693151 -3.46629 13.070323 0 13.070323 
z
" style="stroke: #f9b557; stroke-width: 0.5"/>
    </defs>
    <g clip-path="url(#padbc49f550)">
     <use xlink:href="#m2da98cf409" x="329.88954" y="349.082325" style="fill: #f9b557; stroke: #f9b557; stroke-width: 0.5"/>
    </g>
   </g>
   <g id="PathCollection_4">
    <defs>
     <path id="m3f5e773029" d="M 0 11.726039 
C 3.109782 11.726039 6.092614 10.49051 8.291562 8.291562 
C 10.49051 6.092614 11.726039 3.109782 11.726039 0 
C 11.726039 -3.109782 10.49051 -6.092614 8.291562 -8.291562 
C 6.092614 -10.49051 3.109782 -11.726039 0 -11.726039 
C -3.109782 -11.726039 -6.092614 -10.49051 -8.291562 -8.291562 
C -10.49051 -6.092614 -11.726039 -3.109782 -11.726039 0 
C -11.726039 3.109782 -10.49051 6.092614 -8.291562 8.291562 
C -6.092614 10.49051 -3.109782 11.726039 0 11.726039 
z
" style="stroke: #f9c984; stroke-width: 0.5"/>
    </defs>
    <g clip-path="url(#padbc49f550)">
     <use xlink:href="#m3f5e773029" x="390.846925" y="58.817807" style="fill: #f9c984; stroke: #f9c984; stroke-width: 0.5"/>
    </g>
   </g>
   <g id="PathCollection_5">
    <defs>
     <path id="mf81c1182b6" d="M 0 16.1159 
C 4.273987 16.1159 8.373497 14.417827 11.395662 11.395662 
C 14.417827 8.373497 16.1159 4.273987 16.1159 0 
C 16.1159 -4.273987 14.417827 -8.373497 11.395662 -11.395662 
C 8.373497 -14.417827 4.273987 -16.1159 0 -16.1159 
C -4.273987 -16.1159 -8.373497 -14.417827 -11.395662 -11.395662 
C -14.417827 -8.373497 -16.1159 -4.273987 -16.1159 0 
C -16.1159 4.273987 -14.417827 8.373497 -11.395662 11.395662 
C -8.373497 14.417827 -4.273987 16.1159 0 16.1159 
z
" style="stroke: #f9a22b; stroke-width: 0.5"/>
    </defs>
    <g clip-path="url(#padbc49f550)">
     <use xlink:href="#mf81c1182b6" x="380.548035" y="238.586177" style="fill: #f9a22b; stroke: #f9a22b; stroke-width: 0.5"/>
    </g>
   </g>
   <g id="PathCollection_6">
    <defs>
     <path id="m9ead38fbf8" d="M 0 15.046225 
C 3.990306 15.046225 7.817716 13.46086 10.639288 10.639288 
C 13.46086 7.817716 15.046225 3.990306 15.046225 0 
C 15.046225 -3.990306 13.46086 -7.817716 10.639288 -10.639288 
C 7.817716 -13.46086 3.990306 -15.046225 0 -15.046225 
C -3.990306 -15.046225 -7.817716 -13.46086 -10.639288 -10.639288 
C -13.46086 -7.817716 -15.046225 -3.990306 -15.046225 0 
C -15.046225 3.990306 -13.46086 7.817716 -10.639288 10.639288 
C -7.817716 13.46086 -3.990306 15.046225 0 15.046225 
z
" style="stroke: #f9be6a; stroke-width: 0.5"/>
    </defs>
    <g clip-path="url(#padbc49f550)">
     <use xlink:href="#m9ead38fbf8" x="197.222294" y="266.177757" style="fill: #f9be6a; stroke: #f9be6a; stroke-width: 0.5"/>
    </g>
   </g>
   <g id="PathCollection_7">
    <defs>
     <path id="m244068cb20" d="M 0 11.726039 
C 3.109782 11.726039 6.092614 10.49051 8.291562 8.291562 
C 10.49051 6.092614 11.726039 3.109782 11.726039 0 
C 11.726039 -3.109782 10.49051 -6.092614 8.291562 -8.291562 
C 6.092614 -10.49051 3.109782 -11.726039 0 -11.726039 
C -3.109782 -11.726039 -6.092614 -10.49051 -8.291562 -8.291562 
C -10.49051 -6.092614 -11.726039 -3.109782 -11.726039 0 
C -11.726039 3.109782 -10.49051 6.092614 -8.291562 8.291562 
C -6.092614 10.49051 -3.109782 11.726039 0 11.726039 
z
" style="stroke: #f9ce90; stroke-width: 0.5"/>
    </defs>
    <g clip-path="url(#padbc49f550)">
     <use xlink:href="#m244068cb20" x="238.690818" y="199.714002" style="fill: #f9ce90; stroke: #f9ce90; stroke-width: 0.5"/>
    </g>
   </g>
   <g id="PathCollection_8">
    <defs>
     <path id="m19220d7807" d="M 0 11.242281 
C 2.981488 11.242281 5.841263 10.057724 7.949493 7.949493 
C 10.057724 5.841263 11.242281 2.981488 11.242281 0 
C 11.242281 -2.981488 10.057724 -5.841263 7.949493 -7.949493 
C 5.841263 -10.057724 2.981488 -11.242281 0 -11.242281 
C -2.981488 -11.242281 -5.841263 -10.057724 -7.949493 -7.949493 
C -10.057724 -5.841263 -11.242281 -2.981488 -11.242281 0 
C -11.242281 2.981488 -10.057724 5.841263 -7.949493 7.949493 
C -5.841263 10.057724 -2.981488 11.242281 0 11.242281 
z
" style="stroke: #f9d9a8; stroke-width: 0.5"/>
    </defs>
    <g clip-path="url(#padbc49f550)">
     <use xlink:href="#m19220d7807" x="35.756016" y="236.940758" style="fill: #f9d9a8; stroke: #f9d9a8; stroke-width: 0.5"/>
    </g>
   </g>
   <g id="PathCollection_9">
    <defs>
     <path id="m2007554780" d="M 0 13.070323 
C 3.46629 13.070323 6.791077 11.693151 9.242114 9.242114 
C 11.693151 6.791077 13.070323 3.46629 13.070323 0 
C 13.070323 -3.46629 11.693151 -6.791077 9.242114 -9.242114 
C 6.791077 -11.693151 3.46629 -13.070323 0 -13.070323 
C -3.46629 -13.070323 -6.791077 -11.693151 -9.242114 -9.242114 
C -11.693151 -6.791077 -13.070323 -3.46629 -13.070323 0 
C -13.070323 3.46629 -11.693151 6.791077 -9.242114 9.242114 
C -6.791077 11.693151 -3.46629 13.070323 0 13.070323 
z
" style="stroke: #f9ca85; stroke-width: 0.5"/>
    </defs>
    <g clip-path="url(#padbc49f550)">
     <use xlink:href="#m2007554780" x="257.005569" y="138.148554" style="fill: #f9ca85; stroke: #f9ca85; stroke-width: 0.5"/>
    </g>
   </g>
   <g id="PathCollection_10">
    <defs>
     <path id="m5004c9c765" d="M 0 10.736749 
C 2.847419 10.736749 5.578599 9.605457 7.592028 7.592028 
C 9.605457 5.578599 10.736749 2.847419 10.736749 0 
C 10.736749 -2.847419 9.605457 -5.578599 7.592028 -7.592028 
C 5.578599 -9.605457 2.847419 -10.736749 0 -10.736749 
C -2.847419 -10.736749 -5.578599 -9.605457 -7.592028 -7.592028 
C -9.605457 -5.578599 -10.736749 -2.847419 -10.736749 0 
C -10.736749 2.847419 -9.605457 5.578599 -7.592028 7.592028 
C -5.578599 9.605457 -2.847419 10.736749 0 10.736749 
z
" style="stroke: #f9d8a7; stroke-width: 0.5"/>
    </defs>
    <g clip-path="url(#padbc49f550)">
     <use xlink:href="#m5004c9c765" x="345.593341" y="159.876262" style="fill: #f9d8a7; stroke: #f9d8a7; stroke-width: 0.5"/>
    </g>
   </g>
   <g id="PathCollection_11">
    <defs>
     <path id="m697aec874c" d="M 0 9.646531 
C 2.55829 9.646531 5.012143 8.630111 6.821127 6.821127 
C 8.630111 5.012143 9.646531 2.55829 9.646531 0 
C 9.646531 -2.55829 8.630111 -5.012143 6.821127 -6.821127 
C 5.012143 -8.630111 2.55829 -9.646531 0 -9.646531 
C -2.55829 -9.646531 -5.012143 -8.630111 -6.821127 -6.821127 
C -8.630111 -5.012143 -9.646531 -2.55829 -9.646531 0 
C -9.646531 2.55829 -8.630111 5.012143 -6.821127 6.821127 
C -5.012143 8.630111 -2.55829 9.646531 0 9.646531 
z
" style="stroke: #f9dfb6; stroke-width: 0.5"/>
    </defs>
    <g clip-path="url(#padbc49f550)">
     <use xlink:href="#m697aec874c" x="282.205828" y="42.453563" style="fill: #f9dfb6; stroke: #f9dfb6; stroke-width: 0.5"/>
    </g>
   </g>
   <g id="PathCollection_12">
    <defs>
     <path id="mc381dab1e9" d="M 0 14.28869 
C 3.789405 14.28869 7.424116 12.783144 10.10363 10.10363 
C 12.783144 7.424116 14.28869 3.789405 14.28869 0 
C 14.28869 -3.789405 12.783144 -7.424116 10.10363 -10.10363 
C 7.424116 -12.783144 3.789405 -14.28869 0 -14.28869 
C -3.789405 -14.28869 -7.424116 -12.783144 -10.10363 -10.10363 
C -12.783144 -7.424116 -14.28869 -3.789405 -14.28869 0 
C -14.28869 3.789405 -12.783144 7.424116 -10.10363 10.10363 
C -7.424116 12.783144 -3.789405 14.28869 0 14.28869 
z
" style="stroke: #f9bc66; stroke-width: 0.5"/>
    </defs>
    <g clip-path="url(#padbc49f550)">
     <use xlink:href="#mc381dab1e9" x="248.87789" y="192.310527" style="fill: #f9bc66; stroke: #f9bc66; stroke-width: 0.5"/>
    </g>
   </g>
   <g id="PathCollection_13">
    <defs>
     <path id="mb51adb0c19" d="M 0 14.672347 
C 3.891152 14.672347 7.623456 13.126376 10.374916 10.374916 
C 13.126376 7.623456 14.672347 3.891152 14.672347 0 
C 14.672347 -3.891152 13.126376 -7.623456 10.374916 -10.374916 
C 7.623456 -13.126376 3.891152 -14.672347 0 -14.672347 
C -3.891152 -14.672347 -7.623456 -13.126376 -10.374916 -10.374916 
C -13.126376 -7.623456 -14.672347 -3.891152 -14.672347 0 
C -14.672347 3.891152 -13.126376 7.623456 -10.374916 10.374916 
C -7.623456 13.126376 -3.891152 14.672347 0 14.672347 
z
" style="stroke: #f9b352; stroke-width: 0.5"/>
    </defs>
    <g clip-path="url(#padbc49f550)">
     <use xlink:href="#mb51adb0c19" x="243.798913" y="377.64" style="fill: #f9b352; stroke: #f9b352; stroke-width: 0.5"/>
    </g>
   </g>
   <g id="PathCollection_14">
    <defs>
     <path id="mbc88e59903" d="M 0 12.190616 
C 3.232989 12.190616 6.333999 10.906136 8.620067 8.620067 
C 10.906136 6.333999 12.190616 3.232989 12.190616 0 
C 12.190616 -3.232989 10.906136 -6.333999 8.620067 -8.620067 
C 6.333999 -10.906136 3.232989 -12.190616 0 -12.190616 
C -3.232989 -12.190616 -6.333999 -10.906136 -8.620067 -8.620067 
C -10.906136 -6.333999 -12.190616 -3.232989 -12.190616 0 
C -12.190616 3.232989 -10.906136 6.333999 -8.620067 8.620067 
C -6.333999 10.906136 -3.232989 12.190616 0 12.190616 
z
" style="stroke: #f9cf91; stroke-width: 0.5"/>
    </defs>
    <g clip-path="url(#padbc49f550)">
     <use xlink:href="#mbc88e59903" x="204.416423" y="172.474574" style="fill: #f9cf91; stroke: #f9cf91; stroke-width: 0.5"/>
    </g>
   </g>
   <g id="PathCollection_15">
    <defs>
     <path id="m0cf6fa7b7a" d="M 0 11.726039 
C 3.109782 11.726039 6.092614 10.49051 8.291562 8.291562 
C 10.49051 6.092614 11.726039 3.109782 11.726039 0 
C 11.726039 -3.109782 10.49051 -6.092614 8.291562 -8.291562 
C 6.092614 -10.49051 3.109782 -11.726039 0 -11.726039 
C -3.109782 -11.726039 -6.092614 -10.49051 -8.291562 -8.291562 
C -10.49051 -6.092614 -11.726039 -3.109782 -11.726039 0 
C -11.726039 3.109782 -10.49051 6.092614 -8.291562 8.291562 
C -6.092614 10.49051 -3.109782 11.726039 0 11.726039 
z
" style="stroke: #f9c77f; stroke-width: 0.5"/>
    </defs>
    <g clip-path="url(#padbc49f550)">
     <use xlink:href="#m0cf6fa7b7a" x="216.855243" y="62.244412" style="fill: #f9c77f; stroke: #f9c77f; stroke-width: 0.5"/>
    </g>
   </g>
   <g id="PathCollection_16">
    <defs>
     <path id="m7a3cb14ec9" d="M 0 13.488678 
C 3.577239 13.488678 7.008446 12.067426 9.537936 9.537936 
C 12.067426 7.008446 13.488678 3.577239 13.488678 0 
C 13.488678 -3.577239 12.067426 -7.008446 9.537936 -9.537936 
C 7.008446 -12.067426 3.577239 -13.488678 0 -13.488678 
C -3.577239 -13.488678 -7.008446 -12.067426 -9.537936 -9.537936 
C -12.067426 -7.008446 -13.488678 -3.577239 -13.488678 0 
C -13.488678 3.577239 -12.067426 7.008446 -9.537936 9.537936 
C -7.008446 12.067426 -3.577239 13.488678 0 13.488678 
z
" style="stroke: #f9c881; stroke-width: 0.5"/>
    </defs>
    <g clip-path="url(#padbc49f550)">
     <use xlink:href="#m7a3cb14ec9" x="117.822192" y="183.557308" style="fill: #f9c881; stroke: #f9c881; stroke-width: 0.5"/>
    </g>
   </g>
   <g id="PathCollection_17">
    <defs>
     <path id="m9e07013e1e" d="M 0 13.488678 
C 3.577239 13.488678 7.008446 12.067426 9.537936 9.537936 
C 12.067426 7.008446 13.488678 3.577239 13.488678 0 
C 13.488678 -3.577239 12.067426 -7.008446 9.537936 -9.537936 
C 7.008446 -12.067426 3.577239 -13.488678 0 -13.488678 
C -3.577239 -13.488678 -7.008446 -12.067426 -9.537936 -9.537936 
C -12.067426 -7.008446 -13.488678 -3.577239 -13.488678 0 
C -13.488678 3.577239 -12.067426 7.008446 -9.537936 9.537936 
C -7.008446 12.067426 -3.577239 13.488678 0 13.488678 
z
" style="stroke: #f9c377; stroke-width: 0.5"/>
    </defs>
    <g clip-path="url(#padbc49f550)">
     <use xlink:href="#m9e07013e1e" x="288.052285" y="197.612356" style="fill: #f9c377; stroke: #f9c377; stroke-width: 0.5"/>
    </g>
   </g>
   <g id="PathCollection_18">
    <defs>
     <path id="m27fbead8a2" d="M 0 12.638126 
C 3.35167 12.638126 6.566516 11.306493 8.936504 8.936504 
C 11.306493 6.566516 12.638126 3.35167 12.638126 0 
C 12.638126 -3.35167 11.306493 -6.566516 8.936504 -8.936504 
C 6.566516 -11.306493 3.35167 -12.638126 0 -12.638126 
C -3.35167 -12.638126 -6.566516 -11.306493 -8.936504 -8.936504 
C -11.306493 -6.566516 -12.638126 -3.35167 -12.638126 0 
C -12.638126 3.35167 -11.306493 6.566516 -8.936504 8.936504 
C -6.566516 11.306493 -3.35167 12.638126 0 12.638126 
z
" style="stroke: #f9d59f; stroke-width: 0.5"/>
    </defs>
    <g clip-path="url(#padbc49f550)">
     <use xlink:href="#m27fbead8a2" x="134.450818" y="370.831338" style="fill: #f9d59f; stroke: #f9d59f; stroke-width: 0.5"/>
    </g>
   </g>
   <g id="PathCollection_19">
    <defs>
     <path id="m643e969768" d="M 0 -9.646531 
L -2.165781 -2.980942 
L -9.174396 -2.980942 
L -3.504307 1.138618 
L -5.670089 7.804207 
L -0 3.684647 
L 5.670089 7.804207 
L 3.504307 1.138618 
L 9.174396 -2.980942 
L 2.165781 -2.980942 
z
" style="stroke: #f9dfb6; stroke-width: 0.8"/>
    </defs>
    <g clip-path="url(#padbc49f550)">
     <use xlink:href="#m643e969768" x="288.682512" y="103.671878" style="fill: #f9dfb6; stroke: #f9dfb6; stroke-width: 0.8"/>
    </g>
   </g>
   <g id="text_1">
    <!-- Deek arovnik -->
    <g transform="translate(237.031138 270.565413) scale(0.09 -0.09)">
     <defs>
      <path id="DejaVuSans-44" d="M 1259 4147 
L 1259 519 
L 2022 519 
Q 2988 519 3436 956 
Q 3884 1394 3884 2338 
Q 3884 3275 3436 3711 
Q 2988 4147 2022 4147 
L 1259 4147 
z
M 628 4666 
L 1925 4666 
Q 3281 4666 3915 4102 
Q 4550 3538 4550 2338 
Q 4550 1131 3912 565 
Q 3275 0 1925 0 
L 628 0 
L 628 4666 
z
" transform="scale(0.015625)"/>
      <path id="DejaVuSans-65" d="M 3597 1894 
L 3597 1613 
L 953 1613 
Q 991 1019 1311 708 
Q 1631 397 2203 397 
Q 2534 397 2845 478 
Q 3156 559 3463 722 
L 3463 178 
Q 3153 47 2828 -22 
Q 2503 -91 2169 -91 
Q 1331 -91 842 396 
Q 353 884 353 1716 
Q 353 2575 817 3079 
Q 1281 3584 2069 3584 
Q 2775 3584 3186 3129 
Q 3597 2675 3597 1894 
z
M 3022 2063 
Q 3016 2534 2758 2815 
Q 2500 3097 2075 3097 
Q 1594 3097 1305 2825 
Q 1016 2553 972 2059 
L 3022 2063 
z
" transform="scale(0.015625)"/>
      <path id="DejaVuSans-10d" d="M 3122 3366 
L 3122 2828 
Q 2878 2963 2633 3030 
Q 2388 3097 2138 3097 
Q 1578 3097 1268 2742 
Q 959 2388 959 1747 
Q 959 1106 1268 751 
Q 1578 397 2138 397 
Q 2388 397 2633 464 
Q 2878 531 3122 666 
L 3122 134 
Q 2881 22 2623 -34 
Q 2366 -91 2075 -91 
Q 1284 -91 818 406 
Q 353 903 353 1747 
Q 353 2603 823 3093 
Q 1294 3584 2113 3584 
Q 2378 3584 2631 3529 
Q 2884 3475 3122 3366 
z
M 1801 3944 
L 1035 5119 
L 1470 5119 
L 2032 4353 
L 2595 5119 
L 3029 5119 
L 2263 3944 
L 1801 3944 
z
" transform="scale(0.015625)"/>
      <path id="DejaVuSans-6b" d="M 581 4863 
L 1159 4863 
L 1159 1991 
L 2875 3500 
L 3609 3500 
L 1753 1863 
L 3688 0 
L 2938 0 
L 1159 1709 
L 1159 0 
L 581 0 
L 581 4863 
z
" transform="scale(0.015625)"/>
      <path id="DejaVuSans-20" transform="scale(0.015625)"/>
      <path id="DejaVuSans-61" d="M 2194 1759 
Q 1497 1759 1228 1600 
Q 959 1441 959 1056 
Q 959 750 1161 570 
Q 1363 391 1709 391 
Q 2188 391 2477 730 
Q 2766 1069 2766 1631 
L 2766 1759 
L 2194 1759 
z
M 3341 1997 
L 3341 0 
L 2766 0 
L 2766 531 
Q 2569 213 2275 61 
Q 1981 -91 1556 -91 
Q 1019 -91 701 211 
Q 384 513 384 1019 
Q 384 1609 779 1909 
Q 1175 2209 1959 2209 
L 2766 2209 
L 2766 2266 
Q 2766 2663 2505 2880 
Q 2244 3097 1772 3097 
Q 1472 3097 1187 3025 
Q 903 2953 641 2809 
L 641 3341 
Q 956 3463 1253 3523 
Q 1550 3584 1831 3584 
Q 2591 3584 2966 3190 
Q 3341 2797 3341 1997 
z
" transform="scale(0.015625)"/>
      <path id="DejaVuSans-72" d="M 2631 2963 
Q 2534 3019 2420 3045 
Q 2306 3072 2169 3072 
Q 1681 3072 1420 2755 
Q 1159 2438 1159 1844 
L 1159 0 
L 581 0 
L 581 3500 
L 1159 3500 
L 1159 2956 
Q 1341 3275 1631 3429 
Q 1922 3584 2338 3584 
Q 2397 3584 2469 3576 
Q 2541 3569 2628 3553 
L 2631 2963 
z
" transform="scale(0.015625)"/>
      <path id="DejaVuSans-6f" d="M 1959 3097 
Q 1497 3097 1228 2736 
Q 959 2375 959 1747 
Q 959 1119 1226 758 
Q 1494 397 1959 397 
Q 2419 397 2687 759 
Q 2956 1122 2956 1747 
Q 2956 2369 2687 2733 
Q 2419 3097 1959 3097 
z
M 1959 3584 
Q 2709 3584 3137 3096 
Q 3566 2609 3566 1747 
Q 3566 888 3137 398 
Q 2709 -91 1959 -91 
Q 1206 -91 779 398 
Q 353 888 353 1747 
Q 353 2609 779 3096 
Q 1206 3584 1959 3584 
z
" transform="scale(0.015625)"/>
      <path id="DejaVuSans-76" d="M 191 3500 
L 800 3500 
L 1894 563 
L 2988 3500 
L 3597 3500 
L 2284 0 
L 1503 0 
L 191 3500 
z
" transform="scale(0.015625)"/>
      <path id="DejaVuSans-6e" d="M 3513 2113 
L 3513 0 
L 2938 0 
L 2938 2094 
Q 2938 2591 2744 2837 
Q 2550 3084 2163 3084 
Q 1697 3084 1428 2787 
Q 1159 2491 1159 1978 
L 1159 0 
L 581 0 
L 581 3500 
L 1159 3500 
L 1159 2956 
Q 1366 3272 1645 3428 
Q 1925 3584 2291 3584 
Q 2894 3584 3203 3211 
Q 3513 2838 3513 2113 
z
" transform="scale(0.015625)"/>
      <path id="DejaVuSans-69" d="M 603 3500 
L 1178 3500 
L 1178 0 
L 603 0 
L 603 3500 
z
M 603 4863 
L 1178 4863 
L 1178 4134 
L 603 4134 
L 603 4863 
z
" transform="scale(0.015625)"/>
     </defs>
     <use xlink:href="#DejaVuSans-44"/>
     <use xlink:href="#DejaVuSans-65" transform="translate(77.001953 0)"/>
     <use xlink:href="#DejaVuSans-10d" transform="translate(138.525391 0)"/>
     <use xlink:href="#DejaVuSans-65" transform="translate(193.505859 0)"/>
     <use xlink:href="#DejaVuSans-6b" transform="translate(255.029297 0)"/>
     <use xlink:href="#DejaVuSans-20" transform="translate(312.939453 0)"/>
     <use xlink:href="#DejaVuSans-10d" transform="translate(344.726562 0)"/>
     <use xlink:href="#DejaVuSans-61" transform="translate(399.707031 0)"/>
     <use xlink:href="#DejaVuSans-72" transform="translate(460.986328 0)"/>
     <use xlink:href="#DejaVuSans-6f" transform="translate(499.849609 0)"/>
     <use xlink:href="#DejaVuSans-76" transform="translate(561.03125 0)"/>
     <use xlink:href="#DejaVuSans-6e" transform="translate(620.210938 0)"/>
     <use xlink:href="#DejaVuSans-69" transform="translate(683.589844 0)"/>
     <use xlink:href="#DejaVuSans-6b" transform="translate(711.373047 0)"/>
    </g>
   </g>
   <g id="text_2">
    <!-- Pametna arovnica -->
    <g transform="translate(98.97325 24.501037) scale(0.09 -0.09)">
     <defs>
      <path id="DejaVuSans-50" d="M 1259 4147 
L 1259 2394 
L 2053 2394 
Q 2494 2394 2734 2622 
Q 2975 2850 2975 3272 
Q 2975 3691 2734 3919 
Q 2494 4147 2053 4147 
L 1259 4147 
z
M 628 4666 
L 2053 4666 
Q 2838 4666 3239 4311 
Q 3641 3956 3641 3272 
Q 3641 2581 3239 2228 
Q 2838 1875 2053 1875 
L 1259 1875 
L 1259 0 
L 628 0 
L 628 4666 
z
" transform="scale(0.015625)"/>
      <path id="DejaVuSans-6d" d="M 3328 2828 
Q 3544 3216 3844 3400 
Q 4144 3584 4550 3584 
Q 5097 3584 5394 3201 
Q 5691 2819 5691 2113 
L 5691 0 
L 5113 0 
L 5113 2094 
Q 5113 2597 4934 2840 
Q 4756 3084 4391 3084 
Q 3944 3084 3684 2787 
Q 3425 2491 3425 1978 
L 3425 0 
L 2847 0 
L 2847 2094 
Q 2847 2600 2669 2842 
Q 2491 3084 2119 3084 
Q 1678 3084 1418 2786 
Q 1159 2488 1159 1978 
L 1159 0 
L 581 0 
L 581 3500 
L 1159 3500 
L 1159 2956 
Q 1356 3278 1631 3431 
Q 1906 3584 2284 3584 
Q 2666 3584 2933 3390 
Q 3200 3197 3328 2828 
z
" transform="scale(0.015625)"/>
      <path id="DejaVuSans-74" d="M 1172 4494 
L 1172 3500 
L 2356 3500 
L 2356 3053 
L 1172 3053 
L 1172 1153 
Q 1172 725 1289 603 
Q 1406 481 1766 481 
L 2356 481 
L 2356 0 
L 1766 0 
Q 1100 0 847 248 
Q 594 497 594 1153 
L 594 3053 
L 172 3053 
L 172 3500 
L 594 3500 
L 594 4494 
L 1172 4494 
z
" transform="scale(0.015625)"/>
      <path id="DejaVuSans-63" d="M 3122 3366 
L 3122 2828 
Q 2878 2963 2633 3030 
Q 2388 3097 2138 3097 
Q 1578 3097 1268 2742 
Q 959 2388 959 1747 
Q 959 1106 1268 751 
Q 1578 397 2138 397 
Q 2388 397 2633 464 
Q 2878 531 3122 666 
L 3122 134 
Q 2881 22 2623 -34 
Q 2366 -91 2075 -91 
Q 1284 -91 818 406 
Q 353 903 353 1747 
Q 353 2603 823 3093 
Q 1294 3584 2113 3584 
Q 2378 3584 2631 3529 
Q 2884 3475 3122 3366 
z
" transform="scale(0.015625)"/>
     </defs>
     <use xlink:href="#DejaVuSans-50"/>
     <use xlink:href="#DejaVuSans-61" transform="translate(55.802734 0)"/>
     <use xlink:href="#DejaVuSans-6d" transform="translate(117.082031 0)"/>
     <use xlink:href="#DejaVuSans-65" transform="translate(214.494141 0)"/>
     <use xlink:href="#DejaVuSans-74" transform="translate(276.017578 0)"/>
     <use xlink:href="#DejaVuSans-6e" transform="translate(315.226562 0)"/>
     <use xlink:href="#DejaVuSans-61" transform="translate(378.605469 0)"/>
     <use xlink:href="#DejaVuSans-20" transform="translate(439.884766 0)"/>
     <use xlink:href="#DejaVuSans-10d" transform="translate(471.671875 0)"/>
     <use xlink:href="#DejaVuSans-61" transform="translate(526.652344 0)"/>
     <use xlink:href="#DejaVuSans-72" transform="translate(587.931641 0)"/>
     <use xlink:href="#DejaVuSans-6f" transform="translate(626.794922 0)"/>
     <use xlink:href="#DejaVuSans-76" transform="translate(687.976562 0)"/>
     <use xlink:href="#DejaVuSans-6e" transform="translate(747.15625 0)"/>
     <use xlink:href="#DejaVuSans-69" transform="translate(810.535156 0)"/>
     <use xlink:href="#DejaVuSans-63" transform="translate(838.318359 0)"/>
     <use xlink:href="#DejaVuSans-61" transform="translate(893.298828 0)"/>
    </g>
   </g>
   <g id="text_3">
    <!-- Modri ravnatelj -->
    <g transform="translate(295.952509 348.743362) scale(0.09 -0.09)">
     <defs>
      <path id="DejaVuSans-4d" d="M 628 4666 
L 1569 4666 
L 2759 1491 
L 3956 4666 
L 4897 4666 
L 4897 0 
L 4281 0 
L 4281 4097 
L 3078 897 
L 2444 897 
L 1241 4097 
L 1241 0 
L 628 0 
L 628 4666 
z
" transform="scale(0.015625)"/>
      <path id="DejaVuSans-64" d="M 2906 2969 
L 2906 4863 
L 3481 4863 
L 3481 0 
L 2906 0 
L 2906 525 
Q 2725 213 2448 61 
Q 2172 -91 1784 -91 
Q 1150 -91 751 415 
Q 353 922 353 1747 
Q 353 2572 751 3078 
Q 1150 3584 1784 3584 
Q 2172 3584 2448 3432 
Q 2725 3281 2906 2969 
z
M 947 1747 
Q 947 1113 1208 752 
Q 1469 391 1925 391 
Q 2381 391 2643 752 
Q 2906 1113 2906 1747 
Q 2906 2381 2643 2742 
Q 2381 3103 1925 3103 
Q 1469 3103 1208 2742 
Q 947 2381 947 1747 
z
" transform="scale(0.015625)"/>
      <path id="DejaVuSans-6c" d="M 603 4863 
L 1178 4863 
L 1178 0 
L 603 0 
L 603 4863 
z
" transform="scale(0.015625)"/>
      <path id="DejaVuSans-6a" d="M 603 3500 
L 1178 3500 
L 1178 -63 
Q 1178 -731 923 -1031 
Q 669 -1331 103 -1331 
L -116 -1331 
L -116 -844 
L 38 -844 
Q 366 -844 484 -692 
Q 603 -541 603 -63 
L 603 3500 
z
M 603 4863 
L 1178 4863 
L 1178 4134 
L 603 4134 
L 603 4863 
z
" transform="scale(0.015625)"/>
     </defs>
     <use xlink:href="#DejaVuSans-4d"/>
     <use xlink:href="#DejaVuSans-6f" transform="translate(86.279297 0)"/>
     <use xlink:href="#DejaVuSans-64" transform="translate(147.460938 0)"/>
     <use xlink:href="#DejaVuSans-72" transform="translate(210.9375 0)"/>
     <use xlink:href="#DejaVuSans-69" transform="translate(252.050781 0)"/>
     <use xlink:href="#DejaVuSans-20" transform="translate(279.833984 0)"/>
     <use xlink:href="#DejaVuSans-72" transform="translate(311.621094 0)"/>
     <use xlink:href="#DejaVuSans-61" transform="translate(352.734375 0)"/>
     <use xlink:href="#DejaVuSans-76" transform="translate(414.013672 0)"/>
     <use xlink:href="#DejaVuSans-6e" transform="translate(473.193359 0)"/>
     <use xlink:href="#DejaVuSans-61" transform="translate(536.572266 0)"/>
     <use xlink:href="#DejaVuSans-74" transform="translate(597.851562 0)"/>
     <use xlink:href="#DejaVuSans-65" transform="translate(637.060547 0)"/>
     <use xlink:href="#DejaVuSans-6c" transform="translate(698.583984 0)"/>
     <use xlink:href="#DejaVuSans-6a" transform="translate(726.367188 0)"/>
    </g>
   </g>
   <g id="text_4">
    <!-- Mladi pilot -->
    <g transform="translate(367.544659 58.478844) scale(0.09 -0.09)">
     <defs>
      <path id="DejaVuSans-70" d="M 1159 525 
L 1159 -1331 
L 581 -1331 
L 581 3500 
L 1159 3500 
L 1159 2969 
Q 1341 3281 1617 3432 
Q 1894 3584 2278 3584 
Q 2916 3584 3314 3078 
Q 3713 2572 3713 1747 
Q 3713 922 3314 415 
Q 2916 -91 2278 -91 
Q 1894 -91 1617 61 
Q 1341 213 1159 525 
z
M 3116 1747 
Q 3116 2381 2855 2742 
Q 2594 3103 2138 3103 
Q 1681 3103 1420 2742 
Q 1159 2381 1159 1747 
Q 1159 1113 1420 752 
Q 1681 391 2138 391 
Q 2594 391 2855 752 
Q 3116 1113 3116 1747 
z
" transform="scale(0.015625)"/>
     </defs>
     <use xlink:href="#DejaVuSans-4d"/>
     <use xlink:href="#DejaVuSans-6c" transform="translate(86.279297 0)"/>
     <use xlink:href="#DejaVuSans-61" transform="translate(114.0625 0)"/>
     <use xlink:href="#DejaVuSans-64" transform="translate(175.341797 0)"/>
     <use xlink:href="#DejaVuSans-69" transform="translate(238.818359 0)"/>
     <use xlink:href="#DejaVuSans-20" transform="translate(266.601562 0)"/>
     <use xlink:href="#DejaVuSans-70" transform="translate(298.388672 0)"/>
     <use xlink:href="#DejaVuSans-69" transform="translate(361.865234 0)"/>
     <use xlink:href="#DejaVuSans-6c" transform="translate(389.648438 0)"/>
     <use xlink:href="#DejaVuSans-6f" transform="translate(417.431641 0)"/>
     <use xlink:href="#DejaVuSans-74" transform="translate(478.613281 0)"/>
    </g>
   </g>
   <g id="text_5">
    <!-- Tihotapec -->
    <g transform="translate(358.462879 238.247214) scale(0.09 -0.09)">
     <defs>
      <path id="DejaVuSans-54" d="M -19 4666 
L 3928 4666 
L 3928 4134 
L 2272 4134 
L 2272 0 
L 1638 0 
L 1638 4134 
L -19 4134 
L -19 4666 
z
" transform="scale(0.015625)"/>
      <path id="DejaVuSans-68" d="M 3513 2113 
L 3513 0 
L 2938 0 
L 2938 2094 
Q 2938 2591 2744 2837 
Q 2550 3084 2163 3084 
Q 1697 3084 1428 2787 
Q 1159 2491 1159 1978 
L 1159 0 
L 581 0 
L 581 4863 
L 1159 4863 
L 1159 2956 
Q 1366 3272 1645 3428 
Q 1925 3584 2291 3584 
Q 2894 3584 3203 3211 
Q 3513 2838 3513 2113 
z
" transform="scale(0.015625)"/>
     </defs>
     <use xlink:href="#DejaVuSans-54"/>
     <use xlink:href="#DejaVuSans-69" transform="translate(57.958984 0)"/>
     <use xlink:href="#DejaVuSans-68" transform="translate(85.742188 0)"/>
     <use xlink:href="#DejaVuSans-6f" transform="translate(149.121094 0)"/>
     <use xlink:href="#DejaVuSans-74" transform="translate(210.302734 0)"/>
     <use xlink:href="#DejaVuSans-61" transform="translate(249.511719 0)"/>
     <use xlink:href="#DejaVuSans-70" transform="translate(310.791016 0)"/>
     <use xlink:href="#DejaVuSans-65" transform="translate(374.267578 0)"/>
     <use xlink:href="#DejaVuSans-63" transform="translate(435.791016 0)"/>
    </g>
   </g>
   <g id="text_6">
    <!-- Zeleni mojster -->
    <g transform="translate(164.705575 265.838794) scale(0.09 -0.09)">
     <defs>
      <path id="DejaVuSans-5a" d="M 359 4666 
L 4025 4666 
L 4025 4184 
L 1075 531 
L 4097 531 
L 4097 0 
L 288 0 
L 288 481 
L 3238 4134 
L 359 4134 
L 359 4666 
z
" transform="scale(0.015625)"/>
      <path id="DejaVuSans-73" d="M 2834 3397 
L 2834 2853 
Q 2591 2978 2328 3040 
Q 2066 3103 1784 3103 
Q 1356 3103 1142 2972 
Q 928 2841 928 2578 
Q 928 2378 1081 2264 
Q 1234 2150 1697 2047 
L 1894 2003 
Q 2506 1872 2764 1633 
Q 3022 1394 3022 966 
Q 3022 478 2636 193 
Q 2250 -91 1575 -91 
Q 1294 -91 989 -36 
Q 684 19 347 128 
L 347 722 
Q 666 556 975 473 
Q 1284 391 1588 391 
Q 1994 391 2212 530 
Q 2431 669 2431 922 
Q 2431 1156 2273 1281 
Q 2116 1406 1581 1522 
L 1381 1569 
Q 847 1681 609 1914 
Q 372 2147 372 2553 
Q 372 3047 722 3315 
Q 1072 3584 1716 3584 
Q 2034 3584 2315 3537 
Q 2597 3491 2834 3397 
z
" transform="scale(0.015625)"/>
     </defs>
     <use xlink:href="#DejaVuSans-5a"/>
     <use xlink:href="#DejaVuSans-65" transform="translate(68.505859 0)"/>
     <use xlink:href="#DejaVuSans-6c" transform="translate(130.029297 0)"/>
     <use xlink:href="#DejaVuSans-65" transform="translate(157.8125 0)"/>
     <use xlink:href="#DejaVuSans-6e" transform="translate(219.335938 0)"/>
     <use xlink:href="#DejaVuSans-69" transform="translate(282.714844 0)"/>
     <use xlink:href="#DejaVuSans-20" transform="translate(310.498047 0)"/>
     <use xlink:href="#DejaVuSans-6d" transform="translate(342.285156 0)"/>
     <use xlink:href="#DejaVuSans-6f" transform="translate(439.697266 0)"/>
     <use xlink:href="#DejaVuSans-6a" transform="translate(500.878906 0)"/>
     <use xlink:href="#DejaVuSans-73" transform="translate(528.662109 0)"/>
     <use xlink:href="#DejaVuSans-74" transform="translate(580.761719 0)"/>
     <use xlink:href="#DejaVuSans-65" transform="translate(619.970703 0)"/>
     <use xlink:href="#DejaVuSans-72" transform="translate(681.494141 0)"/>
    </g>
   </g>
   <g id="text_7">
    <!-- Nosilec prstana -->
    <g transform="translate(203.870661 199.375039) scale(0.09 -0.09)">
     <defs>
      <path id="DejaVuSans-4e" d="M 628 4666 
L 1478 4666 
L 3547 763 
L 3547 4666 
L 4159 4666 
L 4159 0 
L 3309 0 
L 1241 3903 
L 1241 0 
L 628 0 
L 628 4666 
z
" transform="scale(0.015625)"/>
     </defs>
     <use xlink:href="#DejaVuSans-4e"/>
     <use xlink:href="#DejaVuSans-6f" transform="translate(74.804688 0)"/>
     <use xlink:href="#DejaVuSans-73" transform="translate(135.986328 0)"/>
     <use xlink:href="#DejaVuSans-69" transform="translate(188.085938 0)"/>
     <use xlink:href="#DejaVuSans-6c" transform="translate(215.869141 0)"/>
     <use xlink:href="#DejaVuSans-65" transform="translate(243.652344 0)"/>
     <use xlink:href="#DejaVuSans-63" transform="translate(305.175781 0)"/>
     <use xlink:href="#DejaVuSans-20" transform="translate(360.15625 0)"/>
     <use xlink:href="#DejaVuSans-70" transform="translate(391.943359 0)"/>
     <use xlink:href="#DejaVuSans-72" transform="translate(455.419922 0)"/>
     <use xlink:href="#DejaVuSans-73" transform="translate(496.533203 0)"/>
     <use xlink:href="#DejaVuSans-74" transform="translate(548.632812 0)"/>
     <use xlink:href="#DejaVuSans-61" transform="translate(587.841797 0)"/>
     <use xlink:href="#DejaVuSans-6e" transform="translate(649.121094 0)"/>
     <use xlink:href="#DejaVuSans-61" transform="translate(712.5 0)"/>
    </g>
   </g>
   <g id="text_8">
    <!-- Sivi arovnik -->
    <g transform="translate(7.2 236.601795) scale(0.09 -0.09)">
     <defs>
      <path id="DejaVuSans-53" d="M 3425 4513 
L 3425 3897 
Q 3066 4069 2747 4153 
Q 2428 4238 2131 4238 
Q 1616 4238 1336 4038 
Q 1056 3838 1056 3469 
Q 1056 3159 1242 3001 
Q 1428 2844 1947 2747 
L 2328 2669 
Q 3034 2534 3370 2195 
Q 3706 1856 3706 1288 
Q 3706 609 3251 259 
Q 2797 -91 1919 -91 
Q 1588 -91 1214 -16 
Q 841 59 441 206 
L 441 856 
Q 825 641 1194 531 
Q 1563 422 1919 422 
Q 2459 422 2753 634 
Q 3047 847 3047 1241 
Q 3047 1584 2836 1778 
Q 2625 1972 2144 2069 
L 1759 2144 
Q 1053 2284 737 2584 
Q 422 2884 422 3419 
Q 422 4038 858 4394 
Q 1294 4750 2059 4750 
Q 2388 4750 2728 4690 
Q 3069 4631 3425 4513 
z
" transform="scale(0.015625)"/>
     </defs>
     <use xlink:href="#DejaVuSans-53"/>
     <use xlink:href="#DejaVuSans-69" transform="translate(63.476562 0)"/>
     <use xlink:href="#DejaVuSans-76" transform="translate(91.259766 0)"/>
     <use xlink:href="#DejaVuSans-69" transform="translate(150.439453 0)"/>
     <use xlink:href="#DejaVuSans-20" transform="translate(178.222656 0)"/>
     <use xlink:href="#DejaVuSans-10d" transform="translate(210.009766 0)"/>
     <use xlink:href="#DejaVuSans-61" transform="translate(264.990234 0)"/>
     <use xlink:href="#DejaVuSans-72" transform="translate(326.269531 0)"/>
     <use xlink:href="#DejaVuSans-6f" transform="translate(365.132812 0)"/>
     <use xlink:href="#DejaVuSans-76" transform="translate(426.314453 0)"/>
     <use xlink:href="#DejaVuSans-6e" transform="translate(485.494141 0)"/>
     <use xlink:href="#DejaVuSans-69" transform="translate(548.873047 0)"/>
     <use xlink:href="#DejaVuSans-6b" transform="translate(576.65625 0)"/>
    </g>
   </g>
   <g id="text_9">
    <!-- Postopa -->
    <g transform="translate(236.75135 137.989591) scale(0.09 -0.09)">
     <use xlink:href="#DejaVuSans-50"/>
     <use xlink:href="#DejaVuSans-6f" transform="translate(56.677734 0)"/>
     <use xlink:href="#DejaVuSans-73" transform="translate(117.859375 0)"/>
     <use xlink:href="#DejaVuSans-74" transform="translate(169.958984 0)"/>
     <use xlink:href="#DejaVuSans-6f" transform="translate(209.167969 0)"/>
     <use xlink:href="#DejaVuSans-70" transform="translate(270.349609 0)"/>
     <use xlink:href="#DejaVuSans-61" transform="translate(333.826172 0)"/>
     <use xlink:href="#DejaVuSans-10d" transform="translate(395.105469 0)"/>
    </g>
   </g>
   <g id="text_10">
    <!-- Vilinski lokostrelec -->
    <g transform="translate(304.064669 159.537299) scale(0.09 -0.09)">
     <defs>
      <path id="DejaVuSans-56" d="M 1831 0 
L 50 4666 
L 709 4666 
L 2188 738 
L 3669 4666 
L 4325 4666 
L 2547 0 
L 1831 0 
z
" transform="scale(0.015625)"/>
     </defs>
     <use xlink:href="#DejaVuSans-56"/>
     <use xlink:href="#DejaVuSans-69" transform="translate(66.158203 0)"/>
     <use xlink:href="#DejaVuSans-6c" transform="translate(93.941406 0)"/>
     <use xlink:href="#DejaVuSans-69" transform="translate(121.724609 0)"/>
     <use xlink:href="#DejaVuSans-6e" transform="translate(149.507812 0)"/>
     <use xlink:href="#DejaVuSans-73" transform="translate(212.886719 0)"/>
     <use xlink:href="#DejaVuSans-6b" transform="translate(264.986328 0)"/>
     <use xlink:href="#DejaVuSans-69" transform="translate(322.896484 0)"/>
     <use xlink:href="#DejaVuSans-20" transform="translate(350.679688 0)"/>
     <use xlink:href="#DejaVuSans-6c" transform="translate(382.466797 0)"/>
     <use xlink:href="#DejaVuSans-6f" transform="translate(410.25 0)"/>
     <use xlink:href="#DejaVuSans-6b" transform="translate(471.431641 0)"/>
     <use xlink:href="#DejaVuSans-6f" transform="translate(525.716797 0)"/>
     <use xlink:href="#DejaVuSans-73" transform="translate(586.898438 0)"/>
     <use xlink:href="#DejaVuSans-74" transform="translate(638.998047 0)"/>
     <use xlink:href="#DejaVuSans-72" transform="translate(678.207031 0)"/>
     <use xlink:href="#DejaVuSans-65" transform="translate(717.070312 0)"/>
     <use xlink:href="#DejaVuSans-6c" transform="translate(778.59375 0)"/>
     <use xlink:href="#DejaVuSans-65" transform="translate(806.376953 0)"/>
     <use xlink:href="#DejaVuSans-63" transform="translate(867.900391 0)"/>
    </g>
   </g>
   <g id="text_11">
    <!-- kratovski bojevnik -->
    <g transform="translate(238.323797 42.862726) scale(0.09 -0.09)">
     <defs>
      <path id="DejaVuSans-160" d="M 3425 4513 
L 3425 3897 
Q 3066 4069 2747 4153 
Q 2428 4238 2131 4238 
Q 1616 4238 1336 4038 
Q 1056 3838 1056 3469 
Q 1056 3159 1242 3001 
Q 1428 2844 1947 2747 
L 2328 2669 
Q 3034 2534 3370 2195 
Q 3706 1856 3706 1288 
Q 3706 609 3251 259 
Q 2797 -91 1919 -91 
Q 1588 -91 1214 -16 
Q 841 59 441 206 
L 441 856 
Q 825 641 1194 531 
Q 1563 422 1919 422 
Q 2459 422 2753 634 
Q 3047 847 3047 1241 
Q 3047 1584 2836 1778 
Q 2625 1972 2144 2069 
L 1759 2144 
Q 1053 2284 737 2584 
Q 422 2884 422 3419 
Q 422 4038 858 4394 
Q 1294 4750 2059 4750 
Q 2388 4750 2728 4690 
Q 3069 4631 3425 4513 
z
M 1738 5096 
L 1079 5927 
L 1513 5927 
L 2032 5371 
L 2551 5927 
L 2985 5927 
L 2326 5096 
L 1738 5096 
z
" transform="scale(0.015625)"/>
      <path id="DejaVuSans-62" d="M 3116 1747 
Q 3116 2381 2855 2742 
Q 2594 3103 2138 3103 
Q 1681 3103 1420 2742 
Q 1159 2381 1159 1747 
Q 1159 1113 1420 752 
Q 1681 391 2138 391 
Q 2594 391 2855 752 
Q 3116 1113 3116 1747 
z
M 1159 2969 
Q 1341 3281 1617 3432 
Q 1894 3584 2278 3584 
Q 2916 3584 3314 3078 
Q 3713 2572 3713 1747 
Q 3713 922 3314 415 
Q 2916 -91 2278 -91 
Q 1894 -91 1617 61 
Q 1341 213 1159 525 
L 1159 0 
L 581 0 
L 581 4863 
L 1159 4863 
L 1159 2969 
z
" transform="scale(0.015625)"/>
     </defs>
     <use xlink:href="#DejaVuSans-160"/>
     <use xlink:href="#DejaVuSans-6b" transform="translate(63.476562 0)"/>
     <use xlink:href="#DejaVuSans-72" transform="translate(121.386719 0)"/>
     <use xlink:href="#DejaVuSans-61" transform="translate(162.5 0)"/>
     <use xlink:href="#DejaVuSans-74" transform="translate(223.779297 0)"/>
     <use xlink:href="#DejaVuSans-6f" transform="translate(262.988281 0)"/>
     <use xlink:href="#DejaVuSans-76" transform="translate(324.169922 0)"/>
     <use xlink:href="#DejaVuSans-73" transform="translate(383.349609 0)"/>
     <use xlink:href="#DejaVuSans-6b" transform="translate(435.449219 0)"/>
     <use xlink:href="#DejaVuSans-69" transform="translate(493.359375 0)"/>
     <use xlink:href="#DejaVuSans-20" transform="translate(521.142578 0)"/>
     <use xlink:href="#DejaVuSans-62" transform="translate(552.929688 0)"/>
     <use xlink:href="#DejaVuSans-6f" transform="translate(616.40625 0)"/>
     <use xlink:href="#DejaVuSans-6a" transform="translate(677.587891 0)"/>
     <use xlink:href="#DejaVuSans-65" transform="translate(705.371094 0)"/>
     <use xlink:href="#DejaVuSans-76" transform="translate(766.894531 0)"/>
     <use xlink:href="#DejaVuSans-6e" transform="translate(826.074219 0)"/>
     <use xlink:href="#DejaVuSans-69" transform="translate(889.453125 0)"/>
     <use xlink:href="#DejaVuSans-6b" transform="translate(917.236328 0)"/>
    </g>
   </g>
   <g id="text_12">
    <!-- Zvesti robot -->
    <g transform="translate(221.69789 191.971564) scale(0.09 -0.09)">
     <use xlink:href="#DejaVuSans-5a"/>
     <use xlink:href="#DejaVuSans-76" transform="translate(68.505859 0)"/>
     <use xlink:href="#DejaVuSans-65" transform="translate(127.685547 0)"/>
     <use xlink:href="#DejaVuSans-73" transform="translate(189.208984 0)"/>
     <use xlink:href="#DejaVuSans-74" transform="translate(241.308594 0)"/>
     <use xlink:href="#DejaVuSans-69" transform="translate(280.517578 0)"/>
     <use xlink:href="#DejaVuSans-20" transform="translate(308.300781 0)"/>
     <use xlink:href="#DejaVuSans-72" transform="translate(340.087891 0)"/>
     <use xlink:href="#DejaVuSans-6f" transform="translate(378.951172 0)"/>
     <use xlink:href="#DejaVuSans-62" transform="translate(440.132812 0)"/>
     <use xlink:href="#DejaVuSans-6f" transform="translate(503.609375 0)"/>
     <use xlink:href="#DejaVuSans-74" transform="translate(564.791016 0)"/>
    </g>
   </g>
   <g id="text_13">
    <!-- Voditeljica upora -->
    <g transform="translate(206.193678 377.301037) scale(0.09 -0.09)">
     <defs>
      <path id="DejaVuSans-75" d="M 544 1381 
L 544 3500 
L 1119 3500 
L 1119 1403 
Q 1119 906 1312 657 
Q 1506 409 1894 409 
Q 2359 409 2629 706 
Q 2900 1003 2900 1516 
L 2900 3500 
L 3475 3500 
L 3475 0 
L 2900 0 
L 2900 538 
Q 2691 219 2414 64 
Q 2138 -91 1772 -91 
Q 1169 -91 856 284 
Q 544 659 544 1381 
z
M 1991 3584 
L 1991 3584 
z
" transform="scale(0.015625)"/>
     </defs>
     <use xlink:href="#DejaVuSans-56"/>
     <use xlink:href="#DejaVuSans-6f" transform="translate(60.658203 0)"/>
     <use xlink:href="#DejaVuSans-64" transform="translate(121.839844 0)"/>
     <use xlink:href="#DejaVuSans-69" transform="translate(185.316406 0)"/>
     <use xlink:href="#DejaVuSans-74" transform="translate(213.099609 0)"/>
     <use xlink:href="#DejaVuSans-65" transform="translate(252.308594 0)"/>
     <use xlink:href="#DejaVuSans-6c" transform="translate(313.832031 0)"/>
     <use xlink:href="#DejaVuSans-6a" transform="translate(341.615234 0)"/>
     <use xlink:href="#DejaVuSans-69" transform="translate(369.398438 0)"/>
     <use xlink:href="#DejaVuSans-63" transform="translate(397.181641 0)"/>
     <use xlink:href="#DejaVuSans-61" transform="translate(452.162109 0)"/>
     <use xlink:href="#DejaVuSans-20" transform="translate(513.441406 0)"/>
     <use xlink:href="#DejaVuSans-75" transform="translate(545.228516 0)"/>
     <use xlink:href="#DejaVuSans-70" transform="translate(608.607422 0)"/>
     <use xlink:href="#DejaVuSans-6f" transform="translate(672.083984 0)"/>
     <use xlink:href="#DejaVuSans-72" transform="translate(733.265625 0)"/>
     <use xlink:href="#DejaVuSans-61" transform="translate(774.378906 0)"/>
    </g>
   </g>
   <g id="text_14">
    <!-- Temni vitez -->
    <g transform="translate(178.940095 172.135612) scale(0.09 -0.09)">
     <defs>
      <path id="DejaVuSans-7a" d="M 353 3500 
L 3084 3500 
L 3084 2975 
L 922 459 
L 3084 459 
L 3084 0 
L 275 0 
L 275 525 
L 2438 3041 
L 353 3041 
L 353 3500 
z
" transform="scale(0.015625)"/>
     </defs>
     <use xlink:href="#DejaVuSans-54"/>
     <use xlink:href="#DejaVuSans-65" transform="translate(44.083984 0)"/>
     <use xlink:href="#DejaVuSans-6d" transform="translate(105.607422 0)"/>
     <use xlink:href="#DejaVuSans-6e" transform="translate(203.019531 0)"/>
     <use xlink:href="#DejaVuSans-69" transform="translate(266.398438 0)"/>
     <use xlink:href="#DejaVuSans-20" transform="translate(294.181641 0)"/>
     <use xlink:href="#DejaVuSans-76" transform="translate(325.96875 0)"/>
     <use xlink:href="#DejaVuSans-69" transform="translate(385.148438 0)"/>
     <use xlink:href="#DejaVuSans-74" transform="translate(412.931641 0)"/>
     <use xlink:href="#DejaVuSans-65" transform="translate(452.140625 0)"/>
     <use xlink:href="#DejaVuSans-7a" transform="translate(513.664062 0)"/>
    </g>
   </g>
   <g id="text_15">
    <!-- Zvesti prijatelj -->
    <g transform="translate(184.55368 61.905449) scale(0.09 -0.09)">
     <use xlink:href="#DejaVuSans-5a"/>
     <use xlink:href="#DejaVuSans-76" transform="translate(68.505859 0)"/>
     <use xlink:href="#DejaVuSans-65" transform="translate(127.685547 0)"/>
     <use xlink:href="#DejaVuSans-73" transform="translate(189.208984 0)"/>
     <use xlink:href="#DejaVuSans-74" transform="translate(241.308594 0)"/>
     <use xlink:href="#DejaVuSans-69" transform="translate(280.517578 0)"/>
     <use xlink:href="#DejaVuSans-20" transform="translate(308.300781 0)"/>
     <use xlink:href="#DejaVuSans-70" transform="translate(340.087891 0)"/>
     <use xlink:href="#DejaVuSans-72" transform="translate(403.564453 0)"/>
     <use xlink:href="#DejaVuSans-69" transform="translate(444.677734 0)"/>
     <use xlink:href="#DejaVuSans-6a" transform="translate(472.460938 0)"/>
     <use xlink:href="#DejaVuSans-61" transform="translate(500.244141 0)"/>
     <use xlink:href="#DejaVuSans-74" transform="translate(561.523438 0)"/>
     <use xlink:href="#DejaVuSans-65" transform="translate(600.732422 0)"/>
     <use xlink:href="#DejaVuSans-6c" transform="translate(662.255859 0)"/>
     <use xlink:href="#DejaVuSans-6a" transform="translate(690.039062 0)"/>
    </g>
   </g>
   <g id="text_16">
    <!-- Zlati robot -->
    <g transform="translate(94.410942 183.218345) scale(0.09 -0.09)">
     <use xlink:href="#DejaVuSans-5a"/>
     <use xlink:href="#DejaVuSans-6c" transform="translate(68.505859 0)"/>
     <use xlink:href="#DejaVuSans-61" transform="translate(96.289062 0)"/>
     <use xlink:href="#DejaVuSans-74" transform="translate(157.568359 0)"/>
     <use xlink:href="#DejaVuSans-69" transform="translate(196.777344 0)"/>
     <use xlink:href="#DejaVuSans-20" transform="translate(224.560547 0)"/>
     <use xlink:href="#DejaVuSans-72" transform="translate(256.347656 0)"/>
     <use xlink:href="#DejaVuSans-6f" transform="translate(295.210938 0)"/>
     <use xlink:href="#DejaVuSans-62" transform="translate(356.392578 0)"/>
     <use xlink:href="#DejaVuSans-6f" transform="translate(419.869141 0)"/>
     <use xlink:href="#DejaVuSans-74" transform="translate(481.050781 0)"/>
    </g>
   </g>
   <g id="text_17">
    <!-- Prebrisani uitelj -->
    <g transform="translate(250.699472 197.453393) scale(0.09 -0.09)">
     <use xlink:href="#DejaVuSans-50"/>
     <use xlink:href="#DejaVuSans-72" transform="translate(58.552734 0)"/>
     <use xlink:href="#DejaVuSans-65" transform="translate(97.416016 0)"/>
     <use xlink:href="#DejaVuSans-62" transform="translate(158.939453 0)"/>
     <use xlink:href="#DejaVuSans-72" transform="translate(222.416016 0)"/>
     <use xlink:href="#DejaVuSans-69" transform="translate(263.529297 0)"/>
     <use xlink:href="#DejaVuSans-73" transform="translate(291.3125 0)"/>
     <use xlink:href="#DejaVuSans-61" transform="translate(343.412109 0)"/>
     <use xlink:href="#DejaVuSans-6e" transform="translate(404.691406 0)"/>
     <use xlink:href="#DejaVuSans-69" transform="translate(468.070312 0)"/>
     <use xlink:href="#DejaVuSans-20" transform="translate(495.853516 0)"/>
     <use xlink:href="#DejaVuSans-75" transform="translate(527.640625 0)"/>
     <use xlink:href="#DejaVuSans-10d" transform="translate(591.019531 0)"/>
     <use xlink:href="#DejaVuSans-69" transform="translate(646 0)"/>
     <use xlink:href="#DejaVuSans-74" transform="translate(673.783203 0)"/>
     <use xlink:href="#DejaVuSans-65" transform="translate(712.992188 0)"/>
     <use xlink:href="#DejaVuSans-6c" transform="translate(774.515625 0)"/>
     <use xlink:href="#DejaVuSans-6a" transform="translate(802.298828 0)"/>
    </g>
   </g>
   <g id="text_18">
    <!-- Pogumna princesa -->
    <g transform="translate(92.861678 370.492376) scale(0.09 -0.09)">
     <defs>
      <path id="DejaVuSans-67" d="M 2906 1791 
Q 2906 2416 2648 2759 
Q 2391 3103 1925 3103 
Q 1463 3103 1205 2759 
Q 947 2416 947 1791 
Q 947 1169 1205 825 
Q 1463 481 1925 481 
Q 2391 481 2648 825 
Q 2906 1169 2906 1791 
z
M 3481 434 
Q 3481 -459 3084 -895 
Q 2688 -1331 1869 -1331 
Q 1566 -1331 1297 -1286 
Q 1028 -1241 775 -1147 
L 775 -588 
Q 1028 -725 1275 -790 
Q 1522 -856 1778 -856 
Q 2344 -856 2625 -561 
Q 2906 -266 2906 331 
L 2906 616 
Q 2728 306 2450 153 
Q 2172 0 1784 0 
Q 1141 0 747 490 
Q 353 981 353 1791 
Q 353 2603 747 3093 
Q 1141 3584 1784 3584 
Q 2172 3584 2450 3431 
Q 2728 3278 2906 2969 
L 2906 3500 
L 3481 3500 
L 3481 434 
z
" transform="scale(0.015625)"/>
     </defs>
     <use xlink:href="#DejaVuSans-50"/>
     <use xlink:href="#DejaVuSans-6f" transform="translate(56.677734 0)"/>
     <use xlink:href="#DejaVuSans-67" transform="translate(117.859375 0)"/>
     <use xlink:href="#DejaVuSans-75" transform="translate(181.335938 0)"/>
     <use xlink:href="#DejaVuSans-6d" transform="translate(244.714844 0)"/>
     <use xlink:href="#DejaVuSans-6e" transform="translate(342.126953 0)"/>
     <use xlink:href="#DejaVuSans-61" transform="translate(405.505859 0)"/>
     <use xlink:href="#DejaVuSans-20" transform="translate(466.785156 0)"/>
     <use xlink:href="#DejaVuSans-70" transform="translate(498.572266 0)"/>
     <use xlink:href="#DejaVuSans-72" transform="translate(562.048828 0)"/>
     <use xlink:href="#DejaVuSans-69" transform="translate(603.162109 0)"/>
     <use xlink:href="#DejaVuSans-6e" transform="translate(630.945312 0)"/>
     <use xlink:href="#DejaVuSans-63" transform="translate(694.324219 0)"/>
     <use xlink:href="#DejaVuSans-65" transform="translate(749.304688 0)"/>
     <use xlink:href="#DejaVuSans-73" transform="translate(810.828125 0)"/>
     <use xlink:href="#DejaVuSans-61" transform="translate(862.927734 0)"/>
    </g>
   </g>
   <g id="text_19">
    <!-- TU STE VI -->
    <g style="fill: #003a6e" transform="translate(266.995012 100.587378) scale(0.08 -0.08)">
     <defs>
      <path id="DejaVuSans-BoldOblique-54" d="M 488 4666 
L 4788 4666 
L 4609 3756 
L 3059 3756 
L 2328 0 
L 1125 0 
L 1856 3756 
L 306 3756 
L 488 4666 
z
" transform="scale(0.015625)"/>
      <path id="DejaVuSans-BoldOblique-55" d="M 1044 4666 
L 2247 4666 
L 1703 1872 
Q 1672 1722 1658 1606 
Q 1644 1491 1644 1403 
Q 1644 1097 1808 945 
Q 1972 794 2297 794 
Q 2734 794 2968 1039 
Q 3203 1284 3316 1869 
L 3859 4666 
L 5063 4666 
L 4519 1869 
Q 4316 838 3748 373 
Q 3181 -91 2125 -91 
Q 1297 -91 865 264 
Q 434 619 434 1294 
Q 434 1406 450 1545 
Q 466 1684 500 1869 
L 1044 4666 
z
" transform="scale(0.015625)"/>
      <path id="DejaVuSans-BoldOblique-20" transform="scale(0.015625)"/>
      <path id="DejaVuSans-BoldOblique-53" d="M 4256 4519 
L 4063 3531 
Q 3709 3706 3365 3792 
Q 3022 3878 2694 3878 
Q 2244 3878 1992 3737 
Q 1741 3597 1741 3347 
Q 1741 3188 1852 3098 
Q 1963 3009 2309 2925 
L 2803 2803 
Q 3422 2647 3711 2351 
Q 4000 2056 4000 1588 
Q 4000 828 3423 368 
Q 2847 -91 1875 -91 
Q 1422 -91 973 -6 
Q 525 78 97 244 
L 288 1259 
Q 703 1019 1095 900 
Q 1488 781 1869 781 
Q 2281 781 2539 950 
Q 2797 1119 2797 1381 
Q 2797 1553 2681 1648 
Q 2566 1744 2175 1844 
L 1684 1966 
Q 1141 2100 875 2390 
Q 609 2681 609 3144 
Q 609 3872 1167 4311 
Q 1725 4750 2669 4750 
Q 3047 4750 3445 4692 
Q 3844 4634 4256 4519 
z
" transform="scale(0.015625)"/>
      <path id="DejaVuSans-BoldOblique-45" d="M 1044 4666 
L 4288 4666 
L 4109 3756 
L 2069 3756 
L 1900 2888 
L 3822 2888 
L 3641 1978 
L 1722 1978 
L 1516 909 
L 3622 909 
L 3450 0 
L 134 0 
L 1044 4666 
z
" transform="scale(0.015625)"/>
      <path id="DejaVuSans-BoldOblique-56" d="M 488 4666 
L 1631 4666 
L 2203 1178 
L 4134 4666 
L 5375 4666 
L 2741 0 
L 1306 0 
L 488 4666 
z
" transform="scale(0.015625)"/>
      <path id="DejaVuSans-BoldOblique-49" d="M 1044 4666 
L 2247 4666 
L 1338 0 
L 134 0 
L 1044 4666 
z
" transform="scale(0.015625)"/>
     </defs>
     <use xlink:href="#DejaVuSans-BoldOblique-54"/>
     <use xlink:href="#DejaVuSans-BoldOblique-55" transform="translate(68.212891 0)"/>
     <use xlink:href="#DejaVuSans-BoldOblique-20" transform="translate(149.414062 0)"/>
     <use xlink:href="#DejaVuSans-BoldOblique-53" transform="translate(184.228516 0)"/>
     <use xlink:href="#DejaVuSans-BoldOblique-54" transform="translate(256.25 0)"/>
     <use xlink:href="#DejaVuSans-BoldOblique-45" transform="translate(324.462891 0)"/>
     <use xlink:href="#DejaVuSans-BoldOblique-20" transform="translate(392.773438 0)"/>
     <use xlink:href="#DejaVuSans-BoldOblique-56" transform="translate(427.587891 0)"/>
     <use xlink:href="#DejaVuSans-BoldOblique-49" transform="translate(504.980469 0)"/>
    </g>
   </g>
  </g>
 </g>
 <defs>
  <clipPath id="padbc49f550">
   <rect x="18.00147" y="7.2" width="390.6" height="388.08"/>
  </clipPath>
 </defs>
</svg>
