<?xml version="1.0" encoding="utf-8" standalone="no"?>
<!DOCTYPE svg PUBLIC "-//W3C//DTD SVG 1.1//EN"
  "http://www.w3.org/Graphics/SVG/1.1/DTD/svg11.dtd">
<svg xmlns:xlink="http://www.w3.org/1999/xlink" width="435.858175pt" height="402.48pt" viewBox="0 0 435.858175 402.48" xmlns="http://www.w3.org/2000/svg" version="1.1">
 <metadata>
  <rdf:RDF xmlns:dc="http://purl.org/dc/elements/1.1/" xmlns:cc="http://creativecommons.org/ns#" xmlns:rdf="http://www.w3.org/1999/02/22-rdf-syntax-ns#">
   <cc:Work>
    <dc:type rdf:resource="http://purl.org/dc/dcmitype/StillImage"/>
    <dc:date>2025-12-04T12:42:20.841722</dc:date>
    <dc:format>image/svg+xml</dc:format>
    <dc:creator>
     <cc:Agent>
      <dc:title>Matplotlib v3.10.7, https://matplotlib.org/</dc:title>
     </cc:Agent>
    </dc:creator>
   </cc:Work>
  </rdf:RDF>
 </metadata>
 <defs>
  <style type="text/css">*{stroke-linejoin: round; stroke-linecap: butt}</style>
 </defs>
 <g id="figure_1">
  <g id="patch_1">
   <path d="M 0 402.48 
L 435.858175 402.48 
L 435.858175 -0 
L 0 -0 
z
" style="fill: #ffffff"/>
  </g>
  <g id="axes_1">
   <g id="patch_2">
    <path d="M 212.578526 292.812575 
Q 203.165533 331.145923 194.109517 368.025522 
" clip-path="url(#pcef9a82a9e)" style="fill: none; stroke: #e8e8e8; stroke-width: 1.2; stroke-linecap: round"/>
    <path d="M 199.416314 361.090978 
L 194.109517 368.025522 
L 192.618269 359.421675 
z
" clip-path="url(#pcef9a82a9e)" style="fill: #e8e8e8; stroke: #e8e8e8; stroke-width: 1.2; stroke-linecap: round"/>
   </g>
   <g id="patch_3">
    <path d="M 211.916727 276.718958 
Q 201.70634 246.342946 191.972899 217.385857 
" clip-path="url(#pcef9a82a9e)" style="fill: none; stroke: #e8e8e8; stroke-width: 1.2; stroke-linecap: round"/>
    <path d="M 191.204227 226.084083 
L 191.972899 217.385857 
L 197.839416 223.853776 
z
" clip-path="url(#pcef9a82a9e)" style="fill: #e8e8e8; stroke: #e8e8e8; stroke-width: 1.2; stroke-linecap: round"/>
   </g>
   <g id="patch_4">
    <path d="M 193.752874 369.477911 
Q 203.165867 331.144563 212.221883 294.264964 
" clip-path="url(#pcef9a82a9e)" style="fill: none; stroke: #e8e8e8; stroke-width: 1.2; stroke-linecap: round"/>
    <path d="M 206.915085 301.199508 
L 212.221883 294.264964 
L 213.713131 302.868811 
z
" clip-path="url(#pcef9a82a9e)" style="fill: #e8e8e8; stroke: #e8e8e8; stroke-width: 1.2; stroke-linecap: round"/>
   </g>
   <g id="patch_5">
    <path d="M 197.514142 371.968919 
Q 246.371453 323.911899 294.161565 276.904596 
" clip-path="url(#pcef9a82a9e)" style="fill: none; stroke: #e8e8e8; stroke-width: 1.2; stroke-linecap: round"/>
    <path d="M 286.003839 280.019321 
L 294.161565 276.904596 
L 290.912546 285.009772 
z
" clip-path="url(#pcef9a82a9e)" style="fill: #e8e8e8; stroke: #e8e8e8; stroke-width: 1.2; stroke-linecap: round"/>
   </g>
   <g id="patch_6">
    <path d="M 181.077469 207.190129 
Q 109.720649 199.391234 39.851903 191.754977 
" clip-path="url(#pcef9a82a9e)" style="fill: none; stroke: #e8e8e8; stroke-width: 1.2; stroke-linecap: round"/>
    <path d="M 47.42428 196.103437 
L 39.851903 191.754977 
L 48.184811 189.144874 
z
" clip-path="url(#pcef9a82a9e)" style="fill: #e8e8e8; stroke: #e8e8e8; stroke-width: 1.2; stroke-linecap: round"/>
   </g>
   <g id="patch_7">
    <path d="M 196.232204 205.422109 
Q 204.101872 202.641321 210.560127 200.359262 
" clip-path="url(#pcef9a82a9e)" style="fill: none; stroke: #e8e8e8; stroke-width: 1.2; stroke-linecap: round"/>
    <path d="M 201.851099 199.724563 
L 210.560127 200.359262 
L 204.183271 206.324637 
z
" clip-path="url(#pcef9a82a9e)" style="fill: #e8e8e8; stroke: #e8e8e8; stroke-width: 1.2; stroke-linecap: round"/>
   </g>
   <g id="patch_8">
    <path d="M 380.364336 93.987524 
Q 300.142133 186.249915 220.902145 277.382674 
" clip-path="url(#pcef9a82a9e)" style="fill: none; stroke: #e8e8e8; stroke-width: 1.2; stroke-linecap: round"/>
    <path d="M 228.792556 273.642165 
L 220.902145 277.382674 
L 223.510148 269.049109 
z
" clip-path="url(#pcef9a82a9e)" style="fill: #e8e8e8; stroke: #e8e8e8; stroke-width: 1.2; stroke-linecap: round"/>
   </g>
   <g id="patch_9">
    <path d="M 385.143228 96.270222 
Q 381.935762 144.598506 378.827426 191.433139 
" clip-path="url(#pcef9a82a9e)" style="fill: none; stroke: #e8e8e8; stroke-width: 1.2; stroke-linecap: round"/>
    <path d="M 382.849524 183.68248 
L 378.827426 191.433139 
L 375.86489 183.218921 
z
" clip-path="url(#pcef9a82a9e)" style="fill: #e8e8e8; stroke: #e8e8e8; stroke-width: 1.2; stroke-linecap: round"/>
   </g>
   <g id="patch_10">
    <path d="M 378.728118 192.929457 
Q 381.935585 144.601174 385.04392 97.76654 
" clip-path="url(#pcef9a82a9e)" style="fill: none; stroke: #e8e8e8; stroke-width: 1.2; stroke-linecap: round"/>
    <path d="M 381.021822 105.5172 
L 385.04392 97.76654 
L 388.006456 105.980758 
z
" clip-path="url(#pcef9a82a9e)" style="fill: #e8e8e8; stroke: #e8e8e8; stroke-width: 1.2; stroke-linecap: round"/>
   </g>
   <g id="patch_11">
    <path d="M 372.257811 195.863562 
Q 329.678225 156.336824 288.19573 117.828519 
" clip-path="url(#pcef9a82a9e)" style="fill: none; stroke: #e8e8e8; stroke-width: 1.2; stroke-linecap: round"/>
    <path d="M 291.677656 125.836402 
L 288.19573 117.828519 
L 296.440073 120.70616 
z
" clip-path="url(#pcef9a82a9e)" style="fill: #e8e8e8; stroke: #e8e8e8; stroke-width: 1.2; stroke-linecap: round"/>
   </g>
   <g id="patch_12">
    <path d="M 372.160181 206.710586 
Q 339.580645 235.768521 308.118257 263.830065 
" clip-path="url(#pcef9a82a9e)" style="fill: none; stroke: #e8e8e8; stroke-width: 1.2; stroke-linecap: round"/>
    <path d="M 316.418249 261.117107 
L 308.118257 263.830065 
L 311.758899 255.89308 
z
" clip-path="url(#pcef9a82a9e)" style="fill: #e8e8e8; stroke: #e8e8e8; stroke-width: 1.2; stroke-linecap: round"/>
   </g>
   <g id="patch_13">
    <path d="M 248.325282 202.738157 
Q 234.191566 185.416334 221.004213 169.254343 
" clip-path="url(#pcef9a82a9e)" style="fill: none; stroke: #e8e8e8; stroke-width: 1.2; stroke-linecap: round"/>
    <path d="M 223.350003 177.665483 
L 221.004213 169.254343 
L 228.773635 173.240078 
z
" clip-path="url(#pcef9a82a9e)" style="fill: #e8e8e8; stroke: #e8e8e8; stroke-width: 1.2; stroke-linecap: round"/>
   </g>
   <g id="patch_14">
    <path d="M 246.88638 213.541784 
Q 237.370857 220.007909 229.093458 225.632686 
" clip-path="url(#pcef9a82a9e)" style="fill: none; stroke: #e8e8e8; stroke-width: 1.2; stroke-linecap: round"/>
    <path d="M 237.677466 224.031182 
L 229.093458 225.632686 
L 233.743139 218.241443 
z
" clip-path="url(#pcef9a82a9e)" style="fill: #e8e8e8; stroke: #e8e8e8; stroke-width: 1.2; stroke-linecap: round"/>
   </g>
   <g id="patch_15">
    <path d="M 220.059343 168.096341 
Q 234.19306 185.418164 247.380412 201.580155 
" clip-path="url(#pcef9a82a9e)" style="fill: none; stroke: #e8e8e8; stroke-width: 1.2; stroke-linecap: round"/>
    <path d="M 245.034623 193.169015 
L 247.380412 201.580155 
L 239.61099 197.59442 
z
" clip-path="url(#pcef9a82a9e)" style="fill: #e8e8e8; stroke: #e8e8e8; stroke-width: 1.2; stroke-linecap: round"/>
   </g>
   <g id="patch_16">
    <path d="M 210.844998 168.973759 
Q 201.867479 184.904043 193.624889 199.530221 
" clip-path="url(#pcef9a82a9e)" style="fill: none; stroke: #e8e8e8; stroke-width: 1.2; stroke-linecap: round"/>
    <path d="M 200.601684 194.279094 
L 193.624889 199.530221 
L 194.503395 190.8424 
z
" clip-path="url(#pcef9a82a9e)" style="fill: #e8e8e8; stroke: #e8e8e8; stroke-width: 1.2; stroke-linecap: round"/>
   </g>
   <g id="patch_17">
    <path d="M 213.61904 153.447047 
Q 204.356693 93.306869 195.322206 34.646182 
" clip-path="url(#pcef9a82a9e)" style="fill: none; stroke: #e8e8e8; stroke-width: 1.2; stroke-linecap: round"/>
    <path d="M 193.080735 43.085721 
L 195.322206 34.646182 
L 199.999164 42.020195 
z
" clip-path="url(#pcef9a82a9e)" style="fill: #e8e8e8; stroke: #e8e8e8; stroke-width: 1.2; stroke-linecap: round"/>
   </g>
   <g id="patch_18">
    <path d="M 213.86575 233.612083 
Q 187.716968 243.00598 162.976972 251.893775 
" clip-path="url(#pcef9a82a9e)" style="fill: none; stroke: #e8e8e8; stroke-width: 1.2; stroke-linecap: round"/>
    <path d="M 171.6892 252.482926 
L 162.976972 251.893775 
L 169.322549 245.895137 
z
" clip-path="url(#pcef9a82a9e)" style="fill: #e8e8e8; stroke: #e8e8e8; stroke-width: 1.2; stroke-linecap: round"/>
   </g>
   <g id="patch_19">
    <path d="M 224.976225 223.536981 
Q 251.223598 171.136364 276.800559 120.074166 
" clip-path="url(#pcef9a82a9e)" style="fill: none; stroke: #e8e8e8; stroke-width: 1.2; stroke-linecap: round"/>
    <path d="M 270.088342 125.659516 
L 276.800559 120.074166 
L 276.347082 128.794508 
z
" clip-path="url(#pcef9a82a9e)" style="fill: #e8e8e8; stroke: #e8e8e8; stroke-width: 1.2; stroke-linecap: round"/>
   </g>
   <g id="patch_20">
    <path d="M 295.226664 275.856943 
Q 246.369354 323.913964 198.579242 370.921267 
" clip-path="url(#pcef9a82a9e)" style="fill: none; stroke: #e8e8e8; stroke-width: 1.2; stroke-linecap: round"/>
    <path d="M 206.736967 367.806542 
L 198.579242 370.921267 
L 201.828261 362.816091 
z
" clip-path="url(#pcef9a82a9e)" style="fill: #e8e8e8; stroke: #e8e8e8; stroke-width: 1.2; stroke-linecap: round"/>
   </g>
   <g id="patch_21">
    <path d="M 294.060719 266.345161 
Q 244.911636 239.111816 197.07192 212.603988 
" clip-path="url(#pcef9a82a9e)" style="fill: none; stroke: #e8e8e8; stroke-width: 1.2; stroke-linecap: round"/>
    <path d="M 202.373172 219.542773 
L 197.07192 212.603988 
L 205.765844 213.419884 
z
" clip-path="url(#pcef9a82a9e)" style="fill: #e8e8e8; stroke: #e8e8e8; stroke-width: 1.2; stroke-linecap: round"/>
   </g>
   <g id="patch_22">
    <path d="M 303.011542 278.342156 
Q 313.250416 319.697523 323.129538 359.599827 
" clip-path="url(#pcef9a82a9e)" style="fill: none; stroke: #e8e8e8; stroke-width: 1.2; stroke-linecap: round"/>
    <path d="M 324.604347 350.993147 
L 323.129538 359.599827 
L 317.809503 352.675433 
z
" clip-path="url(#pcef9a82a9e)" style="fill: #e8e8e8; stroke: #e8e8e8; stroke-width: 1.2; stroke-linecap: round"/>
   </g>
   <g id="patch_23">
    <path d="M 148.68506 249.075741 
Q 134.131904 233.233085 120.591425 218.492835 
" clip-path="url(#pcef9a82a9e)" style="fill: none; stroke: #e8e8e8; stroke-width: 1.2; stroke-linecap: round"/>
    <path d="M 123.425878 226.752125 
L 120.591425 218.492835 
L 128.580975 222.016623 
z
" clip-path="url(#pcef9a82a9e)" style="fill: #e8e8e8; stroke: #e8e8e8; stroke-width: 1.2; stroke-linecap: round"/>
   </g>
   <g id="patch_24">
    <path d="M 153.623329 246.631592 
Q 150.755267 203.044002 147.985491 160.950118 
" clip-path="url(#pcef9a82a9e)" style="fill: none; stroke: #e8e8e8; stroke-width: 1.2; stroke-linecap: round"/>
    <path d="M 145.018307 169.162658 
L 147.985491 160.950118 
L 152.003202 168.703052 
z
" clip-path="url(#pcef9a82a9e)" style="fill: #e8e8e8; stroke: #e8e8e8; stroke-width: 1.2; stroke-linecap: round"/>
   </g>
   <g id="patch_25">
    <path d="M 147.395716 259.193473 
Q 104.247738 285.523897 62.377565 311.074558 
" clip-path="url(#pcef9a82a9e)" style="fill: none; stroke: #e8e8e8; stroke-width: 1.2; stroke-linecap: round"/>
    <path d="M 71.029649 309.894963 
L 62.377565 311.074558 
L 67.38331 303.919663 
z
" clip-path="url(#pcef9a82a9e)" style="fill: #e8e8e8; stroke: #e8e8e8; stroke-width: 1.2; stroke-linecap: round"/>
   </g>
   <g id="patch_26">
    <path d="M 147.887212 159.45652 
Q 150.755274 203.04411 153.52505 245.137994 
" clip-path="url(#pcef9a82a9e)" style="fill: none; stroke: #e8e8e8; stroke-width: 1.2; stroke-linecap: round"/>
    <path d="M 156.492234 236.925454 
L 153.52505 245.137994 
L 149.507338 237.38506 
z
" clip-path="url(#pcef9a82a9e)" style="fill: #e8e8e8; stroke: #e8e8e8; stroke-width: 1.2; stroke-linecap: round"/>
   </g>
   <g id="patch_27">
    <path d="M 152.153581 157.655152 
Q 168.081816 179.535387 183.129041 200.2054 
" clip-path="url(#pcef9a82a9e)" style="fill: none; stroke: #e8e8e8; stroke-width: 1.2; stroke-linecap: round"/>
    <path d="M 181.250335 191.67777 
L 183.129041 200.2054 
L 175.59107 195.797566 
z
" clip-path="url(#pcef9a82a9e)" style="fill: #e8e8e8; stroke: #e8e8e8; stroke-width: 1.2; stroke-linecap: round"/>
   </g>
   <g id="patch_28">
    <path d="M 60.575819 310.970492 
Q 121.576554 262.013349 181.409841 213.99316 
" clip-path="url(#pcef9a82a9e)" style="fill: none; stroke: #e8e8e8; stroke-width: 1.2; stroke-linecap: round"/>
    <path d="M 172.980007 216.270858 
L 181.409841 213.99316 
L 177.361411 221.730098 
z
" clip-path="url(#pcef9a82a9e)" style="fill: #e8e8e8; stroke: #e8e8e8; stroke-width: 1.2; stroke-linecap: round"/>
   </g>
   <g id="patch_29">
    <path d="M 52.752764 307.722815 
Q 42.46463 253.368666 32.454893 200.485338 
" clip-path="url(#pcef9a82a9e)" style="fill: none; stroke: #e8e8e8; stroke-width: 1.2; stroke-linecap: round"/>
    <path d="M 30.503773 208.996691 
L 32.454893 200.485338 
L 37.381652 207.694849 
z
" clip-path="url(#pcef9a82a9e)" style="fill: #e8e8e8; stroke: #e8e8e8; stroke-width: 1.2; stroke-linecap: round"/>
   </g>
   <g id="patch_30">
    <path d="M 275.799184 117.415961 
Q 217.681169 183.188028 160.554363 247.838347 
" clip-path="url(#pcef9a82a9e)" style="fill: none; stroke: #e8e8e8; stroke-width: 1.2; stroke-linecap: round"/>
    <path d="M 168.474405 244.160991 
L 160.554363 247.838347 
L 163.228858 239.525881 
z
" clip-path="url(#pcef9a82a9e)" style="fill: #e8e8e8; stroke: #e8e8e8; stroke-width: 1.2; stroke-linecap: round"/>
   </g>
   <g id="patch_31">
    <path d="M 277.469208 118.739267 
Q 251.221835 171.139883 225.644873 222.202082 
" clip-path="url(#pcef9a82a9e)" style="fill: none; stroke: #e8e8e8; stroke-width: 1.2; stroke-linecap: round"/>
    <path d="M 232.357091 216.616732 
L 225.644873 222.202082 
L 226.098351 213.48174 
z
" clip-path="url(#pcef9a82a9e)" style="fill: #e8e8e8; stroke: #e8e8e8; stroke-width: 1.2; stroke-linecap: round"/>
   </g>
   <g id="patch_32">
    <path d="M 287.096571 116.808166 
Q 329.676157 156.334904 371.158651 194.84321 
" clip-path="url(#pcef9a82a9e)" style="fill: none; stroke: #e8e8e8; stroke-width: 1.2; stroke-linecap: round"/>
    <path d="M 367.676726 186.835326 
L 371.158651 194.84321 
L 362.914309 191.965569 
z
" clip-path="url(#pcef9a82a9e)" style="fill: #e8e8e8; stroke: #e8e8e8; stroke-width: 1.2; stroke-linecap: round"/>
   </g>
   <g id="patch_33">
    <path d="M 38.364387 191.5924 
Q 109.721207 199.391295 179.589953 207.027552 
" clip-path="url(#pcef9a82a9e)" style="fill: none; stroke: #e8e8e8; stroke-width: 1.2; stroke-linecap: round"/>
    <path d="M 172.017576 202.679092 
L 179.589953 207.027552 
L 171.257045 209.637655 
z
" clip-path="url(#pcef9a82a9e)" style="fill: #e8e8e8; stroke: #e8e8e8; stroke-width: 1.2; stroke-linecap: round"/>
   </g>
   <g id="patch_34">
    <path d="M 34.692868 183.555417 
Q 62.886837 133.892854 90.341768 85.532075 
" clip-path="url(#pcef9a82a9e)" style="fill: none; stroke: #e8e8e8; stroke-width: 1.2; stroke-linecap: round"/>
    <path d="M 83.348457 90.761186 
L 90.341768 85.532075 
L 89.435885 94.217084 
z
" clip-path="url(#pcef9a82a9e)" style="fill: #e8e8e8; stroke: #e8e8e8; stroke-width: 1.2; stroke-linecap: round"/>
   </g>
   <g id="patch_35">
    <path d="M 38.126431 192.953067 
Q 165.800964 230.465223 292.039269 267.5554 
" clip-path="url(#pcef9a82a9e)" style="fill: none; stroke: #e8e8e8; stroke-width: 1.2; stroke-linecap: round"/>
    <path d="M 285.350341 261.942179 
L 292.039269 267.5554 
L 283.377074 268.658295 
z
" clip-path="url(#pcef9a82a9e)" style="fill: #e8e8e8; stroke: #e8e8e8; stroke-width: 1.2; stroke-linecap: round"/>
   </g>
   <g id="patch_36">
    <path d="M 212.678101 192.945664 
Q 183.354913 174.13772 155.291749 156.137958 
" clip-path="url(#pcef9a82a9e)" style="fill: none; stroke: #e8e8e8; stroke-width: 1.2; stroke-linecap: round"/>
    <path d="M 160.136015 163.403156 
L 155.291749 156.137958 
L 163.915248 157.511009 
z
" clip-path="url(#pcef9a82a9e)" style="fill: #e8e8e8; stroke: #e8e8e8; stroke-width: 1.2; stroke-linecap: round"/>
   </g>
   <g id="patch_37">
    <path d="M 213.574695 191.627399 
Q 157.270593 137.145867 102.042252 83.705275 
" clip-path="url(#pcef9a82a9e)" style="fill: none; stroke: #e8e8e8; stroke-width: 1.2; stroke-linecap: round"/>
    <path d="M 105.357562 91.783562 
L 102.042252 83.705275 
L 110.225221 86.753065 
z
" clip-path="url(#pcef9a82a9e)" style="fill: #e8e8e8; stroke: #e8e8e8; stroke-width: 1.2; stroke-linecap: round"/>
   </g>
   <g id="patch_38">
    <path d="M 102.156272 73.342997 
Q 144.485074 50.943139 185.490778 29.243447 
" clip-path="url(#pcef9a82a9e)" style="fill: none; stroke: #e8e8e8; stroke-width: 1.2; stroke-linecap: round"/>
    <path d="M 176.782754 29.891763 
L 185.490778 29.243447 
L 180.056883 36.078853 
z
" clip-path="url(#pcef9a82a9e)" style="fill: #e8e8e8; stroke: #e8e8e8; stroke-width: 1.2; stroke-linecap: round"/>
   </g>
   <g id="patch_39">
    <path d="M 100.330081 83.356145 
Q 158.211412 154.002332 215.144043 223.490597 
" clip-path="url(#pcef9a82a9e)" style="fill: none; stroke: #e8e8e8; stroke-width: 1.2; stroke-linecap: round"/>
    <path d="M 212.781298 215.084204 
L 215.144043 223.490597 
L 207.3666 219.520536 
z
" clip-path="url(#pcef9a82a9e)" style="fill: #e8e8e8; stroke: #e8e8e8; stroke-width: 1.2; stroke-linecap: round"/>
   </g>
   <g id="patch_40">
    <path d="M 196.39262 32.807233 
Q 223.647476 116.949744 250.441051 199.668164 
" clip-path="url(#pcef9a82a9e)" style="fill: none; stroke: #e8e8e8; stroke-width: 1.2; stroke-linecap: round"/>
    <path d="M 251.305527 190.978937 
L 250.441051 199.668164 
L 244.646164 193.135991 
z
" clip-path="url(#pcef9a82a9e)" style="fill: #e8e8e8; stroke: #e8e8e8; stroke-width: 1.2; stroke-linecap: round"/>
   </g>
   <g id="patch_41">
    <path d="M 190.22202 32.332892 
Q 124.06425 170.417953 58.553274 307.153024 
" clip-path="url(#pcef9a82a9e)" style="fill: none; stroke: #e8e8e8; stroke-width: 1.2; stroke-linecap: round"/>
    <path d="M 65.166323 301.450605 
L 58.553274 307.153024 
L 58.853469 298.426061 
z
" clip-path="url(#pcef9a82a9e)" style="fill: #e8e8e8; stroke: #e8e8e8; stroke-width: 1.2; stroke-linecap: round"/>
   </g>
   <g id="patch_42">
    <path d="M 318.878432 364.789818 
Q 239.844029 312.131735 162.05538 260.303659 
" clip-path="url(#pcef9a82a9e)" style="fill: none; stroke: #e8e8e8; stroke-width: 1.2; stroke-linecap: round"/>
    <path d="M 166.772361 267.652134 
L 162.05538 260.303659 
L 170.653654 261.82671 
z
" clip-path="url(#pcef9a82a9e)" style="fill: #e8e8e8; stroke: #e8e8e8; stroke-width: 1.2; stroke-linecap: round"/>
   </g>
   <g id="patch_43">
    <path d="M 320.583445 362.675982 
Q 273.385452 300.082993 227.088713 238.685228 
" clip-path="url(#pcef9a82a9e)" style="fill: none; stroke: #e8e8e8; stroke-width: 1.2; stroke-linecap: round"/>
    <path d="M 229.110674 247.180031 
L 227.088713 238.685228 
L 234.699801 242.965572 
z
" clip-path="url(#pcef9a82a9e)" style="fill: #e8e8e8; stroke: #e8e8e8; stroke-width: 1.2; stroke-linecap: round"/>
   </g>
   <g id="patch_44">
    <path d="M 323.488738 361.050657 
Q 313.249863 319.69529 303.370742 279.792986 
" clip-path="url(#pcef9a82a9e)" style="fill: none; stroke: #e8e8e8; stroke-width: 1.2; stroke-linecap: round"/>
    <path d="M 301.895933 288.399666 
L 303.370742 279.792986 
L 308.690777 286.71738 
z
" clip-path="url(#pcef9a82a9e)" style="fill: #e8e8e8; stroke: #e8e8e8; stroke-width: 1.2; stroke-linecap: round"/>
   </g>
   <g id="PathCollection_1">
    <defs>
     <path id="m0f33abbe67" d="M 0 9.195587 
C 2.438698 9.195587 4.777842 8.226682 6.502262 6.502262 
C 8.226682 4.777842 9.195587 2.438698 9.195587 0 
C 9.195587 -2.438698 8.226682 -4.777842 6.502262 -6.502262 
C 4.777842 -8.226682 2.438698 -9.195587 0 -9.195587 
C -2.438698 -9.195587 -4.777842 -8.226682 -6.502262 -6.502262 
C -8.226682 -4.777842 -9.195587 -2.438698 -9.195587 0 
C -9.195587 2.438698 -8.226682 4.777842 -6.502262 6.502262 
C -4.777842 8.226682 -2.438698 9.195587 0 9.195587 
z
" style="stroke: #f9d6a1; stroke-width: 0.5"/>
    </defs>
    <g clip-path="url(#pcef9a82a9e)">
     <use xlink:href="#m0f33abbe67" x="214.582778" y="284.650486" style="fill: #f9d6a1; stroke: #f9d6a1; stroke-width: 0.5"/>
    </g>
   </g>
   <g id="PathCollection_2">
    <defs>
     <path id="md2d55939e7" d="M 0 8.531947 
C 2.262699 8.531947 4.433028 7.632967 6.032997 6.032997 
C 7.632967 4.433028 8.531947 2.262699 8.531947 0 
C 8.531947 -2.262699 7.632967 -4.433028 6.032997 -6.032997 
C 4.433028 -7.632967 2.262699 -8.531947 0 -8.531947 
C -2.262699 -8.531947 -4.433028 -7.632967 -6.032997 -6.032997 
C -7.632967 -4.433028 -8.531947 -2.262699 -8.531947 0 
C -8.531947 2.262699 -7.632967 4.433028 -6.032997 6.032997 
C -4.433028 7.632967 -2.262699 8.531947 0 8.531947 
z
" style="stroke: #f9dbad; stroke-width: 0.5"/>
    </defs>
    <g clip-path="url(#pcef9a82a9e)">
     <use xlink:href="#md2d55939e7" x="385.702159" y="87.848572" style="fill: #f9dbad; stroke: #f9dbad; stroke-width: 0.5"/>
    </g>
   </g>
   <g id="PathCollection_3">
    <defs>
     <path id="m6498449b38" d="M 0 9.195587 
C 2.438698 9.195587 4.777842 8.226682 6.502262 6.502262 
C 8.226682 4.777842 9.195587 2.438698 9.195587 0 
C 9.195587 -2.438698 8.226682 -4.777842 6.502262 -6.502262 
C 4.777842 -8.226682 2.438698 -9.195587 0 -9.195587 
C -2.438698 -9.195587 -4.777842 -8.226682 -6.502262 -6.502262 
C -8.226682 -4.777842 -9.195587 -2.438698 -9.195587 0 
C -9.195587 2.438698 -8.226682 4.777842 -6.502262 6.502262 
C -4.777842 8.226682 -2.438698 9.195587 0 9.195587 
z
" style="stroke: #f9ca86; stroke-width: 0.5"/>
    </defs>
    <g clip-path="url(#pcef9a82a9e)">
     <use xlink:href="#m6498449b38" x="253.48293" y="209.059202" style="fill: #f9ca86; stroke: #f9ca86; stroke-width: 0.5"/>
    </g>
   </g>
   <g id="PathCollection_4">
    <defs>
     <path id="mcb86f13f17" d="M 0 9.195587 
C 2.438698 9.195587 4.777842 8.226682 6.502262 6.502262 
C 8.226682 4.777842 9.195587 2.438698 9.195587 0 
C 9.195587 -2.438698 8.226682 -4.777842 6.502262 -6.502262 
C 4.777842 -8.226682 2.438698 -9.195587 0 -9.195587 
C -2.438698 -9.195587 -4.777842 -8.226682 -6.502262 -6.502262 
C -8.226682 -4.777842 -9.195587 -2.438698 -9.195587 0 
C -9.195587 2.438698 -8.226682 4.777842 -6.502262 6.502262 
C -4.777842 8.226682 -2.438698 9.195587 0 9.195587 
z
" style="stroke: #f9d59f; stroke-width: 0.5"/>
    </defs>
    <g clip-path="url(#pcef9a82a9e)">
     <use xlink:href="#mcb86f13f17" x="191.748622" y="377.64" style="fill: #f9d59f; stroke: #f9d59f; stroke-width: 0.5"/>
    </g>
   </g>
   <g id="PathCollection_5">
    <defs>
     <path id="m773150ed04" d="M 0 10.947737 
C 2.903374 10.947737 5.688224 9.794214 7.741219 7.741219 
C 9.794214 5.688224 10.947737 2.903374 10.947737 0 
C 10.947737 -2.903374 9.794214 -5.688224 7.741219 -7.741219 
C 5.688224 -9.794214 2.903374 -10.947737 0 -10.947737 
C -2.903374 -10.947737 -5.688224 -9.794214 -7.741219 -7.741219 
C -9.794214 -5.688224 -10.947737 -2.903374 -10.947737 0 
C -10.947737 2.903374 -9.794214 5.688224 -7.741219 7.741219 
C -5.688224 9.794214 -2.903374 10.947737 0 10.947737 
z
" style="stroke: #f9ba62; stroke-width: 0.5"/>
    </defs>
    <g clip-path="url(#pcef9a82a9e)">
     <use xlink:href="#m773150ed04" x="154.177584" y="255.054937" style="fill: #f9ba62; stroke: #f9ba62; stroke-width: 0.5"/>
    </g>
   </g>
   <g id="PathCollection_6">
    <defs>
     <path id="m5dec54b602" d="M 0 9.814455 
C 2.602824 9.814455 5.099393 8.780342 6.939868 6.939868 
C 8.780342 5.099393 9.814455 2.602824 9.814455 0 
C 9.814455 -2.602824 8.780342 -5.099393 6.939868 -6.939868 
C 5.099393 -8.780342 2.602824 -9.814455 0 -9.814455 
C -2.602824 -9.814455 -5.099393 -8.780342 -6.939868 -6.939868 
C -8.780342 -5.099393 -9.814455 -2.602824 -9.814455 0 
C -9.814455 2.602824 -8.780342 5.099393 -6.939868 6.939868 
C -5.099393 8.780342 -2.602824 9.814455 0 9.814455 
z
" style="stroke: #f9bb63; stroke-width: 0.5"/>
    </defs>
    <g clip-path="url(#pcef9a82a9e)">
     <use xlink:href="#m5dec54b602" x="281.185194" y="111.320621" style="fill: #f9bb63; stroke: #f9bb63; stroke-width: 0.5"/>
    </g>
   </g>
   <g id="PathCollection_7">
    <defs>
     <path id="mb2e1346694" d="M 0 9.195587 
C 2.438698 9.195587 4.777842 8.226682 6.502262 6.502262 
C 8.226682 4.777842 9.195587 2.438698 9.195587 0 
C 9.195587 -2.438698 8.226682 -4.777842 6.502262 -6.502262 
C 4.777842 -8.226682 2.438698 -9.195587 0 -9.195587 
C -2.438698 -9.195587 -4.777842 -8.226682 -6.502262 -6.502262 
C -8.226682 -4.777842 -9.195587 -2.438698 -9.195587 0 
C -9.195587 2.438698 -8.226682 4.777842 -6.502262 6.502262 
C -4.777842 8.226682 -2.438698 9.195587 0 9.195587 
z
" style="stroke: #f9d49d; stroke-width: 0.5"/>
    </defs>
    <g clip-path="url(#pcef9a82a9e)">
     <use xlink:href="#mb2e1346694" x="147.332956" y="151.033175" style="fill: #f9d49d; stroke: #f9d49d; stroke-width: 0.5"/>
    </g>
   </g>
   <g id="PathCollection_8">
    <defs>
     <path id="m5df208e066" d="M 0 9.195587 
C 2.438698 9.195587 4.777842 8.226682 6.502262 6.502262 
C 8.226682 4.777842 9.195587 2.438698 9.195587 0 
C 9.195587 -2.438698 8.226682 -4.777842 6.502262 -6.502262 
C 4.777842 -8.226682 2.438698 -9.195587 0 -9.195587 
C -2.438698 -9.195587 -4.777842 -8.226682 -6.502262 -6.502262 
C -8.226682 -4.777842 -9.195587 -2.438698 -9.195587 0 
C -9.195587 2.438698 -8.226682 4.777842 -6.502262 6.502262 
C -4.777842 8.226682 -2.438698 9.195587 0 9.195587 
z
" style="stroke: #f9c172; stroke-width: 0.5"/>
    </defs>
    <g clip-path="url(#pcef9a82a9e)">
     <use xlink:href="#m5df208e066" x="54.318091" y="315.992734" style="fill: #f9c172; stroke: #f9c172; stroke-width: 0.5"/>
    </g>
   </g>
   <g id="PathCollection_9">
    <defs>
     <path id="m3c0b9b3d6a" d="M 0 11.472473 
C 3.042536 11.472473 5.960866 10.263661 8.112264 8.112264 
C 10.263661 5.960866 11.472473 3.042536 11.472473 0 
C 11.472473 -3.042536 10.263661 -5.960866 8.112264 -8.112264 
C 5.960866 -10.263661 3.042536 -11.472473 0 -11.472473 
C -3.042536 -11.472473 -5.960866 -10.263661 -8.112264 -8.112264 
C -10.263661 -5.960866 -11.472473 -3.042536 -11.472473 0 
C -11.472473 3.042536 -10.263661 5.960866 -8.112264 8.112264 
C -5.960866 10.263661 -3.042536 11.472473 0 11.472473 
z
" style="stroke: #f9a22b; stroke-width: 0.5"/>
    </defs>
    <g clip-path="url(#pcef9a82a9e)">
     <use xlink:href="#m3c0b9b3d6a" x="188.830606" y="208.037503" style="fill: #f9a22b; stroke: #f9a22b; stroke-width: 0.5"/>
    </g>
   </g>
   <g id="PathCollection_10">
    <defs>
     <path id="m0e7567af12" d="M 0 9.195587 
C 2.438698 9.195587 4.777842 8.226682 6.502262 6.502262 
C 8.226682 4.777842 9.195587 2.438698 9.195587 0 
C 9.195587 -2.438698 8.226682 -4.777842 6.502262 -6.502262 
C 4.777842 -8.226682 2.438698 -9.195587 0 -9.195587 
C -2.438698 -9.195587 -4.777842 -8.226682 -6.502262 -6.502262 
C -8.226682 -4.777842 -9.195587 -2.438698 -9.195587 0 
C -9.195587 2.438698 -8.226682 4.777842 -6.502262 6.502262 
C -4.777842 8.226682 -2.438698 9.195587 0 9.195587 
z
" style="stroke: #f9a83a; stroke-width: 0.5"/>
    </defs>
    <g clip-path="url(#pcef9a82a9e)">
     <use xlink:href="#m0e7567af12" x="95.159688" y="77.0455" style="fill: #f9a83a; stroke: #f9a83a; stroke-width: 0.5"/>
    </g>
   </g>
   <g id="PathCollection_11">
    <defs>
     <path id="m31794cff4a" d="M 0 9.195587 
C 2.438698 9.195587 4.777842 8.226682 6.502262 6.502262 
C 8.226682 4.777842 9.195587 2.438698 9.195587 0 
C 9.195587 -2.438698 8.226682 -4.777842 6.502262 -6.502262 
C 4.777842 -8.226682 2.438698 -9.195587 0 -9.195587 
C -2.438698 -9.195587 -4.777842 -8.226682 -6.502262 -6.502262 
C -8.226682 -4.777842 -9.195587 -2.438698 -9.195587 0 
C -9.195587 2.438698 -8.226682 4.777842 -6.502262 6.502262 
C -4.777842 8.226682 -2.438698 9.195587 0 9.195587 
z
" style="stroke: #f9daab; stroke-width: 0.5"/>
    </defs>
    <g clip-path="url(#pcef9a82a9e)">
     <use xlink:href="#m31794cff4a" x="214.901695" y="161.775296" style="fill: #f9daab; stroke: #f9daab; stroke-width: 0.5"/>
    </g>
   </g>
   <g id="PathCollection_12">
    <defs>
     <path id="m4ec027753a" d="M 0 9.195587 
C 2.438698 9.195587 4.777842 8.226682 6.502262 6.502262 
C 8.226682 4.777842 9.195587 2.438698 9.195587 0 
C 9.195587 -2.438698 8.226682 -4.777842 6.502262 -6.502262 
C 4.777842 -8.226682 2.438698 -9.195587 0 -9.195587 
C -2.438698 -9.195587 -4.777842 -8.226682 -6.502262 -6.502262 
C -8.226682 -4.777842 -9.195587 -2.438698 -9.195587 0 
C -9.195587 2.438698 -8.226682 4.777842 -6.502262 6.502262 
C -4.777842 8.226682 -2.438698 9.195587 0 9.195587 
z
" style="stroke: #f9c273; stroke-width: 0.5"/>
    </defs>
    <g clip-path="url(#pcef9a82a9e)">
     <use xlink:href="#m4ec027753a" x="193.81193" y="24.84" style="fill: #f9c273; stroke: #f9c273; stroke-width: 0.5"/>
    </g>
   </g>
   <g id="PathCollection_13">
    <defs>
     <path id="ma6c6dccb9d" d="M 0 10.396549 
C 2.757197 10.396549 5.401838 9.301103 7.35147 7.35147 
C 9.301103 5.401838 10.396549 2.757197 10.396549 0 
C 10.396549 -2.757197 9.301103 -5.401838 7.35147 -7.35147 
C 5.401838 -9.301103 2.757197 -10.396549 0 -10.396549 
C -2.757197 -10.396549 -5.401838 -9.301103 -7.35147 -7.35147 
C -9.301103 -5.401838 -10.396549 -2.757197 -10.396549 0 
C -10.396549 2.757197 -9.301103 5.401838 -7.35147 7.35147 
C -5.401838 9.301103 -2.757197 10.396549 0 10.396549 
z
" style="stroke: #f9b351; stroke-width: 0.5"/>
    </defs>
    <g clip-path="url(#pcef9a82a9e)">
     <use xlink:href="#ma6c6dccb9d" x="221.260239" y="230.955627" style="fill: #f9b351; stroke: #f9b351; stroke-width: 0.5"/>
    </g>
   </g>
   <g id="PathCollection_14">
    <defs>
     <path id="md1657d3a99" d="M 0 10.947737 
C 2.903374 10.947737 5.688224 9.794214 7.741219 7.741219 
C 9.794214 5.688224 10.947737 2.903374 10.947737 0 
C 10.947737 -2.903374 9.794214 -5.688224 7.741219 -7.741219 
C 5.688224 -9.794214 2.903374 -10.947737 0 -10.947737 
C -2.903374 -10.947737 -5.688224 -9.794214 -7.741219 -7.741219 
C -9.794214 -5.688224 -10.947737 -2.903374 -10.947737 0 
C -10.947737 2.903374 -9.794214 5.688224 -7.741219 7.741219 
C -5.688224 9.794214 -2.903374 10.947737 0 10.947737 
z
" style="stroke: #f9ad45; stroke-width: 0.5"/>
    </defs>
    <g clip-path="url(#pcef9a82a9e)">
     <use xlink:href="#md1657d3a99" x="300.992185" y="270.185863" style="fill: #f9ad45; stroke: #f9ad45; stroke-width: 0.5"/>
    </g>
   </g>
   <g id="PathCollection_15">
    <defs>
     <path id="m10699c1bf5" d="M 0 9.814455 
C 2.602824 9.814455 5.099393 8.780342 6.939868 6.939868 
C 8.780342 5.099393 9.814455 2.602824 9.814455 0 
C 9.814455 -2.602824 8.780342 -5.099393 6.939868 -6.939868 
C 5.099393 -8.780342 2.602824 -9.814455 0 -9.814455 
C -2.602824 -9.814455 -5.099393 -8.780342 -6.939868 -6.939868 
C -8.780342 -5.099393 -9.814455 -2.602824 -9.814455 0 
C -9.814455 2.602824 -8.780342 5.099393 -6.939868 6.939868 
C -5.099393 8.780342 -2.602824 9.814455 0 9.814455 
z
" style="stroke: #f9c377; stroke-width: 0.5"/>
    </defs>
    <g clip-path="url(#pcef9a82a9e)">
     <use xlink:href="#m10699c1bf5" x="378.169187" y="201.351108" style="fill: #f9c377; stroke: #f9c377; stroke-width: 0.5"/>
    </g>
   </g>
   <g id="PathCollection_16">
    <defs>
     <path id="m9554e521b9" d="M 0 9.814455 
C 2.602824 9.814455 5.099393 8.780342 6.939868 6.939868 
C 8.780342 5.099393 9.814455 2.602824 9.814455 0 
C 9.814455 -2.602824 8.780342 -5.099393 6.939868 -6.939868 
C 5.099393 -8.780342 2.602824 -9.814455 0 -9.814455 
C -2.602824 -9.814455 -5.099393 -8.780342 -6.939868 -6.939868 
C -8.780342 -5.099393 -9.814455 -2.602824 -9.814455 0 
C -9.814455 2.602824 -8.780342 5.099393 -6.939868 6.939868 
C -5.099393 8.780342 -2.602824 9.814455 0 9.814455 
z
" style="stroke: #f9a32e; stroke-width: 0.5"/>
    </defs>
    <g clip-path="url(#pcef9a82a9e)">
     <use xlink:href="#m9554e521b9" x="30.61125" y="190.745026" style="fill: #f9a32e; stroke: #f9a32e; stroke-width: 0.5"/>
    </g>
   </g>
   <g id="PathCollection_17">
    <defs>
     <path id="m032440a580" d="M 0 8.531947 
C 2.262699 8.531947 4.433028 7.632967 6.032997 6.032997 
C 7.632967 4.433028 8.531947 2.262699 8.531947 0 
C 8.531947 -2.262699 7.632967 -4.433028 6.032997 -6.032997 
C 4.433028 -7.632967 2.262699 -8.531947 0 -8.531947 
C -2.262699 -8.531947 -4.433028 -7.632967 -6.032997 -6.032997 
C -7.632967 -4.433028 -8.531947 -2.262699 -8.531947 0 
C -8.531947 2.262699 -7.632967 4.433028 -6.032997 6.032997 
C -4.433028 7.632967 -2.262699 8.531947 0 8.531947 
z
" style="stroke: #f9c67d; stroke-width: 0.5"/>
    </defs>
    <g clip-path="url(#pcef9a82a9e)">
     <use xlink:href="#m032440a580" x="219.378431" y="197.243267" style="fill: #f9c67d; stroke: #f9c67d; stroke-width: 0.5"/>
    </g>
   </g>
   <g id="PathCollection_18">
    <defs>
     <path id="mba9b20afa7" d="M 0 9.195587 
C 2.438698 9.195587 4.777842 8.226682 6.502262 6.502262 
C 8.226682 4.777842 9.195587 2.438698 9.195587 0 
C 9.195587 -2.438698 8.226682 -4.777842 6.502262 -6.502262 
C 4.777842 -8.226682 2.438698 -9.195587 0 -9.195587 
C -2.438698 -9.195587 -4.777842 -8.226682 -6.502262 -6.502262 
C -8.226682 -4.777842 -9.195587 -2.438698 -9.195587 0 
C -9.195587 2.438698 -8.226682 4.777842 -6.502262 6.502262 
C -4.777842 8.226682 -2.438698 9.195587 0 9.195587 
z
" style="stroke: #f9d196; stroke-width: 0.5"/>
    </defs>
    <g clip-path="url(#pcef9a82a9e)">
     <use xlink:href="#mba9b20afa7" x="325.508095" y="369.20695" style="fill: #f9d196; stroke: #f9d196; stroke-width: 0.5"/>
    </g>
   </g>
   <g id="PathCollection_19">
    <defs>
     <path id="ma1bae86053" d="M 0 -7.018882 
L -1.575837 -2.168954 
L -6.675354 -2.168954 
L -2.549758 0.828467 
L -4.125595 5.678395 
L -0 2.680974 
L 4.125595 5.678395 
L 2.549758 0.828467 
L 6.675354 -2.168954 
L 1.575837 -2.168954 
z
" style="stroke: #f9dfb6; stroke-width: 0.8"/>
    </defs>
    <g clip-path="url(#pcef9a82a9e)">
     <use xlink:href="#ma1bae86053" x="114.088025" y="211.413193" style="fill: #f9dfb6; stroke: #f9dfb6; stroke-width: 0.8"/>
    </g>
   </g>
   <g id="text_1">
    <!-- Deček čarovnik -->
    <g transform="translate(179.964419 281.977287) scale(0.09 -0.09)">
     <defs>
      <path id="DejaVuSans-44" d="M 1259 4147 
L 1259 519 
L 2022 519 
Q 2988 519 3436 956 
Q 3884 1394 3884 2338 
Q 3884 3275 3436 3711 
Q 2988 4147 2022 4147 
L 1259 4147 
z
M 628 4666 
L 1925 4666 
Q 3281 4666 3915 4102 
Q 4550 3538 4550 2338 
Q 4550 1131 3912 565 
Q 3275 0 1925 0 
L 628 0 
L 628 4666 
z
" transform="scale(0.015625)"/>
      <path id="DejaVuSans-65" d="M 3597 1894 
L 3597 1613 
L 953 1613 
Q 991 1019 1311 708 
Q 1631 397 2203 397 
Q 2534 397 2845 478 
Q 3156 559 3463 722 
L 3463 178 
Q 3153 47 2828 -22 
Q 2503 -91 2169 -91 
Q 1331 -91 842 396 
Q 353 884 353 1716 
Q 353 2575 817 3079 
Q 1281 3584 2069 3584 
Q 2775 3584 3186 3129 
Q 3597 2675 3597 1894 
z
M 3022 2063 
Q 3016 2534 2758 2815 
Q 2500 3097 2075 3097 
Q 1594 3097 1305 2825 
Q 1016 2553 972 2059 
L 3022 2063 
z
" transform="scale(0.015625)"/>
      <path id="DejaVuSans-10d" d="M 3122 3366 
L 3122 2828 
Q 2878 2963 2633 3030 
Q 2388 3097 2138 3097 
Q 1578 3097 1268 2742 
Q 959 2388 959 1747 
Q 959 1106 1268 751 
Q 1578 397 2138 397 
Q 2388 397 2633 464 
Q 2878 531 3122 666 
L 3122 134 
Q 2881 22 2623 -34 
Q 2366 -91 2075 -91 
Q 1284 -91 818 406 
Q 353 903 353 1747 
Q 353 2603 823 3093 
Q 1294 3584 2113 3584 
Q 2378 3584 2631 3529 
Q 2884 3475 3122 3366 
z
M 1801 3944 
L 1035 5119 
L 1470 5119 
L 2032 4353 
L 2595 5119 
L 3029 5119 
L 2263 3944 
L 1801 3944 
z
" transform="scale(0.015625)"/>
      <path id="DejaVuSans-6b" d="M 581 4863 
L 1159 4863 
L 1159 1991 
L 2875 3500 
L 3609 3500 
L 1753 1863 
L 3688 0 
L 2938 0 
L 1159 1709 
L 1159 0 
L 581 0 
L 581 4863 
z
" transform="scale(0.015625)"/>
      <path id="DejaVuSans-20" transform="scale(0.015625)"/>
      <path id="DejaVuSans-61" d="M 2194 1759 
Q 1497 1759 1228 1600 
Q 959 1441 959 1056 
Q 959 750 1161 570 
Q 1363 391 1709 391 
Q 2188 391 2477 730 
Q 2766 1069 2766 1631 
L 2766 1759 
L 2194 1759 
z
M 3341 1997 
L 3341 0 
L 2766 0 
L 2766 531 
Q 2569 213 2275 61 
Q 1981 -91 1556 -91 
Q 1019 -91 701 211 
Q 384 513 384 1019 
Q 384 1609 779 1909 
Q 1175 2209 1959 2209 
L 2766 2209 
L 2766 2266 
Q 2766 2663 2505 2880 
Q 2244 3097 1772 3097 
Q 1472 3097 1187 3025 
Q 903 2953 641 2809 
L 641 3341 
Q 956 3463 1253 3523 
Q 1550 3584 1831 3584 
Q 2591 3584 2966 3190 
Q 3341 2797 3341 1997 
z
" transform="scale(0.015625)"/>
      <path id="DejaVuSans-72" d="M 2631 2963 
Q 2534 3019 2420 3045 
Q 2306 3072 2169 3072 
Q 1681 3072 1420 2755 
Q 1159 2438 1159 1844 
L 1159 0 
L 581 0 
L 581 3500 
L 1159 3500 
L 1159 2956 
Q 1341 3275 1631 3429 
Q 1922 3584 2338 3584 
Q 2397 3584 2469 3576 
Q 2541 3569 2628 3553 
L 2631 2963 
z
" transform="scale(0.015625)"/>
      <path id="DejaVuSans-6f" d="M 1959 3097 
Q 1497 3097 1228 2736 
Q 959 2375 959 1747 
Q 959 1119 1226 758 
Q 1494 397 1959 397 
Q 2419 397 2687 759 
Q 2956 1122 2956 1747 
Q 2956 2369 2687 2733 
Q 2419 3097 1959 3097 
z
M 1959 3584 
Q 2709 3584 3137 3096 
Q 3566 2609 3566 1747 
Q 3566 888 3137 398 
Q 2709 -91 1959 -91 
Q 1206 -91 779 398 
Q 353 888 353 1747 
Q 353 2609 779 3096 
Q 1206 3584 1959 3584 
z
" transform="scale(0.015625)"/>
      <path id="DejaVuSans-76" d="M 191 3500 
L 800 3500 
L 1894 563 
L 2988 3500 
L 3597 3500 
L 2284 0 
L 1503 0 
L 191 3500 
z
" transform="scale(0.015625)"/>
      <path id="DejaVuSans-6e" d="M 3513 2113 
L 3513 0 
L 2938 0 
L 2938 2094 
Q 2938 2591 2744 2837 
Q 2550 3084 2163 3084 
Q 1697 3084 1428 2787 
Q 1159 2491 1159 1978 
L 1159 0 
L 581 0 
L 581 3500 
L 1159 3500 
L 1159 2956 
Q 1366 3272 1645 3428 
Q 1925 3584 2291 3584 
Q 2894 3584 3203 3211 
Q 3513 2838 3513 2113 
z
" transform="scale(0.015625)"/>
      <path id="DejaVuSans-69" d="M 603 3500 
L 1178 3500 
L 1178 0 
L 603 0 
L 603 3500 
z
M 603 4863 
L 1178 4863 
L 1178 4134 
L 603 4134 
L 603 4863 
z
" transform="scale(0.015625)"/>
     </defs>
     <use xlink:href="#DejaVuSans-44"/>
     <use xlink:href="#DejaVuSans-65" transform="translate(77.001953 0)"/>
     <use xlink:href="#DejaVuSans-10d" transform="translate(138.525391 0)"/>
     <use xlink:href="#DejaVuSans-65" transform="translate(193.505859 0)"/>
     <use xlink:href="#DejaVuSans-6b" transform="translate(255.029297 0)"/>
     <use xlink:href="#DejaVuSans-20" transform="translate(312.939453 0)"/>
     <use xlink:href="#DejaVuSans-10d" transform="translate(344.726562 0)"/>
     <use xlink:href="#DejaVuSans-61" transform="translate(399.707031 0)"/>
     <use xlink:href="#DejaVuSans-72" transform="translate(460.986328 0)"/>
     <use xlink:href="#DejaVuSans-6f" transform="translate(499.849609 0)"/>
     <use xlink:href="#DejaVuSans-76" transform="translate(561.03125 0)"/>
     <use xlink:href="#DejaVuSans-6e" transform="translate(620.210938 0)"/>
     <use xlink:href="#DejaVuSans-69" transform="translate(683.589844 0)"/>
     <use xlink:href="#DejaVuSans-6b" transform="translate(711.373047 0)"/>
    </g>
   </g>
   <g id="text_2">
    <!-- Pametna čarovnica -->
    <g transform="translate(342.746143 85.175373) scale(0.09 -0.09)">
     <defs>
      <path id="DejaVuSans-50" d="M 1259 4147 
L 1259 2394 
L 2053 2394 
Q 2494 2394 2734 2622 
Q 2975 2850 2975 3272 
Q 2975 3691 2734 3919 
Q 2494 4147 2053 4147 
L 1259 4147 
z
M 628 4666 
L 2053 4666 
Q 2838 4666 3239 4311 
Q 3641 3956 3641 3272 
Q 3641 2581 3239 2228 
Q 2838 1875 2053 1875 
L 1259 1875 
L 1259 0 
L 628 0 
L 628 4666 
z
" transform="scale(0.015625)"/>
      <path id="DejaVuSans-6d" d="M 3328 2828 
Q 3544 3216 3844 3400 
Q 4144 3584 4550 3584 
Q 5097 3584 5394 3201 
Q 5691 2819 5691 2113 
L 5691 0 
L 5113 0 
L 5113 2094 
Q 5113 2597 4934 2840 
Q 4756 3084 4391 3084 
Q 3944 3084 3684 2787 
Q 3425 2491 3425 1978 
L 3425 0 
L 2847 0 
L 2847 2094 
Q 2847 2600 2669 2842 
Q 2491 3084 2119 3084 
Q 1678 3084 1418 2786 
Q 1159 2488 1159 1978 
L 1159 0 
L 581 0 
L 581 3500 
L 1159 3500 
L 1159 2956 
Q 1356 3278 1631 3431 
Q 1906 3584 2284 3584 
Q 2666 3584 2933 3390 
Q 3200 3197 3328 2828 
z
" transform="scale(0.015625)"/>
      <path id="DejaVuSans-74" d="M 1172 4494 
L 1172 3500 
L 2356 3500 
L 2356 3053 
L 1172 3053 
L 1172 1153 
Q 1172 725 1289 603 
Q 1406 481 1766 481 
L 2356 481 
L 2356 0 
L 1766 0 
Q 1100 0 847 248 
Q 594 497 594 1153 
L 594 3053 
L 172 3053 
L 172 3500 
L 594 3500 
L 594 4494 
L 1172 4494 
z
" transform="scale(0.015625)"/>
      <path id="DejaVuSans-63" d="M 3122 3366 
L 3122 2828 
Q 2878 2963 2633 3030 
Q 2388 3097 2138 3097 
Q 1578 3097 1268 2742 
Q 959 2388 959 1747 
Q 959 1106 1268 751 
Q 1578 397 2138 397 
Q 2388 397 2633 464 
Q 2878 531 3122 666 
L 3122 134 
Q 2881 22 2623 -34 
Q 2366 -91 2075 -91 
Q 1284 -91 818 406 
Q 353 903 353 1747 
Q 353 2603 823 3093 
Q 1294 3584 2113 3584 
Q 2378 3584 2631 3529 
Q 2884 3475 3122 3366 
z
" transform="scale(0.015625)"/>
     </defs>
     <use xlink:href="#DejaVuSans-50"/>
     <use xlink:href="#DejaVuSans-61" transform="translate(55.802734 0)"/>
     <use xlink:href="#DejaVuSans-6d" transform="translate(117.082031 0)"/>
     <use xlink:href="#DejaVuSans-65" transform="translate(214.494141 0)"/>
     <use xlink:href="#DejaVuSans-74" transform="translate(276.017578 0)"/>
     <use xlink:href="#DejaVuSans-6e" transform="translate(315.226562 0)"/>
     <use xlink:href="#DejaVuSans-61" transform="translate(378.605469 0)"/>
     <use xlink:href="#DejaVuSans-20" transform="translate(439.884766 0)"/>
     <use xlink:href="#DejaVuSans-10d" transform="translate(471.671875 0)"/>
     <use xlink:href="#DejaVuSans-61" transform="translate(526.652344 0)"/>
     <use xlink:href="#DejaVuSans-72" transform="translate(587.931641 0)"/>
     <use xlink:href="#DejaVuSans-6f" transform="translate(626.794922 0)"/>
     <use xlink:href="#DejaVuSans-76" transform="translate(687.976562 0)"/>
     <use xlink:href="#DejaVuSans-6e" transform="translate(747.15625 0)"/>
     <use xlink:href="#DejaVuSans-69" transform="translate(810.535156 0)"/>
     <use xlink:href="#DejaVuSans-63" transform="translate(838.318359 0)"/>
     <use xlink:href="#DejaVuSans-61" transform="translate(893.298828 0)"/>
    </g>
   </g>
   <g id="text_3">
    <!-- Modri ravnatelj -->
    <g transform="translate(219.545899 206.386003) scale(0.09 -0.09)">
     <defs>
      <path id="DejaVuSans-4d" d="M 628 4666 
L 1569 4666 
L 2759 1491 
L 3956 4666 
L 4897 4666 
L 4897 0 
L 4281 0 
L 4281 4097 
L 3078 897 
L 2444 897 
L 1241 4097 
L 1241 0 
L 628 0 
L 628 4666 
z
" transform="scale(0.015625)"/>
      <path id="DejaVuSans-64" d="M 2906 2969 
L 2906 4863 
L 3481 4863 
L 3481 0 
L 2906 0 
L 2906 525 
Q 2725 213 2448 61 
Q 2172 -91 1784 -91 
Q 1150 -91 751 415 
Q 353 922 353 1747 
Q 353 2572 751 3078 
Q 1150 3584 1784 3584 
Q 2172 3584 2448 3432 
Q 2725 3281 2906 2969 
z
M 947 1747 
Q 947 1113 1208 752 
Q 1469 391 1925 391 
Q 2381 391 2643 752 
Q 2906 1113 2906 1747 
Q 2906 2381 2643 2742 
Q 2381 3103 1925 3103 
Q 1469 3103 1208 2742 
Q 947 2381 947 1747 
z
" transform="scale(0.015625)"/>
      <path id="DejaVuSans-6c" d="M 603 4863 
L 1178 4863 
L 1178 0 
L 603 0 
L 603 4863 
z
" transform="scale(0.015625)"/>
      <path id="DejaVuSans-6a" d="M 603 3500 
L 1178 3500 
L 1178 -63 
Q 1178 -731 923 -1031 
Q 669 -1331 103 -1331 
L -116 -1331 
L -116 -844 
L 38 -844 
Q 366 -844 484 -692 
Q 603 -541 603 -63 
L 603 3500 
z
M 603 4863 
L 1178 4863 
L 1178 4134 
L 603 4134 
L 603 4863 
z
" transform="scale(0.015625)"/>
     </defs>
     <use xlink:href="#DejaVuSans-4d"/>
     <use xlink:href="#DejaVuSans-6f" transform="translate(86.279297 0)"/>
     <use xlink:href="#DejaVuSans-64" transform="translate(147.460938 0)"/>
     <use xlink:href="#DejaVuSans-72" transform="translate(210.9375 0)"/>
     <use xlink:href="#DejaVuSans-69" transform="translate(252.050781 0)"/>
     <use xlink:href="#DejaVuSans-20" transform="translate(279.833984 0)"/>
     <use xlink:href="#DejaVuSans-72" transform="translate(311.621094 0)"/>
     <use xlink:href="#DejaVuSans-61" transform="translate(352.734375 0)"/>
     <use xlink:href="#DejaVuSans-76" transform="translate(414.013672 0)"/>
     <use xlink:href="#DejaVuSans-6e" transform="translate(473.193359 0)"/>
     <use xlink:href="#DejaVuSans-61" transform="translate(536.572266 0)"/>
     <use xlink:href="#DejaVuSans-74" transform="translate(597.851562 0)"/>
     <use xlink:href="#DejaVuSans-65" transform="translate(637.060547 0)"/>
     <use xlink:href="#DejaVuSans-6c" transform="translate(698.583984 0)"/>
     <use xlink:href="#DejaVuSans-6a" transform="translate(726.367188 0)"/>
    </g>
   </g>
   <g id="text_4">
    <!-- Mladi pilot -->
    <g transform="translate(168.446356 374.966801) scale(0.09 -0.09)">
     <defs>
      <path id="DejaVuSans-70" d="M 1159 525 
L 1159 -1331 
L 581 -1331 
L 581 3500 
L 1159 3500 
L 1159 2969 
Q 1341 3281 1617 3432 
Q 1894 3584 2278 3584 
Q 2916 3584 3314 3078 
Q 3713 2572 3713 1747 
Q 3713 922 3314 415 
Q 2916 -91 2278 -91 
Q 1894 -91 1617 61 
Q 1341 213 1159 525 
z
M 3116 1747 
Q 3116 2381 2855 2742 
Q 2594 3103 2138 3103 
Q 1681 3103 1420 2742 
Q 1159 2381 1159 1747 
Q 1159 1113 1420 752 
Q 1681 391 2138 391 
Q 2594 391 2855 752 
Q 3116 1113 3116 1747 
z
" transform="scale(0.015625)"/>
     </defs>
     <use xlink:href="#DejaVuSans-4d"/>
     <use xlink:href="#DejaVuSans-6c" transform="translate(86.279297 0)"/>
     <use xlink:href="#DejaVuSans-61" transform="translate(114.0625 0)"/>
     <use xlink:href="#DejaVuSans-64" transform="translate(175.341797 0)"/>
     <use xlink:href="#DejaVuSans-69" transform="translate(238.818359 0)"/>
     <use xlink:href="#DejaVuSans-20" transform="translate(266.601562 0)"/>
     <use xlink:href="#DejaVuSans-70" transform="translate(298.388672 0)"/>
     <use xlink:href="#DejaVuSans-69" transform="translate(361.865234 0)"/>
     <use xlink:href="#DejaVuSans-6c" transform="translate(389.648438 0)"/>
     <use xlink:href="#DejaVuSans-6f" transform="translate(417.431641 0)"/>
     <use xlink:href="#DejaVuSans-74" transform="translate(478.613281 0)"/>
    </g>
   </g>
   <g id="text_5">
    <!-- Tihotapec -->
    <g transform="translate(132.092428 252.381738) scale(0.09 -0.09)">
     <defs>
      <path id="DejaVuSans-54" d="M -19 4666 
L 3928 4666 
L 3928 4134 
L 2272 4134 
L 2272 0 
L 1638 0 
L 1638 4134 
L -19 4134 
L -19 4666 
z
" transform="scale(0.015625)"/>
      <path id="DejaVuSans-68" d="M 3513 2113 
L 3513 0 
L 2938 0 
L 2938 2094 
Q 2938 2591 2744 2837 
Q 2550 3084 2163 3084 
Q 1697 3084 1428 2787 
Q 1159 2491 1159 1978 
L 1159 0 
L 581 0 
L 581 4863 
L 1159 4863 
L 1159 2956 
Q 1366 3272 1645 3428 
Q 1925 3584 2291 3584 
Q 2894 3584 3203 3211 
Q 3513 2838 3513 2113 
z
" transform="scale(0.015625)"/>
     </defs>
     <use xlink:href="#DejaVuSans-54"/>
     <use xlink:href="#DejaVuSans-69" transform="translate(57.958984 0)"/>
     <use xlink:href="#DejaVuSans-68" transform="translate(85.742188 0)"/>
     <use xlink:href="#DejaVuSans-6f" transform="translate(149.121094 0)"/>
     <use xlink:href="#DejaVuSans-74" transform="translate(210.302734 0)"/>
     <use xlink:href="#DejaVuSans-61" transform="translate(249.511719 0)"/>
     <use xlink:href="#DejaVuSans-70" transform="translate(310.791016 0)"/>
     <use xlink:href="#DejaVuSans-65" transform="translate(374.267578 0)"/>
     <use xlink:href="#DejaVuSans-63" transform="translate(435.791016 0)"/>
    </g>
   </g>
   <g id="text_6">
    <!-- Zeleni mojster -->
    <g transform="translate(248.668476 108.647422) scale(0.09 -0.09)">
     <defs>
      <path id="DejaVuSans-5a" d="M 359 4666 
L 4025 4666 
L 4025 4184 
L 1075 531 
L 4097 531 
L 4097 0 
L 288 0 
L 288 481 
L 3238 4134 
L 359 4134 
L 359 4666 
z
" transform="scale(0.015625)"/>
      <path id="DejaVuSans-73" d="M 2834 3397 
L 2834 2853 
Q 2591 2978 2328 3040 
Q 2066 3103 1784 3103 
Q 1356 3103 1142 2972 
Q 928 2841 928 2578 
Q 928 2378 1081 2264 
Q 1234 2150 1697 2047 
L 1894 2003 
Q 2506 1872 2764 1633 
Q 3022 1394 3022 966 
Q 3022 478 2636 193 
Q 2250 -91 1575 -91 
Q 1294 -91 989 -36 
Q 684 19 347 128 
L 347 722 
Q 666 556 975 473 
Q 1284 391 1588 391 
Q 1994 391 2212 530 
Q 2431 669 2431 922 
Q 2431 1156 2273 1281 
Q 2116 1406 1581 1522 
L 1381 1569 
Q 847 1681 609 1914 
Q 372 2147 372 2553 
Q 372 3047 722 3315 
Q 1072 3584 1716 3584 
Q 2034 3584 2315 3537 
Q 2597 3491 2834 3397 
z
" transform="scale(0.015625)"/>
     </defs>
     <use xlink:href="#DejaVuSans-5a"/>
     <use xlink:href="#DejaVuSans-65" transform="translate(68.505859 0)"/>
     <use xlink:href="#DejaVuSans-6c" transform="translate(130.029297 0)"/>
     <use xlink:href="#DejaVuSans-65" transform="translate(157.8125 0)"/>
     <use xlink:href="#DejaVuSans-6e" transform="translate(219.335938 0)"/>
     <use xlink:href="#DejaVuSans-69" transform="translate(282.714844 0)"/>
     <use xlink:href="#DejaVuSans-20" transform="translate(310.498047 0)"/>
     <use xlink:href="#DejaVuSans-6d" transform="translate(342.285156 0)"/>
     <use xlink:href="#DejaVuSans-6f" transform="translate(439.697266 0)"/>
     <use xlink:href="#DejaVuSans-6a" transform="translate(500.878906 0)"/>
     <use xlink:href="#DejaVuSans-73" transform="translate(528.662109 0)"/>
     <use xlink:href="#DejaVuSans-74" transform="translate(580.761719 0)"/>
     <use xlink:href="#DejaVuSans-65" transform="translate(619.970703 0)"/>
     <use xlink:href="#DejaVuSans-72" transform="translate(681.494141 0)"/>
    </g>
   </g>
   <g id="text_7">
    <!-- Nosilec prstana -->
    <g transform="translate(112.5128 148.359976) scale(0.09 -0.09)">
     <defs>
      <path id="DejaVuSans-4e" d="M 628 4666 
L 1478 4666 
L 3547 763 
L 3547 4666 
L 4159 4666 
L 4159 0 
L 3309 0 
L 1241 3903 
L 1241 0 
L 628 0 
L 628 4666 
z
" transform="scale(0.015625)"/>
     </defs>
     <use xlink:href="#DejaVuSans-4e"/>
     <use xlink:href="#DejaVuSans-6f" transform="translate(74.804688 0)"/>
     <use xlink:href="#DejaVuSans-73" transform="translate(135.986328 0)"/>
     <use xlink:href="#DejaVuSans-69" transform="translate(188.085938 0)"/>
     <use xlink:href="#DejaVuSans-6c" transform="translate(215.869141 0)"/>
     <use xlink:href="#DejaVuSans-65" transform="translate(243.652344 0)"/>
     <use xlink:href="#DejaVuSans-63" transform="translate(305.175781 0)"/>
     <use xlink:href="#DejaVuSans-20" transform="translate(360.15625 0)"/>
     <use xlink:href="#DejaVuSans-70" transform="translate(391.943359 0)"/>
     <use xlink:href="#DejaVuSans-72" transform="translate(455.419922 0)"/>
     <use xlink:href="#DejaVuSans-73" transform="translate(496.533203 0)"/>
     <use xlink:href="#DejaVuSans-74" transform="translate(548.632812 0)"/>
     <use xlink:href="#DejaVuSans-61" transform="translate(587.841797 0)"/>
     <use xlink:href="#DejaVuSans-6e" transform="translate(649.121094 0)"/>
     <use xlink:href="#DejaVuSans-61" transform="translate(712.5 0)"/>
    </g>
   </g>
   <g id="text_8">
    <!-- Sivi čarovnik -->
    <g transform="translate(25.762075 313.319535) scale(0.09 -0.09)">
     <defs>
      <path id="DejaVuSans-53" d="M 3425 4513 
L 3425 3897 
Q 3066 4069 2747 4153 
Q 2428 4238 2131 4238 
Q 1616 4238 1336 4038 
Q 1056 3838 1056 3469 
Q 1056 3159 1242 3001 
Q 1428 2844 1947 2747 
L 2328 2669 
Q 3034 2534 3370 2195 
Q 3706 1856 3706 1288 
Q 3706 609 3251 259 
Q 2797 -91 1919 -91 
Q 1588 -91 1214 -16 
Q 841 59 441 206 
L 441 856 
Q 825 641 1194 531 
Q 1563 422 1919 422 
Q 2459 422 2753 634 
Q 3047 847 3047 1241 
Q 3047 1584 2836 1778 
Q 2625 1972 2144 2069 
L 1759 2144 
Q 1053 2284 737 2584 
Q 422 2884 422 3419 
Q 422 4038 858 4394 
Q 1294 4750 2059 4750 
Q 2388 4750 2728 4690 
Q 3069 4631 3425 4513 
z
" transform="scale(0.015625)"/>
     </defs>
     <use xlink:href="#DejaVuSans-53"/>
     <use xlink:href="#DejaVuSans-69" transform="translate(63.476562 0)"/>
     <use xlink:href="#DejaVuSans-76" transform="translate(91.259766 0)"/>
     <use xlink:href="#DejaVuSans-69" transform="translate(150.439453 0)"/>
     <use xlink:href="#DejaVuSans-20" transform="translate(178.222656 0)"/>
     <use xlink:href="#DejaVuSans-10d" transform="translate(210.009766 0)"/>
     <use xlink:href="#DejaVuSans-61" transform="translate(264.990234 0)"/>
     <use xlink:href="#DejaVuSans-72" transform="translate(326.269531 0)"/>
     <use xlink:href="#DejaVuSans-6f" transform="translate(365.132812 0)"/>
     <use xlink:href="#DejaVuSans-76" transform="translate(426.314453 0)"/>
     <use xlink:href="#DejaVuSans-6e" transform="translate(485.494141 0)"/>
     <use xlink:href="#DejaVuSans-69" transform="translate(548.873047 0)"/>
     <use xlink:href="#DejaVuSans-6b" transform="translate(576.65625 0)"/>
    </g>
   </g>
   <g id="text_9">
    <!-- Postopač -->
    <g transform="translate(168.576387 205.544304) scale(0.09 -0.09)">
     <use xlink:href="#DejaVuSans-50"/>
     <use xlink:href="#DejaVuSans-6f" transform="translate(56.677734 0)"/>
     <use xlink:href="#DejaVuSans-73" transform="translate(117.859375 0)"/>
     <use xlink:href="#DejaVuSans-74" transform="translate(169.958984 0)"/>
     <use xlink:href="#DejaVuSans-6f" transform="translate(209.167969 0)"/>
     <use xlink:href="#DejaVuSans-70" transform="translate(270.349609 0)"/>
     <use xlink:href="#DejaVuSans-61" transform="translate(333.826172 0)"/>
     <use xlink:href="#DejaVuSans-10d" transform="translate(395.105469 0)"/>
    </g>
   </g>
   <g id="text_10">
    <!-- Vilinski lokostrelec -->
    <g transform="translate(53.631016 74.372301) scale(0.09 -0.09)">
     <defs>
      <path id="DejaVuSans-56" d="M 1831 0 
L 50 4666 
L 709 4666 
L 2188 738 
L 3669 4666 
L 4325 4666 
L 2547 0 
L 1831 0 
z
" transform="scale(0.015625)"/>
     </defs>
     <use xlink:href="#DejaVuSans-56"/>
     <use xlink:href="#DejaVuSans-69" transform="translate(66.158203 0)"/>
     <use xlink:href="#DejaVuSans-6c" transform="translate(93.941406 0)"/>
     <use xlink:href="#DejaVuSans-69" transform="translate(121.724609 0)"/>
     <use xlink:href="#DejaVuSans-6e" transform="translate(149.507812 0)"/>
     <use xlink:href="#DejaVuSans-73" transform="translate(212.886719 0)"/>
     <use xlink:href="#DejaVuSans-6b" transform="translate(264.986328 0)"/>
     <use xlink:href="#DejaVuSans-69" transform="translate(322.896484 0)"/>
     <use xlink:href="#DejaVuSans-20" transform="translate(350.679688 0)"/>
     <use xlink:href="#DejaVuSans-6c" transform="translate(382.466797 0)"/>
     <use xlink:href="#DejaVuSans-6f" transform="translate(410.25 0)"/>
     <use xlink:href="#DejaVuSans-6b" transform="translate(471.431641 0)"/>
     <use xlink:href="#DejaVuSans-6f" transform="translate(525.716797 0)"/>
     <use xlink:href="#DejaVuSans-73" transform="translate(586.898438 0)"/>
     <use xlink:href="#DejaVuSans-74" transform="translate(638.998047 0)"/>
     <use xlink:href="#DejaVuSans-72" transform="translate(678.207031 0)"/>
     <use xlink:href="#DejaVuSans-65" transform="translate(717.070312 0)"/>
     <use xlink:href="#DejaVuSans-6c" transform="translate(778.59375 0)"/>
     <use xlink:href="#DejaVuSans-65" transform="translate(806.376953 0)"/>
     <use xlink:href="#DejaVuSans-63" transform="translate(867.900391 0)"/>
    </g>
   </g>
   <g id="text_11">
    <!-- Škratovski bojevnik -->
    <g transform="translate(171.019664 159.850222) scale(0.09 -0.09)">
     <defs>
      <path id="DejaVuSans-160" d="M 3425 4513 
L 3425 3897 
Q 3066 4069 2747 4153 
Q 2428 4238 2131 4238 
Q 1616 4238 1336 4038 
Q 1056 3838 1056 3469 
Q 1056 3159 1242 3001 
Q 1428 2844 1947 2747 
L 2328 2669 
Q 3034 2534 3370 2195 
Q 3706 1856 3706 1288 
Q 3706 609 3251 259 
Q 2797 -91 1919 -91 
Q 1588 -91 1214 -16 
Q 841 59 441 206 
L 441 856 
Q 825 641 1194 531 
Q 1563 422 1919 422 
Q 2459 422 2753 634 
Q 3047 847 3047 1241 
Q 3047 1584 2836 1778 
Q 2625 1972 2144 2069 
L 1759 2144 
Q 1053 2284 737 2584 
Q 422 2884 422 3419 
Q 422 4038 858 4394 
Q 1294 4750 2059 4750 
Q 2388 4750 2728 4690 
Q 3069 4631 3425 4513 
z
M 1738 5096 
L 1079 5927 
L 1513 5927 
L 2032 5371 
L 2551 5927 
L 2985 5927 
L 2326 5096 
L 1738 5096 
z
" transform="scale(0.015625)"/>
      <path id="DejaVuSans-62" d="M 3116 1747 
Q 3116 2381 2855 2742 
Q 2594 3103 2138 3103 
Q 1681 3103 1420 2742 
Q 1159 2381 1159 1747 
Q 1159 1113 1420 752 
Q 1681 391 2138 391 
Q 2594 391 2855 752 
Q 3116 1113 3116 1747 
z
M 1159 2969 
Q 1341 3281 1617 3432 
Q 1894 3584 2278 3584 
Q 2916 3584 3314 3078 
Q 3713 2572 3713 1747 
Q 3713 922 3314 415 
Q 2916 -91 2278 -91 
Q 1894 -91 1617 61 
Q 1341 213 1159 525 
L 1159 0 
L 581 0 
L 581 4863 
L 1159 4863 
L 1159 2969 
z
" transform="scale(0.015625)"/>
     </defs>
     <use xlink:href="#DejaVuSans-160"/>
     <use xlink:href="#DejaVuSans-6b" transform="translate(63.476562 0)"/>
     <use xlink:href="#DejaVuSans-72" transform="translate(121.386719 0)"/>
     <use xlink:href="#DejaVuSans-61" transform="translate(162.5 0)"/>
     <use xlink:href="#DejaVuSans-74" transform="translate(223.779297 0)"/>
     <use xlink:href="#DejaVuSans-6f" transform="translate(262.988281 0)"/>
     <use xlink:href="#DejaVuSans-76" transform="translate(324.169922 0)"/>
     <use xlink:href="#DejaVuSans-73" transform="translate(383.349609 0)"/>
     <use xlink:href="#DejaVuSans-6b" transform="translate(435.449219 0)"/>
     <use xlink:href="#DejaVuSans-69" transform="translate(493.359375 0)"/>
     <use xlink:href="#DejaVuSans-20" transform="translate(521.142578 0)"/>
     <use xlink:href="#DejaVuSans-62" transform="translate(552.929688 0)"/>
     <use xlink:href="#DejaVuSans-6f" transform="translate(616.40625 0)"/>
     <use xlink:href="#DejaVuSans-6a" transform="translate(677.587891 0)"/>
     <use xlink:href="#DejaVuSans-65" transform="translate(705.371094 0)"/>
     <use xlink:href="#DejaVuSans-76" transform="translate(766.894531 0)"/>
     <use xlink:href="#DejaVuSans-6e" transform="translate(826.074219 0)"/>
     <use xlink:href="#DejaVuSans-69" transform="translate(889.453125 0)"/>
     <use xlink:href="#DejaVuSans-6b" transform="translate(917.236328 0)"/>
    </g>
   </g>
   <g id="text_12">
    <!-- Zvesti robot -->
    <g transform="translate(166.63193 22.166801) scale(0.09 -0.09)">
     <use xlink:href="#DejaVuSans-5a"/>
     <use xlink:href="#DejaVuSans-76" transform="translate(68.505859 0)"/>
     <use xlink:href="#DejaVuSans-65" transform="translate(127.685547 0)"/>
     <use xlink:href="#DejaVuSans-73" transform="translate(189.208984 0)"/>
     <use xlink:href="#DejaVuSans-74" transform="translate(241.308594 0)"/>
     <use xlink:href="#DejaVuSans-69" transform="translate(280.517578 0)"/>
     <use xlink:href="#DejaVuSans-20" transform="translate(308.300781 0)"/>
     <use xlink:href="#DejaVuSans-72" transform="translate(340.087891 0)"/>
     <use xlink:href="#DejaVuSans-6f" transform="translate(378.951172 0)"/>
     <use xlink:href="#DejaVuSans-62" transform="translate(440.132812 0)"/>
     <use xlink:href="#DejaVuSans-6f" transform="translate(503.609375 0)"/>
     <use xlink:href="#DejaVuSans-74" transform="translate(564.791016 0)"/>
    </g>
   </g>
   <g id="text_13">
    <!-- Voditeljica upora -->
    <g transform="translate(183.655004 228.282428) scale(0.09 -0.09)">
     <defs>
      <path id="DejaVuSans-75" d="M 544 1381 
L 544 3500 
L 1119 3500 
L 1119 1403 
Q 1119 906 1312 657 
Q 1506 409 1894 409 
Q 2359 409 2629 706 
Q 2900 1003 2900 1516 
L 2900 3500 
L 3475 3500 
L 3475 0 
L 2900 0 
L 2900 538 
Q 2691 219 2414 64 
Q 2138 -91 1772 -91 
Q 1169 -91 856 284 
Q 544 659 544 1381 
z
M 1991 3584 
L 1991 3584 
z
" transform="scale(0.015625)"/>
     </defs>
     <use xlink:href="#DejaVuSans-56"/>
     <use xlink:href="#DejaVuSans-6f" transform="translate(60.658203 0)"/>
     <use xlink:href="#DejaVuSans-64" transform="translate(121.839844 0)"/>
     <use xlink:href="#DejaVuSans-69" transform="translate(185.316406 0)"/>
     <use xlink:href="#DejaVuSans-74" transform="translate(213.099609 0)"/>
     <use xlink:href="#DejaVuSans-65" transform="translate(252.308594 0)"/>
     <use xlink:href="#DejaVuSans-6c" transform="translate(313.832031 0)"/>
     <use xlink:href="#DejaVuSans-6a" transform="translate(341.615234 0)"/>
     <use xlink:href="#DejaVuSans-69" transform="translate(369.398438 0)"/>
     <use xlink:href="#DejaVuSans-63" transform="translate(397.181641 0)"/>
     <use xlink:href="#DejaVuSans-61" transform="translate(452.162109 0)"/>
     <use xlink:href="#DejaVuSans-20" transform="translate(513.441406 0)"/>
     <use xlink:href="#DejaVuSans-75" transform="translate(545.228516 0)"/>
     <use xlink:href="#DejaVuSans-70" transform="translate(608.607422 0)"/>
     <use xlink:href="#DejaVuSans-6f" transform="translate(672.083984 0)"/>
     <use xlink:href="#DejaVuSans-72" transform="translate(733.265625 0)"/>
     <use xlink:href="#DejaVuSans-61" transform="translate(774.378906 0)"/>
    </g>
   </g>
   <g id="text_14">
    <!-- Temni vitez -->
    <g transform="translate(275.515856 267.512664) scale(0.09 -0.09)">
     <defs>
      <path id="DejaVuSans-7a" d="M 353 3500 
L 3084 3500 
L 3084 2975 
L 922 459 
L 3084 459 
L 3084 0 
L 275 0 
L 275 525 
L 2438 3041 
L 353 3041 
L 353 3500 
z
" transform="scale(0.015625)"/>
     </defs>
     <use xlink:href="#DejaVuSans-54"/>
     <use xlink:href="#DejaVuSans-65" transform="translate(44.083984 0)"/>
     <use xlink:href="#DejaVuSans-6d" transform="translate(105.607422 0)"/>
     <use xlink:href="#DejaVuSans-6e" transform="translate(203.019531 0)"/>
     <use xlink:href="#DejaVuSans-69" transform="translate(266.398438 0)"/>
     <use xlink:href="#DejaVuSans-20" transform="translate(294.181641 0)"/>
     <use xlink:href="#DejaVuSans-76" transform="translate(325.96875 0)"/>
     <use xlink:href="#DejaVuSans-69" transform="translate(385.148438 0)"/>
     <use xlink:href="#DejaVuSans-74" transform="translate(412.931641 0)"/>
     <use xlink:href="#DejaVuSans-65" transform="translate(452.140625 0)"/>
     <use xlink:href="#DejaVuSans-7a" transform="translate(513.664062 0)"/>
    </g>
   </g>
   <g id="text_15">
    <!-- Zvesti prijatelj -->
    <g transform="translate(345.867625 198.677909) scale(0.09 -0.09)">
     <use xlink:href="#DejaVuSans-5a"/>
     <use xlink:href="#DejaVuSans-76" transform="translate(68.505859 0)"/>
     <use xlink:href="#DejaVuSans-65" transform="translate(127.685547 0)"/>
     <use xlink:href="#DejaVuSans-73" transform="translate(189.208984 0)"/>
     <use xlink:href="#DejaVuSans-74" transform="translate(241.308594 0)"/>
     <use xlink:href="#DejaVuSans-69" transform="translate(280.517578 0)"/>
     <use xlink:href="#DejaVuSans-20" transform="translate(308.300781 0)"/>
     <use xlink:href="#DejaVuSans-70" transform="translate(340.087891 0)"/>
     <use xlink:href="#DejaVuSans-72" transform="translate(403.564453 0)"/>
     <use xlink:href="#DejaVuSans-69" transform="translate(444.677734 0)"/>
     <use xlink:href="#DejaVuSans-6a" transform="translate(472.460938 0)"/>
     <use xlink:href="#DejaVuSans-61" transform="translate(500.244141 0)"/>
     <use xlink:href="#DejaVuSans-74" transform="translate(561.523438 0)"/>
     <use xlink:href="#DejaVuSans-65" transform="translate(600.732422 0)"/>
     <use xlink:href="#DejaVuSans-6c" transform="translate(662.255859 0)"/>
     <use xlink:href="#DejaVuSans-6a" transform="translate(690.039062 0)"/>
    </g>
   </g>
   <g id="text_16">
    <!-- Zlati robot -->
    <g transform="translate(7.2 188.071827) scale(0.09 -0.09)">
     <use xlink:href="#DejaVuSans-5a"/>
     <use xlink:href="#DejaVuSans-6c" transform="translate(68.505859 0)"/>
     <use xlink:href="#DejaVuSans-61" transform="translate(96.289062 0)"/>
     <use xlink:href="#DejaVuSans-74" transform="translate(157.568359 0)"/>
     <use xlink:href="#DejaVuSans-69" transform="translate(196.777344 0)"/>
     <use xlink:href="#DejaVuSans-20" transform="translate(224.560547 0)"/>
     <use xlink:href="#DejaVuSans-72" transform="translate(256.347656 0)"/>
     <use xlink:href="#DejaVuSans-6f" transform="translate(295.210938 0)"/>
     <use xlink:href="#DejaVuSans-62" transform="translate(356.392578 0)"/>
     <use xlink:href="#DejaVuSans-6f" transform="translate(419.869141 0)"/>
     <use xlink:href="#DejaVuSans-74" transform="translate(481.050781 0)"/>
    </g>
   </g>
   <g id="text_17">
    <!-- Prebrisani učitelj -->
    <g transform="translate(182.025619 194.750068) scale(0.09 -0.09)">
     <use xlink:href="#DejaVuSans-50"/>
     <use xlink:href="#DejaVuSans-72" transform="translate(58.552734 0)"/>
     <use xlink:href="#DejaVuSans-65" transform="translate(97.416016 0)"/>
     <use xlink:href="#DejaVuSans-62" transform="translate(158.939453 0)"/>
     <use xlink:href="#DejaVuSans-72" transform="translate(222.416016 0)"/>
     <use xlink:href="#DejaVuSans-69" transform="translate(263.529297 0)"/>
     <use xlink:href="#DejaVuSans-73" transform="translate(291.3125 0)"/>
     <use xlink:href="#DejaVuSans-61" transform="translate(343.412109 0)"/>
     <use xlink:href="#DejaVuSans-6e" transform="translate(404.691406 0)"/>
     <use xlink:href="#DejaVuSans-69" transform="translate(468.070312 0)"/>
     <use xlink:href="#DejaVuSans-20" transform="translate(495.853516 0)"/>
     <use xlink:href="#DejaVuSans-75" transform="translate(527.640625 0)"/>
     <use xlink:href="#DejaVuSans-10d" transform="translate(591.019531 0)"/>
     <use xlink:href="#DejaVuSans-69" transform="translate(646 0)"/>
     <use xlink:href="#DejaVuSans-74" transform="translate(673.783203 0)"/>
     <use xlink:href="#DejaVuSans-65" transform="translate(712.992188 0)"/>
     <use xlink:href="#DejaVuSans-6c" transform="translate(774.515625 0)"/>
     <use xlink:href="#DejaVuSans-6a" transform="translate(802.298828 0)"/>
    </g>
   </g>
   <g id="text_18">
    <!-- Pogumna princesa -->
    <g transform="translate(283.918955 366.533751) scale(0.09 -0.09)">
     <defs>
      <path id="DejaVuSans-67" d="M 2906 1791 
Q 2906 2416 2648 2759 
Q 2391 3103 1925 3103 
Q 1463 3103 1205 2759 
Q 947 2416 947 1791 
Q 947 1169 1205 825 
Q 1463 481 1925 481 
Q 2391 481 2648 825 
Q 2906 1169 2906 1791 
z
M 3481 434 
Q 3481 -459 3084 -895 
Q 2688 -1331 1869 -1331 
Q 1566 -1331 1297 -1286 
Q 1028 -1241 775 -1147 
L 775 -588 
Q 1028 -725 1275 -790 
Q 1522 -856 1778 -856 
Q 2344 -856 2625 -561 
Q 2906 -266 2906 331 
L 2906 616 
Q 2728 306 2450 153 
Q 2172 0 1784 0 
Q 1141 0 747 490 
Q 353 981 353 1791 
Q 353 2603 747 3093 
Q 1141 3584 1784 3584 
Q 2172 3584 2450 3431 
Q 2728 3278 2906 2969 
L 2906 3500 
L 3481 3500 
L 3481 434 
z
" transform="scale(0.015625)"/>
     </defs>
     <use xlink:href="#DejaVuSans-50"/>
     <use xlink:href="#DejaVuSans-6f" transform="translate(56.677734 0)"/>
     <use xlink:href="#DejaVuSans-67" transform="translate(117.859375 0)"/>
     <use xlink:href="#DejaVuSans-75" transform="translate(181.335938 0)"/>
     <use xlink:href="#DejaVuSans-6d" transform="translate(244.714844 0)"/>
     <use xlink:href="#DejaVuSans-6e" transform="translate(342.126953 0)"/>
     <use xlink:href="#DejaVuSans-61" transform="translate(405.505859 0)"/>
     <use xlink:href="#DejaVuSans-20" transform="translate(466.785156 0)"/>
     <use xlink:href="#DejaVuSans-70" transform="translate(498.572266 0)"/>
     <use xlink:href="#DejaVuSans-72" transform="translate(562.048828 0)"/>
     <use xlink:href="#DejaVuSans-69" transform="translate(603.162109 0)"/>
     <use xlink:href="#DejaVuSans-6e" transform="translate(630.945312 0)"/>
     <use xlink:href="#DejaVuSans-63" transform="translate(694.324219 0)"/>
     <use xlink:href="#DejaVuSans-65" transform="translate(749.304688 0)"/>
     <use xlink:href="#DejaVuSans-73" transform="translate(810.828125 0)"/>
     <use xlink:href="#DejaVuSans-61" transform="translate(862.927734 0)"/>
    </g>
   </g>
   <g id="text_19">
    <!-- TU STE VI -->
    <g style="fill: #003a6e" transform="translate(92.400525 203.951999) scale(0.08 -0.08)">
     <defs>
      <path id="DejaVuSans-BoldOblique-54" d="M 488 4666 
L 4788 4666 
L 4609 3756 
L 3059 3756 
L 2328 0 
L 1125 0 
L 1856 3756 
L 306 3756 
L 488 4666 
z
" transform="scale(0.015625)"/>
      <path id="DejaVuSans-BoldOblique-55" d="M 1044 4666 
L 2247 4666 
L 1703 1872 
Q 1672 1722 1658 1606 
Q 1644 1491 1644 1403 
Q 1644 1097 1808 945 
Q 1972 794 2297 794 
Q 2734 794 2968 1039 
Q 3203 1284 3316 1869 
L 3859 4666 
L 5063 4666 
L 4519 1869 
Q 4316 838 3748 373 
Q 3181 -91 2125 -91 
Q 1297 -91 865 264 
Q 434 619 434 1294 
Q 434 1406 450 1545 
Q 466 1684 500 1869 
L 1044 4666 
z
" transform="scale(0.015625)"/>
      <path id="DejaVuSans-BoldOblique-20" transform="scale(0.015625)"/>
      <path id="DejaVuSans-BoldOblique-53" d="M 4256 4519 
L 4063 3531 
Q 3709 3706 3365 3792 
Q 3022 3878 2694 3878 
Q 2244 3878 1992 3737 
Q 1741 3597 1741 3347 
Q 1741 3188 1852 3098 
Q 1963 3009 2309 2925 
L 2803 2803 
Q 3422 2647 3711 2351 
Q 4000 2056 4000 1588 
Q 4000 828 3423 368 
Q 2847 -91 1875 -91 
Q 1422 -91 973 -6 
Q 525 78 97 244 
L 288 1259 
Q 703 1019 1095 900 
Q 1488 781 1869 781 
Q 2281 781 2539 950 
Q 2797 1119 2797 1381 
Q 2797 1553 2681 1648 
Q 2566 1744 2175 1844 
L 1684 1966 
Q 1141 2100 875 2390 
Q 609 2681 609 3144 
Q 609 3872 1167 4311 
Q 1725 4750 2669 4750 
Q 3047 4750 3445 4692 
Q 3844 4634 4256 4519 
z
" transform="scale(0.015625)"/>
      <path id="DejaVuSans-BoldOblique-45" d="M 1044 4666 
L 4288 4666 
L 4109 3756 
L 2069 3756 
L 1900 2888 
L 3822 2888 
L 3641 1978 
L 1722 1978 
L 1516 909 
L 3622 909 
L 3450 0 
L 134 0 
L 1044 4666 
z
" transform="scale(0.015625)"/>
      <path id="DejaVuSans-BoldOblique-56" d="M 488 4666 
L 1631 4666 
L 2203 1178 
L 4134 4666 
L 5375 4666 
L 2741 0 
L 1306 0 
L 488 4666 
z
" transform="scale(0.015625)"/>
      <path id="DejaVuSans-BoldOblique-49" d="M 1044 4666 
L 2247 4666 
L 1338 0 
L 134 0 
L 1044 4666 
z
" transform="scale(0.015625)"/>
     </defs>
     <use xlink:href="#DejaVuSans-BoldOblique-54"/>
     <use xlink:href="#DejaVuSans-BoldOblique-55" transform="translate(68.212891 0)"/>
     <use xlink:href="#DejaVuSans-BoldOblique-20" transform="translate(149.414062 0)"/>
     <use xlink:href="#DejaVuSans-BoldOblique-53" transform="translate(184.228516 0)"/>
     <use xlink:href="#DejaVuSans-BoldOblique-54" transform="translate(256.25 0)"/>
     <use xlink:href="#DejaVuSans-BoldOblique-45" transform="translate(324.462891 0)"/>
     <use xlink:href="#DejaVuSans-BoldOblique-20" transform="translate(392.773438 0)"/>
     <use xlink:href="#DejaVuSans-BoldOblique-56" transform="translate(427.587891 0)"/>
     <use xlink:href="#DejaVuSans-BoldOblique-49" transform="translate(504.980469 0)"/>
    </g>
   </g>
  </g>
 </g>
 <defs>
  <clipPath id="pcef9a82a9e">
   <rect x="12.856705" y="7.2" width="390.6" height="388.08"/>
  </clipPath>
 </defs>
</svg>
