<?xml version="1.0" encoding="utf-8" standalone="no"?>
<!DOCTYPE svg PUBLIC "-//W3C//DTD SVG 1.1//EN"
  "http://www.w3.org/Graphics/SVG/1.1/DTD/svg11.dtd">
<svg xmlns:xlink="http://www.w3.org/1999/xlink" width="416.204425pt" height="402.48pt" viewBox="0 0 416.204425 402.48" xmlns="http://www.w3.org/2000/svg" version="1.1">
 <metadata>
  <rdf:RDF xmlns:dc="http://purl.org/dc/elements/1.1/" xmlns:cc="http://creativecommons.org/ns#" xmlns:rdf="http://www.w3.org/1999/02/22-rdf-syntax-ns#">
   <cc:Work>
    <dc:type rdf:resource="http://purl.org/dc/dcmitype/StillImage"/>
    <dc:date>2025-11-15T23:35:31.267281</dc:date>
    <dc:format>image/svg+xml</dc:format>
    <dc:creator>
     <cc:Agent>
      <dc:title>Matplotlib v3.10.7, https://matplotlib.org/</dc:title>
     </cc:Agent>
    </dc:creator>
   </cc:Work>
  </rdf:RDF>
 </metadata>
 <defs>
  <style type="text/css">*{stroke-linejoin: round; stroke-linecap: butt}</style>
 </defs>
 <g id="figure_1">
  <g id="patch_1">
   <path d="M 0 402.48 
L 416.204425 402.48 
L 416.204425 -0 
L 0 -0 
z
" style="fill: #ffffff"/>
  </g>
  <g id="axes_1">
   <g id="patch_2">
    <path d="M 227.412023 248.609241 
Q 249.196257 255.448739 269.552294 261.839833 
" clip-path="url(#pf52a62efec)" style="fill: none; stroke: #e8e8e8; stroke-width: 1.2; stroke-linecap: round"/>
    <path d="M 262.968065 256.104161 
L 269.552294 261.839833 
L 260.871225 262.782728 
z
" clip-path="url(#pf52a62efec)" style="fill: #e8e8e8; stroke: #e8e8e8; stroke-width: 1.2; stroke-linecap: round"/>
   </g>
   <g id="patch_3">
    <path d="M 213.162977 242.86905 
Q 178.288711 225.560526 144.755317 208.917493 
" clip-path="url(#pf52a62efec)" style="fill: none; stroke: #e8e8e8; stroke-width: 1.2; stroke-linecap: round"/>
    <path d="M 150.365282 215.609151 
L 144.755317 208.917493 
L 153.477265 209.338939 
z
" clip-path="url(#pf52a62efec)" style="fill: #e8e8e8; stroke: #e8e8e8; stroke-width: 1.2; stroke-linecap: round"/>
   </g>
   <g id="patch_4">
    <path d="M 285.658233 262.566843 
Q 322.420644 252.52099 357.739062 242.869728 
" clip-path="url(#pf52a62efec)" style="fill: none; stroke: #e8e8e8; stroke-width: 1.2; stroke-linecap: round"/>
    <path d="M 349.099406 241.602312 
L 357.739062 242.869728 
L 350.944602 248.354737 
z
" clip-path="url(#pf52a62efec)" style="fill: #e8e8e8; stroke: #e8e8e8; stroke-width: 1.2; stroke-linecap: round"/>
   </g>
   <g id="patch_5">
    <path d="M 280.503786 256.346694 
Q 287.983312 228.584933 295.073422 202.268568 
" clip-path="url(#pf52a62efec)" style="fill: none; stroke: #e8e8e8; stroke-width: 1.2; stroke-linecap: round"/>
    <path d="M 289.612788 209.082632 
L 295.073422 202.268568 
L 296.37178 210.903628 
z
" clip-path="url(#pf52a62efec)" style="fill: #e8e8e8; stroke: #e8e8e8; stroke-width: 1.2; stroke-linecap: round"/>
   </g>
   <g id="patch_6">
    <path d="M 143.41471 208.252134 
Q 178.288976 225.560658 211.82237 242.20369 
" clip-path="url(#pf52a62efec)" style="fill: none; stroke: #e8e8e8; stroke-width: 1.2; stroke-linecap: round"/>
    <path d="M 206.212405 235.512032 
L 211.82237 242.20369 
L 203.100422 241.782245 
z
" clip-path="url(#pf52a62efec)" style="fill: #e8e8e8; stroke: #e8e8e8; stroke-width: 1.2; stroke-linecap: round"/>
   </g>
   <g id="patch_7">
    <path d="M 143.569463 207.797819 
Q 207.374273 234.6921 269.799679 261.004951 
" clip-path="url(#pf52a62efec)" style="fill: none; stroke: #e8e8e8; stroke-width: 1.2; stroke-linecap: round"/>
    <path d="M 263.787248 254.672442 
L 269.799679 261.004951 
L 261.06835 261.122837 
z
" clip-path="url(#pf52a62efec)" style="fill: #e8e8e8; stroke: #e8e8e8; stroke-width: 1.2; stroke-linecap: round"/>
   </g>
   <g id="patch_8">
    <path d="M 133.515573 196.879242 
Q 113.531236 143.254101 94.069638 91.031657 
" clip-path="url(#pf52a62efec)" style="fill: none; stroke: #e8e8e8; stroke-width: 1.2; stroke-linecap: round"/>
    <path d="M 93.583628 99.750246 
L 94.069638 91.031657 
L 100.142949 97.305801 
z
" clip-path="url(#pf52a62efec)" style="fill: #e8e8e8; stroke: #e8e8e8; stroke-width: 1.2; stroke-linecap: round"/>
   </g>
   <g id="patch_9">
    <path d="M 291.216728 197.065579 
Q 258.896346 219.451123 227.806557 240.984342 
" clip-path="url(#pf52a62efec)" style="fill: none; stroke: #e8e8e8; stroke-width: 1.2; stroke-linecap: round"/>
    <path d="M 236.375982 239.306561 
L 227.806557 240.984342 
L 232.390322 233.552041 
z
" clip-path="url(#pf52a62efec)" style="fill: #e8e8e8; stroke: #e8e8e8; stroke-width: 1.2; stroke-linecap: round"/>
   </g>
   <g id="patch_10">
    <path d="M 304.93256 190.071834 
Q 341.691999 177.316225 377.037225 165.051352 
" clip-path="url(#pf52a62efec)" style="fill: none; stroke: #e8e8e8; stroke-width: 1.2; stroke-linecap: round"/>
    <path d="M 368.331929 164.367379 
L 377.037225 165.051352 
L 370.626713 170.980545 
z
" clip-path="url(#pf52a62efec)" style="fill: #e8e8e8; stroke: #e8e8e8; stroke-width: 1.2; stroke-linecap: round"/>
   </g>
   <g id="patch_11">
    <path d="M 290.602281 195.660935 
Q 270.285861 204.47993 251.342587 212.702867 
" clip-path="url(#pf52a62efec)" style="fill: none; stroke: #e8e8e8; stroke-width: 1.2; stroke-linecap: round"/>
    <path d="M 260.074676 212.727949 
L 251.342587 212.702867 
L 257.287376 206.306815 
z
" clip-path="url(#pf52a62efec)" style="fill: #e8e8e8; stroke: #e8e8e8; stroke-width: 1.2; stroke-linecap: round"/>
   </g>
   <g id="patch_12">
    <path d="M 240.423774 112.537041 
Q 236.277618 136.673952 232.384888 159.335535 
" clip-path="url(#pf52a62efec)" style="fill: none; stroke: #e8e8e8; stroke-width: 1.2; stroke-linecap: round"/>
    <path d="M 237.188742 152.043554 
L 232.384888 159.335535 
L 230.289786 150.858475 
z
" clip-path="url(#pf52a62efec)" style="fill: #e8e8e8; stroke: #e8e8e8; stroke-width: 1.2; stroke-linecap: round"/>
   </g>
   <g id="patch_13">
    <path d="M 239.01499 96.111931 
Q 229.899271 70.724845 221.289432 46.746624 
" clip-path="url(#pf52a62efec)" style="fill: none; stroke: #e8e8e8; stroke-width: 1.2; stroke-linecap: round"/>
    <path d="M 220.6989 55.458758 
L 221.289432 46.746624 
L 227.287064 53.093151 
z
" clip-path="url(#pf52a62efec)" style="fill: #e8e8e8; stroke: #e8e8e8; stroke-width: 1.2; stroke-linecap: round"/>
   </g>
   <g id="patch_14">
    <path d="M 232.821846 177.529655 
Q 236.787124 192.82124 240.376657 206.663813 
" clip-path="url(#pf52a62efec)" style="fill: none; stroke: #e8e8e8; stroke-width: 1.2; stroke-linecap: round"/>
    <path d="M 241.75653 198.041404 
L 240.376657 206.663813 
L 234.980637 199.798468 
z
" clip-path="url(#pf52a62efec)" style="fill: #e8e8e8; stroke: #e8e8e8; stroke-width: 1.2; stroke-linecap: round"/>
   </g>
   <g id="patch_15">
    <path d="M 223.130724 170.098042 
Q 206.737354 171.904674 191.83191 173.547328 
" clip-path="url(#pf52a62efec)" style="fill: none; stroke: #e8e8e8; stroke-width: 1.2; stroke-linecap: round"/>
    <path d="M 200.167164 176.149931 
L 191.83191 173.547328 
L 199.400372 169.192056 
z
" clip-path="url(#pf52a62efec)" style="fill: #e8e8e8; stroke: #e8e8e8; stroke-width: 1.2; stroke-linecap: round"/>
   </g>
   <g id="patch_16">
    <path d="M 218.245091 45.979221 
Q 221.291185 127.249466 224.281211 207.023826 
" clip-path="url(#pf52a62efec)" style="fill: none; stroke: #e8e8e8; stroke-width: 1.2; stroke-linecap: round"/>
    <path d="M 227.479117 198.898348 
L 224.281211 207.023826 
L 220.484029 199.160531 
z
" clip-path="url(#pf52a62efec)" style="fill: #e8e8e8; stroke: #e8e8e8; stroke-width: 1.2; stroke-linecap: round"/>
   </g>
   <g id="patch_17">
    <path d="M 225.473206 36.547717 
Q 275.486724 31.1047 324.012092 25.82364 
" clip-path="url(#pf52a62efec)" style="fill: none; stroke: #e8e8e8; stroke-width: 1.2; stroke-linecap: round"/>
    <path d="M 315.68038 23.209722 
L 324.012092 25.82364 
L 316.437725 30.168632 
z
" clip-path="url(#pf52a62efec)" style="fill: #e8e8e8; stroke: #e8e8e8; stroke-width: 1.2; stroke-linecap: round"/>
   </g>
   <g id="patch_18">
    <path d="M 378.202242 163.331347 
Q 261.084737 183.424975 145.442612 203.265474 
" clip-path="url(#pf52a62efec)" style="fill: none; stroke: #e8e8e8; stroke-width: 1.2; stroke-linecap: round"/>
    <path d="M 153.919247 205.362293 
L 145.442612 203.265474 
L 152.735566 198.463097 
z
" clip-path="url(#pf52a62efec)" style="fill: #e8e8e8; stroke: #e8e8e8; stroke-width: 1.2; stroke-linecap: round"/>
   </g>
   <g id="patch_19">
    <path d="M 378.451158 164.560714 
Q 341.691719 177.316322 306.346492 189.581196 
" clip-path="url(#pf52a62efec)" style="fill: none; stroke: #e8e8e8; stroke-width: 1.2; stroke-linecap: round"/>
    <path d="M 315.051788 190.265169 
L 306.346492 189.581196 
L 312.757005 183.652003 
z
" clip-path="url(#pf52a62efec)" style="fill: #e8e8e8; stroke: #e8e8e8; stroke-width: 1.2; stroke-linecap: round"/>
   </g>
   <g id="patch_20">
    <path d="M 190.558107 306.284089 
Q 230.927261 287.093968 269.944459 268.546522 
" clip-path="url(#pf52a62efec)" style="fill: none; stroke: #e8e8e8; stroke-width: 1.2; stroke-linecap: round"/>
    <path d="M 261.216621 268.82011 
L 269.944459 268.546522 
L 264.221906 275.142156 
z
" clip-path="url(#pf52a62efec)" style="fill: #e8e8e8; stroke: #e8e8e8; stroke-width: 1.2; stroke-linecap: round"/>
   </g>
   <g id="patch_21">
    <path d="M 176.024722 308.778418 
Q 144.605786 305.334978 114.674877 302.054622 
" clip-path="url(#pf52a62efec)" style="fill: none; stroke: #e8e8e8; stroke-width: 1.2; stroke-linecap: round"/>
    <path d="M 122.245951 306.405351 
L 114.674877 302.054622 
L 123.008567 299.447017 
z
" clip-path="url(#pf52a62efec)" style="fill: #e8e8e8; stroke: #e8e8e8; stroke-width: 1.2; stroke-linecap: round"/>
   </g>
   <g id="patch_22">
    <path d="M 109.947535 293.994344 
Q 144.213688 237.805091 177.700452 182.893872 
" clip-path="url(#pf52a62efec)" style="fill: none; stroke: #e8e8e8; stroke-width: 1.2; stroke-linecap: round"/>
    <path d="M 170.547019 187.901706 
L 177.700452 182.893872 
L 176.523384 191.5463 
z
" clip-path="url(#pf52a62efec)" style="fill: #e8e8e8; stroke: #e8e8e8; stroke-width: 1.2; stroke-linecap: round"/>
   </g>
   <g id="patch_23">
    <path d="M 112.067731 296.528612 
Q 165.147142 259.097961 217.003201 222.529996 
" clip-path="url(#pf52a62efec)" style="fill: none; stroke: #e8e8e8; stroke-width: 1.2; stroke-linecap: round"/>
    <path d="M 208.448248 224.280074 
L 217.003201 222.529996 
L 212.482356 230.000736 
z
" clip-path="url(#pf52a62efec)" style="fill: #e8e8e8; stroke: #e8e8e8; stroke-width: 1.2; stroke-linecap: round"/>
   </g>
   <g id="patch_24">
    <path d="M 98.11468 82.814232 
Q 166.235817 92.89134 232.876133 102.749392 
" clip-path="url(#pf52a62efec)" style="fill: none; stroke: #e8e8e8; stroke-width: 1.2; stroke-linecap: round"/>
    <path d="M 225.474433 98.116376 
L 232.876133 102.749392 
L 224.450076 105.04102 
z
" clip-path="url(#pf52a62efec)" style="fill: #e8e8e8; stroke: #e8e8e8; stroke-width: 1.2; stroke-linecap: round"/>
   </g>
   <g id="patch_25">
    <path d="M 97.964815 83.708571 
Q 238.145313 121.872486 376.881445 159.643175 
" clip-path="url(#pf52a62efec)" style="fill: none; stroke: #e8e8e8; stroke-width: 1.2; stroke-linecap: round"/>
    <path d="M 370.081803 154.164593 
L 376.881445 159.643175 
L 368.242992 160.91876 
z
" clip-path="url(#pf52a62efec)" style="fill: #e8e8e8; stroke: #e8e8e8; stroke-width: 1.2; stroke-linecap: round"/>
   </g>
   <g id="patch_26">
    <path d="M 186.645154 181.953062 
Q 201.451134 210.430807 215.566588 237.580398 
" clip-path="url(#pf52a62efec)" style="fill: none; stroke: #e8e8e8; stroke-width: 1.2; stroke-linecap: round"/>
    <path d="M 214.981615 228.867889 
L 215.566588 237.580398 
L 208.770879 232.096938 
z
" clip-path="url(#pf52a62efec)" style="fill: #e8e8e8; stroke: #e8e8e8; stroke-width: 1.2; stroke-linecap: round"/>
   </g>
   <g id="patch_27">
    <path d="M 175.281884 175.740439 
Q 106.700924 186.669651 39.598246 197.36328 
" clip-path="url(#pf52a62efec)" style="fill: none; stroke: #e8e8e8; stroke-width: 1.2; stroke-linecap: round"/>
    <path d="M 48.049373 199.560655 
L 39.598246 197.36328 
L 46.947739 192.647884 
z
" clip-path="url(#pf52a62efec)" style="fill: #e8e8e8; stroke: #e8e8e8; stroke-width: 1.2; stroke-linecap: round"/>
   </g>
   <g id="patch_28">
    <path d="M 219.002368 211.415429 
Q 157.625987 149.415697 97.302739 88.479792 
" clip-path="url(#pf52a62efec)" style="fill: none; stroke: #e8e8e8; stroke-width: 1.2; stroke-linecap: round"/>
    <path d="M 100.443594 96.627493 
L 97.302739 88.479792 
L 105.418287 91.702817 
z
" clip-path="url(#pf52a62efec)" style="fill: #e8e8e8; stroke: #e8e8e8; stroke-width: 1.2; stroke-linecap: round"/>
   </g>
   <g id="patch_29">
    <path d="M 218.2285 221.665937 
Q 165.14909 259.096588 113.293031 295.664553 
" clip-path="url(#pf52a62efec)" style="fill: none; stroke: #e8e8e8; stroke-width: 1.2; stroke-linecap: round"/>
    <path d="M 121.847984 293.914474 
L 113.293031 295.664553 
L 117.813876 288.193813 
z
" clip-path="url(#pf52a62efec)" style="fill: #e8e8e8; stroke: #e8e8e8; stroke-width: 1.2; stroke-linecap: round"/>
   </g>
   <g id="patch_30">
    <path d="M 225.523255 225.692489 
Q 232.75149 297.385429 239.829562 367.588984 
" clip-path="url(#pf52a62efec)" style="fill: none; stroke: #e8e8e8; stroke-width: 1.2; stroke-linecap: round"/>
    <path d="M 242.509399 359.27824 
L 239.829562 367.588984 
L 235.544708 359.980435 
z
" clip-path="url(#pf52a62efec)" style="fill: #e8e8e8; stroke: #e8e8e8; stroke-width: 1.2; stroke-linecap: round"/>
   </g>
   <g id="patch_31">
    <path d="M 236.242552 220.474412 
Q 174.265124 258.717086 113.56163 296.173689 
" clip-path="url(#pf52a62efec)" style="fill: none; stroke: #e8e8e8; stroke-width: 1.2; stroke-linecap: round"/>
    <path d="M 122.207776 294.951327 
L 113.56163 296.173689 
L 118.531935 288.99413 
z
" clip-path="url(#pf52a62efec)" style="fill: #e8e8e8; stroke: #e8e8e8; stroke-width: 1.2; stroke-linecap: round"/>
   </g>
   <g id="patch_32">
    <path d="M 240.750868 208.106912 
Q 236.785591 192.815328 233.196058 178.972754 
" clip-path="url(#pf52a62efec)" style="fill: none; stroke: #e8e8e8; stroke-width: 1.2; stroke-linecap: round"/>
    <path d="M 231.816185 187.595164 
L 233.196058 178.972754 
L 238.592078 185.8381 
z
" clip-path="url(#pf52a62efec)" style="fill: #e8e8e8; stroke: #e8e8e8; stroke-width: 1.2; stroke-linecap: round"/>
   </g>
   <g id="patch_33">
    <path d="M 325.499521 25.661762 
Q 275.486003 31.104779 226.960635 36.385839 
" clip-path="url(#pf52a62efec)" style="fill: none; stroke: #e8e8e8; stroke-width: 1.2; stroke-linecap: round"/>
    <path d="M 235.292347 38.999757 
L 226.960635 36.385839 
L 234.535002 32.040847 
z
" clip-path="url(#pf52a62efec)" style="fill: #e8e8e8; stroke: #e8e8e8; stroke-width: 1.2; stroke-linecap: round"/>
   </g>
   <g id="patch_34">
    <path d="M 327.36009 30.509266 
Q 257.920918 99.692394 189.542193 167.818986 
" clip-path="url(#pf52a62efec)" style="fill: none; stroke: #e8e8e8; stroke-width: 1.2; stroke-linecap: round"/>
    <path d="M 197.679784 164.65203 
L 189.542193 167.818986 
L 192.739187 159.693149 
z
" clip-path="url(#pf52a62efec)" style="fill: #e8e8e8; stroke: #e8e8e8; stroke-width: 1.2; stroke-linecap: round"/>
   </g>
   <g id="patch_35">
    <path d="M 38.011656 200.651286 
Q 125.359572 222.555748 211.255511 244.096095 
" clip-path="url(#pf52a62efec)" style="fill: none; stroke: #e8e8e8; stroke-width: 1.2; stroke-linecap: round"/>
    <path d="M 204.347127 238.755288 
L 211.255511 244.096095 
L 202.644441 245.545049 
z
" clip-path="url(#pf52a62efec)" style="fill: #e8e8e8; stroke: #e8e8e8; stroke-width: 1.2; stroke-linecap: round"/>
   </g>
   <g id="patch_36">
    <path d="M 38.173671 199.421562 
Q 136.753211 207.582989 233.840919 215.620906 
" clip-path="url(#pf52a62efec)" style="fill: none; stroke: #e8e8e8; stroke-width: 1.2; stroke-linecap: round"/>
    <path d="M 226.156974 211.472776 
L 233.840919 215.620906 
L 225.579418 218.448909 
z
" clip-path="url(#pf52a62efec)" style="fill: #e8e8e8; stroke: #e8e8e8; stroke-width: 1.2; stroke-linecap: round"/>
   </g>
   <g id="patch_37">
    <path d="M 359.461096 325.847373 
Q 293.167191 288.012184 228.173388 250.918987 
" clip-path="url(#pf52a62efec)" style="fill: none; stroke: #e8e8e8; stroke-width: 1.2; stroke-linecap: round"/>
    <path d="M 233.386596 257.924161 
L 228.173388 250.918987 
L 236.856316 251.844601 
z
" clip-path="url(#pf52a62efec)" style="fill: #e8e8e8; stroke: #e8e8e8; stroke-width: 1.2; stroke-linecap: round"/>
   </g>
   <g id="patch_38">
    <path d="M 360.296977 324.371608 
Q 228.412093 205.706427 97.640003 88.042497 
" clip-path="url(#pf52a62efec)" style="fill: none; stroke: #e8e8e8; stroke-width: 1.2; stroke-linecap: round"/>
    <path d="M 101.24602 95.995273 
L 97.640003 88.042497 
L 105.928092 90.791602 
z
" clip-path="url(#pf52a62efec)" style="fill: #e8e8e8; stroke: #e8e8e8; stroke-width: 1.2; stroke-linecap: round"/>
   </g>
   <g id="patch_39">
    <path d="M 359.050717 332.456425 
Q 303.539406 353.674988 249.426363 374.35908 
" clip-path="url(#pf52a62efec)" style="fill: none; stroke: #e8e8e8; stroke-width: 1.2; stroke-linecap: round"/>
    <path d="M 258.148718 374.772032 
L 249.426363 374.35908 
L 255.649408 368.23342 
z
" clip-path="url(#pf52a62efec)" style="fill: #e8e8e8; stroke: #e8e8e8; stroke-width: 1.2; stroke-linecap: round"/>
   </g>
   <g id="patch_40">
    <path d="M 240.875469 369.025699 
Q 241.359643 240.86061 241.838161 114.192446 
" clip-path="url(#pf52a62efec)" style="fill: none; stroke: #e8e8e8; stroke-width: 1.2; stroke-linecap: round"/>
    <path d="M 238.307964 122.179167 
L 241.838161 114.192446 
L 245.307914 122.205611 
z
" clip-path="url(#pf52a62efec)" style="fill: #e8e8e8; stroke: #e8e8e8; stroke-width: 1.2; stroke-linecap: round"/>
   </g>
   <g id="patch_41">
    <path d="M 248.024005 374.895115 
Q 303.535317 353.676551 357.648359 332.99246 
" clip-path="url(#pf52a62efec)" style="fill: none; stroke: #e8e8e8; stroke-width: 1.2; stroke-linecap: round"/>
    <path d="M 348.926005 332.579508 
L 357.648359 332.99246 
L 351.425314 339.11812 
z
" clip-path="url(#pf52a62efec)" style="fill: #e8e8e8; stroke: #e8e8e8; stroke-width: 1.2; stroke-linecap: round"/>
   </g>
   <g id="patch_42">
    <path d="M 239.979693 369.078054 
Q 232.751458 297.385114 225.673386 227.181559 
" clip-path="url(#pf52a62efec)" style="fill: none; stroke: #e8e8e8; stroke-width: 1.2; stroke-linecap: round"/>
    <path d="M 222.993549 235.492303 
L 225.673386 227.181559 
L 229.95824 234.790108 
z
" clip-path="url(#pf52a62efec)" style="fill: #e8e8e8; stroke: #e8e8e8; stroke-width: 1.2; stroke-linecap: round"/>
   </g>
   <g id="PathCollection_1">
    <defs>
     <path id="mcd2350f0c0" d="M 0 11.18034 
C 2.965061 11.18034 5.80908 10.002309 7.905694 7.905694 
C 10.002309 5.80908 11.18034 2.965061 11.18034 0 
C 11.18034 -2.965061 10.002309 -5.80908 7.905694 -7.905694 
C 5.80908 -10.002309 2.965061 -11.18034 0 -11.18034 
C -2.965061 -11.18034 -5.80908 -10.002309 -7.905694 -7.905694 
C -10.002309 -5.80908 -11.18034 -2.965061 -11.18034 0 
C -11.18034 2.965061 -10.002309 5.80908 -7.905694 7.905694 
C -5.80908 10.002309 -2.965061 11.18034 0 11.18034 
z
" style="stroke: #f9ab3f; stroke-width: 0.5"/>
    </defs>
    <g clip-path="url(#pf52a62efec)">
     <use xlink:href="#mcd2350f0c0" x="220.108437" y="246.316166" style="fill: #f9ab3f; stroke: #f9ab3f; stroke-width: 0.5"/>
    </g>
   </g>
   <g id="PathCollection_2">
    <defs>
     <path id="m3a49e631cd" d="M 0 10 
C 2.652031 10 5.195799 8.946337 7.071068 7.071068 
C 8.946337 5.195799 10 2.652031 10 0 
C 10 -2.652031 8.946337 -5.195799 7.071068 -7.071068 
C 5.195799 -8.946337 2.652031 -10 0 -10 
C -2.652031 -10 -5.195799 -8.946337 -7.071068 -7.071068 
C -8.946337 -5.195799 -10 -2.652031 -10 0 
C -10 2.652031 -8.946337 5.195799 -7.071068 7.071068 
C -5.195799 8.946337 -2.652031 10 0 10 
z
" style="stroke: #f9bb63; stroke-width: 0.5"/>
    </defs>
    <g clip-path="url(#pf52a62efec)">
     <use xlink:href="#m3a49e631cd" x="278.28514" y="264.581646" style="fill: #f9bb63; stroke: #f9bb63; stroke-width: 0.5"/>
    </g>
   </g>
   <g id="PathCollection_3">
    <defs>
     <path id="m6406fca4ef" d="M 0 9.354143 
C 2.480748 9.354143 4.860225 8.368532 6.614378 6.614378 
C 8.368532 4.860225 9.354143 2.480748 9.354143 0 
C 9.354143 -2.480748 8.368532 -4.860225 6.614378 -6.614378 
C 4.860225 -8.368532 2.480748 -9.354143 0 -9.354143 
C -2.480748 -9.354143 -4.860225 -8.368532 -6.614378 -6.614378 
C -8.368532 -4.860225 -9.354143 -2.480748 -9.354143 0 
C -9.354143 2.480748 -8.368532 4.860225 -6.614378 6.614378 
C -4.860225 8.368532 -2.480748 9.354143 0 9.354143 
z
" style="stroke: #f9ad45; stroke-width: 0.5"/>
    </defs>
    <g clip-path="url(#pf52a62efec)">
     <use xlink:href="#m6406fca4ef" x="241.87636" y="104.080789" style="fill: #f9ad45; stroke: #f9ad45; stroke-width: 0.5"/>
    </g>
   </g>
   <g id="PathCollection_4">
    <defs>
     <path id="m7101765d76" d="M 0 9.354143 
C 2.480748 9.354143 4.860225 8.368532 6.614378 6.614378 
C 8.368532 4.860225 9.354143 2.480748 9.354143 0 
C 9.354143 -2.480748 8.368532 -4.860225 6.614378 -6.614378 
C 4.860225 -8.368532 2.480748 -9.354143 0 -9.354143 
C -2.480748 -9.354143 -4.860225 -8.368532 -6.614378 -6.614378 
C -8.368532 -4.860225 -9.354143 -2.480748 -9.354143 0 
C -9.354143 2.480748 -8.368532 4.860225 -6.614378 6.614378 
C -4.860225 8.368532 -2.480748 9.354143 0 9.354143 
z
" style="stroke: #f9ce90; stroke-width: 0.5"/>
    </defs>
    <g clip-path="url(#pf52a62efec)">
     <use xlink:href="#m7101765d76" x="385.702159" y="162.0446" style="fill: #f9ce90; stroke: #f9ce90; stroke-width: 0.5"/>
    </g>
   </g>
   <g id="PathCollection_5">
    <defs>
     <path id="m5fb6b226aa" d="M 0 7.905694 
C 2.096615 7.905694 4.10764 7.0727 5.59017 5.59017 
C 7.0727 4.10764 7.905694 2.096615 7.905694 0 
C 7.905694 -2.096615 7.0727 -4.10764 5.59017 -5.59017 
C 4.10764 -7.0727 2.096615 -7.905694 0 -7.905694 
C -2.096615 -7.905694 -4.10764 -7.0727 -5.59017 -5.59017 
C -7.0727 -4.10764 -7.905694 -2.096615 -7.905694 0 
C -7.905694 2.096615 -7.0727 4.10764 -5.59017 5.59017 
C -4.10764 7.0727 -2.096615 7.905694 0 7.905694 
z
" style="stroke: #f9dfb6; stroke-width: 0.5"/>
    </defs>
    <g clip-path="url(#pf52a62efec)">
     <use xlink:href="#m5fb6b226aa" x="183.571085" y="309.605481" style="fill: #f9dfb6; stroke: #f9dfb6; stroke-width: 0.5"/>
    </g>
   </g>
   <g id="PathCollection_6">
    <defs>
     <path id="meb7bf4c84c" d="M 0 10 
C 2.652031 10 5.195799 8.946337 7.071068 7.071068 
C 8.946337 5.195799 10 2.652031 10 0 
C 10 -2.652031 8.946337 -5.195799 7.071068 -7.071068 
C 5.195799 -8.946337 2.652031 -10 0 -10 
C -2.652031 -10 -5.195799 -8.946337 -7.071068 -7.071068 
C -8.946337 -5.195799 -10 -2.652031 -10 0 
C -10 2.652031 -8.946337 5.195799 -7.071068 7.071068 
C -5.195799 8.946337 -2.652031 10 0 10 
z
" style="stroke: #f9a736; stroke-width: 0.5"/>
    </defs>
    <g clip-path="url(#pf52a62efec)">
     <use xlink:href="#meb7bf4c84c" x="90.592592" y="81.701495" style="fill: #f9a736; stroke: #f9a736; stroke-width: 0.5"/>
    </g>
   </g>
   <g id="PathCollection_7">
    <defs>
     <path id="m96955104b5" d="M 0 10 
C 2.652031 10 5.195799 8.946337 7.071068 7.071068 
C 8.946337 5.195799 10 2.652031 10 0 
C 10 -2.652031 8.946337 -5.195799 7.071068 -7.071068 
C 5.195799 -8.946337 2.652031 -10 0 -10 
C -2.652031 -10 -5.195799 -8.946337 -7.071068 -7.071068 
C -8.946337 -5.195799 -10 -2.652031 -10 0 
C -10 2.652031 -8.946337 5.195799 -7.071068 7.071068 
C -5.195799 8.946337 -2.652031 10 0 10 
z
" style="stroke: #f9af48; stroke-width: 0.5"/>
    </defs>
    <g clip-path="url(#pf52a62efec)">
     <use xlink:href="#m96955104b5" x="105.636211" y="301.064006" style="fill: #f9af48; stroke: #f9af48; stroke-width: 0.5"/>
    </g>
   </g>
   <g id="PathCollection_8">
    <defs>
     <path id="m239ee3e7ab" d="M 0 9.354143 
C 2.480748 9.354143 4.860225 8.368532 6.614378 6.614378 
C 8.368532 4.860225 9.354143 2.480748 9.354143 0 
C 9.354143 -2.480748 8.368532 -4.860225 6.614378 -6.614378 
C 4.860225 -8.368532 2.480748 -9.354143 0 -9.354143 
C -2.480748 -9.354143 -4.860225 -8.368532 -6.614378 -6.614378 
C -8.368532 -4.860225 -9.354143 -2.480748 -9.354143 0 
C -9.354143 2.480748 -8.368532 4.860225 -6.614378 6.614378 
C -4.860225 8.368532 -2.480748 9.354143 0 9.354143 
z
" style="stroke: #f9c882; stroke-width: 0.5"/>
    </defs>
    <g clip-path="url(#pf52a62efec)">
     <use xlink:href="#m239ee3e7ab" x="230.679036" y="169.266181" style="fill: #f9c882; stroke: #f9c882; stroke-width: 0.5"/>
    </g>
   </g>
   <g id="PathCollection_9">
    <defs>
     <path id="m991dfba5bb" d="M 0 9.354143 
C 2.480748 9.354143 4.860225 8.368532 6.614378 6.614378 
C 8.368532 4.860225 9.354143 2.480748 9.354143 0 
C 9.354143 -2.480748 8.368532 -4.860225 6.614378 -6.614378 
C 4.860225 -8.368532 2.480748 -9.354143 0 -9.354143 
C -2.480748 -9.354143 -4.860225 -8.368532 -6.614378 -6.614378 
C -8.368532 -4.860225 -9.354143 -2.480748 -9.354143 0 
C -9.354143 2.480748 -8.368532 4.860225 -6.614378 6.614378 
C -4.860225 8.368532 -2.480748 9.354143 0 9.354143 
z
" style="stroke: #f9be6a; stroke-width: 0.5"/>
    </defs>
    <g clip-path="url(#pf52a62efec)">
     <use xlink:href="#m991dfba5bb" x="217.922389" y="37.369479" style="fill: #f9be6a; stroke: #f9be6a; stroke-width: 0.5"/>
    </g>
   </g>
   <g id="PathCollection_10">
    <defs>
     <path id="ma61bac50eb" d="M 0 10 
C 2.652031 10 5.195799 8.946337 7.071068 7.071068 
C 8.946337 5.195799 10 2.652031 10 0 
C 10 -2.652031 8.946337 -5.195799 7.071068 -7.071068 
C 5.195799 -8.946337 2.652031 -10 0 -10 
C -2.652031 -10 -5.195799 -8.946337 -7.071068 -7.071068 
C -8.946337 -5.195799 -10 -2.652031 -10 0 
C -10 2.652031 -8.946337 5.195799 -7.071068 7.071068 
C -5.195799 8.946337 -2.652031 10 0 10 
z
" style="stroke: #f9bf6c; stroke-width: 0.5"/>
    </defs>
    <g clip-path="url(#pf52a62efec)">
     <use xlink:href="#ma61bac50eb" x="136.46925" y="204.805017" style="fill: #f9bf6c; stroke: #f9bf6c; stroke-width: 0.5"/>
    </g>
   </g>
   <g id="PathCollection_11">
    <defs>
     <path id="m305c46672a" d="M 0 10 
C 2.652031 10 5.195799 8.946337 7.071068 7.071068 
C 8.946337 5.195799 10 2.652031 10 0 
C 10 -2.652031 8.946337 -5.195799 7.071068 -7.071068 
C 5.195799 -8.946337 2.652031 -10 0 -10 
C -2.652031 -10 -5.195799 -8.946337 -7.071068 -7.071068 
C -8.946337 -5.195799 -10 -2.652031 -10 0 
C -10 2.652031 -8.946337 5.195799 -7.071068 7.071068 
C -5.195799 8.946337 -2.652031 10 0 10 
z
" style="stroke: #f9b453; stroke-width: 0.5"/>
    </defs>
    <g clip-path="url(#pf52a62efec)">
     <use xlink:href="#m305c46672a" x="242.893679" y="216.370387" style="fill: #f9b453; stroke: #f9b453; stroke-width: 0.5"/>
    </g>
   </g>
   <g id="PathCollection_12">
    <defs>
     <path id="mb95b5f5ead" d="M 0 10 
C 2.652031 10 5.195799 8.946337 7.071068 7.071068 
C 8.946337 5.195799 10 2.652031 10 0 
C 10 -2.652031 8.946337 -5.195799 7.071068 -7.071068 
C 5.195799 -8.946337 2.652031 -10 0 -10 
C -2.652031 -10 -5.195799 -8.946337 -7.071068 -7.071068 
C -8.946337 -5.195799 -10 -2.652031 -10 0 
C -10 2.652031 -8.946337 5.195799 -7.071068 7.071068 
C -5.195799 8.946337 -2.652031 10 0 10 
z
" style="stroke: #f9b04b; stroke-width: 0.5"/>
    </defs>
    <g clip-path="url(#pf52a62efec)">
     <use xlink:href="#mb95b5f5ead" x="182.792809" y="174.543482" style="fill: #f9b04b; stroke: #f9b04b; stroke-width: 0.5"/>
    </g>
   </g>
   <g id="PathCollection_13">
    <defs>
     <path id="m1f5d9efcbb" d="M 0 9.354143 
C 2.480748 9.354143 4.860225 8.368532 6.614378 6.614378 
C 8.368532 4.860225 9.354143 2.480748 9.354143 0 
C 9.354143 -2.480748 8.368532 -4.860225 6.614378 -6.614378 
C 4.860225 -8.368532 2.480748 -9.354143 0 -9.354143 
C -2.480748 -9.354143 -4.860225 -8.368532 -6.614378 -6.614378 
C -8.368532 -4.860225 -9.354143 -2.480748 -9.354143 0 
C -9.354143 2.480748 -8.368532 4.860225 -6.614378 6.614378 
C -4.860225 8.368532 -2.480748 9.354143 0 9.354143 
z
" style="stroke: #f9d9a8; stroke-width: 0.5"/>
    </defs>
    <g clip-path="url(#pf52a62efec)">
     <use xlink:href="#m1f5d9efcbb" x="366.231795" y="329.71154" style="fill: #f9d9a8; stroke: #f9d9a8; stroke-width: 0.5"/>
    </g>
   </g>
   <g id="PathCollection_14">
    <defs>
     <path id="m02ec0e2f45" d="M 0 10.606602 
C 2.812904 10.606602 5.510977 9.489023 7.5 7.5 
C 9.489023 5.510977 10.606602 2.812904 10.606602 0 
C 10.606602 -2.812904 9.489023 -5.510977 7.5 -7.5 
C 5.510977 -9.489023 2.812904 -10.606602 0 -10.606602 
C -2.812904 -10.606602 -5.510977 -9.489023 -7.5 -7.5 
C -9.489023 -5.510977 -10.606602 -2.812904 -10.606602 0 
C -10.606602 2.812904 -9.489023 5.510977 -7.5 7.5 
C -5.510977 9.489023 -2.812904 10.606602 0 10.606602 
z
" style="stroke: #f9a22b; stroke-width: 0.5"/>
    </defs>
    <g clip-path="url(#pf52a62efec)">
     <use xlink:href="#m02ec0e2f45" x="224.660021" y="217.130543" style="fill: #f9a22b; stroke: #f9a22b; stroke-width: 0.5"/>
    </g>
   </g>
   <g id="PathCollection_15">
    <defs>
     <path id="m8d0a6c7240" d="M 0 10 
C 2.652031 10 5.195799 8.946337 7.071068 7.071068 
C 8.946337 5.195799 10 2.652031 10 0 
C 10 -2.652031 8.946337 -5.195799 7.071068 -7.071068 
C 5.195799 -8.946337 2.652031 -10 0 -10 
C -2.652031 -10 -5.195799 -8.946337 -7.071068 -7.071068 
C -8.946337 -5.195799 -10 -2.652031 -10 0 
C -10 2.652031 -8.946337 5.195799 -7.071068 7.071068 
C -5.195799 8.946337 -2.652031 10 0 10 
z
" style="stroke: #f9bc65; stroke-width: 0.5"/>
    </defs>
    <g clip-path="url(#pf52a62efec)">
     <use xlink:href="#m8d0a6c7240" x="297.681558" y="192.587947" style="fill: #f9bc65; stroke: #f9bc65; stroke-width: 0.5"/>
    </g>
   </g>
   <g id="PathCollection_16">
    <defs>
     <path id="m559aa202eb" d="M 0 8.660254 
C 2.296726 8.660254 4.499694 7.747755 6.123724 6.123724 
C 7.747755 4.499694 8.660254 2.296726 8.660254 0 
C 8.660254 -2.296726 7.747755 -4.499694 6.123724 -6.123724 
C 4.499694 -7.747755 2.296726 -8.660254 0 -8.660254 
C -2.296726 -8.660254 -4.499694 -7.747755 -6.123724 -6.123724 
C -7.747755 -4.499694 -8.660254 -2.296726 -8.660254 0 
C -8.660254 2.296726 -7.747755 4.499694 -6.123724 6.123724 
C -4.499694 7.747755 -2.296726 8.660254 0 8.660254 
z
" style="stroke: #f9d5a0; stroke-width: 0.5"/>
    </defs>
    <g clip-path="url(#pf52a62efec)">
     <use xlink:href="#m559aa202eb" x="30.61125" y="198.795467" style="fill: #f9d5a0; stroke: #f9d5a0; stroke-width: 0.5"/>
    </g>
   </g>
   <g id="PathCollection_17">
    <defs>
     <path id="m1126951874" d="M 0 10 
C 2.652031 10 5.195799 8.946337 7.071068 7.071068 
C 8.946337 5.195799 10 2.652031 10 0 
C 10 -2.652031 8.946337 -5.195799 7.071068 -7.071068 
C 5.195799 -8.946337 2.652031 -10 0 -10 
C -2.652031 -10 -5.195799 -8.946337 -7.071068 -7.071068 
C -8.946337 -5.195799 -10 -2.652031 -10 0 
C -10 2.652031 -8.946337 5.195799 -7.071068 7.071068 
C -5.195799 8.946337 -2.652031 10 0 10 
z
" style="stroke: #f9c273; stroke-width: 0.5"/>
    </defs>
    <g clip-path="url(#pf52a62efec)">
     <use xlink:href="#m1126951874" x="240.842927" y="377.64" style="fill: #f9c273; stroke: #f9c273; stroke-width: 0.5"/>
    </g>
   </g>
   <g id="PathCollection_18">
    <defs>
     <path id="m26c3fba763" d="M 0 8.660254 
C 2.296726 8.660254 4.499694 7.747755 6.123724 6.123724 
C 7.747755 4.499694 8.660254 2.296726 8.660254 0 
C 8.660254 -2.296726 7.747755 -4.499694 6.123724 -6.123724 
C 4.499694 -7.747755 2.296726 -8.660254 0 -8.660254 
C -2.296726 -8.660254 -4.499694 -7.747755 -6.123724 -6.123724 
C -7.747755 -4.499694 -8.660254 -2.296726 -8.660254 0 
C -8.660254 2.296726 -7.747755 4.499694 -6.123724 6.123724 
C -4.499694 7.747755 -2.296726 8.660254 0 8.660254 
z
" style="stroke: #f9d9a9; stroke-width: 0.5"/>
    </defs>
    <g clip-path="url(#pf52a62efec)">
     <use xlink:href="#m26c3fba763" x="333.050338" y="24.84" style="fill: #f9d9a9; stroke: #f9d9a9; stroke-width: 0.5"/>
    </g>
   </g>
   <g id="PathCollection_19">
    <defs>
     <path id="m8655145628" d="M 0 -7.071068 
L -1.587554 -2.18508 
L -6.724985 -2.18508 
L -2.568716 0.834626 
L -4.156269 5.720614 
L -0 2.700907 
L 4.156269 5.720614 
L 2.568716 0.834626 
L 6.724985 -2.18508 
L 1.587554 -2.18508 
z
" style="stroke: #f9dfb6; stroke-width: 0.8"/>
    </defs>
    <g clip-path="url(#pf52a62efec)">
     <use xlink:href="#m8655145628" x="366.553977" y="240.460927" style="fill: #f9dfb6; stroke: #f9dfb6; stroke-width: 0.8"/>
    </g>
   </g>
   <g id="text_1">
    <!-- De훾ek 훾arovnik -->
    <g transform="translate(185.490078 242.183289) scale(0.09 -0.09)">
     <defs>
      <path id="DejaVuSans-44" d="M 1259 4147 
L 1259 519 
L 2022 519 
Q 2988 519 3436 956 
Q 3884 1394 3884 2338 
Q 3884 3275 3436 3711 
Q 2988 4147 2022 4147 
L 1259 4147 
z
M 628 4666 
L 1925 4666 
Q 3281 4666 3915 4102 
Q 4550 3538 4550 2338 
Q 4550 1131 3912 565 
Q 3275 0 1925 0 
L 628 0 
L 628 4666 
z
" transform="scale(0.015625)"/>
      <path id="DejaVuSans-65" d="M 3597 1894 
L 3597 1613 
L 953 1613 
Q 991 1019 1311 708 
Q 1631 397 2203 397 
Q 2534 397 2845 478 
Q 3156 559 3463 722 
L 3463 178 
Q 3153 47 2828 -22 
Q 2503 -91 2169 -91 
Q 1331 -91 842 396 
Q 353 884 353 1716 
Q 353 2575 817 3079 
Q 1281 3584 2069 3584 
Q 2775 3584 3186 3129 
Q 3597 2675 3597 1894 
z
M 3022 2063 
Q 3016 2534 2758 2815 
Q 2500 3097 2075 3097 
Q 1594 3097 1305 2825 
Q 1016 2553 972 2059 
L 3022 2063 
z
" transform="scale(0.015625)"/>
      <path id="DejaVuSans-10d" d="M 3122 3366 
L 3122 2828 
Q 2878 2963 2633 3030 
Q 2388 3097 2138 3097 
Q 1578 3097 1268 2742 
Q 959 2388 959 1747 
Q 959 1106 1268 751 
Q 1578 397 2138 397 
Q 2388 397 2633 464 
Q 2878 531 3122 666 
L 3122 134 
Q 2881 22 2623 -34 
Q 2366 -91 2075 -91 
Q 1284 -91 818 406 
Q 353 903 353 1747 
Q 353 2603 823 3093 
Q 1294 3584 2113 3584 
Q 2378 3584 2631 3529 
Q 2884 3475 3122 3366 
z
M 1801 3944 
L 1035 5119 
L 1470 5119 
L 2032 4353 
L 2595 5119 
L 3029 5119 
L 2263 3944 
L 1801 3944 
z
" transform="scale(0.015625)"/>
      <path id="DejaVuSans-6b" d="M 581 4863 
L 1159 4863 
L 1159 1991 
L 2875 3500 
L 3609 3500 
L 1753 1863 
L 3688 0 
L 2938 0 
L 1159 1709 
L 1159 0 
L 581 0 
L 581 4863 
z
" transform="scale(0.015625)"/>
      <path id="DejaVuSans-20" transform="scale(0.015625)"/>
      <path id="DejaVuSans-61" d="M 2194 1759 
Q 1497 1759 1228 1600 
Q 959 1441 959 1056 
Q 959 750 1161 570 
Q 1363 391 1709 391 
Q 2188 391 2477 730 
Q 2766 1069 2766 1631 
L 2766 1759 
L 2194 1759 
z
M 3341 1997 
L 3341 0 
L 2766 0 
L 2766 531 
Q 2569 213 2275 61 
Q 1981 -91 1556 -91 
Q 1019 -91 701 211 
Q 384 513 384 1019 
Q 384 1609 779 1909 
Q 1175 2209 1959 2209 
L 2766 2209 
L 2766 2266 
Q 2766 2663 2505 2880 
Q 2244 3097 1772 3097 
Q 1472 3097 1187 3025 
Q 903 2953 641 2809 
L 641 3341 
Q 956 3463 1253 3523 
Q 1550 3584 1831 3584 
Q 2591 3584 2966 3190 
Q 3341 2797 3341 1997 
z
" transform="scale(0.015625)"/>
      <path id="DejaVuSans-72" d="M 2631 2963 
Q 2534 3019 2420 3045 
Q 2306 3072 2169 3072 
Q 1681 3072 1420 2755 
Q 1159 2438 1159 1844 
L 1159 0 
L 581 0 
L 581 3500 
L 1159 3500 
L 1159 2956 
Q 1341 3275 1631 3429 
Q 1922 3584 2338 3584 
Q 2397 3584 2469 3576 
Q 2541 3569 2628 3553 
L 2631 2963 
z
" transform="scale(0.015625)"/>
      <path id="DejaVuSans-6f" d="M 1959 3097 
Q 1497 3097 1228 2736 
Q 959 2375 959 1747 
Q 959 1119 1226 758 
Q 1494 397 1959 397 
Q 2419 397 2687 759 
Q 2956 1122 2956 1747 
Q 2956 2369 2687 2733 
Q 2419 3097 1959 3097 
z
M 1959 3584 
Q 2709 3584 3137 3096 
Q 3566 2609 3566 1747 
Q 3566 888 3137 398 
Q 2709 -91 1959 -91 
Q 1206 -91 779 398 
Q 353 888 353 1747 
Q 353 2609 779 3096 
Q 1206 3584 1959 3584 
z
" transform="scale(0.015625)"/>
      <path id="DejaVuSans-76" d="M 191 3500 
L 800 3500 
L 1894 563 
L 2988 3500 
L 3597 3500 
L 2284 0 
L 1503 0 
L 191 3500 
z
" transform="scale(0.015625)"/>
      <path id="DejaVuSans-6e" d="M 3513 2113 
L 3513 0 
L 2938 0 
L 2938 2094 
Q 2938 2591 2744 2837 
Q 2550 3084 2163 3084 
Q 1697 3084 1428 2787 
Q 1159 2491 1159 1978 
L 1159 0 
L 581 0 
L 581 3500 
L 1159 3500 
L 1159 2956 
Q 1366 3272 1645 3428 
Q 1925 3584 2291 3584 
Q 2894 3584 3203 3211 
Q 3513 2838 3513 2113 
z
" transform="scale(0.015625)"/>
      <path id="DejaVuSans-69" d="M 603 3500 
L 1178 3500 
L 1178 0 
L 603 0 
L 603 3500 
z
M 603 4863 
L 1178 4863 
L 1178 4134 
L 603 4134 
L 603 4863 
z
" transform="scale(0.015625)"/>
     </defs>
     <use xlink:href="#DejaVuSans-44"/>
     <use xlink:href="#DejaVuSans-65" transform="translate(77.001953 0)"/>
     <use xlink:href="#DejaVuSans-10d" transform="translate(138.525391 0)"/>
     <use xlink:href="#DejaVuSans-65" transform="translate(193.505859 0)"/>
     <use xlink:href="#DejaVuSans-6b" transform="translate(255.029297 0)"/>
     <use xlink:href="#DejaVuSans-20" transform="translate(312.939453 0)"/>
     <use xlink:href="#DejaVuSans-10d" transform="translate(344.726562 0)"/>
     <use xlink:href="#DejaVuSans-61" transform="translate(399.707031 0)"/>
     <use xlink:href="#DejaVuSans-72" transform="translate(460.986328 0)"/>
     <use xlink:href="#DejaVuSans-6f" transform="translate(499.849609 0)"/>
     <use xlink:href="#DejaVuSans-76" transform="translate(561.03125 0)"/>
     <use xlink:href="#DejaVuSans-6e" transform="translate(620.210938 0)"/>
     <use xlink:href="#DejaVuSans-69" transform="translate(683.589844 0)"/>
     <use xlink:href="#DejaVuSans-6b" transform="translate(711.373047 0)"/>
    </g>
   </g>
   <g id="text_2">
    <!-- Pametna 훾arovnica -->
    <g transform="translate(235.329124 260.448768) scale(0.09 -0.09)">
     <defs>
      <path id="DejaVuSans-50" d="M 1259 4147 
L 1259 2394 
L 2053 2394 
Q 2494 2394 2734 2622 
Q 2975 2850 2975 3272 
Q 2975 3691 2734 3919 
Q 2494 4147 2053 4147 
L 1259 4147 
z
M 628 4666 
L 2053 4666 
Q 2838 4666 3239 4311 
Q 3641 3956 3641 3272 
Q 3641 2581 3239 2228 
Q 2838 1875 2053 1875 
L 1259 1875 
L 1259 0 
L 628 0 
L 628 4666 
z
" transform="scale(0.015625)"/>
      <path id="DejaVuSans-6d" d="M 3328 2828 
Q 3544 3216 3844 3400 
Q 4144 3584 4550 3584 
Q 5097 3584 5394 3201 
Q 5691 2819 5691 2113 
L 5691 0 
L 5113 0 
L 5113 2094 
Q 5113 2597 4934 2840 
Q 4756 3084 4391 3084 
Q 3944 3084 3684 2787 
Q 3425 2491 3425 1978 
L 3425 0 
L 2847 0 
L 2847 2094 
Q 2847 2600 2669 2842 
Q 2491 3084 2119 3084 
Q 1678 3084 1418 2786 
Q 1159 2488 1159 1978 
L 1159 0 
L 581 0 
L 581 3500 
L 1159 3500 
L 1159 2956 
Q 1356 3278 1631 3431 
Q 1906 3584 2284 3584 
Q 2666 3584 2933 3390 
Q 3200 3197 3328 2828 
z
" transform="scale(0.015625)"/>
      <path id="DejaVuSans-74" d="M 1172 4494 
L 1172 3500 
L 2356 3500 
L 2356 3053 
L 1172 3053 
L 1172 1153 
Q 1172 725 1289 603 
Q 1406 481 1766 481 
L 2356 481 
L 2356 0 
L 1766 0 
Q 1100 0 847 248 
Q 594 497 594 1153 
L 594 3053 
L 172 3053 
L 172 3500 
L 594 3500 
L 594 4494 
L 1172 4494 
z
" transform="scale(0.015625)"/>
      <path id="DejaVuSans-63" d="M 3122 3366 
L 3122 2828 
Q 2878 2963 2633 3030 
Q 2388 3097 2138 3097 
Q 1578 3097 1268 2742 
Q 959 2388 959 1747 
Q 959 1106 1268 751 
Q 1578 397 2138 397 
Q 2388 397 2633 464 
Q 2878 531 3122 666 
L 3122 134 
Q 2881 22 2623 -34 
Q 2366 -91 2075 -91 
Q 1284 -91 818 406 
Q 353 903 353 1747 
Q 353 2603 823 3093 
Q 1294 3584 2113 3584 
Q 2378 3584 2631 3529 
Q 2884 3475 3122 3366 
z
" transform="scale(0.015625)"/>
     </defs>
     <use xlink:href="#DejaVuSans-50"/>
     <use xlink:href="#DejaVuSans-61" transform="translate(55.802734 0)"/>
     <use xlink:href="#DejaVuSans-6d" transform="translate(117.082031 0)"/>
     <use xlink:href="#DejaVuSans-65" transform="translate(214.494141 0)"/>
     <use xlink:href="#DejaVuSans-74" transform="translate(276.017578 0)"/>
     <use xlink:href="#DejaVuSans-6e" transform="translate(315.226562 0)"/>
     <use xlink:href="#DejaVuSans-61" transform="translate(378.605469 0)"/>
     <use xlink:href="#DejaVuSans-20" transform="translate(439.884766 0)"/>
     <use xlink:href="#DejaVuSans-10d" transform="translate(471.671875 0)"/>
     <use xlink:href="#DejaVuSans-61" transform="translate(526.652344 0)"/>
     <use xlink:href="#DejaVuSans-72" transform="translate(587.931641 0)"/>
     <use xlink:href="#DejaVuSans-6f" transform="translate(626.794922 0)"/>
     <use xlink:href="#DejaVuSans-76" transform="translate(687.976562 0)"/>
     <use xlink:href="#DejaVuSans-6e" transform="translate(747.15625 0)"/>
     <use xlink:href="#DejaVuSans-69" transform="translate(810.535156 0)"/>
     <use xlink:href="#DejaVuSans-63" transform="translate(838.318359 0)"/>
     <use xlink:href="#DejaVuSans-61" transform="translate(893.298828 0)"/>
    </g>
   </g>
   <g id="text_3">
    <!-- Modri ravnatelj -->
    <g transform="translate(207.939329 99.947911) scale(0.09 -0.09)">
     <defs>
      <path id="DejaVuSans-4d" d="M 628 4666 
L 1569 4666 
L 2759 1491 
L 3956 4666 
L 4897 4666 
L 4897 0 
L 4281 0 
L 4281 4097 
L 3078 897 
L 2444 897 
L 1241 4097 
L 1241 0 
L 628 0 
L 628 4666 
z
" transform="scale(0.015625)"/>
      <path id="DejaVuSans-64" d="M 2906 2969 
L 2906 4863 
L 3481 4863 
L 3481 0 
L 2906 0 
L 2906 525 
Q 2725 213 2448 61 
Q 2172 -91 1784 -91 
Q 1150 -91 751 415 
Q 353 922 353 1747 
Q 353 2572 751 3078 
Q 1150 3584 1784 3584 
Q 2172 3584 2448 3432 
Q 2725 3281 2906 2969 
z
M 947 1747 
Q 947 1113 1208 752 
Q 1469 391 1925 391 
Q 2381 391 2643 752 
Q 2906 1113 2906 1747 
Q 2906 2381 2643 2742 
Q 2381 3103 1925 3103 
Q 1469 3103 1208 2742 
Q 947 2381 947 1747 
z
" transform="scale(0.015625)"/>
      <path id="DejaVuSans-6c" d="M 603 4863 
L 1178 4863 
L 1178 0 
L 603 0 
L 603 4863 
z
" transform="scale(0.015625)"/>
      <path id="DejaVuSans-6a" d="M 603 3500 
L 1178 3500 
L 1178 -63 
Q 1178 -731 923 -1031 
Q 669 -1331 103 -1331 
L -116 -1331 
L -116 -844 
L 38 -844 
Q 366 -844 484 -692 
Q 603 -541 603 -63 
L 603 3500 
z
M 603 4863 
L 1178 4863 
L 1178 4134 
L 603 4134 
L 603 4863 
z
" transform="scale(0.015625)"/>
     </defs>
     <use xlink:href="#DejaVuSans-4d"/>
     <use xlink:href="#DejaVuSans-6f" transform="translate(86.279297 0)"/>
     <use xlink:href="#DejaVuSans-64" transform="translate(147.460938 0)"/>
     <use xlink:href="#DejaVuSans-72" transform="translate(210.9375 0)"/>
     <use xlink:href="#DejaVuSans-69" transform="translate(252.050781 0)"/>
     <use xlink:href="#DejaVuSans-20" transform="translate(279.833984 0)"/>
     <use xlink:href="#DejaVuSans-72" transform="translate(311.621094 0)"/>
     <use xlink:href="#DejaVuSans-61" transform="translate(352.734375 0)"/>
     <use xlink:href="#DejaVuSans-76" transform="translate(414.013672 0)"/>
     <use xlink:href="#DejaVuSans-6e" transform="translate(473.193359 0)"/>
     <use xlink:href="#DejaVuSans-61" transform="translate(536.572266 0)"/>
     <use xlink:href="#DejaVuSans-74" transform="translate(597.851562 0)"/>
     <use xlink:href="#DejaVuSans-65" transform="translate(637.060547 0)"/>
     <use xlink:href="#DejaVuSans-6c" transform="translate(698.583984 0)"/>
     <use xlink:href="#DejaVuSans-6a" transform="translate(726.367188 0)"/>
    </g>
   </g>
   <g id="text_4">
    <!-- Mladi pilot -->
    <g transform="translate(362.399893 157.911723) scale(0.09 -0.09)">
     <defs>
      <path id="DejaVuSans-70" d="M 1159 525 
L 1159 -1331 
L 581 -1331 
L 581 3500 
L 1159 3500 
L 1159 2969 
Q 1341 3281 1617 3432 
Q 1894 3584 2278 3584 
Q 2916 3584 3314 3078 
Q 3713 2572 3713 1747 
Q 3713 922 3314 415 
Q 2916 -91 2278 -91 
Q 1894 -91 1617 61 
Q 1341 213 1159 525 
z
M 3116 1747 
Q 3116 2381 2855 2742 
Q 2594 3103 2138 3103 
Q 1681 3103 1420 2742 
Q 1159 2381 1159 1747 
Q 1159 1113 1420 752 
Q 1681 391 2138 391 
Q 2594 391 2855 752 
Q 3116 1113 3116 1747 
z
" transform="scale(0.015625)"/>
     </defs>
     <use xlink:href="#DejaVuSans-4d"/>
     <use xlink:href="#DejaVuSans-6c" transform="translate(86.279297 0)"/>
     <use xlink:href="#DejaVuSans-61" transform="translate(114.0625 0)"/>
     <use xlink:href="#DejaVuSans-64" transform="translate(175.341797 0)"/>
     <use xlink:href="#DejaVuSans-69" transform="translate(238.818359 0)"/>
     <use xlink:href="#DejaVuSans-20" transform="translate(266.601562 0)"/>
     <use xlink:href="#DejaVuSans-70" transform="translate(298.388672 0)"/>
     <use xlink:href="#DejaVuSans-69" transform="translate(361.865234 0)"/>
     <use xlink:href="#DejaVuSans-6c" transform="translate(389.648438 0)"/>
     <use xlink:href="#DejaVuSans-6f" transform="translate(417.431641 0)"/>
     <use xlink:href="#DejaVuSans-74" transform="translate(478.613281 0)"/>
    </g>
   </g>
   <g id="text_5">
    <!-- Tihotapec -->
    <g transform="translate(161.485929 305.472603) scale(0.09 -0.09)">
     <defs>
      <path id="DejaVuSans-54" d="M -19 4666 
L 3928 4666 
L 3928 4134 
L 2272 4134 
L 2272 0 
L 1638 0 
L 1638 4134 
L -19 4134 
L -19 4666 
z
" transform="scale(0.015625)"/>
      <path id="DejaVuSans-68" d="M 3513 2113 
L 3513 0 
L 2938 0 
L 2938 2094 
Q 2938 2591 2744 2837 
Q 2550 3084 2163 3084 
Q 1697 3084 1428 2787 
Q 1159 2491 1159 1978 
L 1159 0 
L 581 0 
L 581 4863 
L 1159 4863 
L 1159 2956 
Q 1366 3272 1645 3428 
Q 1925 3584 2291 3584 
Q 2894 3584 3203 3211 
Q 3513 2838 3513 2113 
z
" transform="scale(0.015625)"/>
     </defs>
     <use xlink:href="#DejaVuSans-54"/>
     <use xlink:href="#DejaVuSans-69" transform="translate(57.958984 0)"/>
     <use xlink:href="#DejaVuSans-68" transform="translate(85.742188 0)"/>
     <use xlink:href="#DejaVuSans-6f" transform="translate(149.121094 0)"/>
     <use xlink:href="#DejaVuSans-74" transform="translate(210.302734 0)"/>
     <use xlink:href="#DejaVuSans-61" transform="translate(249.511719 0)"/>
     <use xlink:href="#DejaVuSans-70" transform="translate(310.791016 0)"/>
     <use xlink:href="#DejaVuSans-65" transform="translate(374.267578 0)"/>
     <use xlink:href="#DejaVuSans-63" transform="translate(435.791016 0)"/>
    </g>
   </g>
   <g id="text_6">
    <!-- Zeleni mojster -->
    <g transform="translate(58.075873 77.568617) scale(0.09 -0.09)">
     <defs>
      <path id="DejaVuSans-5a" d="M 359 4666 
L 4025 4666 
L 4025 4184 
L 1075 531 
L 4097 531 
L 4097 0 
L 288 0 
L 288 481 
L 3238 4134 
L 359 4134 
L 359 4666 
z
" transform="scale(0.015625)"/>
      <path id="DejaVuSans-73" d="M 2834 3397 
L 2834 2853 
Q 2591 2978 2328 3040 
Q 2066 3103 1784 3103 
Q 1356 3103 1142 2972 
Q 928 2841 928 2578 
Q 928 2378 1081 2264 
Q 1234 2150 1697 2047 
L 1894 2003 
Q 2506 1872 2764 1633 
Q 3022 1394 3022 966 
Q 3022 478 2636 193 
Q 2250 -91 1575 -91 
Q 1294 -91 989 -36 
Q 684 19 347 128 
L 347 722 
Q 666 556 975 473 
Q 1284 391 1588 391 
Q 1994 391 2212 530 
Q 2431 669 2431 922 
Q 2431 1156 2273 1281 
Q 2116 1406 1581 1522 
L 1381 1569 
Q 847 1681 609 1914 
Q 372 2147 372 2553 
Q 372 3047 722 3315 
Q 1072 3584 1716 3584 
Q 2034 3584 2315 3537 
Q 2597 3491 2834 3397 
z
" transform="scale(0.015625)"/>
     </defs>
     <use xlink:href="#DejaVuSans-5a"/>
     <use xlink:href="#DejaVuSans-65" transform="translate(68.505859 0)"/>
     <use xlink:href="#DejaVuSans-6c" transform="translate(130.029297 0)"/>
     <use xlink:href="#DejaVuSans-65" transform="translate(157.8125 0)"/>
     <use xlink:href="#DejaVuSans-6e" transform="translate(219.335938 0)"/>
     <use xlink:href="#DejaVuSans-69" transform="translate(282.714844 0)"/>
     <use xlink:href="#DejaVuSans-20" transform="translate(310.498047 0)"/>
     <use xlink:href="#DejaVuSans-6d" transform="translate(342.285156 0)"/>
     <use xlink:href="#DejaVuSans-6f" transform="translate(439.697266 0)"/>
     <use xlink:href="#DejaVuSans-6a" transform="translate(500.878906 0)"/>
     <use xlink:href="#DejaVuSans-73" transform="translate(528.662109 0)"/>
     <use xlink:href="#DejaVuSans-74" transform="translate(580.761719 0)"/>
     <use xlink:href="#DejaVuSans-65" transform="translate(619.970703 0)"/>
     <use xlink:href="#DejaVuSans-72" transform="translate(681.494141 0)"/>
    </g>
   </g>
   <g id="text_7">
    <!-- Nosilec prstana -->
    <g transform="translate(70.816054 296.931128) scale(0.09 -0.09)">
     <defs>
      <path id="DejaVuSans-4e" d="M 628 4666 
L 1478 4666 
L 3547 763 
L 3547 4666 
L 4159 4666 
L 4159 0 
L 3309 0 
L 1241 3903 
L 1241 0 
L 628 0 
L 628 4666 
z
" transform="scale(0.015625)"/>
     </defs>
     <use xlink:href="#DejaVuSans-4e"/>
     <use xlink:href="#DejaVuSans-6f" transform="translate(74.804688 0)"/>
     <use xlink:href="#DejaVuSans-73" transform="translate(135.986328 0)"/>
     <use xlink:href="#DejaVuSans-69" transform="translate(188.085938 0)"/>
     <use xlink:href="#DejaVuSans-6c" transform="translate(215.869141 0)"/>
     <use xlink:href="#DejaVuSans-65" transform="translate(243.652344 0)"/>
     <use xlink:href="#DejaVuSans-63" transform="translate(305.175781 0)"/>
     <use xlink:href="#DejaVuSans-20" transform="translate(360.15625 0)"/>
     <use xlink:href="#DejaVuSans-70" transform="translate(391.943359 0)"/>
     <use xlink:href="#DejaVuSans-72" transform="translate(455.419922 0)"/>
     <use xlink:href="#DejaVuSans-73" transform="translate(496.533203 0)"/>
     <use xlink:href="#DejaVuSans-74" transform="translate(548.632812 0)"/>
     <use xlink:href="#DejaVuSans-61" transform="translate(587.841797 0)"/>
     <use xlink:href="#DejaVuSans-6e" transform="translate(649.121094 0)"/>
     <use xlink:href="#DejaVuSans-61" transform="translate(712.5 0)"/>
    </g>
   </g>
   <g id="text_8">
    <!-- Sivi 훾arovnik -->
    <g transform="translate(202.12302 165.133303) scale(0.09 -0.09)">
     <defs>
      <path id="DejaVuSans-53" d="M 3425 4513 
L 3425 3897 
Q 3066 4069 2747 4153 
Q 2428 4238 2131 4238 
Q 1616 4238 1336 4038 
Q 1056 3838 1056 3469 
Q 1056 3159 1242 3001 
Q 1428 2844 1947 2747 
L 2328 2669 
Q 3034 2534 3370 2195 
Q 3706 1856 3706 1288 
Q 3706 609 3251 259 
Q 2797 -91 1919 -91 
Q 1588 -91 1214 -16 
Q 841 59 441 206 
L 441 856 
Q 825 641 1194 531 
Q 1563 422 1919 422 
Q 2459 422 2753 634 
Q 3047 847 3047 1241 
Q 3047 1584 2836 1778 
Q 2625 1972 2144 2069 
L 1759 2144 
Q 1053 2284 737 2584 
Q 422 2884 422 3419 
Q 422 4038 858 4394 
Q 1294 4750 2059 4750 
Q 2388 4750 2728 4690 
Q 3069 4631 3425 4513 
z
" transform="scale(0.015625)"/>
     </defs>
     <use xlink:href="#DejaVuSans-53"/>
     <use xlink:href="#DejaVuSans-69" transform="translate(63.476562 0)"/>
     <use xlink:href="#DejaVuSans-76" transform="translate(91.259766 0)"/>
     <use xlink:href="#DejaVuSans-69" transform="translate(150.439453 0)"/>
     <use xlink:href="#DejaVuSans-20" transform="translate(178.222656 0)"/>
     <use xlink:href="#DejaVuSans-10d" transform="translate(210.009766 0)"/>
     <use xlink:href="#DejaVuSans-61" transform="translate(264.990234 0)"/>
     <use xlink:href="#DejaVuSans-72" transform="translate(326.269531 0)"/>
     <use xlink:href="#DejaVuSans-6f" transform="translate(365.132812 0)"/>
     <use xlink:href="#DejaVuSans-76" transform="translate(426.314453 0)"/>
     <use xlink:href="#DejaVuSans-6e" transform="translate(485.494141 0)"/>
     <use xlink:href="#DejaVuSans-69" transform="translate(548.873047 0)"/>
     <use xlink:href="#DejaVuSans-6b" transform="translate(576.65625 0)"/>
    </g>
   </g>
   <g id="text_9">
    <!-- Postopa훾 -->
    <g transform="translate(197.668171 33.416602) scale(0.09 -0.09)">
     <use xlink:href="#DejaVuSans-50"/>
     <use xlink:href="#DejaVuSans-6f" transform="translate(56.677734 0)"/>
     <use xlink:href="#DejaVuSans-73" transform="translate(117.859375 0)"/>
     <use xlink:href="#DejaVuSans-74" transform="translate(169.958984 0)"/>
     <use xlink:href="#DejaVuSans-6f" transform="translate(209.167969 0)"/>
     <use xlink:href="#DejaVuSans-70" transform="translate(270.349609 0)"/>
     <use xlink:href="#DejaVuSans-61" transform="translate(333.826172 0)"/>
     <use xlink:href="#DejaVuSans-10d" transform="translate(395.105469 0)"/>
    </g>
   </g>
   <g id="text_10">
    <!-- Vilinski lokostrelec -->
    <g transform="translate(94.940578 200.672139) scale(0.09 -0.09)">
     <defs>
      <path id="DejaVuSans-56" d="M 1831 0 
L 50 4666 
L 709 4666 
L 2188 738 
L 3669 4666 
L 4325 4666 
L 2547 0 
L 1831 0 
z
" transform="scale(0.015625)"/>
     </defs>
     <use xlink:href="#DejaVuSans-56"/>
     <use xlink:href="#DejaVuSans-69" transform="translate(66.158203 0)"/>
     <use xlink:href="#DejaVuSans-6c" transform="translate(93.941406 0)"/>
     <use xlink:href="#DejaVuSans-69" transform="translate(121.724609 0)"/>
     <use xlink:href="#DejaVuSans-6e" transform="translate(149.507812 0)"/>
     <use xlink:href="#DejaVuSans-73" transform="translate(212.886719 0)"/>
     <use xlink:href="#DejaVuSans-6b" transform="translate(264.986328 0)"/>
     <use xlink:href="#DejaVuSans-69" transform="translate(322.896484 0)"/>
     <use xlink:href="#DejaVuSans-20" transform="translate(350.679688 0)"/>
     <use xlink:href="#DejaVuSans-6c" transform="translate(382.466797 0)"/>
     <use xlink:href="#DejaVuSans-6f" transform="translate(410.25 0)"/>
     <use xlink:href="#DejaVuSans-6b" transform="translate(471.431641 0)"/>
     <use xlink:href="#DejaVuSans-6f" transform="translate(525.716797 0)"/>
     <use xlink:href="#DejaVuSans-73" transform="translate(586.898438 0)"/>
     <use xlink:href="#DejaVuSans-74" transform="translate(638.998047 0)"/>
     <use xlink:href="#DejaVuSans-72" transform="translate(678.207031 0)"/>
     <use xlink:href="#DejaVuSans-65" transform="translate(717.070312 0)"/>
     <use xlink:href="#DejaVuSans-6c" transform="translate(778.59375 0)"/>
     <use xlink:href="#DejaVuSans-65" transform="translate(806.376953 0)"/>
     <use xlink:href="#DejaVuSans-63" transform="translate(867.900391 0)"/>
    </g>
   </g>
   <g id="text_11">
    <!-- 힋kratovski bojevnik -->
    <g transform="translate(199.011648 212.985634) scale(0.09 -0.09)">
     <defs>
      <path id="DejaVuSans-160" d="M 3425 4513 
L 3425 3897 
Q 3066 4069 2747 4153 
Q 2428 4238 2131 4238 
Q 1616 4238 1336 4038 
Q 1056 3838 1056 3469 
Q 1056 3159 1242 3001 
Q 1428 2844 1947 2747 
L 2328 2669 
Q 3034 2534 3370 2195 
Q 3706 1856 3706 1288 
Q 3706 609 3251 259 
Q 2797 -91 1919 -91 
Q 1588 -91 1214 -16 
Q 841 59 441 206 
L 441 856 
Q 825 641 1194 531 
Q 1563 422 1919 422 
Q 2459 422 2753 634 
Q 3047 847 3047 1241 
Q 3047 1584 2836 1778 
Q 2625 1972 2144 2069 
L 1759 2144 
Q 1053 2284 737 2584 
Q 422 2884 422 3419 
Q 422 4038 858 4394 
Q 1294 4750 2059 4750 
Q 2388 4750 2728 4690 
Q 3069 4631 3425 4513 
z
M 1738 5096 
L 1079 5927 
L 1513 5927 
L 2032 5371 
L 2551 5927 
L 2985 5927 
L 2326 5096 
L 1738 5096 
z
" transform="scale(0.015625)"/>
      <path id="DejaVuSans-62" d="M 3116 1747 
Q 3116 2381 2855 2742 
Q 2594 3103 2138 3103 
Q 1681 3103 1420 2742 
Q 1159 2381 1159 1747 
Q 1159 1113 1420 752 
Q 1681 391 2138 391 
Q 2594 391 2855 752 
Q 3116 1113 3116 1747 
z
M 1159 2969 
Q 1341 3281 1617 3432 
Q 1894 3584 2278 3584 
Q 2916 3584 3314 3078 
Q 3713 2572 3713 1747 
Q 3713 922 3314 415 
Q 2916 -91 2278 -91 
Q 1894 -91 1617 61 
Q 1341 213 1159 525 
L 1159 0 
L 581 0 
L 581 4863 
L 1159 4863 
L 1159 2969 
z
" transform="scale(0.015625)"/>
     </defs>
     <use xlink:href="#DejaVuSans-160"/>
     <use xlink:href="#DejaVuSans-6b" transform="translate(63.476562 0)"/>
     <use xlink:href="#DejaVuSans-72" transform="translate(121.386719 0)"/>
     <use xlink:href="#DejaVuSans-61" transform="translate(162.5 0)"/>
     <use xlink:href="#DejaVuSans-74" transform="translate(223.779297 0)"/>
     <use xlink:href="#DejaVuSans-6f" transform="translate(262.988281 0)"/>
     <use xlink:href="#DejaVuSans-76" transform="translate(324.169922 0)"/>
     <use xlink:href="#DejaVuSans-73" transform="translate(383.349609 0)"/>
     <use xlink:href="#DejaVuSans-6b" transform="translate(435.449219 0)"/>
     <use xlink:href="#DejaVuSans-69" transform="translate(493.359375 0)"/>
     <use xlink:href="#DejaVuSans-20" transform="translate(521.142578 0)"/>
     <use xlink:href="#DejaVuSans-62" transform="translate(552.929688 0)"/>
     <use xlink:href="#DejaVuSans-6f" transform="translate(616.40625 0)"/>
     <use xlink:href="#DejaVuSans-6a" transform="translate(677.587891 0)"/>
     <use xlink:href="#DejaVuSans-65" transform="translate(705.371094 0)"/>
     <use xlink:href="#DejaVuSans-76" transform="translate(766.894531 0)"/>
     <use xlink:href="#DejaVuSans-6e" transform="translate(826.074219 0)"/>
     <use xlink:href="#DejaVuSans-69" transform="translate(889.453125 0)"/>
     <use xlink:href="#DejaVuSans-6b" transform="translate(917.236328 0)"/>
    </g>
   </g>
   <g id="text_12">
    <!-- Zvesti robot -->
    <g transform="translate(155.612809 170.410604) scale(0.09 -0.09)">
     <use xlink:href="#DejaVuSans-5a"/>
     <use xlink:href="#DejaVuSans-76" transform="translate(68.505859 0)"/>
     <use xlink:href="#DejaVuSans-65" transform="translate(127.685547 0)"/>
     <use xlink:href="#DejaVuSans-73" transform="translate(189.208984 0)"/>
     <use xlink:href="#DejaVuSans-74" transform="translate(241.308594 0)"/>
     <use xlink:href="#DejaVuSans-69" transform="translate(280.517578 0)"/>
     <use xlink:href="#DejaVuSans-20" transform="translate(308.300781 0)"/>
     <use xlink:href="#DejaVuSans-72" transform="translate(340.087891 0)"/>
     <use xlink:href="#DejaVuSans-6f" transform="translate(378.951172 0)"/>
     <use xlink:href="#DejaVuSans-62" transform="translate(440.132812 0)"/>
     <use xlink:href="#DejaVuSans-6f" transform="translate(503.609375 0)"/>
     <use xlink:href="#DejaVuSans-74" transform="translate(564.791016 0)"/>
    </g>
   </g>
   <g id="text_13">
    <!-- Voditeljica upora -->
    <g transform="translate(328.626561 325.578662) scale(0.09 -0.09)">
     <defs>
      <path id="DejaVuSans-75" d="M 544 1381 
L 544 3500 
L 1119 3500 
L 1119 1403 
Q 1119 906 1312 657 
Q 1506 409 1894 409 
Q 2359 409 2629 706 
Q 2900 1003 2900 1516 
L 2900 3500 
L 3475 3500 
L 3475 0 
L 2900 0 
L 2900 538 
Q 2691 219 2414 64 
Q 2138 -91 1772 -91 
Q 1169 -91 856 284 
Q 544 659 544 1381 
z
M 1991 3584 
L 1991 3584 
z
" transform="scale(0.015625)"/>
     </defs>
     <use xlink:href="#DejaVuSans-56"/>
     <use xlink:href="#DejaVuSans-6f" transform="translate(60.658203 0)"/>
     <use xlink:href="#DejaVuSans-64" transform="translate(121.839844 0)"/>
     <use xlink:href="#DejaVuSans-69" transform="translate(185.316406 0)"/>
     <use xlink:href="#DejaVuSans-74" transform="translate(213.099609 0)"/>
     <use xlink:href="#DejaVuSans-65" transform="translate(252.308594 0)"/>
     <use xlink:href="#DejaVuSans-6c" transform="translate(313.832031 0)"/>
     <use xlink:href="#DejaVuSans-6a" transform="translate(341.615234 0)"/>
     <use xlink:href="#DejaVuSans-69" transform="translate(369.398438 0)"/>
     <use xlink:href="#DejaVuSans-63" transform="translate(397.181641 0)"/>
     <use xlink:href="#DejaVuSans-61" transform="translate(452.162109 0)"/>
     <use xlink:href="#DejaVuSans-20" transform="translate(513.441406 0)"/>
     <use xlink:href="#DejaVuSans-75" transform="translate(545.228516 0)"/>
     <use xlink:href="#DejaVuSans-70" transform="translate(608.607422 0)"/>
     <use xlink:href="#DejaVuSans-6f" transform="translate(672.083984 0)"/>
     <use xlink:href="#DejaVuSans-72" transform="translate(733.265625 0)"/>
     <use xlink:href="#DejaVuSans-61" transform="translate(774.378906 0)"/>
    </g>
   </g>
   <g id="text_14">
    <!-- Temni vitez -->
    <g transform="translate(199.183693 212.997665) scale(0.09 -0.09)">
     <defs>
      <path id="DejaVuSans-7a" d="M 353 3500 
L 3084 3500 
L 3084 2975 
L 922 459 
L 3084 459 
L 3084 0 
L 275 0 
L 275 525 
L 2438 3041 
L 353 3041 
L 353 3500 
z
" transform="scale(0.015625)"/>
     </defs>
     <use xlink:href="#DejaVuSans-54"/>
     <use xlink:href="#DejaVuSans-65" transform="translate(44.083984 0)"/>
     <use xlink:href="#DejaVuSans-6d" transform="translate(105.607422 0)"/>
     <use xlink:href="#DejaVuSans-6e" transform="translate(203.019531 0)"/>
     <use xlink:href="#DejaVuSans-69" transform="translate(266.398438 0)"/>
     <use xlink:href="#DejaVuSans-20" transform="translate(294.181641 0)"/>
     <use xlink:href="#DejaVuSans-76" transform="translate(325.96875 0)"/>
     <use xlink:href="#DejaVuSans-69" transform="translate(385.148438 0)"/>
     <use xlink:href="#DejaVuSans-74" transform="translate(412.931641 0)"/>
     <use xlink:href="#DejaVuSans-65" transform="translate(452.140625 0)"/>
     <use xlink:href="#DejaVuSans-7a" transform="translate(513.664062 0)"/>
    </g>
   </g>
   <g id="text_15">
    <!-- Zvesti prijatelj -->
    <g transform="translate(265.379996 188.45507) scale(0.09 -0.09)">
     <use xlink:href="#DejaVuSans-5a"/>
     <use xlink:href="#DejaVuSans-76" transform="translate(68.505859 0)"/>
     <use xlink:href="#DejaVuSans-65" transform="translate(127.685547 0)"/>
     <use xlink:href="#DejaVuSans-73" transform="translate(189.208984 0)"/>
     <use xlink:href="#DejaVuSans-74" transform="translate(241.308594 0)"/>
     <use xlink:href="#DejaVuSans-69" transform="translate(280.517578 0)"/>
     <use xlink:href="#DejaVuSans-20" transform="translate(308.300781 0)"/>
     <use xlink:href="#DejaVuSans-70" transform="translate(340.087891 0)"/>
     <use xlink:href="#DejaVuSans-72" transform="translate(403.564453 0)"/>
     <use xlink:href="#DejaVuSans-69" transform="translate(444.677734 0)"/>
     <use xlink:href="#DejaVuSans-6a" transform="translate(472.460938 0)"/>
     <use xlink:href="#DejaVuSans-61" transform="translate(500.244141 0)"/>
     <use xlink:href="#DejaVuSans-74" transform="translate(561.523438 0)"/>
     <use xlink:href="#DejaVuSans-65" transform="translate(600.732422 0)"/>
     <use xlink:href="#DejaVuSans-6c" transform="translate(662.255859 0)"/>
     <use xlink:href="#DejaVuSans-6a" transform="translate(690.039062 0)"/>
    </g>
   </g>
   <g id="text_16">
    <!-- Zlati robot -->
    <g transform="translate(7.2 194.662589) scale(0.09 -0.09)">
     <use xlink:href="#DejaVuSans-5a"/>
     <use xlink:href="#DejaVuSans-6c" transform="translate(68.505859 0)"/>
     <use xlink:href="#DejaVuSans-61" transform="translate(96.289062 0)"/>
     <use xlink:href="#DejaVuSans-74" transform="translate(157.568359 0)"/>
     <use xlink:href="#DejaVuSans-69" transform="translate(196.777344 0)"/>
     <use xlink:href="#DejaVuSans-20" transform="translate(224.560547 0)"/>
     <use xlink:href="#DejaVuSans-72" transform="translate(256.347656 0)"/>
     <use xlink:href="#DejaVuSans-6f" transform="translate(295.210938 0)"/>
     <use xlink:href="#DejaVuSans-62" transform="translate(356.392578 0)"/>
     <use xlink:href="#DejaVuSans-6f" transform="translate(419.869141 0)"/>
     <use xlink:href="#DejaVuSans-74" transform="translate(481.050781 0)"/>
    </g>
   </g>
   <g id="text_17">
    <!-- Prebrisani u훾itelj -->
    <g transform="translate(203.490114 373.687122) scale(0.09 -0.09)">
     <use xlink:href="#DejaVuSans-50"/>
     <use xlink:href="#DejaVuSans-72" transform="translate(58.552734 0)"/>
     <use xlink:href="#DejaVuSans-65" transform="translate(97.416016 0)"/>
     <use xlink:href="#DejaVuSans-62" transform="translate(158.939453 0)"/>
     <use xlink:href="#DejaVuSans-72" transform="translate(222.416016 0)"/>
     <use xlink:href="#DejaVuSans-69" transform="translate(263.529297 0)"/>
     <use xlink:href="#DejaVuSans-73" transform="translate(291.3125 0)"/>
     <use xlink:href="#DejaVuSans-61" transform="translate(343.412109 0)"/>
     <use xlink:href="#DejaVuSans-6e" transform="translate(404.691406 0)"/>
     <use xlink:href="#DejaVuSans-69" transform="translate(468.070312 0)"/>
     <use xlink:href="#DejaVuSans-20" transform="translate(495.853516 0)"/>
     <use xlink:href="#DejaVuSans-75" transform="translate(527.640625 0)"/>
     <use xlink:href="#DejaVuSans-10d" transform="translate(591.019531 0)"/>
     <use xlink:href="#DejaVuSans-69" transform="translate(646 0)"/>
     <use xlink:href="#DejaVuSans-74" transform="translate(673.783203 0)"/>
     <use xlink:href="#DejaVuSans-65" transform="translate(712.992188 0)"/>
     <use xlink:href="#DejaVuSans-6c" transform="translate(774.515625 0)"/>
     <use xlink:href="#DejaVuSans-6a" transform="translate(802.298828 0)"/>
    </g>
   </g>
   <g id="text_18">
    <!-- Pogumna princesa -->
    <g transform="translate(291.461197 20.707122) scale(0.09 -0.09)">
     <defs>
      <path id="DejaVuSans-67" d="M 2906 1791 
Q 2906 2416 2648 2759 
Q 2391 3103 1925 3103 
Q 1463 3103 1205 2759 
Q 947 2416 947 1791 
Q 947 1169 1205 825 
Q 1463 481 1925 481 
Q 2391 481 2648 825 
Q 2906 1169 2906 1791 
z
M 3481 434 
Q 3481 -459 3084 -895 
Q 2688 -1331 1869 -1331 
Q 1566 -1331 1297 -1286 
Q 1028 -1241 775 -1147 
L 775 -588 
Q 1028 -725 1275 -790 
Q 1522 -856 1778 -856 
Q 2344 -856 2625 -561 
Q 2906 -266 2906 331 
L 2906 616 
Q 2728 306 2450 153 
Q 2172 0 1784 0 
Q 1141 0 747 490 
Q 353 981 353 1791 
Q 353 2603 747 3093 
Q 1141 3584 1784 3584 
Q 2172 3584 2450 3431 
Q 2728 3278 2906 2969 
L 2906 3500 
L 3481 3500 
L 3481 434 
z
" transform="scale(0.015625)"/>
     </defs>
     <use xlink:href="#DejaVuSans-50"/>
     <use xlink:href="#DejaVuSans-6f" transform="translate(56.677734 0)"/>
     <use xlink:href="#DejaVuSans-67" transform="translate(117.859375 0)"/>
     <use xlink:href="#DejaVuSans-75" transform="translate(181.335938 0)"/>
     <use xlink:href="#DejaVuSans-6d" transform="translate(244.714844 0)"/>
     <use xlink:href="#DejaVuSans-6e" transform="translate(342.126953 0)"/>
     <use xlink:href="#DejaVuSans-61" transform="translate(405.505859 0)"/>
     <use xlink:href="#DejaVuSans-20" transform="translate(466.785156 0)"/>
     <use xlink:href="#DejaVuSans-70" transform="translate(498.572266 0)"/>
     <use xlink:href="#DejaVuSans-72" transform="translate(562.048828 0)"/>
     <use xlink:href="#DejaVuSans-69" transform="translate(603.162109 0)"/>
     <use xlink:href="#DejaVuSans-6e" transform="translate(630.945312 0)"/>
     <use xlink:href="#DejaVuSans-63" transform="translate(694.324219 0)"/>
     <use xlink:href="#DejaVuSans-65" transform="translate(749.304688 0)"/>
     <use xlink:href="#DejaVuSans-73" transform="translate(810.828125 0)"/>
     <use xlink:href="#DejaVuSans-61" transform="translate(862.927734 0)"/>
    </g>
   </g>
   <g id="text_19">
    <!-- TU STE VI -->
    <g style="fill: #003a6e" transform="translate(339.444602 233.295829) scale(0.1 -0.1)">
     <defs>
      <path id="DejaVuSans-BoldOblique-54" d="M 488 4666 
L 4788 4666 
L 4609 3756 
L 3059 3756 
L 2328 0 
L 1125 0 
L 1856 3756 
L 306 3756 
L 488 4666 
z
" transform="scale(0.015625)"/>
      <path id="DejaVuSans-BoldOblique-55" d="M 1044 4666 
L 2247 4666 
L 1703 1872 
Q 1672 1722 1658 1606 
Q 1644 1491 1644 1403 
Q 1644 1097 1808 945 
Q 1972 794 2297 794 
Q 2734 794 2968 1039 
Q 3203 1284 3316 1869 
L 3859 4666 
L 5063 4666 
L 4519 1869 
Q 4316 838 3748 373 
Q 3181 -91 2125 -91 
Q 1297 -91 865 264 
Q 434 619 434 1294 
Q 434 1406 450 1545 
Q 466 1684 500 1869 
L 1044 4666 
z
" transform="scale(0.015625)"/>
      <path id="DejaVuSans-BoldOblique-20" transform="scale(0.015625)"/>
      <path id="DejaVuSans-BoldOblique-53" d="M 4256 4519 
L 4063 3531 
Q 3709 3706 3365 3792 
Q 3022 3878 2694 3878 
Q 2244 3878 1992 3737 
Q 1741 3597 1741 3347 
Q 1741 3188 1852 3098 
Q 1963 3009 2309 2925 
L 2803 2803 
Q 3422 2647 3711 2351 
Q 4000 2056 4000 1588 
Q 4000 828 3423 368 
Q 2847 -91 1875 -91 
Q 1422 -91 973 -6 
Q 525 78 97 244 
L 288 1259 
Q 703 1019 1095 900 
Q 1488 781 1869 781 
Q 2281 781 2539 950 
Q 2797 1119 2797 1381 
Q 2797 1553 2681 1648 
Q 2566 1744 2175 1844 
L 1684 1966 
Q 1141 2100 875 2390 
Q 609 2681 609 3144 
Q 609 3872 1167 4311 
Q 1725 4750 2669 4750 
Q 3047 4750 3445 4692 
Q 3844 4634 4256 4519 
z
" transform="scale(0.015625)"/>
      <path id="DejaVuSans-BoldOblique-45" d="M 1044 4666 
L 4288 4666 
L 4109 3756 
L 2069 3756 
L 1900 2888 
L 3822 2888 
L 3641 1978 
L 1722 1978 
L 1516 909 
L 3622 909 
L 3450 0 
L 134 0 
L 1044 4666 
z
" transform="scale(0.015625)"/>
      <path id="DejaVuSans-BoldOblique-56" d="M 488 4666 
L 1631 4666 
L 2203 1178 
L 4134 4666 
L 5375 4666 
L 2741 0 
L 1306 0 
L 488 4666 
z
" transform="scale(0.015625)"/>
      <path id="DejaVuSans-BoldOblique-49" d="M 1044 4666 
L 2247 4666 
L 1338 0 
L 134 0 
L 1044 4666 
z
" transform="scale(0.015625)"/>
     </defs>
     <use xlink:href="#DejaVuSans-BoldOblique-54"/>
     <use xlink:href="#DejaVuSans-BoldOblique-55" transform="translate(68.212891 0)"/>
     <use xlink:href="#DejaVuSans-BoldOblique-20" transform="translate(149.414062 0)"/>
     <use xlink:href="#DejaVuSans-BoldOblique-53" transform="translate(184.228516 0)"/>
     <use xlink:href="#DejaVuSans-BoldOblique-54" transform="translate(256.25 0)"/>
     <use xlink:href="#DejaVuSans-BoldOblique-45" transform="translate(324.462891 0)"/>
     <use xlink:href="#DejaVuSans-BoldOblique-20" transform="translate(392.773438 0)"/>
     <use xlink:href="#DejaVuSans-BoldOblique-56" transform="translate(427.587891 0)"/>
     <use xlink:href="#DejaVuSans-BoldOblique-49" transform="translate(504.980469 0)"/>
    </g>
   </g>
  </g>
 </g>
 <defs>
  <clipPath id="pf52a62efec">
   <rect x="12.856705" y="7.2" width="390.6" height="388.08"/>
  </clipPath>
 </defs>
</svg>
