<?xml version="1.0" encoding="utf-8" standalone="no"?>
<!DOCTYPE svg PUBLIC "-//W3C//DTD SVG 1.1//EN"
  "http://www.w3.org/Graphics/SVG/1.1/DTD/svg11.dtd">
<svg xmlns:xlink="http://www.w3.org/1999/xlink" width="435.800619pt" height="402.48pt" viewBox="0 0 435.800619 402.48" xmlns="http://www.w3.org/2000/svg" version="1.1">
 <metadata>
  <rdf:RDF xmlns:dc="http://purl.org/dc/elements/1.1/" xmlns:cc="http://creativecommons.org/ns#" xmlns:rdf="http://www.w3.org/1999/02/22-rdf-syntax-ns#">
   <cc:Work>
    <dc:type rdf:resource="http://purl.org/dc/dcmitype/StillImage"/>
    <dc:date>2025-11-25T11:07:08.150102</dc:date>
    <dc:format>image/svg+xml</dc:format>
    <dc:creator>
     <cc:Agent>
      <dc:title>Matplotlib v3.10.7, https://matplotlib.org/</dc:title>
     </cc:Agent>
    </dc:creator>
   </cc:Work>
  </rdf:RDF>
 </metadata>
 <defs>
  <style type="text/css">*{stroke-linejoin: round; stroke-linecap: butt}</style>
 </defs>
 <g id="figure_1">
  <g id="patch_1">
   <path d="M 0 402.48 
L 435.800619 402.48 
L 435.800619 -0 
L 0 -0 
z
" style="fill: #ffffff"/>
  </g>
  <g id="axes_1">
   <g id="patch_2">
    <path d="M 272.679674 320.560602 
Q 240.839026 346.482514 210.159253 371.459341 
" clip-path="url(#p63eb8c4a79)" style="fill: none; stroke: #e8e8e8; stroke-width: 1.2; stroke-linecap: round"/>
    <path d="M 218.572974 369.122826 
L 210.159253 371.459341 
L 214.153551 363.694318 
z
" clip-path="url(#p63eb8c4a79)" style="fill: #e8e8e8; stroke: #e8e8e8; stroke-width: 1.2; stroke-linecap: round"/>
   </g>
   <g id="patch_3">
    <path d="M 273.800105 308.92261 
Q 242.869173 271.634564 212.893956 235.498657 
" clip-path="url(#p63eb8c4a79)" style="fill: none; stroke: #e8e8e8; stroke-width: 1.2; stroke-linecap: round"/>
    <path d="M 215.307708 243.890546 
L 212.893956 235.498657 
L 220.695365 239.421412 
z
" clip-path="url(#p63eb8c4a79)" style="fill: #e8e8e8; stroke: #e8e8e8; stroke-width: 1.2; stroke-linecap: round"/>
   </g>
   <g id="patch_4">
    <path d="M 284.585218 309.067759 
Q 331.914833 254.970552 378.258773 201.999959 
" clip-path="url(#p63eb8c4a79)" style="fill: none; stroke: #e8e8e8; stroke-width: 1.2; stroke-linecap: round"/>
    <path d="M 370.35693 205.716257 
L 378.258773 201.999959 
L 375.625229 210.325489 
z
" clip-path="url(#p63eb8c4a79)" style="fill: #e8e8e8; stroke: #e8e8e8; stroke-width: 1.2; stroke-linecap: round"/>
   </g>
   <g id="patch_5">
    <path d="M 198.977295 370.09489 
Q 135.265356 236.194138 72.196587 103.645107 
" clip-path="url(#p63eb8c4a79)" style="fill: none; stroke: #e8e8e8; stroke-width: 1.2; stroke-linecap: round"/>
    <path d="M 72.473369 112.372844 
L 72.196587 103.645107 
L 78.794315 109.365246 
z
" clip-path="url(#p63eb8c4a79)" style="fill: #e8e8e8; stroke: #e8e8e8; stroke-width: 1.2; stroke-linecap: round"/>
   </g>
   <g id="patch_6">
    <path d="M 203.165549 369.283468 
Q 207.065249 314.804964 210.858068 261.819576 
" clip-path="url(#p63eb8c4a79)" style="fill: none; stroke: #e8e8e8; stroke-width: 1.2; stroke-linecap: round"/>
    <path d="M 206.795804 269.549259 
L 210.858068 261.819576 
L 213.777938 270.049057 
z
" clip-path="url(#p63eb8c4a79)" style="fill: #e8e8e8; stroke: #e8e8e8; stroke-width: 1.2; stroke-linecap: round"/>
   </g>
   <g id="patch_7">
    <path d="M 205.884197 369.969915 
Q 237.829766 296.09658 269.181179 223.597216 
" clip-path="url(#p63eb8c4a79)" style="fill: none; stroke: #e8e8e8; stroke-width: 1.2; stroke-linecap: round"/>
    <path d="M 262.793367 229.550858 
L 269.181179 223.597216 
L 269.218355 232.329262 
z
" clip-path="url(#p63eb8c4a79)" style="fill: #e8e8e8; stroke: #e8e8e8; stroke-width: 1.2; stroke-linecap: round"/>
   </g>
   <g id="patch_8">
    <path d="M 211.936533 234.344459 
Q 242.867465 271.632505 272.842682 307.768412 
" clip-path="url(#p63eb8c4a79)" style="fill: none; stroke: #e8e8e8; stroke-width: 1.2; stroke-linecap: round"/>
    <path d="M 270.42893 299.376523 
L 272.842682 307.768412 
L 265.041273 303.845657 
z
" clip-path="url(#p63eb8c4a79)" style="fill: #e8e8e8; stroke: #e8e8e8; stroke-width: 1.2; stroke-linecap: round"/>
   </g>
   <g id="patch_9">
    <path d="M 207.837909 219.6592 
Q 209.795191 206.284391 211.535719 194.390741 
" clip-path="url(#p63eb8c4a79)" style="fill: none; stroke: #e8e8e8; stroke-width: 1.2; stroke-linecap: round"/>
    <path d="M 206.914215 201.799635 
L 211.535719 194.390741 
L 213.840443 202.813226 
z
" clip-path="url(#p63eb8c4a79)" style="fill: #e8e8e8; stroke: #e8e8e8; stroke-width: 1.2; stroke-linecap: round"/>
   </g>
   <g id="patch_10">
    <path d="M 198.485606 226.672269 
Q 160.153718 220.692217 123.300876 214.942907 
" clip-path="url(#p63eb8c4a79)" style="fill: none; stroke: #e8e8e8; stroke-width: 1.2; stroke-linecap: round"/>
    <path d="M 130.665765 219.634219 
L 123.300876 214.942907 
L 131.744764 212.717878 
z
" clip-path="url(#p63eb8c4a79)" style="fill: #e8e8e8; stroke: #e8e8e8; stroke-width: 1.2; stroke-linecap: round"/>
   </g>
   <g id="patch_11">
    <path d="M 376.886247 197.210796 
Q 298.141807 223.293568 220.818378 248.905654 
" clip-path="url(#p63eb8c4a79)" style="fill: none; stroke: #e8e8e8; stroke-width: 1.2; stroke-linecap: round"/>
    <path d="M 229.51313 249.71267 
L 220.818378 248.905654 
L 227.3121 243.067712 
z
" clip-path="url(#p63eb8c4a79)" style="fill: #e8e8e8; stroke: #e8e8e8; stroke-width: 1.2; stroke-linecap: round"/>
   </g>
   <g id="patch_12">
    <path d="M 378.819555 188.770587 
Q 299.059658 109.729384 220.363034 31.741872 
" clip-path="url(#p63eb8c4a79)" style="fill: none; stroke: #e8e8e8; stroke-width: 1.2; stroke-linecap: round"/>
    <path d="M 223.581784 39.859117 
L 220.363034 31.741872 
L 228.50908 34.887019 
z
" clip-path="url(#p63eb8c4a79)" style="fill: #e8e8e8; stroke: #e8e8e8; stroke-width: 1.2; stroke-linecap: round"/>
   </g>
   <g id="patch_13">
    <path d="M 59.368316 371.035899 
Q 218.408093 284.797436 376.131945 199.272526 
" clip-path="url(#p63eb8c4a79)" style="fill: none; stroke: #e8e8e8; stroke-width: 1.2; stroke-linecap: round"/>
    <path d="M 367.430947 200.009156 
L 376.131945 199.272526 
L 370.767678 206.16271 
z
" clip-path="url(#p63eb8c4a79)" style="fill: #e8e8e8; stroke: #e8e8e8; stroke-width: 1.2; stroke-linecap: round"/>
   </g>
   <g id="patch_14">
    <path d="M 58.553295 369.772181 
Q 103.992199 333.12752 148.265873 297.422569 
" clip-path="url(#p63eb8c4a79)" style="fill: none; stroke: #e8e8e8; stroke-width: 1.2; stroke-linecap: round"/>
    <path d="M 139.841447 299.720186 
L 148.265873 297.422569 
L 144.235742 305.169055 
z
" clip-path="url(#p63eb8c4a79)" style="fill: #e8e8e8; stroke: #e8e8e8; stroke-width: 1.2; stroke-linecap: round"/>
   </g>
   <g id="patch_15">
    <path d="M 162.807704 286.746488 
Q 214.485452 252.91676 264.910759 219.906916 
" clip-path="url(#p63eb8c4a79)" style="fill: none; stroke: #e8e8e8; stroke-width: 1.2; stroke-linecap: round"/>
    <path d="M 256.300424 221.360235 
L 264.910759 219.906916 
L 260.134379 227.216923 
z
" clip-path="url(#p63eb8c4a79)" style="fill: #e8e8e8; stroke: #e8e8e8; stroke-width: 1.2; stroke-linecap: round"/>
   </g>
   <g id="patch_16">
    <path d="M 151.903574 283.938833 
Q 134.780806 252.357329 118.371522 222.091788 
" clip-path="url(#p63eb8c4a79)" style="fill: none; stroke: #e8e8e8; stroke-width: 1.2; stroke-linecap: round"/>
    <path d="M 119.107698 230.792824 
L 118.371522 222.091788 
L 125.261426 227.456414 
z
" clip-path="url(#p63eb8c4a79)" style="fill: #e8e8e8; stroke: #e8e8e8; stroke-width: 1.2; stroke-linecap: round"/>
   </g>
   <g id="patch_17">
    <path d="M 208.789044 177.395669 
Q 195.099593 153.71482 182.159319 131.329945 
" clip-path="url(#p63eb8c4a79)" style="fill: none; stroke: #e8e8e8; stroke-width: 1.2; stroke-linecap: round"/>
    <path d="M 183.132986 140.007616 
L 182.159319 131.329945 
L 189.193245 136.504295 
z
" clip-path="url(#p63eb8c4a79)" style="fill: #e8e8e8; stroke: #e8e8e8; stroke-width: 1.2; stroke-linecap: round"/>
   </g>
   <g id="patch_18">
    <path d="M 211.75338 192.903386 
Q 209.796098 206.278195 208.05557 218.171845 
" clip-path="url(#p63eb8c4a79)" style="fill: none; stroke: #e8e8e8; stroke-width: 1.2; stroke-linecap: round"/>
    <path d="M 212.677073 210.762951 
L 208.05557 218.171845 
L 205.750845 209.74936 
z
" clip-path="url(#p63eb8c4a79)" style="fill: #e8e8e8; stroke: #e8e8e8; stroke-width: 1.2; stroke-linecap: round"/>
   </g>
   <g id="patch_19">
    <path d="M 181.413166 130.039203 
Q 195.102617 153.720052 208.04289 176.104926 
" clip-path="url(#p63eb8c4a79)" style="fill: none; stroke: #e8e8e8; stroke-width: 1.2; stroke-linecap: round"/>
    <path d="M 207.069224 167.427255 
L 208.04289 176.104926 
L 201.008965 170.930576 
z
" clip-path="url(#p63eb8c4a79)" style="fill: #e8e8e8; stroke: #e8e8e8; stroke-width: 1.2; stroke-linecap: round"/>
   </g>
   <g id="patch_20">
    <path d="M 176.883594 131.182598 
Q 175.396001 166.437618 173.971515 200.197033 
" clip-path="url(#p63eb8c4a79)" style="fill: none; stroke: #e8e8e8; stroke-width: 1.2; stroke-linecap: round"/>
    <path d="M 177.805665 192.351697 
L 173.971515 200.197033 
L 170.811888 192.056593 
z
" clip-path="url(#p63eb8c4a79)" style="fill: #e8e8e8; stroke: #e8e8e8; stroke-width: 1.2; stroke-linecap: round"/>
   </g>
   <g id="patch_21">
    <path d="M 387.565011 312.489175 
Q 386.242898 257.739417 384.956924 204.486159 
" clip-path="url(#p63eb8c4a79)" style="fill: none; stroke: #e8e8e8; stroke-width: 1.2; stroke-linecap: round"/>
    <path d="M 381.651074 212.568321 
L 384.956924 204.486159 
L 388.649034 212.399333 
z
" clip-path="url(#p63eb8c4a79)" style="fill: #e8e8e8; stroke: #e8e8e8; stroke-width: 1.2; stroke-linecap: round"/>
   </g>
   <g id="patch_22">
    <path d="M 381.681933 315.221898 
Q 330.432839 267.709278 280.281499 221.214377 
" clip-path="url(#p63eb8c4a79)" style="fill: none; stroke: #e8e8e8; stroke-width: 1.2; stroke-linecap: round"/>
    <path d="M 283.768635 229.219993 
L 280.281499 221.214377 
L 288.527712 224.086653 
z
" clip-path="url(#p63eb8c4a79)" style="fill: #e8e8e8; stroke: #e8e8e8; stroke-width: 1.2; stroke-linecap: round"/>
   </g>
   <g id="patch_23">
    <path d="M 277.297739 207.341685 
Q 313.121524 145.919364 348.191138 85.790119 
" clip-path="url(#p63eb8c4a79)" style="fill: none; stroke: #e8e8e8; stroke-width: 1.2; stroke-linecap: round"/>
    <path d="M 341.137313 90.937307 
L 348.191138 85.790119 
L 347.184018 94.463971 
z
" clip-path="url(#p63eb8c4a79)" style="fill: #e8e8e8; stroke: #e8e8e8; stroke-width: 1.2; stroke-linecap: round"/>
   </g>
   <g id="patch_24">
    <path d="M 270.581873 206.568762 
Q 243.245193 119.692934 216.357825 34.245019 
" clip-path="url(#p63eb8c4a79)" style="fill: none; stroke: #e8e8e8; stroke-width: 1.2; stroke-linecap: round"/>
    <path d="M 215.420447 42.926685 
L 216.357825 34.245019 
L 222.09768 40.825601 
z
" clip-path="url(#p63eb8c4a79)" style="fill: #e8e8e8; stroke: #e8e8e8; stroke-width: 1.2; stroke-linecap: round"/>
   </g>
   <g id="patch_25">
    <path d="M 272.098639 206.232794 
Q 268.599721 176.976695 265.278563 149.206939 
" clip-path="url(#p63eb8c4a79)" style="fill: none; stroke: #e8e8e8; stroke-width: 1.2; stroke-linecap: round"/>
    <path d="M 262.753328 157.565957 
L 265.278563 149.206939 
L 269.703798 156.734707 
z
" clip-path="url(#p63eb8c4a79)" style="fill: #e8e8e8; stroke: #e8e8e8; stroke-width: 1.2; stroke-linecap: round"/>
   </g>
   <g id="patch_26">
    <path d="M 266.169101 219.08317 
Q 214.491353 252.912898 164.066046 285.922742 
" clip-path="url(#p63eb8c4a79)" style="fill: none; stroke: #e8e8e8; stroke-width: 1.2; stroke-linecap: round"/>
    <path d="M 172.67638 284.469423 
L 164.066046 285.922742 
L 168.842426 278.612735 
z
" clip-path="url(#p63eb8c4a79)" style="fill: #e8e8e8; stroke: #e8e8e8; stroke-width: 1.2; stroke-linecap: round"/>
   </g>
   <g id="patch_27">
    <path d="M 71.555245 102.297226 
Q 135.267184 236.197979 198.335953 368.747009 
" clip-path="url(#p63eb8c4a79)" style="fill: none; stroke: #e8e8e8; stroke-width: 1.2; stroke-linecap: round"/>
    <path d="M 198.059171 360.019272 
L 198.335953 368.747009 
L 191.738225 363.026871 
z
" clip-path="url(#p63eb8c4a79)" style="fill: #e8e8e8; stroke: #e8e8e8; stroke-width: 1.2; stroke-linecap: round"/>
   </g>
   <g id="patch_28">
    <path d="M 75.95222 96.803296 
Q 122.599881 108.783028 167.797654 120.39041 
" clip-path="url(#p63eb8c4a79)" style="fill: none; stroke: #e8e8e8; stroke-width: 1.2; stroke-linecap: round"/>
    <path d="M 160.91969 115.010484 
L 167.797654 120.39041 
L 159.1785 121.790473 
z
" clip-path="url(#p63eb8c4a79)" style="fill: #e8e8e8; stroke: #e8e8e8; stroke-width: 1.2; stroke-linecap: round"/>
   </g>
   <g id="patch_29">
    <path d="M 75.41611 91.17033 
Q 140.681821 59.796043 204.598387 29.070312 
" clip-path="url(#p63eb8c4a79)" style="fill: none; stroke: #e8e8e8; stroke-width: 1.2; stroke-linecap: round"/>
    <path d="M 195.871824 29.381908 
L 204.598387 29.070312 
L 198.904613 35.690806 
z
" clip-path="url(#p63eb8c4a79)" style="fill: #e8e8e8; stroke: #e8e8e8; stroke-width: 1.2; stroke-linecap: round"/>
   </g>
   <g id="patch_30">
    <path d="M 210.964848 260.327865 
Q 207.065148 314.806369 203.272329 367.791757 
" clip-path="url(#p63eb8c4a79)" style="fill: none; stroke: #e8e8e8; stroke-width: 1.2; stroke-linecap: round"/>
    <path d="M 207.334593 360.062074 
L 203.272329 367.791757 
L 200.352459 359.562276 
z
" clip-path="url(#p63eb8c4a79)" style="fill: #e8e8e8; stroke: #e8e8e8; stroke-width: 1.2; stroke-linecap: round"/>
   </g>
   <g id="patch_31">
    <path d="M 203.369222 251.095319 
Q 122.120346 242.408867 42.359923 233.881547 
" clip-path="url(#p63eb8c4a79)" style="fill: none; stroke: #e8e8e8; stroke-width: 1.2; stroke-linecap: round"/>
    <path d="M 49.942521 238.212161 
L 42.359923 233.881547 
L 50.686662 231.251827 
z
" clip-path="url(#p63eb8c4a79)" style="fill: #e8e8e8; stroke: #e8e8e8; stroke-width: 1.2; stroke-linecap: round"/>
   </g>
   <g id="patch_32">
    <path d="M 180.897548 213.858207 
Q 280.65983 265.461203 379.092518 316.376453 
" clip-path="url(#p63eb8c4a79)" style="fill: none; stroke: #e8e8e8; stroke-width: 1.2; stroke-linecap: round"/>
    <path d="M 373.594855 309.592229 
L 379.092518 316.376453 
L 370.378805 315.809706 
z
" clip-path="url(#p63eb8c4a79)" style="fill: #e8e8e8; stroke: #e8e8e8; stroke-width: 1.2; stroke-linecap: round"/>
   </g>
   <g id="patch_33">
    <path d="M 173.908424 201.692255 
Q 175.396017 166.437235 176.820503 132.67782 
" clip-path="url(#p63eb8c4a79)" style="fill: none; stroke: #e8e8e8; stroke-width: 1.2; stroke-linecap: round"/>
    <path d="M 172.986353 140.523155 
L 176.820503 132.67782 
L 179.98013 140.818259 
z
" clip-path="url(#p63eb8c4a79)" style="fill: #e8e8e8; stroke: #e8e8e8; stroke-width: 1.2; stroke-linecap: round"/>
   </g>
   <g id="patch_34">
    <path d="M 180.827007 213.992309 
Q 190.088766 219.00032 198.03376 223.29633 
" clip-path="url(#p63eb8c4a79)" style="fill: none; stroke: #e8e8e8; stroke-width: 1.2; stroke-linecap: round"/>
    <path d="M 192.661369 216.412478 
L 198.03376 223.29633 
L 189.331899 222.569964 
z
" clip-path="url(#p63eb8c4a79)" style="fill: #e8e8e8; stroke: #e8e8e8; stroke-width: 1.2; stroke-linecap: round"/>
   </g>
   <g id="patch_35">
    <path d="M 348.944781 84.497948 
Q 313.120996 145.920268 278.051382 206.049513 
" clip-path="url(#p63eb8c4a79)" style="fill: none; stroke: #e8e8e8; stroke-width: 1.2; stroke-linecap: round"/>
    <path d="M 285.105207 200.902325 
L 278.051382 206.049513 
L 279.058502 197.375661 
z
" clip-path="url(#p63eb8c4a79)" style="fill: #e8e8e8; stroke: #e8e8e8; stroke-width: 1.2; stroke-linecap: round"/>
   </g>
   <g id="patch_36">
    <path d="M 346.35485 82.029123 
Q 308.627206 108.34867 272.127271 133.811743 
" clip-path="url(#p63eb8c4a79)" style="fill: none; stroke: #e8e8e8; stroke-width: 1.2; stroke-linecap: round"/>
    <path d="M 280.690985 132.10505 
L 272.127271 133.811743 
L 276.685925 126.364014 
z
" clip-path="url(#p63eb8c4a79)" style="fill: #e8e8e8; stroke: #e8e8e8; stroke-width: 1.2; stroke-linecap: round"/>
   </g>
   <g id="patch_37">
    <path d="M 256.011463 137.860947 
Q 220.672406 131.110969 186.803703 124.641837 
" clip-path="url(#p63eb8c4a79)" style="fill: none; stroke: #e8e8e8; stroke-width: 1.2; stroke-linecap: round"/>
    <path d="M 194.004995 129.580603 
L 186.803703 124.641837 
L 195.318296 122.704903 
z
" clip-path="url(#p63eb8c4a79)" style="fill: #e8e8e8; stroke: #e8e8e8; stroke-width: 1.2; stroke-linecap: round"/>
   </g>
   <g id="patch_38">
    <path d="M 271.617094 142.845058 
Q 324.411285 167.011225 375.844361 190.554351 
" clip-path="url(#p63eb8c4a79)" style="fill: none; stroke: #e8e8e8; stroke-width: 1.2; stroke-linecap: round"/>
    <path d="M 370.026955 184.042224 
L 375.844361 190.554351 
L 367.113478 190.407101 
z
" clip-path="url(#p63eb8c4a79)" style="fill: #e8e8e8; stroke: #e8e8e8; stroke-width: 1.2; stroke-linecap: round"/>
   </g>
   <g id="patch_39">
    <path d="M 205.947467 28.421787 
Q 140.681756 59.796074 76.76519 90.521805 
" clip-path="url(#p63eb8c4a79)" style="fill: none; stroke: #e8e8e8; stroke-width: 1.2; stroke-linecap: round"/>
    <path d="M 85.491754 90.210209 
L 76.76519 90.521805 
L 82.458964 83.901311 
z
" clip-path="url(#p63eb8c4a79)" style="fill: #e8e8e8; stroke: #e8e8e8; stroke-width: 1.2; stroke-linecap: round"/>
   </g>
   <g id="patch_40">
    <path d="M 215.909918 32.821573 
Q 243.246598 119.697401 270.133967 205.145316 
" clip-path="url(#p63eb8c4a79)" style="fill: none; stroke: #e8e8e8; stroke-width: 1.2; stroke-linecap: round"/>
    <path d="M 271.071345 196.46365 
L 270.133967 205.145316 
L 264.394111 198.564734 
z
" clip-path="url(#p63eb8c4a79)" style="fill: #e8e8e8; stroke: #e8e8e8; stroke-width: 1.2; stroke-linecap: round"/>
   </g>
   <g id="patch_41">
    <path d="M 216.780908 32.482238 
Q 238.752859 82.124444 260.118948 130.3978 
" clip-path="url(#p63eb8c4a79)" style="fill: none; stroke: #e8e8e8; stroke-width: 1.2; stroke-linecap: round"/>
    <path d="M 260.081594 121.665755 
L 260.118948 130.3978 
L 253.680553 124.498896 
z
" clip-path="url(#p63eb8c4a79)" style="fill: #e8e8e8; stroke: #e8e8e8; stroke-width: 1.2; stroke-linecap: round"/>
   </g>
   <g id="patch_42">
    <path d="M 105.661976 215.363382 
Q 73.180238 223.14401 42.154253 230.57593 
" clip-path="url(#p63eb8c4a79)" style="fill: none; stroke: #e8e8e8; stroke-width: 1.2; stroke-linecap: round"/>
    <path d="M 50.749486 232.116052 
L 42.154253 230.57593 
L 49.118845 225.308629 
z
" clip-path="url(#p63eb8c4a79)" style="fill: #e8e8e8; stroke: #e8e8e8; stroke-width: 1.2; stroke-linecap: round"/>
   </g>
   <g id="patch_43">
    <path d="M 117.661805 220.782776 
Q 134.784574 252.36428 151.193857 282.629821 
" clip-path="url(#p63eb8c4a79)" style="fill: none; stroke: #e8e8e8; stroke-width: 1.2; stroke-linecap: round"/>
    <path d="M 150.457681 273.928784 
L 151.193857 282.629821 
L 144.303953 277.265195 
z
" clip-path="url(#p63eb8c4a79)" style="fill: #e8e8e8; stroke: #e8e8e8; stroke-width: 1.2; stroke-linecap: round"/>
   </g>
   <g id="patch_44">
    <path d="M 40.333743 229.754605 
Q 148.392611 186.126234 255.06341 143.058291 
" clip-path="url(#p63eb8c4a79)" style="fill: none; stroke: #e8e8e8; stroke-width: 1.2; stroke-linecap: round"/>
    <path d="M 246.334876 142.8079 
L 255.06341 143.058291 
L 248.95556 149.298818 
z
" clip-path="url(#p63eb8c4a79)" style="fill: #e8e8e8; stroke: #e8e8e8; stroke-width: 1.2; stroke-linecap: round"/>
   </g>
   <g id="patch_45">
    <path d="M 40.141928 236.386946 
Q 94.281016 262.063332 147.067572 287.098257 
" clip-path="url(#p63eb8c4a79)" style="fill: none; stroke: #e8e8e8; stroke-width: 1.2; stroke-linecap: round"/>
    <path d="M 141.339108 280.507757 
L 147.067572 287.098257 
L 138.339493 286.832495 
z
" clip-path="url(#p63eb8c4a79)" style="fill: #e8e8e8; stroke: #e8e8e8; stroke-width: 1.2; stroke-linecap: round"/>
   </g>
   <g id="PathCollection_1">
    <defs>
     <path id="m0e6cbf5fd5" d="M 0 9.195587 
C 2.438698 9.195587 4.777842 8.226682 6.502262 6.502262 
C 8.226682 4.777842 9.195587 2.438698 9.195587 0 
C 9.195587 -2.438698 8.226682 -4.777842 6.502262 -6.502262 
C 4.777842 -8.226682 2.438698 -9.195587 0 -9.195587 
C -2.438698 -9.195587 -4.777842 -8.226682 -6.502262 -6.502262 
C -8.226682 -4.777842 -9.195587 -2.438698 -9.195587 0 
C -9.195587 2.438698 -8.226682 4.777842 -6.502262 6.502262 
C -4.777842 8.226682 -2.438698 9.195587 0 9.195587 
z
" style="stroke: #f9d39a; stroke-width: 0.5"/>
    </defs>
    <g clip-path="url(#p63eb8c4a79)">
     <use xlink:href="#m0e6cbf5fd5" x="279.11087" y="315.324876" style="fill: #f9d39a; stroke: #f9d39a; stroke-width: 0.5"/>
    </g>
   </g>
   <g id="PathCollection_2">
    <defs>
     <path id="m9f960e432a" d="M 0 7.812132 
C 2.071802 7.812132 4.059027 6.988997 5.524012 5.524012 
C 6.988997 4.059027 7.812132 2.071802 7.812132 0 
C 7.812132 -2.071802 6.988997 -4.059027 5.524012 -5.524012 
C 4.059027 -6.988997 2.071802 -7.812132 0 -7.812132 
C -2.071802 -7.812132 -4.059027 -6.988997 -5.524012 -5.524012 
C -6.988997 -4.059027 -7.812132 -2.071802 -7.812132 0 
C -7.812132 2.071802 -6.988997 4.059027 -5.524012 5.524012 
C -4.059027 6.988997 -2.071802 7.812132 0 7.812132 
z
" style="stroke: #f9dfb6; stroke-width: 0.5"/>
    </defs>
    <g clip-path="url(#p63eb8c4a79)">
     <use xlink:href="#m9f960e432a" x="52.097736" y="374.978332" style="fill: #f9dfb6; stroke: #f9dfb6; stroke-width: 0.5"/>
    </g>
   </g>
   <g id="PathCollection_3">
    <defs>
     <path id="m643fc3f90a" d="M 0 9.195587 
C 2.438698 9.195587 4.777842 8.226682 6.502262 6.502262 
C 8.226682 4.777842 9.195587 2.438698 9.195587 0 
C 9.195587 -2.438698 8.226682 -4.777842 6.502262 -6.502262 
C 4.777842 -8.226682 2.438698 -9.195587 0 -9.195587 
C -2.438698 -9.195587 -4.777842 -8.226682 -6.502262 -6.502262 
C -8.226682 -4.777842 -9.195587 -2.438698 -9.195587 0 
C -9.195587 2.438698 -8.226682 4.777842 -6.502262 6.502262 
C -4.777842 8.226682 -2.438698 9.195587 0 9.195587 
z
" style="stroke: #f9cd8d; stroke-width: 0.5"/>
    </defs>
    <g clip-path="url(#p63eb8c4a79)">
     <use xlink:href="#m643fc3f90a" x="212.965521" y="184.620393" style="fill: #f9cd8d; stroke: #f9cd8d; stroke-width: 0.5"/>
    </g>
   </g>
   <g id="PathCollection_4">
    <defs>
     <path id="m1cd20838df" d="M 0 8.531947 
C 2.262699 8.531947 4.433028 7.632967 6.032997 6.032997 
C 7.632967 4.433028 8.531947 2.262699 8.531947 0 
C 8.531947 -2.262699 7.632967 -4.433028 6.032997 -6.032997 
C 4.433028 -7.632967 2.262699 -8.531947 0 -8.531947 
C -2.262699 -8.531947 -4.433028 -7.632967 -6.032997 -6.032997 
C -7.632967 -4.433028 -8.531947 -2.262699 -8.531947 0 
C -8.531947 2.262699 -7.632967 4.433028 -6.032997 6.032997 
C -4.433028 7.632967 -2.262699 8.531947 0 8.531947 
z
" style="stroke: #f9d39a; stroke-width: 0.5"/>
    </defs>
    <g clip-path="url(#p63eb8c4a79)">
     <use xlink:href="#m1cd20838df" x="387.767237" y="320.863534" style="fill: #f9d39a; stroke: #f9d39a; stroke-width: 0.5"/>
    </g>
   </g>
   <g id="PathCollection_5">
    <defs>
     <path id="m109d83b480" d="M 0 10.396549 
C 2.757197 10.396549 5.401838 9.301103 7.35147 7.35147 
C 9.301103 5.401838 10.396549 2.757197 10.396549 0 
C 10.396549 -2.757197 9.301103 -5.401838 7.35147 -7.35147 
C 5.401838 -9.301103 2.757197 -10.396549 0 -10.396549 
C -2.757197 -10.396549 -5.401838 -9.301103 -7.35147 -7.35147 
C -9.301103 -5.401838 -10.396549 -2.757197 -10.396549 0 
C -10.396549 2.757197 -9.301103 5.401838 -7.35147 7.35147 
C -5.401838 9.301103 -2.757197 10.396549 0 10.396549 
z
" style="stroke: #f9cb89; stroke-width: 0.5"/>
    </defs>
    <g clip-path="url(#p63eb8c4a79)">
     <use xlink:href="#m109d83b480" x="202.567368" y="377.64" style="fill: #f9cb89; stroke: #f9cb89; stroke-width: 0.5"/>
    </g>
   </g>
   <g id="PathCollection_6">
    <defs>
     <path id="m8e47f4aed7" d="M 0 10.396549 
C 2.757197 10.396549 5.401838 9.301103 7.35147 7.35147 
C 9.301103 5.401838 10.396549 2.757197 10.396549 0 
C 10.396549 -2.757197 9.301103 -5.401838 7.35147 -7.35147 
C 5.401838 -9.301103 2.757197 -10.396549 0 -10.396549 
C -2.757197 -10.396549 -5.401838 -9.301103 -7.35147 -7.35147 
C -9.301103 -5.401838 -10.396549 -2.757197 -10.396549 0 
C -10.396549 2.757197 -9.301103 5.401838 -7.35147 7.35147 
C -5.401838 9.301103 -2.757197 10.396549 0 10.396549 
z
" style="stroke: #f9a22b; stroke-width: 0.5"/>
    </defs>
    <g clip-path="url(#p63eb8c4a79)">
     <use xlink:href="#m8e47f4aed7" x="177.236689" y="122.814479" style="fill: #f9a22b; stroke: #f9a22b; stroke-width: 0.5"/>
    </g>
   </g>
   <g id="PathCollection_7">
    <defs>
     <path id="m56dcfbd324" d="M 0 8.531947 
C 2.262699 8.531947 4.433028 7.632967 6.032997 6.032997 
C 7.632967 4.433028 8.531947 2.262699 8.531947 0 
C 8.531947 -2.262699 7.632967 -4.433028 6.032997 -6.032997 
C 4.433028 -7.632967 2.262699 -8.531947 0 -8.531947 
C -2.262699 -8.531947 -4.433028 -7.632967 -6.032997 -6.032997 
C -7.632967 -4.433028 -8.531947 -2.262699 -8.531947 0 
C -8.531947 2.262699 -7.632967 4.433028 -6.032997 6.032997 
C -4.433028 7.632967 -2.262699 8.531947 0 8.531947 
z
" style="stroke: #f9dfb6; stroke-width: 0.5"/>
    </defs>
    <g clip-path="url(#p63eb8c4a79)">
     <use xlink:href="#m56dcfbd324" x="353.149134" y="77.289297" style="fill: #f9dfb6; stroke: #f9dfb6; stroke-width: 0.5"/>
    </g>
   </g>
   <g id="PathCollection_8">
    <defs>
     <path id="m72ab93d0c1" d="M 0 9.814455 
C 2.602824 9.814455 5.099393 8.780342 6.939868 6.939868 
C 8.780342 5.099393 9.814455 2.602824 9.814455 0 
C 9.814455 -2.602824 8.780342 -5.099393 6.939868 -6.939868 
C 5.099393 -8.780342 2.602824 -9.814455 0 -9.814455 
C -2.602824 -9.814455 -5.099393 -8.780342 -6.939868 -6.939868 
C -8.780342 -5.099393 -9.814455 -2.602824 -9.814455 0 
C -9.814455 2.602824 -8.780342 5.099393 -6.939868 6.939868 
C -5.099393 8.780342 -2.602824 9.814455 0 9.814455 
z
" style="stroke: #f9cb88; stroke-width: 0.5"/>
    </defs>
    <g clip-path="url(#p63eb8c4a79)">
     <use xlink:href="#m72ab93d0c1" x="67.965172" y="94.752117" style="fill: #f9cb88; stroke: #f9cb88; stroke-width: 0.5"/>
    </g>
   </g>
   <g id="PathCollection_9">
    <defs>
     <path id="m9547cac449" d="M 0 10.396549 
C 2.757197 10.396549 5.401838 9.301103 7.35147 7.35147 
C 9.301103 5.401838 10.396549 2.757197 10.396549 0 
C 10.396549 -2.757197 9.301103 -5.401838 7.35147 -7.35147 
C 5.401838 -9.301103 2.757197 -10.396549 0 -10.396549 
C -2.757197 -10.396549 -5.401838 -9.301103 -7.35147 -7.35147 
C -9.301103 -5.401838 -10.396549 -2.757197 -10.396549 0 
C -10.396549 2.757197 -9.301103 5.401838 -7.35147 7.35147 
C -5.401838 9.301103 -2.757197 10.396549 0 10.396549 
z
" style="stroke: #f9bd68; stroke-width: 0.5"/>
    </defs>
    <g clip-path="url(#p63eb8c4a79)">
     <use xlink:href="#m9547cac449" x="206.625768" y="227.942193" style="fill: #f9bd68; stroke: #f9bd68; stroke-width: 0.5"/>
    </g>
   </g>
   <g id="PathCollection_10">
    <g clip-path="url(#p63eb8c4a79)">
     <use xlink:href="#m0e6cbf5fd5" x="211.563029" y="251.971333" style="fill: #f9d39a; stroke: #f9d39a; stroke-width: 0.5"/>
    </g>
   </g>
   <g id="PathCollection_11">
    <defs>
     <path id="m1a8c6007ea" d="M 0 10.396549 
C 2.757197 10.396549 5.401838 9.301103 7.35147 7.35147 
C 9.301103 5.401838 10.396549 2.757197 10.396549 0 
C 10.396549 -2.757197 9.301103 -5.401838 7.35147 -7.35147 
C 5.401838 -9.301103 2.757197 -10.396549 0 -10.396549 
C -2.757197 -10.396549 -5.401838 -9.301103 -7.35147 -7.35147 
C -9.301103 -5.401838 -10.396549 -2.757197 -10.396549 0 
C -10.396549 2.757197 -9.301103 5.401838 -7.35147 7.35147 
C -5.401838 9.301103 -2.757197 10.396549 0 10.396549 
z
" style="stroke: #f9be6b; stroke-width: 0.5"/>
    </defs>
    <g clip-path="url(#p63eb8c4a79)">
     <use xlink:href="#m1a8c6007ea" x="384.718588" y="194.616465" style="fill: #f9be6b; stroke: #f9be6b; stroke-width: 0.5"/>
    </g>
   </g>
   <g id="PathCollection_12">
    <defs>
     <path id="mccb99f0d04" d="M 0 11.974237 
C 3.175605 11.974237 6.221573 10.712556 8.467064 8.467064 
C 10.712556 6.221573 11.974237 3.175605 11.974237 0 
C 11.974237 -3.175605 10.712556 -6.221573 8.467064 -8.467064 
C 6.221573 -10.712556 3.175605 -11.974237 0 -11.974237 
C -3.175605 -11.974237 -6.221573 -10.712556 -8.467064 -8.467064 
C -10.712556 -6.221573 -11.974237 -3.175605 -11.974237 0 
C -11.974237 3.175605 -10.712556 6.221573 -8.467064 8.467064 
C -6.221573 10.712556 -3.175605 11.974237 0 11.974237 
z
" style="stroke: #f9a93c; stroke-width: 0.5"/>
    </defs>
    <g clip-path="url(#p63eb8c4a79)">
     <use xlink:href="#mccb99f0d04" x="273.093386" y="214.550335" style="fill: #f9a93c; stroke: #f9a93c; stroke-width: 0.5"/>
    </g>
   </g>
   <g id="PathCollection_13">
    <defs>
     <path id="m73da859ab7" d="M 0 10.396549 
C 2.757197 10.396549 5.401838 9.301103 7.35147 7.35147 
C 9.301103 5.401838 10.396549 2.757197 10.396549 0 
C 10.396549 -2.757197 9.301103 -5.401838 7.35147 -7.35147 
C 5.401838 -9.301103 2.757197 -10.396549 0 -10.396549 
C -2.757197 -10.396549 -5.401838 -9.301103 -7.35147 -7.35147 
C -9.301103 -5.401838 -10.396549 -2.757197 -10.396549 0 
C -10.396549 2.757197 -9.301103 5.401838 -7.35147 7.35147 
C -5.401838 9.301103 -2.757197 10.396549 0 10.396549 
z
" style="stroke: #f9c274; stroke-width: 0.5"/>
    </defs>
    <g clip-path="url(#p63eb8c4a79)">
     <use xlink:href="#m73da859ab7" x="213.398406" y="24.84" style="fill: #f9c274; stroke: #f9c274; stroke-width: 0.5"/>
    </g>
   </g>
   <g id="PathCollection_14">
    <defs>
     <path id="ma4282d936b" d="M 0 9.195587 
C 2.438698 9.195587 4.777842 8.226682 6.502262 6.502262 
C 8.226682 4.777842 9.195587 2.438698 9.195587 0 
C 9.195587 -2.438698 8.226682 -4.777842 6.502262 -6.502262 
C 4.777842 -8.226682 2.438698 -9.195587 0 -9.195587 
C -2.438698 -9.195587 -4.777842 -8.226682 -6.502262 -6.502262 
C -8.226682 -4.777842 -9.195587 -2.438698 -9.195587 0 
C -9.195587 2.438698 -8.226682 4.777842 -6.502262 6.502262 
C -4.777842 8.226682 -2.438698 9.195587 0 9.195587 
z
" style="stroke: #f9ce90; stroke-width: 0.5"/>
    </defs>
    <g clip-path="url(#p63eb8c4a79)">
     <use xlink:href="#ma4282d936b" x="32.676328" y="232.846258" style="fill: #f9ce90; stroke: #f9ce90; stroke-width: 0.5"/>
    </g>
   </g>
   <g id="PathCollection_15">
    <defs>
     <path id="m6adc5a0357" d="M 0 9.195587 
C 2.438698 9.195587 4.777842 8.226682 6.502262 6.502262 
C 8.226682 4.777842 9.195587 2.438698 9.195587 0 
C 9.195587 -2.438698 8.226682 -4.777842 6.502262 -6.502262 
C 4.777842 -8.226682 2.438698 -9.195587 0 -9.195587 
C -2.438698 -9.195587 -4.777842 -8.226682 -6.502262 -6.502262 
C -8.226682 -4.777842 -9.195587 -2.438698 -9.195587 0 
C -9.195587 2.438698 -8.226682 4.777842 -6.502262 6.502262 
C -4.777842 8.226682 -2.438698 9.195587 0 9.195587 
z
" style="stroke: #f9bd69; stroke-width: 0.5"/>
    </defs>
    <g clip-path="url(#p63eb8c4a79)">
     <use xlink:href="#m6adc5a0357" x="173.555329" y="210.060374" style="fill: #f9bd69; stroke: #f9bd69; stroke-width: 0.5"/>
    </g>
   </g>
   <g id="PathCollection_16">
    <defs>
     <path id="m66d9eaf2fc" d="M 0 10.396549 
C 2.757197 10.396549 5.401838 9.301103 7.35147 7.35147 
C 9.301103 5.401838 10.396549 2.757197 10.396549 0 
C 10.396549 -2.757197 9.301103 -5.401838 7.35147 -7.35147 
C 5.401838 -9.301103 2.757197 -10.396549 0 -10.396549 
C -2.757197 -10.396549 -5.401838 -9.301103 -7.35147 -7.35147 
C -9.301103 -5.401838 -10.396549 -2.757197 -10.396549 0 
C -10.396549 2.757197 -9.301103 5.401838 -7.35147 7.35147 
C -5.401838 9.301103 -2.757197 10.396549 0 10.396549 
z
" style="stroke: #f9a737; stroke-width: 0.5"/>
    </defs>
    <g clip-path="url(#p63eb8c4a79)">
     <use xlink:href="#m66d9eaf2fc" x="264.106546" y="139.407158" style="fill: #f9a737; stroke: #f9a737; stroke-width: 0.5"/>
    </g>
   </g>
   <g id="PathCollection_17">
    <defs>
     <path id="me1ba951783" d="M 0 10.396549 
C 2.757197 10.396549 5.401838 9.301103 7.35147 7.35147 
C 9.301103 5.401838 10.396549 2.757197 10.396549 0 
C 10.396549 -2.757197 9.301103 -5.401838 7.35147 -7.35147 
C 5.401838 -9.301103 2.757197 -10.396549 0 -10.396549 
C -2.757197 -10.396549 -5.401838 -9.301103 -7.35147 -7.35147 
C -9.301103 -5.401838 -10.396549 -2.757197 -10.396549 0 
C -10.396549 2.757197 -9.301103 5.401838 -7.35147 7.35147 
C -5.401838 9.301103 -2.757197 10.396549 0 10.396549 
z
" style="stroke: #f9ca85; stroke-width: 0.5"/>
    </defs>
    <g clip-path="url(#p63eb8c4a79)">
     <use xlink:href="#me1ba951783" x="155.883419" y="291.279323" style="fill: #f9ca85; stroke: #f9ca85; stroke-width: 0.5"/>
    </g>
   </g>
   <g id="PathCollection_18">
    <g clip-path="url(#p63eb8c4a79)">
     <use xlink:href="#m0e6cbf5fd5" x="113.68196" y="213.442286" style="fill: #f9d39a; stroke: #f9d39a; stroke-width: 0.5"/>
    </g>
   </g>
   <g id="text_1">
    <!-- De훾ek 훾arovnik -->
    <g transform="translate(244.492511 312.706072) scale(0.09 -0.09)">
     <defs>
      <path id="DejaVuSans-44" d="M 1259 4147 
L 1259 519 
L 2022 519 
Q 2988 519 3436 956 
Q 3884 1394 3884 2338 
Q 3884 3275 3436 3711 
Q 2988 4147 2022 4147 
L 1259 4147 
z
M 628 4666 
L 1925 4666 
Q 3281 4666 3915 4102 
Q 4550 3538 4550 2338 
Q 4550 1131 3912 565 
Q 3275 0 1925 0 
L 628 0 
L 628 4666 
z
" transform="scale(0.015625)"/>
      <path id="DejaVuSans-65" d="M 3597 1894 
L 3597 1613 
L 953 1613 
Q 991 1019 1311 708 
Q 1631 397 2203 397 
Q 2534 397 2845 478 
Q 3156 559 3463 722 
L 3463 178 
Q 3153 47 2828 -22 
Q 2503 -91 2169 -91 
Q 1331 -91 842 396 
Q 353 884 353 1716 
Q 353 2575 817 3079 
Q 1281 3584 2069 3584 
Q 2775 3584 3186 3129 
Q 3597 2675 3597 1894 
z
M 3022 2063 
Q 3016 2534 2758 2815 
Q 2500 3097 2075 3097 
Q 1594 3097 1305 2825 
Q 1016 2553 972 2059 
L 3022 2063 
z
" transform="scale(0.015625)"/>
      <path id="DejaVuSans-10d" d="M 3122 3366 
L 3122 2828 
Q 2878 2963 2633 3030 
Q 2388 3097 2138 3097 
Q 1578 3097 1268 2742 
Q 959 2388 959 1747 
Q 959 1106 1268 751 
Q 1578 397 2138 397 
Q 2388 397 2633 464 
Q 2878 531 3122 666 
L 3122 134 
Q 2881 22 2623 -34 
Q 2366 -91 2075 -91 
Q 1284 -91 818 406 
Q 353 903 353 1747 
Q 353 2603 823 3093 
Q 1294 3584 2113 3584 
Q 2378 3584 2631 3529 
Q 2884 3475 3122 3366 
z
M 1801 3944 
L 1035 5119 
L 1470 5119 
L 2032 4353 
L 2595 5119 
L 3029 5119 
L 2263 3944 
L 1801 3944 
z
" transform="scale(0.015625)"/>
      <path id="DejaVuSans-6b" d="M 581 4863 
L 1159 4863 
L 1159 1991 
L 2875 3500 
L 3609 3500 
L 1753 1863 
L 3688 0 
L 2938 0 
L 1159 1709 
L 1159 0 
L 581 0 
L 581 4863 
z
" transform="scale(0.015625)"/>
      <path id="DejaVuSans-20" transform="scale(0.015625)"/>
      <path id="DejaVuSans-61" d="M 2194 1759 
Q 1497 1759 1228 1600 
Q 959 1441 959 1056 
Q 959 750 1161 570 
Q 1363 391 1709 391 
Q 2188 391 2477 730 
Q 2766 1069 2766 1631 
L 2766 1759 
L 2194 1759 
z
M 3341 1997 
L 3341 0 
L 2766 0 
L 2766 531 
Q 2569 213 2275 61 
Q 1981 -91 1556 -91 
Q 1019 -91 701 211 
Q 384 513 384 1019 
Q 384 1609 779 1909 
Q 1175 2209 1959 2209 
L 2766 2209 
L 2766 2266 
Q 2766 2663 2505 2880 
Q 2244 3097 1772 3097 
Q 1472 3097 1187 3025 
Q 903 2953 641 2809 
L 641 3341 
Q 956 3463 1253 3523 
Q 1550 3584 1831 3584 
Q 2591 3584 2966 3190 
Q 3341 2797 3341 1997 
z
" transform="scale(0.015625)"/>
      <path id="DejaVuSans-72" d="M 2631 2963 
Q 2534 3019 2420 3045 
Q 2306 3072 2169 3072 
Q 1681 3072 1420 2755 
Q 1159 2438 1159 1844 
L 1159 0 
L 581 0 
L 581 3500 
L 1159 3500 
L 1159 2956 
Q 1341 3275 1631 3429 
Q 1922 3584 2338 3584 
Q 2397 3584 2469 3576 
Q 2541 3569 2628 3553 
L 2631 2963 
z
" transform="scale(0.015625)"/>
      <path id="DejaVuSans-6f" d="M 1959 3097 
Q 1497 3097 1228 2736 
Q 959 2375 959 1747 
Q 959 1119 1226 758 
Q 1494 397 1959 397 
Q 2419 397 2687 759 
Q 2956 1122 2956 1747 
Q 2956 2369 2687 2733 
Q 2419 3097 1959 3097 
z
M 1959 3584 
Q 2709 3584 3137 3096 
Q 3566 2609 3566 1747 
Q 3566 888 3137 398 
Q 2709 -91 1959 -91 
Q 1206 -91 779 398 
Q 353 888 353 1747 
Q 353 2609 779 3096 
Q 1206 3584 1959 3584 
z
" transform="scale(0.015625)"/>
      <path id="DejaVuSans-76" d="M 191 3500 
L 800 3500 
L 1894 563 
L 2988 3500 
L 3597 3500 
L 2284 0 
L 1503 0 
L 191 3500 
z
" transform="scale(0.015625)"/>
      <path id="DejaVuSans-6e" d="M 3513 2113 
L 3513 0 
L 2938 0 
L 2938 2094 
Q 2938 2591 2744 2837 
Q 2550 3084 2163 3084 
Q 1697 3084 1428 2787 
Q 1159 2491 1159 1978 
L 1159 0 
L 581 0 
L 581 3500 
L 1159 3500 
L 1159 2956 
Q 1366 3272 1645 3428 
Q 1925 3584 2291 3584 
Q 2894 3584 3203 3211 
Q 3513 2838 3513 2113 
z
" transform="scale(0.015625)"/>
      <path id="DejaVuSans-69" d="M 603 3500 
L 1178 3500 
L 1178 0 
L 603 0 
L 603 3500 
z
M 603 4863 
L 1178 4863 
L 1178 4134 
L 603 4134 
L 603 4863 
z
" transform="scale(0.015625)"/>
     </defs>
     <use xlink:href="#DejaVuSans-44"/>
     <use xlink:href="#DejaVuSans-65" transform="translate(77.001953 0)"/>
     <use xlink:href="#DejaVuSans-10d" transform="translate(138.525391 0)"/>
     <use xlink:href="#DejaVuSans-65" transform="translate(193.505859 0)"/>
     <use xlink:href="#DejaVuSans-6b" transform="translate(255.029297 0)"/>
     <use xlink:href="#DejaVuSans-20" transform="translate(312.939453 0)"/>
     <use xlink:href="#DejaVuSans-10d" transform="translate(344.726562 0)"/>
     <use xlink:href="#DejaVuSans-61" transform="translate(399.707031 0)"/>
     <use xlink:href="#DejaVuSans-72" transform="translate(460.986328 0)"/>
     <use xlink:href="#DejaVuSans-6f" transform="translate(499.849609 0)"/>
     <use xlink:href="#DejaVuSans-76" transform="translate(561.03125 0)"/>
     <use xlink:href="#DejaVuSans-6e" transform="translate(620.210938 0)"/>
     <use xlink:href="#DejaVuSans-69" transform="translate(683.589844 0)"/>
     <use xlink:href="#DejaVuSans-6b" transform="translate(711.373047 0)"/>
    </g>
   </g>
   <g id="text_2">
    <!-- Pametna 훾arovnica -->
    <g transform="translate(9.14172 372.359528) scale(0.09 -0.09)">
     <defs>
      <path id="DejaVuSans-50" d="M 1259 4147 
L 1259 2394 
L 2053 2394 
Q 2494 2394 2734 2622 
Q 2975 2850 2975 3272 
Q 2975 3691 2734 3919 
Q 2494 4147 2053 4147 
L 1259 4147 
z
M 628 4666 
L 2053 4666 
Q 2838 4666 3239 4311 
Q 3641 3956 3641 3272 
Q 3641 2581 3239 2228 
Q 2838 1875 2053 1875 
L 1259 1875 
L 1259 0 
L 628 0 
L 628 4666 
z
" transform="scale(0.015625)"/>
      <path id="DejaVuSans-6d" d="M 3328 2828 
Q 3544 3216 3844 3400 
Q 4144 3584 4550 3584 
Q 5097 3584 5394 3201 
Q 5691 2819 5691 2113 
L 5691 0 
L 5113 0 
L 5113 2094 
Q 5113 2597 4934 2840 
Q 4756 3084 4391 3084 
Q 3944 3084 3684 2787 
Q 3425 2491 3425 1978 
L 3425 0 
L 2847 0 
L 2847 2094 
Q 2847 2600 2669 2842 
Q 2491 3084 2119 3084 
Q 1678 3084 1418 2786 
Q 1159 2488 1159 1978 
L 1159 0 
L 581 0 
L 581 3500 
L 1159 3500 
L 1159 2956 
Q 1356 3278 1631 3431 
Q 1906 3584 2284 3584 
Q 2666 3584 2933 3390 
Q 3200 3197 3328 2828 
z
" transform="scale(0.015625)"/>
      <path id="DejaVuSans-74" d="M 1172 4494 
L 1172 3500 
L 2356 3500 
L 2356 3053 
L 1172 3053 
L 1172 1153 
Q 1172 725 1289 603 
Q 1406 481 1766 481 
L 2356 481 
L 2356 0 
L 1766 0 
Q 1100 0 847 248 
Q 594 497 594 1153 
L 594 3053 
L 172 3053 
L 172 3500 
L 594 3500 
L 594 4494 
L 1172 4494 
z
" transform="scale(0.015625)"/>
      <path id="DejaVuSans-63" d="M 3122 3366 
L 3122 2828 
Q 2878 2963 2633 3030 
Q 2388 3097 2138 3097 
Q 1578 3097 1268 2742 
Q 959 2388 959 1747 
Q 959 1106 1268 751 
Q 1578 397 2138 397 
Q 2388 397 2633 464 
Q 2878 531 3122 666 
L 3122 134 
Q 2881 22 2623 -34 
Q 2366 -91 2075 -91 
Q 1284 -91 818 406 
Q 353 903 353 1747 
Q 353 2603 823 3093 
Q 1294 3584 2113 3584 
Q 2378 3584 2631 3529 
Q 2884 3475 3122 3366 
z
" transform="scale(0.015625)"/>
     </defs>
     <use xlink:href="#DejaVuSans-50"/>
     <use xlink:href="#DejaVuSans-61" transform="translate(55.802734 0)"/>
     <use xlink:href="#DejaVuSans-6d" transform="translate(117.082031 0)"/>
     <use xlink:href="#DejaVuSans-65" transform="translate(214.494141 0)"/>
     <use xlink:href="#DejaVuSans-74" transform="translate(276.017578 0)"/>
     <use xlink:href="#DejaVuSans-6e" transform="translate(315.226562 0)"/>
     <use xlink:href="#DejaVuSans-61" transform="translate(378.605469 0)"/>
     <use xlink:href="#DejaVuSans-20" transform="translate(439.884766 0)"/>
     <use xlink:href="#DejaVuSans-10d" transform="translate(471.671875 0)"/>
     <use xlink:href="#DejaVuSans-61" transform="translate(526.652344 0)"/>
     <use xlink:href="#DejaVuSans-72" transform="translate(587.931641 0)"/>
     <use xlink:href="#DejaVuSans-6f" transform="translate(626.794922 0)"/>
     <use xlink:href="#DejaVuSans-76" transform="translate(687.976562 0)"/>
     <use xlink:href="#DejaVuSans-6e" transform="translate(747.15625 0)"/>
     <use xlink:href="#DejaVuSans-69" transform="translate(810.535156 0)"/>
     <use xlink:href="#DejaVuSans-63" transform="translate(838.318359 0)"/>
     <use xlink:href="#DejaVuSans-61" transform="translate(893.298828 0)"/>
    </g>
   </g>
   <g id="text_3">
    <!-- Modri ravnatelj -->
    <g transform="translate(179.028489 182.001589) scale(0.09 -0.09)">
     <defs>
      <path id="DejaVuSans-4d" d="M 628 4666 
L 1569 4666 
L 2759 1491 
L 3956 4666 
L 4897 4666 
L 4897 0 
L 4281 0 
L 4281 4097 
L 3078 897 
L 2444 897 
L 1241 4097 
L 1241 0 
L 628 0 
L 628 4666 
z
" transform="scale(0.015625)"/>
      <path id="DejaVuSans-64" d="M 2906 2969 
L 2906 4863 
L 3481 4863 
L 3481 0 
L 2906 0 
L 2906 525 
Q 2725 213 2448 61 
Q 2172 -91 1784 -91 
Q 1150 -91 751 415 
Q 353 922 353 1747 
Q 353 2572 751 3078 
Q 1150 3584 1784 3584 
Q 2172 3584 2448 3432 
Q 2725 3281 2906 2969 
z
M 947 1747 
Q 947 1113 1208 752 
Q 1469 391 1925 391 
Q 2381 391 2643 752 
Q 2906 1113 2906 1747 
Q 2906 2381 2643 2742 
Q 2381 3103 1925 3103 
Q 1469 3103 1208 2742 
Q 947 2381 947 1747 
z
" transform="scale(0.015625)"/>
      <path id="DejaVuSans-6c" d="M 603 4863 
L 1178 4863 
L 1178 0 
L 603 0 
L 603 4863 
z
" transform="scale(0.015625)"/>
      <path id="DejaVuSans-6a" d="M 603 3500 
L 1178 3500 
L 1178 -63 
Q 1178 -731 923 -1031 
Q 669 -1331 103 -1331 
L -116 -1331 
L -116 -844 
L 38 -844 
Q 366 -844 484 -692 
Q 603 -541 603 -63 
L 603 3500 
z
M 603 4863 
L 1178 4863 
L 1178 4134 
L 603 4134 
L 603 4863 
z
" transform="scale(0.015625)"/>
     </defs>
     <use xlink:href="#DejaVuSans-4d"/>
     <use xlink:href="#DejaVuSans-6f" transform="translate(86.279297 0)"/>
     <use xlink:href="#DejaVuSans-64" transform="translate(147.460938 0)"/>
     <use xlink:href="#DejaVuSans-72" transform="translate(210.9375 0)"/>
     <use xlink:href="#DejaVuSans-69" transform="translate(252.050781 0)"/>
     <use xlink:href="#DejaVuSans-20" transform="translate(279.833984 0)"/>
     <use xlink:href="#DejaVuSans-72" transform="translate(311.621094 0)"/>
     <use xlink:href="#DejaVuSans-61" transform="translate(352.734375 0)"/>
     <use xlink:href="#DejaVuSans-76" transform="translate(414.013672 0)"/>
     <use xlink:href="#DejaVuSans-6e" transform="translate(473.193359 0)"/>
     <use xlink:href="#DejaVuSans-61" transform="translate(536.572266 0)"/>
     <use xlink:href="#DejaVuSans-74" transform="translate(597.851562 0)"/>
     <use xlink:href="#DejaVuSans-65" transform="translate(637.060547 0)"/>
     <use xlink:href="#DejaVuSans-6c" transform="translate(698.583984 0)"/>
     <use xlink:href="#DejaVuSans-6a" transform="translate(726.367188 0)"/>
    </g>
   </g>
   <g id="text_4">
    <!-- Mladi pilot -->
    <g transform="translate(364.464972 318.24473) scale(0.09 -0.09)">
     <defs>
      <path id="DejaVuSans-70" d="M 1159 525 
L 1159 -1331 
L 581 -1331 
L 581 3500 
L 1159 3500 
L 1159 2969 
Q 1341 3281 1617 3432 
Q 1894 3584 2278 3584 
Q 2916 3584 3314 3078 
Q 3713 2572 3713 1747 
Q 3713 922 3314 415 
Q 2916 -91 2278 -91 
Q 1894 -91 1617 61 
Q 1341 213 1159 525 
z
M 3116 1747 
Q 3116 2381 2855 2742 
Q 2594 3103 2138 3103 
Q 1681 3103 1420 2742 
Q 1159 2381 1159 1747 
Q 1159 1113 1420 752 
Q 1681 391 2138 391 
Q 2594 391 2855 752 
Q 3116 1113 3116 1747 
z
" transform="scale(0.015625)"/>
     </defs>
     <use xlink:href="#DejaVuSans-4d"/>
     <use xlink:href="#DejaVuSans-6c" transform="translate(86.279297 0)"/>
     <use xlink:href="#DejaVuSans-61" transform="translate(114.0625 0)"/>
     <use xlink:href="#DejaVuSans-64" transform="translate(175.341797 0)"/>
     <use xlink:href="#DejaVuSans-69" transform="translate(238.818359 0)"/>
     <use xlink:href="#DejaVuSans-20" transform="translate(266.601562 0)"/>
     <use xlink:href="#DejaVuSans-70" transform="translate(298.388672 0)"/>
     <use xlink:href="#DejaVuSans-69" transform="translate(361.865234 0)"/>
     <use xlink:href="#DejaVuSans-6c" transform="translate(389.648438 0)"/>
     <use xlink:href="#DejaVuSans-6f" transform="translate(417.431641 0)"/>
     <use xlink:href="#DejaVuSans-74" transform="translate(478.613281 0)"/>
    </g>
   </g>
   <g id="text_5">
    <!-- Tihotapec -->
    <g transform="translate(180.482212 375.021196) scale(0.09 -0.09)">
     <defs>
      <path id="DejaVuSans-54" d="M -19 4666 
L 3928 4666 
L 3928 4134 
L 2272 4134 
L 2272 0 
L 1638 0 
L 1638 4134 
L -19 4134 
L -19 4666 
z
" transform="scale(0.015625)"/>
      <path id="DejaVuSans-68" d="M 3513 2113 
L 3513 0 
L 2938 0 
L 2938 2094 
Q 2938 2591 2744 2837 
Q 2550 3084 2163 3084 
Q 1697 3084 1428 2787 
Q 1159 2491 1159 1978 
L 1159 0 
L 581 0 
L 581 4863 
L 1159 4863 
L 1159 2956 
Q 1366 3272 1645 3428 
Q 1925 3584 2291 3584 
Q 2894 3584 3203 3211 
Q 3513 2838 3513 2113 
z
" transform="scale(0.015625)"/>
     </defs>
     <use xlink:href="#DejaVuSans-54"/>
     <use xlink:href="#DejaVuSans-69" transform="translate(57.958984 0)"/>
     <use xlink:href="#DejaVuSans-68" transform="translate(85.742188 0)"/>
     <use xlink:href="#DejaVuSans-6f" transform="translate(149.121094 0)"/>
     <use xlink:href="#DejaVuSans-74" transform="translate(210.302734 0)"/>
     <use xlink:href="#DejaVuSans-61" transform="translate(249.511719 0)"/>
     <use xlink:href="#DejaVuSans-70" transform="translate(310.791016 0)"/>
     <use xlink:href="#DejaVuSans-65" transform="translate(374.267578 0)"/>
     <use xlink:href="#DejaVuSans-63" transform="translate(435.791016 0)"/>
    </g>
   </g>
   <g id="text_6">
    <!-- Zeleni mojster -->
    <g transform="translate(144.71997 120.195674) scale(0.09 -0.09)">
     <defs>
      <path id="DejaVuSans-5a" d="M 359 4666 
L 4025 4666 
L 4025 4184 
L 1075 531 
L 4097 531 
L 4097 0 
L 288 0 
L 288 481 
L 3238 4134 
L 359 4134 
L 359 4666 
z
" transform="scale(0.015625)"/>
      <path id="DejaVuSans-73" d="M 2834 3397 
L 2834 2853 
Q 2591 2978 2328 3040 
Q 2066 3103 1784 3103 
Q 1356 3103 1142 2972 
Q 928 2841 928 2578 
Q 928 2378 1081 2264 
Q 1234 2150 1697 2047 
L 1894 2003 
Q 2506 1872 2764 1633 
Q 3022 1394 3022 966 
Q 3022 478 2636 193 
Q 2250 -91 1575 -91 
Q 1294 -91 989 -36 
Q 684 19 347 128 
L 347 722 
Q 666 556 975 473 
Q 1284 391 1588 391 
Q 1994 391 2212 530 
Q 2431 669 2431 922 
Q 2431 1156 2273 1281 
Q 2116 1406 1581 1522 
L 1381 1569 
Q 847 1681 609 1914 
Q 372 2147 372 2553 
Q 372 3047 722 3315 
Q 1072 3584 1716 3584 
Q 2034 3584 2315 3537 
Q 2597 3491 2834 3397 
z
" transform="scale(0.015625)"/>
     </defs>
     <use xlink:href="#DejaVuSans-5a"/>
     <use xlink:href="#DejaVuSans-65" transform="translate(68.505859 0)"/>
     <use xlink:href="#DejaVuSans-6c" transform="translate(130.029297 0)"/>
     <use xlink:href="#DejaVuSans-65" transform="translate(157.8125 0)"/>
     <use xlink:href="#DejaVuSans-6e" transform="translate(219.335938 0)"/>
     <use xlink:href="#DejaVuSans-69" transform="translate(282.714844 0)"/>
     <use xlink:href="#DejaVuSans-20" transform="translate(310.498047 0)"/>
     <use xlink:href="#DejaVuSans-6d" transform="translate(342.285156 0)"/>
     <use xlink:href="#DejaVuSans-6f" transform="translate(439.697266 0)"/>
     <use xlink:href="#DejaVuSans-6a" transform="translate(500.878906 0)"/>
     <use xlink:href="#DejaVuSans-73" transform="translate(528.662109 0)"/>
     <use xlink:href="#DejaVuSans-74" transform="translate(580.761719 0)"/>
     <use xlink:href="#DejaVuSans-65" transform="translate(619.970703 0)"/>
     <use xlink:href="#DejaVuSans-72" transform="translate(681.494141 0)"/>
    </g>
   </g>
   <g id="text_7">
    <!-- Nosilec prstana -->
    <g transform="translate(318.328978 74.670493) scale(0.09 -0.09)">
     <defs>
      <path id="DejaVuSans-4e" d="M 628 4666 
L 1478 4666 
L 3547 763 
L 3547 4666 
L 4159 4666 
L 4159 0 
L 3309 0 
L 1241 3903 
L 1241 0 
L 628 0 
L 628 4666 
z
" transform="scale(0.015625)"/>
     </defs>
     <use xlink:href="#DejaVuSans-4e"/>
     <use xlink:href="#DejaVuSans-6f" transform="translate(74.804688 0)"/>
     <use xlink:href="#DejaVuSans-73" transform="translate(135.986328 0)"/>
     <use xlink:href="#DejaVuSans-69" transform="translate(188.085938 0)"/>
     <use xlink:href="#DejaVuSans-6c" transform="translate(215.869141 0)"/>
     <use xlink:href="#DejaVuSans-65" transform="translate(243.652344 0)"/>
     <use xlink:href="#DejaVuSans-63" transform="translate(305.175781 0)"/>
     <use xlink:href="#DejaVuSans-20" transform="translate(360.15625 0)"/>
     <use xlink:href="#DejaVuSans-70" transform="translate(391.943359 0)"/>
     <use xlink:href="#DejaVuSans-72" transform="translate(455.419922 0)"/>
     <use xlink:href="#DejaVuSans-73" transform="translate(496.533203 0)"/>
     <use xlink:href="#DejaVuSans-74" transform="translate(548.632812 0)"/>
     <use xlink:href="#DejaVuSans-61" transform="translate(587.841797 0)"/>
     <use xlink:href="#DejaVuSans-6e" transform="translate(649.121094 0)"/>
     <use xlink:href="#DejaVuSans-61" transform="translate(712.5 0)"/>
    </g>
   </g>
   <g id="text_8">
    <!-- Sivi 훾arovnik -->
    <g transform="translate(39.409156 92.133312) scale(0.09 -0.09)">
     <defs>
      <path id="DejaVuSans-53" d="M 3425 4513 
L 3425 3897 
Q 3066 4069 2747 4153 
Q 2428 4238 2131 4238 
Q 1616 4238 1336 4038 
Q 1056 3838 1056 3469 
Q 1056 3159 1242 3001 
Q 1428 2844 1947 2747 
L 2328 2669 
Q 3034 2534 3370 2195 
Q 3706 1856 3706 1288 
Q 3706 609 3251 259 
Q 2797 -91 1919 -91 
Q 1588 -91 1214 -16 
Q 841 59 441 206 
L 441 856 
Q 825 641 1194 531 
Q 1563 422 1919 422 
Q 2459 422 2753 634 
Q 3047 847 3047 1241 
Q 3047 1584 2836 1778 
Q 2625 1972 2144 2069 
L 1759 2144 
Q 1053 2284 737 2584 
Q 422 2884 422 3419 
Q 422 4038 858 4394 
Q 1294 4750 2059 4750 
Q 2388 4750 2728 4690 
Q 3069 4631 3425 4513 
z
" transform="scale(0.015625)"/>
     </defs>
     <use xlink:href="#DejaVuSans-53"/>
     <use xlink:href="#DejaVuSans-69" transform="translate(63.476562 0)"/>
     <use xlink:href="#DejaVuSans-76" transform="translate(91.259766 0)"/>
     <use xlink:href="#DejaVuSans-69" transform="translate(150.439453 0)"/>
     <use xlink:href="#DejaVuSans-20" transform="translate(178.222656 0)"/>
     <use xlink:href="#DejaVuSans-10d" transform="translate(210.009766 0)"/>
     <use xlink:href="#DejaVuSans-61" transform="translate(264.990234 0)"/>
     <use xlink:href="#DejaVuSans-72" transform="translate(326.269531 0)"/>
     <use xlink:href="#DejaVuSans-6f" transform="translate(365.132812 0)"/>
     <use xlink:href="#DejaVuSans-76" transform="translate(426.314453 0)"/>
     <use xlink:href="#DejaVuSans-6e" transform="translate(485.494141 0)"/>
     <use xlink:href="#DejaVuSans-69" transform="translate(548.873047 0)"/>
     <use xlink:href="#DejaVuSans-6b" transform="translate(576.65625 0)"/>
    </g>
   </g>
   <g id="text_9">
    <!-- Postopa훾 -->
    <g transform="translate(186.371549 225.503388) scale(0.09 -0.09)">
     <use xlink:href="#DejaVuSans-50"/>
     <use xlink:href="#DejaVuSans-6f" transform="translate(56.677734 0)"/>
     <use xlink:href="#DejaVuSans-73" transform="translate(117.859375 0)"/>
     <use xlink:href="#DejaVuSans-74" transform="translate(169.958984 0)"/>
     <use xlink:href="#DejaVuSans-6f" transform="translate(209.167969 0)"/>
     <use xlink:href="#DejaVuSans-70" transform="translate(270.349609 0)"/>
     <use xlink:href="#DejaVuSans-61" transform="translate(333.826172 0)"/>
     <use xlink:href="#DejaVuSans-10d" transform="translate(395.105469 0)"/>
    </g>
   </g>
   <g id="text_10">
    <!-- Vilinski lokostrelec -->
    <g transform="translate(170.034357 249.352528) scale(0.09 -0.09)">
     <defs>
      <path id="DejaVuSans-56" d="M 1831 0 
L 50 4666 
L 709 4666 
L 2188 738 
L 3669 4666 
L 4325 4666 
L 2547 0 
L 1831 0 
z
" transform="scale(0.015625)"/>
     </defs>
     <use xlink:href="#DejaVuSans-56"/>
     <use xlink:href="#DejaVuSans-69" transform="translate(66.158203 0)"/>
     <use xlink:href="#DejaVuSans-6c" transform="translate(93.941406 0)"/>
     <use xlink:href="#DejaVuSans-69" transform="translate(121.724609 0)"/>
     <use xlink:href="#DejaVuSans-6e" transform="translate(149.507812 0)"/>
     <use xlink:href="#DejaVuSans-73" transform="translate(212.886719 0)"/>
     <use xlink:href="#DejaVuSans-6b" transform="translate(264.986328 0)"/>
     <use xlink:href="#DejaVuSans-69" transform="translate(322.896484 0)"/>
     <use xlink:href="#DejaVuSans-20" transform="translate(350.679688 0)"/>
     <use xlink:href="#DejaVuSans-6c" transform="translate(382.466797 0)"/>
     <use xlink:href="#DejaVuSans-6f" transform="translate(410.25 0)"/>
     <use xlink:href="#DejaVuSans-6b" transform="translate(471.431641 0)"/>
     <use xlink:href="#DejaVuSans-6f" transform="translate(525.716797 0)"/>
     <use xlink:href="#DejaVuSans-73" transform="translate(586.898438 0)"/>
     <use xlink:href="#DejaVuSans-74" transform="translate(638.998047 0)"/>
     <use xlink:href="#DejaVuSans-72" transform="translate(678.207031 0)"/>
     <use xlink:href="#DejaVuSans-65" transform="translate(717.070312 0)"/>
     <use xlink:href="#DejaVuSans-6c" transform="translate(778.59375 0)"/>
     <use xlink:href="#DejaVuSans-65" transform="translate(806.376953 0)"/>
     <use xlink:href="#DejaVuSans-63" transform="translate(867.900391 0)"/>
    </g>
   </g>
   <g id="text_11">
    <!-- 힋kratovski bojevnik -->
    <g transform="translate(340.836557 192.745786) scale(0.09 -0.09)">
     <defs>
      <path id="DejaVuSans-160" d="M 3425 4513 
L 3425 3897 
Q 3066 4069 2747 4153 
Q 2428 4238 2131 4238 
Q 1616 4238 1336 4038 
Q 1056 3838 1056 3469 
Q 1056 3159 1242 3001 
Q 1428 2844 1947 2747 
L 2328 2669 
Q 3034 2534 3370 2195 
Q 3706 1856 3706 1288 
Q 3706 609 3251 259 
Q 2797 -91 1919 -91 
Q 1588 -91 1214 -16 
Q 841 59 441 206 
L 441 856 
Q 825 641 1194 531 
Q 1563 422 1919 422 
Q 2459 422 2753 634 
Q 3047 847 3047 1241 
Q 3047 1584 2836 1778 
Q 2625 1972 2144 2069 
L 1759 2144 
Q 1053 2284 737 2584 
Q 422 2884 422 3419 
Q 422 4038 858 4394 
Q 1294 4750 2059 4750 
Q 2388 4750 2728 4690 
Q 3069 4631 3425 4513 
z
M 1738 5096 
L 1079 5927 
L 1513 5927 
L 2032 5371 
L 2551 5927 
L 2985 5927 
L 2326 5096 
L 1738 5096 
z
" transform="scale(0.015625)"/>
      <path id="DejaVuSans-62" d="M 3116 1747 
Q 3116 2381 2855 2742 
Q 2594 3103 2138 3103 
Q 1681 3103 1420 2742 
Q 1159 2381 1159 1747 
Q 1159 1113 1420 752 
Q 1681 391 2138 391 
Q 2594 391 2855 752 
Q 3116 1113 3116 1747 
z
M 1159 2969 
Q 1341 3281 1617 3432 
Q 1894 3584 2278 3584 
Q 2916 3584 3314 3078 
Q 3713 2572 3713 1747 
Q 3713 922 3314 415 
Q 2916 -91 2278 -91 
Q 1894 -91 1617 61 
Q 1341 213 1159 525 
L 1159 0 
L 581 0 
L 581 4863 
L 1159 4863 
L 1159 2969 
z
" transform="scale(0.015625)"/>
     </defs>
     <use xlink:href="#DejaVuSans-160"/>
     <use xlink:href="#DejaVuSans-6b" transform="translate(63.476562 0)"/>
     <use xlink:href="#DejaVuSans-72" transform="translate(121.386719 0)"/>
     <use xlink:href="#DejaVuSans-61" transform="translate(162.5 0)"/>
     <use xlink:href="#DejaVuSans-74" transform="translate(223.779297 0)"/>
     <use xlink:href="#DejaVuSans-6f" transform="translate(262.988281 0)"/>
     <use xlink:href="#DejaVuSans-76" transform="translate(324.169922 0)"/>
     <use xlink:href="#DejaVuSans-73" transform="translate(383.349609 0)"/>
     <use xlink:href="#DejaVuSans-6b" transform="translate(435.449219 0)"/>
     <use xlink:href="#DejaVuSans-69" transform="translate(493.359375 0)"/>
     <use xlink:href="#DejaVuSans-20" transform="translate(521.142578 0)"/>
     <use xlink:href="#DejaVuSans-62" transform="translate(552.929688 0)"/>
     <use xlink:href="#DejaVuSans-6f" transform="translate(616.40625 0)"/>
     <use xlink:href="#DejaVuSans-6a" transform="translate(677.587891 0)"/>
     <use xlink:href="#DejaVuSans-65" transform="translate(705.371094 0)"/>
     <use xlink:href="#DejaVuSans-76" transform="translate(766.894531 0)"/>
     <use xlink:href="#DejaVuSans-6e" transform="translate(826.074219 0)"/>
     <use xlink:href="#DejaVuSans-69" transform="translate(889.453125 0)"/>
     <use xlink:href="#DejaVuSans-6b" transform="translate(917.236328 0)"/>
    </g>
   </g>
   <g id="text_12">
    <!-- Zvesti robot -->
    <g transform="translate(245.913386 211.931531) scale(0.09 -0.09)">
     <use xlink:href="#DejaVuSans-5a"/>
     <use xlink:href="#DejaVuSans-76" transform="translate(68.505859 0)"/>
     <use xlink:href="#DejaVuSans-65" transform="translate(127.685547 0)"/>
     <use xlink:href="#DejaVuSans-73" transform="translate(189.208984 0)"/>
     <use xlink:href="#DejaVuSans-74" transform="translate(241.308594 0)"/>
     <use xlink:href="#DejaVuSans-69" transform="translate(280.517578 0)"/>
     <use xlink:href="#DejaVuSans-20" transform="translate(308.300781 0)"/>
     <use xlink:href="#DejaVuSans-72" transform="translate(340.087891 0)"/>
     <use xlink:href="#DejaVuSans-6f" transform="translate(378.951172 0)"/>
     <use xlink:href="#DejaVuSans-62" transform="translate(440.132812 0)"/>
     <use xlink:href="#DejaVuSans-6f" transform="translate(503.609375 0)"/>
     <use xlink:href="#DejaVuSans-74" transform="translate(564.791016 0)"/>
    </g>
   </g>
   <g id="text_13">
    <!-- Voditeljica upora -->
    <g transform="translate(175.793171 22.221196) scale(0.09 -0.09)">
     <defs>
      <path id="DejaVuSans-75" d="M 544 1381 
L 544 3500 
L 1119 3500 
L 1119 1403 
Q 1119 906 1312 657 
Q 1506 409 1894 409 
Q 2359 409 2629 706 
Q 2900 1003 2900 1516 
L 2900 3500 
L 3475 3500 
L 3475 0 
L 2900 0 
L 2900 538 
Q 2691 219 2414 64 
Q 2138 -91 1772 -91 
Q 1169 -91 856 284 
Q 544 659 544 1381 
z
M 1991 3584 
L 1991 3584 
z
" transform="scale(0.015625)"/>
     </defs>
     <use xlink:href="#DejaVuSans-56"/>
     <use xlink:href="#DejaVuSans-6f" transform="translate(60.658203 0)"/>
     <use xlink:href="#DejaVuSans-64" transform="translate(121.839844 0)"/>
     <use xlink:href="#DejaVuSans-69" transform="translate(185.316406 0)"/>
     <use xlink:href="#DejaVuSans-74" transform="translate(213.099609 0)"/>
     <use xlink:href="#DejaVuSans-65" transform="translate(252.308594 0)"/>
     <use xlink:href="#DejaVuSans-6c" transform="translate(313.832031 0)"/>
     <use xlink:href="#DejaVuSans-6a" transform="translate(341.615234 0)"/>
     <use xlink:href="#DejaVuSans-69" transform="translate(369.398438 0)"/>
     <use xlink:href="#DejaVuSans-63" transform="translate(397.181641 0)"/>
     <use xlink:href="#DejaVuSans-61" transform="translate(452.162109 0)"/>
     <use xlink:href="#DejaVuSans-20" transform="translate(513.441406 0)"/>
     <use xlink:href="#DejaVuSans-75" transform="translate(545.228516 0)"/>
     <use xlink:href="#DejaVuSans-70" transform="translate(608.607422 0)"/>
     <use xlink:href="#DejaVuSans-6f" transform="translate(672.083984 0)"/>
     <use xlink:href="#DejaVuSans-72" transform="translate(733.265625 0)"/>
     <use xlink:href="#DejaVuSans-61" transform="translate(774.378906 0)"/>
    </g>
   </g>
   <g id="text_14">
    <!-- Temni vitez -->
    <g transform="translate(7.2 230.227454) scale(0.09 -0.09)">
     <defs>
      <path id="DejaVuSans-7a" d="M 353 3500 
L 3084 3500 
L 3084 2975 
L 922 459 
L 3084 459 
L 3084 0 
L 275 0 
L 275 525 
L 2438 3041 
L 353 3041 
L 353 3500 
z
" transform="scale(0.015625)"/>
     </defs>
     <use xlink:href="#DejaVuSans-54"/>
     <use xlink:href="#DejaVuSans-65" transform="translate(44.083984 0)"/>
     <use xlink:href="#DejaVuSans-6d" transform="translate(105.607422 0)"/>
     <use xlink:href="#DejaVuSans-6e" transform="translate(203.019531 0)"/>
     <use xlink:href="#DejaVuSans-69" transform="translate(266.398438 0)"/>
     <use xlink:href="#DejaVuSans-20" transform="translate(294.181641 0)"/>
     <use xlink:href="#DejaVuSans-76" transform="translate(325.96875 0)"/>
     <use xlink:href="#DejaVuSans-69" transform="translate(385.148438 0)"/>
     <use xlink:href="#DejaVuSans-74" transform="translate(412.931641 0)"/>
     <use xlink:href="#DejaVuSans-65" transform="translate(452.140625 0)"/>
     <use xlink:href="#DejaVuSans-7a" transform="translate(513.664062 0)"/>
    </g>
   </g>
   <g id="text_15">
    <!-- Zvesti prijatelj -->
    <g transform="translate(141.253767 207.44157) scale(0.09 -0.09)">
     <use xlink:href="#DejaVuSans-5a"/>
     <use xlink:href="#DejaVuSans-76" transform="translate(68.505859 0)"/>
     <use xlink:href="#DejaVuSans-65" transform="translate(127.685547 0)"/>
     <use xlink:href="#DejaVuSans-73" transform="translate(189.208984 0)"/>
     <use xlink:href="#DejaVuSans-74" transform="translate(241.308594 0)"/>
     <use xlink:href="#DejaVuSans-69" transform="translate(280.517578 0)"/>
     <use xlink:href="#DejaVuSans-20" transform="translate(308.300781 0)"/>
     <use xlink:href="#DejaVuSans-70" transform="translate(340.087891 0)"/>
     <use xlink:href="#DejaVuSans-72" transform="translate(403.564453 0)"/>
     <use xlink:href="#DejaVuSans-69" transform="translate(444.677734 0)"/>
     <use xlink:href="#DejaVuSans-6a" transform="translate(472.460938 0)"/>
     <use xlink:href="#DejaVuSans-61" transform="translate(500.244141 0)"/>
     <use xlink:href="#DejaVuSans-74" transform="translate(561.523438 0)"/>
     <use xlink:href="#DejaVuSans-65" transform="translate(600.732422 0)"/>
     <use xlink:href="#DejaVuSans-6c" transform="translate(662.255859 0)"/>
     <use xlink:href="#DejaVuSans-6a" transform="translate(690.039062 0)"/>
    </g>
   </g>
   <g id="text_16">
    <!-- Zlati robot -->
    <g transform="translate(240.695296 136.788354) scale(0.09 -0.09)">
     <use xlink:href="#DejaVuSans-5a"/>
     <use xlink:href="#DejaVuSans-6c" transform="translate(68.505859 0)"/>
     <use xlink:href="#DejaVuSans-61" transform="translate(96.289062 0)"/>
     <use xlink:href="#DejaVuSans-74" transform="translate(157.568359 0)"/>
     <use xlink:href="#DejaVuSans-69" transform="translate(196.777344 0)"/>
     <use xlink:href="#DejaVuSans-20" transform="translate(224.560547 0)"/>
     <use xlink:href="#DejaVuSans-72" transform="translate(256.347656 0)"/>
     <use xlink:href="#DejaVuSans-6f" transform="translate(295.210938 0)"/>
     <use xlink:href="#DejaVuSans-62" transform="translate(356.392578 0)"/>
     <use xlink:href="#DejaVuSans-6f" transform="translate(419.869141 0)"/>
     <use xlink:href="#DejaVuSans-74" transform="translate(481.050781 0)"/>
    </g>
   </g>
   <g id="text_17">
    <!-- Prebrisani u훾itelj -->
    <g transform="translate(118.530606 288.840518) scale(0.09 -0.09)">
     <use xlink:href="#DejaVuSans-50"/>
     <use xlink:href="#DejaVuSans-72" transform="translate(58.552734 0)"/>
     <use xlink:href="#DejaVuSans-65" transform="translate(97.416016 0)"/>
     <use xlink:href="#DejaVuSans-62" transform="translate(158.939453 0)"/>
     <use xlink:href="#DejaVuSans-72" transform="translate(222.416016 0)"/>
     <use xlink:href="#DejaVuSans-69" transform="translate(263.529297 0)"/>
     <use xlink:href="#DejaVuSans-73" transform="translate(291.3125 0)"/>
     <use xlink:href="#DejaVuSans-61" transform="translate(343.412109 0)"/>
     <use xlink:href="#DejaVuSans-6e" transform="translate(404.691406 0)"/>
     <use xlink:href="#DejaVuSans-69" transform="translate(468.070312 0)"/>
     <use xlink:href="#DejaVuSans-20" transform="translate(495.853516 0)"/>
     <use xlink:href="#DejaVuSans-75" transform="translate(527.640625 0)"/>
     <use xlink:href="#DejaVuSans-10d" transform="translate(591.019531 0)"/>
     <use xlink:href="#DejaVuSans-69" transform="translate(646 0)"/>
     <use xlink:href="#DejaVuSans-74" transform="translate(673.783203 0)"/>
     <use xlink:href="#DejaVuSans-65" transform="translate(712.992188 0)"/>
     <use xlink:href="#DejaVuSans-6c" transform="translate(774.515625 0)"/>
     <use xlink:href="#DejaVuSans-6a" transform="translate(802.298828 0)"/>
    </g>
   </g>
   <g id="text_18">
    <!-- Pogumna princesa -->
    <g transform="translate(72.09282 210.823482) scale(0.09 -0.09)">
     <defs>
      <path id="DejaVuSans-67" d="M 2906 1791 
Q 2906 2416 2648 2759 
Q 2391 3103 1925 3103 
Q 1463 3103 1205 2759 
Q 947 2416 947 1791 
Q 947 1169 1205 825 
Q 1463 481 1925 481 
Q 2391 481 2648 825 
Q 2906 1169 2906 1791 
z
M 3481 434 
Q 3481 -459 3084 -895 
Q 2688 -1331 1869 -1331 
Q 1566 -1331 1297 -1286 
Q 1028 -1241 775 -1147 
L 775 -588 
Q 1028 -725 1275 -790 
Q 1522 -856 1778 -856 
Q 2344 -856 2625 -561 
Q 2906 -266 2906 331 
L 2906 616 
Q 2728 306 2450 153 
Q 2172 0 1784 0 
Q 1141 0 747 490 
Q 353 981 353 1791 
Q 353 2603 747 3093 
Q 1141 3584 1784 3584 
Q 2172 3584 2450 3431 
Q 2728 3278 2906 2969 
L 2906 3500 
L 3481 3500 
L 3481 434 
z
" transform="scale(0.015625)"/>
     </defs>
     <use xlink:href="#DejaVuSans-50"/>
     <use xlink:href="#DejaVuSans-6f" transform="translate(56.677734 0)"/>
     <use xlink:href="#DejaVuSans-67" transform="translate(117.859375 0)"/>
     <use xlink:href="#DejaVuSans-75" transform="translate(181.335938 0)"/>
     <use xlink:href="#DejaVuSans-6d" transform="translate(244.714844 0)"/>
     <use xlink:href="#DejaVuSans-6e" transform="translate(342.126953 0)"/>
     <use xlink:href="#DejaVuSans-61" transform="translate(405.505859 0)"/>
     <use xlink:href="#DejaVuSans-20" transform="translate(466.785156 0)"/>
     <use xlink:href="#DejaVuSans-70" transform="translate(498.572266 0)"/>
     <use xlink:href="#DejaVuSans-72" transform="translate(562.048828 0)"/>
     <use xlink:href="#DejaVuSans-69" transform="translate(603.162109 0)"/>
     <use xlink:href="#DejaVuSans-6e" transform="translate(630.945312 0)"/>
     <use xlink:href="#DejaVuSans-63" transform="translate(694.324219 0)"/>
     <use xlink:href="#DejaVuSans-65" transform="translate(749.304688 0)"/>
     <use xlink:href="#DejaVuSans-73" transform="translate(810.828125 0)"/>
     <use xlink:href="#DejaVuSans-61" transform="translate(862.927734 0)"/>
    </g>
   </g>
  </g>
 </g>
 <defs>
  <clipPath id="p63eb8c4a79">
   <rect x="14.921783" y="7.2" width="390.6" height="388.08"/>
  </clipPath>
 </defs>
</svg>
