<?xml version="1.0" encoding="utf-8" standalone="no"?>
<!DOCTYPE svg PUBLIC "-//W3C//DTD SVG 1.1//EN"
  "http://www.w3.org/Graphics/SVG/1.1/DTD/svg11.dtd">
<svg xmlns:xlink="http://www.w3.org/1999/xlink" width="436.556378pt" height="402.48pt" viewBox="0 0 436.556378 402.48" xmlns="http://www.w3.org/2000/svg" version="1.1">
 <metadata>
  <rdf:RDF xmlns:dc="http://purl.org/dc/elements/1.1/" xmlns:cc="http://creativecommons.org/ns#" xmlns:rdf="http://www.w3.org/1999/02/22-rdf-syntax-ns#">
   <cc:Work>
    <dc:type rdf:resource="http://purl.org/dc/dcmitype/StillImage"/>
    <dc:date>2025-12-04T13:27:51.524651</dc:date>
    <dc:format>image/svg+xml</dc:format>
    <dc:creator>
     <cc:Agent>
      <dc:title>Matplotlib v3.10.7, https://matplotlib.org/</dc:title>
     </cc:Agent>
    </dc:creator>
   </cc:Work>
  </rdf:RDF>
 </metadata>
 <defs>
  <style type="text/css">*{stroke-linejoin: round; stroke-linecap: butt}</style>
 </defs>
 <g id="figure_1">
  <g id="patch_1">
   <path d="M 0 402.48 
L 436.556378 402.48 
L 436.556378 -0 
L 0 -0 
z
" style="fill: #ffffff"/>
  </g>
  <g id="axes_1">
   <g id="patch_2">
    <path d="M 306.096813 328.531073 
Q 266.275231 256.063665 227.174556 184.908167 
" clip-path="url(#p7e9f9f07ba)" style="fill: none; stroke: #e8e8e8; stroke-width: 1.2; stroke-linecap: round"/>
    <path d="M 227.959879 193.604905 
L 227.174556 184.908167 
L 234.094659 190.233781 
z
" clip-path="url(#p7e9f9f07ba)" style="fill: #e8e8e8; stroke: #e8e8e8; stroke-width: 1.2; stroke-linecap: round"/>
   </g>
   <g id="patch_3">
    <path d="M 301.72085 338.262035 
Q 258.375917 356.30407 216.412979 373.77086 
" clip-path="url(#p7e9f9f07ba)" style="fill: none; stroke: #e8e8e8; stroke-width: 1.2; stroke-linecap: round"/>
    <path d="M 225.143692 373.927857 
L 216.412979 373.77086 
L 222.453716 367.465347 
z
" clip-path="url(#p7e9f9f07ba)" style="fill: #e8e8e8; stroke: #e8e8e8; stroke-width: 1.2; stroke-linecap: round"/>
   </g>
   <g id="patch_4">
    <path d="M 305.186741 328.89904 
Q 265.478913 274.710873 226.655882 221.730162 
" clip-path="url(#p7e9f9f07ba)" style="fill: none; stroke: #e8e8e8; stroke-width: 1.2; stroke-linecap: round"/>
    <path d="M 228.561289 230.251865 
L 226.655882 221.730162 
L 234.207622 226.114364 
z
" clip-path="url(#p7e9f9f07ba)" style="fill: #e8e8e8; stroke: #e8e8e8; stroke-width: 1.2; stroke-linecap: round"/>
   </g>
   <g id="patch_5">
    <path d="M 231.765358 175.869654 
Q 275.208845 169.548267 317.170997 163.442427 
" clip-path="url(#p7e9f9f07ba)" style="fill: none; stroke: #e8e8e8; stroke-width: 1.2; stroke-linecap: round"/>
    <path d="M 308.750394 161.130836 
L 317.170997 163.442427 
L 309.758338 168.057888 
z
" clip-path="url(#p7e9f9f07ba)" style="fill: #e8e8e8; stroke: #e8e8e8; stroke-width: 1.2; stroke-linecap: round"/>
   </g>
   <g id="patch_6">
    <path d="M 214.353917 179.308763 
Q 135.850266 199.035474 58.798415 218.397371 
" clip-path="url(#p7e9f9f07ba)" style="fill: none; stroke: #e8e8e8; stroke-width: 1.2; stroke-linecap: round"/>
    <path d="M 67.410182 219.842181 
L 58.798415 218.397371 
L 65.70423 213.05324 
z
" clip-path="url(#p7e9f9f07ba)" style="fill: #e8e8e8; stroke: #e8e8e8; stroke-width: 1.2; stroke-linecap: round"/>
   </g>
   <g id="patch_7">
    <path d="M 215.030831 374.34617 
Q 258.375764 356.304134 300.338702 338.837344 
" clip-path="url(#p7e9f9f07ba)" style="fill: none; stroke: #e8e8e8; stroke-width: 1.2; stroke-linecap: round"/>
    <path d="M 291.607989 338.680348 
L 300.338702 338.837344 
L 294.297965 345.142857 
z
" clip-path="url(#p7e9f9f07ba)" style="fill: #e8e8e8; stroke: #e8e8e8; stroke-width: 1.2; stroke-linecap: round"/>
   </g>
   <g id="patch_8">
    <path d="M 207.946884 370.633209 
Q 212.787291 329.735736 217.451757 290.324822 
" clip-path="url(#p7e9f9f07ba)" style="fill: none; stroke: #e8e8e8; stroke-width: 1.2; stroke-linecap: round"/>
    <path d="M 213.035741 297.858003 
L 217.451757 290.324822 
L 219.987223 298.680743 
z
" clip-path="url(#p7e9f9f07ba)" style="fill: #e8e8e8; stroke: #e8e8e8; stroke-width: 1.2; stroke-linecap: round"/>
   </g>
   <g id="patch_9">
    <path d="M 228.891041 210.706317 
Q 274.41187 188.194517 318.590882 166.346297 
" clip-path="url(#p7e9f9f07ba)" style="fill: none; stroke: #e8e8e8; stroke-width: 1.2; stroke-linecap: round"/>
    <path d="M 309.868342 166.75532 
L 318.590882 166.346297 
L 312.971392 173.029958 
z
" clip-path="url(#p7e9f9f07ba)" style="fill: #e8e8e8; stroke: #e8e8e8; stroke-width: 1.2; stroke-linecap: round"/>
   </g>
   <g id="patch_10">
    <path d="M 214.351975 213.887998 
Q 215.26279 213.96144 214.681511 213.914569 
" clip-path="url(#p7e9f9f07ba)" style="fill: none; stroke: #e8e8e8; stroke-width: 1.2; stroke-linecap: round"/>
    <path d="M 206.988695 209.782913 
L 214.681511 213.914569 
L 206.426088 216.760267 
z
" clip-path="url(#p7e9f9f07ba)" style="fill: #e8e8e8; stroke: #e8e8e8; stroke-width: 1.2; stroke-linecap: round"/>
   </g>
   <g id="patch_11">
    <path d="M 204.682125 234.62698 
Q 254.327651 282.091486 302.891183 328.521532 
" clip-path="url(#p7e9f9f07ba)" style="fill: none; stroke: #e8e8e8; stroke-width: 1.2; stroke-linecap: round"/>
    <path d="M 299.527418 320.463301 
L 302.891183 328.521532 
L 294.690058 325.52294 
z
" clip-path="url(#p7e9f9f07ba)" style="fill: #e8e8e8; stroke: #e8e8e8; stroke-width: 1.2; stroke-linecap: round"/>
   </g>
   <g id="patch_12">
    <path d="M 205.846 224.700768 
Q 210.173001 221.83453 213.252028 219.794959 
" clip-path="url(#p7e9f9f07ba)" style="fill: none; stroke: #e8e8e8; stroke-width: 1.2; stroke-linecap: round"/>
    <path d="M 204.649706 221.294976 
L 213.252028 219.794959 
L 208.515382 227.130775 
z
" clip-path="url(#p7e9f9f07ba)" style="fill: #e8e8e8; stroke: #e8e8e8; stroke-width: 1.2; stroke-linecap: round"/>
   </g>
   <g id="patch_13">
    <path d="M 320.0659 165.833488 
Q 263.264747 195.578556 207.789702 224.629179 
" clip-path="url(#p7e9f9f07ba)" style="fill: none; stroke: #e8e8e8; stroke-width: 1.2; stroke-linecap: round"/>
    <path d="M 216.500446 224.018487 
L 207.789702 224.629179 
L 213.253075 217.817311 
z
" clip-path="url(#p7e9f9f07ba)" style="fill: #e8e8e8; stroke: #e8e8e8; stroke-width: 1.2; stroke-linecap: round"/>
   </g>
   <g id="patch_14">
    <path d="M 318.652714 163.226825 
Q 275.209227 169.548212 233.247075 175.654052 
" clip-path="url(#p7e9f9f07ba)" style="fill: none; stroke: #e8e8e8; stroke-width: 1.2; stroke-linecap: round"/>
    <path d="M 241.667678 177.965643 
L 233.247075 175.654052 
L 240.659734 171.038591 
z
" clip-path="url(#p7e9f9f07ba)" style="fill: #e8e8e8; stroke: #e8e8e8; stroke-width: 1.2; stroke-linecap: round"/>
   </g>
   <g id="patch_15">
    <path d="M 319.932711 165.68271 
Q 274.411881 188.194511 230.23287 210.042731 
" clip-path="url(#p7e9f9f07ba)" style="fill: none; stroke: #e8e8e8; stroke-width: 1.2; stroke-linecap: round"/>
    <path d="M 238.95541 209.633708 
L 230.23287 210.042731 
L 235.85236 203.35907 
z
" clip-path="url(#p7e9f9f07ba)" style="fill: #e8e8e8; stroke: #e8e8e8; stroke-width: 1.2; stroke-linecap: round"/>
   </g>
   <g id="patch_16">
    <path d="M 57.350649 218.761171 
Q 135.854301 199.03446 212.906151 179.672563 
" clip-path="url(#p7e9f9f07ba)" style="fill: none; stroke: #e8e8e8; stroke-width: 1.2; stroke-linecap: round"/>
    <path d="M 204.294385 178.227752 
L 212.906151 179.672563 
L 206.000337 185.016694 
z
" clip-path="url(#p7e9f9f07ba)" style="fill: #e8e8e8; stroke: #e8e8e8; stroke-width: 1.2; stroke-linecap: round"/>
   </g>
   <g id="patch_17">
    <path d="M 57.509294 219.184765 
Q 91.952591 212.360307 124.927497 205.82679 
" clip-path="url(#p7e9f9f07ba)" style="fill: none; stroke: #e8e8e8; stroke-width: 1.2; stroke-linecap: round"/>
    <path d="M 116.399799 203.948394 
L 124.927497 205.82679 
L 117.760303 210.814909 
z
" clip-path="url(#p7e9f9f07ba)" style="fill: #e8e8e8; stroke: #e8e8e8; stroke-width: 1.2; stroke-linecap: round"/>
   </g>
   <g id="patch_18">
    <path d="M 120.020228 144.202896 
Q 134.66487 146.094693 147.824912 147.79471 
" clip-path="url(#p7e9f9f07ba)" style="fill: none; stroke: #e8e8e8; stroke-width: 1.2; stroke-linecap: round"/>
    <path d="M 140.339242 143.298628 
L 147.824912 147.79471 
L 139.442433 150.240942 
z
" clip-path="url(#p7e9f9f07ba)" style="fill: #e8e8e8; stroke: #e8e8e8; stroke-width: 1.2; stroke-linecap: round"/>
   </g>
   <g id="patch_19">
    <path d="M 113.867637 149.738417 
Q 159.125591 260.348216 203.816665 369.572568 
" clip-path="url(#p7e9f9f07ba)" style="fill: none; stroke: #e8e8e8; stroke-width: 1.2; stroke-linecap: round"/>
    <path d="M 204.026443 360.842964 
L 203.816665 369.572568 
L 197.547789 363.49382 
z
" clip-path="url(#p7e9f9f07ba)" style="fill: #e8e8e8; stroke: #e8e8e8; stroke-width: 1.2; stroke-linecap: round"/>
   </g>
   <g id="patch_20">
    <path d="M 213.828646 275.846736 
Q 164.794343 212.442354 116.675805 150.222112 
" clip-path="url(#p7e9f9f07ba)" style="fill: none; stroke: #e8e8e8; stroke-width: 1.2; stroke-linecap: round"/>
    <path d="M 118.801233 158.69162 
L 116.675805 150.222112 
L 124.338537 154.4093 
z
" clip-path="url(#p7e9f9f07ba)" style="fill: #e8e8e8; stroke: #e8e8e8; stroke-width: 1.2; stroke-linecap: round"/>
   </g>
   <g id="patch_21">
    <path d="M 223.647597 276.137532 
Q 240.498306 257.652852 256.340545 240.27443 
" clip-path="url(#p7e9f9f07ba)" style="fill: none; stroke: #e8e8e8; stroke-width: 1.2; stroke-linecap: round"/>
    <path d="M 248.364481 243.828638 
L 256.340545 240.27443 
L 253.537586 248.544461 
z
" clip-path="url(#p7e9f9f07ba)" style="fill: #e8e8e8; stroke: #e8e8e8; stroke-width: 1.2; stroke-linecap: round"/>
   </g>
   <g id="patch_22">
    <path d="M 211.747447 206.737486 
Q 216.05979 195.315587 219.843395 185.294136 
" clip-path="url(#p7e9f9f07ba)" style="fill: none; stroke: #e8e8e8; stroke-width: 1.2; stroke-linecap: round"/>
    <path d="M 213.74328 191.542224 
L 219.843395 185.294136 
L 220.292077 194.014725 
z
" clip-path="url(#p7e9f9f07ba)" style="fill: #e8e8e8; stroke: #e8e8e8; stroke-width: 1.2; stroke-linecap: round"/>
   </g>
   <g id="patch_23">
    <path d="M 209.787873 206.448612 
Q 213.305752 164.092153 216.699731 123.227494 
" clip-path="url(#p7e9f9f07ba)" style="fill: none; stroke: #e8e8e8; stroke-width: 1.2; stroke-linecap: round"/>
    <path d="M 212.549587 130.910352 
L 216.699731 123.227494 
L 219.525568 131.489736 
z
" clip-path="url(#p7e9f9f07ba)" style="fill: #e8e8e8; stroke: #e8e8e8; stroke-width: 1.2; stroke-linecap: round"/>
   </g>
   <g id="patch_24">
    <path d="M 200.321016 212.314121 
Q 172.159232 208.640512 145.481807 205.160533 
" clip-path="url(#p7e9f9f07ba)" style="fill: none; stroke: #e8e8e8; stroke-width: 1.2; stroke-linecap: round"/>
    <path d="M 152.961871 209.665935 
L 145.481807 205.160533 
L 153.867326 202.724743 
z
" clip-path="url(#p7e9f9f07ba)" style="fill: #e8e8e8; stroke: #e8e8e8; stroke-width: 1.2; stroke-linecap: round"/>
   </g>
   <g id="patch_25">
    <path d="M 216.823421 121.738229 
Q 213.305541 164.094687 209.911562 204.959346 
" clip-path="url(#p7e9f9f07ba)" style="fill: none; stroke: #e8e8e8; stroke-width: 1.2; stroke-linecap: round"/>
    <path d="M 214.061706 197.276488 
L 209.911562 204.959346 
L 207.085725 196.697104 
z
" clip-path="url(#p7e9f9f07ba)" style="fill: #e8e8e8; stroke: #e8e8e8; stroke-width: 1.2; stroke-linecap: round"/>
   </g>
   <g id="patch_26">
    <path d="M 219.963163 121.441155 
Q 239.971634 174.095286 259.448368 225.350106 
" clip-path="url(#p7e9f9f07ba)" style="fill: none; stroke: #e8e8e8; stroke-width: 1.2; stroke-linecap: round"/>
    <path d="M 259.878383 216.628576 
L 259.448368 225.350106 
L 253.334894 219.115089 
z
" clip-path="url(#p7e9f9f07ba)" style="fill: #e8e8e8; stroke: #e8e8e8; stroke-width: 1.2; stroke-linecap: round"/>
   </g>
   <g id="patch_27">
    <path d="M 265.597091 240.072232 
Q 286.086066 284.22423 305.944921 327.018375 
" clip-path="url(#p7e9f9f07ba)" style="fill: none; stroke: #e8e8e8; stroke-width: 1.2; stroke-linecap: round"/>
    <path d="M 305.752216 318.288377 
L 305.944921 327.018375 
L 299.402595 321.234953 
z
" clip-path="url(#p7e9f9f07ba)" style="fill: #e8e8e8; stroke: #e8e8e8; stroke-width: 1.2; stroke-linecap: round"/>
   </g>
   <g id="patch_28">
    <path d="M 271.520272 234.004815 
Q 333.208694 237.626375 393.402754 241.160205 
" clip-path="url(#p7e9f9f07ba)" style="fill: none; stroke: #e8e8e8; stroke-width: 1.2; stroke-linecap: round"/>
    <path d="M 385.621627 237.19737 
L 393.402754 241.160205 
L 385.211383 244.185338 
z
" clip-path="url(#p7e9f9f07ba)" style="fill: #e8e8e8; stroke: #e8e8e8; stroke-width: 1.2; stroke-linecap: round"/>
   </g>
   <g id="patch_29">
    <path d="M 165.702713 31.813971 
Q 181.775648 127.030587 197.59942 220.77115 
" clip-path="url(#p7e9f9f07ba)" style="fill: none; stroke: #e8e8e8; stroke-width: 1.2; stroke-linecap: round"/>
    <path d="M 199.719002 212.300178 
L 197.59942 220.77115 
L 192.816652 213.465322 
z
" clip-path="url(#p7e9f9f07ba)" style="fill: #e8e8e8; stroke: #e8e8e8; stroke-width: 1.2; stroke-linecap: round"/>
   </g>
   <g id="patch_30">
    <path d="M 160.769664 31.202844 
Q 106.655946 122.878582 53.303155 213.265209 
" clip-path="url(#p7e9f9f07ba)" style="fill: none; stroke: #e8e8e8; stroke-width: 1.2; stroke-linecap: round"/>
    <path d="M 60.383823 208.15501 
L 53.303155 213.265209 
L 54.355659 204.596747 
z
" clip-path="url(#p7e9f9f07ba)" style="fill: #e8e8e8; stroke: #e8e8e8; stroke-width: 1.2; stroke-linecap: round"/>
   </g>
   <g id="patch_31">
    <path d="M 62.258019 350.020588 
Q 181.452578 342.767816 299.152965 335.605962 
" clip-path="url(#p7e9f9f07ba)" style="fill: none; stroke: #e8e8e8; stroke-width: 1.2; stroke-linecap: round"/>
    <path d="M 290.955158 332.59831 
L 299.152965 335.605962 
L 291.380309 339.585387 
z
" clip-path="url(#p7e9f9f07ba)" style="fill: #e8e8e8; stroke: #e8e8e8; stroke-width: 1.2; stroke-linecap: round"/>
   </g>
   <g id="patch_32">
    <path d="M 62.060871 352.112926 
Q 130.198361 364.103757 196.86157 375.835145 
" clip-path="url(#p7e9f9f07ba)" style="fill: none; stroke: #e8e8e8; stroke-width: 1.2; stroke-linecap: round"/>
    <path d="M 189.589249 371.00158 
L 196.86157 375.835145 
L 188.376033 377.895643 
z
" clip-path="url(#p7e9f9f07ba)" style="fill: #e8e8e8; stroke: #e8e8e8; stroke-width: 1.2; stroke-linecap: round"/>
   </g>
   <g id="patch_33">
    <path d="M 323.791996 52.174757 
Q 221.395138 95.934163 120.374789 139.105316 
" clip-path="url(#p7e9f9f07ba)" style="fill: none; stroke: #e8e8e8; stroke-width: 1.2; stroke-linecap: round"/>
    <path d="M 129.106594 139.179975 
L 120.374789 139.105316 
L 126.355797 132.743119 
z
" clip-path="url(#p7e9f9f07ba)" style="fill: #e8e8e8; stroke: #e8e8e8; stroke-width: 1.2; stroke-linecap: round"/>
   </g>
   <g id="patch_34">
    <path d="M 331.402464 55.845493 
Q 329.581908 105.373269 327.81634 153.405119 
" clip-path="url(#p7e9f9f07ba)" style="fill: none; stroke: #e8e8e8; stroke-width: 1.2; stroke-linecap: round"/>
    <path d="M 331.607846 145.539086 
L 327.81634 153.405119 
L 324.61257 145.281951 
z
" clip-path="url(#p7e9f9f07ba)" style="fill: #e8e8e8; stroke: #e8e8e8; stroke-width: 1.2; stroke-linecap: round"/>
   </g>
   <g id="patch_35">
    <path d="M 153.040869 273.135497 
Q 184.174005 246.377164 214.171894 220.594552 
" clip-path="url(#p7e9f9f07ba)" style="fill: none; stroke: #e8e8e8; stroke-width: 1.2; stroke-linecap: round"/>
    <path d="M 205.82351 223.154726 
L 214.171894 220.594552 
L 210.386201 228.463385 
z
" clip-path="url(#p7e9f9f07ba)" style="fill: #e8e8e8; stroke: #e8e8e8; stroke-width: 1.2; stroke-linecap: round"/>
   </g>
   <g id="patch_36">
    <path d="M 153.924604 273.856995 
Q 237.262694 220.123097 319.342691 167.200381 
" clip-path="url(#p7e9f9f07ba)" style="fill: none; stroke: #e8e8e8; stroke-width: 1.2; stroke-linecap: round"/>
    <path d="M 310.722488 168.593975 
L 319.342691 167.200381 
L 314.51575 174.4771 
z
" clip-path="url(#p7e9f9f07ba)" style="fill: #e8e8e8; stroke: #e8e8e8; stroke-width: 1.2; stroke-linecap: round"/>
   </g>
   <g id="patch_37">
    <path d="M 136.261533 196.832443 
Q 149.820129 114.32535 163.135986 33.295382 
" clip-path="url(#p7e9f9f07ba)" style="fill: none; stroke: #e8e8e8; stroke-width: 1.2; stroke-linecap: round"/>
    <path d="M 158.385048 40.621949 
L 163.135986 33.295382 
L 165.292402 41.757052 
z
" clip-path="url(#p7e9f9f07ba)" style="fill: #e8e8e8; stroke: #e8e8e8; stroke-width: 1.2; stroke-linecap: round"/>
   </g>
   <g id="patch_38">
    <path d="M 143.77939 201.922657 
Q 231.308761 182.873698 317.375435 164.143065 
" clip-path="url(#p7e9f9f07ba)" style="fill: none; stroke: #e8e8e8; stroke-width: 1.2; stroke-linecap: round"/>
    <path d="M 308.814129 162.42433 
L 317.375435 164.143065 
L 310.302691 169.264227 
z
" clip-path="url(#p7e9f9f07ba)" style="fill: #e8e8e8; stroke: #e8e8e8; stroke-width: 1.2; stroke-linecap: round"/>
   </g>
   <g id="patch_39">
    <path d="M 397.180556 246.401306 
Q 305.500058 309.706797 215.05137 372.161721 
" clip-path="url(#p7e9f9f07ba)" style="fill: none; stroke: #e8e8e8; stroke-width: 1.2; stroke-linecap: round"/>
    <path d="M 223.623184 370.49619 
L 215.05137 372.161721 
L 219.645752 364.735978 
z
" clip-path="url(#p7e9f9f07ba)" style="fill: #e8e8e8; stroke: #e8e8e8; stroke-width: 1.2; stroke-linecap: round"/>
   </g>
   <g id="patch_40">
    <path d="M 395.532701 244.36547 
Q 228.578095 296.171277 63.053177 347.533452 
" clip-path="url(#p7e9f9f07ba)" style="fill: none; stroke: #e8e8e8; stroke-width: 1.2; stroke-linecap: round"/>
    <path d="M 71.731047 348.505348 
L 63.053177 347.533452 
L 69.656533 341.819812 
z
" clip-path="url(#p7e9f9f07ba)" style="fill: #e8e8e8; stroke: #e8e8e8; stroke-width: 1.2; stroke-linecap: round"/>
   </g>
   <g id="PathCollection_1">
    <defs>
     <path id="mf35fb50d80" d="M 0 10.736749 
C 2.847419 10.736749 5.578599 9.605457 7.592028 7.592028 
C 9.605457 5.578599 10.736749 2.847419 10.736749 0 
C 10.736749 -2.847419 9.605457 -5.578599 7.592028 -7.592028 
C 5.578599 -9.605457 2.847419 -10.736749 0 -10.736749 
C -2.847419 -10.736749 -5.578599 -9.605457 -7.592028 -7.592028 
C -9.605457 -5.578599 -10.736749 -2.847419 -10.736749 0 
C -10.736749 2.847419 -9.605457 5.578599 -7.592028 7.592028 
C -5.578599 9.605457 -2.847419 10.736749 0 10.736749 
z
" style="stroke: #f9a22b; stroke-width: 0.5"/>
    </defs>
    <g clip-path="url(#p7e9f9f07ba)">
     <use xlink:href="#mf35fb50d80" x="309.634083" y="334.968205" style="fill: #f9a22b; stroke: #f9a22b; stroke-width: 0.5"/>
    </g>
   </g>
   <g id="PathCollection_2">
    <defs>
     <path id="mcbeee017f1" d="M 0 9.052317 
C 2.400703 9.052317 4.703402 8.098508 6.400955 6.400955 
C 8.098508 4.703402 9.052317 2.400703 9.052317 0 
C 9.052317 -2.400703 8.098508 -4.703402 6.400955 -6.400955 
C 4.703402 -8.098508 2.400703 -9.052317 0 -9.052317 
C -2.400703 -9.052317 -4.703402 -8.098508 -6.400955 -6.400955 
C -8.098508 -4.703402 -9.052317 -2.400703 -9.052317 0 
C -9.052317 2.400703 -8.098508 4.703402 -6.400955 6.400955 
C -4.703402 8.098508 -2.400703 9.052317 0 9.052317 
z
" style="stroke: #f9c57b; stroke-width: 0.5"/>
    </defs>
    <g clip-path="url(#p7e9f9f07ba)">
     <use xlink:href="#mcbeee017f1" x="199.025412" y="229.218776" style="fill: #f9c57b; stroke: #f9c57b; stroke-width: 0.5"/>
    </g>
   </g>
   <g id="PathCollection_3">
    <defs>
     <path id="m2faa053eca" d="M 0 10.206207 
C 2.706718 10.206207 5.30294 9.130817 7.216878 7.216878 
C 9.130817 5.30294 10.206207 2.706718 10.206207 0 
C 10.206207 -2.706718 9.130817 -5.30294 7.216878 -7.216878 
C 5.30294 -9.130817 2.706718 -10.206207 0 -10.206207 
C -2.706718 -10.206207 -5.30294 -9.130817 -7.216878 -7.216878 
C -9.130817 -5.30294 -10.206207 -2.706718 -10.206207 0 
C -10.206207 2.706718 -9.130817 5.30294 -7.216878 7.216878 
C -5.30294 9.130817 -2.706718 10.206207 0 10.206207 
z
" style="stroke: #f9c780; stroke-width: 0.5"/>
    </defs>
    <g clip-path="url(#p7e9f9f07ba)">
     <use xlink:href="#m2faa053eca" x="222.915426" y="177.157393" style="fill: #f9c780; stroke: #f9c780; stroke-width: 0.5"/>
    </g>
   </g>
   <g id="PathCollection_4">
    <defs>
     <path id="m002f13ba1b" d="M 0 9.052317 
C 2.400703 9.052317 4.703402 8.098508 6.400955 6.400955 
C 8.098508 4.703402 9.052317 2.400703 9.052317 0 
C 9.052317 -2.400703 8.098508 -4.703402 6.400955 -6.400955 
C 4.703402 -8.098508 2.400703 -9.052317 0 -9.052317 
C -2.400703 -9.052317 -4.703402 -8.098508 -6.400955 -6.400955 
C -8.098508 -4.703402 -9.052317 -2.400703 -9.052317 0 
C -9.052317 2.400703 -8.098508 4.703402 -6.400955 6.400955 
C -4.703402 8.098508 -2.400703 9.052317 0 9.052317 
z
" style="stroke: #f9d095; stroke-width: 0.5"/>
    </defs>
    <g clip-path="url(#p7e9f9f07ba)">
     <use xlink:href="#m002f13ba1b" x="111.132931" y="143.054834" style="fill: #f9d095; stroke: #f9d095; stroke-width: 0.5"/>
    </g>
   </g>
   <g id="PathCollection_5">
    <defs>
     <path id="m9339309862" d="M 0 10.206207 
C 2.706718 10.206207 5.30294 9.130817 7.216878 7.216878 
C 9.130817 5.30294 10.206207 2.706718 10.206207 0 
C 10.206207 -2.706718 9.130817 -5.30294 7.216878 -7.216878 
C 5.30294 -9.130817 2.706718 -10.206207 0 -10.206207 
C -2.706718 -10.206207 -5.30294 -9.130817 -7.216878 -7.216878 
C -9.130817 -5.30294 -10.206207 -2.706718 -10.206207 0 
C -10.206207 2.706718 -9.130817 5.30294 -7.216878 7.216878 
C -5.30294 9.130817 -2.706718 10.206207 0 10.206207 
z
" style="stroke: #f9b14c; stroke-width: 0.5"/>
    </defs>
    <g clip-path="url(#p7e9f9f07ba)">
     <use xlink:href="#m9339309862" x="207.117598" y="377.64" style="fill: #f9b14c; stroke: #f9b14c; stroke-width: 0.5"/>
    </g>
   </g>
   <g id="PathCollection_6">
    <defs>
     <path id="m1bf77922be" d="M 0 10.206207 
C 2.706718 10.206207 5.30294 9.130817 7.216878 7.216878 
C 9.130817 5.30294 10.206207 2.706718 10.206207 0 
C 10.206207 -2.706718 9.130817 -5.30294 7.216878 -7.216878 
C 5.30294 -9.130817 2.706718 -10.206207 0 -10.206207 
C -2.706718 -10.206207 -5.30294 -9.130817 -7.216878 -7.216878 
C -9.130817 -5.30294 -10.206207 -2.706718 -10.206207 0 
C -10.206207 2.706718 -9.130817 5.30294 -7.216878 7.216878 
C -5.30294 9.130817 -2.706718 10.206207 0 10.206207 
z
" style="stroke: #f9b453; stroke-width: 0.5"/>
    </defs>
    <g clip-path="url(#p7e9f9f07ba)">
     <use xlink:href="#m1bf77922be" x="221.321106" y="214.449941" style="fill: #f9b453; stroke: #f9b453; stroke-width: 0.5"/>
    </g>
   </g>
   <g id="PathCollection_7">
    <defs>
     <path id="m40db9feff5" d="M 0 8.416254 
C 2.232017 8.416254 4.372916 7.529464 5.95119 5.95119 
C 7.529464 4.372916 8.416254 2.232017 8.416254 0 
C 8.416254 -2.232017 7.529464 -4.372916 5.95119 -5.95119 
C 4.372916 -7.529464 2.232017 -8.416254 0 -8.416254 
C -2.232017 -8.416254 -4.372916 -7.529464 -5.95119 -5.95119 
C -7.529464 -4.372916 -8.416254 -2.232017 -8.416254 0 
C -8.416254 2.232017 -7.529464 4.372916 -5.95119 5.95119 
C -4.372916 7.529464 -2.232017 8.416254 0 8.416254 
z
" style="stroke: #f9cd8d; stroke-width: 0.5"/>
    </defs>
    <g clip-path="url(#p7e9f9f07ba)">
     <use xlink:href="#m40db9feff5" x="217.40682" y="114.713902" style="fill: #f9cd8d; stroke: #f9cd8d; stroke-width: 0.5"/>
    </g>
   </g>
   <g id="PathCollection_8">
    <defs>
     <path id="m80808c68bd" d="M 0 8.416254 
C 2.232017 8.416254 4.372916 7.529464 5.95119 5.95119 
C 7.529464 4.372916 8.416254 2.232017 8.416254 0 
C 8.416254 -2.232017 7.529464 -4.372916 5.95119 -5.95119 
C 4.372916 -7.529464 2.232017 -8.416254 0 -8.416254 
C -2.232017 -8.416254 -4.372916 -7.529464 -5.95119 -5.95119 
C -7.529464 -4.372916 -8.416254 -2.232017 -8.416254 0 
C -8.416254 2.232017 -7.529464 4.372916 -5.95119 5.95119 
C -4.372916 7.529464 -2.232017 8.416254 0 8.416254 
z
" style="stroke: #f9dbad; stroke-width: 0.5"/>
    </defs>
    <g clip-path="url(#p7e9f9f07ba)">
     <use xlink:href="#m80808c68bd" x="164.525479" y="24.84" style="fill: #f9dbad; stroke: #f9dbad; stroke-width: 0.5"/>
    </g>
   </g>
   <g id="PathCollection_9">
    <defs>
     <path id="mabdb111d48" d="M 0 8.416254 
C 2.232017 8.416254 4.372916 7.529464 5.95119 5.95119 
C 7.529464 4.372916 8.416254 2.232017 8.416254 0 
C 8.416254 -2.232017 7.529464 -4.372916 5.95119 -5.95119 
C 4.372916 -7.529464 2.232017 -8.416254 0 -8.416254 
C -2.232017 -8.416254 -4.372916 -7.529464 -5.95119 -5.95119 
C -7.529464 -4.372916 -8.416254 -2.232017 -8.416254 0 
C -8.416254 2.232017 -7.529464 4.372916 -5.95119 5.95119 
C -4.372916 7.529464 -2.232017 8.416254 0 8.416254 
z
" style="stroke: #f9dcaf; stroke-width: 0.5"/>
    </defs>
    <g clip-path="url(#p7e9f9f07ba)">
     <use xlink:href="#mabdb111d48" x="53.276686" y="350.567085" style="fill: #f9dcaf; stroke: #f9dcaf; stroke-width: 0.5"/>
    </g>
   </g>
   <g id="PathCollection_10">
    <defs>
     <path id="mf87e78f0eb" d="M 0 7.728015 
C 2.049494 7.728015 4.015321 6.913743 5.464532 5.464532 
C 6.913743 4.015321 7.728015 2.049494 7.728015 0 
C 7.728015 -2.049494 6.913743 -4.015321 5.464532 -5.464532 
C 4.015321 -6.913743 2.049494 -7.728015 0 -7.728015 
C -2.049494 -7.728015 -4.015321 -6.913743 -5.464532 -5.464532 
C -6.913743 -4.015321 -7.728015 -2.049494 -7.728015 0 
C -7.728015 2.049494 -6.913743 4.015321 -5.464532 5.464532 
C -4.015321 6.913743 -2.049494 7.728015 0 7.728015 
z
" style="stroke: #f9dfb6; stroke-width: 0.5"/>
    </defs>
    <g clip-path="url(#p7e9f9f07ba)">
     <use xlink:href="#mf87e78f0eb" x="331.661006" y="48.811928" style="fill: #f9dfb6; stroke: #f9dfb6; stroke-width: 0.5"/>
    </g>
   </g>
   <g id="PathCollection_11">
    <g clip-path="url(#p7e9f9f07ba)">
     <use xlink:href="#mf87e78f0eb" x="147.026721" y="278.304542" style="fill: #f9dfb6; stroke: #f9dfb6; stroke-width: 0.5"/>
    </g>
   </g>
   <g id="PathCollection_12">
    <defs>
     <path id="m146f507345" d="M 0 11.242281 
C 2.981488 11.242281 5.841263 10.057724 7.949493 7.949493 
C 10.057724 5.841263 11.242281 2.981488 11.242281 0 
C 11.242281 -2.981488 10.057724 -5.841263 7.949493 -7.949493 
C 5.841263 -10.057724 2.981488 -11.242281 0 -11.242281 
C -2.981488 -11.242281 -5.841263 -10.057724 -7.949493 -7.949493 
C -10.057724 -5.841263 -11.242281 -2.981488 -11.242281 0 
C -11.242281 2.981488 -10.057724 5.841263 -7.949493 7.949493 
C -5.841263 10.057724 -2.981488 11.242281 0 11.242281 
z
" style="stroke: #f9b75a; stroke-width: 0.5"/>
    </defs>
    <g clip-path="url(#p7e9f9f07ba)">
     <use xlink:href="#m146f507345" x="327.502646" y="161.939086" style="fill: #f9b75a; stroke: #f9b75a; stroke-width: 0.5"/>
    </g>
   </g>
   <g id="PathCollection_13">
    <defs>
     <path id="m1a97f85f59" d="M 0 9.646531 
C 2.55829 9.646531 5.012143 8.630111 6.821127 6.821127 
C 8.630111 5.012143 9.646531 2.55829 9.646531 0 
C 9.646531 -2.55829 8.630111 -5.012143 6.821127 -6.821127 
C 5.012143 -8.630111 2.55829 -9.646531 0 -9.646531 
C -2.55829 -9.646531 -5.012143 -8.630111 -6.821127 -6.821127 
C -8.630111 -5.012143 -9.646531 -2.55829 -9.646531 0 
C -9.646531 2.55829 -8.630111 5.012143 -6.821127 6.821127 
C -5.012143 8.630111 -2.55829 9.646531 0 9.646531 
z
" style="stroke: #f9ba62; stroke-width: 0.5"/>
    </defs>
    <g clip-path="url(#p7e9f9f07ba)">
     <use xlink:href="#m1a97f85f59" x="209.204473" y="213.472938" style="fill: #f9ba62; stroke: #f9ba62; stroke-width: 0.5"/>
    </g>
   </g>
   <g id="PathCollection_14">
    <defs>
     <path id="mea0ce31913" d="M 0 8.416254 
C 2.232017 8.416254 4.372916 7.529464 5.95119 5.95119 
C 7.529464 4.372916 8.416254 2.232017 8.416254 0 
C 8.416254 -2.232017 7.529464 -4.372916 5.95119 -5.95119 
C 4.372916 -7.529464 2.232017 -8.416254 0 -8.416254 
C -2.232017 -8.416254 -4.372916 -7.529464 -5.95119 -5.95119 
C -7.529464 -4.372916 -8.416254 -2.232017 -8.416254 0 
C -8.416254 2.232017 -7.529464 4.372916 -5.95119 5.95119 
C -4.372916 7.529464 -2.232017 8.416254 0 8.416254 
z
" style="stroke: #f9d197; stroke-width: 0.5"/>
    </defs>
    <g clip-path="url(#p7e9f9f07ba)">
     <use xlink:href="#mea0ce31913" x="403.88005" y="241.775298" style="fill: #f9d197; stroke: #f9d197; stroke-width: 0.5"/>
    </g>
   </g>
   <g id="PathCollection_15">
    <defs>
     <path id="m18523c7158" d="M 0 9.052317 
C 2.400703 9.052317 4.703402 8.098508 6.400955 6.400955 
C 8.098508 4.703402 9.052317 2.400703 9.052317 0 
C 9.052317 -2.400703 8.098508 -4.703402 6.400955 -6.400955 
C 4.703402 -8.098508 2.400703 -9.052317 0 -9.052317 
C -2.400703 -9.052317 -4.703402 -8.098508 -6.400955 -6.400955 
C -8.098508 -4.703402 -9.052317 -2.400703 -9.052317 0 
C -9.052317 2.400703 -8.098508 4.703402 -6.400955 6.400955 
C -4.703402 8.098508 -2.400703 9.052317 0 9.052317 
z
" style="stroke: #f9bf6c; stroke-width: 0.5"/>
    </defs>
    <g clip-path="url(#p7e9f9f07ba)">
     <use xlink:href="#m18523c7158" x="262.536731" y="233.477416" style="fill: #f9bf6c; stroke: #f9bf6c; stroke-width: 0.5"/>
    </g>
   </g>
   <g id="PathCollection_16">
    <defs>
     <path id="m663f0dda19" d="M 0 8.416254 
C 2.232017 8.416254 4.372916 7.529464 5.95119 5.95119 
C 7.529464 4.372916 8.416254 2.232017 8.416254 0 
C 8.416254 -2.232017 7.529464 -4.372916 5.95119 -5.95119 
C 4.372916 -7.529464 2.232017 -8.416254 0 -8.416254 
C -2.232017 -8.416254 -4.372916 -7.529464 -5.95119 -5.95119 
C -7.529464 -4.372916 -8.416254 -2.232017 -8.416254 0 
C -8.416254 2.232017 -7.529464 4.372916 -5.95119 5.95119 
C -4.372916 7.529464 -2.232017 8.416254 0 8.416254 
z
" style="stroke: #f9c172; stroke-width: 0.5"/>
    </defs>
    <g clip-path="url(#p7e9f9f07ba)">
     <use xlink:href="#m663f0dda19" x="218.456985" y="281.831465" style="fill: #f9c172; stroke: #f9c172; stroke-width: 0.5"/>
    </g>
   </g>
   <g id="PathCollection_17">
    <defs>
     <path id="m1958f7414b" d="M 0 9.052317 
C 2.400703 9.052317 4.703402 8.098508 6.400955 6.400955 
C 8.098508 4.703402 9.052317 2.400703 9.052317 0 
C 9.052317 -2.400703 8.098508 -4.703402 6.400955 -6.400955 
C 4.703402 -8.098508 2.400703 -9.052317 0 -9.052317 
C -2.400703 -9.052317 -4.703402 -8.098508 -6.400955 -6.400955 
C -8.098508 -4.703402 -9.052317 -2.400703 -9.052317 0 
C -9.052317 2.400703 -8.098508 4.703402 -6.400955 6.400955 
C -4.703402 8.098508 -2.400703 9.052317 0 9.052317 
z
" style="stroke: #f9ce90; stroke-width: 0.5"/>
    </defs>
    <g clip-path="url(#p7e9f9f07ba)">
     <use xlink:href="#m1958f7414b" x="135.115183" y="203.808243" style="fill: #f9ce90; stroke: #f9ce90; stroke-width: 0.5"/>
    </g>
   </g>
   <g id="PathCollection_18">
    <defs>
     <path id="mc1b67cca86" d="M 0 9.052317 
C 2.400703 9.052317 4.703402 8.098508 6.400955 6.400955 
C 8.098508 4.703402 9.052317 2.400703 9.052317 0 
C 9.052317 -2.400703 8.098508 -4.703402 6.400955 -6.400955 
C 4.703402 -8.098508 2.400703 -9.052317 0 -9.052317 
C -2.400703 -9.052317 -4.703402 -8.098508 -6.400955 -6.400955 
C -8.098508 -4.703402 -9.052317 -2.400703 -9.052317 0 
C -9.052317 2.400703 -8.098508 4.703402 -6.400955 6.400955 
C -4.703402 8.098508 -2.400703 9.052317 0 9.052317 
z
" style="stroke: #f9d7a3; stroke-width: 0.5"/>
    </defs>
    <g clip-path="url(#p7e9f9f07ba)">
     <use xlink:href="#mc1b67cca86" x="48.789141" y="220.912541" style="fill: #f9d7a3; stroke: #f9d7a3; stroke-width: 0.5"/>
    </g>
   </g>
   <g id="PathCollection_19">
    <defs>
     <path id="m9ae28deb29" d="M 0 -6.972167 
L -1.565349 -2.154518 
L -6.630925 -2.154518 
L -2.532788 0.822953 
L -4.098137 5.640601 
L -0 2.663131 
L 4.098137 5.640601 
L 2.532788 0.822953 
L 6.630925 -2.154518 
L 1.565349 -2.154518 
z
" style="stroke: #f9dfb6; stroke-width: 0.8"/>
    </defs>
    <g clip-path="url(#p7e9f9f07ba)">
     <use xlink:href="#m9ae28deb29" x="158.192828" y="149.134039" style="fill: #f9dfb6; stroke: #f9dfb6; stroke-width: 0.8"/>
    </g>
   </g>
   <g id="text_1">
    <!-- De훾ek 훾arovnik -->
    <g transform="translate(275.015724 333.421026) scale(0.09 -0.09)">
     <defs>
      <path id="DejaVuSans-44" d="M 1259 4147 
L 1259 519 
L 2022 519 
Q 2988 519 3436 956 
Q 3884 1394 3884 2338 
Q 3884 3275 3436 3711 
Q 2988 4147 2022 4147 
L 1259 4147 
z
M 628 4666 
L 1925 4666 
Q 3281 4666 3915 4102 
Q 4550 3538 4550 2338 
Q 4550 1131 3912 565 
Q 3275 0 1925 0 
L 628 0 
L 628 4666 
z
" transform="scale(0.015625)"/>
      <path id="DejaVuSans-65" d="M 3597 1894 
L 3597 1613 
L 953 1613 
Q 991 1019 1311 708 
Q 1631 397 2203 397 
Q 2534 397 2845 478 
Q 3156 559 3463 722 
L 3463 178 
Q 3153 47 2828 -22 
Q 2503 -91 2169 -91 
Q 1331 -91 842 396 
Q 353 884 353 1716 
Q 353 2575 817 3079 
Q 1281 3584 2069 3584 
Q 2775 3584 3186 3129 
Q 3597 2675 3597 1894 
z
M 3022 2063 
Q 3016 2534 2758 2815 
Q 2500 3097 2075 3097 
Q 1594 3097 1305 2825 
Q 1016 2553 972 2059 
L 3022 2063 
z
" transform="scale(0.015625)"/>
      <path id="DejaVuSans-10d" d="M 3122 3366 
L 3122 2828 
Q 2878 2963 2633 3030 
Q 2388 3097 2138 3097 
Q 1578 3097 1268 2742 
Q 959 2388 959 1747 
Q 959 1106 1268 751 
Q 1578 397 2138 397 
Q 2388 397 2633 464 
Q 2878 531 3122 666 
L 3122 134 
Q 2881 22 2623 -34 
Q 2366 -91 2075 -91 
Q 1284 -91 818 406 
Q 353 903 353 1747 
Q 353 2603 823 3093 
Q 1294 3584 2113 3584 
Q 2378 3584 2631 3529 
Q 2884 3475 3122 3366 
z
M 1801 3944 
L 1035 5119 
L 1470 5119 
L 2032 4353 
L 2595 5119 
L 3029 5119 
L 2263 3944 
L 1801 3944 
z
" transform="scale(0.015625)"/>
      <path id="DejaVuSans-6b" d="M 581 4863 
L 1159 4863 
L 1159 1991 
L 2875 3500 
L 3609 3500 
L 1753 1863 
L 3688 0 
L 2938 0 
L 1159 1709 
L 1159 0 
L 581 0 
L 581 4863 
z
" transform="scale(0.015625)"/>
      <path id="DejaVuSans-20" transform="scale(0.015625)"/>
      <path id="DejaVuSans-61" d="M 2194 1759 
Q 1497 1759 1228 1600 
Q 959 1441 959 1056 
Q 959 750 1161 570 
Q 1363 391 1709 391 
Q 2188 391 2477 730 
Q 2766 1069 2766 1631 
L 2766 1759 
L 2194 1759 
z
M 3341 1997 
L 3341 0 
L 2766 0 
L 2766 531 
Q 2569 213 2275 61 
Q 1981 -91 1556 -91 
Q 1019 -91 701 211 
Q 384 513 384 1019 
Q 384 1609 779 1909 
Q 1175 2209 1959 2209 
L 2766 2209 
L 2766 2266 
Q 2766 2663 2505 2880 
Q 2244 3097 1772 3097 
Q 1472 3097 1187 3025 
Q 903 2953 641 2809 
L 641 3341 
Q 956 3463 1253 3523 
Q 1550 3584 1831 3584 
Q 2591 3584 2966 3190 
Q 3341 2797 3341 1997 
z
" transform="scale(0.015625)"/>
      <path id="DejaVuSans-72" d="M 2631 2963 
Q 2534 3019 2420 3045 
Q 2306 3072 2169 3072 
Q 1681 3072 1420 2755 
Q 1159 2438 1159 1844 
L 1159 0 
L 581 0 
L 581 3500 
L 1159 3500 
L 1159 2956 
Q 1341 3275 1631 3429 
Q 1922 3584 2338 3584 
Q 2397 3584 2469 3576 
Q 2541 3569 2628 3553 
L 2631 2963 
z
" transform="scale(0.015625)"/>
      <path id="DejaVuSans-6f" d="M 1959 3097 
Q 1497 3097 1228 2736 
Q 959 2375 959 1747 
Q 959 1119 1226 758 
Q 1494 397 1959 397 
Q 2419 397 2687 759 
Q 2956 1122 2956 1747 
Q 2956 2369 2687 2733 
Q 2419 3097 1959 3097 
z
M 1959 3584 
Q 2709 3584 3137 3096 
Q 3566 2609 3566 1747 
Q 3566 888 3137 398 
Q 2709 -91 1959 -91 
Q 1206 -91 779 398 
Q 353 888 353 1747 
Q 353 2609 779 3096 
Q 1206 3584 1959 3584 
z
" transform="scale(0.015625)"/>
      <path id="DejaVuSans-76" d="M 191 3500 
L 800 3500 
L 1894 563 
L 2988 3500 
L 3597 3500 
L 2284 0 
L 1503 0 
L 191 3500 
z
" transform="scale(0.015625)"/>
      <path id="DejaVuSans-6e" d="M 3513 2113 
L 3513 0 
L 2938 0 
L 2938 2094 
Q 2938 2591 2744 2837 
Q 2550 3084 2163 3084 
Q 1697 3084 1428 2787 
Q 1159 2491 1159 1978 
L 1159 0 
L 581 0 
L 581 3500 
L 1159 3500 
L 1159 2956 
Q 1366 3272 1645 3428 
Q 1925 3584 2291 3584 
Q 2894 3584 3203 3211 
Q 3513 2838 3513 2113 
z
" transform="scale(0.015625)"/>
      <path id="DejaVuSans-69" d="M 603 3500 
L 1178 3500 
L 1178 0 
L 603 0 
L 603 3500 
z
M 603 4863 
L 1178 4863 
L 1178 4134 
L 603 4134 
L 603 4863 
z
" transform="scale(0.015625)"/>
     </defs>
     <use xlink:href="#DejaVuSans-44"/>
     <use xlink:href="#DejaVuSans-65" transform="translate(77.001953 0)"/>
     <use xlink:href="#DejaVuSans-10d" transform="translate(138.525391 0)"/>
     <use xlink:href="#DejaVuSans-65" transform="translate(193.505859 0)"/>
     <use xlink:href="#DejaVuSans-6b" transform="translate(255.029297 0)"/>
     <use xlink:href="#DejaVuSans-20" transform="translate(312.939453 0)"/>
     <use xlink:href="#DejaVuSans-10d" transform="translate(344.726562 0)"/>
     <use xlink:href="#DejaVuSans-61" transform="translate(399.707031 0)"/>
     <use xlink:href="#DejaVuSans-72" transform="translate(460.986328 0)"/>
     <use xlink:href="#DejaVuSans-6f" transform="translate(499.849609 0)"/>
     <use xlink:href="#DejaVuSans-76" transform="translate(561.03125 0)"/>
     <use xlink:href="#DejaVuSans-6e" transform="translate(620.210938 0)"/>
     <use xlink:href="#DejaVuSans-69" transform="translate(683.589844 0)"/>
     <use xlink:href="#DejaVuSans-6b" transform="translate(711.373047 0)"/>
    </g>
   </g>
   <g id="text_2">
    <!-- Pametna 훾arovnica -->
    <g transform="translate(156.069396 227.671598) scale(0.09 -0.09)">
     <defs>
      <path id="DejaVuSans-50" d="M 1259 4147 
L 1259 2394 
L 2053 2394 
Q 2494 2394 2734 2622 
Q 2975 2850 2975 3272 
Q 2975 3691 2734 3919 
Q 2494 4147 2053 4147 
L 1259 4147 
z
M 628 4666 
L 2053 4666 
Q 2838 4666 3239 4311 
Q 3641 3956 3641 3272 
Q 3641 2581 3239 2228 
Q 2838 1875 2053 1875 
L 1259 1875 
L 1259 0 
L 628 0 
L 628 4666 
z
" transform="scale(0.015625)"/>
      <path id="DejaVuSans-6d" d="M 3328 2828 
Q 3544 3216 3844 3400 
Q 4144 3584 4550 3584 
Q 5097 3584 5394 3201 
Q 5691 2819 5691 2113 
L 5691 0 
L 5113 0 
L 5113 2094 
Q 5113 2597 4934 2840 
Q 4756 3084 4391 3084 
Q 3944 3084 3684 2787 
Q 3425 2491 3425 1978 
L 3425 0 
L 2847 0 
L 2847 2094 
Q 2847 2600 2669 2842 
Q 2491 3084 2119 3084 
Q 1678 3084 1418 2786 
Q 1159 2488 1159 1978 
L 1159 0 
L 581 0 
L 581 3500 
L 1159 3500 
L 1159 2956 
Q 1356 3278 1631 3431 
Q 1906 3584 2284 3584 
Q 2666 3584 2933 3390 
Q 3200 3197 3328 2828 
z
" transform="scale(0.015625)"/>
      <path id="DejaVuSans-74" d="M 1172 4494 
L 1172 3500 
L 2356 3500 
L 2356 3053 
L 1172 3053 
L 1172 1153 
Q 1172 725 1289 603 
Q 1406 481 1766 481 
L 2356 481 
L 2356 0 
L 1766 0 
Q 1100 0 847 248 
Q 594 497 594 1153 
L 594 3053 
L 172 3053 
L 172 3500 
L 594 3500 
L 594 4494 
L 1172 4494 
z
" transform="scale(0.015625)"/>
      <path id="DejaVuSans-63" d="M 3122 3366 
L 3122 2828 
Q 2878 2963 2633 3030 
Q 2388 3097 2138 3097 
Q 1578 3097 1268 2742 
Q 959 2388 959 1747 
Q 959 1106 1268 751 
Q 1578 397 2138 397 
Q 2388 397 2633 464 
Q 2878 531 3122 666 
L 3122 134 
Q 2881 22 2623 -34 
Q 2366 -91 2075 -91 
Q 1284 -91 818 406 
Q 353 903 353 1747 
Q 353 2603 823 3093 
Q 1294 3584 2113 3584 
Q 2378 3584 2631 3529 
Q 2884 3475 3122 3366 
z
" transform="scale(0.015625)"/>
     </defs>
     <use xlink:href="#DejaVuSans-50"/>
     <use xlink:href="#DejaVuSans-61" transform="translate(55.802734 0)"/>
     <use xlink:href="#DejaVuSans-6d" transform="translate(117.082031 0)"/>
     <use xlink:href="#DejaVuSans-65" transform="translate(214.494141 0)"/>
     <use xlink:href="#DejaVuSans-74" transform="translate(276.017578 0)"/>
     <use xlink:href="#DejaVuSans-6e" transform="translate(315.226562 0)"/>
     <use xlink:href="#DejaVuSans-61" transform="translate(378.605469 0)"/>
     <use xlink:href="#DejaVuSans-20" transform="translate(439.884766 0)"/>
     <use xlink:href="#DejaVuSans-10d" transform="translate(471.671875 0)"/>
     <use xlink:href="#DejaVuSans-61" transform="translate(526.652344 0)"/>
     <use xlink:href="#DejaVuSans-72" transform="translate(587.931641 0)"/>
     <use xlink:href="#DejaVuSans-6f" transform="translate(626.794922 0)"/>
     <use xlink:href="#DejaVuSans-76" transform="translate(687.976562 0)"/>
     <use xlink:href="#DejaVuSans-6e" transform="translate(747.15625 0)"/>
     <use xlink:href="#DejaVuSans-69" transform="translate(810.535156 0)"/>
     <use xlink:href="#DejaVuSans-63" transform="translate(838.318359 0)"/>
     <use xlink:href="#DejaVuSans-61" transform="translate(893.298828 0)"/>
    </g>
   </g>
   <g id="text_3">
    <!-- Modri ravnatelj -->
    <g transform="translate(188.978395 175.610214) scale(0.09 -0.09)">
     <defs>
      <path id="DejaVuSans-4d" d="M 628 4666 
L 1569 4666 
L 2759 1491 
L 3956 4666 
L 4897 4666 
L 4897 0 
L 4281 0 
L 4281 4097 
L 3078 897 
L 2444 897 
L 1241 4097 
L 1241 0 
L 628 0 
L 628 4666 
z
" transform="scale(0.015625)"/>
      <path id="DejaVuSans-64" d="M 2906 2969 
L 2906 4863 
L 3481 4863 
L 3481 0 
L 2906 0 
L 2906 525 
Q 2725 213 2448 61 
Q 2172 -91 1784 -91 
Q 1150 -91 751 415 
Q 353 922 353 1747 
Q 353 2572 751 3078 
Q 1150 3584 1784 3584 
Q 2172 3584 2448 3432 
Q 2725 3281 2906 2969 
z
M 947 1747 
Q 947 1113 1208 752 
Q 1469 391 1925 391 
Q 2381 391 2643 752 
Q 2906 1113 2906 1747 
Q 2906 2381 2643 2742 
Q 2381 3103 1925 3103 
Q 1469 3103 1208 2742 
Q 947 2381 947 1747 
z
" transform="scale(0.015625)"/>
      <path id="DejaVuSans-6c" d="M 603 4863 
L 1178 4863 
L 1178 0 
L 603 0 
L 603 4863 
z
" transform="scale(0.015625)"/>
      <path id="DejaVuSans-6a" d="M 603 3500 
L 1178 3500 
L 1178 -63 
Q 1178 -731 923 -1031 
Q 669 -1331 103 -1331 
L -116 -1331 
L -116 -844 
L 38 -844 
Q 366 -844 484 -692 
Q 603 -541 603 -63 
L 603 3500 
z
M 603 4863 
L 1178 4863 
L 1178 4134 
L 603 4134 
L 603 4863 
z
" transform="scale(0.015625)"/>
     </defs>
     <use xlink:href="#DejaVuSans-4d"/>
     <use xlink:href="#DejaVuSans-6f" transform="translate(86.279297 0)"/>
     <use xlink:href="#DejaVuSans-64" transform="translate(147.460938 0)"/>
     <use xlink:href="#DejaVuSans-72" transform="translate(210.9375 0)"/>
     <use xlink:href="#DejaVuSans-69" transform="translate(252.050781 0)"/>
     <use xlink:href="#DejaVuSans-20" transform="translate(279.833984 0)"/>
     <use xlink:href="#DejaVuSans-72" transform="translate(311.621094 0)"/>
     <use xlink:href="#DejaVuSans-61" transform="translate(352.734375 0)"/>
     <use xlink:href="#DejaVuSans-76" transform="translate(414.013672 0)"/>
     <use xlink:href="#DejaVuSans-6e" transform="translate(473.193359 0)"/>
     <use xlink:href="#DejaVuSans-61" transform="translate(536.572266 0)"/>
     <use xlink:href="#DejaVuSans-74" transform="translate(597.851562 0)"/>
     <use xlink:href="#DejaVuSans-65" transform="translate(637.060547 0)"/>
     <use xlink:href="#DejaVuSans-6c" transform="translate(698.583984 0)"/>
     <use xlink:href="#DejaVuSans-6a" transform="translate(726.367188 0)"/>
    </g>
   </g>
   <g id="text_4">
    <!-- Mladi pilot -->
    <g transform="translate(87.830665 141.507655) scale(0.09 -0.09)">
     <defs>
      <path id="DejaVuSans-70" d="M 1159 525 
L 1159 -1331 
L 581 -1331 
L 581 3500 
L 1159 3500 
L 1159 2969 
Q 1341 3281 1617 3432 
Q 1894 3584 2278 3584 
Q 2916 3584 3314 3078 
Q 3713 2572 3713 1747 
Q 3713 922 3314 415 
Q 2916 -91 2278 -91 
Q 1894 -91 1617 61 
Q 1341 213 1159 525 
z
M 3116 1747 
Q 3116 2381 2855 2742 
Q 2594 3103 2138 3103 
Q 1681 3103 1420 2742 
Q 1159 2381 1159 1747 
Q 1159 1113 1420 752 
Q 1681 391 2138 391 
Q 2594 391 2855 752 
Q 3116 1113 3116 1747 
z
" transform="scale(0.015625)"/>
     </defs>
     <use xlink:href="#DejaVuSans-4d"/>
     <use xlink:href="#DejaVuSans-6c" transform="translate(86.279297 0)"/>
     <use xlink:href="#DejaVuSans-61" transform="translate(114.0625 0)"/>
     <use xlink:href="#DejaVuSans-64" transform="translate(175.341797 0)"/>
     <use xlink:href="#DejaVuSans-69" transform="translate(238.818359 0)"/>
     <use xlink:href="#DejaVuSans-20" transform="translate(266.601562 0)"/>
     <use xlink:href="#DejaVuSans-70" transform="translate(298.388672 0)"/>
     <use xlink:href="#DejaVuSans-69" transform="translate(361.865234 0)"/>
     <use xlink:href="#DejaVuSans-6c" transform="translate(389.648438 0)"/>
     <use xlink:href="#DejaVuSans-6f" transform="translate(417.431641 0)"/>
     <use xlink:href="#DejaVuSans-74" transform="translate(478.613281 0)"/>
    </g>
   </g>
   <g id="text_5">
    <!-- Tihotapec -->
    <g transform="translate(185.032441 376.092821) scale(0.09 -0.09)">
     <defs>
      <path id="DejaVuSans-54" d="M -19 4666 
L 3928 4666 
L 3928 4134 
L 2272 4134 
L 2272 0 
L 1638 0 
L 1638 4134 
L -19 4134 
L -19 4666 
z
" transform="scale(0.015625)"/>
      <path id="DejaVuSans-68" d="M 3513 2113 
L 3513 0 
L 2938 0 
L 2938 2094 
Q 2938 2591 2744 2837 
Q 2550 3084 2163 3084 
Q 1697 3084 1428 2787 
Q 1159 2491 1159 1978 
L 1159 0 
L 581 0 
L 581 4863 
L 1159 4863 
L 1159 2956 
Q 1366 3272 1645 3428 
Q 1925 3584 2291 3584 
Q 2894 3584 3203 3211 
Q 3513 2838 3513 2113 
z
" transform="scale(0.015625)"/>
     </defs>
     <use xlink:href="#DejaVuSans-54"/>
     <use xlink:href="#DejaVuSans-69" transform="translate(57.958984 0)"/>
     <use xlink:href="#DejaVuSans-68" transform="translate(85.742188 0)"/>
     <use xlink:href="#DejaVuSans-6f" transform="translate(149.121094 0)"/>
     <use xlink:href="#DejaVuSans-74" transform="translate(210.302734 0)"/>
     <use xlink:href="#DejaVuSans-61" transform="translate(249.511719 0)"/>
     <use xlink:href="#DejaVuSans-70" transform="translate(310.791016 0)"/>
     <use xlink:href="#DejaVuSans-65" transform="translate(374.267578 0)"/>
     <use xlink:href="#DejaVuSans-63" transform="translate(435.791016 0)"/>
    </g>
   </g>
   <g id="text_6">
    <!-- Zeleni mojster -->
    <g transform="translate(188.804387 212.902763) scale(0.09 -0.09)">
     <defs>
      <path id="DejaVuSans-5a" d="M 359 4666 
L 4025 4666 
L 4025 4184 
L 1075 531 
L 4097 531 
L 4097 0 
L 288 0 
L 288 481 
L 3238 4134 
L 359 4134 
L 359 4666 
z
" transform="scale(0.015625)"/>
      <path id="DejaVuSans-73" d="M 2834 3397 
L 2834 2853 
Q 2591 2978 2328 3040 
Q 2066 3103 1784 3103 
Q 1356 3103 1142 2972 
Q 928 2841 928 2578 
Q 928 2378 1081 2264 
Q 1234 2150 1697 2047 
L 1894 2003 
Q 2506 1872 2764 1633 
Q 3022 1394 3022 966 
Q 3022 478 2636 193 
Q 2250 -91 1575 -91 
Q 1294 -91 989 -36 
Q 684 19 347 128 
L 347 722 
Q 666 556 975 473 
Q 1284 391 1588 391 
Q 1994 391 2212 530 
Q 2431 669 2431 922 
Q 2431 1156 2273 1281 
Q 2116 1406 1581 1522 
L 1381 1569 
Q 847 1681 609 1914 
Q 372 2147 372 2553 
Q 372 3047 722 3315 
Q 1072 3584 1716 3584 
Q 2034 3584 2315 3537 
Q 2597 3491 2834 3397 
z
" transform="scale(0.015625)"/>
     </defs>
     <use xlink:href="#DejaVuSans-5a"/>
     <use xlink:href="#DejaVuSans-65" transform="translate(68.505859 0)"/>
     <use xlink:href="#DejaVuSans-6c" transform="translate(130.029297 0)"/>
     <use xlink:href="#DejaVuSans-65" transform="translate(157.8125 0)"/>
     <use xlink:href="#DejaVuSans-6e" transform="translate(219.335938 0)"/>
     <use xlink:href="#DejaVuSans-69" transform="translate(282.714844 0)"/>
     <use xlink:href="#DejaVuSans-20" transform="translate(310.498047 0)"/>
     <use xlink:href="#DejaVuSans-6d" transform="translate(342.285156 0)"/>
     <use xlink:href="#DejaVuSans-6f" transform="translate(439.697266 0)"/>
     <use xlink:href="#DejaVuSans-6a" transform="translate(500.878906 0)"/>
     <use xlink:href="#DejaVuSans-73" transform="translate(528.662109 0)"/>
     <use xlink:href="#DejaVuSans-74" transform="translate(580.761719 0)"/>
     <use xlink:href="#DejaVuSans-65" transform="translate(619.970703 0)"/>
     <use xlink:href="#DejaVuSans-72" transform="translate(681.494141 0)"/>
    </g>
   </g>
   <g id="text_7">
    <!-- Nosilec prstana -->
    <g transform="translate(182.586664 113.166724) scale(0.09 -0.09)">
     <defs>
      <path id="DejaVuSans-4e" d="M 628 4666 
L 1478 4666 
L 3547 763 
L 3547 4666 
L 4159 4666 
L 4159 0 
L 3309 0 
L 1241 3903 
L 1241 0 
L 628 0 
L 628 4666 
z
" transform="scale(0.015625)"/>
     </defs>
     <use xlink:href="#DejaVuSans-4e"/>
     <use xlink:href="#DejaVuSans-6f" transform="translate(74.804688 0)"/>
     <use xlink:href="#DejaVuSans-73" transform="translate(135.986328 0)"/>
     <use xlink:href="#DejaVuSans-69" transform="translate(188.085938 0)"/>
     <use xlink:href="#DejaVuSans-6c" transform="translate(215.869141 0)"/>
     <use xlink:href="#DejaVuSans-65" transform="translate(243.652344 0)"/>
     <use xlink:href="#DejaVuSans-63" transform="translate(305.175781 0)"/>
     <use xlink:href="#DejaVuSans-20" transform="translate(360.15625 0)"/>
     <use xlink:href="#DejaVuSans-70" transform="translate(391.943359 0)"/>
     <use xlink:href="#DejaVuSans-72" transform="translate(455.419922 0)"/>
     <use xlink:href="#DejaVuSans-73" transform="translate(496.533203 0)"/>
     <use xlink:href="#DejaVuSans-74" transform="translate(548.632812 0)"/>
     <use xlink:href="#DejaVuSans-61" transform="translate(587.841797 0)"/>
     <use xlink:href="#DejaVuSans-6e" transform="translate(649.121094 0)"/>
     <use xlink:href="#DejaVuSans-61" transform="translate(712.5 0)"/>
    </g>
   </g>
   <g id="text_8">
    <!-- Sivi 훾arovnik -->
    <g transform="translate(135.969464 23.292821) scale(0.09 -0.09)">
     <defs>
      <path id="DejaVuSans-53" d="M 3425 4513 
L 3425 3897 
Q 3066 4069 2747 4153 
Q 2428 4238 2131 4238 
Q 1616 4238 1336 4038 
Q 1056 3838 1056 3469 
Q 1056 3159 1242 3001 
Q 1428 2844 1947 2747 
L 2328 2669 
Q 3034 2534 3370 2195 
Q 3706 1856 3706 1288 
Q 3706 609 3251 259 
Q 2797 -91 1919 -91 
Q 1588 -91 1214 -16 
Q 841 59 441 206 
L 441 856 
Q 825 641 1194 531 
Q 1563 422 1919 422 
Q 2459 422 2753 634 
Q 3047 847 3047 1241 
Q 3047 1584 2836 1778 
Q 2625 1972 2144 2069 
L 1759 2144 
Q 1053 2284 737 2584 
Q 422 2884 422 3419 
Q 422 4038 858 4394 
Q 1294 4750 2059 4750 
Q 2388 4750 2728 4690 
Q 3069 4631 3425 4513 
z
" transform="scale(0.015625)"/>
     </defs>
     <use xlink:href="#DejaVuSans-53"/>
     <use xlink:href="#DejaVuSans-69" transform="translate(63.476562 0)"/>
     <use xlink:href="#DejaVuSans-76" transform="translate(91.259766 0)"/>
     <use xlink:href="#DejaVuSans-69" transform="translate(150.439453 0)"/>
     <use xlink:href="#DejaVuSans-20" transform="translate(178.222656 0)"/>
     <use xlink:href="#DejaVuSans-10d" transform="translate(210.009766 0)"/>
     <use xlink:href="#DejaVuSans-61" transform="translate(264.990234 0)"/>
     <use xlink:href="#DejaVuSans-72" transform="translate(326.269531 0)"/>
     <use xlink:href="#DejaVuSans-6f" transform="translate(365.132812 0)"/>
     <use xlink:href="#DejaVuSans-76" transform="translate(426.314453 0)"/>
     <use xlink:href="#DejaVuSans-6e" transform="translate(485.494141 0)"/>
     <use xlink:href="#DejaVuSans-69" transform="translate(548.873047 0)"/>
     <use xlink:href="#DejaVuSans-6b" transform="translate(576.65625 0)"/>
    </g>
   </g>
   <g id="text_9">
    <!-- Postopa훾 -->
    <g transform="translate(33.022467 349.199907) scale(0.09 -0.09)">
     <use xlink:href="#DejaVuSans-50"/>
     <use xlink:href="#DejaVuSans-6f" transform="translate(56.677734 0)"/>
     <use xlink:href="#DejaVuSans-73" transform="translate(117.859375 0)"/>
     <use xlink:href="#DejaVuSans-74" transform="translate(169.958984 0)"/>
     <use xlink:href="#DejaVuSans-6f" transform="translate(209.167969 0)"/>
     <use xlink:href="#DejaVuSans-70" transform="translate(270.349609 0)"/>
     <use xlink:href="#DejaVuSans-61" transform="translate(333.826172 0)"/>
     <use xlink:href="#DejaVuSans-10d" transform="translate(395.105469 0)"/>
    </g>
   </g>
   <g id="text_10">
    <!-- Vilinski lokostrelec -->
    <g transform="translate(290.132334 47.264749) scale(0.09 -0.09)">
     <defs>
      <path id="DejaVuSans-56" d="M 1831 0 
L 50 4666 
L 709 4666 
L 2188 738 
L 3669 4666 
L 4325 4666 
L 2547 0 
L 1831 0 
z
" transform="scale(0.015625)"/>
     </defs>
     <use xlink:href="#DejaVuSans-56"/>
     <use xlink:href="#DejaVuSans-69" transform="translate(66.158203 0)"/>
     <use xlink:href="#DejaVuSans-6c" transform="translate(93.941406 0)"/>
     <use xlink:href="#DejaVuSans-69" transform="translate(121.724609 0)"/>
     <use xlink:href="#DejaVuSans-6e" transform="translate(149.507812 0)"/>
     <use xlink:href="#DejaVuSans-73" transform="translate(212.886719 0)"/>
     <use xlink:href="#DejaVuSans-6b" transform="translate(264.986328 0)"/>
     <use xlink:href="#DejaVuSans-69" transform="translate(322.896484 0)"/>
     <use xlink:href="#DejaVuSans-20" transform="translate(350.679688 0)"/>
     <use xlink:href="#DejaVuSans-6c" transform="translate(382.466797 0)"/>
     <use xlink:href="#DejaVuSans-6f" transform="translate(410.25 0)"/>
     <use xlink:href="#DejaVuSans-6b" transform="translate(471.431641 0)"/>
     <use xlink:href="#DejaVuSans-6f" transform="translate(525.716797 0)"/>
     <use xlink:href="#DejaVuSans-73" transform="translate(586.898438 0)"/>
     <use xlink:href="#DejaVuSans-74" transform="translate(638.998047 0)"/>
     <use xlink:href="#DejaVuSans-72" transform="translate(678.207031 0)"/>
     <use xlink:href="#DejaVuSans-65" transform="translate(717.070312 0)"/>
     <use xlink:href="#DejaVuSans-6c" transform="translate(778.59375 0)"/>
     <use xlink:href="#DejaVuSans-65" transform="translate(806.376953 0)"/>
     <use xlink:href="#DejaVuSans-63" transform="translate(867.900391 0)"/>
    </g>
   </g>
   <g id="text_11">
    <!-- 힋kratovski bojevnik -->
    <g transform="translate(103.14469 277.505489) scale(0.09 -0.09)">
     <defs>
      <path id="DejaVuSans-160" d="M 3425 4513 
L 3425 3897 
Q 3066 4069 2747 4153 
Q 2428 4238 2131 4238 
Q 1616 4238 1336 4038 
Q 1056 3838 1056 3469 
Q 1056 3159 1242 3001 
Q 1428 2844 1947 2747 
L 2328 2669 
Q 3034 2534 3370 2195 
Q 3706 1856 3706 1288 
Q 3706 609 3251 259 
Q 2797 -91 1919 -91 
Q 1588 -91 1214 -16 
Q 841 59 441 206 
L 441 856 
Q 825 641 1194 531 
Q 1563 422 1919 422 
Q 2459 422 2753 634 
Q 3047 847 3047 1241 
Q 3047 1584 2836 1778 
Q 2625 1972 2144 2069 
L 1759 2144 
Q 1053 2284 737 2584 
Q 422 2884 422 3419 
Q 422 4038 858 4394 
Q 1294 4750 2059 4750 
Q 2388 4750 2728 4690 
Q 3069 4631 3425 4513 
z
M 1738 5096 
L 1079 5927 
L 1513 5927 
L 2032 5371 
L 2551 5927 
L 2985 5927 
L 2326 5096 
L 1738 5096 
z
" transform="scale(0.015625)"/>
      <path id="DejaVuSans-62" d="M 3116 1747 
Q 3116 2381 2855 2742 
Q 2594 3103 2138 3103 
Q 1681 3103 1420 2742 
Q 1159 2381 1159 1747 
Q 1159 1113 1420 752 
Q 1681 391 2138 391 
Q 2594 391 2855 752 
Q 3116 1113 3116 1747 
z
M 1159 2969 
Q 1341 3281 1617 3432 
Q 1894 3584 2278 3584 
Q 2916 3584 3314 3078 
Q 3713 2572 3713 1747 
Q 3713 922 3314 415 
Q 2916 -91 2278 -91 
Q 1894 -91 1617 61 
Q 1341 213 1159 525 
L 1159 0 
L 581 0 
L 581 4863 
L 1159 4863 
L 1159 2969 
z
" transform="scale(0.015625)"/>
     </defs>
     <use xlink:href="#DejaVuSans-160"/>
     <use xlink:href="#DejaVuSans-6b" transform="translate(63.476562 0)"/>
     <use xlink:href="#DejaVuSans-72" transform="translate(121.386719 0)"/>
     <use xlink:href="#DejaVuSans-61" transform="translate(162.5 0)"/>
     <use xlink:href="#DejaVuSans-74" transform="translate(223.779297 0)"/>
     <use xlink:href="#DejaVuSans-6f" transform="translate(262.988281 0)"/>
     <use xlink:href="#DejaVuSans-76" transform="translate(324.169922 0)"/>
     <use xlink:href="#DejaVuSans-73" transform="translate(383.349609 0)"/>
     <use xlink:href="#DejaVuSans-6b" transform="translate(435.449219 0)"/>
     <use xlink:href="#DejaVuSans-69" transform="translate(493.359375 0)"/>
     <use xlink:href="#DejaVuSans-20" transform="translate(521.142578 0)"/>
     <use xlink:href="#DejaVuSans-62" transform="translate(552.929688 0)"/>
     <use xlink:href="#DejaVuSans-6f" transform="translate(616.40625 0)"/>
     <use xlink:href="#DejaVuSans-6a" transform="translate(677.587891 0)"/>
     <use xlink:href="#DejaVuSans-65" transform="translate(705.371094 0)"/>
     <use xlink:href="#DejaVuSans-76" transform="translate(766.894531 0)"/>
     <use xlink:href="#DejaVuSans-6e" transform="translate(826.074219 0)"/>
     <use xlink:href="#DejaVuSans-69" transform="translate(889.453125 0)"/>
     <use xlink:href="#DejaVuSans-6b" transform="translate(917.236328 0)"/>
    </g>
   </g>
   <g id="text_12">
    <!-- Zvesti robot -->
    <g transform="translate(300.322646 160.391908) scale(0.09 -0.09)">
     <use xlink:href="#DejaVuSans-5a"/>
     <use xlink:href="#DejaVuSans-76" transform="translate(68.505859 0)"/>
     <use xlink:href="#DejaVuSans-65" transform="translate(127.685547 0)"/>
     <use xlink:href="#DejaVuSans-73" transform="translate(189.208984 0)"/>
     <use xlink:href="#DejaVuSans-74" transform="translate(241.308594 0)"/>
     <use xlink:href="#DejaVuSans-69" transform="translate(280.517578 0)"/>
     <use xlink:href="#DejaVuSans-20" transform="translate(308.300781 0)"/>
     <use xlink:href="#DejaVuSans-72" transform="translate(340.087891 0)"/>
     <use xlink:href="#DejaVuSans-6f" transform="translate(378.951172 0)"/>
     <use xlink:href="#DejaVuSans-62" transform="translate(440.132812 0)"/>
     <use xlink:href="#DejaVuSans-6f" transform="translate(503.609375 0)"/>
     <use xlink:href="#DejaVuSans-74" transform="translate(564.791016 0)"/>
    </g>
   </g>
   <g id="text_13">
    <!-- Voditeljica upora -->
    <g transform="translate(171.599239 211.925759) scale(0.09 -0.09)">
     <defs>
      <path id="DejaVuSans-75" d="M 544 1381 
L 544 3500 
L 1119 3500 
L 1119 1403 
Q 1119 906 1312 657 
Q 1506 409 1894 409 
Q 2359 409 2629 706 
Q 2900 1003 2900 1516 
L 2900 3500 
L 3475 3500 
L 3475 0 
L 2900 0 
L 2900 538 
Q 2691 219 2414 64 
Q 2138 -91 1772 -91 
Q 1169 -91 856 284 
Q 544 659 544 1381 
z
M 1991 3584 
L 1991 3584 
z
" transform="scale(0.015625)"/>
     </defs>
     <use xlink:href="#DejaVuSans-56"/>
     <use xlink:href="#DejaVuSans-6f" transform="translate(60.658203 0)"/>
     <use xlink:href="#DejaVuSans-64" transform="translate(121.839844 0)"/>
     <use xlink:href="#DejaVuSans-69" transform="translate(185.316406 0)"/>
     <use xlink:href="#DejaVuSans-74" transform="translate(213.099609 0)"/>
     <use xlink:href="#DejaVuSans-65" transform="translate(252.308594 0)"/>
     <use xlink:href="#DejaVuSans-6c" transform="translate(313.832031 0)"/>
     <use xlink:href="#DejaVuSans-6a" transform="translate(341.615234 0)"/>
     <use xlink:href="#DejaVuSans-69" transform="translate(369.398438 0)"/>
     <use xlink:href="#DejaVuSans-63" transform="translate(397.181641 0)"/>
     <use xlink:href="#DejaVuSans-61" transform="translate(452.162109 0)"/>
     <use xlink:href="#DejaVuSans-20" transform="translate(513.441406 0)"/>
     <use xlink:href="#DejaVuSans-75" transform="translate(545.228516 0)"/>
     <use xlink:href="#DejaVuSans-70" transform="translate(608.607422 0)"/>
     <use xlink:href="#DejaVuSans-6f" transform="translate(672.083984 0)"/>
     <use xlink:href="#DejaVuSans-72" transform="translate(733.265625 0)"/>
     <use xlink:href="#DejaVuSans-61" transform="translate(774.378906 0)"/>
    </g>
   </g>
   <g id="text_14">
    <!-- Temni vitez -->
    <g transform="translate(378.403722 240.228119) scale(0.09 -0.09)">
     <defs>
      <path id="DejaVuSans-7a" d="M 353 3500 
L 3084 3500 
L 3084 2975 
L 922 459 
L 3084 459 
L 3084 0 
L 275 0 
L 275 525 
L 2438 3041 
L 353 3041 
L 353 3500 
z
" transform="scale(0.015625)"/>
     </defs>
     <use xlink:href="#DejaVuSans-54"/>
     <use xlink:href="#DejaVuSans-65" transform="translate(44.083984 0)"/>
     <use xlink:href="#DejaVuSans-6d" transform="translate(105.607422 0)"/>
     <use xlink:href="#DejaVuSans-6e" transform="translate(203.019531 0)"/>
     <use xlink:href="#DejaVuSans-69" transform="translate(266.398438 0)"/>
     <use xlink:href="#DejaVuSans-20" transform="translate(294.181641 0)"/>
     <use xlink:href="#DejaVuSans-76" transform="translate(325.96875 0)"/>
     <use xlink:href="#DejaVuSans-69" transform="translate(385.148438 0)"/>
     <use xlink:href="#DejaVuSans-74" transform="translate(412.931641 0)"/>
     <use xlink:href="#DejaVuSans-65" transform="translate(452.140625 0)"/>
     <use xlink:href="#DejaVuSans-7a" transform="translate(513.664062 0)"/>
    </g>
   </g>
   <g id="text_15">
    <!-- Zvesti prijatelj -->
    <g transform="translate(230.235168 231.930237) scale(0.09 -0.09)">
     <use xlink:href="#DejaVuSans-5a"/>
     <use xlink:href="#DejaVuSans-76" transform="translate(68.505859 0)"/>
     <use xlink:href="#DejaVuSans-65" transform="translate(127.685547 0)"/>
     <use xlink:href="#DejaVuSans-73" transform="translate(189.208984 0)"/>
     <use xlink:href="#DejaVuSans-74" transform="translate(241.308594 0)"/>
     <use xlink:href="#DejaVuSans-69" transform="translate(280.517578 0)"/>
     <use xlink:href="#DejaVuSans-20" transform="translate(308.300781 0)"/>
     <use xlink:href="#DejaVuSans-70" transform="translate(340.087891 0)"/>
     <use xlink:href="#DejaVuSans-72" transform="translate(403.564453 0)"/>
     <use xlink:href="#DejaVuSans-69" transform="translate(444.677734 0)"/>
     <use xlink:href="#DejaVuSans-6a" transform="translate(472.460938 0)"/>
     <use xlink:href="#DejaVuSans-61" transform="translate(500.244141 0)"/>
     <use xlink:href="#DejaVuSans-74" transform="translate(561.523438 0)"/>
     <use xlink:href="#DejaVuSans-65" transform="translate(600.732422 0)"/>
     <use xlink:href="#DejaVuSans-6c" transform="translate(662.255859 0)"/>
     <use xlink:href="#DejaVuSans-6a" transform="translate(690.039062 0)"/>
    </g>
   </g>
   <g id="text_16">
    <!-- Zlati robot -->
    <g transform="translate(195.045735 280.284286) scale(0.09 -0.09)">
     <use xlink:href="#DejaVuSans-5a"/>
     <use xlink:href="#DejaVuSans-6c" transform="translate(68.505859 0)"/>
     <use xlink:href="#DejaVuSans-61" transform="translate(96.289062 0)"/>
     <use xlink:href="#DejaVuSans-74" transform="translate(157.568359 0)"/>
     <use xlink:href="#DejaVuSans-69" transform="translate(196.777344 0)"/>
     <use xlink:href="#DejaVuSans-20" transform="translate(224.560547 0)"/>
     <use xlink:href="#DejaVuSans-72" transform="translate(256.347656 0)"/>
     <use xlink:href="#DejaVuSans-6f" transform="translate(295.210938 0)"/>
     <use xlink:href="#DejaVuSans-62" transform="translate(356.392578 0)"/>
     <use xlink:href="#DejaVuSans-6f" transform="translate(419.869141 0)"/>
     <use xlink:href="#DejaVuSans-74" transform="translate(481.050781 0)"/>
    </g>
   </g>
   <g id="text_17">
    <!-- Prebrisani u훾itelj -->
    <g transform="translate(97.76237 202.441064) scale(0.09 -0.09)">
     <use xlink:href="#DejaVuSans-50"/>
     <use xlink:href="#DejaVuSans-72" transform="translate(58.552734 0)"/>
     <use xlink:href="#DejaVuSans-65" transform="translate(97.416016 0)"/>
     <use xlink:href="#DejaVuSans-62" transform="translate(158.939453 0)"/>
     <use xlink:href="#DejaVuSans-72" transform="translate(222.416016 0)"/>
     <use xlink:href="#DejaVuSans-69" transform="translate(263.529297 0)"/>
     <use xlink:href="#DejaVuSans-73" transform="translate(291.3125 0)"/>
     <use xlink:href="#DejaVuSans-61" transform="translate(343.412109 0)"/>
     <use xlink:href="#DejaVuSans-6e" transform="translate(404.691406 0)"/>
     <use xlink:href="#DejaVuSans-69" transform="translate(468.070312 0)"/>
     <use xlink:href="#DejaVuSans-20" transform="translate(495.853516 0)"/>
     <use xlink:href="#DejaVuSans-75" transform="translate(527.640625 0)"/>
     <use xlink:href="#DejaVuSans-10d" transform="translate(591.019531 0)"/>
     <use xlink:href="#DejaVuSans-69" transform="translate(646 0)"/>
     <use xlink:href="#DejaVuSans-74" transform="translate(673.783203 0)"/>
     <use xlink:href="#DejaVuSans-65" transform="translate(712.992188 0)"/>
     <use xlink:href="#DejaVuSans-6c" transform="translate(774.515625 0)"/>
     <use xlink:href="#DejaVuSans-6a" transform="translate(802.298828 0)"/>
    </g>
   </g>
   <g id="text_18">
    <!-- Pogumna princesa -->
    <g transform="translate(7.2 219.365362) scale(0.09 -0.09)">
     <defs>
      <path id="DejaVuSans-67" d="M 2906 1791 
Q 2906 2416 2648 2759 
Q 2391 3103 1925 3103 
Q 1463 3103 1205 2759 
Q 947 2416 947 1791 
Q 947 1169 1205 825 
Q 1463 481 1925 481 
Q 2391 481 2648 825 
Q 2906 1169 2906 1791 
z
M 3481 434 
Q 3481 -459 3084 -895 
Q 2688 -1331 1869 -1331 
Q 1566 -1331 1297 -1286 
Q 1028 -1241 775 -1147 
L 775 -588 
Q 1028 -725 1275 -790 
Q 1522 -856 1778 -856 
Q 2344 -856 2625 -561 
Q 2906 -266 2906 331 
L 2906 616 
Q 2728 306 2450 153 
Q 2172 0 1784 0 
Q 1141 0 747 490 
Q 353 981 353 1791 
Q 353 2603 747 3093 
Q 1141 3584 1784 3584 
Q 2172 3584 2450 3431 
Q 2728 3278 2906 2969 
L 2906 3500 
L 3481 3500 
L 3481 434 
z
" transform="scale(0.015625)"/>
     </defs>
     <use xlink:href="#DejaVuSans-50"/>
     <use xlink:href="#DejaVuSans-6f" transform="translate(56.677734 0)"/>
     <use xlink:href="#DejaVuSans-67" transform="translate(117.859375 0)"/>
     <use xlink:href="#DejaVuSans-75" transform="translate(181.335938 0)"/>
     <use xlink:href="#DejaVuSans-6d" transform="translate(244.714844 0)"/>
     <use xlink:href="#DejaVuSans-6e" transform="translate(342.126953 0)"/>
     <use xlink:href="#DejaVuSans-61" transform="translate(405.505859 0)"/>
     <use xlink:href="#DejaVuSans-20" transform="translate(466.785156 0)"/>
     <use xlink:href="#DejaVuSans-70" transform="translate(498.572266 0)"/>
     <use xlink:href="#DejaVuSans-72" transform="translate(562.048828 0)"/>
     <use xlink:href="#DejaVuSans-69" transform="translate(603.162109 0)"/>
     <use xlink:href="#DejaVuSans-6e" transform="translate(630.945312 0)"/>
     <use xlink:href="#DejaVuSans-63" transform="translate(694.324219 0)"/>
     <use xlink:href="#DejaVuSans-65" transform="translate(749.304688 0)"/>
     <use xlink:href="#DejaVuSans-73" transform="translate(810.828125 0)"/>
     <use xlink:href="#DejaVuSans-61" transform="translate(862.927734 0)"/>
    </g>
   </g>
   <g id="text_19">
    <!-- TU STE VI -->
    <g style="fill: #003a6e" transform="translate(136.505328 143.784134) scale(0.08 -0.08)">
     <defs>
      <path id="DejaVuSans-BoldOblique-54" d="M 488 4666 
L 4788 4666 
L 4609 3756 
L 3059 3756 
L 2328 0 
L 1125 0 
L 1856 3756 
L 306 3756 
L 488 4666 
z
" transform="scale(0.015625)"/>
      <path id="DejaVuSans-BoldOblique-55" d="M 1044 4666 
L 2247 4666 
L 1703 1872 
Q 1672 1722 1658 1606 
Q 1644 1491 1644 1403 
Q 1644 1097 1808 945 
Q 1972 794 2297 794 
Q 2734 794 2968 1039 
Q 3203 1284 3316 1869 
L 3859 4666 
L 5063 4666 
L 4519 1869 
Q 4316 838 3748 373 
Q 3181 -91 2125 -91 
Q 1297 -91 865 264 
Q 434 619 434 1294 
Q 434 1406 450 1545 
Q 466 1684 500 1869 
L 1044 4666 
z
" transform="scale(0.015625)"/>
      <path id="DejaVuSans-BoldOblique-20" transform="scale(0.015625)"/>
      <path id="DejaVuSans-BoldOblique-53" d="M 4256 4519 
L 4063 3531 
Q 3709 3706 3365 3792 
Q 3022 3878 2694 3878 
Q 2244 3878 1992 3737 
Q 1741 3597 1741 3347 
Q 1741 3188 1852 3098 
Q 1963 3009 2309 2925 
L 2803 2803 
Q 3422 2647 3711 2351 
Q 4000 2056 4000 1588 
Q 4000 828 3423 368 
Q 2847 -91 1875 -91 
Q 1422 -91 973 -6 
Q 525 78 97 244 
L 288 1259 
Q 703 1019 1095 900 
Q 1488 781 1869 781 
Q 2281 781 2539 950 
Q 2797 1119 2797 1381 
Q 2797 1553 2681 1648 
Q 2566 1744 2175 1844 
L 1684 1966 
Q 1141 2100 875 2390 
Q 609 2681 609 3144 
Q 609 3872 1167 4311 
Q 1725 4750 2669 4750 
Q 3047 4750 3445 4692 
Q 3844 4634 4256 4519 
z
" transform="scale(0.015625)"/>
      <path id="DejaVuSans-BoldOblique-45" d="M 1044 4666 
L 4288 4666 
L 4109 3756 
L 2069 3756 
L 1900 2888 
L 3822 2888 
L 3641 1978 
L 1722 1978 
L 1516 909 
L 3622 909 
L 3450 0 
L 134 0 
L 1044 4666 
z
" transform="scale(0.015625)"/>
      <path id="DejaVuSans-BoldOblique-56" d="M 488 4666 
L 1631 4666 
L 2203 1178 
L 4134 4666 
L 5375 4666 
L 2741 0 
L 1306 0 
L 488 4666 
z
" transform="scale(0.015625)"/>
      <path id="DejaVuSans-BoldOblique-49" d="M 1044 4666 
L 2247 4666 
L 1338 0 
L 134 0 
L 1044 4666 
z
" transform="scale(0.015625)"/>
     </defs>
     <use xlink:href="#DejaVuSans-BoldOblique-54"/>
     <use xlink:href="#DejaVuSans-BoldOblique-55" transform="translate(68.212891 0)"/>
     <use xlink:href="#DejaVuSans-BoldOblique-20" transform="translate(149.414062 0)"/>
     <use xlink:href="#DejaVuSans-BoldOblique-53" transform="translate(184.228516 0)"/>
     <use xlink:href="#DejaVuSans-BoldOblique-54" transform="translate(256.25 0)"/>
     <use xlink:href="#DejaVuSans-BoldOblique-45" transform="translate(324.462891 0)"/>
     <use xlink:href="#DejaVuSans-BoldOblique-20" transform="translate(392.773438 0)"/>
     <use xlink:href="#DejaVuSans-BoldOblique-56" transform="translate(427.587891 0)"/>
     <use xlink:href="#DejaVuSans-BoldOblique-49" transform="translate(504.980469 0)"/>
    </g>
   </g>
  </g>
 </g>
 <defs>
  <clipPath id="p7e9f9f07ba">
   <rect x="31.034595" y="7.2" width="390.6" height="388.08"/>
  </clipPath>
 </defs>
</svg>
