<?xml version="1.0" encoding="utf-8" standalone="no"?>
<!DOCTYPE svg PUBLIC "-//W3C//DTD SVG 1.1//EN"
  "http://www.w3.org/Graphics/SVG/1.1/DTD/svg11.dtd">
<svg xmlns:xlink="http://www.w3.org/1999/xlink" width="423.427643pt" height="402.48pt" viewBox="0 0 423.427643 402.48" xmlns="http://www.w3.org/2000/svg" version="1.1">
 <metadata>
  <rdf:RDF xmlns:dc="http://purl.org/dc/elements/1.1/" xmlns:cc="http://creativecommons.org/ns#" xmlns:rdf="http://www.w3.org/1999/02/22-rdf-syntax-ns#">
   <cc:Work>
    <dc:type rdf:resource="http://purl.org/dc/dcmitype/StillImage"/>
    <dc:date>2025-11-25T11:07:07.902040</dc:date>
    <dc:format>image/svg+xml</dc:format>
    <dc:creator>
     <cc:Agent>
      <dc:title>Matplotlib v3.10.7, https://matplotlib.org/</dc:title>
     </cc:Agent>
    </dc:creator>
   </cc:Work>
  </rdf:RDF>
 </metadata>
 <defs>
  <style type="text/css">*{stroke-linejoin: round; stroke-linecap: butt}</style>
 </defs>
 <g id="figure_1">
  <g id="patch_1">
   <path d="M 0 402.48 
L 423.427643 402.48 
L 423.427643 -0 
L 0 -0 
z
" style="fill: #ffffff"/>
  </g>
  <g id="axes_1">
   <g id="patch_2">
    <path d="M 223.20585 247.367874 
Q 223.080068 194.074467 222.957819 142.277992 
" clip-path="url(#p9fdc74c190)" style="fill: none; stroke: #e8e8e8; stroke-width: 1.2; stroke-linecap: round"/>
    <path d="M 219.47671 150.28623 
L 222.957819 142.277992 
L 226.476691 150.269709 
z
" clip-path="url(#p9fdc74c190)" style="fill: #e8e8e8; stroke: #e8e8e8; stroke-width: 1.2; stroke-linecap: round"/>
   </g>
   <g id="patch_3">
    <path d="M 223.871781 247.403991 
Q 224.760294 236.120725 225.531294 226.329776 
" clip-path="url(#p9fdc74c190)" style="fill: none; stroke: #e8e8e8; stroke-width: 1.2; stroke-linecap: round"/>
    <path d="M 221.41407 234.030326 
L 225.531294 226.329776 
L 228.392467 234.579848 
z
" clip-path="url(#p9fdc74c190)" style="fill: #e8e8e8; stroke: #e8e8e8; stroke-width: 1.2; stroke-linecap: round"/>
   </g>
   <g id="patch_4">
    <path d="M 222.954293 140.78414 
Q 223.080075 194.077547 223.202324 245.874022 
" clip-path="url(#p9fdc74c190)" style="fill: none; stroke: #e8e8e8; stroke-width: 1.2; stroke-linecap: round"/>
    <path d="M 226.683433 237.865784 
L 223.202324 245.874022 
L 219.683452 237.882305 
z
" clip-path="url(#p9fdc74c190)" style="fill: #e8e8e8; stroke: #e8e8e8; stroke-width: 1.2; stroke-linecap: round"/>
   </g>
   <g id="patch_5">
    <path d="M 216.789005 136.710609 
Q 177.872808 163.129066 140.195125 188.706751 
" clip-path="url(#p9fdc74c190)" style="fill: none; stroke: #e8e8e8; stroke-width: 1.2; stroke-linecap: round"/>
    <path d="M 148.779876 187.109238 
L 140.195125 188.706751 
L 144.848242 181.317671 
z
" clip-path="url(#p9fdc74c190)" style="fill: #e8e8e8; stroke: #e8e8e8; stroke-width: 1.2; stroke-linecap: round"/>
   </g>
   <g id="patch_6">
    <path d="M 230.079183 132.694794 
Q 262.604234 133.406409 293.632708 134.085279 
" clip-path="url(#p9fdc74c190)" style="fill: none; stroke: #e8e8e8; stroke-width: 1.2; stroke-linecap: round"/>
    <path d="M 285.71118 130.411127 
L 293.632708 134.085279 
L 285.558064 137.409452 
z
" clip-path="url(#p9fdc74c190)" style="fill: #e8e8e8; stroke: #e8e8e8; stroke-width: 1.2; stroke-linecap: round"/>
   </g>
   <g id="patch_7">
    <path d="M 228.603945 208.835543 
Q 228.915163 207.785119 228.801142 208.169962 
" clip-path="url(#p9fdc74c190)" style="fill: none; stroke: #e8e8e8; stroke-width: 1.2; stroke-linecap: round"/>
    <path d="M 223.172746 214.846125 
L 228.801142 208.169962 
L 229.884364 216.834639 
z
" clip-path="url(#p9fdc74c190)" style="fill: #e8e8e8; stroke: #e8e8e8; stroke-width: 1.2; stroke-linecap: round"/>
   </g>
   <g id="patch_8">
    <path d="M 223.855687 208.886507 
Q 201.372467 137.544663 179.339189 67.630534 
" clip-path="url(#p9fdc74c190)" style="fill: none; stroke: #e8e8e8; stroke-width: 1.2; stroke-linecap: round"/>
    <path d="M 178.405633 76.312612 
L 179.339189 67.630534 
L 185.081941 74.208589 
z
" clip-path="url(#p9fdc74c190)" style="fill: #e8e8e8; stroke: #e8e8e8; stroke-width: 1.2; stroke-linecap: round"/>
   </g>
   <g id="patch_9">
    <path d="M 220.194736 220.883336 
Q 167.954791 257.32517 116.942575 292.910558 
" clip-path="url(#p9fdc74c190)" style="fill: none; stroke: #e8e8e8; stroke-width: 1.2; stroke-linecap: round"/>
    <path d="M 125.506328 291.204061 
L 116.942575 292.910558 
L 121.5014 285.462933 
z
" clip-path="url(#p9fdc74c190)" style="fill: #e8e8e8; stroke: #e8e8e8; stroke-width: 1.2; stroke-linecap: round"/>
   </g>
   <g id="patch_10">
    <path d="M 238.676354 198.729142 
Q 253.082749 198.306401 265.992852 197.927568 
" clip-path="url(#p9fdc74c190)" style="fill: none; stroke: #e8e8e8; stroke-width: 1.2; stroke-linecap: round"/>
    <path d="M 257.893635 194.663724 
L 265.992852 197.927568 
L 258.098954 201.660713 
z
" clip-path="url(#p9fdc74c190)" style="fill: #e8e8e8; stroke: #e8e8e8; stroke-width: 1.2; stroke-linecap: round"/>
   </g>
   <g id="patch_11">
    <path d="M 236.154046 205.196576 
Q 257.50767 234.134031 277.972469 261.866992 
" clip-path="url(#p9fdc74c190)" style="fill: none; stroke: #e8e8e8; stroke-width: 1.2; stroke-linecap: round"/>
    <path d="M 276.038607 253.351701 
L 277.972469 261.866992 
L 270.406126 257.50804 
z
" clip-path="url(#p9fdc74c190)" style="fill: #e8e8e8; stroke: #e8e8e8; stroke-width: 1.2; stroke-linecap: round"/>
   </g>
   <g id="patch_12">
    <path d="M 267.487763 197.883701 
Q 253.081368 198.306442 240.171264 198.685275 
" clip-path="url(#p9fdc74c190)" style="fill: none; stroke: #e8e8e8; stroke-width: 1.2; stroke-linecap: round"/>
    <path d="M 248.270482 201.949119 
L 240.171264 198.685275 
L 248.065163 194.95213 
z
" clip-path="url(#p9fdc74c190)" style="fill: #e8e8e8; stroke: #e8e8e8; stroke-width: 1.2; stroke-linecap: round"/>
   </g>
   <g id="patch_13">
    <path d="M 274.303733 189.435325 
Q 271.227322 111.254264 268.209769 34.568981 
" clip-path="url(#p9fdc74c190)" style="fill: none; stroke: #e8e8e8; stroke-width: 1.2; stroke-linecap: round"/>
    <path d="M 265.027031 42.700413 
L 268.209769 34.568981 
L 272.021618 42.425177 
z
" clip-path="url(#p9fdc74c190)" style="fill: #e8e8e8; stroke: #e8e8e8; stroke-width: 1.2; stroke-linecap: round"/>
   </g>
   <g id="patch_14">
    <path d="M 274.827563 205.916912 
Q 276.807291 287.658944 278.750774 367.904479 
" clip-path="url(#p9fdc74c190)" style="fill: none; stroke: #e8e8e8; stroke-width: 1.2; stroke-linecap: round"/>
    <path d="M 282.056051 359.822082 
L 278.750774 367.904479 
L 275.058103 359.991567 
z
" clip-path="url(#p9fdc74c190)" style="fill: #e8e8e8; stroke: #e8e8e8; stroke-width: 1.2; stroke-linecap: round"/>
   </g>
   <g id="patch_15">
    <path d="M 277.658201 264.586375 
Q 237.193143 231.611085 197.88851 199.581434 
" clip-path="url(#p9fdc74c190)" style="fill: none; stroke: #e8e8e8; stroke-width: 1.2; stroke-linecap: round"/>
    <path d="M 201.879101 207.348363 
L 197.88851 199.581434 
L 206.301114 201.921965 
z
" clip-path="url(#p9fdc74c190)" style="fill: #e8e8e8; stroke: #e8e8e8; stroke-width: 1.2; stroke-linecap: round"/>
   </g>
   <g id="patch_16">
    <path d="M 290.615178 268.943386 
Q 333.013885 266.6419 373.917858 264.421552 
" clip-path="url(#p9fdc74c190)" style="fill: none; stroke: #e8e8e8; stroke-width: 1.2; stroke-linecap: round"/>
    <path d="M 365.73991 261.360315 
L 373.917858 264.421552 
L 366.119326 268.350025 
z
" clip-path="url(#p9fdc74c190)" style="fill: #e8e8e8; stroke: #e8e8e8; stroke-width: 1.2; stroke-linecap: round"/>
   </g>
   <g id="patch_17">
    <path d="M 283.138491 277.56476 
Q 281.233302 323.486118 279.390164 367.911826 
" clip-path="url(#p9fdc74c190)" style="fill: none; stroke: #e8e8e8; stroke-width: 1.2; stroke-linecap: round"/>
    <path d="M 283.218775 360.063786 
L 279.390164 367.911826 
L 276.224792 359.773619 
z
" clip-path="url(#p9fdc74c190)" style="fill: #e8e8e8; stroke: #e8e8e8; stroke-width: 1.2; stroke-linecap: round"/>
   </g>
   <g id="patch_18">
    <path d="M 139.952845 193.741202 
Q 161.859994 193.807025 182.270215 193.868351 
" clip-path="url(#p9fdc74c190)" style="fill: none; stroke: #e8e8e8; stroke-width: 1.2; stroke-linecap: round"/>
    <path d="M 174.280768 190.34433 
L 182.270215 193.868351 
L 174.259735 197.344298 
z
" clip-path="url(#p9fdc74c190)" style="fill: #e8e8e8; stroke: #e8e8e8; stroke-width: 1.2; stroke-linecap: round"/>
   </g>
   <g id="patch_19">
    <path d="M 139.955532 193.91897 
Q 203.722681 195.697056 265.993475 197.433417 
" clip-path="url(#p9fdc74c190)" style="fill: none; stroke: #e8e8e8; stroke-width: 1.2; stroke-linecap: round"/>
    <path d="M 258.09414 193.711791 
L 265.993475 197.433417 
L 257.899027 200.709072 
z
" clip-path="url(#p9fdc74c190)" style="fill: #e8e8e8; stroke: #e8e8e8; stroke-width: 1.2; stroke-linecap: round"/>
   </g>
   <g id="patch_20">
    <path d="M 183.767455 193.87285 
Q 161.860305 193.807026 141.450084 193.745701 
" clip-path="url(#p9fdc74c190)" style="fill: none; stroke: #e8e8e8; stroke-width: 1.2; stroke-linecap: round"/>
    <path d="M 149.439532 197.269722 
L 141.450084 193.745701 
L 149.460564 190.269754 
z
" clip-path="url(#p9fdc74c190)" style="fill: #e8e8e8; stroke: #e8e8e8; stroke-width: 1.2; stroke-linecap: round"/>
   </g>
   <g id="patch_21">
    <path d="M 185.497746 188.544442 
Q 146.77775 150.268326 109.122332 113.044584 
" clip-path="url(#p9fdc74c190)" style="fill: none; stroke: #e8e8e8; stroke-width: 1.2; stroke-linecap: round"/>
    <path d="M 112.351138 121.157833 
L 109.122332 113.044584 
L 117.272268 116.179633 
z
" clip-path="url(#p9fdc74c190)" style="fill: #e8e8e8; stroke: #e8e8e8; stroke-width: 1.2; stroke-linecap: round"/>
   </g>
   <g id="patch_22">
    <path d="M 196.73156 198.638626 
Q 237.196618 231.613916 276.501251 263.643568 
" clip-path="url(#p9fdc74c190)" style="fill: none; stroke: #e8e8e8; stroke-width: 1.2; stroke-linecap: round"/>
    <path d="M 272.51066 255.876639 
L 276.501251 263.643568 
L 268.088646 261.303037 
z
" clip-path="url(#p9fdc74c190)" style="fill: #e8e8e8; stroke: #e8e8e8; stroke-width: 1.2; stroke-linecap: round"/>
   </g>
   <g id="patch_23">
    <path d="M 190.248776 202.102617 
Q 186.062731 254.094553 181.996821 304.594381 
" clip-path="url(#p9fdc74c190)" style="fill: none; stroke: #e8e8e8; stroke-width: 1.2; stroke-linecap: round"/>
    <path d="M 186.127561 296.901073 
L 181.996821 304.594381 
L 179.150139 296.339297 
z
" clip-path="url(#p9fdc74c190)" style="fill: #e8e8e8; stroke: #e8e8e8; stroke-width: 1.2; stroke-linecap: round"/>
   </g>
   <g id="patch_24">
    <path d="M 108.848347 102.59482 
Q 139.546556 82.552771 168.991318 63.329066 
" clip-path="url(#p9fdc74c190)" style="fill: none; stroke: #e8e8e8; stroke-width: 1.2; stroke-linecap: round"/>
    <path d="M 160.379203 64.771797 
L 168.991318 63.329066 
L 164.205954 70.633194 
z
" clip-path="url(#p9fdc74c190)" style="fill: #e8e8e8; stroke: #e8e8e8; stroke-width: 1.2; stroke-linecap: round"/>
   </g>
   <g id="patch_25">
    <path d="M 98.043866 112.919416 
Q 65.050635 157.902206 32.94274 201.677935 
" clip-path="url(#p9fdc74c190)" style="fill: none; stroke: #e8e8e8; stroke-width: 1.2; stroke-linecap: round"/>
    <path d="M 40.496437 197.297106 
L 32.94274 201.677935 
L 34.851952 193.157083 
z
" clip-path="url(#p9fdc74c190)" style="fill: #e8e8e8; stroke: #e8e8e8; stroke-width: 1.2; stroke-linecap: round"/>
   </g>
   <g id="patch_26">
    <path d="M 170.247806 62.508738 
Q 139.549596 82.550787 110.104834 101.774493 
" clip-path="url(#p9fdc74c190)" style="fill: none; stroke: #e8e8e8; stroke-width: 1.2; stroke-linecap: round"/>
    <path d="M 118.716949 100.331761 
L 110.104834 101.774493 
L 114.890198 94.470364 
z
" clip-path="url(#p9fdc74c190)" style="fill: #e8e8e8; stroke: #e8e8e8; stroke-width: 1.2; stroke-linecap: round"/>
   </g>
   <g id="patch_27">
    <path d="M 178.888744 66.201221 
Q 201.371964 137.543065 223.405242 207.457194 
" clip-path="url(#p9fdc74c190)" style="fill: none; stroke: #e8e8e8; stroke-width: 1.2; stroke-linecap: round"/>
    <path d="M 224.338798 198.775116 
L 223.405242 207.457194 
L 217.66249 200.879139 
z
" clip-path="url(#p9fdc74c190)" style="fill: #e8e8e8; stroke: #e8e8e8; stroke-width: 1.2; stroke-linecap: round"/>
   </g>
   <g id="patch_28">
    <path d="M 34.592613 208.829215 
Q 151.04234 203.417509 265.996745 198.075293 
" clip-path="url(#p9fdc74c190)" style="fill: none; stroke: #e8e8e8; stroke-width: 1.2; stroke-linecap: round"/>
    <path d="M 257.842892 194.950446 
L 265.996745 198.075293 
L 258.167848 201.942899 
z
" clip-path="url(#p9fdc74c190)" style="fill: #e8e8e8; stroke: #e8e8e8; stroke-width: 1.2; stroke-linecap: round"/>
   </g>
   <g id="patch_29">
    <path d="M 34.594621 209.429085 
Q 126.873974 212.894284 217.657446 216.303311 
" clip-path="url(#p9fdc74c190)" style="fill: none; stroke: #e8e8e8; stroke-width: 1.2; stroke-linecap: round"/>
    <path d="M 209.794417 212.505578 
L 217.657446 216.303311 
L 209.531744 219.500648 
z
" clip-path="url(#p9fdc74c190)" style="fill: #e8e8e8; stroke: #e8e8e8; stroke-width: 1.2; stroke-linecap: round"/>
   </g>
   <g id="patch_30">
    <path d="M 295.183059 133.292993 
Q 202.461048 120.459062 111.221836 107.830369 
" clip-path="url(#p9fdc74c190)" style="fill: none; stroke: #e8e8e8; stroke-width: 1.2; stroke-linecap: round"/>
    <path d="M 118.666417 112.394163 
L 111.221836 107.830369 
L 119.626158 105.460269 
z
" clip-path="url(#p9fdc74c190)" style="fill: #e8e8e8; stroke: #e8e8e8; stroke-width: 1.2; stroke-linecap: round"/>
   </g>
   <g id="patch_31">
    <path d="M 299.836764 126.534778 
Q 285.050507 79.559048 270.713693 34.011189 
" clip-path="url(#p9fdc74c190)" style="fill: none; stroke: #e8e8e8; stroke-width: 1.2; stroke-linecap: round"/>
    <path d="M 269.777104 42.69294 
L 270.713693 34.011189 
L 276.454146 40.591249 
z
" clip-path="url(#p9fdc74c190)" style="fill: #e8e8e8; stroke: #e8e8e8; stroke-width: 1.2; stroke-linecap: round"/>
   </g>
   <g id="patch_32">
    <path d="M 261.026175 27.342161 
Q 222.13827 41.649941 184.655232 55.440838 
" clip-path="url(#p9fdc74c190)" style="fill: none; stroke: #e8e8e8; stroke-width: 1.2; stroke-linecap: round"/>
    <path d="M 193.371717 55.963214 
L 184.655232 55.440838 
L 190.954657 49.393753 
z
" clip-path="url(#p9fdc74c190)" style="fill: #e8e8e8; stroke: #e8e8e8; stroke-width: 1.2; stroke-linecap: round"/>
   </g>
   <g id="patch_33">
    <path d="M 268.353146 33.059012 
Q 275.653395 147.083377 282.858001 259.613866 
" clip-path="url(#p9fdc74c190)" style="fill: none; stroke: #e8e8e8; stroke-width: 1.2; stroke-linecap: round"/>
    <path d="M 285.839707 251.406587 
L 282.858001 259.613866 
L 278.85401 251.853837 
z
" clip-path="url(#p9fdc74c190)" style="fill: #e8e8e8; stroke: #e8e8e8; stroke-width: 1.2; stroke-linecap: round"/>
   </g>
   <g id="patch_34">
    <path d="M 185.753928 307.957278 
Q 202.220972 284.954477 217.816662 263.168869 
" clip-path="url(#p9fdc74c190)" style="fill: none; stroke: #e8e8e8; stroke-width: 1.2; stroke-linecap: round"/>
    <path d="M 210.313998 267.636534 
L 217.816662 263.168869 
L 216.005861 271.711175 
z
" clip-path="url(#p9fdc74c190)" style="fill: #e8e8e8; stroke: #e8e8e8; stroke-width: 1.2; stroke-linecap: round"/>
   </g>
   <g id="patch_35">
    <path d="M 181.876525 306.088492 
Q 186.06257 254.096557 190.12848 203.596729 
" clip-path="url(#p9fdc74c190)" style="fill: none; stroke: #e8e8e8; stroke-width: 1.2; stroke-linecap: round"/>
    <path d="M 185.99774 211.290037 
L 190.12848 203.596729 
L 192.975161 211.851812 
z
" clip-path="url(#p9fdc74c190)" style="fill: #e8e8e8; stroke: #e8e8e8; stroke-width: 1.2; stroke-linecap: round"/>
   </g>
   <g id="patch_36">
    <path d="M 275.535569 370.440554 
Q 234.948613 285.768209 195.008704 202.445732 
" clip-path="url(#p9fdc74c190)" style="fill: none; stroke: #e8e8e8; stroke-width: 1.2; stroke-linecap: round"/>
    <path d="M 195.310549 211.172638 
L 195.008704 202.445732 
L 201.622832 208.1469 
z
" clip-path="url(#p9fdc74c190)" style="fill: #e8e8e8; stroke: #e8e8e8; stroke-width: 1.2; stroke-linecap: round"/>
   </g>
   <g id="patch_37">
    <path d="M 272.821622 373.510658 
Q 153.222048 293.401588 34.866193 214.125574 
" clip-path="url(#p9fdc74c190)" style="fill: none; stroke: #e8e8e8; stroke-width: 1.2; stroke-linecap: round"/>
    <path d="M 39.565159 221.485582 
L 34.866193 214.125574 
L 43.46071 215.669683 
z
" clip-path="url(#p9fdc74c190)" style="fill: #e8e8e8; stroke: #e8e8e8; stroke-width: 1.2; stroke-linecap: round"/>
   </g>
   <g id="patch_38">
    <path d="M 279.328177 369.405931 
Q 281.233366 323.484574 283.076503 279.058865 
" clip-path="url(#p9fdc74c190)" style="fill: none; stroke: #e8e8e8; stroke-width: 1.2; stroke-linecap: round"/>
    <path d="M 279.247892 286.906906 
L 283.076503 279.058865 
L 286.241876 287.197073 
z
" clip-path="url(#p9fdc74c190)" style="fill: #e8e8e8; stroke: #e8e8e8; stroke-width: 1.2; stroke-linecap: round"/>
   </g>
   <g id="patch_39">
    <path d="M 115.921458 294.187213 
Q 192.12062 247.848762 267.040777 202.288103 
" clip-path="url(#p9fdc74c190)" style="fill: none; stroke: #e8e8e8; stroke-width: 1.2; stroke-linecap: round"/>
    <path d="M 258.386886 203.454365 
L 267.040777 202.288103 
L 262.024014 209.435276 
z
" clip-path="url(#p9fdc74c190)" style="fill: #e8e8e8; stroke: #e8e8e8; stroke-width: 1.2; stroke-linecap: round"/>
   </g>
   <g id="patch_40">
    <path d="M 116.616647 299.614987 
Q 145.41265 306.159632 172.748943 312.37252 
" clip-path="url(#p9fdc74c190)" style="fill: none; stroke: #e8e8e8; stroke-width: 1.2; stroke-linecap: round"/>
    <path d="M 165.723571 307.186563 
L 172.748943 312.37252 
L 164.172201 314.012488 
z
" clip-path="url(#p9fdc74c190)" style="fill: #e8e8e8; stroke: #e8e8e8; stroke-width: 1.2; stroke-linecap: round"/>
   </g>
   <g id="patch_41">
    <path d="M 375.409928 263.57975 
Q 302.885306 259.783394 231.855574 256.065289 
" clip-path="url(#p9fdc74c190)" style="fill: none; stroke: #e8e8e8; stroke-width: 1.2; stroke-linecap: round"/>
    <path d="M 239.661676 259.978697 
L 231.855574 256.065289 
L 240.027596 252.988268 
z
" clip-path="url(#p9fdc74c190)" style="fill: #e8e8e8; stroke: #e8e8e8; stroke-width: 1.2; stroke-linecap: round"/>
   </g>
   <g id="patch_42">
    <path d="M 375.410057 264.340553 
Q 333.011349 266.642038 292.107377 268.862386 
" clip-path="url(#p9fdc74c190)" style="fill: none; stroke: #e8e8e8; stroke-width: 1.2; stroke-linecap: round"/>
    <path d="M 300.285324 271.923624 
L 292.107377 268.862386 
L 299.905909 264.933914 
z
" clip-path="url(#p9fdc74c190)" style="fill: #e8e8e8; stroke: #e8e8e8; stroke-width: 1.2; stroke-linecap: round"/>
   </g>
   <g id="patch_43">
    <path d="M 372.159401 94.139345 
Q 255.842653 142.532611 140.907996 190.350861 
" clip-path="url(#p9fdc74c190)" style="fill: none; stroke: #e8e8e8; stroke-width: 1.2; stroke-linecap: round"/>
    <path d="M 149.638683 190.509316 
L 140.907996 190.350861 
L 146.949787 184.046358 
z
" clip-path="url(#p9fdc74c190)" style="fill: #e8e8e8; stroke: #e8e8e8; stroke-width: 1.2; stroke-linecap: round"/>
   </g>
   <g id="patch_44">
    <path d="M 372.42591 94.863771 
Q 284.891688 142.620162 198.671552 189.65962 
" clip-path="url(#p9fdc74c190)" style="fill: none; stroke: #e8e8e8; stroke-width: 1.2; stroke-linecap: round"/>
    <path d="M 207.37063 188.900637 
L 198.671552 189.65962 
L 204.018099 182.755677 
z
" clip-path="url(#p9fdc74c190)" style="fill: #e8e8e8; stroke: #e8e8e8; stroke-width: 1.2; stroke-linecap: round"/>
   </g>
   <g id="PathCollection_1">
    <defs>
     <path id="mcb799349cd" d="M 0 9.814455 
C 2.602824 9.814455 5.099393 8.780342 6.939868 6.939868 
C 8.780342 5.099393 9.814455 2.602824 9.814455 0 
C 9.814455 -2.602824 8.780342 -5.099393 6.939868 -6.939868 
C 5.099393 -8.780342 2.602824 -9.814455 0 -9.814455 
C -2.602824 -9.814455 -5.099393 -8.780342 -6.939868 -6.939868 
C -8.780342 -5.099393 -9.814455 -2.602824 -9.814455 0 
C -9.814455 2.602824 -8.780342 5.099393 -6.939868 6.939868 
C -5.099393 8.780342 -2.602824 9.814455 0 9.814455 
z
" style="stroke: #f9ae47; stroke-width: 0.5"/>
    </defs>
    <g clip-path="url(#p9fdc74c190)">
     <use xlink:href="#mcb799349cd" x="223.225311" y="255.613531" style="fill: #f9ae47; stroke: #f9ae47; stroke-width: 0.5"/>
    </g>
   </g>
   <g id="PathCollection_2">
    <defs>
     <path id="md4625daebe" d="M 0 9.195587 
C 2.438698 9.195587 4.777842 8.226682 6.502262 6.502262 
C 8.226682 4.777842 9.195587 2.438698 9.195587 0 
C 9.195587 -2.438698 8.226682 -4.777842 6.502262 -6.502262 
C 4.777842 -8.226682 2.438698 -9.195587 0 -9.195587 
C -2.438698 -9.195587 -4.777842 -8.226682 -6.502262 -6.502262 
C -8.226682 -4.777842 -9.195587 -2.438698 -9.195587 0 
C -9.195587 2.438698 -8.226682 4.777842 -6.502262 6.502262 
C -4.777842 8.226682 -2.438698 9.195587 0 9.195587 
z
" style="stroke: #f9cf91; stroke-width: 0.5"/>
    </defs>
    <g clip-path="url(#p9fdc74c190)">
     <use xlink:href="#md4625daebe" x="231.536186" y="198.938662" style="fill: #f9cf91; stroke: #f9cf91; stroke-width: 0.5"/>
    </g>
   </g>
   <g id="PathCollection_3">
    <defs>
     <path id="m57b703a534" d="M 0 9.814455 
C 2.602824 9.814455 5.099393 8.780342 6.939868 6.939868 
C 8.780342 5.099393 9.814455 2.602824 9.814455 0 
C 9.814455 -2.602824 8.780342 -5.099393 6.939868 -6.939868 
C 5.099393 -8.780342 2.602824 -9.814455 0 -9.814455 
C -2.602824 -9.814455 -5.099393 -8.780342 -6.939868 -6.939868 
C -8.780342 -5.099393 -9.814455 -2.602824 -9.814455 0 
C -9.814455 2.602824 -8.780342 5.099393 -6.939868 6.939868 
C -5.099393 8.780342 -2.602824 9.814455 0 9.814455 
z
" style="stroke: #f9ce8f; stroke-width: 0.5"/>
    </defs>
    <g clip-path="url(#p9fdc74c190)">
     <use xlink:href="#m57b703a534" x="132.810646" y="193.719742" style="fill: #f9ce8f; stroke: #f9ce8f; stroke-width: 0.5"/>
    </g>
   </g>
   <g id="PathCollection_4">
    <defs>
     <path id="m7d9254ba1d" d="M 0 9.814455 
C 2.602824 9.814455 5.099393 8.780342 6.939868 6.939868 
C 8.780342 5.099393 9.814455 2.602824 9.814455 0 
C 9.814455 -2.602824 8.780342 -5.099393 6.939868 -6.939868 
C 5.099393 -8.780342 2.602824 -9.814455 0 -9.814455 
C -2.602824 -9.814455 -5.099393 -8.780342 -6.939868 -6.939868 
C -8.780342 -5.099393 -9.814455 -2.602824 -9.814455 0 
C -9.814455 2.602824 -8.780342 5.099393 -6.939868 6.939868 
C -5.099393 8.780342 -2.602824 9.814455 0 9.814455 
z
" style="stroke: #f9c984; stroke-width: 0.5"/>
    </defs>
    <g clip-path="url(#p9fdc74c190)">
     <use xlink:href="#m7d9254ba1d" x="102.647019" y="106.643503" style="fill: #f9c984; stroke: #f9c984; stroke-width: 0.5"/>
    </g>
   </g>
   <g id="PathCollection_5">
    <defs>
     <path id="m2f9d3399a5" d="M 0 9.814455 
C 2.602824 9.814455 5.099393 8.780342 6.939868 6.939868 
C 8.780342 5.099393 9.814455 2.602824 9.814455 0 
C 9.814455 -2.602824 8.780342 -5.099393 6.939868 -6.939868 
C 5.099393 -8.780342 2.602824 -9.814455 0 -9.814455 
C -2.602824 -9.814455 -5.099393 -8.780342 -6.939868 -6.939868 
C -8.780342 -5.099393 -9.814455 -2.602824 -9.814455 0 
C -9.814455 2.602824 -8.780342 5.099393 -6.939868 6.939868 
C -5.099393 8.780342 -2.602824 9.814455 0 9.814455 
z
" style="stroke: #f9cc8b; stroke-width: 0.5"/>
    </defs>
    <g clip-path="url(#p9fdc74c190)">
     <use xlink:href="#m2f9d3399a5" x="176.449134" y="58.460056" style="fill: #f9cc8b; stroke: #f9cc8b; stroke-width: 0.5"/>
    </g>
   </g>
   <g id="PathCollection_6">
    <defs>
     <path id="mb70a6167f2" d="M 0 8.531947 
C 2.262699 8.531947 4.433028 7.632967 6.032997 6.032997 
C 7.632967 4.433028 8.531947 2.262699 8.531947 0 
C 8.531947 -2.262699 7.632967 -4.433028 6.032997 -6.032997 
C 4.433028 -7.632967 2.262699 -8.531947 0 -8.531947 
C -2.262699 -8.531947 -4.433028 -7.632967 -6.032997 -6.032997 
C -7.632967 -4.433028 -8.531947 -2.262699 -8.531947 0 
C -8.531947 2.262699 -7.632967 4.433028 -6.032997 6.032997 
C -4.433028 7.632967 -2.262699 8.531947 0 8.531947 
z
" style="stroke: #f9d7a3; stroke-width: 0.5"/>
    </defs>
    <g clip-path="url(#p9fdc74c190)">
     <use xlink:href="#mb70a6167f2" x="302.27289" y="134.274318" style="fill: #f9d7a3; stroke: #f9d7a3; stroke-width: 0.5"/>
    </g>
   </g>
   <g id="PathCollection_7">
    <defs>
     <path id="mf6765035d4" d="M 0 11.974237 
C 3.175605 11.974237 6.221573 10.712556 8.467064 8.467064 
C 10.712556 6.221573 11.974237 3.175605 11.974237 0 
C 11.974237 -3.175605 10.712556 -6.221573 8.467064 -8.467064 
C 6.221573 -10.712556 3.175605 -11.974237 0 -11.974237 
C -3.175605 -11.974237 -6.221573 -10.712556 -8.467064 -8.467064 
C -10.712556 -6.221573 -11.974237 -3.175605 -11.974237 0 
C -11.974237 3.175605 -10.712556 6.221573 -8.467064 8.467064 
C -6.221573 10.712556 -3.175605 11.974237 0 11.974237 
z
" style="stroke: #f9a22b; stroke-width: 0.5"/>
    </defs>
    <g clip-path="url(#p9fdc74c190)">
     <use xlink:href="#mf6765035d4" x="190.909654" y="193.89431" style="fill: #f9a22b; stroke: #f9a22b; stroke-width: 0.5"/>
    </g>
   </g>
   <g id="PathCollection_8">
    <defs>
     <path id="mfcf5b1cc59" d="M 0 9.195587 
C 2.438698 9.195587 4.777842 8.226682 6.502262 6.502262 
C 8.226682 4.777842 9.195587 2.438698 9.195587 0 
C 9.195587 -2.438698 8.226682 -4.777842 6.502262 -6.502262 
C 4.777842 -8.226682 2.438698 -9.195587 0 -9.195587 
C -2.438698 -9.195587 -4.777842 -8.226682 -6.502262 -6.502262 
C -8.226682 -4.777842 -9.195587 -2.438698 -9.195587 0 
C -9.195587 2.438698 -8.226682 4.777842 -6.502262 6.502262 
C -4.777842 8.226682 -2.438698 9.195587 0 9.195587 
z
" style="stroke: #f9cb89; stroke-width: 0.5"/>
    </defs>
    <g clip-path="url(#p9fdc74c190)">
     <use xlink:href="#mfcf5b1cc59" x="267.826935" y="24.84" style="fill: #f9cb89; stroke: #f9cb89; stroke-width: 0.5"/>
    </g>
   </g>
   <g id="PathCollection_9">
    <defs>
     <path id="m21a112becd" d="M 0 9.195587 
C 2.438698 9.195587 4.777842 8.226682 6.502262 6.502262 
C 8.226682 4.777842 9.195587 2.438698 9.195587 0 
C 9.195587 -2.438698 8.226682 -4.777842 6.502262 -6.502262 
C 4.777842 -8.226682 2.438698 -9.195587 0 -9.195587 
C -2.438698 -9.195587 -4.777842 -8.226682 -6.502262 -6.502262 
C -8.226682 -4.777842 -9.195587 -2.438698 -9.195587 0 
C -9.195587 2.438698 -8.226682 4.777842 -6.502262 6.502262 
C -4.777842 8.226682 -2.438698 9.195587 0 9.195587 
z
" style="stroke: #f9c57a; stroke-width: 0.5"/>
    </defs>
    <g clip-path="url(#p9fdc74c190)">
     <use xlink:href="#m21a112becd" x="27.454219" y="209.160954" style="fill: #f9c57a; stroke: #f9c57a; stroke-width: 0.5"/>
    </g>
   </g>
   <g id="PathCollection_10">
    <defs>
     <path id="mfd4f305a79" d="M 0 10.947737 
C 2.903374 10.947737 5.688224 9.794214 7.741219 7.741219 
C 9.794214 5.688224 10.947737 2.903374 10.947737 0 
C 10.947737 -2.903374 9.794214 -5.688224 7.741219 -7.741219 
C 5.688224 -9.794214 2.903374 -10.947737 0 -10.947737 
C -2.903374 -10.947737 -5.688224 -9.794214 -7.741219 -7.741219 
C -9.794214 -5.688224 -10.947737 -2.903374 -10.947737 0 
C -10.947737 2.903374 -9.794214 5.688224 -7.741219 7.741219 
C -5.688224 9.794214 -2.903374 10.947737 0 10.947737 
z
" style="stroke: #f9b658; stroke-width: 0.5"/>
    </defs>
    <g clip-path="url(#p9fdc74c190)">
     <use xlink:href="#mfd4f305a79" x="274.627931" y="197.674181" style="fill: #f9b658; stroke: #f9b658; stroke-width: 0.5"/>
    </g>
   </g>
   <g id="PathCollection_11">
    <defs>
     <path id="m849a74f82d" d="M 0 9.195587 
C 2.438698 9.195587 4.777842 8.226682 6.502262 6.502262 
C 8.226682 4.777842 9.195587 2.438698 9.195587 0 
C 9.195587 -2.438698 8.226682 -4.777842 6.502262 -6.502262 
C 4.777842 -8.226682 2.438698 -9.195587 0 -9.195587 
C -2.438698 -9.195587 -4.777842 -8.226682 -6.502262 -6.502262 
C -8.226682 -4.777842 -9.195587 -2.438698 -9.195587 0 
C -9.195587 2.438698 -8.226682 4.777842 -6.502262 6.502262 
C -4.777842 8.226682 -2.438698 9.195587 0 9.195587 
z
" style="stroke: #f9c882; stroke-width: 0.5"/>
    </defs>
    <g clip-path="url(#p9fdc74c190)">
     <use xlink:href="#m849a74f82d" x="222.934832" y="132.538483" style="fill: #f9c882; stroke: #f9c882; stroke-width: 0.5"/>
    </g>
   </g>
   <g id="PathCollection_12">
    <defs>
     <path id="maba77ae027" d="M 0 8.531947 
C 2.262699 8.531947 4.433028 7.632967 6.032997 6.032997 
C 7.632967 4.433028 8.531947 2.262699 8.531947 0 
C 8.531947 -2.262699 7.632967 -4.433028 6.032997 -6.032997 
C 4.433028 -7.632967 2.262699 -8.531947 0 -8.531947 
C -2.262699 -8.531947 -4.433028 -7.632967 -6.032997 -6.032997 
C -7.632967 -4.433028 -8.531947 -2.262699 -8.531947 0 
C -8.531947 2.262699 -7.632967 4.433028 -6.032997 6.032997 
C -4.433028 7.632967 -2.262699 8.531947 0 8.531947 
z
" style="stroke: #f9c983; stroke-width: 0.5"/>
    </defs>
    <g clip-path="url(#p9fdc74c190)">
     <use xlink:href="#maba77ae027" x="109.613367" y="298.023308" style="fill: #f9c983; stroke: #f9c983; stroke-width: 0.5"/>
    </g>
   </g>
   <g id="PathCollection_13">
    <defs>
     <path id="md9bd77e521" d="M 0 10.396549 
C 2.757197 10.396549 5.401838 9.301103 7.35147 7.35147 
C 9.301103 5.401838 10.396549 2.757197 10.396549 0 
C 10.396549 -2.757197 9.301103 -5.401838 7.35147 -7.35147 
C 5.401838 -9.301103 2.757197 -10.396549 0 -10.396549 
C -2.757197 -10.396549 -5.401838 -9.301103 -7.35147 -7.35147 
C -9.301103 -5.401838 -10.396549 -2.757197 -10.396549 0 
C -10.396549 2.757197 -9.301103 5.401838 -7.35147 7.35147 
C -5.401838 9.301103 -2.757197 10.396549 0 10.396549 
z
" style="stroke: #f9a737; stroke-width: 0.5"/>
    </defs>
    <g clip-path="url(#p9fdc74c190)">
     <use xlink:href="#md9bd77e521" x="226.295297" y="216.627673" style="fill: #f9a737; stroke: #f9a737; stroke-width: 0.5"/>
    </g>
   </g>
   <g id="PathCollection_14">
    <defs>
     <path id="m333756f8e3" d="M 0 8.531947 
C 2.262699 8.531947 4.433028 7.632967 6.032997 6.032997 
C 7.632967 4.433028 8.531947 2.262699 8.531947 0 
C 8.531947 -2.262699 7.632967 -4.433028 6.032997 -6.032997 
C 4.433028 -7.632967 2.262699 -8.531947 0 -8.531947 
C -2.262699 -8.531947 -4.433028 -7.632967 -6.032997 -6.032997 
C -7.632967 -4.433028 -8.531947 -2.262699 -8.531947 0 
C -8.531947 2.262699 -7.632967 4.433028 -6.032997 6.032997 
C -4.433028 7.632967 -2.262699 8.531947 0 8.531947 
z
" style="stroke: #f9ce90; stroke-width: 0.5"/>
    </defs>
    <g clip-path="url(#p9fdc74c190)">
     <use xlink:href="#m333756f8e3" x="382.545128" y="263.953247" style="fill: #f9ce90; stroke: #f9ce90; stroke-width: 0.5"/>
    </g>
   </g>
   <g id="PathCollection_15">
    <defs>
     <path id="m4427710935" d="M 0 9.814455 
C 2.602824 9.814455 5.099393 8.780342 6.939868 6.939868 
C 8.780342 5.099393 9.814455 2.602824 9.814455 0 
C 9.814455 -2.602824 8.780342 -5.099393 6.939868 -6.939868 
C 5.099393 -8.780342 2.602824 -9.814455 0 -9.814455 
C -2.602824 -9.814455 -5.099393 -8.780342 -6.939868 -6.939868 
C -8.780342 -5.099393 -9.814455 -2.602824 -9.814455 0 
C -9.814455 2.602824 -8.780342 5.099393 -6.939868 6.939868 
C -5.099393 8.780342 -2.602824 9.814455 0 9.814455 
z
" style="stroke: #f9c983; stroke-width: 0.5"/>
    </defs>
    <g clip-path="url(#p9fdc74c190)">
     <use xlink:href="#m4427710935" x="278.986561" y="377.64" style="fill: #f9c983; stroke: #f9c983; stroke-width: 0.5"/>
    </g>
   </g>
   <g id="PathCollection_16">
    <defs>
     <path id="ma45efc9f33" d="M 0 11.472473 
C 3.042536 11.472473 5.960866 10.263661 8.112264 8.112264 
C 10.263661 5.960866 11.472473 3.042536 11.472473 0 
C 11.472473 -3.042536 10.263661 -5.960866 8.112264 -8.112264 
C 5.960866 -10.263661 3.042536 -11.472473 0 -11.472473 
C -3.042536 -11.472473 -5.960866 -10.263661 -8.112264 -8.112264 
C -10.263661 -5.960866 -11.472473 -3.042536 -11.472473 0 
C -11.472473 3.042536 -10.263661 5.960866 -8.112264 8.112264 
C -5.960866 10.263661 -3.042536 11.472473 0 11.472473 
z
" style="stroke: #f9a93a; stroke-width: 0.5"/>
    </defs>
    <g clip-path="url(#p9fdc74c190)">
     <use xlink:href="#ma45efc9f33" x="283.480107" y="269.330692" style="fill: #f9a93a; stroke: #f9a93a; stroke-width: 0.5"/>
    </g>
   </g>
   <g id="PathCollection_17">
    <defs>
     <path id="mfa87c67a9f" d="M 0 7.812132 
C 2.071802 7.812132 4.059027 6.988997 5.524012 5.524012 
C 6.988997 4.059027 7.812132 2.071802 7.812132 0 
C 7.812132 -2.071802 6.988997 -4.059027 5.524012 -5.524012 
C 4.059027 -6.988997 2.071802 -7.812132 0 -7.812132 
C -2.071802 -7.812132 -4.059027 -6.988997 -5.524012 -5.524012 
C -6.988997 -4.059027 -7.812132 -2.071802 -7.812132 0 
C -7.812132 2.071802 -6.988997 4.059027 -5.524012 5.524012 
C -4.059027 6.988997 -2.071802 7.812132 0 7.812132 
z
" style="stroke: #f9dfb6; stroke-width: 0.5"/>
    </defs>
    <g clip-path="url(#p9fdc74c190)">
     <use xlink:href="#mfa87c67a9f" x="378.87483" y="91.345408" style="fill: #f9dfb6; stroke: #f9dfb6; stroke-width: 0.5"/>
    </g>
   </g>
   <g id="PathCollection_18">
    <defs>
     <path id="m9df6b2370c" d="M 0 9.195587 
C 2.438698 9.195587 4.777842 8.226682 6.502262 6.502262 
C 8.226682 4.777842 9.195587 2.438698 9.195587 0 
C 9.195587 -2.438698 8.226682 -4.777842 6.502262 -6.502262 
C 4.777842 -8.226682 2.438698 -9.195587 0 -9.195587 
C -2.438698 -9.195587 -4.777842 -8.226682 -6.502262 -6.502262 
C -8.226682 -4.777842 -9.195587 -2.438698 -9.195587 0 
C -9.195587 2.438698 -8.226682 4.777842 -6.502262 6.502262 
C -4.777842 8.226682 -2.438698 9.195587 0 9.195587 
z
" style="stroke: #f9bc67; stroke-width: 0.5"/>
    </defs>
    <g clip-path="url(#p9fdc74c190)">
     <use xlink:href="#m9df6b2370c" x="181.215646" y="314.2968" style="fill: #f9bc67; stroke: #f9bc67; stroke-width: 0.5"/>
    </g>
   </g>
   <g id="text_1">
    <!-- Deček čarovnik -->
    <g transform="translate(188.606951 253.10144) scale(0.09 -0.09)">
     <defs>
      <path id="DejaVuSans-44" d="M 1259 4147 
L 1259 519 
L 2022 519 
Q 2988 519 3436 956 
Q 3884 1394 3884 2338 
Q 3884 3275 3436 3711 
Q 2988 4147 2022 4147 
L 1259 4147 
z
M 628 4666 
L 1925 4666 
Q 3281 4666 3915 4102 
Q 4550 3538 4550 2338 
Q 4550 1131 3912 565 
Q 3275 0 1925 0 
L 628 0 
L 628 4666 
z
" transform="scale(0.015625)"/>
      <path id="DejaVuSans-65" d="M 3597 1894 
L 3597 1613 
L 953 1613 
Q 991 1019 1311 708 
Q 1631 397 2203 397 
Q 2534 397 2845 478 
Q 3156 559 3463 722 
L 3463 178 
Q 3153 47 2828 -22 
Q 2503 -91 2169 -91 
Q 1331 -91 842 396 
Q 353 884 353 1716 
Q 353 2575 817 3079 
Q 1281 3584 2069 3584 
Q 2775 3584 3186 3129 
Q 3597 2675 3597 1894 
z
M 3022 2063 
Q 3016 2534 2758 2815 
Q 2500 3097 2075 3097 
Q 1594 3097 1305 2825 
Q 1016 2553 972 2059 
L 3022 2063 
z
" transform="scale(0.015625)"/>
      <path id="DejaVuSans-10d" d="M 3122 3366 
L 3122 2828 
Q 2878 2963 2633 3030 
Q 2388 3097 2138 3097 
Q 1578 3097 1268 2742 
Q 959 2388 959 1747 
Q 959 1106 1268 751 
Q 1578 397 2138 397 
Q 2388 397 2633 464 
Q 2878 531 3122 666 
L 3122 134 
Q 2881 22 2623 -34 
Q 2366 -91 2075 -91 
Q 1284 -91 818 406 
Q 353 903 353 1747 
Q 353 2603 823 3093 
Q 1294 3584 2113 3584 
Q 2378 3584 2631 3529 
Q 2884 3475 3122 3366 
z
M 1801 3944 
L 1035 5119 
L 1470 5119 
L 2032 4353 
L 2595 5119 
L 3029 5119 
L 2263 3944 
L 1801 3944 
z
" transform="scale(0.015625)"/>
      <path id="DejaVuSans-6b" d="M 581 4863 
L 1159 4863 
L 1159 1991 
L 2875 3500 
L 3609 3500 
L 1753 1863 
L 3688 0 
L 2938 0 
L 1159 1709 
L 1159 0 
L 581 0 
L 581 4863 
z
" transform="scale(0.015625)"/>
      <path id="DejaVuSans-20" transform="scale(0.015625)"/>
      <path id="DejaVuSans-61" d="M 2194 1759 
Q 1497 1759 1228 1600 
Q 959 1441 959 1056 
Q 959 750 1161 570 
Q 1363 391 1709 391 
Q 2188 391 2477 730 
Q 2766 1069 2766 1631 
L 2766 1759 
L 2194 1759 
z
M 3341 1997 
L 3341 0 
L 2766 0 
L 2766 531 
Q 2569 213 2275 61 
Q 1981 -91 1556 -91 
Q 1019 -91 701 211 
Q 384 513 384 1019 
Q 384 1609 779 1909 
Q 1175 2209 1959 2209 
L 2766 2209 
L 2766 2266 
Q 2766 2663 2505 2880 
Q 2244 3097 1772 3097 
Q 1472 3097 1187 3025 
Q 903 2953 641 2809 
L 641 3341 
Q 956 3463 1253 3523 
Q 1550 3584 1831 3584 
Q 2591 3584 2966 3190 
Q 3341 2797 3341 1997 
z
" transform="scale(0.015625)"/>
      <path id="DejaVuSans-72" d="M 2631 2963 
Q 2534 3019 2420 3045 
Q 2306 3072 2169 3072 
Q 1681 3072 1420 2755 
Q 1159 2438 1159 1844 
L 1159 0 
L 581 0 
L 581 3500 
L 1159 3500 
L 1159 2956 
Q 1341 3275 1631 3429 
Q 1922 3584 2338 3584 
Q 2397 3584 2469 3576 
Q 2541 3569 2628 3553 
L 2631 2963 
z
" transform="scale(0.015625)"/>
      <path id="DejaVuSans-6f" d="M 1959 3097 
Q 1497 3097 1228 2736 
Q 959 2375 959 1747 
Q 959 1119 1226 758 
Q 1494 397 1959 397 
Q 2419 397 2687 759 
Q 2956 1122 2956 1747 
Q 2956 2369 2687 2733 
Q 2419 3097 1959 3097 
z
M 1959 3584 
Q 2709 3584 3137 3096 
Q 3566 2609 3566 1747 
Q 3566 888 3137 398 
Q 2709 -91 1959 -91 
Q 1206 -91 779 398 
Q 353 888 353 1747 
Q 353 2609 779 3096 
Q 1206 3584 1959 3584 
z
" transform="scale(0.015625)"/>
      <path id="DejaVuSans-76" d="M 191 3500 
L 800 3500 
L 1894 563 
L 2988 3500 
L 3597 3500 
L 2284 0 
L 1503 0 
L 191 3500 
z
" transform="scale(0.015625)"/>
      <path id="DejaVuSans-6e" d="M 3513 2113 
L 3513 0 
L 2938 0 
L 2938 2094 
Q 2938 2591 2744 2837 
Q 2550 3084 2163 3084 
Q 1697 3084 1428 2787 
Q 1159 2491 1159 1978 
L 1159 0 
L 581 0 
L 581 3500 
L 1159 3500 
L 1159 2956 
Q 1366 3272 1645 3428 
Q 1925 3584 2291 3584 
Q 2894 3584 3203 3211 
Q 3513 2838 3513 2113 
z
" transform="scale(0.015625)"/>
      <path id="DejaVuSans-69" d="M 603 3500 
L 1178 3500 
L 1178 0 
L 603 0 
L 603 3500 
z
M 603 4863 
L 1178 4863 
L 1178 4134 
L 603 4134 
L 603 4863 
z
" transform="scale(0.015625)"/>
     </defs>
     <use xlink:href="#DejaVuSans-44"/>
     <use xlink:href="#DejaVuSans-65" transform="translate(77.001953 0)"/>
     <use xlink:href="#DejaVuSans-10d" transform="translate(138.525391 0)"/>
     <use xlink:href="#DejaVuSans-65" transform="translate(193.505859 0)"/>
     <use xlink:href="#DejaVuSans-6b" transform="translate(255.029297 0)"/>
     <use xlink:href="#DejaVuSans-20" transform="translate(312.939453 0)"/>
     <use xlink:href="#DejaVuSans-10d" transform="translate(344.726562 0)"/>
     <use xlink:href="#DejaVuSans-61" transform="translate(399.707031 0)"/>
     <use xlink:href="#DejaVuSans-72" transform="translate(460.986328 0)"/>
     <use xlink:href="#DejaVuSans-6f" transform="translate(499.849609 0)"/>
     <use xlink:href="#DejaVuSans-76" transform="translate(561.03125 0)"/>
     <use xlink:href="#DejaVuSans-6e" transform="translate(620.210938 0)"/>
     <use xlink:href="#DejaVuSans-69" transform="translate(683.589844 0)"/>
     <use xlink:href="#DejaVuSans-6b" transform="translate(711.373047 0)"/>
    </g>
   </g>
   <g id="text_2">
    <!-- Pametna čarovnica -->
    <g transform="translate(188.58017 196.426571) scale(0.09 -0.09)">
     <defs>
      <path id="DejaVuSans-50" d="M 1259 4147 
L 1259 2394 
L 2053 2394 
Q 2494 2394 2734 2622 
Q 2975 2850 2975 3272 
Q 2975 3691 2734 3919 
Q 2494 4147 2053 4147 
L 1259 4147 
z
M 628 4666 
L 2053 4666 
Q 2838 4666 3239 4311 
Q 3641 3956 3641 3272 
Q 3641 2581 3239 2228 
Q 2838 1875 2053 1875 
L 1259 1875 
L 1259 0 
L 628 0 
L 628 4666 
z
" transform="scale(0.015625)"/>
      <path id="DejaVuSans-6d" d="M 3328 2828 
Q 3544 3216 3844 3400 
Q 4144 3584 4550 3584 
Q 5097 3584 5394 3201 
Q 5691 2819 5691 2113 
L 5691 0 
L 5113 0 
L 5113 2094 
Q 5113 2597 4934 2840 
Q 4756 3084 4391 3084 
Q 3944 3084 3684 2787 
Q 3425 2491 3425 1978 
L 3425 0 
L 2847 0 
L 2847 2094 
Q 2847 2600 2669 2842 
Q 2491 3084 2119 3084 
Q 1678 3084 1418 2786 
Q 1159 2488 1159 1978 
L 1159 0 
L 581 0 
L 581 3500 
L 1159 3500 
L 1159 2956 
Q 1356 3278 1631 3431 
Q 1906 3584 2284 3584 
Q 2666 3584 2933 3390 
Q 3200 3197 3328 2828 
z
" transform="scale(0.015625)"/>
      <path id="DejaVuSans-74" d="M 1172 4494 
L 1172 3500 
L 2356 3500 
L 2356 3053 
L 1172 3053 
L 1172 1153 
Q 1172 725 1289 603 
Q 1406 481 1766 481 
L 2356 481 
L 2356 0 
L 1766 0 
Q 1100 0 847 248 
Q 594 497 594 1153 
L 594 3053 
L 172 3053 
L 172 3500 
L 594 3500 
L 594 4494 
L 1172 4494 
z
" transform="scale(0.015625)"/>
      <path id="DejaVuSans-63" d="M 3122 3366 
L 3122 2828 
Q 2878 2963 2633 3030 
Q 2388 3097 2138 3097 
Q 1578 3097 1268 2742 
Q 959 2388 959 1747 
Q 959 1106 1268 751 
Q 1578 397 2138 397 
Q 2388 397 2633 464 
Q 2878 531 3122 666 
L 3122 134 
Q 2881 22 2623 -34 
Q 2366 -91 2075 -91 
Q 1284 -91 818 406 
Q 353 903 353 1747 
Q 353 2603 823 3093 
Q 1294 3584 2113 3584 
Q 2378 3584 2631 3529 
Q 2884 3475 3122 3366 
z
" transform="scale(0.015625)"/>
     </defs>
     <use xlink:href="#DejaVuSans-50"/>
     <use xlink:href="#DejaVuSans-61" transform="translate(55.802734 0)"/>
     <use xlink:href="#DejaVuSans-6d" transform="translate(117.082031 0)"/>
     <use xlink:href="#DejaVuSans-65" transform="translate(214.494141 0)"/>
     <use xlink:href="#DejaVuSans-74" transform="translate(276.017578 0)"/>
     <use xlink:href="#DejaVuSans-6e" transform="translate(315.226562 0)"/>
     <use xlink:href="#DejaVuSans-61" transform="translate(378.605469 0)"/>
     <use xlink:href="#DejaVuSans-20" transform="translate(439.884766 0)"/>
     <use xlink:href="#DejaVuSans-10d" transform="translate(471.671875 0)"/>
     <use xlink:href="#DejaVuSans-61" transform="translate(526.652344 0)"/>
     <use xlink:href="#DejaVuSans-72" transform="translate(587.931641 0)"/>
     <use xlink:href="#DejaVuSans-6f" transform="translate(626.794922 0)"/>
     <use xlink:href="#DejaVuSans-76" transform="translate(687.976562 0)"/>
     <use xlink:href="#DejaVuSans-6e" transform="translate(747.15625 0)"/>
     <use xlink:href="#DejaVuSans-69" transform="translate(810.535156 0)"/>
     <use xlink:href="#DejaVuSans-63" transform="translate(838.318359 0)"/>
     <use xlink:href="#DejaVuSans-61" transform="translate(893.298828 0)"/>
    </g>
   </g>
   <g id="text_3">
    <!-- Modri ravnatelj -->
    <g transform="translate(98.873614 191.207651) scale(0.09 -0.09)">
     <defs>
      <path id="DejaVuSans-4d" d="M 628 4666 
L 1569 4666 
L 2759 1491 
L 3956 4666 
L 4897 4666 
L 4897 0 
L 4281 0 
L 4281 4097 
L 3078 897 
L 2444 897 
L 1241 4097 
L 1241 0 
L 628 0 
L 628 4666 
z
" transform="scale(0.015625)"/>
      <path id="DejaVuSans-64" d="M 2906 2969 
L 2906 4863 
L 3481 4863 
L 3481 0 
L 2906 0 
L 2906 525 
Q 2725 213 2448 61 
Q 2172 -91 1784 -91 
Q 1150 -91 751 415 
Q 353 922 353 1747 
Q 353 2572 751 3078 
Q 1150 3584 1784 3584 
Q 2172 3584 2448 3432 
Q 2725 3281 2906 2969 
z
M 947 1747 
Q 947 1113 1208 752 
Q 1469 391 1925 391 
Q 2381 391 2643 752 
Q 2906 1113 2906 1747 
Q 2906 2381 2643 2742 
Q 2381 3103 1925 3103 
Q 1469 3103 1208 2742 
Q 947 2381 947 1747 
z
" transform="scale(0.015625)"/>
      <path id="DejaVuSans-6c" d="M 603 4863 
L 1178 4863 
L 1178 0 
L 603 0 
L 603 4863 
z
" transform="scale(0.015625)"/>
      <path id="DejaVuSans-6a" d="M 603 3500 
L 1178 3500 
L 1178 -63 
Q 1178 -731 923 -1031 
Q 669 -1331 103 -1331 
L -116 -1331 
L -116 -844 
L 38 -844 
Q 366 -844 484 -692 
Q 603 -541 603 -63 
L 603 3500 
z
M 603 4863 
L 1178 4863 
L 1178 4134 
L 603 4134 
L 603 4863 
z
" transform="scale(0.015625)"/>
     </defs>
     <use xlink:href="#DejaVuSans-4d"/>
     <use xlink:href="#DejaVuSans-6f" transform="translate(86.279297 0)"/>
     <use xlink:href="#DejaVuSans-64" transform="translate(147.460938 0)"/>
     <use xlink:href="#DejaVuSans-72" transform="translate(210.9375 0)"/>
     <use xlink:href="#DejaVuSans-69" transform="translate(252.050781 0)"/>
     <use xlink:href="#DejaVuSans-20" transform="translate(279.833984 0)"/>
     <use xlink:href="#DejaVuSans-72" transform="translate(311.621094 0)"/>
     <use xlink:href="#DejaVuSans-61" transform="translate(352.734375 0)"/>
     <use xlink:href="#DejaVuSans-76" transform="translate(414.013672 0)"/>
     <use xlink:href="#DejaVuSans-6e" transform="translate(473.193359 0)"/>
     <use xlink:href="#DejaVuSans-61" transform="translate(536.572266 0)"/>
     <use xlink:href="#DejaVuSans-74" transform="translate(597.851562 0)"/>
     <use xlink:href="#DejaVuSans-65" transform="translate(637.060547 0)"/>
     <use xlink:href="#DejaVuSans-6c" transform="translate(698.583984 0)"/>
     <use xlink:href="#DejaVuSans-6a" transform="translate(726.367188 0)"/>
    </g>
   </g>
   <g id="text_4">
    <!-- Mladi pilot -->
    <g transform="translate(79.344753 104.131412) scale(0.09 -0.09)">
     <defs>
      <path id="DejaVuSans-70" d="M 1159 525 
L 1159 -1331 
L 581 -1331 
L 581 3500 
L 1159 3500 
L 1159 2969 
Q 1341 3281 1617 3432 
Q 1894 3584 2278 3584 
Q 2916 3584 3314 3078 
Q 3713 2572 3713 1747 
Q 3713 922 3314 415 
Q 2916 -91 2278 -91 
Q 1894 -91 1617 61 
Q 1341 213 1159 525 
z
M 3116 1747 
Q 3116 2381 2855 2742 
Q 2594 3103 2138 3103 
Q 1681 3103 1420 2742 
Q 1159 2381 1159 1747 
Q 1159 1113 1420 752 
Q 1681 391 2138 391 
Q 2594 391 2855 752 
Q 3116 1113 3116 1747 
z
" transform="scale(0.015625)"/>
     </defs>
     <use xlink:href="#DejaVuSans-4d"/>
     <use xlink:href="#DejaVuSans-6c" transform="translate(86.279297 0)"/>
     <use xlink:href="#DejaVuSans-61" transform="translate(114.0625 0)"/>
     <use xlink:href="#DejaVuSans-64" transform="translate(175.341797 0)"/>
     <use xlink:href="#DejaVuSans-69" transform="translate(238.818359 0)"/>
     <use xlink:href="#DejaVuSans-20" transform="translate(266.601562 0)"/>
     <use xlink:href="#DejaVuSans-70" transform="translate(298.388672 0)"/>
     <use xlink:href="#DejaVuSans-69" transform="translate(361.865234 0)"/>
     <use xlink:href="#DejaVuSans-6c" transform="translate(389.648438 0)"/>
     <use xlink:href="#DejaVuSans-6f" transform="translate(417.431641 0)"/>
     <use xlink:href="#DejaVuSans-74" transform="translate(478.613281 0)"/>
    </g>
   </g>
   <g id="text_5">
    <!-- Tihotapec -->
    <g transform="translate(154.363977 55.947964) scale(0.09 -0.09)">
     <defs>
      <path id="DejaVuSans-54" d="M -19 4666 
L 3928 4666 
L 3928 4134 
L 2272 4134 
L 2272 0 
L 1638 0 
L 1638 4134 
L -19 4134 
L -19 4666 
z
" transform="scale(0.015625)"/>
      <path id="DejaVuSans-68" d="M 3513 2113 
L 3513 0 
L 2938 0 
L 2938 2094 
Q 2938 2591 2744 2837 
Q 2550 3084 2163 3084 
Q 1697 3084 1428 2787 
Q 1159 2491 1159 1978 
L 1159 0 
L 581 0 
L 581 4863 
L 1159 4863 
L 1159 2956 
Q 1366 3272 1645 3428 
Q 1925 3584 2291 3584 
Q 2894 3584 3203 3211 
Q 3513 2838 3513 2113 
z
" transform="scale(0.015625)"/>
     </defs>
     <use xlink:href="#DejaVuSans-54"/>
     <use xlink:href="#DejaVuSans-69" transform="translate(57.958984 0)"/>
     <use xlink:href="#DejaVuSans-68" transform="translate(85.742188 0)"/>
     <use xlink:href="#DejaVuSans-6f" transform="translate(149.121094 0)"/>
     <use xlink:href="#DejaVuSans-74" transform="translate(210.302734 0)"/>
     <use xlink:href="#DejaVuSans-61" transform="translate(249.511719 0)"/>
     <use xlink:href="#DejaVuSans-70" transform="translate(310.791016 0)"/>
     <use xlink:href="#DejaVuSans-65" transform="translate(374.267578 0)"/>
     <use xlink:href="#DejaVuSans-63" transform="translate(435.791016 0)"/>
    </g>
   </g>
   <g id="text_6">
    <!-- Zeleni mojster -->
    <g transform="translate(269.756172 131.762227) scale(0.09 -0.09)">
     <defs>
      <path id="DejaVuSans-5a" d="M 359 4666 
L 4025 4666 
L 4025 4184 
L 1075 531 
L 4097 531 
L 4097 0 
L 288 0 
L 288 481 
L 3238 4134 
L 359 4134 
L 359 4666 
z
" transform="scale(0.015625)"/>
      <path id="DejaVuSans-73" d="M 2834 3397 
L 2834 2853 
Q 2591 2978 2328 3040 
Q 2066 3103 1784 3103 
Q 1356 3103 1142 2972 
Q 928 2841 928 2578 
Q 928 2378 1081 2264 
Q 1234 2150 1697 2047 
L 1894 2003 
Q 2506 1872 2764 1633 
Q 3022 1394 3022 966 
Q 3022 478 2636 193 
Q 2250 -91 1575 -91 
Q 1294 -91 989 -36 
Q 684 19 347 128 
L 347 722 
Q 666 556 975 473 
Q 1284 391 1588 391 
Q 1994 391 2212 530 
Q 2431 669 2431 922 
Q 2431 1156 2273 1281 
Q 2116 1406 1581 1522 
L 1381 1569 
Q 847 1681 609 1914 
Q 372 2147 372 2553 
Q 372 3047 722 3315 
Q 1072 3584 1716 3584 
Q 2034 3584 2315 3537 
Q 2597 3491 2834 3397 
z
" transform="scale(0.015625)"/>
     </defs>
     <use xlink:href="#DejaVuSans-5a"/>
     <use xlink:href="#DejaVuSans-65" transform="translate(68.505859 0)"/>
     <use xlink:href="#DejaVuSans-6c" transform="translate(130.029297 0)"/>
     <use xlink:href="#DejaVuSans-65" transform="translate(157.8125 0)"/>
     <use xlink:href="#DejaVuSans-6e" transform="translate(219.335938 0)"/>
     <use xlink:href="#DejaVuSans-69" transform="translate(282.714844 0)"/>
     <use xlink:href="#DejaVuSans-20" transform="translate(310.498047 0)"/>
     <use xlink:href="#DejaVuSans-6d" transform="translate(342.285156 0)"/>
     <use xlink:href="#DejaVuSans-6f" transform="translate(439.697266 0)"/>
     <use xlink:href="#DejaVuSans-6a" transform="translate(500.878906 0)"/>
     <use xlink:href="#DejaVuSans-73" transform="translate(528.662109 0)"/>
     <use xlink:href="#DejaVuSans-74" transform="translate(580.761719 0)"/>
     <use xlink:href="#DejaVuSans-65" transform="translate(619.970703 0)"/>
     <use xlink:href="#DejaVuSans-72" transform="translate(681.494141 0)"/>
    </g>
   </g>
   <g id="text_7">
    <!-- Nosilec prstana -->
    <g transform="translate(156.089498 191.382219) scale(0.09 -0.09)">
     <defs>
      <path id="DejaVuSans-4e" d="M 628 4666 
L 1478 4666 
L 3547 763 
L 3547 4666 
L 4159 4666 
L 4159 0 
L 3309 0 
L 1241 3903 
L 1241 0 
L 628 0 
L 628 4666 
z
" transform="scale(0.015625)"/>
     </defs>
     <use xlink:href="#DejaVuSans-4e"/>
     <use xlink:href="#DejaVuSans-6f" transform="translate(74.804688 0)"/>
     <use xlink:href="#DejaVuSans-73" transform="translate(135.986328 0)"/>
     <use xlink:href="#DejaVuSans-69" transform="translate(188.085938 0)"/>
     <use xlink:href="#DejaVuSans-6c" transform="translate(215.869141 0)"/>
     <use xlink:href="#DejaVuSans-65" transform="translate(243.652344 0)"/>
     <use xlink:href="#DejaVuSans-63" transform="translate(305.175781 0)"/>
     <use xlink:href="#DejaVuSans-20" transform="translate(360.15625 0)"/>
     <use xlink:href="#DejaVuSans-70" transform="translate(391.943359 0)"/>
     <use xlink:href="#DejaVuSans-72" transform="translate(455.419922 0)"/>
     <use xlink:href="#DejaVuSans-73" transform="translate(496.533203 0)"/>
     <use xlink:href="#DejaVuSans-74" transform="translate(548.632812 0)"/>
     <use xlink:href="#DejaVuSans-61" transform="translate(587.841797 0)"/>
     <use xlink:href="#DejaVuSans-6e" transform="translate(649.121094 0)"/>
     <use xlink:href="#DejaVuSans-61" transform="translate(712.5 0)"/>
    </g>
   </g>
   <g id="text_8">
    <!-- Sivi čarovnik -->
    <g transform="translate(239.27092 22.327909) scale(0.09 -0.09)">
     <defs>
      <path id="DejaVuSans-53" d="M 3425 4513 
L 3425 3897 
Q 3066 4069 2747 4153 
Q 2428 4238 2131 4238 
Q 1616 4238 1336 4038 
Q 1056 3838 1056 3469 
Q 1056 3159 1242 3001 
Q 1428 2844 1947 2747 
L 2328 2669 
Q 3034 2534 3370 2195 
Q 3706 1856 3706 1288 
Q 3706 609 3251 259 
Q 2797 -91 1919 -91 
Q 1588 -91 1214 -16 
Q 841 59 441 206 
L 441 856 
Q 825 641 1194 531 
Q 1563 422 1919 422 
Q 2459 422 2753 634 
Q 3047 847 3047 1241 
Q 3047 1584 2836 1778 
Q 2625 1972 2144 2069 
L 1759 2144 
Q 1053 2284 737 2584 
Q 422 2884 422 3419 
Q 422 4038 858 4394 
Q 1294 4750 2059 4750 
Q 2388 4750 2728 4690 
Q 3069 4631 3425 4513 
z
" transform="scale(0.015625)"/>
     </defs>
     <use xlink:href="#DejaVuSans-53"/>
     <use xlink:href="#DejaVuSans-69" transform="translate(63.476562 0)"/>
     <use xlink:href="#DejaVuSans-76" transform="translate(91.259766 0)"/>
     <use xlink:href="#DejaVuSans-69" transform="translate(150.439453 0)"/>
     <use xlink:href="#DejaVuSans-20" transform="translate(178.222656 0)"/>
     <use xlink:href="#DejaVuSans-10d" transform="translate(210.009766 0)"/>
     <use xlink:href="#DejaVuSans-61" transform="translate(264.990234 0)"/>
     <use xlink:href="#DejaVuSans-72" transform="translate(326.269531 0)"/>
     <use xlink:href="#DejaVuSans-6f" transform="translate(365.132812 0)"/>
     <use xlink:href="#DejaVuSans-76" transform="translate(426.314453 0)"/>
     <use xlink:href="#DejaVuSans-6e" transform="translate(485.494141 0)"/>
     <use xlink:href="#DejaVuSans-69" transform="translate(548.873047 0)"/>
     <use xlink:href="#DejaVuSans-6b" transform="translate(576.65625 0)"/>
    </g>
   </g>
   <g id="text_9">
    <!-- Postopač -->
    <g transform="translate(7.2 206.828863) scale(0.09 -0.09)">
     <use xlink:href="#DejaVuSans-50"/>
     <use xlink:href="#DejaVuSans-6f" transform="translate(56.677734 0)"/>
     <use xlink:href="#DejaVuSans-73" transform="translate(117.859375 0)"/>
     <use xlink:href="#DejaVuSans-74" transform="translate(169.958984 0)"/>
     <use xlink:href="#DejaVuSans-6f" transform="translate(209.167969 0)"/>
     <use xlink:href="#DejaVuSans-70" transform="translate(270.349609 0)"/>
     <use xlink:href="#DejaVuSans-61" transform="translate(333.826172 0)"/>
     <use xlink:href="#DejaVuSans-10d" transform="translate(395.105469 0)"/>
    </g>
   </g>
   <g id="text_10">
    <!-- Vilinski lokostrelec -->
    <g transform="translate(233.099259 195.16209) scale(0.09 -0.09)">
     <defs>
      <path id="DejaVuSans-56" d="M 1831 0 
L 50 4666 
L 709 4666 
L 2188 738 
L 3669 4666 
L 4325 4666 
L 2547 0 
L 1831 0 
z
" transform="scale(0.015625)"/>
     </defs>
     <use xlink:href="#DejaVuSans-56"/>
     <use xlink:href="#DejaVuSans-69" transform="translate(66.158203 0)"/>
     <use xlink:href="#DejaVuSans-6c" transform="translate(93.941406 0)"/>
     <use xlink:href="#DejaVuSans-69" transform="translate(121.724609 0)"/>
     <use xlink:href="#DejaVuSans-6e" transform="translate(149.507812 0)"/>
     <use xlink:href="#DejaVuSans-73" transform="translate(212.886719 0)"/>
     <use xlink:href="#DejaVuSans-6b" transform="translate(264.986328 0)"/>
     <use xlink:href="#DejaVuSans-69" transform="translate(322.896484 0)"/>
     <use xlink:href="#DejaVuSans-20" transform="translate(350.679688 0)"/>
     <use xlink:href="#DejaVuSans-6c" transform="translate(382.466797 0)"/>
     <use xlink:href="#DejaVuSans-6f" transform="translate(410.25 0)"/>
     <use xlink:href="#DejaVuSans-6b" transform="translate(471.431641 0)"/>
     <use xlink:href="#DejaVuSans-6f" transform="translate(525.716797 0)"/>
     <use xlink:href="#DejaVuSans-73" transform="translate(586.898438 0)"/>
     <use xlink:href="#DejaVuSans-74" transform="translate(638.998047 0)"/>
     <use xlink:href="#DejaVuSans-72" transform="translate(678.207031 0)"/>
     <use xlink:href="#DejaVuSans-65" transform="translate(717.070312 0)"/>
     <use xlink:href="#DejaVuSans-6c" transform="translate(778.59375 0)"/>
     <use xlink:href="#DejaVuSans-65" transform="translate(806.376953 0)"/>
     <use xlink:href="#DejaVuSans-63" transform="translate(867.900391 0)"/>
    </g>
   </g>
   <g id="text_11">
    <!-- Škratovski bojevnik -->
    <g transform="translate(179.052801 130.774517) scale(0.09 -0.09)">
     <defs>
      <path id="DejaVuSans-160" d="M 3425 4513 
L 3425 3897 
Q 3066 4069 2747 4153 
Q 2428 4238 2131 4238 
Q 1616 4238 1336 4038 
Q 1056 3838 1056 3469 
Q 1056 3159 1242 3001 
Q 1428 2844 1947 2747 
L 2328 2669 
Q 3034 2534 3370 2195 
Q 3706 1856 3706 1288 
Q 3706 609 3251 259 
Q 2797 -91 1919 -91 
Q 1588 -91 1214 -16 
Q 841 59 441 206 
L 441 856 
Q 825 641 1194 531 
Q 1563 422 1919 422 
Q 2459 422 2753 634 
Q 3047 847 3047 1241 
Q 3047 1584 2836 1778 
Q 2625 1972 2144 2069 
L 1759 2144 
Q 1053 2284 737 2584 
Q 422 2884 422 3419 
Q 422 4038 858 4394 
Q 1294 4750 2059 4750 
Q 2388 4750 2728 4690 
Q 3069 4631 3425 4513 
z
M 1738 5096 
L 1079 5927 
L 1513 5927 
L 2032 5371 
L 2551 5927 
L 2985 5927 
L 2326 5096 
L 1738 5096 
z
" transform="scale(0.015625)"/>
      <path id="DejaVuSans-62" d="M 3116 1747 
Q 3116 2381 2855 2742 
Q 2594 3103 2138 3103 
Q 1681 3103 1420 2742 
Q 1159 2381 1159 1747 
Q 1159 1113 1420 752 
Q 1681 391 2138 391 
Q 2594 391 2855 752 
Q 3116 1113 3116 1747 
z
M 1159 2969 
Q 1341 3281 1617 3432 
Q 1894 3584 2278 3584 
Q 2916 3584 3314 3078 
Q 3713 2572 3713 1747 
Q 3713 922 3314 415 
Q 2916 -91 2278 -91 
Q 1894 -91 1617 61 
Q 1341 213 1159 525 
L 1159 0 
L 581 0 
L 581 4863 
L 1159 4863 
L 1159 2969 
z
" transform="scale(0.015625)"/>
     </defs>
     <use xlink:href="#DejaVuSans-160"/>
     <use xlink:href="#DejaVuSans-6b" transform="translate(63.476562 0)"/>
     <use xlink:href="#DejaVuSans-72" transform="translate(121.386719 0)"/>
     <use xlink:href="#DejaVuSans-61" transform="translate(162.5 0)"/>
     <use xlink:href="#DejaVuSans-74" transform="translate(223.779297 0)"/>
     <use xlink:href="#DejaVuSans-6f" transform="translate(262.988281 0)"/>
     <use xlink:href="#DejaVuSans-76" transform="translate(324.169922 0)"/>
     <use xlink:href="#DejaVuSans-73" transform="translate(383.349609 0)"/>
     <use xlink:href="#DejaVuSans-6b" transform="translate(435.449219 0)"/>
     <use xlink:href="#DejaVuSans-69" transform="translate(493.359375 0)"/>
     <use xlink:href="#DejaVuSans-20" transform="translate(521.142578 0)"/>
     <use xlink:href="#DejaVuSans-62" transform="translate(552.929688 0)"/>
     <use xlink:href="#DejaVuSans-6f" transform="translate(616.40625 0)"/>
     <use xlink:href="#DejaVuSans-6a" transform="translate(677.587891 0)"/>
     <use xlink:href="#DejaVuSans-65" transform="translate(705.371094 0)"/>
     <use xlink:href="#DejaVuSans-76" transform="translate(766.894531 0)"/>
     <use xlink:href="#DejaVuSans-6e" transform="translate(826.074219 0)"/>
     <use xlink:href="#DejaVuSans-69" transform="translate(889.453125 0)"/>
     <use xlink:href="#DejaVuSans-6b" transform="translate(917.236328 0)"/>
    </g>
   </g>
   <g id="text_12">
    <!-- Zvesti robot -->
    <g transform="translate(82.433367 295.511217) scale(0.09 -0.09)">
     <use xlink:href="#DejaVuSans-5a"/>
     <use xlink:href="#DejaVuSans-76" transform="translate(68.505859 0)"/>
     <use xlink:href="#DejaVuSans-65" transform="translate(127.685547 0)"/>
     <use xlink:href="#DejaVuSans-73" transform="translate(189.208984 0)"/>
     <use xlink:href="#DejaVuSans-74" transform="translate(241.308594 0)"/>
     <use xlink:href="#DejaVuSans-69" transform="translate(280.517578 0)"/>
     <use xlink:href="#DejaVuSans-20" transform="translate(308.300781 0)"/>
     <use xlink:href="#DejaVuSans-72" transform="translate(340.087891 0)"/>
     <use xlink:href="#DejaVuSans-6f" transform="translate(378.951172 0)"/>
     <use xlink:href="#DejaVuSans-62" transform="translate(440.132812 0)"/>
     <use xlink:href="#DejaVuSans-6f" transform="translate(503.609375 0)"/>
     <use xlink:href="#DejaVuSans-74" transform="translate(564.791016 0)"/>
    </g>
   </g>
   <g id="text_13">
    <!-- Voditeljica upora -->
    <g transform="translate(188.690063 214.115581) scale(0.09 -0.09)">
     <defs>
      <path id="DejaVuSans-75" d="M 544 1381 
L 544 3500 
L 1119 3500 
L 1119 1403 
Q 1119 906 1312 657 
Q 1506 409 1894 409 
Q 2359 409 2629 706 
Q 2900 1003 2900 1516 
L 2900 3500 
L 3475 3500 
L 3475 0 
L 2900 0 
L 2900 538 
Q 2691 219 2414 64 
Q 2138 -91 1772 -91 
Q 1169 -91 856 284 
Q 544 659 544 1381 
z
M 1991 3584 
L 1991 3584 
z
" transform="scale(0.015625)"/>
     </defs>
     <use xlink:href="#DejaVuSans-56"/>
     <use xlink:href="#DejaVuSans-6f" transform="translate(60.658203 0)"/>
     <use xlink:href="#DejaVuSans-64" transform="translate(121.839844 0)"/>
     <use xlink:href="#DejaVuSans-69" transform="translate(185.316406 0)"/>
     <use xlink:href="#DejaVuSans-74" transform="translate(213.099609 0)"/>
     <use xlink:href="#DejaVuSans-65" transform="translate(252.308594 0)"/>
     <use xlink:href="#DejaVuSans-6c" transform="translate(313.832031 0)"/>
     <use xlink:href="#DejaVuSans-6a" transform="translate(341.615234 0)"/>
     <use xlink:href="#DejaVuSans-69" transform="translate(369.398438 0)"/>
     <use xlink:href="#DejaVuSans-63" transform="translate(397.181641 0)"/>
     <use xlink:href="#DejaVuSans-61" transform="translate(452.162109 0)"/>
     <use xlink:href="#DejaVuSans-20" transform="translate(513.441406 0)"/>
     <use xlink:href="#DejaVuSans-75" transform="translate(545.228516 0)"/>
     <use xlink:href="#DejaVuSans-70" transform="translate(608.607422 0)"/>
     <use xlink:href="#DejaVuSans-6f" transform="translate(672.083984 0)"/>
     <use xlink:href="#DejaVuSans-72" transform="translate(733.265625 0)"/>
     <use xlink:href="#DejaVuSans-61" transform="translate(774.378906 0)"/>
    </g>
   </g>
   <g id="text_14">
    <!-- Temni vitez -->
    <g transform="translate(357.0688 261.441156) scale(0.09 -0.09)">
     <defs>
      <path id="DejaVuSans-7a" d="M 353 3500 
L 3084 3500 
L 3084 2975 
L 922 459 
L 3084 459 
L 3084 0 
L 275 0 
L 275 525 
L 2438 3041 
L 353 3041 
L 353 3500 
z
" transform="scale(0.015625)"/>
     </defs>
     <use xlink:href="#DejaVuSans-54"/>
     <use xlink:href="#DejaVuSans-65" transform="translate(44.083984 0)"/>
     <use xlink:href="#DejaVuSans-6d" transform="translate(105.607422 0)"/>
     <use xlink:href="#DejaVuSans-6e" transform="translate(203.019531 0)"/>
     <use xlink:href="#DejaVuSans-69" transform="translate(266.398438 0)"/>
     <use xlink:href="#DejaVuSans-20" transform="translate(294.181641 0)"/>
     <use xlink:href="#DejaVuSans-76" transform="translate(325.96875 0)"/>
     <use xlink:href="#DejaVuSans-69" transform="translate(385.148438 0)"/>
     <use xlink:href="#DejaVuSans-74" transform="translate(412.931641 0)"/>
     <use xlink:href="#DejaVuSans-65" transform="translate(452.140625 0)"/>
     <use xlink:href="#DejaVuSans-7a" transform="translate(513.664062 0)"/>
    </g>
   </g>
   <g id="text_15">
    <!-- Zvesti prijatelj -->
    <g transform="translate(246.684998 375.127909) scale(0.09 -0.09)">
     <use xlink:href="#DejaVuSans-5a"/>
     <use xlink:href="#DejaVuSans-76" transform="translate(68.505859 0)"/>
     <use xlink:href="#DejaVuSans-65" transform="translate(127.685547 0)"/>
     <use xlink:href="#DejaVuSans-73" transform="translate(189.208984 0)"/>
     <use xlink:href="#DejaVuSans-74" transform="translate(241.308594 0)"/>
     <use xlink:href="#DejaVuSans-69" transform="translate(280.517578 0)"/>
     <use xlink:href="#DejaVuSans-20" transform="translate(308.300781 0)"/>
     <use xlink:href="#DejaVuSans-70" transform="translate(340.087891 0)"/>
     <use xlink:href="#DejaVuSans-72" transform="translate(403.564453 0)"/>
     <use xlink:href="#DejaVuSans-69" transform="translate(444.677734 0)"/>
     <use xlink:href="#DejaVuSans-6a" transform="translate(472.460938 0)"/>
     <use xlink:href="#DejaVuSans-61" transform="translate(500.244141 0)"/>
     <use xlink:href="#DejaVuSans-74" transform="translate(561.523438 0)"/>
     <use xlink:href="#DejaVuSans-65" transform="translate(600.732422 0)"/>
     <use xlink:href="#DejaVuSans-6c" transform="translate(662.255859 0)"/>
     <use xlink:href="#DejaVuSans-6a" transform="translate(690.039062 0)"/>
    </g>
   </g>
   <g id="text_16">
    <!-- Zlati robot -->
    <g transform="translate(260.068857 266.8186) scale(0.09 -0.09)">
     <use xlink:href="#DejaVuSans-5a"/>
     <use xlink:href="#DejaVuSans-6c" transform="translate(68.505859 0)"/>
     <use xlink:href="#DejaVuSans-61" transform="translate(96.289062 0)"/>
     <use xlink:href="#DejaVuSans-74" transform="translate(157.568359 0)"/>
     <use xlink:href="#DejaVuSans-69" transform="translate(196.777344 0)"/>
     <use xlink:href="#DejaVuSans-20" transform="translate(224.560547 0)"/>
     <use xlink:href="#DejaVuSans-72" transform="translate(256.347656 0)"/>
     <use xlink:href="#DejaVuSans-6f" transform="translate(295.210938 0)"/>
     <use xlink:href="#DejaVuSans-62" transform="translate(356.392578 0)"/>
     <use xlink:href="#DejaVuSans-6f" transform="translate(419.869141 0)"/>
     <use xlink:href="#DejaVuSans-74" transform="translate(481.050781 0)"/>
    </g>
   </g>
   <g id="text_17">
    <!-- Prebrisani učitelj -->
    <g transform="translate(341.522018 89.013317) scale(0.09 -0.09)">
     <use xlink:href="#DejaVuSans-50"/>
     <use xlink:href="#DejaVuSans-72" transform="translate(58.552734 0)"/>
     <use xlink:href="#DejaVuSans-65" transform="translate(97.416016 0)"/>
     <use xlink:href="#DejaVuSans-62" transform="translate(158.939453 0)"/>
     <use xlink:href="#DejaVuSans-72" transform="translate(222.416016 0)"/>
     <use xlink:href="#DejaVuSans-69" transform="translate(263.529297 0)"/>
     <use xlink:href="#DejaVuSans-73" transform="translate(291.3125 0)"/>
     <use xlink:href="#DejaVuSans-61" transform="translate(343.412109 0)"/>
     <use xlink:href="#DejaVuSans-6e" transform="translate(404.691406 0)"/>
     <use xlink:href="#DejaVuSans-69" transform="translate(468.070312 0)"/>
     <use xlink:href="#DejaVuSans-20" transform="translate(495.853516 0)"/>
     <use xlink:href="#DejaVuSans-75" transform="translate(527.640625 0)"/>
     <use xlink:href="#DejaVuSans-10d" transform="translate(591.019531 0)"/>
     <use xlink:href="#DejaVuSans-69" transform="translate(646 0)"/>
     <use xlink:href="#DejaVuSans-74" transform="translate(673.783203 0)"/>
     <use xlink:href="#DejaVuSans-65" transform="translate(712.992188 0)"/>
     <use xlink:href="#DejaVuSans-6c" transform="translate(774.515625 0)"/>
     <use xlink:href="#DejaVuSans-6a" transform="translate(802.298828 0)"/>
    </g>
   </g>
   <g id="text_18">
    <!-- Pogumna princesa -->
    <g transform="translate(139.626506 311.784708) scale(0.09 -0.09)">
     <defs>
      <path id="DejaVuSans-67" d="M 2906 1791 
Q 2906 2416 2648 2759 
Q 2391 3103 1925 3103 
Q 1463 3103 1205 2759 
Q 947 2416 947 1791 
Q 947 1169 1205 825 
Q 1463 481 1925 481 
Q 2391 481 2648 825 
Q 2906 1169 2906 1791 
z
M 3481 434 
Q 3481 -459 3084 -895 
Q 2688 -1331 1869 -1331 
Q 1566 -1331 1297 -1286 
Q 1028 -1241 775 -1147 
L 775 -588 
Q 1028 -725 1275 -790 
Q 1522 -856 1778 -856 
Q 2344 -856 2625 -561 
Q 2906 -266 2906 331 
L 2906 616 
Q 2728 306 2450 153 
Q 2172 0 1784 0 
Q 1141 0 747 490 
Q 353 981 353 1791 
Q 353 2603 747 3093 
Q 1141 3584 1784 3584 
Q 2172 3584 2450 3431 
Q 2728 3278 2906 2969 
L 2906 3500 
L 3481 3500 
L 3481 434 
z
" transform="scale(0.015625)"/>
     </defs>
     <use xlink:href="#DejaVuSans-50"/>
     <use xlink:href="#DejaVuSans-6f" transform="translate(56.677734 0)"/>
     <use xlink:href="#DejaVuSans-67" transform="translate(117.859375 0)"/>
     <use xlink:href="#DejaVuSans-75" transform="translate(181.335938 0)"/>
     <use xlink:href="#DejaVuSans-6d" transform="translate(244.714844 0)"/>
     <use xlink:href="#DejaVuSans-6e" transform="translate(342.126953 0)"/>
     <use xlink:href="#DejaVuSans-61" transform="translate(405.505859 0)"/>
     <use xlink:href="#DejaVuSans-20" transform="translate(466.785156 0)"/>
     <use xlink:href="#DejaVuSans-70" transform="translate(498.572266 0)"/>
     <use xlink:href="#DejaVuSans-72" transform="translate(562.048828 0)"/>
     <use xlink:href="#DejaVuSans-69" transform="translate(603.162109 0)"/>
     <use xlink:href="#DejaVuSans-6e" transform="translate(630.945312 0)"/>
     <use xlink:href="#DejaVuSans-63" transform="translate(694.324219 0)"/>
     <use xlink:href="#DejaVuSans-65" transform="translate(749.304688 0)"/>
     <use xlink:href="#DejaVuSans-73" transform="translate(810.828125 0)"/>
     <use xlink:href="#DejaVuSans-61" transform="translate(862.927734 0)"/>
    </g>
   </g>
  </g>
 </g>
 <defs>
  <clipPath id="p9fdc74c190">
   <rect x="9.699673" y="7.2" width="390.6" height="388.08"/>
  </clipPath>
 </defs>
</svg>
