<?xml version="1.0" encoding="utf-8" standalone="no"?>
<!DOCTYPE svg PUBLIC "-//W3C//DTD SVG 1.1//EN"
  "http://www.w3.org/Graphics/SVG/1.1/DTD/svg11.dtd">
<svg xmlns:xlink="http://www.w3.org/1999/xlink" width="420.082159pt" height="402.48pt" viewBox="0 0 420.082159 402.48" xmlns="http://www.w3.org/2000/svg" version="1.1">
 <metadata>
  <rdf:RDF xmlns:dc="http://purl.org/dc/elements/1.1/" xmlns:cc="http://creativecommons.org/ns#" xmlns:rdf="http://www.w3.org/1999/02/22-rdf-syntax-ns#">
   <cc:Work>
    <dc:type rdf:resource="http://purl.org/dc/dcmitype/StillImage"/>
    <dc:date>2025-11-17T12:45:48.463419</dc:date>
    <dc:format>image/svg+xml</dc:format>
    <dc:creator>
     <cc:Agent>
      <dc:title>Matplotlib v3.10.7, https://matplotlib.org/</dc:title>
     </cc:Agent>
    </dc:creator>
   </cc:Work>
  </rdf:RDF>
 </metadata>
 <defs>
  <style type="text/css">*{stroke-linejoin: round; stroke-linecap: butt}</style>
 </defs>
 <g id="figure_1">
  <g id="patch_1">
   <path d="M 0 402.48 
L 420.082159 402.48 
L 420.082159 -0 
L 0 -0 
z
" style="fill: #ffffff"/>
  </g>
  <g id="axes_1">
   <g id="patch_2">
    <path d="M 281.403118 56.585819 
Q 221.326313 95.050803 162.510184 132.708622 
" clip-path="url(#p00bed4f8d8)" style="fill: none; stroke: #e8e8e8; stroke-width: 1.2; stroke-linecap: round"/>
    <path d="M 171.134788 131.342531 
L 162.510184 132.708622 
L 167.36031 125.447336 
z
" clip-path="url(#p00bed4f8d8)" style="fill: #e8e8e8; stroke: #e8e8e8; stroke-width: 1.2; stroke-linecap: round"/>
   </g>
   <g id="patch_3">
    <path d="M 285.653499 60.158687 
Q 275.214346 100.984778 265.146025 140.360593 
" clip-path="url(#p00bed4f8d8)" style="fill: none; stroke: #e8e8e8; stroke-width: 1.2; stroke-linecap: round"/>
    <path d="M 270.518752 133.477004 
L 265.146025 140.360593 
L 263.736945 131.742909 
z
" clip-path="url(#p00bed4f8d8)" style="fill: #e8e8e8; stroke: #e8e8e8; stroke-width: 1.2; stroke-linecap: round"/>
   </g>
   <g id="patch_4">
    <path d="M 282.970218 58.610814 
Q 245.88081 106.733976 209.705209 153.671484 
" clip-path="url(#p00bed4f8d8)" style="fill: none; stroke: #e8e8e8; stroke-width: 1.2; stroke-linecap: round"/>
    <path d="M 217.361005 149.471628 
L 209.705209 153.671484 
L 211.816625 145.198472 
z
" clip-path="url(#p00bed4f8d8)" style="fill: #e8e8e8; stroke: #e8e8e8; stroke-width: 1.2; stroke-linecap: round"/>
   </g>
   <g id="patch_5">
    <path d="M 155.77281 145.247078 
Q 157.665534 166.354001 159.42456 185.969971 
" clip-path="url(#p00bed4f8d8)" style="fill: none; stroke: #e8e8e8; stroke-width: 1.2; stroke-linecap: round"/>
    <path d="M 162.196054 177.689342 
L 159.42456 185.969971 
L 155.224029 178.314545 
z
" clip-path="url(#p00bed4f8d8)" style="fill: #e8e8e8; stroke: #e8e8e8; stroke-width: 1.2; stroke-linecap: round"/>
   </g>
   <g id="patch_6">
    <path d="M 150.812249 143.737864 
Q 120.144643 188.835494 90.318802 232.695283 
" clip-path="url(#p00bed4f8d8)" style="fill: none; stroke: #e8e8e8; stroke-width: 1.2; stroke-linecap: round"/>
    <path d="M 97.71161 228.048093 
L 90.318802 232.695283 
L 91.923197 224.111816 
z
" clip-path="url(#p00bed4f8d8)" style="fill: #e8e8e8; stroke: #e8e8e8; stroke-width: 1.2; stroke-linecap: round"/>
   </g>
   <g id="patch_7">
    <path d="M 264.776 141.807711 
Q 275.215153 100.98162 285.283474 61.605804 
" clip-path="url(#p00bed4f8d8)" style="fill: none; stroke: #e8e8e8; stroke-width: 1.2; stroke-linecap: round"/>
    <path d="M 279.910747 68.489394 
L 285.283474 61.605804 
L 286.692554 70.223489 
z
" clip-path="url(#p00bed4f8d8)" style="fill: #e8e8e8; stroke: #e8e8e8; stroke-width: 1.2; stroke-linecap: round"/>
   </g>
   <g id="patch_8">
    <path d="M 266.866684 155.799806 
Q 287.963477 189.772238 308.270558 222.472988 
" clip-path="url(#p00bed4f8d8)" style="fill: none; stroke: #e8e8e8; stroke-width: 1.2; stroke-linecap: round"/>
    <path d="M 307.023476 213.830374 
L 308.270558 222.472988 
L 301.076815 217.523235 
z
" clip-path="url(#p00bed4f8d8)" style="fill: #e8e8e8; stroke: #e8e8e8; stroke-width: 1.2; stroke-linecap: round"/>
   </g>
   <g id="patch_9">
    <path d="M 258.406452 143.217012 
Q 230.105267 104.270072 202.684051 66.53411 
" clip-path="url(#p00bed4f8d8)" style="fill: none; stroke: #e8e8e8; stroke-width: 1.2; stroke-linecap: round"/>
    <path d="M 204.55543 75.06335 
L 202.684051 66.53411 
L 210.218232 70.948418 
z
" clip-path="url(#p00bed4f8d8)" style="fill: #e8e8e8; stroke: #e8e8e8; stroke-width: 1.2; stroke-linecap: round"/>
   </g>
   <g id="patch_10">
    <path d="M 203.672685 168.629022 
Q 202.137851 191.992905 200.701144 213.863073 
" clip-path="url(#p00bed4f8d8)" style="fill: none; stroke: #e8e8e8; stroke-width: 1.2; stroke-linecap: round"/>
    <path d="M 204.718026 206.109709 
L 200.701144 213.863073 
L 197.733082 205.65085 
z
" clip-path="url(#p00bed4f8d8)" style="fill: #e8e8e8; stroke: #e8e8e8; stroke-width: 1.2; stroke-linecap: round"/>
   </g>
   <g id="patch_11">
    <path d="M 203.84106 168.641586 
Q 203.402495 178.6043 203.029762 187.071527 
" clip-path="url(#p00bed4f8d8)" style="fill: none; stroke: #e8e8e8; stroke-width: 1.2; stroke-linecap: round"/>
    <path d="M 206.8782 179.233191 
L 203.029762 187.071527 
L 199.884973 178.925344 
z
" clip-path="url(#p00bed4f8d8)" style="fill: #e8e8e8; stroke: #e8e8e8; stroke-width: 1.2; stroke-linecap: round"/>
   </g>
   <g id="patch_12">
    <path d="M 309.058858 223.742397 
Q 287.962066 189.769966 267.654984 157.069216 
" clip-path="url(#p00bed4f8d8)" style="fill: none; stroke: #e8e8e8; stroke-width: 1.2; stroke-linecap: round"/>
    <path d="M 268.902066 165.71183 
L 267.654984 157.069216 
L 274.848727 162.018969 
z
" clip-path="url(#p00bed4f8d8)" style="fill: #e8e8e8; stroke: #e8e8e8; stroke-width: 1.2; stroke-linecap: round"/>
   </g>
   <g id="patch_13">
    <path d="M 306.892857 226.270028 
Q 258.630148 195.521643 211.629922 165.577591 
" clip-path="url(#p00bed4f8d8)" style="fill: none; stroke: #e8e8e8; stroke-width: 1.2; stroke-linecap: round"/>
    <path d="M 216.496329 172.827976 
L 211.629922 165.577591 
L 220.257569 166.924327 
z
" clip-path="url(#p00bed4f8d8)" style="fill: #e8e8e8; stroke: #e8e8e8; stroke-width: 1.2; stroke-linecap: round"/>
   </g>
   <g id="patch_14">
    <path d="M 159.558286 187.461236 
Q 157.665562 166.354313 155.906536 146.738343 
" clip-path="url(#p00bed4f8d8)" style="fill: none; stroke: #e8e8e8; stroke-width: 1.2; stroke-linecap: round"/>
    <path d="M 153.135042 155.018973 
L 155.906536 146.738343 
L 160.107067 154.393769 
z
" clip-path="url(#p00bed4f8d8)" style="fill: #e8e8e8; stroke: #e8e8e8; stroke-width: 1.2; stroke-linecap: round"/>
   </g>
   <g id="patch_15">
    <path d="M 161.616445 202.909969 
Q 167.75599 237.520775 173.634079 270.657655 
" clip-path="url(#p00bed4f8d8)" style="fill: none; stroke: #e8e8e8; stroke-width: 1.2; stroke-linecap: round"/>
    <path d="M 175.682988 262.169312 
L 173.634079 270.657655 
L 168.790588 263.391942 
z
" clip-path="url(#p00bed4f8d8)" style="fill: #e8e8e8; stroke: #e8e8e8; stroke-width: 1.2; stroke-linecap: round"/>
   </g>
   <g id="patch_16">
    <path d="M 91.850722 243.126184 
Q 130.232697 260.00355 167.244363 276.278363 
" clip-path="url(#p00bed4f8d8)" style="fill: none; stroke: #e8e8e8; stroke-width: 1.2; stroke-linecap: round"/>
    <path d="M 161.329927 269.854233 
L 167.244363 276.278363 
L 158.512253 276.262097 
z
" clip-path="url(#p00bed4f8d8)" style="fill: #e8e8e8; stroke: #e8e8e8; stroke-width: 1.2; stroke-linecap: round"/>
   </g>
   <g id="patch_17">
    <path d="M 91.692475 236.890895 
Q 174.030476 194.770714 255.035791 153.332271 
" clip-path="url(#p00bed4f8d8)" style="fill: none; stroke: #e8e8e8; stroke-width: 1.2; stroke-linecap: round"/>
    <path d="M 246.319608 153.859685 
L 255.035791 153.332271 
L 249.507565 160.091614 
z
" clip-path="url(#p00bed4f8d8)" style="fill: #e8e8e8; stroke: #e8e8e8; stroke-width: 1.2; stroke-linecap: round"/>
   </g>
   <g id="patch_18">
    <path d="M 91.988787 237.676101 
Q 143.91583 218.289698 194.440485 199.426862 
" clip-path="url(#p00bed4f8d8)" style="fill: none; stroke: #e8e8e8; stroke-width: 1.2; stroke-linecap: round"/>
    <path d="M 185.72161 198.945995 
L 194.440485 199.426862 
L 188.169924 205.503873 
z
" clip-path="url(#p00bed4f8d8)" style="fill: #e8e8e8; stroke: #e8e8e8; stroke-width: 1.2; stroke-linecap: round"/>
   </g>
   <g id="patch_19">
    <path d="M 116.597973 32.098334 
Q 134.512179 81.156554 151.912923 128.808655 
" clip-path="url(#p00bed4f8d8)" style="fill: none; stroke: #e8e8e8; stroke-width: 1.2; stroke-linecap: round"/>
    <path d="M 152.456518 120.093467 
L 151.912923 128.808655 
L 145.881192 122.494527 
z
" clip-path="url(#p00bed4f8d8)" style="fill: #e8e8e8; stroke: #e8e8e8; stroke-width: 1.2; stroke-linecap: round"/>
   </g>
   <g id="patch_20">
    <path d="M 119.628185 29.589445 
Q 188.399387 87.086961 256.022159 143.624308 
" clip-path="url(#p00bed4f8d8)" style="fill: none; stroke: #e8e8e8; stroke-width: 1.2; stroke-linecap: round"/>
    <path d="M 252.129634 135.80777 
L 256.022159 143.624308 
L 247.639677 141.178085 
z
" clip-path="url(#p00bed4f8d8)" style="fill: #e8e8e8; stroke: #e8e8e8; stroke-width: 1.2; stroke-linecap: round"/>
   </g>
   <g id="patch_21">
    <path d="M 120.647234 27.600228 
Q 155.653888 42.022654 189.276468 55.874854 
" clip-path="url(#p00bed4f8d8)" style="fill: none; stroke: #e8e8e8; stroke-width: 1.2; stroke-linecap: round"/>
    <path d="M 183.212883 49.591309 
L 189.276468 55.874854 
L 180.546383 56.06354 
z
" clip-path="url(#p00bed4f8d8)" style="fill: #e8e8e8; stroke: #e8e8e8; stroke-width: 1.2; stroke-linecap: round"/>
   </g>
   <g id="patch_22">
    <path d="M 204.507274 58.683469 
Q 242.468989 55.91819 278.937724 53.261666 
" clip-path="url(#p00bed4f8d8)" style="fill: none; stroke: #e8e8e8; stroke-width: 1.2; stroke-linecap: round"/>
    <path d="M 270.704585 50.352126 
L 278.937724 53.261666 
L 271.213145 57.333628 
z
" clip-path="url(#p00bed4f8d8)" style="fill: #e8e8e8; stroke: #e8e8e8; stroke-width: 1.2; stroke-linecap: round"/>
   </g>
   <g id="patch_23">
    <path d="M 190.658018 56.44404 
Q 155.651364 42.021614 122.028784 28.169414 
" clip-path="url(#p00bed4f8d8)" style="fill: none; stroke: #e8e8e8; stroke-width: 1.2; stroke-linecap: round"/>
    <path d="M 128.092369 34.452959 
L 122.028784 28.169414 
L 130.758869 27.980728 
z
" clip-path="url(#p00bed4f8d8)" style="fill: #e8e8e8; stroke: #e8e8e8; stroke-width: 1.2; stroke-linecap: round"/>
   </g>
   <g id="patch_24">
    <path d="M 168.616273 276.881621 
Q 130.234299 260.004254 93.222632 243.729442 
" clip-path="url(#p00bed4f8d8)" style="fill: none; stroke: #e8e8e8; stroke-width: 1.2; stroke-linecap: round"/>
    <path d="M 99.137069 250.153572 
L 93.222632 243.729442 
L 101.954742 243.745708 
z
" clip-path="url(#p00bed4f8d8)" style="fill: #e8e8e8; stroke: #e8e8e8; stroke-width: 1.2; stroke-linecap: round"/>
   </g>
   <g id="patch_25">
    <path d="M 177.667801 272.448305 
Q 188.937847 238.088144 199.741357 205.150361 
" clip-path="url(#p00bed4f8d8)" style="fill: none; stroke: #e8e8e8; stroke-width: 1.2; stroke-linecap: round"/>
    <path d="M 193.922392 211.661095 
L 199.741357 205.150361 
L 200.573745 213.842722 
z
" clip-path="url(#p00bed4f8d8)" style="fill: #e8e8e8; stroke: #e8e8e8; stroke-width: 1.2; stroke-linecap: round"/>
   </g>
   <g id="patch_26">
    <path d="M 179.182088 286.327622 
Q 196.777033 315.576128 213.600333 343.541909 
" clip-path="url(#p00bed4f8d8)" style="fill: none; stroke: #e8e8e8; stroke-width: 1.2; stroke-linecap: round"/>
    <path d="M 212.475619 334.88252 
L 213.600333 343.541909 
L 206.47732 338.490901 
z
" clip-path="url(#p00bed4f8d8)" style="fill: #e8e8e8; stroke: #e8e8e8; stroke-width: 1.2; stroke-linecap: round"/>
   </g>
   <g id="patch_27">
    <path d="M 201.885818 204.149018 
Q 201.355517 209.763306 200.965984 213.887292 
" clip-path="url(#p00bed4f8d8)" style="fill: none; stroke: #e8e8e8; stroke-width: 1.2; stroke-linecap: round"/>
    <path d="M 205.20277 206.251871 
L 200.965984 213.887292 
L 198.233789 205.593612 
z
" clip-path="url(#p00bed4f8d8)" style="fill: #e8e8e8; stroke: #e8e8e8; stroke-width: 1.2; stroke-linecap: round"/>
   </g>
   <g id="patch_28">
    <path d="M 202.963989 188.565663 
Q 203.402554 178.602949 203.775287 170.135721 
" clip-path="url(#p00bed4f8d8)" style="fill: none; stroke: #e8e8e8; stroke-width: 1.2; stroke-linecap: round"/>
    <path d="M 199.926849 177.974058 
L 203.775287 170.135721 
L 206.920076 178.281905 
z
" clip-path="url(#p00bed4f8d8)" style="fill: #e8e8e8; stroke: #e8e8e8; stroke-width: 1.2; stroke-linecap: round"/>
   </g>
   <g id="patch_29">
    <path d="M 195.842465 198.903447 
Q 143.915422 218.28985 93.390768 237.152687 
" clip-path="url(#p00bed4f8d8)" style="fill: none; stroke: #e8e8e8; stroke-width: 1.2; stroke-linecap: round"/>
    <path d="M 102.109642 237.633553 
L 93.390768 237.152687 
L 99.661329 231.075675 
z
" clip-path="url(#p00bed4f8d8)" style="fill: #e8e8e8; stroke: #e8e8e8; stroke-width: 1.2; stroke-linecap: round"/>
   </g>
   <g id="patch_30">
    <path d="M 202.320873 188.568308 
Q 199.989141 127.791624 197.714798 68.510776 
" clip-path="url(#p00bed4f8d8)" style="fill: none; stroke: #e8e8e8; stroke-width: 1.2; stroke-linecap: round"/>
    <path d="M 194.52407 76.639075 
L 197.714798 68.510776 
L 201.518923 76.370714 
z
" clip-path="url(#p00bed4f8d8)" style="fill: #e8e8e8; stroke: #e8e8e8; stroke-width: 1.2; stroke-linecap: round"/>
   </g>
   <g id="patch_31">
    <path d="M 215.943421 343.979947 
Q 166.124456 188.098981 116.761197 33.643901 
" clip-path="url(#p00bed4f8d8)" style="fill: none; stroke: #e8e8e8; stroke-width: 1.2; stroke-linecap: round"/>
    <path d="M 115.862737 42.329681 
L 116.761197 33.643901 
L 122.530487 40.198693 
z
" clip-path="url(#p00bed4f8d8)" style="fill: #e8e8e8; stroke: #e8e8e8; stroke-width: 1.2; stroke-linecap: round"/>
   </g>
   <g id="patch_32">
    <path d="M 214.374451 344.828745 
Q 196.779506 315.58024 179.956206 287.614458 
" clip-path="url(#p00bed4f8d8)" style="fill: none; stroke: #e8e8e8; stroke-width: 1.2; stroke-linecap: round"/>
    <path d="M 181.08092 296.273847 
L 179.956206 287.614458 
L 187.079219 292.665467 
z
" clip-path="url(#p00bed4f8d8)" style="fill: #e8e8e8; stroke: #e8e8e8; stroke-width: 1.2; stroke-linecap: round"/>
   </g>
   <g id="patch_33">
    <path d="M 205.569859 228.170717 
Q 221.712928 242.963169 236.752341 256.744304 
" clip-path="url(#p00bed4f8d8)" style="fill: none; stroke: #e8e8e8; stroke-width: 1.2; stroke-linecap: round"/>
    <path d="M 233.218703 248.759106 
L 236.752341 256.744304 
L 228.489562 253.920038 
z
" clip-path="url(#p00bed4f8d8)" style="fill: #e8e8e8; stroke: #e8e8e8; stroke-width: 1.2; stroke-linecap: round"/>
   </g>
   <g id="patch_34">
    <path d="M 207.244403 223.597143 
Q 256.583503 226.679245 304.428579 229.668019 
" clip-path="url(#p00bed4f8d8)" style="fill: none; stroke: #e8e8e8; stroke-width: 1.2; stroke-linecap: round"/>
    <path d="M 296.662354 225.676059 
L 304.428579 229.668019 
L 296.22593 232.662441 
z
" clip-path="url(#p00bed4f8d8)" style="fill: #e8e8e8; stroke: #e8e8e8; stroke-width: 1.2; stroke-linecap: round"/>
   </g>
   <g id="patch_35">
    <path d="M 108.142552 370.987246 
Q 195.985435 215.136099 283.093307 60.589012 
" clip-path="url(#p00bed4f8d8)" style="fill: none; stroke: #e8e8e8; stroke-width: 1.2; stroke-linecap: round"/>
    <path d="M 276.116182 65.839701 
L 283.093307 60.589012 
L 282.214256 69.276778 
z
" clip-path="url(#p00bed4f8d8)" style="fill: #e8e8e8; stroke: #e8e8e8; stroke-width: 1.2; stroke-linecap: round"/>
   </g>
   <g id="patch_36">
    <path d="M 106.661774 370.231599 
Q 132.324407 286.439391 157.548678 204.078496 
" clip-path="url(#p00bed4f8d8)" style="fill: none; stroke: #e8e8e8; stroke-width: 1.2; stroke-linecap: round"/>
    <path d="M 151.8594 210.702853 
L 157.548678 204.078496 
L 158.552532 212.752727 
z
" clip-path="url(#p00bed4f8d8)" style="fill: #e8e8e8; stroke: #e8e8e8; stroke-width: 1.2; stroke-linecap: round"/>
   </g>
   <g id="patch_37">
    <path d="M 326.041737 331.999188 
Q 222.147756 181.53781 119.104343 32.30824 
" clip-path="url(#p00bed4f8d8)" style="fill: none; stroke: #e8e8e8; stroke-width: 1.2; stroke-linecap: round"/>
    <path d="M 120.769883 40.880053 
L 119.104343 32.30824 
L 126.53009 36.902614 
z
" clip-path="url(#p00bed4f8d8)" style="fill: #e8e8e8; stroke: #e8e8e8; stroke-width: 1.2; stroke-linecap: round"/>
   </g>
   <g id="patch_38">
    <path d="M 323.225418 339.069256 
Q 274.326101 344.794962 226.913563 350.346578 
" clip-path="url(#p00bed4f8d8)" style="fill: none; stroke: #e8e8e8; stroke-width: 1.2; stroke-linecap: round"/>
    <path d="M 235.266319 352.892451 
L 226.913563 350.346578 
L 234.452239 345.93995 
z
" clip-path="url(#p00bed4f8d8)" style="fill: #e8e8e8; stroke: #e8e8e8; stroke-width: 1.2; stroke-linecap: round"/>
   </g>
   <g id="patch_39">
    <path d="M 379.753467 176.421738 
Q 245.046844 274.85786 111.548849 372.410786 
" clip-path="url(#p00bed4f8d8)" style="fill: none; stroke: #e8e8e8; stroke-width: 1.2; stroke-linecap: round"/>
    <path d="M 120.073066 370.516659 
L 111.548849 372.410786 
L 115.943041 364.864855 
z
" clip-path="url(#p00bed4f8d8)" style="fill: #e8e8e8; stroke: #e8e8e8; stroke-width: 1.2; stroke-linecap: round"/>
   </g>
   <g id="patch_40">
    <path d="M 380.595991 177.543261 
Q 302.002766 261.713387 224.431167 344.789395 
" clip-path="url(#p00bed4f8d8)" style="fill: none; stroke: #e8e8e8; stroke-width: 1.2; stroke-linecap: round"/>
    <path d="M 232.449163 341.33082 
L 224.431167 344.789395 
L 227.33282 336.553473 
z
" clip-path="url(#p00bed4f8d8)" style="fill: #e8e8e8; stroke: #e8e8e8; stroke-width: 1.2; stroke-linecap: round"/>
   </g>
   <g id="patch_41">
    <path d="M 246.387491 211.059692 
Q 276.266295 219.639099 304.706303 227.80537 
" clip-path="url(#p00bed4f8d8)" style="fill: none; stroke: #e8e8e8; stroke-width: 1.2; stroke-linecap: round"/>
    <path d="M 297.982972 222.233402 
L 304.706303 227.80537 
L 296.051056 228.961529 
z
" clip-path="url(#p00bed4f8d8)" style="fill: #e8e8e8; stroke: #e8e8e8; stroke-width: 1.2; stroke-linecap: round"/>
   </g>
   <g id="patch_42">
    <path d="M 242.272575 201.889722 
Q 251.156387 179.201762 259.494402 157.907689 
" clip-path="url(#p00bed4f8d8)" style="fill: none; stroke: #e8e8e8; stroke-width: 1.2; stroke-linecap: round"/>
    <path d="M 253.318462 164.080838 
L 259.494402 157.907689 
L 259.836584 166.633107 
z
" clip-path="url(#p00bed4f8d8)" style="fill: #e8e8e8; stroke: #e8e8e8; stroke-width: 1.2; stroke-linecap: round"/>
   </g>
   <g id="patch_43">
    <path d="M 36.034846 148.994985 
Q 102.93317 211.849788 168.740543 273.679581 
" clip-path="url(#p00bed4f8d8)" style="fill: none; stroke: #e8e8e8; stroke-width: 1.2; stroke-linecap: round"/>
    <path d="M 165.306819 265.650911 
L 168.740543 273.679581 
L 160.513649 270.752432 
z
" clip-path="url(#p00bed4f8d8)" style="fill: #e8e8e8; stroke: #e8e8e8; stroke-width: 1.2; stroke-linecap: round"/>
   </g>
   <g id="patch_44">
    <path d="M 37.194689 146.977712 
Q 115.351774 183.525041 192.152853 219.438282 
" clip-path="url(#p00bed4f8d8)" style="fill: none; stroke: #e8e8e8; stroke-width: 1.2; stroke-linecap: round"/>
    <path d="M 186.388585 212.879074 
L 192.152853 219.438282 
L 183.423456 219.220053 
z
" clip-path="url(#p00bed4f8d8)" style="fill: #e8e8e8; stroke: #e8e8e8; stroke-width: 1.2; stroke-linecap: round"/>
   </g>
   <g id="PathCollection_1">
    <defs>
     <path id="m99de5adaab" d="M 0 9.874209 
C 2.618671 9.874209 5.13044 8.8338 6.98212 6.98212 
C 8.8338 5.13044 9.874209 2.618671 9.874209 0 
C 9.874209 -2.618671 8.8338 -5.13044 6.98212 -6.98212 
C 5.13044 -8.8338 2.618671 -9.874209 0 -9.874209 
C -2.618671 -9.874209 -5.13044 -8.8338 -6.98212 -6.98212 
C -8.8338 -5.13044 -9.874209 -2.618671 -9.874209 0 
C -9.874209 2.618671 -8.8338 5.13044 -6.98212 6.98212 
C -5.13044 8.8338 -2.618671 9.874209 0 9.874209 
z
" style="stroke: #f9a838; stroke-width: 0.5"/>
    </defs>
    <g clip-path="url(#p00bed4f8d8)">
     <use xlink:href="#m99de5adaab" x="287.577988" y="52.632275" style="fill: #f9a838; stroke: #f9a838; stroke-width: 0.5"/>
    </g>
   </g>
   <g id="PathCollection_2">
    <defs>
     <path id="md819a552e7" d="M 0 9.354143 
C 2.480748 9.354143 4.860225 8.368532 6.614378 6.614378 
C 8.368532 4.860225 9.354143 2.480748 9.354143 0 
C 9.354143 -2.480748 8.368532 -4.860225 6.614378 -6.614378 
C 4.860225 -8.368532 2.480748 -9.354143 0 -9.354143 
C -2.480748 -9.354143 -4.860225 -8.368532 -6.614378 -6.614378 
C -8.368532 -4.860225 -9.354143 -2.480748 -9.354143 0 
C -9.354143 2.480748 -8.368532 4.860225 -6.614378 6.614378 
C -4.860225 8.368532 -2.480748 9.354143 0 9.354143 
z
" style="stroke: #f9c273; stroke-width: 0.5"/>
    </defs>
    <g clip-path="url(#p00bed4f8d8)">
     <use xlink:href="#md819a552e7" x="313.074031" y="230.208081" style="fill: #f9c273; stroke: #f9c273; stroke-width: 0.5"/>
    </g>
   </g>
   <g id="PathCollection_3">
    <defs>
     <path id="md83868c684" d="M 0 9.354143 
C 2.480748 9.354143 4.860225 8.368532 6.614378 6.614378 
C 8.368532 4.860225 9.354143 2.480748 9.354143 0 
C 9.354143 -2.480748 8.368532 -4.860225 6.614378 -6.614378 
C 4.860225 -8.368532 2.480748 -9.354143 0 -9.354143 
C -2.480748 -9.354143 -4.860225 -8.368532 -6.614378 -6.614378 
C -8.368532 -4.860225 -9.354143 -2.480748 -9.354143 0 
C -9.354143 2.480748 -8.368532 4.860225 -6.614378 6.614378 
C -4.860225 8.368532 -2.480748 9.354143 0 9.354143 
z
" style="stroke: #f9b250; stroke-width: 0.5"/>
    </defs>
    <g clip-path="url(#p00bed4f8d8)">
     <use xlink:href="#md83868c684" x="155.075316" y="137.468897" style="fill: #f9b250; stroke: #f9b250; stroke-width: 0.5"/>
    </g>
   </g>
   <g id="PathCollection_4">
    <defs>
     <path id="m0fcb6d40ff" d="M 0 9.874209 
C 2.618671 9.874209 5.13044 8.8338 6.98212 6.98212 
C 8.8338 5.13044 9.874209 2.618671 9.874209 0 
C 9.874209 -2.618671 8.8338 -5.13044 6.98212 -6.98212 
C 5.13044 -8.8338 2.618671 -9.874209 0 -9.874209 
C -2.618671 -9.874209 -5.13044 -8.8338 -6.98212 -6.98212 
C -8.8338 -5.13044 -9.874209 -2.618671 -9.874209 0 
C -9.874209 2.618671 -8.8338 5.13044 -6.98212 6.98212 
C -5.13044 8.8338 -2.618671 9.874209 0 9.874209 
z
" style="stroke: #f9bc66; stroke-width: 0.5"/>
    </defs>
    <g clip-path="url(#p00bed4f8d8)">
     <use xlink:href="#m0fcb6d40ff" x="113.947504" y="24.84" style="fill: #f9bc66; stroke: #f9bc66; stroke-width: 0.5"/>
    </g>
   </g>
   <g id="PathCollection_5">
    <defs>
     <path id="m113d5dcc52" d="M 0 10.368221 
C 2.749684 10.368221 5.387119 9.27576 7.331439 7.331439 
C 9.27576 5.387119 10.368221 2.749684 10.368221 0 
C 10.368221 -2.749684 9.27576 -5.387119 7.331439 -7.331439 
C 5.387119 -9.27576 2.749684 -10.368221 0 -10.368221 
C -2.749684 -10.368221 -5.387119 -9.27576 -7.331439 -7.331439 
C -9.27576 -5.387119 -10.368221 -2.749684 -10.368221 0 
C -10.368221 2.749684 -9.27576 5.387119 -7.331439 7.331439 
C -5.387119 9.27576 -2.749684 10.368221 0 10.368221 
z
" style="stroke: #f9a22b; stroke-width: 0.5"/>
    </defs>
    <g clip-path="url(#p00bed4f8d8)">
     <use xlink:href="#m113d5dcc52" x="175.256047" y="279.80127" style="fill: #f9a22b; stroke: #f9a22b; stroke-width: 0.5"/>
    </g>
   </g>
   <g id="PathCollection_6">
    <defs>
     <path id="ma1039120e7" d="M 0 9.354143 
C 2.480748 9.354143 4.860225 8.368532 6.614378 6.614378 
C 8.368532 4.860225 9.354143 2.480748 9.354143 0 
C 9.354143 -2.480748 8.368532 -4.860225 6.614378 -6.614378 
C 4.860225 -8.368532 2.480748 -9.354143 0 -9.354143 
C -2.480748 -9.354143 -4.860225 -8.368532 -6.614378 -6.614378 
C -8.368532 -4.860225 -9.354143 -2.480748 -9.354143 0 
C -9.354143 2.480748 -8.368532 4.860225 -6.614378 6.614378 
C -4.860225 8.368532 -2.480748 9.354143 0 9.354143 
z
" style="stroke: #f9bf6e; stroke-width: 0.5"/>
    </defs>
    <g clip-path="url(#p00bed4f8d8)">
     <use xlink:href="#ma1039120e7" x="200.091043" y="223.150289" style="fill: #f9bf6e; stroke: #f9bf6e; stroke-width: 0.5"/>
    </g>
   </g>
   <g id="PathCollection_7">
    <defs>
     <path id="m8c68c4fb32" d="M 0 8.215838 
C 2.178866 8.215838 4.268784 7.350166 5.809475 5.809475 
C 7.350166 4.268784 8.215838 2.178866 8.215838 0 
C 8.215838 -2.178866 7.350166 -4.268784 5.809475 -5.809475 
C 4.268784 -7.350166 2.178866 -8.215838 0 -8.215838 
C -2.178866 -8.215838 -4.268784 -7.350166 -5.809475 -5.809475 
C -7.350166 -4.268784 -8.215838 -2.178866 -8.215838 0 
C -8.215838 2.178866 -7.350166 4.268784 -5.809475 5.809475 
C -4.268784 7.350166 -2.178866 8.215838 0 8.215838 
z
" style="stroke: #f9d7a4; stroke-width: 0.5"/>
    </defs>
    <g clip-path="url(#p00bed4f8d8)">
     <use xlink:href="#m8c68c4fb32" x="104.392839" y="377.64" style="fill: #f9d7a4; stroke: #f9d7a4; stroke-width: 0.5"/>
    </g>
   </g>
   <g id="PathCollection_8">
    <defs>
     <path id="m08bc4a160c" d="M 0 8.803408 
C 2.334691 8.803408 4.574074 7.875826 6.22495 6.22495 
C 7.875826 4.574074 8.803408 2.334691 8.803408 0 
C 8.803408 -2.334691 7.875826 -4.574074 6.22495 -6.22495 
C 4.574074 -7.875826 2.334691 -8.803408 0 -8.803408 
C -2.334691 -8.803408 -4.574074 -7.875826 -6.22495 -6.22495 
C -7.875826 -4.574074 -8.803408 -2.334691 -8.803408 0 
C -8.803408 2.334691 -7.875826 4.574074 -6.22495 6.22495 
C -4.574074 7.875826 -2.334691 8.803408 0 8.803408 
z
" style="stroke: #f9d195; stroke-width: 0.5"/>
    </defs>
    <g clip-path="url(#p00bed4f8d8)">
     <use xlink:href="#m08bc4a160c" x="160.25578" y="195.239418" style="fill: #f9d195; stroke: #f9d195; stroke-width: 0.5"/>
    </g>
   </g>
   <g id="PathCollection_9">
    <defs>
     <path id="m0ba2c39f3f" d="M 0 10.839742 
C 2.874733 10.839742 5.632112 9.697598 7.664855 7.664855 
C 9.697598 5.632112 10.839742 2.874733 10.839742 0 
C 10.839742 -2.874733 9.697598 -5.632112 7.664855 -7.664855 
C 5.632112 -9.697598 2.874733 -10.839742 0 -10.839742 
C -2.874733 -10.839742 -5.632112 -9.697598 -7.664855 -7.664855 
C -9.697598 -5.632112 -10.839742 -2.874733 -10.839742 0 
C -10.839742 2.874733 -9.697598 5.632112 -7.664855 7.664855 
C -5.632112 9.697598 -2.874733 10.839742 0 10.839742 
z
" style="stroke: #f9a532; stroke-width: 0.5"/>
    </defs>
    <g clip-path="url(#p00bed4f8d8)">
     <use xlink:href="#m0ba2c39f3f" x="262.851511" y="149.334122" style="fill: #f9a532; stroke: #f9a532; stroke-width: 0.5"/>
    </g>
   </g>
   <g id="PathCollection_10">
    <defs>
     <path id="mf38a289995" d="M 0 9.354143 
C 2.480748 9.354143 4.860225 8.368532 6.614378 6.614378 
C 8.368532 4.860225 9.354143 2.480748 9.354143 0 
C 9.354143 -2.480748 8.368532 -4.860225 6.614378 -6.614378 
C 4.860225 -8.368532 2.480748 -9.354143 0 -9.354143 
C -2.480748 -9.354143 -4.860225 -8.368532 -6.614378 -6.614378 
C -8.368532 -4.860225 -9.354143 -2.480748 -9.354143 0 
C -9.354143 2.480748 -8.368532 4.860225 -6.614378 6.614378 
C -4.860225 8.368532 -2.480748 9.354143 0 9.354143 
z
" style="stroke: #f9b85d; stroke-width: 0.5"/>
    </defs>
    <g clip-path="url(#p00bed4f8d8)">
     <use xlink:href="#mf38a289995" x="204.184744" y="160.834235" style="fill: #f9b85d; stroke: #f9b85d; stroke-width: 0.5"/>
    </g>
   </g>
   <g id="PathCollection_11">
    <defs>
     <path id="m379aa74398" d="M 0 7.582875 
C 2.011002 7.582875 3.939909 6.783896 5.361903 5.361903 
C 6.783896 3.939909 7.582875 2.011002 7.582875 0 
C 7.582875 -2.011002 6.783896 -3.939909 5.361903 -5.361903 
C 3.939909 -6.783896 2.011002 -7.582875 0 -7.582875 
C -2.011002 -7.582875 -3.939909 -6.783896 -5.361903 -5.361903 
C -6.783896 -3.939909 -7.582875 -2.011002 -7.582875 0 
C -7.582875 2.011002 -6.783896 3.939909 -5.361903 5.361903 
C -3.939909 6.783896 -2.011002 7.582875 0 7.582875 
z
" style="stroke: #f9dfb6; stroke-width: 0.5"/>
    </defs>
    <g clip-path="url(#p00bed4f8d8)">
     <use xlink:href="#m379aa74398" x="330.34778" y="338.235287" style="fill: #f9dfb6; stroke: #f9dfb6; stroke-width: 0.5"/>
    </g>
   </g>
   <g id="PathCollection_12">
    <g clip-path="url(#p00bed4f8d8)">
     <use xlink:href="#m379aa74398" x="385.702159" y="172.074763" style="fill: #f9dfb6; stroke: #f9dfb6; stroke-width: 0.5"/>
    </g>
   </g>
   <g id="PathCollection_13">
    <defs>
     <path id="m330124a1a6" d="M 0 9.874209 
C 2.618671 9.874209 5.13044 8.8338 6.98212 6.98212 
C 8.8338 5.13044 9.874209 2.618671 9.874209 0 
C 9.874209 -2.618671 8.8338 -5.13044 6.98212 -6.98212 
C 5.13044 -8.8338 2.618671 -9.874209 0 -9.874209 
C -2.618671 -9.874209 -5.13044 -8.8338 -6.98212 -6.98212 
C -8.8338 -5.13044 -9.874209 -2.618671 -9.874209 0 
C -9.874209 2.618671 -8.8338 5.13044 -6.98212 6.98212 
C -5.13044 8.8338 -2.618671 9.874209 0 9.874209 
z
" style="stroke: #f9b353; stroke-width: 0.5"/>
    </defs>
    <g clip-path="url(#p00bed4f8d8)">
     <use xlink:href="#m330124a1a6" x="85.210948" y="240.206534" style="fill: #f9b353; stroke: #f9b353; stroke-width: 0.5"/>
    </g>
   </g>
   <g id="PathCollection_14">
    <g clip-path="url(#p00bed4f8d8)">
     <use xlink:href="#m379aa74398" x="239.460739" y="209.070743" style="fill: #f9dfb6; stroke: #f9dfb6; stroke-width: 0.5"/>
    </g>
   </g>
   <g id="PathCollection_15">
    <defs>
     <path id="m65f67c1e32" d="M 0 10.368221 
C 2.749684 10.368221 5.387119 9.27576 7.331439 7.331439 
C 9.27576 5.387119 10.368221 2.749684 10.368221 0 
C 10.368221 -2.749684 9.27576 -5.387119 7.331439 -7.331439 
C 5.387119 -9.27576 2.749684 -10.368221 0 -10.368221 
C -2.749684 -10.368221 -5.387119 -9.27576 -7.331439 -7.331439 
C -9.27576 -5.387119 -10.368221 -2.749684 -10.368221 0 
C -10.368221 2.749684 -9.27576 5.387119 -7.331439 7.331439 
C -5.387119 9.27576 -2.749684 10.368221 0 10.368221 
z
" style="stroke: #f9a533; stroke-width: 0.5"/>
    </defs>
    <g clip-path="url(#p00bed4f8d8)">
     <use xlink:href="#m65f67c1e32" x="202.620305" y="196.373014" style="fill: #f9a533; stroke: #f9a533; stroke-width: 0.5"/>
    </g>
   </g>
   <g id="PathCollection_16">
    <g clip-path="url(#p00bed4f8d8)">
     <use xlink:href="#m379aa74398" x="30.61125" y="143.899206" style="fill: #f9dfb6; stroke: #f9dfb6; stroke-width: 0.5"/>
    </g>
   </g>
   <g id="PathCollection_17">
    <defs>
     <path id="mc67c3073be" d="M 0 9.354143 
C 2.480748 9.354143 4.860225 8.368532 6.614378 6.614378 
C 8.368532 4.860225 9.354143 2.480748 9.354143 0 
C 9.354143 -2.480748 8.368532 -4.860225 6.614378 -6.614378 
C 4.860225 -8.368532 2.480748 -9.354143 0 -9.354143 
C -2.480748 -9.354143 -4.860225 -8.368532 -6.614378 -6.614378 
C -8.368532 -4.860225 -9.354143 -2.480748 -9.354143 0 
C -9.354143 2.480748 -8.368532 4.860225 -6.614378 6.614378 
C -4.860225 8.368532 -2.480748 9.354143 0 9.354143 
z
" style="stroke: #f9c375; stroke-width: 0.5"/>
    </defs>
    <g clip-path="url(#p00bed4f8d8)">
     <use xlink:href="#mc67c3073be" x="218.300491" y="351.355097" style="fill: #f9c375; stroke: #f9c375; stroke-width: 0.5"/>
    </g>
   </g>
   <g id="PathCollection_18">
    <defs>
     <path id="m7a8789e5ad" d="M 0 9.354143 
C 2.480748 9.354143 4.860225 8.368532 6.614378 6.614378 
C 8.368532 4.860225 9.354143 2.480748 9.354143 0 
C 9.354143 -2.480748 8.368532 -4.860225 6.614378 -6.614378 
C 4.860225 -8.368532 2.480748 -9.354143 0 -9.354143 
C -2.480748 -9.354143 -4.860225 -8.368532 -6.614378 -6.614378 
C -8.368532 -4.860225 -9.354143 -2.480748 -9.354143 0 
C -9.354143 2.480748 -8.368532 4.860225 -6.614378 6.614378 
C -4.860225 8.368532 -2.480748 9.354143 0 9.354143 
z
" style="stroke: #f9c57c; stroke-width: 0.5"/>
    </defs>
    <g clip-path="url(#p00bed4f8d8)">
     <use xlink:href="#m7a8789e5ad" x="197.357748" y="59.204268" style="fill: #f9c57c; stroke: #f9c57c; stroke-width: 0.5"/>
    </g>
   </g>
   <g id="PathCollection_19">
    <defs>
     <path id="m1f1970a707" d="M 0 -6.892024 
L -1.547356 -2.129753 
L -6.554705 -2.129753 
L -2.503674 0.813493 
L -4.05103 5.575765 
L -0 2.632519 
L 4.05103 5.575765 
L 2.503674 0.813493 
L 6.554705 -2.129753 
L 1.547356 -2.129753 
z
" style="stroke: #f9dfb6; stroke-width: 0.8"/>
    </defs>
    <g clip-path="url(#p00bed4f8d8)">
     <use xlink:href="#m1f1970a707" x="243.335042" y="262.77626" style="fill: #f9dfb6; stroke: #f9dfb6; stroke-width: 0.8"/>
    </g>
   </g>
   <g id="text_1">
    <!-- De훾ek 훾arovnik -->
    <g transform="translate(252.959628 50.464602) scale(0.09 -0.09)">
     <defs>
      <path id="DejaVuSans-44" d="M 1259 4147 
L 1259 519 
L 2022 519 
Q 2988 519 3436 956 
Q 3884 1394 3884 2338 
Q 3884 3275 3436 3711 
Q 2988 4147 2022 4147 
L 1259 4147 
z
M 628 4666 
L 1925 4666 
Q 3281 4666 3915 4102 
Q 4550 3538 4550 2338 
Q 4550 1131 3912 565 
Q 3275 0 1925 0 
L 628 0 
L 628 4666 
z
" transform="scale(0.015625)"/>
      <path id="DejaVuSans-65" d="M 3597 1894 
L 3597 1613 
L 953 1613 
Q 991 1019 1311 708 
Q 1631 397 2203 397 
Q 2534 397 2845 478 
Q 3156 559 3463 722 
L 3463 178 
Q 3153 47 2828 -22 
Q 2503 -91 2169 -91 
Q 1331 -91 842 396 
Q 353 884 353 1716 
Q 353 2575 817 3079 
Q 1281 3584 2069 3584 
Q 2775 3584 3186 3129 
Q 3597 2675 3597 1894 
z
M 3022 2063 
Q 3016 2534 2758 2815 
Q 2500 3097 2075 3097 
Q 1594 3097 1305 2825 
Q 1016 2553 972 2059 
L 3022 2063 
z
" transform="scale(0.015625)"/>
      <path id="DejaVuSans-10d" d="M 3122 3366 
L 3122 2828 
Q 2878 2963 2633 3030 
Q 2388 3097 2138 3097 
Q 1578 3097 1268 2742 
Q 959 2388 959 1747 
Q 959 1106 1268 751 
Q 1578 397 2138 397 
Q 2388 397 2633 464 
Q 2878 531 3122 666 
L 3122 134 
Q 2881 22 2623 -34 
Q 2366 -91 2075 -91 
Q 1284 -91 818 406 
Q 353 903 353 1747 
Q 353 2603 823 3093 
Q 1294 3584 2113 3584 
Q 2378 3584 2631 3529 
Q 2884 3475 3122 3366 
z
M 1801 3944 
L 1035 5119 
L 1470 5119 
L 2032 4353 
L 2595 5119 
L 3029 5119 
L 2263 3944 
L 1801 3944 
z
" transform="scale(0.015625)"/>
      <path id="DejaVuSans-6b" d="M 581 4863 
L 1159 4863 
L 1159 1991 
L 2875 3500 
L 3609 3500 
L 1753 1863 
L 3688 0 
L 2938 0 
L 1159 1709 
L 1159 0 
L 581 0 
L 581 4863 
z
" transform="scale(0.015625)"/>
      <path id="DejaVuSans-20" transform="scale(0.015625)"/>
      <path id="DejaVuSans-61" d="M 2194 1759 
Q 1497 1759 1228 1600 
Q 959 1441 959 1056 
Q 959 750 1161 570 
Q 1363 391 1709 391 
Q 2188 391 2477 730 
Q 2766 1069 2766 1631 
L 2766 1759 
L 2194 1759 
z
M 3341 1997 
L 3341 0 
L 2766 0 
L 2766 531 
Q 2569 213 2275 61 
Q 1981 -91 1556 -91 
Q 1019 -91 701 211 
Q 384 513 384 1019 
Q 384 1609 779 1909 
Q 1175 2209 1959 2209 
L 2766 2209 
L 2766 2266 
Q 2766 2663 2505 2880 
Q 2244 3097 1772 3097 
Q 1472 3097 1187 3025 
Q 903 2953 641 2809 
L 641 3341 
Q 956 3463 1253 3523 
Q 1550 3584 1831 3584 
Q 2591 3584 2966 3190 
Q 3341 2797 3341 1997 
z
" transform="scale(0.015625)"/>
      <path id="DejaVuSans-72" d="M 2631 2963 
Q 2534 3019 2420 3045 
Q 2306 3072 2169 3072 
Q 1681 3072 1420 2755 
Q 1159 2438 1159 1844 
L 1159 0 
L 581 0 
L 581 3500 
L 1159 3500 
L 1159 2956 
Q 1341 3275 1631 3429 
Q 1922 3584 2338 3584 
Q 2397 3584 2469 3576 
Q 2541 3569 2628 3553 
L 2631 2963 
z
" transform="scale(0.015625)"/>
      <path id="DejaVuSans-6f" d="M 1959 3097 
Q 1497 3097 1228 2736 
Q 959 2375 959 1747 
Q 959 1119 1226 758 
Q 1494 397 1959 397 
Q 2419 397 2687 759 
Q 2956 1122 2956 1747 
Q 2956 2369 2687 2733 
Q 2419 3097 1959 3097 
z
M 1959 3584 
Q 2709 3584 3137 3096 
Q 3566 2609 3566 1747 
Q 3566 888 3137 398 
Q 2709 -91 1959 -91 
Q 1206 -91 779 398 
Q 353 888 353 1747 
Q 353 2609 779 3096 
Q 1206 3584 1959 3584 
z
" transform="scale(0.015625)"/>
      <path id="DejaVuSans-76" d="M 191 3500 
L 800 3500 
L 1894 563 
L 2988 3500 
L 3597 3500 
L 2284 0 
L 1503 0 
L 191 3500 
z
" transform="scale(0.015625)"/>
      <path id="DejaVuSans-6e" d="M 3513 2113 
L 3513 0 
L 2938 0 
L 2938 2094 
Q 2938 2591 2744 2837 
Q 2550 3084 2163 3084 
Q 1697 3084 1428 2787 
Q 1159 2491 1159 1978 
L 1159 0 
L 581 0 
L 581 3500 
L 1159 3500 
L 1159 2956 
Q 1366 3272 1645 3428 
Q 1925 3584 2291 3584 
Q 2894 3584 3203 3211 
Q 3513 2838 3513 2113 
z
" transform="scale(0.015625)"/>
      <path id="DejaVuSans-69" d="M 603 3500 
L 1178 3500 
L 1178 0 
L 603 0 
L 603 3500 
z
M 603 4863 
L 1178 4863 
L 1178 4134 
L 603 4134 
L 603 4863 
z
" transform="scale(0.015625)"/>
     </defs>
     <use xlink:href="#DejaVuSans-44"/>
     <use xlink:href="#DejaVuSans-65" transform="translate(77.001953 0)"/>
     <use xlink:href="#DejaVuSans-10d" transform="translate(138.525391 0)"/>
     <use xlink:href="#DejaVuSans-65" transform="translate(193.505859 0)"/>
     <use xlink:href="#DejaVuSans-6b" transform="translate(255.029297 0)"/>
     <use xlink:href="#DejaVuSans-20" transform="translate(312.939453 0)"/>
     <use xlink:href="#DejaVuSans-10d" transform="translate(344.726562 0)"/>
     <use xlink:href="#DejaVuSans-61" transform="translate(399.707031 0)"/>
     <use xlink:href="#DejaVuSans-72" transform="translate(460.986328 0)"/>
     <use xlink:href="#DejaVuSans-6f" transform="translate(499.849609 0)"/>
     <use xlink:href="#DejaVuSans-76" transform="translate(561.03125 0)"/>
     <use xlink:href="#DejaVuSans-6e" transform="translate(620.210938 0)"/>
     <use xlink:href="#DejaVuSans-69" transform="translate(683.589844 0)"/>
     <use xlink:href="#DejaVuSans-6b" transform="translate(711.373047 0)"/>
    </g>
   </g>
   <g id="text_2">
    <!-- Pametna 훾arovnica -->
    <g transform="translate(270.118016 228.040408) scale(0.09 -0.09)">
     <defs>
      <path id="DejaVuSans-50" d="M 1259 4147 
L 1259 2394 
L 2053 2394 
Q 2494 2394 2734 2622 
Q 2975 2850 2975 3272 
Q 2975 3691 2734 3919 
Q 2494 4147 2053 4147 
L 1259 4147 
z
M 628 4666 
L 2053 4666 
Q 2838 4666 3239 4311 
Q 3641 3956 3641 3272 
Q 3641 2581 3239 2228 
Q 2838 1875 2053 1875 
L 1259 1875 
L 1259 0 
L 628 0 
L 628 4666 
z
" transform="scale(0.015625)"/>
      <path id="DejaVuSans-6d" d="M 3328 2828 
Q 3544 3216 3844 3400 
Q 4144 3584 4550 3584 
Q 5097 3584 5394 3201 
Q 5691 2819 5691 2113 
L 5691 0 
L 5113 0 
L 5113 2094 
Q 5113 2597 4934 2840 
Q 4756 3084 4391 3084 
Q 3944 3084 3684 2787 
Q 3425 2491 3425 1978 
L 3425 0 
L 2847 0 
L 2847 2094 
Q 2847 2600 2669 2842 
Q 2491 3084 2119 3084 
Q 1678 3084 1418 2786 
Q 1159 2488 1159 1978 
L 1159 0 
L 581 0 
L 581 3500 
L 1159 3500 
L 1159 2956 
Q 1356 3278 1631 3431 
Q 1906 3584 2284 3584 
Q 2666 3584 2933 3390 
Q 3200 3197 3328 2828 
z
" transform="scale(0.015625)"/>
      <path id="DejaVuSans-74" d="M 1172 4494 
L 1172 3500 
L 2356 3500 
L 2356 3053 
L 1172 3053 
L 1172 1153 
Q 1172 725 1289 603 
Q 1406 481 1766 481 
L 2356 481 
L 2356 0 
L 1766 0 
Q 1100 0 847 248 
Q 594 497 594 1153 
L 594 3053 
L 172 3053 
L 172 3500 
L 594 3500 
L 594 4494 
L 1172 4494 
z
" transform="scale(0.015625)"/>
      <path id="DejaVuSans-63" d="M 3122 3366 
L 3122 2828 
Q 2878 2963 2633 3030 
Q 2388 3097 2138 3097 
Q 1578 3097 1268 2742 
Q 959 2388 959 1747 
Q 959 1106 1268 751 
Q 1578 397 2138 397 
Q 2388 397 2633 464 
Q 2878 531 3122 666 
L 3122 134 
Q 2881 22 2623 -34 
Q 2366 -91 2075 -91 
Q 1284 -91 818 406 
Q 353 903 353 1747 
Q 353 2603 823 3093 
Q 1294 3584 2113 3584 
Q 2378 3584 2631 3529 
Q 2884 3475 3122 3366 
z
" transform="scale(0.015625)"/>
     </defs>
     <use xlink:href="#DejaVuSans-50"/>
     <use xlink:href="#DejaVuSans-61" transform="translate(55.802734 0)"/>
     <use xlink:href="#DejaVuSans-6d" transform="translate(117.082031 0)"/>
     <use xlink:href="#DejaVuSans-65" transform="translate(214.494141 0)"/>
     <use xlink:href="#DejaVuSans-74" transform="translate(276.017578 0)"/>
     <use xlink:href="#DejaVuSans-6e" transform="translate(315.226562 0)"/>
     <use xlink:href="#DejaVuSans-61" transform="translate(378.605469 0)"/>
     <use xlink:href="#DejaVuSans-20" transform="translate(439.884766 0)"/>
     <use xlink:href="#DejaVuSans-10d" transform="translate(471.671875 0)"/>
     <use xlink:href="#DejaVuSans-61" transform="translate(526.652344 0)"/>
     <use xlink:href="#DejaVuSans-72" transform="translate(587.931641 0)"/>
     <use xlink:href="#DejaVuSans-6f" transform="translate(626.794922 0)"/>
     <use xlink:href="#DejaVuSans-76" transform="translate(687.976562 0)"/>
     <use xlink:href="#DejaVuSans-6e" transform="translate(747.15625 0)"/>
     <use xlink:href="#DejaVuSans-69" transform="translate(810.535156 0)"/>
     <use xlink:href="#DejaVuSans-63" transform="translate(838.318359 0)"/>
     <use xlink:href="#DejaVuSans-61" transform="translate(893.298828 0)"/>
    </g>
   </g>
   <g id="text_3">
    <!-- Modri ravnatelj -->
    <g transform="translate(121.138285 135.301223) scale(0.09 -0.09)">
     <defs>
      <path id="DejaVuSans-4d" d="M 628 4666 
L 1569 4666 
L 2759 1491 
L 3956 4666 
L 4897 4666 
L 4897 0 
L 4281 0 
L 4281 4097 
L 3078 897 
L 2444 897 
L 1241 4097 
L 1241 0 
L 628 0 
L 628 4666 
z
" transform="scale(0.015625)"/>
      <path id="DejaVuSans-64" d="M 2906 2969 
L 2906 4863 
L 3481 4863 
L 3481 0 
L 2906 0 
L 2906 525 
Q 2725 213 2448 61 
Q 2172 -91 1784 -91 
Q 1150 -91 751 415 
Q 353 922 353 1747 
Q 353 2572 751 3078 
Q 1150 3584 1784 3584 
Q 2172 3584 2448 3432 
Q 2725 3281 2906 2969 
z
M 947 1747 
Q 947 1113 1208 752 
Q 1469 391 1925 391 
Q 2381 391 2643 752 
Q 2906 1113 2906 1747 
Q 2906 2381 2643 2742 
Q 2381 3103 1925 3103 
Q 1469 3103 1208 2742 
Q 947 2381 947 1747 
z
" transform="scale(0.015625)"/>
      <path id="DejaVuSans-6c" d="M 603 4863 
L 1178 4863 
L 1178 0 
L 603 0 
L 603 4863 
z
" transform="scale(0.015625)"/>
      <path id="DejaVuSans-6a" d="M 603 3500 
L 1178 3500 
L 1178 -63 
Q 1178 -731 923 -1031 
Q 669 -1331 103 -1331 
L -116 -1331 
L -116 -844 
L 38 -844 
Q 366 -844 484 -692 
Q 603 -541 603 -63 
L 603 3500 
z
M 603 4863 
L 1178 4863 
L 1178 4134 
L 603 4134 
L 603 4863 
z
" transform="scale(0.015625)"/>
     </defs>
     <use xlink:href="#DejaVuSans-4d"/>
     <use xlink:href="#DejaVuSans-6f" transform="translate(86.279297 0)"/>
     <use xlink:href="#DejaVuSans-64" transform="translate(147.460938 0)"/>
     <use xlink:href="#DejaVuSans-72" transform="translate(210.9375 0)"/>
     <use xlink:href="#DejaVuSans-69" transform="translate(252.050781 0)"/>
     <use xlink:href="#DejaVuSans-20" transform="translate(279.833984 0)"/>
     <use xlink:href="#DejaVuSans-72" transform="translate(311.621094 0)"/>
     <use xlink:href="#DejaVuSans-61" transform="translate(352.734375 0)"/>
     <use xlink:href="#DejaVuSans-76" transform="translate(414.013672 0)"/>
     <use xlink:href="#DejaVuSans-6e" transform="translate(473.193359 0)"/>
     <use xlink:href="#DejaVuSans-61" transform="translate(536.572266 0)"/>
     <use xlink:href="#DejaVuSans-74" transform="translate(597.851562 0)"/>
     <use xlink:href="#DejaVuSans-65" transform="translate(637.060547 0)"/>
     <use xlink:href="#DejaVuSans-6c" transform="translate(698.583984 0)"/>
     <use xlink:href="#DejaVuSans-6a" transform="translate(726.367188 0)"/>
    </g>
   </g>
   <g id="text_4">
    <!-- Mladi pilot -->
    <g transform="translate(90.645238 22.672327) scale(0.09 -0.09)">
     <defs>
      <path id="DejaVuSans-70" d="M 1159 525 
L 1159 -1331 
L 581 -1331 
L 581 3500 
L 1159 3500 
L 1159 2969 
Q 1341 3281 1617 3432 
Q 1894 3584 2278 3584 
Q 2916 3584 3314 3078 
Q 3713 2572 3713 1747 
Q 3713 922 3314 415 
Q 2916 -91 2278 -91 
Q 1894 -91 1617 61 
Q 1341 213 1159 525 
z
M 3116 1747 
Q 3116 2381 2855 2742 
Q 2594 3103 2138 3103 
Q 1681 3103 1420 2742 
Q 1159 2381 1159 1747 
Q 1159 1113 1420 752 
Q 1681 391 2138 391 
Q 2594 391 2855 752 
Q 3116 1113 3116 1747 
z
" transform="scale(0.015625)"/>
     </defs>
     <use xlink:href="#DejaVuSans-4d"/>
     <use xlink:href="#DejaVuSans-6c" transform="translate(86.279297 0)"/>
     <use xlink:href="#DejaVuSans-61" transform="translate(114.0625 0)"/>
     <use xlink:href="#DejaVuSans-64" transform="translate(175.341797 0)"/>
     <use xlink:href="#DejaVuSans-69" transform="translate(238.818359 0)"/>
     <use xlink:href="#DejaVuSans-20" transform="translate(266.601562 0)"/>
     <use xlink:href="#DejaVuSans-70" transform="translate(298.388672 0)"/>
     <use xlink:href="#DejaVuSans-69" transform="translate(361.865234 0)"/>
     <use xlink:href="#DejaVuSans-6c" transform="translate(389.648438 0)"/>
     <use xlink:href="#DejaVuSans-6f" transform="translate(417.431641 0)"/>
     <use xlink:href="#DejaVuSans-74" transform="translate(478.613281 0)"/>
    </g>
   </g>
   <g id="text_5">
    <!-- Tihotapec -->
    <g transform="translate(153.170891 277.633597) scale(0.09 -0.09)">
     <defs>
      <path id="DejaVuSans-54" d="M -19 4666 
L 3928 4666 
L 3928 4134 
L 2272 4134 
L 2272 0 
L 1638 0 
L 1638 4134 
L -19 4134 
L -19 4666 
z
" transform="scale(0.015625)"/>
      <path id="DejaVuSans-68" d="M 3513 2113 
L 3513 0 
L 2938 0 
L 2938 2094 
Q 2938 2591 2744 2837 
Q 2550 3084 2163 3084 
Q 1697 3084 1428 2787 
Q 1159 2491 1159 1978 
L 1159 0 
L 581 0 
L 581 4863 
L 1159 4863 
L 1159 2956 
Q 1366 3272 1645 3428 
Q 1925 3584 2291 3584 
Q 2894 3584 3203 3211 
Q 3513 2838 3513 2113 
z
" transform="scale(0.015625)"/>
     </defs>
     <use xlink:href="#DejaVuSans-54"/>
     <use xlink:href="#DejaVuSans-69" transform="translate(57.958984 0)"/>
     <use xlink:href="#DejaVuSans-68" transform="translate(85.742188 0)"/>
     <use xlink:href="#DejaVuSans-6f" transform="translate(149.121094 0)"/>
     <use xlink:href="#DejaVuSans-74" transform="translate(210.302734 0)"/>
     <use xlink:href="#DejaVuSans-61" transform="translate(249.511719 0)"/>
     <use xlink:href="#DejaVuSans-70" transform="translate(310.791016 0)"/>
     <use xlink:href="#DejaVuSans-65" transform="translate(374.267578 0)"/>
     <use xlink:href="#DejaVuSans-63" transform="translate(435.791016 0)"/>
    </g>
   </g>
   <g id="text_6">
    <!-- Zeleni mojster -->
    <g transform="translate(167.574324 220.982615) scale(0.09 -0.09)">
     <defs>
      <path id="DejaVuSans-5a" d="M 359 4666 
L 4025 4666 
L 4025 4184 
L 1075 531 
L 4097 531 
L 4097 0 
L 288 0 
L 288 481 
L 3238 4134 
L 359 4134 
L 359 4666 
z
" transform="scale(0.015625)"/>
      <path id="DejaVuSans-73" d="M 2834 3397 
L 2834 2853 
Q 2591 2978 2328 3040 
Q 2066 3103 1784 3103 
Q 1356 3103 1142 2972 
Q 928 2841 928 2578 
Q 928 2378 1081 2264 
Q 1234 2150 1697 2047 
L 1894 2003 
Q 2506 1872 2764 1633 
Q 3022 1394 3022 966 
Q 3022 478 2636 193 
Q 2250 -91 1575 -91 
Q 1294 -91 989 -36 
Q 684 19 347 128 
L 347 722 
Q 666 556 975 473 
Q 1284 391 1588 391 
Q 1994 391 2212 530 
Q 2431 669 2431 922 
Q 2431 1156 2273 1281 
Q 2116 1406 1581 1522 
L 1381 1569 
Q 847 1681 609 1914 
Q 372 2147 372 2553 
Q 372 3047 722 3315 
Q 1072 3584 1716 3584 
Q 2034 3584 2315 3537 
Q 2597 3491 2834 3397 
z
" transform="scale(0.015625)"/>
     </defs>
     <use xlink:href="#DejaVuSans-5a"/>
     <use xlink:href="#DejaVuSans-65" transform="translate(68.505859 0)"/>
     <use xlink:href="#DejaVuSans-6c" transform="translate(130.029297 0)"/>
     <use xlink:href="#DejaVuSans-65" transform="translate(157.8125 0)"/>
     <use xlink:href="#DejaVuSans-6e" transform="translate(219.335938 0)"/>
     <use xlink:href="#DejaVuSans-69" transform="translate(282.714844 0)"/>
     <use xlink:href="#DejaVuSans-20" transform="translate(310.498047 0)"/>
     <use xlink:href="#DejaVuSans-6d" transform="translate(342.285156 0)"/>
     <use xlink:href="#DejaVuSans-6f" transform="translate(439.697266 0)"/>
     <use xlink:href="#DejaVuSans-6a" transform="translate(500.878906 0)"/>
     <use xlink:href="#DejaVuSans-73" transform="translate(528.662109 0)"/>
     <use xlink:href="#DejaVuSans-74" transform="translate(580.761719 0)"/>
     <use xlink:href="#DejaVuSans-65" transform="translate(619.970703 0)"/>
     <use xlink:href="#DejaVuSans-72" transform="translate(681.494141 0)"/>
    </g>
   </g>
   <g id="text_7">
    <!-- Nosilec prstana -->
    <g transform="translate(69.572683 375.472327) scale(0.09 -0.09)">
     <defs>
      <path id="DejaVuSans-4e" d="M 628 4666 
L 1478 4666 
L 3547 763 
L 3547 4666 
L 4159 4666 
L 4159 0 
L 3309 0 
L 1241 3903 
L 1241 0 
L 628 0 
L 628 4666 
z
" transform="scale(0.015625)"/>
     </defs>
     <use xlink:href="#DejaVuSans-4e"/>
     <use xlink:href="#DejaVuSans-6f" transform="translate(74.804688 0)"/>
     <use xlink:href="#DejaVuSans-73" transform="translate(135.986328 0)"/>
     <use xlink:href="#DejaVuSans-69" transform="translate(188.085938 0)"/>
     <use xlink:href="#DejaVuSans-6c" transform="translate(215.869141 0)"/>
     <use xlink:href="#DejaVuSans-65" transform="translate(243.652344 0)"/>
     <use xlink:href="#DejaVuSans-63" transform="translate(305.175781 0)"/>
     <use xlink:href="#DejaVuSans-20" transform="translate(360.15625 0)"/>
     <use xlink:href="#DejaVuSans-70" transform="translate(391.943359 0)"/>
     <use xlink:href="#DejaVuSans-72" transform="translate(455.419922 0)"/>
     <use xlink:href="#DejaVuSans-73" transform="translate(496.533203 0)"/>
     <use xlink:href="#DejaVuSans-74" transform="translate(548.632812 0)"/>
     <use xlink:href="#DejaVuSans-61" transform="translate(587.841797 0)"/>
     <use xlink:href="#DejaVuSans-6e" transform="translate(649.121094 0)"/>
     <use xlink:href="#DejaVuSans-61" transform="translate(712.5 0)"/>
    </g>
   </g>
   <g id="text_8">
    <!-- Sivi 훾arovnik -->
    <g transform="translate(131.699764 193.071745) scale(0.09 -0.09)">
     <defs>
      <path id="DejaVuSans-53" d="M 3425 4513 
L 3425 3897 
Q 3066 4069 2747 4153 
Q 2428 4238 2131 4238 
Q 1616 4238 1336 4038 
Q 1056 3838 1056 3469 
Q 1056 3159 1242 3001 
Q 1428 2844 1947 2747 
L 2328 2669 
Q 3034 2534 3370 2195 
Q 3706 1856 3706 1288 
Q 3706 609 3251 259 
Q 2797 -91 1919 -91 
Q 1588 -91 1214 -16 
Q 841 59 441 206 
L 441 856 
Q 825 641 1194 531 
Q 1563 422 1919 422 
Q 2459 422 2753 634 
Q 3047 847 3047 1241 
Q 3047 1584 2836 1778 
Q 2625 1972 2144 2069 
L 1759 2144 
Q 1053 2284 737 2584 
Q 422 2884 422 3419 
Q 422 4038 858 4394 
Q 1294 4750 2059 4750 
Q 2388 4750 2728 4690 
Q 3069 4631 3425 4513 
z
" transform="scale(0.015625)"/>
     </defs>
     <use xlink:href="#DejaVuSans-53"/>
     <use xlink:href="#DejaVuSans-69" transform="translate(63.476562 0)"/>
     <use xlink:href="#DejaVuSans-76" transform="translate(91.259766 0)"/>
     <use xlink:href="#DejaVuSans-69" transform="translate(150.439453 0)"/>
     <use xlink:href="#DejaVuSans-20" transform="translate(178.222656 0)"/>
     <use xlink:href="#DejaVuSans-10d" transform="translate(210.009766 0)"/>
     <use xlink:href="#DejaVuSans-61" transform="translate(264.990234 0)"/>
     <use xlink:href="#DejaVuSans-72" transform="translate(326.269531 0)"/>
     <use xlink:href="#DejaVuSans-6f" transform="translate(365.132812 0)"/>
     <use xlink:href="#DejaVuSans-76" transform="translate(426.314453 0)"/>
     <use xlink:href="#DejaVuSans-6e" transform="translate(485.494141 0)"/>
     <use xlink:href="#DejaVuSans-69" transform="translate(548.873047 0)"/>
     <use xlink:href="#DejaVuSans-6b" transform="translate(576.65625 0)"/>
    </g>
   </g>
   <g id="text_9">
    <!-- Postopa훾 -->
    <g transform="translate(242.597292 147.346449) scale(0.09 -0.09)">
     <use xlink:href="#DejaVuSans-50"/>
     <use xlink:href="#DejaVuSans-6f" transform="translate(56.677734 0)"/>
     <use xlink:href="#DejaVuSans-73" transform="translate(117.859375 0)"/>
     <use xlink:href="#DejaVuSans-74" transform="translate(169.958984 0)"/>
     <use xlink:href="#DejaVuSans-6f" transform="translate(209.167969 0)"/>
     <use xlink:href="#DejaVuSans-70" transform="translate(270.349609 0)"/>
     <use xlink:href="#DejaVuSans-61" transform="translate(333.826172 0)"/>
     <use xlink:href="#DejaVuSans-10d" transform="translate(395.105469 0)"/>
    </g>
   </g>
   <g id="text_10">
    <!-- Vilinski lokostrelec -->
    <g transform="translate(162.656072 158.666562) scale(0.09 -0.09)">
     <defs>
      <path id="DejaVuSans-56" d="M 1831 0 
L 50 4666 
L 709 4666 
L 2188 738 
L 3669 4666 
L 4325 4666 
L 2547 0 
L 1831 0 
z
" transform="scale(0.015625)"/>
     </defs>
     <use xlink:href="#DejaVuSans-56"/>
     <use xlink:href="#DejaVuSans-69" transform="translate(66.158203 0)"/>
     <use xlink:href="#DejaVuSans-6c" transform="translate(93.941406 0)"/>
     <use xlink:href="#DejaVuSans-69" transform="translate(121.724609 0)"/>
     <use xlink:href="#DejaVuSans-6e" transform="translate(149.507812 0)"/>
     <use xlink:href="#DejaVuSans-73" transform="translate(212.886719 0)"/>
     <use xlink:href="#DejaVuSans-6b" transform="translate(264.986328 0)"/>
     <use xlink:href="#DejaVuSans-69" transform="translate(322.896484 0)"/>
     <use xlink:href="#DejaVuSans-20" transform="translate(350.679688 0)"/>
     <use xlink:href="#DejaVuSans-6c" transform="translate(382.466797 0)"/>
     <use xlink:href="#DejaVuSans-6f" transform="translate(410.25 0)"/>
     <use xlink:href="#DejaVuSans-6b" transform="translate(471.431641 0)"/>
     <use xlink:href="#DejaVuSans-6f" transform="translate(525.716797 0)"/>
     <use xlink:href="#DejaVuSans-73" transform="translate(586.898438 0)"/>
     <use xlink:href="#DejaVuSans-74" transform="translate(638.998047 0)"/>
     <use xlink:href="#DejaVuSans-72" transform="translate(678.207031 0)"/>
     <use xlink:href="#DejaVuSans-65" transform="translate(717.070312 0)"/>
     <use xlink:href="#DejaVuSans-6c" transform="translate(778.59375 0)"/>
     <use xlink:href="#DejaVuSans-65" transform="translate(806.376953 0)"/>
     <use xlink:href="#DejaVuSans-63" transform="translate(867.900391 0)"/>
    </g>
   </g>
   <g id="text_11">
    <!-- 힋kratovski bojevnik -->
    <g transform="translate(286.465748 336.815739) scale(0.09 -0.09)">
     <defs>
      <path id="DejaVuSans-160" d="M 3425 4513 
L 3425 3897 
Q 3066 4069 2747 4153 
Q 2428 4238 2131 4238 
Q 1616 4238 1336 4038 
Q 1056 3838 1056 3469 
Q 1056 3159 1242 3001 
Q 1428 2844 1947 2747 
L 2328 2669 
Q 3034 2534 3370 2195 
Q 3706 1856 3706 1288 
Q 3706 609 3251 259 
Q 2797 -91 1919 -91 
Q 1588 -91 1214 -16 
Q 841 59 441 206 
L 441 856 
Q 825 641 1194 531 
Q 1563 422 1919 422 
Q 2459 422 2753 634 
Q 3047 847 3047 1241 
Q 3047 1584 2836 1778 
Q 2625 1972 2144 2069 
L 1759 2144 
Q 1053 2284 737 2584 
Q 422 2884 422 3419 
Q 422 4038 858 4394 
Q 1294 4750 2059 4750 
Q 2388 4750 2728 4690 
Q 3069 4631 3425 4513 
z
M 1738 5096 
L 1079 5927 
L 1513 5927 
L 2032 5371 
L 2551 5927 
L 2985 5927 
L 2326 5096 
L 1738 5096 
z
" transform="scale(0.015625)"/>
      <path id="DejaVuSans-62" d="M 3116 1747 
Q 3116 2381 2855 2742 
Q 2594 3103 2138 3103 
Q 1681 3103 1420 2742 
Q 1159 2381 1159 1747 
Q 1159 1113 1420 752 
Q 1681 391 2138 391 
Q 2594 391 2855 752 
Q 3116 1113 3116 1747 
z
M 1159 2969 
Q 1341 3281 1617 3432 
Q 1894 3584 2278 3584 
Q 2916 3584 3314 3078 
Q 3713 2572 3713 1747 
Q 3713 922 3314 415 
Q 2916 -91 2278 -91 
Q 1894 -91 1617 61 
Q 1341 213 1159 525 
L 1159 0 
L 581 0 
L 581 4863 
L 1159 4863 
L 1159 2969 
z
" transform="scale(0.015625)"/>
     </defs>
     <use xlink:href="#DejaVuSans-160"/>
     <use xlink:href="#DejaVuSans-6b" transform="translate(63.476562 0)"/>
     <use xlink:href="#DejaVuSans-72" transform="translate(121.386719 0)"/>
     <use xlink:href="#DejaVuSans-61" transform="translate(162.5 0)"/>
     <use xlink:href="#DejaVuSans-74" transform="translate(223.779297 0)"/>
     <use xlink:href="#DejaVuSans-6f" transform="translate(262.988281 0)"/>
     <use xlink:href="#DejaVuSans-76" transform="translate(324.169922 0)"/>
     <use xlink:href="#DejaVuSans-73" transform="translate(383.349609 0)"/>
     <use xlink:href="#DejaVuSans-6b" transform="translate(435.449219 0)"/>
     <use xlink:href="#DejaVuSans-69" transform="translate(493.359375 0)"/>
     <use xlink:href="#DejaVuSans-20" transform="translate(521.142578 0)"/>
     <use xlink:href="#DejaVuSans-62" transform="translate(552.929688 0)"/>
     <use xlink:href="#DejaVuSans-6f" transform="translate(616.40625 0)"/>
     <use xlink:href="#DejaVuSans-6a" transform="translate(677.587891 0)"/>
     <use xlink:href="#DejaVuSans-65" transform="translate(705.371094 0)"/>
     <use xlink:href="#DejaVuSans-76" transform="translate(766.894531 0)"/>
     <use xlink:href="#DejaVuSans-6e" transform="translate(826.074219 0)"/>
     <use xlink:href="#DejaVuSans-69" transform="translate(889.453125 0)"/>
     <use xlink:href="#DejaVuSans-6b" transform="translate(917.236328 0)"/>
    </g>
   </g>
   <g id="text_12">
    <!-- Zvesti robot -->
    <g transform="translate(358.522159 169.90709) scale(0.09 -0.09)">
     <use xlink:href="#DejaVuSans-5a"/>
     <use xlink:href="#DejaVuSans-76" transform="translate(68.505859 0)"/>
     <use xlink:href="#DejaVuSans-65" transform="translate(127.685547 0)"/>
     <use xlink:href="#DejaVuSans-73" transform="translate(189.208984 0)"/>
     <use xlink:href="#DejaVuSans-74" transform="translate(241.308594 0)"/>
     <use xlink:href="#DejaVuSans-69" transform="translate(280.517578 0)"/>
     <use xlink:href="#DejaVuSans-20" transform="translate(308.300781 0)"/>
     <use xlink:href="#DejaVuSans-72" transform="translate(340.087891 0)"/>
     <use xlink:href="#DejaVuSans-6f" transform="translate(378.951172 0)"/>
     <use xlink:href="#DejaVuSans-62" transform="translate(440.132812 0)"/>
     <use xlink:href="#DejaVuSans-6f" transform="translate(503.609375 0)"/>
     <use xlink:href="#DejaVuSans-74" transform="translate(564.791016 0)"/>
    </g>
   </g>
   <g id="text_13">
    <!-- Voditeljica upora -->
    <g transform="translate(47.605714 238.038861) scale(0.09 -0.09)">
     <defs>
      <path id="DejaVuSans-75" d="M 544 1381 
L 544 3500 
L 1119 3500 
L 1119 1403 
Q 1119 906 1312 657 
Q 1506 409 1894 409 
Q 2359 409 2629 706 
Q 2900 1003 2900 1516 
L 2900 3500 
L 3475 3500 
L 3475 0 
L 2900 0 
L 2900 538 
Q 2691 219 2414 64 
Q 2138 -91 1772 -91 
Q 1169 -91 856 284 
Q 544 659 544 1381 
z
M 1991 3584 
L 1991 3584 
z
" transform="scale(0.015625)"/>
     </defs>
     <use xlink:href="#DejaVuSans-56"/>
     <use xlink:href="#DejaVuSans-6f" transform="translate(60.658203 0)"/>
     <use xlink:href="#DejaVuSans-64" transform="translate(121.839844 0)"/>
     <use xlink:href="#DejaVuSans-69" transform="translate(185.316406 0)"/>
     <use xlink:href="#DejaVuSans-74" transform="translate(213.099609 0)"/>
     <use xlink:href="#DejaVuSans-65" transform="translate(252.308594 0)"/>
     <use xlink:href="#DejaVuSans-6c" transform="translate(313.832031 0)"/>
     <use xlink:href="#DejaVuSans-6a" transform="translate(341.615234 0)"/>
     <use xlink:href="#DejaVuSans-69" transform="translate(369.398438 0)"/>
     <use xlink:href="#DejaVuSans-63" transform="translate(397.181641 0)"/>
     <use xlink:href="#DejaVuSans-61" transform="translate(452.162109 0)"/>
     <use xlink:href="#DejaVuSans-20" transform="translate(513.441406 0)"/>
     <use xlink:href="#DejaVuSans-75" transform="translate(545.228516 0)"/>
     <use xlink:href="#DejaVuSans-70" transform="translate(608.607422 0)"/>
     <use xlink:href="#DejaVuSans-6f" transform="translate(672.083984 0)"/>
     <use xlink:href="#DejaVuSans-72" transform="translate(733.265625 0)"/>
     <use xlink:href="#DejaVuSans-61" transform="translate(774.378906 0)"/>
    </g>
   </g>
   <g id="text_14">
    <!-- Temni vitez -->
    <g transform="translate(213.98441 206.90307) scale(0.09 -0.09)">
     <defs>
      <path id="DejaVuSans-7a" d="M 353 3500 
L 3084 3500 
L 3084 2975 
L 922 459 
L 3084 459 
L 3084 0 
L 275 0 
L 275 525 
L 2438 3041 
L 353 3041 
L 353 3500 
z
" transform="scale(0.015625)"/>
     </defs>
     <use xlink:href="#DejaVuSans-54"/>
     <use xlink:href="#DejaVuSans-65" transform="translate(44.083984 0)"/>
     <use xlink:href="#DejaVuSans-6d" transform="translate(105.607422 0)"/>
     <use xlink:href="#DejaVuSans-6e" transform="translate(203.019531 0)"/>
     <use xlink:href="#DejaVuSans-69" transform="translate(266.398438 0)"/>
     <use xlink:href="#DejaVuSans-20" transform="translate(294.181641 0)"/>
     <use xlink:href="#DejaVuSans-76" transform="translate(325.96875 0)"/>
     <use xlink:href="#DejaVuSans-69" transform="translate(385.148438 0)"/>
     <use xlink:href="#DejaVuSans-74" transform="translate(412.931641 0)"/>
     <use xlink:href="#DejaVuSans-65" transform="translate(452.140625 0)"/>
     <use xlink:href="#DejaVuSans-7a" transform="translate(513.664062 0)"/>
    </g>
   </g>
   <g id="text_15">
    <!-- Zvesti prijatelj -->
    <g transform="translate(170.318742 194.205341) scale(0.09 -0.09)">
     <use xlink:href="#DejaVuSans-5a"/>
     <use xlink:href="#DejaVuSans-76" transform="translate(68.505859 0)"/>
     <use xlink:href="#DejaVuSans-65" transform="translate(127.685547 0)"/>
     <use xlink:href="#DejaVuSans-73" transform="translate(189.208984 0)"/>
     <use xlink:href="#DejaVuSans-74" transform="translate(241.308594 0)"/>
     <use xlink:href="#DejaVuSans-69" transform="translate(280.517578 0)"/>
     <use xlink:href="#DejaVuSans-20" transform="translate(308.300781 0)"/>
     <use xlink:href="#DejaVuSans-70" transform="translate(340.087891 0)"/>
     <use xlink:href="#DejaVuSans-72" transform="translate(403.564453 0)"/>
     <use xlink:href="#DejaVuSans-69" transform="translate(444.677734 0)"/>
     <use xlink:href="#DejaVuSans-6a" transform="translate(472.460938 0)"/>
     <use xlink:href="#DejaVuSans-61" transform="translate(500.244141 0)"/>
     <use xlink:href="#DejaVuSans-74" transform="translate(561.523438 0)"/>
     <use xlink:href="#DejaVuSans-65" transform="translate(600.732422 0)"/>
     <use xlink:href="#DejaVuSans-6c" transform="translate(662.255859 0)"/>
     <use xlink:href="#DejaVuSans-6a" transform="translate(690.039062 0)"/>
    </g>
   </g>
   <g id="text_16">
    <!-- Zlati robot -->
    <g transform="translate(7.2 141.731533) scale(0.09 -0.09)">
     <use xlink:href="#DejaVuSans-5a"/>
     <use xlink:href="#DejaVuSans-6c" transform="translate(68.505859 0)"/>
     <use xlink:href="#DejaVuSans-61" transform="translate(96.289062 0)"/>
     <use xlink:href="#DejaVuSans-74" transform="translate(157.568359 0)"/>
     <use xlink:href="#DejaVuSans-69" transform="translate(196.777344 0)"/>
     <use xlink:href="#DejaVuSans-20" transform="translate(224.560547 0)"/>
     <use xlink:href="#DejaVuSans-72" transform="translate(256.347656 0)"/>
     <use xlink:href="#DejaVuSans-6f" transform="translate(295.210938 0)"/>
     <use xlink:href="#DejaVuSans-62" transform="translate(356.392578 0)"/>
     <use xlink:href="#DejaVuSans-6f" transform="translate(419.869141 0)"/>
     <use xlink:href="#DejaVuSans-74" transform="translate(481.050781 0)"/>
    </g>
   </g>
   <g id="text_17">
    <!-- Prebrisani u훾itelj -->
    <g transform="translate(180.947679 349.367424) scale(0.09 -0.09)">
     <use xlink:href="#DejaVuSans-50"/>
     <use xlink:href="#DejaVuSans-72" transform="translate(58.552734 0)"/>
     <use xlink:href="#DejaVuSans-65" transform="translate(97.416016 0)"/>
     <use xlink:href="#DejaVuSans-62" transform="translate(158.939453 0)"/>
     <use xlink:href="#DejaVuSans-72" transform="translate(222.416016 0)"/>
     <use xlink:href="#DejaVuSans-69" transform="translate(263.529297 0)"/>
     <use xlink:href="#DejaVuSans-73" transform="translate(291.3125 0)"/>
     <use xlink:href="#DejaVuSans-61" transform="translate(343.412109 0)"/>
     <use xlink:href="#DejaVuSans-6e" transform="translate(404.691406 0)"/>
     <use xlink:href="#DejaVuSans-69" transform="translate(468.070312 0)"/>
     <use xlink:href="#DejaVuSans-20" transform="translate(495.853516 0)"/>
     <use xlink:href="#DejaVuSans-75" transform="translate(527.640625 0)"/>
     <use xlink:href="#DejaVuSans-10d" transform="translate(591.019531 0)"/>
     <use xlink:href="#DejaVuSans-69" transform="translate(646 0)"/>
     <use xlink:href="#DejaVuSans-74" transform="translate(673.783203 0)"/>
     <use xlink:href="#DejaVuSans-65" transform="translate(712.992188 0)"/>
     <use xlink:href="#DejaVuSans-6c" transform="translate(774.515625 0)"/>
     <use xlink:href="#DejaVuSans-6a" transform="translate(802.298828 0)"/>
    </g>
   </g>
   <g id="text_18">
    <!-- Pogumna princesa -->
    <g transform="translate(155.768608 57.036595) scale(0.09 -0.09)">
     <defs>
      <path id="DejaVuSans-67" d="M 2906 1791 
Q 2906 2416 2648 2759 
Q 2391 3103 1925 3103 
Q 1463 3103 1205 2759 
Q 947 2416 947 1791 
Q 947 1169 1205 825 
Q 1463 481 1925 481 
Q 2391 481 2648 825 
Q 2906 1169 2906 1791 
z
M 3481 434 
Q 3481 -459 3084 -895 
Q 2688 -1331 1869 -1331 
Q 1566 -1331 1297 -1286 
Q 1028 -1241 775 -1147 
L 775 -588 
Q 1028 -725 1275 -790 
Q 1522 -856 1778 -856 
Q 2344 -856 2625 -561 
Q 2906 -266 2906 331 
L 2906 616 
Q 2728 306 2450 153 
Q 2172 0 1784 0 
Q 1141 0 747 490 
Q 353 981 353 1791 
Q 353 2603 747 3093 
Q 1141 3584 1784 3584 
Q 2172 3584 2450 3431 
Q 2728 3278 2906 2969 
L 2906 3500 
L 3481 3500 
L 3481 434 
z
" transform="scale(0.015625)"/>
     </defs>
     <use xlink:href="#DejaVuSans-50"/>
     <use xlink:href="#DejaVuSans-6f" transform="translate(56.677734 0)"/>
     <use xlink:href="#DejaVuSans-67" transform="translate(117.859375 0)"/>
     <use xlink:href="#DejaVuSans-75" transform="translate(181.335938 0)"/>
     <use xlink:href="#DejaVuSans-6d" transform="translate(244.714844 0)"/>
     <use xlink:href="#DejaVuSans-6e" transform="translate(342.126953 0)"/>
     <use xlink:href="#DejaVuSans-61" transform="translate(405.505859 0)"/>
     <use xlink:href="#DejaVuSans-20" transform="translate(466.785156 0)"/>
     <use xlink:href="#DejaVuSans-70" transform="translate(498.572266 0)"/>
     <use xlink:href="#DejaVuSans-72" transform="translate(562.048828 0)"/>
     <use xlink:href="#DejaVuSans-69" transform="translate(603.162109 0)"/>
     <use xlink:href="#DejaVuSans-6e" transform="translate(630.945312 0)"/>
     <use xlink:href="#DejaVuSans-63" transform="translate(694.324219 0)"/>
     <use xlink:href="#DejaVuSans-65" transform="translate(749.304688 0)"/>
     <use xlink:href="#DejaVuSans-73" transform="translate(810.828125 0)"/>
     <use xlink:href="#DejaVuSans-61" transform="translate(862.927734 0)"/>
    </g>
   </g>
   <g id="text_19">
    <!-- TU STE VI -->
    <g style="fill: #003a6e" transform="translate(221.647542 256.262928) scale(0.08 -0.08)">
     <defs>
      <path id="DejaVuSans-BoldOblique-54" d="M 488 4666 
L 4788 4666 
L 4609 3756 
L 3059 3756 
L 2328 0 
L 1125 0 
L 1856 3756 
L 306 3756 
L 488 4666 
z
" transform="scale(0.015625)"/>
      <path id="DejaVuSans-BoldOblique-55" d="M 1044 4666 
L 2247 4666 
L 1703 1872 
Q 1672 1722 1658 1606 
Q 1644 1491 1644 1403 
Q 1644 1097 1808 945 
Q 1972 794 2297 794 
Q 2734 794 2968 1039 
Q 3203 1284 3316 1869 
L 3859 4666 
L 5063 4666 
L 4519 1869 
Q 4316 838 3748 373 
Q 3181 -91 2125 -91 
Q 1297 -91 865 264 
Q 434 619 434 1294 
Q 434 1406 450 1545 
Q 466 1684 500 1869 
L 1044 4666 
z
" transform="scale(0.015625)"/>
      <path id="DejaVuSans-BoldOblique-20" transform="scale(0.015625)"/>
      <path id="DejaVuSans-BoldOblique-53" d="M 4256 4519 
L 4063 3531 
Q 3709 3706 3365 3792 
Q 3022 3878 2694 3878 
Q 2244 3878 1992 3737 
Q 1741 3597 1741 3347 
Q 1741 3188 1852 3098 
Q 1963 3009 2309 2925 
L 2803 2803 
Q 3422 2647 3711 2351 
Q 4000 2056 4000 1588 
Q 4000 828 3423 368 
Q 2847 -91 1875 -91 
Q 1422 -91 973 -6 
Q 525 78 97 244 
L 288 1259 
Q 703 1019 1095 900 
Q 1488 781 1869 781 
Q 2281 781 2539 950 
Q 2797 1119 2797 1381 
Q 2797 1553 2681 1648 
Q 2566 1744 2175 1844 
L 1684 1966 
Q 1141 2100 875 2390 
Q 609 2681 609 3144 
Q 609 3872 1167 4311 
Q 1725 4750 2669 4750 
Q 3047 4750 3445 4692 
Q 3844 4634 4256 4519 
z
" transform="scale(0.015625)"/>
      <path id="DejaVuSans-BoldOblique-45" d="M 1044 4666 
L 4288 4666 
L 4109 3756 
L 2069 3756 
L 1900 2888 
L 3822 2888 
L 3641 1978 
L 1722 1978 
L 1516 909 
L 3622 909 
L 3450 0 
L 134 0 
L 1044 4666 
z
" transform="scale(0.015625)"/>
      <path id="DejaVuSans-BoldOblique-56" d="M 488 4666 
L 1631 4666 
L 2203 1178 
L 4134 4666 
L 5375 4666 
L 2741 0 
L 1306 0 
L 488 4666 
z
" transform="scale(0.015625)"/>
      <path id="DejaVuSans-BoldOblique-49" d="M 1044 4666 
L 2247 4666 
L 1338 0 
L 134 0 
L 1044 4666 
z
" transform="scale(0.015625)"/>
     </defs>
     <use xlink:href="#DejaVuSans-BoldOblique-54"/>
     <use xlink:href="#DejaVuSans-BoldOblique-55" transform="translate(68.212891 0)"/>
     <use xlink:href="#DejaVuSans-BoldOblique-20" transform="translate(149.414062 0)"/>
     <use xlink:href="#DejaVuSans-BoldOblique-53" transform="translate(184.228516 0)"/>
     <use xlink:href="#DejaVuSans-BoldOblique-54" transform="translate(256.25 0)"/>
     <use xlink:href="#DejaVuSans-BoldOblique-45" transform="translate(324.462891 0)"/>
     <use xlink:href="#DejaVuSans-BoldOblique-20" transform="translate(392.773438 0)"/>
     <use xlink:href="#DejaVuSans-BoldOblique-56" transform="translate(427.587891 0)"/>
     <use xlink:href="#DejaVuSans-BoldOblique-49" transform="translate(504.980469 0)"/>
    </g>
   </g>
  </g>
 </g>
 <defs>
  <clipPath id="p00bed4f8d8">
   <rect x="12.856705" y="7.2" width="390.6" height="388.08"/>
  </clipPath>
 </defs>
</svg>
